<svg width="162" height="191" viewBox="0 0 162 191" fill="none" xmlns="http://www.w3.org/2000/svg">
<path d="M68.2378 107.7C68.0905 152.15 101.809 172.905 118.687 177.726L125.6 163.154C120.644 153.356 113.567 145.678 110.613 143.109C107.54 139.845 99.6376 132.702 92.8899 129.872C86.1421 127.043 73.6436 113.912 68.2378 107.7Z" fill="#5B922A"/>
<path d="M18.9109 146.926C21.0074 147.765 32.3279 151.536 37.3596 155.31L40.3977 167.277C31.9817 168.197 23.1358 157.491 21.0102 154.353C19.3098 151.842 18.015 148.61 17.5801 147.307C17.3355 146.575 17.2333 146.507 17.3033 146.107C18.0724 146.507 18.0952 146.6 18.9109 146.926Z" fill="#5B922A"/>
<path d="M31.1357 68.0828C16.3217 76.0036 16.9504 80.205 17.2157 81.9203C18.4291 89.7603 34.4092 93.938 41.9254 95.903L42.155 95.963C80.467 105.983 155.394 91.9406 170.719 89.3162C186.044 86.6919 196.385 82.4561 203.284 79.0574C207.746 76.8595 210.578 73.5586 210.918 72.3259C211.387 69.5028 210.129 64.9098 203.284 62.2377C193.681 59.2794 186.682 53.4501 184.384 50.9053L155.394 24.4232C151.01 20.8446 140.401 12.8761 133.046 9.63142C107.198 -2.39287 85.3259 4.6213 77.6209 9.63142C72.9384 12.4546 64.696 19.7053 56.6879 32.9308C51.1965 43.6668 42.1185 57.1083 31.1357 68.0828Z" fill="#C16134" stroke="#C16134" stroke-width="0.705967"/>
<path d="M186.749 70.0456C111.861 45.0826 58.1481 67.5156 40.6523 81.8524C55.1598 92.4545 85.2645 93.0167 98.5034 91.9725C100.547 100.069 95.183 112.855 92.2458 118.237C76.75 149.475 74.6893 176.716 80.1784 182.261C86.5774 188.725 106.672 188.9 116.122 183.84C134.818 174.491 130.004 117.554 126.854 87.2739C163.021 83.4186 181.853 74.182 186.749 70.0456Z" fill="url(#paint0_linear_2459_1884)" stroke="#E8D9C6" stroke-width="0.705967"/>
<path d="M101.793 121.699C94.951 142.636 83.0296 182.706 93.4134 186.42" stroke="#C5A687" stroke-opacity="0.5" stroke-width="2.82387" stroke-linecap="round"/>
<path d="M120.09 120.609C120.089 138.741 118.49 182.491 109.493 185.802" stroke="#C5A687" stroke-opacity="0.5" stroke-width="2.82387" stroke-linecap="round"/>
<path fill-rule="evenodd" clip-rule="evenodd" d="M118.133 38.7341C140.529 48.3064 171.486 51.4863 175.479 43.0773C175.514 43.0039 175.547 42.9297 175.578 42.8548L155.402 24.4232C151.017 20.8446 140.409 12.8761 133.053 9.63142C112.976 0.29189 95.2984 2.43821 84.7946 6.20997C80.8577 14.6242 95.7666 29.1747 118.133 38.7341Z" fill="#DC7747" fill-opacity="0.7"/>
<path d="M146.264 23.2749C143.692 27.5016 135.832 27.765 128.708 23.863C121.585 19.961 115.585 14.78 118.157 10.5532C120.73 6.32641 130.899 4.65447 138.023 8.55644C145.147 12.4584 148.836 19.0481 146.264 23.2749Z" fill="#E6D2BA"/>
<path d="M144.94 19.5513C142.767 23.122 137.067 23.8595 132.209 21.1986C127.351 18.5377 123.401 14.7731 125.574 11.2024C127.747 7.63169 135.22 5.60705 140.078 8.26798C144.936 10.9289 147.112 15.9806 144.94 19.5513Z" fill="#F6ECE0"/>
<path d="M59.0515 46.8946C61.2909 50.5746 58.7812 55.927 53.4457 58.8495C48.1103 61.772 42.2162 63.3509 39.9767 59.6709C37.7373 55.9909 40.0006 48.4456 45.336 45.5231C50.6714 42.6006 56.8121 43.2146 59.0515 46.8946Z" fill="#E6D2BA"/>
<path d="M58.6347 46.3252C60.2667 49.0071 58.4376 52.9078 54.5493 55.0376C50.6609 57.1675 46.3654 58.3182 44.7333 55.6363C43.1013 52.9544 44.7507 47.4555 48.6391 45.3256C52.5274 43.1957 57.0026 43.6432 58.6347 46.3252Z" fill="#F6ECE0"/>
<path d="M103.568 31.176C103.647 25.6961 97.7367 21.1761 90.3673 21.0803C82.9979 20.9845 76.5016 28.1887 76.4225 33.6687C76.3434 39.1486 82.7114 40.8292 90.0808 40.9249C97.4502 41.0207 103.488 36.656 103.568 31.176Z" fill="#E6D2BA"/>
<path d="M102.7 28.8283C102.754 25.0639 98.6284 21.958 93.4848 21.8912C88.3412 21.8243 83.8082 26.7723 83.7538 30.5367C83.6994 34.3011 88.1443 35.4564 93.2879 35.5233C98.4315 35.5901 102.645 32.5927 102.7 28.8283Z" fill="#F6ECE0"/>
<path d="M165.328 47.8117C167.439 44.8246 165.895 40.3311 161.878 37.7753C157.86 35.2195 151.569 36.9753 149.457 39.9624C147.346 42.9495 150.214 46.0368 154.231 48.5927C158.248 51.1485 163.217 50.7989 165.328 47.8117Z" fill="#E6D2BA"/>
<path d="M165.105 45.1424C166.581 43.0538 165.501 39.9119 162.692 38.1249C159.884 36.3379 155.485 37.5655 154.008 39.6541C152.532 41.7427 154.537 43.9014 157.346 45.6884C160.155 47.4754 163.629 47.2309 165.105 45.1424Z" fill="#F6ECE0"/>
<path d="M70.175 18.5831C68.7418 16.7643 65.1683 17.0003 62.1933 19.1103C59.2183 21.2203 58.5441 25.4689 59.9772 27.2877C61.4104 29.1065 64.4082 27.8068 67.3832 25.6968C70.3582 23.5868 71.6081 20.4019 70.175 18.5831Z" fill="#E6D2BA"/>
<path d="M70.1049 18.5628C69.1246 17.3187 66.6835 17.4778 64.6525 18.9183C62.6215 20.3588 62.1638 23.2624 63.1441 24.5065C64.1244 25.7506 66.1715 24.8641 68.2025 23.4236C70.2334 21.9831 71.0852 19.8069 70.1049 18.5628Z" fill="#F6ECE0"/>
<path d="M31.9232 68.673C30.6319 67.0342 27.412 67.2469 24.7314 69.1481C22.0508 71.0493 21.4433 74.8774 22.7346 76.5163C24.0259 78.1551 26.7271 76.984 29.4077 75.0828C32.0883 73.1816 33.2145 70.3119 31.9232 68.673Z" fill="#E6D2BA"/>
<path d="M32.0445 68.6857C31.1757 67.5831 29.0093 67.7262 27.2058 69.0053C25.4022 70.2845 24.9935 72.8601 25.8623 73.9627C26.7311 75.0653 28.5485 74.2774 30.352 72.9982C32.1555 71.7191 32.9133 69.7883 32.0445 68.6857Z" fill="#F6ECE0"/>
<path d="M122.209 39.4293C122.622 37.4209 125.09 36.1873 127.721 36.674C130.353 37.1606 132.086 40.2533 131.674 42.2617C131.261 44.27 128.858 44.4334 126.227 43.9468C123.595 43.4602 121.797 41.4376 122.209 39.4293Z" fill="#E6D2BA"/>
<path d="M124.11 38.8344C124.447 37.1929 126.464 36.1846 128.615 36.5824C130.766 36.9801 132.183 39.508 131.846 41.1495C131.508 42.791 129.545 42.9246 127.394 42.5268C125.243 42.1291 123.773 40.4759 124.11 38.8344Z" fill="#F6ECE0"/>
<path d="M142.063 133.966C143.461 165.169 125.399 182.926 116.193 187.903L114.914 177.814C114.914 170.507 118.08 164.913 119.641 162.83C121.246 160.248 125.411 154.486 129.065 151.863C132.719 149.239 139.253 138.838 142.063 133.966Z" fill="#5B922A" stroke="#5A7639" stroke-width="0.100016"/>
<path d="M135.661 174.097C126.5 171.377 120.176 180.431 118.159 185.299L114.917 190.691C117.818 187.54 126.06 185.299 128.96 185.949C131.861 186.599 135.661 188.699 140.662 189.249C149.864 190.01 155.865 189.566 157.715 189.249C154.181 185.332 144.823 176.818 135.661 174.097Z" fill="#97C65F" stroke="#678D3A" stroke-width="0.100016"/>
<path d="M89.9718 121.514C70.5382 166.169 76.2552 181.338 82.5437 183.837C84.712 185.266 84.8353 185.147 83.4332 183.837C76.8048 177.052 82.0338 154.079 88.6622 140.033C93.9649 128.796 118.547 120.765 129.679 118.186C129.679 110.797 128.305 95.3549 127.54 88.4906C149.057 87.3479 178.781 77.2684 186.872 70.1593C184.266 68.4214 181.689 67.4929 175.979 69.207C163.64 73.8732 159.11 71.31 158.388 69.4451C158.133 68.9689 157.878 67.6119 158.898 65.9931C159.917 64.3742 159.493 60.8818 158.898 60.485C158.175 60.0485 155.915 61.8507 154.691 63.3743C151.734 67.4691 144.196 70.4767 140.797 71.4687C137.568 72.0242 130.956 72.9447 130.345 72.1829C129.733 71.4211 130.43 70.5164 130.854 70.1593C133.234 67.0247 137.049 60.4461 133.276 59.2081C129.503 57.9702 128.254 56.4518 127.54 62.7792C127.2 65.7947 124.15 72.5638 114.666 75.5159C102.811 79.2059 93.506 74.4445 91.7214 73.3732C87.5404 70.9925 84.0061 64.4712 83.1988 62.5667C81.9666 62.1699 77.5377 61.6602 77.0278 63.3743C76.314 66.8025 81.3964 71.1909 82.6711 71.8258C84.0733 72.8971 86.4442 75.1349 84.7106 75.5159C71.5813 78.9679 61.3838 70.3974 60.4915 70.0402C54.7809 67.9452 55.0528 70.9131 55.9026 72.659L64.698 79.563C62.616 80.3169 57.9662 81.8221 55.9026 81.5619C50.1497 81.5619 44.421 78.4947 43.0189 79.0899C41.6167 79.685 38.4932 81.8221 42.2633 84.3244C61.3327 94.8947 87.3732 94.2872 98.4205 92.6207C96.6359 109.286 96.7276 107.587 89.9718 121.514Z" fill="#B49678"/>
<path d="M116.233 53.7344C71.5147 54.3304 46.726 72.1483 39.8906 81.963C58.7663 65.1788 97.827 60.5056 116.233 59.552C134.639 58.5983 170.052 65.0754 187.264 70.1615C159.791 53.8541 130.439 53.7343 116.233 53.7344Z" fill="#9C5C3F"/>
<path d="M74.226 129.336C80.2939 132.756 80.0363 134.57 79.9277 135.311C79.4307 138.695 72.8852 140.499 69.8064 141.348L69.7124 141.373C54.0195 145.7 23.3287 139.637 17.0516 138.504C10.7744 137.371 6.53849 135.542 3.71262 134.075C1.88512 133.126 0.725044 131.701 0.585548 131.168C0.393745 129.95 0.908821 127.967 3.71262 126.813C7.6463 125.536 10.5129 123.019 11.4544 121.92L23.3287 110.487C25.1247 108.942 29.4699 105.502 32.4829 104.101C43.0703 98.9094 52.0292 101.938 55.1852 104.101C57.1033 105.32 60.4794 108.45 63.7596 114.16C66.0089 118.795 69.7273 124.598 74.226 129.336Z" fill="#BC643A" stroke="#C96F44" stroke-width="0.614287"/>
<path d="M10.4821 130.182C41.1564 119.405 63.1578 129.09 70.3242 135.28C64.3819 139.857 52.0507 140.1 46.628 139.649C45.791 143.144 47.988 148.665 49.1912 150.988C56.096 164.356 56.6705 176.214 54.4221 178.608C51.801 181.399 43.2822 181.496 39.4113 179.312C31.7532 175.275 33.725 150.694 35.0153 137.62C20.2012 135.956 12.4873 131.968 10.4821 130.182Z" fill="#E8D9C6" stroke="#E8D9C6" stroke-width="0.614287"/>
<path d="M46.5405 139.878C47.2854 147.087 47.2854 146.315 50.1054 152.34C31.0703 157.465 38.4811 176.053 38.1167 177.997C37.9362 178.96 30.6216 168.789 33.5576 150.783C33.5576 147.746 34.409 141.097 34.7282 138.128C25.7466 137.633 15.9144 133.407 12.2608 131.588C8.385 129.786 12.9348 128.758 14.509 129.786C19.6596 131.804 21.8454 131.004 22.1469 130.198C22.2533 129.992 22.3539 128.796 21.6389 128.395C18.7766 126.792 21.6035 127.177 21.8518 127.005C22.1533 126.816 22.884 126.604 23.3948 127.263C24.6293 129.034 27.7757 130.335 29.1945 130.764C30.5425 131.004 33.3022 131.403 33.5576 131.073C33.813 130.744 33.5222 130.352 33.3448 130.198C32.3516 128.842 30.0648 125.53 31.6398 124.995C33.2147 124.459 34.1113 124.601 34.7282 127.005C34.8701 128.31 36.1436 131.238 40.1023 132.515C45.0507 134.111 48.9349 132.051 49.6798 131.588C51.425 130.558 52.2693 128.087 52.6063 127.263C52.3402 126.169 54.6817 126.521 54.8945 127.263C55.1925 128.746 53.9897 130.644 53.4576 130.919C52.8723 131.382 51.8826 132.35 52.6063 132.515C58.0867 134.008 62.3434 130.301 62.7159 130.146C65.0996 129.24 64.9861 130.524 64.6314 131.279L60.96 134.266C61.8291 134.592 63.78 135.506 64.6314 135.218C66.6342 135.218 69.1858 133.706 69.633 134.163C70.0607 134.6 71.0273 135.185 70.2292 136.06C62.2692 140.633 51.1519 140.599 46.5405 139.878Z" fill="#C5A687" stroke="#C5A687" stroke-width="0.614287"/>
<path d="M39.3662 123.695C57.6832 123.953 67.8369 131.089 70.6367 135.327C62.9051 128.08 46.9055 126.063 39.3662 125.651C31.8269 125.239 17.3217 128.036 10.2715 130.232C21.5248 123.191 33.5473 123.695 39.3662 123.695Z" fill="#A46C53" stroke="#A46C53" stroke-width="0.614287"/>
<path d="M45.2881 152.484C48.0907 161.524 52.9738 178.823 48.7205 180.427" stroke="#C5A687" stroke-opacity="0.5" stroke-width="2.45715" stroke-linecap="round"/>
<path d="M37.7891 152.016C37.7893 159.844 38.4443 178.732 42.1298 180.162" stroke="#C5A687" stroke-opacity="0.5" stroke-width="2.45715" stroke-linecap="round"/>
<path fill-rule="evenodd" clip-rule="evenodd" d="M35.2207 102.689C44.5958 99.197 52.3107 101.892 55.1913 103.866C57.1094 105.085 60.4855 108.216 63.7657 113.926C65.2102 116.902 67.2606 120.361 69.7344 123.709C65.8572 125.496 54.4916 121.727 46.9565 115.998C40.0174 110.723 35.1467 105.98 35.2207 102.689Z" fill="#DC7747" fill-opacity="0.7"/>
<path d="M30.9134 106.167C31.4722 107.135 33.1796 107.195 34.7271 106.302C36.2745 105.409 37.5778 104.222 37.019 103.254C36.4602 102.287 34.2511 101.904 32.7036 102.797C31.1562 103.691 30.3547 105.2 30.9134 106.167Z" fill="#E6D2BA"/>
<path d="M32.7468 105.139C33.2188 105.957 34.4569 106.126 35.5122 105.516C36.5675 104.907 37.4256 104.045 36.9536 103.228C36.4816 102.41 34.8581 101.946 33.8029 102.556C32.7476 103.165 32.2748 104.322 32.7468 105.139Z" fill="#F6ECE0"/>
<path d="M39.812 115.778C39.7796 113.412 42.2003 111.461 45.2189 111.42C48.2374 111.378 50.8984 114.489 50.9308 116.855C50.9632 119.22 48.3548 119.946 45.3363 119.987C42.3177 120.029 39.8444 118.144 39.812 115.778Z" fill="#E6D2BA"/>
<path d="M42.6406 114.878C42.6183 113.253 44.3082 111.912 46.415 111.883C48.5219 111.854 50.3787 113.991 50.4009 115.616C50.4232 117.241 48.6025 117.74 46.4957 117.769C44.3888 117.798 42.6628 116.503 42.6406 114.878Z" fill="#F6ECE0"/>
<path d="M16.8862 121.536C16.0213 120.246 16.6541 118.306 18.2995 117.203C19.945 116.099 22.5221 116.857 23.3869 118.147C24.2518 119.437 23.0769 120.769 21.4315 121.873C19.7861 122.976 17.7511 122.825 16.8862 121.536Z" fill="#E6D2BA"/>
<path d="M18.7753 120.381C18.1706 119.479 18.613 118.123 19.7635 117.351C20.914 116.579 22.7159 117.109 23.3206 118.011C23.9253 118.913 23.1038 119.845 21.9533 120.616C20.8029 121.388 19.38 121.282 18.7753 120.381Z" fill="#F6ECE0"/>
<path d="M58.2295 107.966C58.8165 107.181 60.2803 107.283 61.4988 108.194C62.7174 109.105 62.9936 110.939 62.4066 111.724C61.8196 112.509 60.5916 111.948 59.373 111.037C58.1545 110.126 57.6425 108.751 58.2295 107.966Z" fill="#E6D2BA"/>
<path d="M59.3862 107.959C59.7877 107.422 60.7876 107.491 61.6195 108.112C62.4514 108.734 62.6389 109.988 62.2373 110.525C61.8358 111.062 60.9973 110.679 60.1654 110.058C59.3335 109.436 58.9846 108.496 59.3862 107.959Z" fill="#F6ECE0"/>
<path d="M68.3257 123.196C68.8546 122.489 70.1735 122.58 71.2715 123.401C72.3695 124.222 72.6183 125.875 72.0894 126.582C71.5604 127.29 70.454 126.784 69.356 125.963C68.258 125.143 67.7967 123.904 68.3257 123.196Z" fill="#E6D2BA"/>
<path d="M69.0602 122.978C69.416 122.502 70.3034 122.564 71.0421 123.116C71.7809 123.668 71.9483 124.78 71.5924 125.256C71.2366 125.732 70.4921 125.392 69.7534 124.84C69.0147 124.288 68.7043 123.454 69.0602 122.978Z" fill="#F6ECE0"/>
<path d="M12.4282 121.673C11.8993 120.965 10.5804 121.057 9.48244 121.878C8.38445 122.699 8.1356 124.351 8.66453 125.059C9.19347 125.766 10.2999 125.261 11.3979 124.44C12.4959 123.619 12.9572 122.38 12.4282 121.673Z" fill="#E6D2BA"/>
<path d="M12.3963 121.661C12.0009 121.132 11.0152 121.201 10.1945 121.814C9.37383 122.428 9.18783 123.663 9.58317 124.192C9.97851 124.721 10.8055 124.343 11.6261 123.729C12.4468 123.116 12.7916 122.19 12.3963 121.661Z" fill="#F6ECE0"/>
<path d="M54.9608 171.36L54.7589 173.068L55.6533 173.206L55.6657 171.176C55.966 166.407 61.522 162.608 64.2624 161.304L81.9297 151.463C77.9458 150.967 69.2906 150.251 66.5415 151.359C63.7924 152.468 60.754 155.449 59.5785 156.8C55.7135 161.142 54.8896 168.316 54.9608 171.36Z" fill="#97C65F"/>
<defs>
<linearGradient id="paint0_linear_2459_1884" x1="113.7" y1="58.8203" x2="113.7" y2="187.397" gradientUnits="userSpaceOnUse">
<stop stop-color="#E8D9C6"/>
<stop offset="1" stop-color="#E8D9C6"/>
</linearGradient>
</defs>
</svg>
