<svg width="234" height="197" viewBox="0 0 234 197" fill="none" xmlns="http://www.w3.org/2000/svg">
<path d="M147.644 113.532C140.615 117.494 140.913 119.595 141.039 120.453C141.615 124.374 149.198 126.464 152.764 127.446L152.873 127.476C171.053 132.488 206.607 125.465 213.879 124.152C221.151 122.839 226.058 120.721 229.332 119.021C231.449 117.922 232.793 116.271 232.955 115.654C233.177 114.242 232.58 111.945 229.332 110.609C224.775 109.129 221.454 106.213 220.363 104.941L206.607 91.6954C204.527 89.9055 199.493 85.9201 196.003 84.2972C183.737 78.2832 173.359 81.7914 169.703 84.2972C167.481 85.7092 163.569 89.3357 159.769 95.9505C157.164 101.32 152.856 108.043 147.644 113.532Z" fill="#C16134" stroke="#C16134" stroke-width="0.264852"/>
<path d="M221.486 114.513C185.95 102.027 160.462 113.247 152.16 120.418C159.044 125.721 173.329 126.002 179.612 125.48C180.581 129.529 178.036 135.924 176.642 138.616C169.289 154.24 168.311 167.864 170.916 170.638C173.952 173.871 183.487 173.959 187.972 171.428C196.844 166.752 194.559 138.274 193.065 123.13C210.226 121.201 219.163 116.582 221.486 114.513Z" fill="url(#paint0_linear_2459_1805)" stroke="#E8D9C6" stroke-width="0.264852"/>
<path d="M181.173 140.348C177.926 150.82 172.269 170.86 177.197 172.718" stroke="#C5A687" stroke-opacity="0.5" stroke-width="1.05941" stroke-linecap="round"/>
<path d="M189.852 139.805C189.851 148.873 189.092 170.755 184.823 172.411" stroke="#C5A687" stroke-opacity="0.5" stroke-width="1.05941" stroke-linecap="round"/>
<path fill-rule="evenodd" clip-rule="evenodd" d="M188.921 98.8515C199.548 103.639 214.238 105.23 216.133 101.024C216.149 100.987 216.165 100.95 216.18 100.912L206.608 91.6954C204.527 89.9055 199.493 85.9201 196.003 84.2972C186.474 79.6248 178.083 80.7 173.1 82.5874C171.236 86.7963 178.31 94.0714 188.921 98.8515Z" fill="#DC7747" fill-opacity="0.7"/>
<path d="M202.271 91.1194C201.05 93.2335 197.32 93.3652 193.94 91.4136C190.56 89.462 187.713 86.8707 188.934 84.7566C190.154 82.6426 194.98 81.8063 198.36 83.7579C201.74 85.7095 203.491 89.0054 202.271 91.1194Z" fill="#E6D2BA"/>
<path d="M201.642 89.2568C200.611 91.0427 197.906 91.4115 195.601 90.0806C193.296 88.7498 191.421 86.8669 192.452 85.081C193.484 83.2951 197.03 82.2824 199.335 83.6133C201.64 84.9442 202.673 87.4708 201.642 89.2568Z" fill="#F6ECE0"/>
<path d="M160.89 102.933C161.952 104.774 160.761 107.451 158.23 108.912C155.698 110.374 152.901 111.164 151.838 109.323C150.776 107.483 151.85 103.709 154.382 102.247C156.913 100.785 159.827 101.092 160.89 102.933Z" fill="#E6D2BA"/>
<path d="M160.69 102.646C161.465 103.988 160.597 105.939 158.752 107.004C156.907 108.069 154.868 108.645 154.094 107.303C153.319 105.962 154.102 103.212 155.947 102.147C157.792 101.081 159.916 101.305 160.69 102.646Z" fill="#F6ECE0"/>
<path d="M182.015 95.0729C182.053 92.332 179.248 90.0713 175.752 90.0234C172.255 89.9755 169.172 93.5787 169.134 96.3196C169.097 99.0604 172.119 99.9009 175.616 99.9488C179.112 99.9967 181.978 97.8137 182.015 95.0729Z" fill="#E6D2BA"/>
<path d="M181.609 93.8975C181.635 92.0147 179.678 90.4613 177.237 90.4279C174.796 90.3944 172.645 92.8692 172.619 94.752C172.593 96.6347 174.703 97.2126 177.143 97.246C179.584 97.2795 181.584 95.7803 181.609 93.8975Z" fill="#F6ECE0"/>
<path d="M211.325 103.391C212.327 101.897 211.594 99.6494 209.688 98.3711C207.781 97.0928 204.796 97.9709 203.794 99.465C202.792 100.959 204.153 102.503 206.059 103.781C207.965 105.06 210.323 104.885 211.325 103.391Z" fill="#E6D2BA"/>
<path d="M211.217 102.056C211.918 101.011 211.405 99.44 210.072 98.5462C208.74 97.6524 206.652 98.2664 205.952 99.311C205.251 100.356 206.203 101.435 207.536 102.329C208.868 103.223 210.517 103.101 211.217 102.056Z" fill="#F6ECE0"/>
<path d="M166.172 88.7722C165.492 87.8626 163.796 87.9806 162.384 89.0359C160.973 90.0913 160.653 92.2162 161.333 93.1259C162.013 94.0356 163.435 93.3855 164.847 92.3302C166.259 91.2749 166.852 89.6819 166.172 88.7722Z" fill="#E6D2BA"/>
<path d="M166.14 88.7587C165.675 88.1365 164.516 88.2161 163.552 88.9365C162.589 89.657 162.372 91.1093 162.837 91.7315C163.302 92.3538 164.273 91.9103 165.237 91.1899C166.201 90.4694 166.605 89.381 166.14 88.7587Z" fill="#F6ECE0"/>
<path d="M148.018 113.823C147.405 113.004 145.877 113.11 144.605 114.061C143.333 115.012 143.045 116.926 143.658 117.746C144.271 118.566 145.552 117.98 146.824 117.029C148.096 116.078 148.631 114.643 148.018 113.823Z" fill="#E6D2BA"/>
<path d="M148.077 113.832C147.665 113.281 146.637 113.352 145.781 113.992C144.925 114.632 144.731 115.92 145.143 116.471C145.556 117.023 146.418 116.629 147.274 115.989C148.13 115.349 148.489 114.384 148.077 113.832Z" fill="#F6ECE0"/>
<path d="M219.24 104.647C219.853 103.828 221.38 103.934 222.652 104.885C223.924 105.836 224.213 107.751 223.6 108.57C222.987 109.39 221.705 108.804 220.433 107.853C219.161 106.902 218.627 105.467 219.24 104.647Z" fill="#E6D2BA"/>
<path d="M220.438 104.636C220.896 104.023 222.038 104.103 222.989 104.814C223.939 105.524 224.155 106.956 223.697 107.568C223.239 108.181 222.281 107.743 221.33 107.032C220.38 106.322 219.98 105.249 220.438 104.636Z" fill="#F6ECE0"/>
<path d="M190.863 99.2001C191.059 98.1956 192.23 97.5786 193.479 97.822C194.728 98.0654 195.55 99.6123 195.354 100.617C195.159 101.621 194.019 101.703 192.77 101.46C191.521 101.216 190.668 100.205 190.863 99.2001Z" fill="#E6D2BA"/>
<path d="M191.766 98.9028C191.926 98.0818 192.884 97.5775 193.904 97.7765C194.925 97.9754 195.597 99.2397 195.437 100.061C195.277 100.882 194.345 100.949 193.325 100.75C192.304 100.551 191.606 99.7239 191.766 98.9028Z" fill="#F6ECE0"/>
<path d="M175.564 140.259C166.343 162.594 169.056 170.18 172.04 171.43C173.068 172.145 173.127 172.085 172.462 171.43C169.316 168.037 171.798 156.546 174.943 149.521C177.459 143.901 189.124 139.884 194.406 138.594C194.406 134.899 193.754 127.175 193.391 123.742C203.601 123.171 217.706 118.129 221.545 114.574C220.309 113.704 219.086 113.24 216.376 114.097C210.521 116.431 208.372 115.149 208.029 114.216C207.908 113.978 207.787 113.3 208.271 112.49C208.755 111.68 208.553 109.934 208.271 109.735C207.928 109.517 206.856 110.418 206.275 111.18C204.872 113.228 201.295 114.732 199.682 115.229C198.15 115.506 195.012 115.967 194.722 115.586C194.432 115.205 194.762 114.752 194.964 114.574C196.093 113.006 197.904 109.716 196.113 109.096C194.323 108.477 193.73 107.718 193.391 110.882C193.23 112.391 191.782 115.776 187.282 117.253C181.657 119.098 177.241 116.717 176.395 116.181C174.411 114.99 172.734 111.729 172.35 110.776C171.766 110.578 169.664 110.323 169.422 111.18C169.083 112.895 171.495 115.09 172.1 115.407C172.765 115.943 173.89 117.062 173.068 117.253C166.838 118.979 161.999 114.693 161.575 114.514C158.866 113.466 158.995 114.951 159.398 115.824L163.571 119.277C162.583 119.654 160.377 120.407 159.398 120.277C156.668 120.277 153.95 118.743 153.284 119.04C152.619 119.338 151.137 120.407 152.926 121.658C161.975 126.945 174.331 126.641 179.573 125.808C178.727 134.143 178.77 133.293 175.564 140.259Z" fill="#B49678"/>
<path d="M188.031 106.355C166.811 106.654 155.048 115.565 151.805 120.474C160.762 112.079 179.297 109.742 188.031 109.265C196.765 108.788 213.569 112.028 221.736 114.572C208.699 106.415 194.772 106.355 188.031 106.355Z" fill="#9C5C3F"/>
<path d="M204.608 124.717C207.805 149.51 189.543 173.841 182.534 178.426L183.538 162.104C185.006 156.08 187.546 151 188.652 149.235C189.76 147.069 192.697 142.195 195.436 139.859C198.175 137.523 202.692 128.791 204.608 124.717Z" fill="#5B922A" stroke="#5A7639" stroke-width="0.0800457"/>
<path d="M195.162 154.888C185.993 155.101 182.882 165.234 182.473 170.274L181.865 178.757C183.587 175.025 189.691 167.948 192.531 167.687C195.372 167.427 199.463 168.226 204.192 167.256C212.821 165.241 218.172 163.069 219.769 162.235C215.388 159.697 204.332 154.675 195.162 154.888Z" fill="#97C65F" stroke="#97C65F" stroke-width="0.0959896"/>
<path d="M147.466 155.301C146.154 157.162 140.418 159.563 135.778 166.766L127.765 188.807C134.443 173.111 150.027 168.229 151.44 164.1C152.605 160.694 152.968 156.825 152.544 155.301C152.598 154.3 150.525 149.327 150.333 149.303C150.15 149.085 148.802 153.409 147.466 155.301Z" fill="#5B922A" stroke="#607B40" stroke-opacity="0.5" stroke-width="0.0893036"/>
<path d="M133.594 176.085L131.808 178.005L129.77 180.451L134.398 176.799C139.149 171.084 147.69 173.703 151.366 175.728L176.416 186.935C173.32 180.922 166.253 168.324 162.752 166.038C159.251 163.752 153.732 163.478 151.411 163.627C143.873 163.984 136.393 172.081 133.594 176.085Z" fill="#97C65F" stroke="#97C65F" stroke-width="0.0893036"/>
<path d="M1.66837 85.1701C-2.29543 107.855 17.0408 114.949 27.2044 115.661L128.586 117.338C130.644 118.151 137.978 117.551 150.845 108.648C168.651 95.537 164.413 72.9484 160.068 63.293L128.586 25.9417C124.775 19.3354 111.908 5.45191 90.9302 2.76872C62.7567 -0.890174 38.8418 13.3897 30.406 20.987C22.4784 32.9292 5.63218 62.485 1.66837 85.1701Z" fill="#C16134" stroke="#BD7350" stroke-width="0.609816" stroke-linecap="round"/>
<path d="M13.197 79.827C-5.34146 101.11 14.8739 112.376 27.2989 115.349L32.8635 106.125C33.6766 102.162 36.126 93.8223 39.4191 92.1758C65.9862 77.7616 117.171 83.5622 117.399 92.1758C117.582 99.0667 124.574 111.058 128.132 116.521L137.736 113.701L148.484 107.222C152.168 104.833 160.33 92.3283 152.464 74.9485C144.597 57.5688 115.697 58.8138 102.23 61.6088L51.158 69.0028C41.6296 69.1299 20.6977 71.4726 13.197 79.827Z" fill="url(#paint1_linear_2459_1805)" stroke="#BD7350" stroke-width="0.609816" stroke-linecap="round"/>
<path d="M93.0344 27.0034C84.6092 20.2704 83.3107 5.94042 71.3281 2.62615C86.3294 1.25698 102.808 4.44965 110.733 8.63648C128.432 17.9866 138.451 39.0253 160.825 63.7361C163.762 76.5709 167.837 90.7854 152.568 107.483C159.403 91.4533 159.02 73.4985 152.568 66.8585C147.589 61.734 133.204 49.4918 126.872 43.1023C121.304 37.4831 98.3115 31.2206 93.0344 27.0034Z" fill="#D28F72" stroke="#D28F72" stroke-width="0.609816" stroke-linecap="round"/>
<path d="M119.314 90.3376C90.3643 78.0932 52.6907 84.0806 36.9335 92.4512L30.7692 108.758C29.6478 111.686 24.3543 120.551 18.8512 138.436C8.86892 173.262 41.5139 190.156 59.0841 194.249C74.4948 196.375 109.091 197.65 124.193 185.747C151.468 164.493 136.486 127.494 132.271 121.669C128.237 116.092 121.527 99.6529 119.314 90.3376Z" fill="#E8D9C6" stroke="#E8D9C6" stroke-width="0.609816" stroke-linecap="round"/>
<path d="M126.297 127.186C122.897 121.684 119.027 102.794 117.797 93.2305C135.841 136.114 131.501 119.423 136.883 132.07C146.314 154.229 135.653 171.8 129.425 178.693C138.166 143.668 130.128 133.385 126.297 127.186Z" fill="#FDF6F1" fill-opacity="0.7" stroke="#E8D9C6" stroke-width="0.609816" stroke-linecap="round"/>
<path d="M67.7894 118.227C69.2001 127.892 77.1999 135.727 87.692 133.194C99.0833 132.071 103.821 122.838 102.411 113.174C101 103.509 93.5689 94.8204 82.4623 97.366C70.7228 100.057 66.6113 110.156 67.7894 118.227Z" fill="#C5A687"/>
<path d="M73.8695 115.951C74.7346 124.876 80.2903 131.99 87.5697 131.757C94.8491 131.524 100.518 124.069 100.231 115.107C99.9436 106.144 92.9718 99.0947 85.6924 99.3278C78.413 99.5609 72.6167 103.026 73.8695 115.951Z" fill="#E4FAEB"/>
<path d="M92.3468 146.223C65.7271 147.03 64.2998 178.078 67.2254 194.91C92.3468 197.73 114.405 191.558 118.526 188.507C118.526 182.335 125.621 145.215 92.3468 146.223Z" fill="#C5A687" stroke="#C5A687" stroke-width="1.06718" stroke-linecap="round"/>
<path d="M92.614 146.505C71.8803 150.063 70.7717 178.701 73.8941 195.49C84.6361 197.341 103.556 194.198 111.545 192.192C113.731 175.501 112.037 143.172 92.614 146.505Z" fill="#E8D9C6" stroke="#E8D9C6" stroke-width="1.06718" stroke-linecap="round"/>
<path d="M101.608 168.506C101.547 169.115 102.498 169.319 102.98 169.344H103.285C103.184 170.056 102.95 171.677 102.828 172.469C102.706 173.262 103.082 173.714 103.285 173.841C103.793 174.223 105.039 174.863 105.953 174.375C107.097 173.765 106.487 172.012 106.487 171.631V169.344C106.944 169.217 107.859 168.81 107.859 168.201C107.493 166.859 105.928 166.32 105.191 166.219C102.874 166.829 101.837 167.997 101.608 168.506Z" fill="#C5A687" stroke="#C5A687" stroke-width="0.457362" stroke-linecap="round"/>
<path d="M101.031 117.4L73.5369 115.866" stroke="#C5A687" stroke-width="1.06718" stroke-linecap="round"/>
<path d="M28.584 112.155L34.4785 95.543L47.5882 90.5508L40.3512 114.442C30.3854 147.842 46.0238 190.02 47.5883 190.632C3.34581 173.896 14.2084 129.628 28.584 112.155Z" fill="#B49678"/>
<path d="M117.133 85.2743C124.251 91.9948 140.448 92.3511 144.676 91.2388C141.718 94.6396 126.45 98.6169 111.899 88.7067L117.133 85.2743Z" fill="#C5A687"/>
<path d="M97.6863 80.784C108.895 86.3784 122.651 83.5798 127.888 81.2054C124.954 85.7941 113.624 93.1808 91.7756 86.0177L97.6863 80.784Z" fill="url(#paint2_linear_2459_1805)"/>
<path d="M147.468 67.409C147.232 67.0854 146.973 66.7597 146.694 66.4329C141.137 61.5939 111.656 58.2035 105.391 60.3963C98.7123 62.7339 65.652 67.409 48.6209 68.7449C30.6155 70.1572 13.223 77.0935 7.54604 86.1099C3.00447 93.3231 5.65372 102.25 7.54604 105.813C8.54787 106.703 9.01539 107.282 2.87085 102.473C-4.80983 96.4621 5.07881 72.7262 7.54604 65.0715C20.5697 24.665 32.9259 51.3799 53.6304 55.0552C74.0187 58.6745 94.3716 58.3933 112.405 55.0539C126.165 52.5056 140.918 59.6794 146.694 66.4329C147.061 66.7524 147.323 67.0781 147.468 67.409Z" fill="#9C5C3F"/>
<path d="M114.49 24.8023C111.853 29.3692 103.796 29.6537 96.4935 25.4378C89.1912 21.2218 83.0413 15.6239 85.678 11.057C88.3147 6.49007 98.7396 4.68359 106.042 8.89954C113.344 13.1155 117.126 20.2354 114.49 24.8023Z" fill="#E6D2BA"/>
<path d="M113.133 20.7821C110.905 24.6401 105.063 25.4369 100.083 22.5619C95.1033 19.6868 91.0538 15.6193 93.2812 11.7613C95.5086 7.90328 103.17 5.71572 108.149 8.59077C113.129 11.4658 115.36 16.9241 113.133 20.7821Z" fill="#F6ECE0"/>
<path d="M25.0959 50.3205C27.3915 54.2967 24.8187 60.0797 19.3495 63.2374C13.8802 66.3951 7.8382 68.101 5.54259 64.1249C3.24698 60.1488 5.56706 51.9963 11.0363 48.8386C16.5056 45.681 22.8003 46.3444 25.0959 50.3205Z" fill="#E6D2BA"/>
<path d="M24.6668 49.7058C26.3398 52.6035 24.4648 56.8181 20.4789 59.1193C16.493 61.4206 12.0897 62.6638 10.4167 59.7661C8.74373 56.8684 10.4346 50.927 14.4205 48.6258C18.4063 46.3245 22.9938 46.8081 24.6668 49.7058Z" fill="#F6ECE0"/>
<path d="M70.7276 33.3396C70.8087 27.4186 64.7505 22.5349 57.1963 22.4314C49.642 22.3279 42.9827 30.1119 42.9016 36.0328C42.8205 41.9537 49.3483 43.7694 56.9025 43.8729C64.4568 43.9764 70.6465 39.2605 70.7276 33.3396Z" fill="#E6D2BA"/>
<path d="M69.8407 30.8074C69.8964 26.7401 65.6673 23.3843 60.3947 23.3121C55.1221 23.2398 50.4753 28.586 50.4196 32.6533C50.3639 36.7206 54.9203 37.9689 60.1929 38.0411C65.4655 38.1134 69.785 34.8747 69.8407 30.8074Z" fill="#F6ECE0"/>
<path d="M134.037 51.3126C136.201 48.0851 134.618 43.2301 130.5 40.4686C126.382 37.7071 119.932 39.6042 117.768 42.8317C115.604 46.0592 118.544 49.3949 122.662 52.1564C126.78 54.9179 131.872 54.5401 134.037 51.3126Z" fill="#E6D2BA"/>
<path d="M36.4976 19.7327C35.0285 17.7675 31.3654 18.0226 28.3158 20.3024C25.2661 22.5822 24.575 27.1726 26.0441 29.1378C27.5132 31.1029 30.5862 29.6986 33.6358 27.4188C36.6854 25.1391 37.9667 21.6978 36.4976 19.7327Z" fill="#E6D2BA"/>
<path d="M36.4313 19.7091C35.4264 18.3649 32.9241 18.5369 30.8422 20.0932C28.7603 21.6496 28.291 24.7869 29.2959 26.1311C30.3008 27.4753 32.3993 26.5174 34.4812 24.9611C36.5631 23.4047 37.4362 21.0533 36.4313 19.7091Z" fill="#F6ECE0"/>
<path d="M151.138 54.0278C152.462 52.2572 155.763 52.487 158.51 54.5412C161.258 56.5953 161.881 60.7315 160.557 62.5022C159.234 64.2729 156.465 63.0076 153.717 60.9534C150.969 58.8992 149.814 55.7985 151.138 54.0278Z" fill="#E6D2BA"/>
<path d="M153.734 53.9998C154.723 52.6763 157.19 52.8481 159.244 54.3834C161.298 55.9188 161.763 59.0103 160.774 60.3337C159.785 61.6572 157.715 60.7114 155.661 59.1761C153.607 57.6407 152.744 55.3232 153.734 53.9998Z" fill="#F6ECE0"/>
<path d="M89.8366 42.2621C90.2596 40.0922 92.7893 38.7594 95.4868 39.2852C98.1844 39.8109 99.9614 43.1526 99.5384 45.3225C99.1155 47.4924 96.6527 47.669 93.9552 47.1432C91.2576 46.6174 89.4137 44.4321 89.8366 42.2621Z" fill="#E6D2BA"/>
<path d="M91.7863 41.6143C92.132 39.8407 94.1996 38.7513 96.4044 39.181C98.6093 39.6108 100.062 42.342 99.716 44.1156C99.3703 45.8892 97.3574 46.0335 95.1525 45.6038C92.9477 45.174 91.4406 43.3879 91.7863 41.6143Z" fill="#F6ECE0"/>
<path d="M12.8906 80.4336C3.80738 102.34 20.7939 107.594 30.2556 107.483C29.5877 109.598 27.6509 114.362 26.5823 115.164C-5.20906 106.615 4.20811 88.4482 12.8906 80.4336Z" fill="#B49678"/>
<path d="M129.436 115.497C127.566 113.36 121.978 99.4679 119.418 92.7891C124.984 99.134 140.189 109.419 153.814 98.4661C151.476 109.486 131.774 118.169 129.436 115.497Z" fill="#C5A687"/>
<path d="M86.3555 99.4688V131.861" stroke="#C5A687" stroke-width="1.33577" stroke-linecap="round"/>
<path d="M110.401 88.4477C114.409 124.846 140.122 153.901 118.416 188.629" stroke="#C5A687" stroke-opacity="0.2" stroke-width="2.00365" stroke-linecap="round"/>
<path d="M95.0377 85.4476C99.0455 121.846 113.405 130.864 111.067 156.912" stroke="#C5A687" stroke-opacity="0.2" stroke-width="2.00365" stroke-linecap="round"/>
<path d="M53.2969 87.4453C46.9644 113.775 35.4078 184.911 60.4859 194.933" stroke="#C5A687" stroke-opacity="0.4" stroke-width="2.00365" stroke-linecap="round"/>
<path d="M53.2969 87.4453C46.9644 113.775 35.4078 184.911 60.4859 194.933" stroke="#C5A687" stroke-opacity="0.2" stroke-width="2.00365" stroke-linecap="round"/>
<path d="M66.3203 84.7734C71.6634 112.491 41.9425 175.94 73.8432 194.933" stroke="#C5A687" stroke-opacity="0.2" stroke-width="2.00365" stroke-linecap="round"/>
<path d="M38.2687 92.1214C43.6118 119.839 6.20965 144.216 38.2687 184.623" stroke="#A88A6C" stroke-opacity="0.5" stroke-width="2.00365" stroke-linecap="round"/>
<ellipse cx="8.99478" cy="9.68083" rx="8.99478" ry="9.68083" transform="matrix(-1 0 0 1 58.4609 141.523)" fill="#C5A687"/>
<path d="M42.7605 151.621C42.7605 155.89 45.6371 160.082 48.7824 160.082C55.1092 160.082 56.9882 156.347 57.4723 152.078C57.9564 147.81 54.5615 143.024 50.3832 142.55C46.2048 142.076 42.7605 145.13 42.7605 151.621Z" fill="#E4FAEB"/>
<path d="M47.6914 73.4961C68.4795 84.8515 92.0278 86.0368 114.175 68.1092C104.4 82.2782 77.4193 103.192 47.6914 73.4961Z" fill="#B49678"/>
<path d="M59.9336 81.3954C48.0006 88.0174 32.3292 86.5847 26.2237 84.7444C29.9906 88.9985 43.4386 95.2052 67.096 85.9986L59.9336 81.3954Z" fill="#B49678"/>
<path d="M41.6499 87.6292C33.0834 95.8216 19.7271 97.5842 14.257 97.1321C18.2802 100.181 30.7764 103.089 48.5752 90.3304L41.6499 87.6292Z" fill="url(#paint3_linear_2459_1805)"/>
<path d="M19.8939 138.194C18.5525 168.141 35.8874 185.183 44.7225 189.96L45.9498 180.277C45.9498 173.264 42.9114 167.895 41.4138 165.896C39.8732 163.418 35.8753 157.888 32.3686 155.37C28.862 152.852 22.591 142.87 19.8939 138.194Z" fill="#5B922A" stroke="#5A7639" stroke-width="0.0959896"/>
<path d="M26.0407 176.71C34.8333 174.099 40.9031 182.789 42.8389 187.461L45.9499 192.635C43.1662 189.612 35.2557 187.461 32.472 188.085C29.6883 188.709 26.0407 190.724 21.2412 191.252C12.4102 191.982 6.65081 191.556 4.875 191.252C8.26663 187.493 17.2481 179.321 26.0407 176.71Z" fill="#97C65F" stroke="#678D3A" stroke-width="0.0959896"/>
<path d="M133.369 48.1794C134.882 45.9228 133.775 42.5281 130.896 40.5973C128.016 38.6665 123.507 39.9929 121.994 42.2496C120.48 44.5062 122.536 46.8386 125.415 48.7694C128.294 50.7002 131.855 50.4361 133.369 48.1794Z" fill="#F6ECE0"/>
<defs>
<linearGradient id="paint0_linear_2459_1805" x1="186.823" y1="108.898" x2="186.823" y2="173.207" gradientUnits="userSpaceOnUse">
<stop stop-color="#E8D9C6"/>
<stop offset="1" stop-color="#E8D9C6"/>
</linearGradient>
<linearGradient id="paint1_linear_2459_1805" x1="20.2361" y1="97.1303" x2="99.7144" y2="60.0627" gradientUnits="userSpaceOnUse">
<stop stop-color="#BFA182"/>
<stop offset="1" stop-color="#E8D9C6"/>
</linearGradient>
<linearGradient id="paint2_linear_2459_1805" x1="109.51" y1="79.7899" x2="110.285" y2="89.0005" gradientUnits="userSpaceOnUse">
<stop stop-color="#B49678"/>
<stop offset="1" stop-color="#C5A687"/>
</linearGradient>
<linearGradient id="paint3_linear_2459_1805" x1="28.9198" y1="98.1342" x2="36.9345" y2="94.1269" gradientUnits="userSpaceOnUse">
<stop stop-color="#A98868"/>
<stop offset="1" stop-color="#B49678"/>
</linearGradient>
</defs>
</svg>
