<svg width="439" height="227" viewBox="0 0 439 227" fill="none" xmlns="http://www.w3.org/2000/svg">
<path d="M276.23 114.604C289.615 181.022 346.317 201.694 372.995 203.727L378.857 179.852C368.458 166.739 355.54 157.44 350.343 154.508C344.756 150.575 330.769 142.327 319.827 140.167C308.885 138.008 286.203 122.226 276.23 114.604Z" fill="#5A7639" fill-opacity="0.5"/>
<path d="M263.573 80.4811C245.907 89.9268 246.657 94.937 246.973 96.9826C248.42 106.332 267.477 111.314 276.44 113.657L276.714 113.729C322.402 125.678 411.754 108.932 430.029 105.802C448.304 102.673 460.636 97.6215 468.863 93.5685C474.184 90.9474 477.561 87.0111 477.967 85.5411C478.526 82.1744 477.026 76.6972 468.863 73.5107C457.411 69.9828 449.065 63.0314 446.324 59.9966L411.754 28.4163C406.525 24.1487 393.875 14.6461 385.103 10.7768C354.279 -3.5624 328.196 4.80212 319.008 10.7768C313.424 14.1434 303.595 22.79 294.045 38.5617C287.496 51.3645 276.67 67.3938 263.573 80.4811Z" fill="#C16134" stroke="#C16134" stroke-width="0.841878"/>
<path d="M449.142 82.8199C359.838 53.0511 295.784 79.8028 274.92 96.8998C292.22 109.543 328.121 110.213 343.908 108.968C346.345 118.623 339.949 133.871 336.446 140.289C317.967 177.54 315.51 210.026 322.055 216.639C329.686 224.347 353.649 224.556 364.919 218.522C387.214 207.373 381.474 139.475 377.717 103.365C420.846 98.7675 443.304 87.7527 449.142 82.8199Z" fill="url(#paint0_linear_906_80)" stroke="#E8D9C6" stroke-width="0.841878"/>
<path d="M347.832 144.422C339.673 169.39 325.456 217.173 337.839 221.602" stroke="#C5A687" stroke-opacity="0.5" stroke-width="3.36751" stroke-linecap="round"/>
<path d="M369.654 143.121C369.654 164.744 367.747 216.916 357.017 220.864" stroke="#C5A687" stroke-opacity="0.5" stroke-width="3.36751" stroke-linecap="round"/>
<path fill-rule="evenodd" clip-rule="evenodd" d="M367.312 45.4805C394.02 56.8956 430.937 60.6877 435.698 50.6598C435.74 50.5721 435.779 50.4835 435.816 50.3941L411.758 28.4163C406.529 24.1487 393.879 14.6461 385.107 10.7768C361.162 -0.36192 340.079 2.19927 327.554 6.69802C322.864 16.7326 340.642 34.0819 367.312 45.4805Z" fill="#DC7747" fill-opacity="0.7"/>
<path d="M400.862 27.0483C397.794 32.0888 388.421 32.4028 379.926 27.7497C371.431 23.0965 364.277 16.918 367.344 11.8775C370.412 6.83699 382.539 4.84317 391.034 9.49633C399.529 14.1495 403.929 22.0078 400.862 27.0483Z" fill="#E6D2BA"/>
<path d="M399.282 22.6084C396.691 26.8665 389.894 27.746 384.101 24.5728C378.308 21.3996 373.597 16.9102 376.188 12.6521C378.779 8.39401 387.692 5.97958 393.485 9.15279C399.278 12.326 401.873 18.3503 399.282 22.6084Z" fill="#F6ECE0"/>
<path d="M296.859 55.214C299.53 59.6025 296.537 65.9853 290.174 69.4704C283.812 72.9556 276.783 74.8384 274.112 70.45C271.442 66.0615 274.141 57.0636 280.503 53.5784C286.866 50.0933 294.189 50.8256 296.859 55.214Z" fill="#E6D2BA"/>
<path d="M296.361 54.5367C298.307 57.7349 296.126 62.3865 291.489 64.9265C286.852 67.4664 281.73 68.8385 279.783 65.6403C277.837 62.4421 279.804 55.8846 284.441 53.3447C289.078 50.8048 294.415 51.3384 296.361 54.5367Z" fill="#F6ECE0"/>
<path d="M349.946 36.4704C350.04 29.9354 342.993 24.5452 334.204 24.431C325.416 24.3168 317.669 32.9079 317.575 39.4429C317.481 45.9778 325.075 47.9819 333.863 48.0961C342.651 48.2103 349.852 43.0053 349.946 36.4704Z" fill="#E6D2BA"/>
<path d="M348.915 33.6728C348.98 29.1836 344.06 25.4799 337.926 25.4002C331.793 25.3204 326.387 31.221 326.322 35.7101C326.257 40.1992 331.558 41.577 337.692 41.6567C343.825 41.7364 348.85 38.1619 348.915 33.6728Z" fill="#F6ECE0"/>
<path d="M423.598 56.3067C426.116 52.7445 424.274 47.386 419.483 44.3381C414.693 41.2902 407.19 43.384 404.672 46.9463C402.154 50.5085 405.574 54.1901 410.365 57.238C415.155 60.2859 421.08 59.8689 423.598 56.3067Z" fill="#E6D2BA"/>
<path d="M423.333 53.1249C425.093 50.6343 423.805 46.8876 420.456 44.7565C417.106 42.6255 411.86 44.0894 410.1 46.5801C408.339 49.0708 410.731 51.645 414.08 53.7761C417.43 55.9072 421.572 55.6156 423.333 53.1249Z" fill="#F6ECE0"/>
<path d="M310.126 21.4511C308.417 19.2822 304.155 19.5637 300.607 22.0799C297.06 24.5961 296.256 29.6626 297.965 31.8316C299.674 34.0005 303.249 32.4506 306.796 29.9344C310.344 27.4182 311.835 23.6201 310.126 21.4511Z" fill="#E6D2BA"/>
<path d="M310.045 21.4295C308.876 19.9459 305.965 20.1357 303.543 21.8534C301.121 23.5712 300.575 27.0339 301.744 28.5175C302.913 30.0011 305.354 28.9439 307.776 27.2261C310.198 25.5083 311.214 22.9131 310.045 21.4295Z" fill="#F6ECE0"/>
<path d="M264.512 81.1853C262.972 79.231 259.132 79.4846 255.935 81.7518C252.739 84.019 252.014 88.5842 253.554 90.5385C255.094 92.4928 258.315 91.0963 261.512 88.8291C264.709 86.5618 266.052 83.1396 264.512 81.1853Z" fill="#E6D2BA"/>
<path d="M264.653 81.2003C263.617 79.8854 261.034 80.0561 258.883 81.5815C256.732 83.1069 256.245 86.1783 257.281 87.4932C258.317 88.8081 260.484 87.8685 262.635 86.3431C264.786 84.8177 265.689 82.5152 264.653 81.2003Z" fill="#F6ECE0"/>
<path d="M372.177 46.3143C372.669 43.9193 375.612 42.4482 378.75 43.0286C381.888 43.6089 383.956 47.297 383.464 49.692C382.972 52.087 380.107 52.2819 376.968 51.7016C373.83 51.1212 371.685 48.7093 372.177 46.3143Z" fill="#E6D2BA"/>
<path d="M374.447 45.6017C374.849 43.6441 377.254 42.4418 379.819 42.9161C382.384 43.3904 384.074 46.4049 383.672 48.3625C383.27 50.32 380.928 50.4793 378.363 50.0049C375.798 49.5306 374.045 47.5592 374.447 45.6017Z" fill="#F6ECE0"/>
<path d="M333.734 144.199C310.559 197.451 317.377 215.539 324.876 218.52C327.462 220.224 327.609 220.082 325.937 218.52C318.033 210.429 324.268 183.033 332.173 166.282C338.496 152.882 367.81 143.305 381.086 140.23C381.086 131.418 379.448 113.003 378.535 104.818C404.195 103.455 439.641 91.435 449.289 82.9572C446.182 80.8847 443.109 79.7775 436.299 81.8216C421.585 87.386 416.183 84.3294 415.322 82.1055C415.018 81.5377 414.714 79.9194 415.93 77.9889C417.146 76.0584 416.639 71.8936 415.93 71.4204C415.068 70.8999 412.373 73.049 410.913 74.866C407.387 79.7491 398.398 83.3357 394.344 84.5186C390.494 85.1811 382.609 86.2788 381.88 85.3703C381.15 84.4618 381.981 83.383 382.488 82.9572C385.325 79.2191 389.875 71.374 385.376 69.8977C380.876 68.4214 379.386 66.6107 378.535 74.1562C378.13 77.7523 374.492 85.8246 363.183 89.345C349.046 93.7455 337.949 88.0674 335.821 86.7899C330.835 83.9508 326.62 76.1741 325.658 73.9029C324.188 73.4297 318.907 72.8219 318.299 74.866C317.447 78.9542 323.508 84.1874 325.028 84.9445C326.7 86.2221 329.528 88.8907 327.46 89.345C311.803 93.4616 299.643 83.2411 298.579 82.8152C291.769 80.3169 292.093 83.8562 293.106 85.9381L303.595 94.1713C301.112 95.0703 295.567 96.8652 293.106 96.5549C286.246 96.5549 279.414 92.8973 277.742 93.6071C276.07 94.3168 272.345 96.8652 276.841 99.8494C299.582 112.455 330.636 111.73 343.81 109.743C341.682 129.616 341.791 127.591 333.734 144.199Z" fill="#B49678"/>
<path d="M365.054 63.3711C311.726 64.0819 282.165 85.33 274.014 97.0342C296.523 77.0187 343.104 71.4459 365.054 70.3087C387.003 69.1714 429.233 76.8955 449.759 82.9608C416.996 63.5139 381.995 63.371 365.054 63.3711Z" fill="#9C5C3F"/>
<path d="M315.591 167.978C322.163 171.681 321.884 173.646 321.766 174.448C321.228 178.113 314.139 180.067 310.805 180.986L310.703 181.014C293.708 185.699 260.47 179.133 253.671 177.906C246.873 176.679 242.286 174.698 239.225 173.109C237.246 172.081 235.99 170.538 235.839 169.962C235.631 168.642 236.189 166.494 239.225 165.245C243.486 163.861 246.59 161.136 247.61 159.946L260.47 147.564C262.415 145.89 267.12 142.164 270.384 140.647C281.85 135.025 291.552 138.305 294.97 140.647C297.048 141.967 300.704 145.358 304.256 151.541C306.692 156.561 310.719 162.846 315.591 167.978Z" fill="#BC643A" stroke="#C96F44" stroke-width="0.665273"/>
<path d="M246.558 168.893C279.778 157.221 303.606 167.71 311.367 174.414C304.932 179.371 291.577 179.634 285.704 179.146C284.798 182.931 287.177 188.91 288.48 191.426C295.958 205.903 296.58 218.746 294.145 221.338C291.307 224.361 282.081 224.466 277.888 222.1C269.595 217.729 271.73 191.107 273.128 176.949C257.084 175.146 248.73 170.827 246.558 168.893Z" fill="#E8D9C6" stroke="#E8D9C6" stroke-width="0.665273"/>
<path d="M285.609 179.393C286.416 187.2 286.416 186.364 289.47 192.888C268.855 198.44 276.881 218.57 276.486 220.675C276.291 221.718 268.369 210.703 271.549 191.203C271.549 187.914 272.471 180.713 272.817 177.497C263.09 176.961 252.441 172.385 248.484 170.414C244.287 168.463 249.214 167.35 250.919 168.463C256.497 170.649 258.865 169.782 259.191 168.909C259.306 168.686 259.415 167.391 258.641 166.957C255.541 165.22 258.603 165.637 258.872 165.451C259.198 165.247 259.989 165.016 260.543 165.73C261.88 167.648 265.287 169.057 266.824 169.522C268.284 169.782 271.272 170.214 271.549 169.857C271.826 169.5 271.511 169.076 271.318 168.909C270.243 167.44 267.766 163.854 269.472 163.274C271.178 162.694 272.149 162.848 272.817 165.451C272.97 166.864 274.35 170.035 278.637 171.418C283.996 173.147 288.203 170.916 289.009 170.414C290.899 169.299 291.814 166.622 292.179 165.73C291.891 164.546 294.426 164.927 294.657 165.73C294.98 167.336 293.677 169.392 293.101 169.689C292.467 170.191 291.395 171.24 292.179 171.418C298.114 173.035 302.724 169.02 303.127 168.853C305.709 167.871 305.586 169.262 305.202 170.08L301.226 173.314C302.167 173.667 304.28 174.658 305.202 174.345C307.371 174.345 310.134 172.708 310.619 173.203C311.082 173.676 312.129 174.31 311.264 175.258C302.644 180.21 290.604 180.174 285.609 179.393Z" fill="#C5A687" stroke="#C5A687" stroke-width="0.665273"/>
<path d="M277.839 161.868C297.676 162.147 308.673 169.876 311.705 174.465C303.332 166.617 286.004 164.432 277.839 163.986C269.674 163.54 253.965 166.569 246.329 168.947C258.517 161.322 271.537 161.868 277.839 161.868Z" fill="#A46C53" stroke="#A46C53" stroke-width="0.665273"/>
<path d="M284.249 193.047C287.285 202.837 292.573 221.572 287.967 223.308" stroke="#C5A687" stroke-opacity="0.5" stroke-width="2.66109" stroke-linecap="round"/>
<path d="M276.129 192.539C276.129 201.017 276.839 221.473 280.83 223.021" stroke="#C5A687" stroke-opacity="0.5" stroke-width="2.66109" stroke-linecap="round"/>
<path fill-rule="evenodd" clip-rule="evenodd" d="M273.35 139.113C283.502 135.333 291.856 138.252 294.975 140.389C297.052 141.71 300.708 145.1 304.261 151.284C305.826 154.508 308.047 158.254 310.727 161.882C306.526 163.814 294.219 159.733 286.06 153.53C278.543 147.815 273.268 142.677 273.35 139.113Z" fill="#DC7747" fill-opacity="0.7"/>
<path d="M268.686 142.882C269.292 143.93 271.141 143.995 272.817 143.028C274.493 142.06 275.904 140.775 275.299 139.727C274.694 138.679 272.301 138.264 270.625 139.232C268.949 140.2 268.081 141.834 268.686 142.882Z" fill="#E6D2BA"/>
<path d="M270.673 141.769C271.184 142.655 272.525 142.838 273.668 142.178C274.811 141.518 275.74 140.585 275.229 139.699C274.717 138.814 272.959 138.312 271.816 138.971C270.674 139.631 270.161 140.884 270.673 141.769Z" fill="#F6ECE0"/>
<path d="M278.325 153.291C278.29 150.729 280.912 148.615 284.181 148.57C287.45 148.526 290.332 151.894 290.367 154.456C290.402 157.019 287.577 157.804 284.308 157.849C281.039 157.894 278.36 155.853 278.325 153.291Z" fill="#E6D2BA"/>
<path d="M281.385 152.315C281.361 150.555 283.191 149.102 285.472 149.071C287.754 149.04 289.765 151.353 289.789 153.113C289.813 154.874 287.841 155.414 285.56 155.445C283.278 155.476 281.409 154.075 281.385 152.315Z" fill="#F6ECE0"/>
<path d="M253.494 159.526C252.558 158.13 253.243 156.029 255.025 154.834C256.807 153.639 259.598 154.46 260.534 155.856C261.471 157.253 260.199 158.697 258.417 159.892C256.635 161.087 254.431 160.923 253.494 159.526Z" fill="#E6D2BA"/>
<path d="M255.538 158.278C254.883 157.301 255.363 155.832 256.608 154.996C257.854 154.161 259.806 154.735 260.461 155.711C261.116 156.688 260.226 157.697 258.98 158.533C257.734 159.368 256.193 159.254 255.538 158.278Z" fill="#F6ECE0"/>
<path d="M298.27 144.832C298.906 143.981 300.491 144.092 301.811 145.078C303.13 146.065 303.429 148.051 302.794 148.902C302.158 149.752 300.828 149.144 299.508 148.158C298.189 147.171 297.634 145.682 298.27 144.832Z" fill="#E6D2BA"/>
<path d="M299.519 144.825C299.954 144.243 301.036 144.318 301.937 144.991C302.838 145.665 303.041 147.022 302.607 147.604C302.172 148.186 301.264 147.771 300.363 147.098C299.462 146.424 299.084 145.407 299.519 144.825Z" fill="#F6ECE0"/>
<path d="M309.203 161.324C309.776 160.557 311.204 160.657 312.393 161.546C313.582 162.435 313.852 164.225 313.279 164.991C312.706 165.757 311.508 165.21 310.319 164.321C309.13 163.432 308.63 162.09 309.203 161.324Z" fill="#E6D2BA"/>
<path d="M309.999 161.086C310.385 160.57 311.346 160.637 312.146 161.235C312.946 161.833 313.127 163.037 312.742 163.553C312.356 164.068 311.55 163.7 310.75 163.102C309.95 162.504 309.614 161.601 309.999 161.086Z" fill="#F6ECE0"/>
<path d="M248.662 159.675C248.09 158.909 246.661 159.008 245.472 159.897C244.283 160.786 244.014 162.576 244.586 163.342C245.159 164.109 246.357 163.561 247.547 162.672C248.736 161.783 249.235 160.441 248.662 159.675Z" fill="#E6D2BA"/>
<path d="M248.634 159.664C248.206 159.091 247.139 159.165 246.25 159.83C245.361 160.494 245.16 161.832 245.588 162.405C246.016 162.978 246.911 162.568 247.8 161.904C248.689 161.239 249.062 160.237 248.634 159.664Z" fill="#F6ECE0"/>
<path d="M454.938 152.456C463.338 157.19 462.982 159.702 462.831 160.727C462.143 165.413 453.081 167.91 448.819 169.084L448.689 169.12C426.963 175.109 384.474 166.716 375.784 165.147C367.094 163.579 361.23 161.047 357.317 159.016C354.787 157.702 353.181 155.729 352.988 154.992C352.723 153.305 353.436 150.559 357.317 148.962C362.763 147.194 366.732 143.71 368.035 142.189L384.474 126.36C386.961 124.221 392.976 119.458 397.148 117.519C411.805 110.332 424.208 114.525 428.577 117.519C431.233 119.207 435.907 123.54 440.448 131.445C443.562 137.862 448.71 145.896 454.938 152.456Z" fill="#BC643A" stroke="#C96F44" stroke-width="0.665273"/>
<path d="M366.694 153.631C409.16 138.711 439.62 152.119 449.541 160.688C441.314 167.025 424.243 167.361 416.735 166.737C415.577 171.576 418.618 179.219 420.284 182.436C429.843 200.942 430.638 217.359 427.526 220.673C423.897 224.537 412.103 224.672 406.744 221.647C396.142 216.059 398.872 182.028 400.658 163.929C380.149 161.625 369.47 156.104 366.694 153.631Z" fill="#E8D9C6" stroke="#E8D9C6" stroke-width="0.665273"/>
<path d="M416.611 167.046C417.643 177.027 417.643 175.957 421.547 184.298C395.194 191.394 405.454 217.127 404.949 219.818C404.699 221.151 394.573 207.071 398.637 182.144C398.637 177.939 399.816 168.733 400.258 164.623C387.824 163.938 374.212 158.088 369.154 155.569C363.788 153.074 370.087 151.651 372.266 153.074C379.397 155.868 382.423 154.761 382.84 153.644C382.987 153.359 383.127 151.704 382.137 151.149C378.174 148.929 382.088 149.462 382.432 149.224C382.849 148.963 383.861 148.668 384.568 149.581C386.277 152.033 390.633 153.834 392.597 154.428C394.463 154.761 398.284 155.312 398.637 154.856C398.991 154.4 398.588 153.858 398.343 153.644C396.968 151.767 393.802 147.182 395.982 146.441C398.163 145.699 399.404 145.896 400.258 149.224C400.454 151.03 402.218 155.084 407.698 156.852C414.549 159.062 419.926 156.211 420.957 155.569C423.374 154.143 424.542 150.721 425.009 149.581C424.641 148.067 427.882 148.554 428.177 149.581C428.589 151.634 426.924 154.262 426.187 154.642C425.377 155.284 424.007 156.624 425.009 156.852C432.596 158.919 438.489 153.787 439.005 153.573C442.305 152.318 442.148 154.096 441.657 155.141L436.574 159.276C437.777 159.727 440.478 160.993 441.657 160.594C444.43 160.594 447.962 158.501 448.581 159.133C449.173 159.739 450.511 160.549 449.406 161.76C438.386 168.091 422.995 168.044 416.611 167.046Z" fill="#C5A687" stroke="#C5A687" stroke-width="0.665273"/>
<path d="M406.677 144.648C432.036 145.004 446.093 154.884 449.969 160.75C439.265 150.718 417.115 147.925 406.677 147.355C396.239 146.785 376.158 150.657 366.398 153.697C381.977 143.95 398.621 144.648 406.677 144.648Z" fill="#A46C53" stroke="#A46C53" stroke-width="0.665273"/>
<path d="M414.873 184.5C418.753 197.014 425.514 220.964 419.625 223.184" stroke="#C5A687" stroke-opacity="0.5" stroke-width="2.66109" stroke-linecap="round"/>
<path d="M404.49 183.852C404.491 194.689 405.397 220.839 410.5 222.818" stroke="#C5A687" stroke-opacity="0.5" stroke-width="2.66109" stroke-linecap="round"/>
<path fill-rule="evenodd" clip-rule="evenodd" d="M400.941 115.554C413.917 110.724 424.594 114.454 428.581 117.187C431.236 118.875 435.91 123.208 440.452 131.113C442.452 135.235 445.291 140.024 448.717 144.661C443.344 147.128 427.616 141.911 417.188 133.983C407.579 126.678 400.835 120.11 400.941 115.554Z" fill="#DC7747" fill-opacity="0.7"/>
<path d="M394.975 120.372C395.749 121.711 398.112 121.795 400.255 120.558C402.397 119.321 404.201 117.679 403.428 116.339C402.654 114.999 399.596 114.469 397.453 115.706C395.311 116.943 394.202 119.032 394.975 120.372Z" fill="#E6D2BA"/>
<path d="M397.521 118.948C398.174 120.08 399.888 120.313 401.349 119.47C402.81 118.626 403.998 117.433 403.345 116.301C402.691 115.169 400.444 114.528 398.983 115.371C397.522 116.215 396.867 117.816 397.521 118.948Z" fill="#F6ECE0"/>
<path d="M407.297 133.678C407.252 130.403 410.603 127.701 414.782 127.644C418.961 127.587 422.645 131.893 422.69 135.168C422.735 138.444 419.124 139.448 414.945 139.505C410.766 139.563 407.342 136.954 407.297 133.678Z" fill="#E6D2BA"/>
<path d="M411.213 132.432C411.182 130.182 413.521 128.326 416.438 128.286C419.355 128.246 421.925 131.203 421.956 133.453C421.987 135.703 419.467 136.394 416.55 136.434C413.633 136.474 411.243 134.682 411.213 132.432Z" fill="#F6ECE0"/>
<path d="M375.557 141.651C374.36 139.866 375.236 137.18 377.514 135.652C379.792 134.125 383.36 135.174 384.557 136.96C385.754 138.745 384.128 140.59 381.85 142.118C379.572 143.646 376.755 143.437 375.557 141.651Z" fill="#E6D2BA"/>
<path d="M378.171 140.055C377.334 138.806 377.946 136.929 379.539 135.86C381.132 134.792 383.627 135.526 384.464 136.774C385.301 138.023 384.164 139.313 382.571 140.381C380.978 141.449 379.008 141.303 378.171 140.055Z" fill="#F6ECE0"/>
<path d="M432.792 122.866C433.605 121.779 435.631 121.92 437.318 123.181C439.005 124.442 439.388 126.982 438.575 128.069C437.762 129.156 436.062 128.379 434.375 127.118C432.688 125.857 431.979 123.953 432.792 122.866Z" fill="#E6D2BA"/>
<path d="M434.392 122.854C434.948 122.111 436.332 122.206 437.484 123.067C438.635 123.928 438.895 125.663 438.339 126.407C437.783 127.15 436.622 126.621 435.471 125.76C434.319 124.899 433.836 123.598 434.392 122.854Z" fill="#F6ECE0"/>
<path d="M369.38 141.836C368.648 140.856 366.822 140.984 365.302 142.12C363.782 143.256 363.437 145.544 364.17 146.524C364.902 147.504 366.434 146.804 367.954 145.667C369.474 144.531 370.112 142.816 369.38 141.836Z" fill="#E6D2BA"/>
<path d="M369.346 141.828C368.799 141.096 367.434 141.191 366.298 142.04C365.162 142.889 364.904 144.6 365.451 145.332C365.999 146.064 367.144 145.541 368.28 144.691C369.416 143.842 369.893 142.56 369.346 141.828Z" fill="#F6ECE0"/>
<path d="M294.374 213.64L294.133 215.677L295.2 215.842L295.215 213.42C295.573 207.734 302.198 203.203 305.466 201.648L326.535 189.913C321.784 189.321 311.462 188.467 308.184 189.789C304.906 191.111 301.282 194.666 299.881 196.278C295.272 201.454 294.289 210.01 294.374 213.64Z" fill="#75A142"/>
<path d="M249.045 184.081C250.915 185.517 261.655 189.088 269.81 192.584L274.624 208.769C264.588 209.866 254.039 197.098 251.504 193.356C249.476 190.363 247.932 186.508 247.414 184.955C246.787 184.126 246.933 183.655 247.083 183.523C247.114 183.231 247.549 182.932 249.045 184.081Z" fill="#5A7639" stroke="#607B40" stroke-width="1.0258"/>
<path d="M274.138 211.434L276.053 213.482L275.335 214.958L273.276 212.196C268.181 206.101 259.023 208.895 255.081 211.053L228.22 223.006C231.54 216.593 239.118 203.158 242.872 200.72C246.625 198.282 252.543 197.99 255.033 198.149C263.115 198.53 271.137 207.165 274.138 211.434Z" fill="#97C65F"/>
<path d="M365.99 183.886C352.816 186.524 350.835 201.862 351.491 209.2L351.491 218.613C353.052 212.818 361.327 204.024 365.36 202.928C369.394 201.831 375.491 201.938 382.074 199.342C394.022 194.253 401.204 189.774 403.301 188.17C396.353 185.642 379.164 181.247 365.99 183.886Z" fill="#97C65F"/>
<g opacity="0.7">
<path d="M21.4426 189.344C21.741 191.948 27.2189 191.639 29.9206 191.158C34.38 191.158 34.8209 191.48 37.5169 190.395C40.2129 189.31 36.0756 179.052 29.5984 180.103C23.1212 181.154 21.0695 186.088 21.4426 189.344Z" fill="#A5663D" stroke="#A5663D" stroke-width="0.268668"/>
<path d="M25.6642 193.193C25.8541 192.786 25.9355 191.882 25.9525 191.481C27.6074 190.87 31.774 191.011 33.6505 191.158C34.3909 192.662 35.4275 195.954 33.6505 197.093C31.4293 198.517 27.9194 198.093 26.3086 197.093C24.6977 196.093 25.4269 193.702 25.6642 193.193Z" fill="#D1BC9F" stroke="#D1BC9F" stroke-width="0.268668"/>
<ellipse cx="34.7774" cy="183.706" rx="1.72951" ry="3.8189" transform="rotate(-36.7295 34.7774 183.706)" fill="#BC856D"/>
<path fill-rule="evenodd" clip-rule="evenodd" d="M33.8919 191.745C31.6398 191.798 27.1042 191.997 26.9785 192.374C26.822 192.843 26.5095 196.588 27.2838 197.548C26.9148 197.417 26.5851 197.264 26.3105 197.093C24.6997 196.093 25.4288 193.702 25.6662 193.193C25.8561 192.786 25.9375 191.882 25.9544 191.481C27.6094 190.87 31.776 191.011 33.6524 191.158C33.7334 191.323 33.8178 191.508 33.9018 191.71C33.8986 191.722 33.8953 191.734 33.8919 191.745Z" fill="#BFA27A"/>
<path fill-rule="evenodd" clip-rule="evenodd" d="M22.5183 190.557C21.9908 190.232 21.6427 189.785 21.5734 189.18C21.2521 186.376 22.7296 182.327 27.2842 180.586C27.1804 180.744 26.9706 180.95 26.6345 181.21C26.0301 181.677 25.6348 182.278 25.3982 182.954C25.1857 183.562 24.9685 184.236 24.7437 184.934C24.089 186.967 23.3702 189.199 22.5183 190.557Z" fill="#905A37"/>
</g>
<path d="M150.288 179.723C150.803 184.223 160.266 183.688 164.934 182.858C172.637 182.858 173.399 183.414 178.057 181.54C182.714 179.665 175.567 161.943 164.377 163.759C153.188 165.575 149.643 174.099 150.288 179.723Z" fill="#A5663D" stroke="#A5663D" stroke-width="0.268668"/>
<path d="M157.583 186.371C157.911 185.668 158.051 184.106 158.081 183.413C160.94 182.358 168.138 182.603 171.379 182.856C172.658 185.454 174.449 191.14 171.379 193.109C167.542 195.569 161.479 194.837 158.696 193.109C155.913 191.38 157.173 187.25 157.583 186.371Z" fill="#D1BC9F" stroke="#D1BC9F" stroke-width="0.268668"/>
<ellipse cx="173.322" cy="169.981" rx="2.98778" ry="6.59726" transform="rotate(-36.7295 173.322 169.981)" fill="#BC856D"/>
<path fill-rule="evenodd" clip-rule="evenodd" d="M171.799 183.87C167.909 183.961 160.073 184.305 159.856 184.956C159.586 185.768 159.046 192.241 160.385 193.897C159.745 193.67 159.174 193.404 158.698 193.109C155.915 191.38 157.175 187.25 157.585 186.371C157.913 185.668 158.053 184.106 158.083 183.413C160.942 182.358 168.14 182.603 171.381 182.856C171.522 183.142 171.669 183.465 171.815 183.816C171.81 183.834 171.805 183.852 171.799 183.87Z" fill="#BFA27A"/>
<path fill-rule="evenodd" clip-rule="evenodd" d="M155.177 182.859C152.682 182.42 150.749 181.415 150.524 179.45C149.969 174.605 152.522 167.609 160.392 164.602C160.213 164.875 159.85 165.231 159.269 165.68C156.708 167.659 156.321 171.028 156.82 174.312C157.276 177.313 156.899 180.846 155.177 182.859Z" fill="#905A37"/>
<path d="M92.8971 188.803C93.5098 194.15 104.756 193.514 110.303 192.528C119.458 192.528 120.363 193.189 125.899 190.961C131.434 188.733 122.94 167.672 109.641 169.831C96.3435 171.989 92.1313 182.119 92.8971 188.803Z" fill="#D1BC9F" stroke="#D1BC9F" stroke-width="0.398031"/>
<path d="M101.561 196.708C101.951 195.872 102.118 194.016 102.153 193.192C105.551 191.939 114.105 192.229 117.957 192.531C119.477 195.617 121.606 202.375 117.957 204.715C113.397 207.639 106.191 206.769 102.884 204.715C99.5768 202.661 101.074 197.752 101.561 196.708Z" fill="#E8D9C6" stroke="#E8D9C6" stroke-width="0.398031"/>
<ellipse cx="120.271" cy="177.231" rx="3.55078" ry="7.8404" transform="rotate(-36.7295 120.271 177.231)" fill="#E8D9C6"/>
<path fill-rule="evenodd" clip-rule="evenodd" d="M112.294 169.424C101.527 172.214 92.9521 188.975 106.186 190.495C111.357 191.089 113.188 191.699 112.941 192.249C112.061 192.237 111.084 192.227 109.99 192.227C104.444 193.213 93.1973 193.849 92.5846 188.502C91.8187 181.818 96.0309 171.688 109.329 169.53C110.347 169.365 111.337 169.336 112.294 169.424Z" fill="#C2A782"/>
<path fill-rule="evenodd" clip-rule="evenodd" d="M118.359 193.517C113.687 193.627 104.279 194.043 104.018 194.832C103.693 195.815 103.045 203.652 104.652 205.659C103.885 205.385 103.2 205.063 102.63 204.706C99.2888 202.613 100.801 197.611 101.294 196.547C101.688 195.695 101.856 193.803 101.891 192.964C105.324 191.686 113.967 191.982 117.86 192.289C118.028 192.634 118.204 193.024 118.378 193.448C118.372 193.471 118.365 193.494 118.359 193.517Z" fill="#D0B898"/>
<path d="M181.264 183.154C182.086 190.321 197.158 189.469 204.592 188.147C216.863 188.147 218.076 189.033 225.494 186.047C232.912 183.061 221.528 154.835 203.706 157.727C185.883 160.62 180.238 174.197 181.264 183.154Z" fill="#D1BC9F" stroke="#D1BC9F" stroke-width="0.398031"/>
<path d="M192.881 193.745C193.403 192.626 193.627 190.137 193.674 189.033C198.228 187.354 209.692 187.742 214.856 188.147C216.893 192.284 219.745 201.341 214.856 204.476C208.744 208.395 199.086 207.229 194.654 204.476C190.222 201.723 192.228 195.145 192.881 193.745Z" fill="#E8D9C6" stroke="#E8D9C6" stroke-width="0.398031"/>
<ellipse cx="217.958" cy="167.642" rx="4.75886" ry="10.5079" transform="rotate(-36.7295 217.958 167.642)" fill="#E8D9C6"/>
<path fill-rule="evenodd" clip-rule="evenodd" d="M207.266 157.178C192.834 160.915 181.338 183.382 199.076 185.419C206.004 186.215 208.458 187.033 208.129 187.77C206.951 187.753 205.644 187.74 204.18 187.74C196.747 189.062 181.674 189.914 180.853 182.748C179.826 173.79 185.471 160.214 203.294 157.321C204.657 157.1 205.983 157.061 207.266 157.178Z" fill="#C2A782"/>
<path fill-rule="evenodd" clip-rule="evenodd" d="M215.386 189.46C209.125 189.607 196.515 190.165 196.166 191.222C195.731 192.539 194.862 203.037 197.014 205.731C195.988 205.364 195.071 204.933 194.308 204.455C189.83 201.649 191.857 194.945 192.517 193.519C193.044 192.378 193.271 189.842 193.318 188.717C197.919 187.005 209.502 187.402 214.719 187.814C214.944 188.275 215.179 188.796 215.413 189.363C215.404 189.395 215.395 189.428 215.386 189.46Z" fill="#D0B898"/>
<g opacity="0.5">
<path d="M0.986128 178.619C1.21967 180.657 5.50657 180.415 7.62083 180.039C11.1107 180.039 11.4557 180.291 13.5655 179.442C15.6754 178.592 12.4376 170.564 7.36871 171.387C2.2998 172.21 0.694201 176.071 0.986128 178.619Z" fill="#D1BC9F" stroke="#D1BC9F" stroke-width="0.398031"/>
<path d="M4.29055 181.633C4.43917 181.315 4.50286 180.607 4.51613 180.293C5.81124 179.815 9.07195 179.926 10.5404 180.041C11.1198 181.217 11.931 183.794 10.5404 184.685C8.80212 185.8 6.05538 185.468 4.79479 184.685C3.53419 183.902 4.10478 182.031 4.29055 181.633Z" fill="#E8D9C6" stroke="#E8D9C6" stroke-width="0.398031"/>
<ellipse cx="11.4209" cy="174.207" rx="1.35348" ry="2.98859" transform="rotate(-36.7295 11.4209 174.207)" fill="#E8D9C6"/>
<path fill-rule="evenodd" clip-rule="evenodd" d="M8.38147 171.233C4.27663 172.296 1.00642 178.686 6.05156 179.266C8.02138 179.492 8.71968 179.724 8.62666 179.934C8.29147 179.929 7.91986 179.926 7.50347 179.926C5.38921 180.302 1.10231 180.544 0.868772 178.506C0.576844 175.958 2.18244 172.097 7.25135 171.274C7.63931 171.211 8.01654 171.2 8.38147 171.233Z" fill="#C2A782"/>
<path fill-rule="evenodd" clip-rule="evenodd" d="M10.6917 180.413C8.91106 180.455 5.32483 180.614 5.22545 180.915C5.10171 181.289 4.85471 184.274 5.46658 185.041C5.17498 184.937 4.91448 184.814 4.69755 184.678C3.4239 183.88 4.00039 181.974 4.18809 181.568C4.33825 181.243 4.4026 180.522 4.41601 180.202C5.72453 179.715 9.01901 179.828 10.5027 179.945C10.5666 180.076 10.6334 180.224 10.6997 180.385C10.6971 180.394 10.6945 180.404 10.6917 180.413Z" fill="#D0B898"/>
</g>
<defs>
<linearGradient id="paint0_linear_906_80" x1="362.031" y1="69.4336" x2="362.031" y2="222.764" gradientUnits="userSpaceOnUse">
<stop stop-color="#E8D9C6"/>
<stop offset="1" stop-color="#E8D9C6"/>
</linearGradient>
</defs>
</svg>
