<svg width="419" height="176" viewBox="0 0 419 176" fill="none" xmlns="http://www.w3.org/2000/svg">
<path fill-rule="evenodd" clip-rule="evenodd" d="M90.6765 36.841C91.4756 36.998 92.2148 36.3872 92.2148 35.5729V10.2181C92.2148 8.90442 93.1127 7.75987 94.4026 7.51133C113.774 3.77903 150.638 5.95032 162.608 41.7011C163.004 42.8848 164.103 43.7258 165.352 43.7258H305.027C305.217 43.7258 305.4 43.6984 305.585 43.6559V43.6559C306.078 43.5434 306.551 43.326 306.943 43.008C308.993 41.3449 313.016 40.0409 319.231 40.7535C319.961 40.8372 320.703 40.6643 321.292 40.2243C321.696 39.9215 322.124 39.5967 322.57 39.2586C326.571 36.2229 331.975 32.1224 334.483 33.3765C337.804 35.037 339.292 42.1921 338.303 47.7305C338.078 48.9939 338.532 50.3215 339.529 51.1298C342.911 53.8725 346.729 58.4125 345.773 61.6015C344.778 64.9161 336.412 66.0412 331.216 65.941C330.061 65.9187 328.965 66.5113 328.394 67.5167C326.693 70.5152 324.16 74.258 321.32 76.2313C320.363 76.8964 319.645 77.9317 319.648 79.0973C319.653 80.9174 319.626 82.8246 319.566 84.8228C319.511 86.652 321.167 88.0751 322.997 88.041C328.317 87.9418 334.855 89.9025 335.027 98.5311C335.052 99.7836 335.736 100.952 336.897 101.423C364.314 112.559 416.375 141.533 418.212 163.212C420.564 190.966 266.736 167.445 210.288 150.04C209.452 149.782 206.638 147.851 204.578 146.025C203.137 144.747 200.303 142.984 198.377 142.984H175.943C174.805 142.984 173.779 143.666 173.34 144.715L162.561 170.419C162.121 171.467 161.095 172.15 159.958 172.15H136.974C135.8 172.15 134.748 171.422 134.334 170.324L116.673 123.528C116.376 122.741 115.766 122.135 114.971 121.861C71.2689 106.811 -7.43548 76.3545 0.952268 44.6666C7.3559 20.4744 77.4937 34.2515 90.6765 36.841V36.841Z" fill="#7FA751"/>
<path fill-rule="evenodd" clip-rule="evenodd" d="M241.871 139.332L213.438 139.027C308.824 163.624 392.541 171.592 403.264 161.232C409.172 154.597 375.079 130.386 311.365 106.187L311.313 110.993C312.011 111.319 312.704 111.645 313.393 111.971L318.196 112.023C318.671 112.028 319.053 112.418 319.048 112.894L319.029 114.696C339.32 124.716 354.171 134.454 353.648 140.532C352.889 149.365 311.089 153.308 241.871 139.332ZM292.445 102.646L292.481 99.3288C273.46 92.7242 252.278 86.2462 229.15 80.2595C245.152 84.434 269.507 93.0041 292.445 102.646Z" fill="#F4F4F4"/>
<path fill-rule="evenodd" clip-rule="evenodd" d="M121.54 110.343L117.198 103.794C106.55 104.709 104.03 103.839 102.879 102.28C102.325 101.53 106.138 99.393 109.637 97.4318C109.853 97.3108 110.068 97.1905 110.28 97.0712C92.3175 90.1508 63.6557 69.5055 64.9729 60.1877C66.4094 50.0262 102.428 52.4355 139.265 58.578C139.255 58.3205 139.243 58.0494 139.231 57.7653C139.202 57.0773 139.169 56.3126 139.154 55.4786C61.732 37.8096 12.1281 39.7915 13.7358 49.3263C15.5747 67.8437 93.2184 99.6986 121.54 110.343ZM172.649 63.9245L172.637 65.0775C184.96 67.8242 196.03 70.7018 204.256 73.294C193.391 69.8477 182.841 66.7315 172.649 63.9245Z" fill="#F4F4F4"/>
<rect x="106.605" y="16.687" width="2.58498" height="25.8498" transform="rotate(0.614895 106.605 16.687)" fill="white"/>
<path d="M163.952 100.364L144.001 155.797L156.581 155.932L179.033 92.784L163.952 100.364Z" fill="white"/>
<path d="M116.297 77.1104L144.001 155.797M144.001 155.797L163.952 100.364L179.033 92.784L156.581 155.932L144.001 155.797Z" stroke="white" stroke-width="2.90313"/>
<path d="M156.555 53.6144L188.587 53.9582L188.559 56.5577L172.037 56.3804L171.914 67.7918L180.021 67.8788L179.993 70.5224L171.886 70.4354L171.762 81.979L188.284 82.1564L188.256 84.7999L156.224 84.4562L156.555 53.6144ZM212.659 65.2768C216.144 66.2542 218.745 67.5306 220.461 69.106C222.178 70.652 223.023 72.6587 222.997 75.126C222.975 77.094 222.34 78.8498 221.089 80.3933C219.839 81.9369 218.005 83.1363 215.587 83.9916C213.198 84.8473 210.3 85.2568 206.893 85.2203C202.869 85.1771 199.32 84.6249 196.247 83.5638C193.203 82.4735 190.823 81.1701 189.106 79.6535L190.581 77.6864C192.096 78.9071 194.009 79.9558 196.32 80.8325C198.632 81.7093 201.124 82.162 203.797 82.1906C205.53 82.2092 206.839 81.9736 207.726 81.4837C208.642 80.9941 209.105 80.2941 209.115 79.3835C209.132 77.7974 207.573 76.5468 204.44 75.6319L198.73 73.8962C195.627 72.9228 193.232 71.5899 191.546 69.8973C189.89 68.2051 189.074 66.2134 189.099 63.9223C189.119 62.0131 189.74 60.2865 190.961 58.7427C192.182 57.1988 193.943 55.9986 196.243 55.142C198.574 54.2563 201.354 53.8308 204.585 53.8655C207.67 53.8986 210.5 54.2815 213.077 55.0142C215.684 55.7472 217.805 56.6219 219.439 57.6382L217.963 59.6494C216.591 58.8415 214.939 58.1481 213.006 57.5692C211.103 56.9906 209.094 56.69 206.979 56.6673C205.128 56.6474 203.701 56.9259 202.696 57.5026C201.72 58.0503 201.227 58.8235 201.217 59.8221C201.208 60.5858 201.568 61.2654 202.296 61.8607C203.025 62.4267 204.414 62.9997 206.464 63.5799L212.659 65.2768ZM225.442 54.3537L239.805 54.5079L239.474 85.3496L225.111 85.1955L225.442 54.3537ZM242.143 69.9116C242.199 64.7125 243.518 60.8637 246.101 58.365C247.763 56.7378 249.611 55.6707 251.643 55.1637C253.676 54.6567 256.337 54.4209 259.626 54.4562C262.681 54.489 265.132 54.7356 266.977 55.1961C268.853 55.6275 270.385 56.5399 271.575 57.9334C272.561 59.0896 273.325 60.4932 273.865 62.1441C274.435 63.7659 274.756 65.3557 274.827 66.9134L272.316 66.8865C272.213 65.5634 271.904 64.2088 271.39 62.8226C270.906 61.4073 270.126 60.1945 269.05 59.1842C267.974 58.1444 266.599 57.6156 264.925 57.5976C263.368 57.5809 262.068 58.2573 261.025 59.6268C260.131 60.8216 259.482 62.4157 259.079 64.409C258.708 66.1676 258.511 68.0602 258.489 70.087C258.454 73.4062 258.835 76.1863 259.634 78.4275C260.69 81.2884 262.363 82.7311 264.655 82.7557L264.786 70.5511L278.268 70.6958L278.106 85.7642C273.876 85.7188 269.088 85.7262 263.741 85.7863L259.29 85.7826C256.059 85.7479 253.434 85.4113 251.414 84.7727C249.423 84.1051 247.716 83.0439 246.292 81.5892C243.474 78.7094 242.091 74.8169 242.143 69.9116ZM280.903 54.949L293.857 55.088L306.557 70.6469L306.722 55.2261L309.366 55.2544L309.035 86.0962L298.681 85.9851L283.48 65.2878L283.26 85.8196L280.572 85.7907L280.903 54.949Z" fill="white"/>
<path d="M183.665 97.8517L215.696 98.1955L215.668 100.795L199.146 100.618L199.023 112.029L207.13 112.116L207.102 114.76L198.995 114.673L198.871 126.216L215.394 126.394L215.365 129.037L183.334 128.693L183.665 97.8517ZM218.215 98.2225L247.691 98.5389C249.131 98.5543 250.448 98.9357 251.645 99.6829C252.871 100.401 253.83 101.381 254.522 102.622C255.243 103.834 255.596 105.16 255.581 106.599C255.56 108.509 254.954 110.235 253.762 111.779C252.571 113.324 251.077 114.306 249.28 114.728C250.862 115.185 252.145 116.036 253.131 117.281C254.145 118.525 254.644 119.926 254.628 121.483L254.542 129.458L239.782 129.299L239.885 119.738C239.895 118.798 239.726 118.062 239.38 117.53C238.975 116.908 238.51 116.448 237.984 116.149C237.4 115.819 236.742 115.577 236.009 115.422C235.247 115.267 234.528 115.172 233.853 115.135L232.664 115.078L232.512 129.221L217.884 129.064L218.215 98.2225ZM234.234 112.539C235.291 112.551 236.263 112.311 237.15 111.821C238.066 111.302 238.778 110.605 239.287 109.729C239.826 108.824 240.1 107.858 240.111 106.83C240.123 105.772 239.869 104.8 239.35 103.913C238.86 102.997 238.163 102.27 237.258 101.732C236.382 101.194 235.416 100.919 234.358 100.907L232.816 100.891L232.691 112.567L234.234 112.539ZM281.332 109.96C284.818 110.938 287.418 112.214 289.135 113.789C290.851 115.335 291.696 117.342 291.67 119.809C291.649 121.777 291.013 123.533 289.763 125.077C288.512 126.62 286.678 127.82 284.26 128.675C281.871 129.531 278.973 129.94 275.566 129.904C271.542 129.86 267.993 129.308 264.92 128.247C261.877 127.157 259.497 125.854 257.78 124.337L259.255 122.37C260.769 123.59 262.682 124.639 264.994 125.516C267.305 126.393 269.797 126.845 272.47 126.874C274.203 126.893 275.513 126.657 276.399 126.167C277.315 125.678 277.778 124.977 277.788 124.067C277.805 122.481 276.247 121.23 273.113 120.315L267.404 118.58C264.3 117.606 261.905 116.273 260.22 114.581C258.564 112.888 257.748 110.897 257.772 108.606C257.793 106.696 258.413 104.97 259.634 103.426C260.856 101.882 262.616 100.682 264.917 99.8254C267.247 98.9397 270.028 98.5142 273.259 98.5489C276.343 98.582 279.174 98.9649 281.751 99.6976C284.358 100.431 286.478 101.305 288.112 102.322L286.636 104.333C285.264 103.525 283.612 102.831 281.679 102.253C279.776 101.674 277.767 101.373 275.652 101.351C273.802 101.331 272.374 101.609 271.369 102.186C270.394 102.734 269.901 103.507 269.89 104.506C269.882 105.269 270.242 105.949 270.97 106.544C271.698 107.11 273.087 107.683 275.137 108.263L281.332 109.96ZM294.115 99.0371L326.146 99.3809L326.119 101.98L309.596 101.803L309.474 113.215L317.581 113.302L317.552 115.945L309.445 115.858L309.321 127.402L325.844 127.579L325.815 130.223L293.784 129.879L294.115 99.0371Z" fill="white"/>
<path d="M155.498 60.2969C155.243 84.0896 135.748 103.17 111.955 102.915C88.1625 102.66 142.19 95.915 142.574 60.1582C142.958 24.4013 89.0872 16.4986 112.88 16.754C136.673 17.0094 155.754 36.5042 155.498 60.2969Z" fill="white"/>
<path d="M325.538 47.489L317.07 47.0186L322.192 54.9332L321.304 63.4832L327.89 57.8382H337.769L331.653 50.782L332.124 42.3145L325.538 47.489Z" fill="#FAFCF7"/>
<path d="M209.797 28.4609H216.82C219.629 27.4394 219.267 28.8865 218.735 29.7378L209.797 42.507V48.2532H239.805V45.3801C248.998 52.2755 258.32 48.2532 261.832 45.3801V48.2532H293.435V45.3801H295.989V48.2532H315.462V42.8263H320.889V33.2493H315.462V14.4147H302.055L294.074 23.3532C294.074 22.8211 293.499 21.1824 291.201 18.8839C281.305 10.9032 271.728 15.0532 270.77 15.6916C268.216 15.947 265.449 18.9904 264.385 20.4802C253.915 10.2648 241.933 16.6494 237.251 21.1187C237.038 20.0546 235.399 16.9686 231.824 15.6916C215.479 10.8393 210.435 22.3955 209.797 28.4609Z" fill="#7FA751"/>
<path d="M210.646 33.2695L202.707 42.9352C202.18 43.5765 202.104 44.4764 202.516 45.1969L203.256 46.4925C203.612 47.1157 204.275 47.5002 204.993 47.5002H313.63C314.085 47.5002 314.525 47.3457 314.88 47.062L323.581 40.1007C324.056 39.7212 324.332 39.1465 324.332 38.539V32.0001C324.332 30.8955 323.437 30.0001 322.332 30.0001H320.832C319.727 30.0001 318.832 29.1046 318.832 28.0001V12.5C318.832 11.3954 317.937 10.5 316.832 10.5H302.056C301.588 10.5 301.135 10.664 300.776 10.9636L296.587 14.4547C295.856 15.0632 294.8 15.0668 294.034 14.5048C282.935 6.36807 274.016 9.38766 267.645 14.4085C266.873 15.0174 265.776 15.0283 264.993 14.4324C254.403 6.36964 246.224 9.26467 240.093 14.3905C239.348 15.0136 238.263 15.0576 237.465 14.5032C220.531 2.73032 208.986 16.2335 204.691 27.4681C204.214 28.7164 205.173 30.0001 206.509 30.0001H209.101C210.79 30.0001 211.719 31.9644 210.646 33.2695Z" fill="#7FA751"/>
<path d="M212.24 45.191L220.738 32.3384C223.661 28.0541 225.122 25.082 225.119 23.4221C225.117 22.5663 224.844 21.8924 224.298 21.4005C223.753 20.8828 223.013 20.6246 222.08 20.6262C220.809 20.6284 219.707 20.9804 218.775 21.6822C217.842 22.3841 217.104 23.2282 216.561 24.2147C216.044 25.2011 215.722 26.1224 215.594 26.9785L213.22 26.9825C213.708 24.1288 214.975 21.8702 217.021 20.2069C219.093 18.5435 221.854 17.7089 225.304 17.703C227.145 17.6999 228.896 18.0081 230.557 18.6278C232.218 19.2474 233.555 20.2048 234.569 21.4998C235.609 22.7689 236.13 24.3371 236.133 26.2045C236.135 27.0344 236.045 27.8516 235.865 28.6559C235.685 29.3824 235.375 30.1999 234.936 31.1084C234.496 32.0169 234.031 32.8606 233.539 33.6395L227.564 42.8308L237.406 42.8141L237.41 45.1483L212.24 45.191ZM251.672 17.6583C254.396 17.6537 256.77 18.2332 258.795 19.3969C260.846 20.5605 262.418 22.1918 263.51 24.2907C264.603 26.3637 265.152 28.7489 265.156 31.4462C265.161 34.1694 264.62 36.5823 263.535 38.685C262.449 40.7617 260.883 42.3853 258.836 43.5559C256.815 44.7264 254.443 45.314 251.719 45.3186C248.996 45.3232 246.609 44.7437 244.558 43.5801C242.533 42.4164 240.961 40.7981 239.843 38.7251C238.75 36.6262 238.201 34.2151 238.196 31.4919C238.192 28.7946 238.732 26.4076 239.818 24.3309C240.93 22.2282 242.496 20.5916 244.517 19.4211C246.564 18.2505 248.949 17.6629 251.672 17.6583ZM249.228 21.4361C248.788 22.2149 248.505 23.3955 248.378 24.9777C248.276 25.9635 248.228 28.0254 248.233 31.1636L254.795 23.5274C254.638 22.6718 254.403 21.972 254.091 21.4279C253.57 20.4432 252.766 19.9518 251.676 19.9536C250.587 19.9555 249.771 20.4496 249.228 21.4361ZM254.125 41.5409C254.565 40.7621 254.848 39.5815 254.975 37.9992C255.102 36.7541 255.164 34.718 255.159 31.8911L248.597 39.5662C248.754 40.4477 248.976 41.1087 249.262 41.5491C249.808 42.5337 250.626 43.0251 251.715 43.0233C252.805 43.0214 253.608 42.5273 254.125 41.5409ZM265.694 45.1004L274.192 32.2478C277.115 27.9635 278.576 24.9914 278.573 23.3315C278.571 22.4757 278.298 21.8018 277.752 21.31C277.207 20.7922 276.467 20.5341 275.534 20.5356C274.263 20.5378 273.161 20.8898 272.229 21.5916C271.296 22.2935 270.558 23.1376 270.015 24.1241C269.498 25.1105 269.176 26.0318 269.048 26.8879L266.674 26.8919C267.162 24.0382 268.429 21.7796 270.476 20.1163C272.548 18.4529 275.308 17.6183 278.758 17.6124C280.599 17.6093 282.35 17.9176 284.011 18.5372C285.672 19.1568 287.009 20.1142 288.023 21.4093C289.063 22.6783 289.584 24.2466 289.587 26.1139C289.589 26.9439 289.499 27.761 289.319 28.5653C289.139 29.2918 288.829 30.1093 288.39 31.0178C287.95 31.9263 287.485 32.77 286.993 33.5489L281.018 42.7402L290.86 42.7235L290.864 45.0577L265.694 45.1004ZM299.208 39.5582L286.681 39.5794L302.906 17.8049L312.126 17.7893L312.159 37.202L317.878 37.1924L317.882 39.5266L312.163 39.5362L312.172 45.0216L299.217 45.0436L299.208 39.5582ZM299.204 37.224L299.187 27.1869L291.812 37.2365L299.204 37.224Z" fill="white"/>
</svg>
