<svg width="210" height="138" viewBox="0 0 210 138" fill="none" xmlns="http://www.w3.org/2000/svg">
<rect x="64" y="1" width="3" height="30" fill="black"/>
<path d="M66.9804 55.9683C9.35411 40.7188 29.3873 36.6492 62.0517 37.1014C31.1432 34.2835 20.9466 36.8894 11.9205 38.1525C-15.6177 42.006 23.0281 56.4934 43.9438 61.8271C92.2693 74.1508 132.582 78.521 160.801 78.2077C189.019 77.8944 204.626 75.0955 207.44 69.4312C210.253 63.7669 176.928 53.2043 148.209 49.1787C229.14 68.7193 139.422 68.6473 120.11 65.9403C111.198 64.6909 99.1111 64.471 66.9804 55.9683Z" fill="black"/>
<path fill-rule="evenodd" clip-rule="evenodd" d="M134.972 79.3684L117.769 136.154H131.769L148.459 80.3688C144.146 80.1369 139.648 79.806 134.972 79.3684ZM152.404 67.1857C147.699 67.2002 143.031 67.1048 138.741 66.9271L139.308 65.057L156 55.1652L152.404 67.1857Z" fill="black"/>
<path d="M134.972 79.3684L135.123 77.7601L133.809 77.6371L133.426 78.9001L134.972 79.3684ZM117.769 136.154L116.223 135.685L115.592 137.769H117.769V136.154ZM131.769 136.154V137.769H132.972L133.317 136.617L131.769 136.154ZM148.459 80.3688L150.007 80.8318L150.595 78.8659L148.546 78.7557L148.459 80.3688ZM152.404 67.1857L152.409 68.8011L153.608 68.7974L153.951 67.6487L152.404 67.1857ZM138.741 66.9271L137.195 66.4588L136.59 68.4548L138.674 68.5411L138.741 66.9271ZM139.308 65.057L138.484 63.6673L137.944 63.9875L137.762 64.5886L139.308 65.057ZM156 55.1652L157.548 55.6283L158.732 51.6683L155.176 53.7755L156 55.1652ZM133.426 78.9001L116.223 135.685L119.315 136.622L136.518 79.8368L133.426 78.9001ZM117.769 137.769H131.769V134.538H117.769V137.769ZM133.317 136.617L150.007 80.8318L146.912 79.9058L130.222 135.691L133.317 136.617ZM134.822 80.9768C139.517 81.4162 144.037 81.7488 148.373 81.9818L148.546 78.7557C144.255 78.525 139.778 78.1957 135.123 77.7601L134.822 80.9768ZM152.399 65.5703C147.719 65.5848 143.074 65.4898 138.808 65.3131L138.674 68.5411C142.988 68.7198 147.68 68.8157 152.409 68.8011L152.399 65.5703ZM137.762 64.5886L137.195 66.4588L140.287 67.3955L140.854 65.5253L137.762 64.5886ZM155.176 53.7755L138.484 63.6673L140.131 66.4467L156.824 56.5549L155.176 53.7755ZM153.951 67.6487L157.548 55.6283L154.452 54.7022L150.856 66.7227L153.951 67.6487ZM84.4602 36.4884L92.3465 61.3502L95.426 60.3733L87.5398 35.5116L84.4602 36.4884ZM96.5866 74.7172L116.229 136.642L119.309 135.665L99.6661 73.7404L96.5866 74.7172Z" fill="black"/>
<path fill-rule="evenodd" clip-rule="evenodd" d="M119.377 65.3216C120.457 61.0699 121.033 56.6048 121.033 52C121.033 23.2812 98.6473 0 71.0329 0C60.7504 0 62.9785 1.2257 69.8259 4.99261C81.3675 11.342 106.033 24.9112 106.033 52C106.033 56.266 105.422 60.1966 104.346 63.8166C106.072 64.017 107.635 64.2028 109.11 64.4179C111.562 64.7754 115.149 65.0886 119.377 65.3216ZM115.621 75.555C110.584 75.0641 105.341 74.4559 99.9027 73.7214C91.8317 86.9014 77.7419 94.6526 69.8259 99.0074C62.9785 102.774 60.7504 104 71.0329 104C90.4947 104 107.359 92.4362 115.621 75.555Z" fill="black"/>
<g filter="url(#filter0_d_258_49)">
<path d="M133.623 42.896L133.365 36.2072L138.69 39.8174L144.73 39.0095L141.187 44.0245L142.36 51.3617L136.12 47.1031L129.854 48.0485L133.623 42.896Z" fill="black"/>
</g>
<defs>
<filter id="filter0_d_258_49" x="127.672" y="36.2072" width="19.2392" height="19.5167" filterUnits="userSpaceOnUse" color-interpolation-filters="sRGB">
<feFlood flood-opacity="0" result="BackgroundImageFix"/>
<feColorMatrix in="SourceAlpha" type="matrix" values="0 0 0 0 0 0 0 0 0 0 0 0 0 0 0 0 0 0 127 0" result="hardAlpha"/>
<feOffset dy="2.18111"/>
<feGaussianBlur stdDeviation="1.09055"/>
<feComposite in2="hardAlpha" operator="out"/>
<feColorMatrix type="matrix" values="0 0 0 0 0.772549 0 0 0 0 0.65098 0 0 0 0 0.529412 0 0 0 0.5 0"/>
<feBlend mode="normal" in2="BackgroundImageFix" result="effect1_dropShadow_258_49"/>
<feBlend mode="normal" in="SourceGraphic" in2="effect1_dropShadow_258_49" result="shape"/>
</filter>
</defs>
</svg>
