<svg width="210" height="130" viewBox="0 0 210 130" fill="none" xmlns="http://www.w3.org/2000/svg">
<path d="M121.293 50C121.293 77.6142 98.907 100 71.2927 100C43.6784 100 106.293 91.5 106.293 50C106.293 8.5 43.6784 0 71.2927 0C98.907 0 121.293 22.3858 121.293 50Z" fill="white"/>
<rect x="64" width="3" height="30" fill="white"/>
<path d="M135.5 70.5L115.5 128H128.5L151 62.5L135.5 70.5Z" fill="white"/>
<path d="M86 47L115.5 128M115.5 128L135.5 70.5L151 62.5L128.5 128H115.5Z" stroke="white" stroke-width="3"/>
<path d="M66.9794 60.9683C9.35313 45.7188 29.3863 41.6492 62.0507 42.1014C31.1422 39.2835 20.9457 41.8894 11.9196 43.1525C-15.6187 47.006 23.0272 61.4934 43.9429 66.8271C92.2684 79.1508 132.581 83.521 160.8 83.2077C189.018 82.8944 204.625 80.0955 207.439 74.4312C210.252 68.7669 176.927 58.2043 148.208 54.1787C229.139 73.7193 139.421 73.6473 120.11 70.9403C111.197 69.6909 99.1102 69.471 66.9794 60.9683Z" fill="white"/>
<path d="M132.74 45.2773L129.195 50.8483L136.52 50.3859L141.989 54.2461L140.664 47.623L144.428 40.9144L137.306 42.379L131.735 38.8335L132.74 45.2773Z" fill="white"/>
</svg>
