<svg width="239" height="412" viewBox="0 0 239 412" fill="none" xmlns="http://www.w3.org/2000/svg">
<path d="M129.562 140.944C121.42 152.618 124.284 168.681 135.958 176.823C148.956 181.961 163.695 182.101 171.837 170.427C179.978 158.753 177.115 142.689 165.441 134.548C153.767 126.406 139.895 131.132 129.562 140.944Z" fill="#8F7461"/>
<path d="M146.367 170.109C172.381 169.386 171.508 148.048 167.348 136.267C191.586 165.398 158.165 185.761 143.623 177.803C134.013 176.341 120.353 170.833 146.367 170.109Z" fill="#745C4A"/>
<ellipse cx="14.0126" cy="14.8179" rx="14.0126" ry="14.8179" transform="matrix(-0.82023 -0.572034 -0.572034 0.82023 169.934 150.637)" fill="#C6A195"/>
<path d="M164.67 152.1C168.206 166.876 151.678 172.908 144.176 170.378L144.548 159.446C158.378 162.145 161.788 140.057 164.67 152.1Z" fill="#B59084"/>
<path d="M74.7119 101.902C66.5704 113.576 50.4477 116.399 38.7007 108.206C29.3178 97.7353 24.0311 83.9092 32.1726 72.2352C40.3141 60.5613 56.4368 57.7389 68.1837 65.9313C79.9306 74.1237 80.3336 88.8048 74.7119 101.902Z" fill="#8F7461"/>
<path d="M47.4392 100.715C73.3924 99.9357 72.4 78.9369 68.2754 67.1744C93.9164 90.3008 59.1751 116.329 44.6845 108.408C35.101 106.968 21.486 101.494 47.4392 100.715Z" fill="#745C4A"/>
<path d="M-1.57447 148.465C1.60883 148.534 4.38109 151.722 5.36931 153.308L1.5961 178.022C-14.7574 189.031 -48.7907 211.02 -54.0962 210.906C-60.728 210.764 -67.7262 208.573 -74.3781 199.451C-81.03 190.329 -71.6022 173.594 -44.6467 163.255C-17.6913 152.915 -5.5536 148.38 -1.57447 148.465Z" fill="#8F7461"/>
<rect width="127.563" height="63.7815" transform="matrix(-0.82023 -0.572034 -0.572034 0.82023 111.023 219.91)" fill="#8F7461"/>
<path d="M68.0608 306.558C80.8623 277.399 83.22 265.836 84.7739 264.442L-26.7746 186.647C-27.5453 188.587 -38.763 193.63 -60.5212 216.884C-88.2439 246.513 -84.669 269.554 -84.6879 279.596C-84.6915 281.526 -70.0227 299.878 -43.4234 310.56C-40.3727 309.19 -28.1483 296.585 -25.979 294.309C-23.2529 296.91 -17.1095 300.786 -16.2875 301.068C-17.6737 303.89 -23.5155 320.946 -23.7468 324.282C-3.56219 346.665 14.7271 350.564 16.6321 350.257C30.8922 347.961 52.4853 342.036 68.0608 306.558Z" fill="#8F7461"/>
<path d="M-28.0915 218.913C-52.6247 254.091 -41.003 277.261 -17.9469 293.341C5.10913 309.42 30.037 313.512 55.4018 277.142C72.8552 252.116 68.3133 218.793 45.2572 202.714C22.2012 186.634 -10.6382 193.887 -28.0915 218.913Z" fill="#AC8D79"/>
<path d="M64.8931 313.023C76.467 288.785 84.0129 265.136 88.4563 257.302C91.5522 252.028 90.3839 249.901 88.7373 248.753C86.6791 247.317 82.4317 255.287 66.9125 288.194C51.3933 321.1 26.2676 333.313 16.3996 334.302C4.88696 335.457 -13.8924 327.476 -21.1061 315.886L-23.0643 323.834C-4.02783 345.419 13.6904 349.467 15.7761 349.61C17.8618 349.753 48.7583 346.812 64.8931 313.023Z" fill="#745C4A"/>
<path d="M10.0811 308.382C0.365489 308.023 -10.5526 303.927 -16.0522 301.218C-17.542 303.864 -19.886 311.256 -22.1017 319.301C-17.2168 325.304 -14.6923 328.894 -12.3477 330.601C-11.3153 328.278 -8.47955 322.557 -5.39516 318.253C-1.53967 312.874 22.2256 308.832 10.0811 308.382Z" fill="#745C4A"/>
<ellipse cx="15.7843" cy="15.4622" rx="15.7843" ry="15.4622" transform="matrix(-0.82023 -0.572034 -0.572034 0.82023 75.1836 83.7734)" fill="#C6A195"/>
<path d="M68.7678 84.5347C72.734 100.164 55.2213 106.299 47.2007 103.528L47.447 92.0056C62.2071 95.041 65.5351 71.7959 68.7678 84.5347Z" fill="#B59084"/>
<path d="M5.97489 112.514C-11.1342 132.464 -7.44939 156.038 47.6599 199.285C99.4312 233.64 129.856 230.792 141.129 206.772C163.122 159.913 151.014 129.589 114.181 103.902C77.348 78.2143 53.0085 74.3671 5.97489 112.514Z" fill="#8F7461"/>
<path d="M137.54 125.692C137.595 125.757 137.649 125.822 137.704 125.889C139.957 128.698 143.013 137.074 141.451 152.032C139.449 171.188 125.908 198.748 121.522 205.037C117.419 210.92 111.846 215.779 98.8092 216.307C86.1515 216.819 39.1465 197.873 2.05791 151.456C22.3049 185.691 66.502 211.267 90.8574 220.819C115.213 230.371 129.53 221.116 135.747 214.082C141.963 207.048 150.302 184.441 151.921 164.581C153.202 148.854 143.082 132.373 137.704 125.889C137.649 125.82 137.595 125.754 137.54 125.692Z" fill="#745C4A"/>
<ellipse cx="18.3613" cy="16.1064" rx="18.3613" ry="16.1064" transform="matrix(-0.82023 -0.572034 -0.572034 0.82023 89.1641 171.285)" fill="#B89B86"/>
<path d="M60.3365 162.505C59.0835 164.302 62.7331 167.515 67.6216 170.924C72.51 174.333 76.7862 176.648 78.0392 174.851C79.2922 173.055 75.6426 169.842 70.7541 166.432C65.8657 163.023 61.5895 160.709 60.3365 162.505Z" fill="#5B4739"/>
<path d="M55.5376 138.411C54.1216 135.052 49.3384 128.397 41.5339 128.644" stroke="#5B4739" stroke-width="4.79343" stroke-linecap="round"/>
<path d="M114.459 179.5C113.043 176.142 108.26 169.487 100.456 169.734" stroke="#5B4739" stroke-width="4.79343" stroke-linecap="round"/>
<path d="M55.5987 173.795C58.1834 175.598 62.2042 178.402 69.3906 168.098" stroke="#5B4739" stroke-width="4.79343" stroke-linecap="round"/>
<path d="M68.8121 183.014C66.124 181.139 61.9424 178.223 69.1289 167.918" stroke="#5B4739" stroke-width="4.79343" stroke-linecap="round"/>
<ellipse cx="15.4622" cy="13.6905" rx="15.4622" ry="13.6905" transform="matrix(-0.82023 -0.572034 -0.572034 0.82023 39.7734 131.73)" fill="#CD9F99"/>
<ellipse cx="105.111" cy="159.957" rx="4.0207" ry="5.41331" transform="rotate(100.449 105.111 159.957)" fill="#B89B86"/>
<ellipse cx="4.0207" cy="5.41331" rx="4.0207" ry="5.41331" transform="matrix(-0.860168 0.510011 0.510011 0.860168 64.6406 124.543)" fill="#B89B86"/>
<ellipse cx="15.4622" cy="13.6905" rx="15.4622" ry="13.6905" transform="matrix(-0.82023 -0.572034 -0.572034 0.82023 135.684 198.621)" fill="#CD9F99"/>
<path d="M127.396 194.021C124.645 199.23 117.727 210.667 110.876 213.918C129.48 219.474 133.673 201.453 127.396 194.021Z" fill="#C58D85"/>
<path d="M32.7115 94.997C51.2325 82.9563 71.0793 84.4067 78.6875 86.6371L78.7815 82.7481C65.744 75.4132 41.7865 85.9473 31.6873 92.0857L32.7115 94.997Z" fill="#927763" fill-opacity="0.3"/>
<path d="M145.503 180.728C150.402 159.188 142.183 141.065 137.461 134.696L141.078 133.264C152.466 142.963 150.859 169.085 148.589 180.683L145.503 180.728Z" fill="#927763" fill-opacity="0.3"/>
<path d="M2.6298 151.499C32.9861 199.902 88.6519 218.207 112.69 221.31C114.355 226.038 116.022 235.71 107.274 231.855C98.5246 228 94.7746 228.163 90.7927 227.756C62.6604 217.962 17.4574 177.145 2.6298 151.499Z" fill="#745C4A"/>
<path d="M85.8636 270.075C82.6923 270.015 79.9386 266.84 78.9581 265.259L82.7814 240.58C99.1026 229.549 133.066 207.511 138.352 207.611C144.959 207.736 151.925 209.905 158.529 218.993C165.132 228.081 155.696 244.811 128.814 255.201C101.932 265.592 89.8277 270.15 85.8636 270.075Z" fill="#8F7461"/>
<path d="M136.097 243.142C126.426 248.975 91.5677 263.568 85.5845 257.571C82.0497 254.027 74.6745 268.729 79.2543 271.923C81.3979 273.418 87.1534 270.824 130.783 254.085C170.511 238.842 161.489 219.553 154.682 213.54C147.64 207.318 138.292 206.913 135.09 207.738C128.124 211.032 122.256 213.885 132.399 213.922C155.978 214.007 148.186 235.85 136.097 243.142Z" fill="#745C4A"/>
</svg>
