<svg width="216" height="409" viewBox="0 0 216 409" fill="none" xmlns="http://www.w3.org/2000/svg">
<path d="M73.2676 252.767C66.8124 269.45 109.21 300.794 131.216 314.381L109.604 248.065C98.8341 246.003 76.4882 244.056 73.2676 252.767Z" fill="#ECE285" stroke="#ECE285" stroke-width="0.7914" stroke-linecap="round"/>
<path d="M126.972 129.779C73.5522 172.076 95.2774 231.16 112.818 255.415L117.463 295.335L140.235 334.139C139.195 339.981 138.523 352.343 144.157 355.056C181.945 369.424 236.767 337.182 259.454 319.265C277.285 312.196 309.03 285.345 324.612 269.553C331.624 258.026 348.171 225.811 311.331 185.263C272.389 142.399 231.984 148.836 229.592 145.341C224.81 138.351 175.498 102.371 126.972 129.779Z" fill="#ECE285" stroke="#ECE285" stroke-width="0.7914"/>
<path d="M186.57 210.719C185.258 224.471 176.181 231.063 161.12 226.347C158.758 225.607 158.55 222.505 160.669 221.225L182.242 208.203C184.245 206.994 186.792 208.39 186.57 210.719Z" fill="#D6A443"/>
<path d="M71.6253 258.256C78.1306 275.586 119.253 306.083 129.391 311.344L123.787 293.202C109.849 285.072 71.9499 259.08 71.6253 258.256Z" fill="#F3ECA8" stroke="#FDFCE1" stroke-width="0.140231" stroke-linecap="round"/>
<path d="M184.611 204.799C170.152 199.526 159.393 205.569 157.498 223.067C157.232 225.521 159.965 226.993 162.002 225.599L185.085 209.805C187.011 208.488 186.803 205.598 184.611 204.799Z" fill="#F2C162" stroke="#F2C162" stroke-width="0.7914" stroke-linecap="round"/>
<path d="M146.836 211.772C142.95 211.672 134.38 213.397 131.191 221.09" stroke="#5B4739" stroke-width="5.11267" stroke-linecap="round"/>
<path d="M195.453 182.752C191.567 182.653 182.998 184.377 179.809 192.071" stroke="#5B4739" stroke-width="5.11267" stroke-linecap="round"/>
<ellipse cx="16.4919" cy="14.6022" rx="16.4919" ry="14.6022" transform="matrix(-0.85914 0.51174 0.51174 0.85914 133.422 224.16)" fill="#EAAF9C"/>
<ellipse cx="16.4919" cy="14.6022" rx="16.4919" ry="14.6022" transform="matrix(-0.85914 0.51174 0.51174 0.85914 223.363 170.531)" fill="#EAAF9C"/>
<path fill-rule="evenodd" clip-rule="evenodd" d="M295.431 295.566C292.946 292.789 290.448 289.95 287.932 287.091C258.444 253.581 226.534 217.319 184.969 245.756C147.99 271.056 171.778 323.606 190.577 355.113C217.945 347.634 244.798 330.772 259.021 319.539C268.671 315.713 282.398 306.092 295.431 295.566Z" fill="#F1EFB5"/>
<path fill-rule="evenodd" clip-rule="evenodd" d="M119.215 135.373C167.925 112.793 216.874 137.286 248.343 191.435C270.454 229.482 276.631 198.105 276.041 156.288C259.331 147.987 244.952 146.323 236.846 145.385C232.92 144.931 230.465 144.647 229.928 143.862C225.146 136.873 175.834 100.892 127.308 128.301C124.391 130.611 121.697 132.971 119.215 135.373Z" fill="#E8CD6F" fill-opacity="0.9"/>
<path opacity="0.5" d="M255.684 296.603C241.258 324.534 197.369 353.139 171.663 352.233C152.48 356.837 125.624 364.587 171.663 358.756C217.702 352.924 249.162 326.657 259.521 317.321C263.101 292.767 270.11 268.673 255.684 296.603Z" fill="#CCAD3D" fill-opacity="0.5"/>
<path d="M123.089 343.432C112.355 349.627 146.14 367.695 164.374 375.954C192.758 383.698 172.629 327.945 169.533 321.75C166.436 315.555 158.695 316.588 154.051 317.62C149.406 318.653 151.987 330.526 144.762 327.945C137.537 325.364 135.473 324.847 131.86 327.945C128.248 331.042 136.507 335.688 123.089 343.432Z" fill="#F2C162"/>
<path fill-rule="evenodd" clip-rule="evenodd" d="M157.764 372.849C139.147 363.806 113.554 348.935 123.089 343.432C131.871 338.364 131.367 334.622 130.984 331.774C130.781 330.27 130.612 329.015 131.86 327.945C135.473 324.847 137.537 325.364 144.762 327.945C148.912 329.428 149.827 326.14 150.734 322.878C151.406 320.462 152.075 318.06 154.051 317.62C158.209 316.696 164.849 315.772 168.416 320.033C165.54 319.669 162.485 320.18 160.188 320.691C158.211 321.13 157.543 323.532 156.871 325.948C155.964 329.21 155.049 332.498 150.899 331.015C143.674 328.434 141.61 327.918 137.997 331.015C136.749 332.085 136.918 333.34 137.12 334.844C137.504 337.693 138.008 341.434 129.226 346.502C120.707 351.419 140.229 363.814 157.764 372.849Z" fill="#D6A443"/>
</svg>
