<svg width="412" height="245" viewBox="0 0 412 245" fill="none" xmlns="http://www.w3.org/2000/svg">
<path d="M395.953 137.129C354.698 118.984 301.751 103.1 217.27 126.197C126.657 150.97 75.2047 135.066 38.9618 110.277" stroke="#61934A" stroke-width="3" stroke-linecap="round"/>
<path d="M79.4992 128.817L83.3476 130.64C83.6707 126.344 81.3231 122.002 80.1089 120.368C80.4707 127.236 80.0583 129.053 79.4992 128.817L79.4743 128.806C79.4826 128.81 79.4909 128.814 79.4992 128.817Z" fill="#61934A"/>
<path d="M83.3476 130.64L79.4743 128.806C80.0459 129.106 80.476 127.338 80.1089 120.368C81.3231 122.002 83.6707 126.344 83.3476 130.64Z" stroke="#61934A" stroke-width="1.15385" stroke-linecap="round"/>
<path d="M175.584 134.717L179.725 133.724C177.284 130.175 172.733 128.263 170.763 127.751C175.35 132.876 176.168 134.55 175.584 134.717L175.557 134.723C175.567 134.721 175.576 134.719 175.584 134.717Z" fill="#61934A"/>
<path d="M179.725 133.724L175.557 134.723C176.191 134.598 175.418 132.952 170.763 127.751C172.733 128.263 177.284 130.175 179.725 133.724Z" stroke="#61934A" stroke-width="1.15385" stroke-linecap="round"/>
<path d="M39.0951 111.151C40.3913 108.061 40.5753 101.198 30.9423 98.4649C21.6411 95.8259 19.1495 93.4665 19.0246 92.5194C19.023 92.4873 19.0215 92.4554 19.02 92.4235C19.0187 92.4536 19.0201 92.4856 19.0246 92.5194C19.5115 102.561 24.1907 120.2 39.0951 111.151Z" fill="#61934A" stroke="#61934A" stroke-width="0.337854"/>
<path d="M21.8533 98.4905C22.5505 102.554 26.2458 110.755 35.4499 111.046C31.3487 112.241 22.8876 111.404 21.8533 98.4905Z" fill="#7AB55E"/>
<path d="M81.7726 121.576C79.1943 122.841 73.3318 123.344 70.5079 115.24C67.7814 107.415 65.6371 105.402 64.8205 105.343C64.793 105.343 64.7656 105.344 64.7382 105.344C64.764 105.341 64.7914 105.341 64.8205 105.343C73.4367 105.254 88.7637 108.368 81.7726 121.576Z" fill="#61934A" stroke="#61934A" stroke-width="0.289558"/>
<path d="M70.0713 107.465C73.5832 107.857 80.7853 110.605 81.4983 118.465C82.3147 114.896 81.1722 107.699 70.0713 107.465Z" fill="#7AB55E"/>
<path d="M121.079 137.897L125.215 138.912C122.755 142.448 118.193 144.335 116.22 144.837C120.835 139.737 121.662 138.067 121.079 137.897L121.052 137.891C121.062 137.893 121.071 137.895 121.079 137.897Z" fill="#61934A"/>
<path d="M125.215 138.912L121.052 137.891C121.685 138.019 120.904 139.661 116.22 144.837C118.193 144.335 122.755 142.448 125.215 138.912Z" stroke="#61934A" stroke-width="1.15385" stroke-linecap="round"/>
<path d="M118.291 144.873C117.089 142.265 112.858 138.175 105.554 142.68C98.5011 147.029 95.5675 147.238 94.8967 146.768C94.8756 146.751 94.8545 146.733 94.8335 146.716C94.8518 146.734 94.8728 146.752 94.8967 146.768C101.524 152.275 115.38 159.531 118.291 144.873Z" fill="#61934A" stroke="#61934A" stroke-width="0.289558"/>
<path d="M100.308 148.441C103.28 150.353 110.601 152.766 116.114 147.118C114.495 150.402 109.068 155.264 100.308 148.441Z" fill="#7AB55E"/>
<path d="M233.377 122.464L237.059 122.29C235.334 126.407 231.611 129.514 229.965 130.553C233.373 124.316 233.898 122.466 233.377 122.464L233.353 122.466C233.361 122.465 233.369 122.464 233.377 122.464Z" fill="#61934A"/>
<path d="M237.059 122.29L233.353 122.466C233.913 122.412 233.423 124.224 229.965 130.553C231.611 129.514 235.334 126.407 237.059 122.29Z" stroke="#61934A" stroke-width="1.15385" stroke-linecap="round"/>
<path d="M232.506 129.103C230.549 127.001 225.252 124.439 219.722 131.002C214.383 137.339 211.662 138.454 210.878 138.218C210.852 138.208 210.827 138.198 210.801 138.188C210.824 138.199 210.85 138.209 210.878 138.218C218.895 141.376 234.324 143.936 232.506 129.103Z" fill="#61934A" stroke="#61934A" stroke-width="0.289558"/>
<path d="M216.54 138.108C219.96 138.996 227.669 138.998 231.14 131.91C230.629 135.535 226.993 141.851 216.54 138.108Z" fill="#7AB55E"/>
<path d="M291.825 115.473L295.299 115.143C293.506 119.423 289.873 122.752 288.281 123.882C291.746 117.366 292.316 115.453 291.825 115.473L291.803 115.475C291.811 115.474 291.818 115.473 291.825 115.473Z" fill="#61934A"/>
<path d="M295.299 115.143L291.803 115.475C292.333 115.398 291.797 117.27 288.281 123.882C289.873 122.752 293.506 119.423 295.299 115.143Z" stroke="#61934A" stroke-width="1.15385" stroke-linecap="round"/>
<path d="M290.613 122.162C288.603 120.111 283.242 117.685 277.882 124.387C272.706 130.858 270.014 132.042 269.224 131.826C269.199 131.816 269.173 131.807 269.147 131.798C269.171 131.809 269.196 131.818 269.224 131.826C277.319 134.778 292.809 136.944 290.613 122.162Z" fill="#61934A" stroke="#61934A" stroke-width="0.289558"/>
<path d="M274.883 131.573C278.325 132.373 286.031 132.179 289.32 125.004C288.901 128.641 285.428 135.048 274.883 131.573Z" fill="#7AB55E"/>
<path d="M376.846 130.078L380.043 131.638C375.865 134.441 370.686 135.429 368.619 135.573C375.613 131.697 377.282 130.322 376.846 130.078L376.826 130.068C376.833 130.071 376.84 130.074 376.846 130.078Z" fill="#61934A"/>
<path d="M380.043 131.638L376.826 130.068C377.33 130.282 375.717 131.64 368.619 135.573C370.686 135.429 375.865 134.441 380.043 131.638Z" stroke="#61934A" stroke-width="1.15385" stroke-linecap="round"/>
<path d="M372.067 134.768C371.12 132.057 367.3 127.581 359.598 131.367C352.162 135.022 349.222 134.949 348.599 134.417C348.58 134.398 348.56 134.378 348.541 134.359C348.558 134.379 348.577 134.398 348.599 134.417C354.669 140.532 367.767 149.08 372.067 134.768Z" fill="#61934A" stroke="#61934A" stroke-width="0.289558"/>
<path d="M353.825 136.598C356.6 138.785 363.657 141.887 369.685 136.793C367.759 139.907 361.892 144.228 353.825 136.598Z" fill="#7AB55E"/>
<path d="M174.384 129.098C172.481 131.248 167.251 133.945 161.555 127.526C156.056 121.328 153.307 120.282 152.529 120.538C152.504 120.549 152.479 120.56 152.454 120.571C152.476 120.558 152.502 120.548 152.529 120.538C160.463 117.176 175.822 114.223 174.384 129.098Z" fill="#61934A" stroke="#61934A" stroke-width="0.289558"/>
<path d="M158.196 120.5C161.593 119.526 169.299 119.326 172.95 126.323C172.346 122.712 168.551 116.492 158.196 120.5Z" fill="#7AB55E"/>
<path d="M262.371 116.494L266.027 116.119C263.212 112.026 258.715 109.305 256.818 108.456C261.862 114.536 262.882 116.413 262.371 116.494L262.348 116.496C262.356 116.496 262.364 116.495 262.371 116.494Z" fill="#61934A"/>
<path d="M266.027 116.119L262.348 116.496C262.911 116.467 261.936 114.626 256.818 108.456C258.715 109.305 263.212 112.026 266.027 116.119Z" stroke="#61934A" stroke-width="1.15385" stroke-linecap="round"/>
<path d="M259.196 110.522C257.292 112.672 252.062 115.368 246.368 108.947C240.87 102.747 238.121 101.701 237.343 101.957C237.318 101.968 237.293 101.978 237.268 101.989C237.29 101.977 237.316 101.966 237.343 101.957C245.278 98.597 260.638 95.6478 259.196 110.522Z" fill="#61934A" stroke="#61934A" stroke-width="0.289558"/>
<path d="M243.008 101.92C246.405 100.947 254.111 100.749 257.76 107.748C257.157 104.136 253.363 97.9147 243.008 101.92Z" fill="#7AB55E"/>
<path d="M345.213 119.526L349.18 119.116C344.759 114.198 338.888 110.902 336.505 109.869C344.034 117.182 345.759 119.434 345.213 119.526L345.188 119.529C345.197 119.528 345.205 119.527 345.213 119.526Z" fill="#61934A"/>
<path d="M349.18 119.116L345.188 119.529C345.808 119.5 344.145 117.29 336.505 109.869C338.888 110.902 344.759 114.198 349.18 119.116Z" stroke="#61934A" stroke-width="1.15385" stroke-linecap="round"/>
<path d="M338.442 110.228C336.499 112.343 331.22 114.941 325.646 108.416C320.263 102.116 317.534 101.02 316.752 101.261C316.727 101.271 316.701 101.282 316.676 101.292C316.699 101.28 316.724 101.27 316.752 101.261C324.747 98.0482 340.159 95.383 338.442 110.228Z" fill="#61934A" stroke="#61934A" stroke-width="0.289558"/>
<path d="M322.414 101.327C325.829 100.416 333.537 100.361 337.056 107.425C336.521 103.804 332.842 97.5131 322.414 101.327Z" fill="#7AB55E"/>
<path d="M397.274 137.016C394.713 137.917 389.155 137.737 387.406 129.817C385.717 122.17 383.928 120.042 383.168 119.896C383.142 119.893 383.116 119.891 383.091 119.888C383.115 119.888 383.141 119.891 383.168 119.896C391.265 120.77 405.304 125.397 397.274 137.016Z" fill="#61934A" stroke="#61934A" stroke-width="0.27367"/>
<path d="M387.859 122.471C391.112 123.229 397.566 126.609 397.361 134.066C398.524 130.807 398.252 123.925 387.859 122.471Z" fill="#7AB55E"/>
</svg>
