<svg width="412" height="245" viewBox="0 0 412 245" fill="none" xmlns="http://www.w3.org/2000/svg">
<path d="M15.9607 137.129C57.2159 118.984 110.163 103.1 194.644 126.197C285.257 150.97 336.709 135.066 372.952 110.277" stroke="#61934A" stroke-width="3" stroke-linecap="round"/>
<path d="M332.415 128.817L328.566 130.64C328.243 126.344 330.591 122.002 331.805 120.368C331.443 127.236 331.856 129.053 332.415 128.817L332.44 128.806C332.431 128.81 332.423 128.814 332.415 128.817Z" fill="#61934A"/>
<path d="M328.566 130.64L332.44 128.806C331.868 129.106 331.438 127.338 331.805 120.368C330.591 122.002 328.243 126.344 328.566 130.64Z" stroke="#61934A" stroke-width="1.15385" stroke-linecap="round"/>
<path d="M236.33 134.717L232.189 133.724C234.63 130.175 239.181 128.263 241.151 127.751C236.564 132.876 235.747 134.55 236.33 134.717L236.357 134.723C236.347 134.721 236.339 134.719 236.33 134.717Z" fill="#61934A"/>
<path d="M232.189 133.724L236.357 134.723C235.723 134.598 236.496 132.952 241.151 127.751C239.181 128.263 234.63 130.175 232.189 133.724Z" stroke="#61934A" stroke-width="1.15385" stroke-linecap="round"/>
<path d="M372.815 111.151C371.519 108.061 371.335 101.198 380.968 98.4649C390.269 95.8259 392.761 93.4665 392.886 92.5194C392.887 92.4873 392.889 92.4554 392.89 92.4235C392.891 92.4536 392.89 92.4856 392.886 92.5194C392.399 102.561 387.719 120.2 372.815 111.151Z" fill="#61934A" stroke="#61934A" stroke-width="0.337854"/>
<path d="M390.057 98.4905C389.36 102.554 385.664 110.755 376.46 111.046C380.561 112.241 389.023 111.404 390.057 98.4905Z" fill="#7AB55E"/>
<path d="M330.138 121.576C332.716 122.841 338.578 123.344 341.402 115.24C344.129 107.415 346.273 105.402 347.09 105.343C347.117 105.343 347.145 105.344 347.172 105.344C347.146 105.341 347.119 105.341 347.09 105.343C338.473 105.254 323.146 108.368 330.138 121.576Z" fill="#61934A" stroke="#61934A" stroke-width="0.289558"/>
<path d="M341.839 107.465C338.327 107.857 331.125 110.605 330.412 118.465C329.596 114.896 330.738 107.699 341.839 107.465Z" fill="#7AB55E"/>
<path d="M290.835 137.897L286.699 138.912C289.159 142.448 293.721 144.335 295.694 144.837C291.079 139.737 290.252 138.067 290.835 137.897L290.862 137.891C290.852 137.893 290.843 137.895 290.835 137.897Z" fill="#61934A"/>
<path d="M286.699 138.912L290.862 137.891C290.229 138.019 291.011 139.661 295.694 144.837C293.721 144.335 289.159 142.448 286.699 138.912Z" stroke="#61934A" stroke-width="1.15385" stroke-linecap="round"/>
<path d="M293.619 144.869C294.821 142.261 299.052 138.171 306.356 142.676C313.409 147.025 316.343 147.234 317.013 146.764C317.035 146.747 317.056 146.729 317.077 146.712C317.058 146.73 317.037 146.748 317.013 146.764C310.386 152.271 296.53 159.527 293.619 144.869Z" fill="#61934A" stroke="#61934A" stroke-width="0.289558"/>
<path d="M311.602 148.437C308.63 150.349 301.309 152.762 295.796 147.114C297.415 150.398 302.843 155.26 311.602 148.437Z" fill="#7AB55E"/>
<path d="M178.537 122.464L174.855 122.29C176.58 126.407 180.303 129.514 181.95 130.553C178.541 124.316 178.016 122.466 178.537 122.464L178.561 122.466C178.553 122.465 178.545 122.464 178.537 122.464Z" fill="#61934A"/>
<path d="M174.855 122.29L178.561 122.466C178.001 122.412 178.491 124.224 181.95 130.553C180.303 129.514 176.58 126.407 174.855 122.29Z" stroke="#61934A" stroke-width="1.15385" stroke-linecap="round"/>
<path d="M179.404 129.099C181.361 126.997 186.658 124.435 192.188 130.998C197.527 137.335 200.248 138.45 201.032 138.214C201.058 138.204 201.084 138.194 201.109 138.184C201.086 138.195 201.06 138.205 201.032 138.214C193.015 141.372 177.586 143.932 179.404 129.099Z" fill="#61934A" stroke="#61934A" stroke-width="0.289558"/>
<path d="M195.37 138.105C191.95 138.992 184.241 138.994 180.771 131.906C181.281 135.532 184.917 141.847 195.37 138.105Z" fill="#7AB55E"/>
<path d="M120.089 115.473L116.615 115.143C118.408 119.423 122.041 122.752 123.633 123.882C120.168 117.366 119.598 115.453 120.089 115.473L120.111 115.475C120.103 115.474 120.096 115.473 120.089 115.473Z" fill="#61934A"/>
<path d="M116.615 115.143L120.111 115.475C119.581 115.398 120.117 117.27 123.633 123.882C122.041 122.752 118.408 119.423 116.615 115.143Z" stroke="#61934A" stroke-width="1.15385" stroke-linecap="round"/>
<path d="M121.297 122.162C123.307 120.111 128.668 117.685 134.028 124.387C139.204 130.858 141.896 132.042 142.686 131.826C142.712 131.816 142.737 131.807 142.763 131.798C142.74 131.809 142.714 131.818 142.686 131.826C134.591 134.778 119.101 136.944 121.297 122.162Z" fill="#61934A" stroke="#61934A" stroke-width="0.289558"/>
<path d="M137.028 131.573C133.586 132.373 125.879 132.179 122.591 125.004C123.009 128.641 126.482 135.048 137.028 131.573Z" fill="#7AB55E"/>
<path d="M35.0676 130.078L31.8712 131.638C36.0493 134.441 41.2281 135.429 43.2953 135.573C36.3009 131.697 34.6324 130.322 35.0676 130.078L35.0883 130.068C35.081 130.071 35.0741 130.074 35.0676 130.078Z" fill="#61934A"/>
<path d="M31.8712 131.638L35.0883 130.068C34.5841 130.282 36.1972 131.64 43.2953 135.573C41.2281 135.429 36.0493 134.441 31.8712 131.638Z" stroke="#61934A" stroke-width="1.15385" stroke-linecap="round"/>
<path d="M39.847 134.768C40.7941 132.057 44.6137 127.581 52.3156 131.367C59.7522 135.022 62.6922 134.949 63.3151 134.417C63.3344 134.398 63.3537 134.378 63.373 134.359C63.3566 134.379 63.3373 134.398 63.3151 134.417C57.2446 140.532 44.1469 149.08 39.847 134.768Z" fill="#61934A" stroke="#61934A" stroke-width="0.289558"/>
<path d="M58.0889 136.598C55.3139 138.785 48.2569 141.887 42.2289 136.793C44.1546 139.907 50.0225 144.228 58.0889 136.598Z" fill="#7AB55E"/>
<path d="M237.526 129.098C239.429 131.248 244.659 133.945 250.355 127.526C255.854 121.328 258.603 120.282 259.381 120.538C259.406 120.549 259.431 120.56 259.457 120.571C259.434 120.558 259.409 120.548 259.381 120.538C251.447 117.176 236.088 114.223 237.526 129.098Z" fill="#61934A" stroke="#61934A" stroke-width="0.289558"/>
<path d="M253.714 120.5C250.317 119.526 242.611 119.326 238.96 126.323C239.564 122.712 243.359 116.492 253.714 120.5Z" fill="#7AB55E"/>
<path d="M149.543 116.494L145.887 116.119C148.702 112.026 153.199 109.305 155.096 108.456C150.052 114.536 149.032 116.413 149.543 116.494L149.567 116.496C149.558 116.496 149.55 116.495 149.543 116.494Z" fill="#61934A"/>
<path d="M145.887 116.119L149.567 116.496C149.003 116.467 149.978 114.626 155.096 108.456C153.199 109.305 148.702 112.026 145.887 116.119Z" stroke="#61934A" stroke-width="1.15385" stroke-linecap="round"/>
<path d="M152.715 110.522C154.618 112.672 159.849 115.368 165.543 108.947C171.04 102.747 173.789 101.701 174.567 101.957C174.592 101.968 174.617 101.978 174.642 101.989C174.62 101.977 174.594 101.966 174.567 101.957C166.632 98.597 151.272 95.6478 152.715 110.522Z" fill="#61934A" stroke="#61934A" stroke-width="0.289558"/>
<path d="M168.902 101.92C165.505 100.947 157.799 100.749 154.15 107.748C154.753 104.136 158.547 97.9147 168.902 101.92Z" fill="#7AB55E"/>
<path d="M66.7007 119.526L62.7342 119.116C67.1547 114.198 73.0263 110.902 75.4096 109.869C67.8804 117.182 66.1556 119.434 66.7007 119.526L66.7264 119.529C66.7173 119.528 66.7087 119.527 66.7007 119.526Z" fill="#61934A"/>
<path d="M62.7342 119.116L66.7264 119.529C66.1057 119.5 67.7688 117.29 75.4096 109.869C73.0263 110.902 67.1547 114.198 62.7342 119.116Z" stroke="#61934A" stroke-width="1.15385" stroke-linecap="round"/>
<path d="M73.4718 110.228C75.4147 112.343 80.694 114.941 86.2685 108.416C91.6508 102.116 94.3797 101.02 95.162 101.261C95.1876 101.271 95.213 101.282 95.2384 101.292C95.2154 101.28 95.1899 101.27 95.162 101.261C87.1668 98.0482 71.7553 95.383 73.4718 110.228Z" fill="#61934A" stroke="#61934A" stroke-width="0.289558"/>
<path d="M89.4996 101.327C86.0853 100.416 78.3768 100.361 74.8577 107.425C75.3934 103.804 79.0718 97.5131 89.4996 101.327Z" fill="#7AB55E"/>
<path d="M14.6323 137.016C17.1928 137.917 22.7512 137.737 24.5006 129.817C26.1897 122.17 27.9784 120.042 28.7383 119.896C28.7641 119.893 28.7899 119.891 28.8157 119.888C28.7912 119.888 28.7654 119.891 28.7383 119.896C20.6415 120.77 6.60221 125.397 14.6323 137.016Z" fill="#61934A" stroke="#61934A" stroke-width="0.27367"/>
<path d="M24.0474 122.471C20.7947 123.229 14.3406 126.609 14.5453 134.066C13.3823 130.807 13.6545 123.925 24.0474 122.471Z" fill="#7AB55E"/>
</svg>
