<svg width="218" height="582" viewBox="0 0 218 582" fill="none" xmlns="http://www.w3.org/2000/svg">
<path d="M80.7667 375.01C77.8084 379.694 57.0661 396.285 41.944 410.613L44.3496 450.184C67.2926 444.449 80.2361 407.75 82.8053 397.445C84.8606 389.202 85.1613 379.454 85.0548 375.61C85.7663 373.276 85.0692 372.357 84.6317 372.188C84.3295 371.568 83.1334 371.263 80.7667 375.01Z" fill="#5A7639" stroke="#607B40" stroke-width="0.80166"/>
<path d="M147.349 469.815C143.79 474.06 134.307 498.871 125.269 517.64L86.8458 527.406C85.3174 503.806 116.328 480.296 125.36 474.71C132.585 470.24 141.778 466.984 145.471 465.914C147.478 464.525 148.566 464.909 148.859 465.274C149.543 465.373 150.197 466.42 147.349 469.815Z" fill="#5A7639" stroke="#607B40" stroke-width="0.80166"/>
<path d="M157.379 48.2047C178.614 250.179 89.0302 378.049 41.5838 416.738L14.4072 357.344C24.4157 307.868 41.6643 265.925 49.1622 251.309C56.6834 233.417 76.612 193.082 95.159 173.515C113.706 153.947 144.367 81.8214 157.379 48.2047Z" fill="#97C65F"/>
<path d="M161.634 159.142C194.794 177.83 193.387 187.743 192.793 191.79C190.077 210.288 154.306 220.145 137.481 224.781L136.967 224.923C51.207 248.565 -116.515 215.432 -150.819 209.24C-185.123 203.048 -208.272 193.054 -223.715 185.035C-233.702 179.85 -240.042 172.061 -240.804 169.153C-241.853 162.492 -239.038 151.655 -223.715 145.351C-202.218 138.371 -186.553 124.617 -181.407 118.613L-116.515 56.131C-106.7 47.6875 -82.9544 28.8866 -66.4885 21.2311C-8.62897 -7.13915 40.3305 9.41015 57.5779 21.2311C68.0596 27.8921 86.5098 44.9994 104.436 76.2038C116.728 101.534 137.049 133.248 161.634 159.142Z" fill="#C16134" stroke="#C16134" stroke-width="1.01447"/>
<path d="M-186.7 163.77C-19.0674 104.872 101.168 157.801 140.332 191.627C107.858 216.642 40.4691 217.968 10.8343 215.505C6.26039 234.607 18.2668 264.776 24.8418 277.473C59.5285 351.176 64.1415 415.449 51.8542 428.532C37.5302 443.784 -7.45 444.196 -28.6042 432.258C-70.4551 410.199 -59.6796 275.862 -52.6282 204.419C-133.586 195.323 -175.742 173.53 -186.7 163.77Z" fill="url(#paint0_linear_1261_4007)" stroke="#E8D9C6" stroke-width="1.01447"/>
<path d="M3.47458 285.641C18.7903 335.04 45.476 429.58 22.2322 438.343" stroke="#C5A687" stroke-opacity="0.5" stroke-width="4.05788" stroke-linecap="round"/>
<path fill-rule="evenodd" clip-rule="evenodd" d="M-33.0888 89.8864C-83.2222 112.471 -152.519 119.974 -161.457 100.134C-161.534 99.9624 -161.607 99.7893 -161.676 99.6145L-116.511 56.1271C-106.696 47.6836 -82.9504 28.8827 -66.4844 21.2272C-21.5434 -0.808771 18.0283 4.2555 41.5406 13.1548C50.3438 33.0083 16.9723 67.3341 -33.0888 89.8864Z" fill="#DC7747" fill-opacity="0.7"/>
<path d="M99.1553 109.145C94.1423 117.828 99.7604 130.457 111.704 137.352C123.647 144.247 136.841 147.973 141.854 139.29C146.866 130.607 141.8 112.805 129.857 105.909C117.914 99.014 104.168 100.463 99.1553 109.145Z" fill="#E6D2BA"/>
<path d="M100.085 107.799C96.4315 114.127 100.526 123.33 109.23 128.356C117.934 133.381 127.549 136.096 131.203 129.768C134.856 123.44 131.164 110.466 122.46 105.441C113.756 100.416 103.738 101.472 100.085 107.799Z" fill="#F6ECE0"/>
<path d="M-0.495971 72.061C-0.673096 59.1315 12.5561 48.4669 29.0523 48.2409C45.5484 48.015 60.0902 65.0127 60.2673 77.9421C60.4445 90.8716 46.1899 94.8366 29.6937 95.0626C13.1975 95.2886 -0.318846 84.9904 -0.495971 72.061Z" fill="#E6D2BA"/>
<path d="M1.441 66.5256C1.31933 57.6438 10.5544 50.3159 22.0682 50.1582C33.5819 50.0004 43.729 61.6747 43.8507 70.5565C43.9723 79.4382 34.0226 82.1641 22.5088 82.3219C10.995 82.4796 1.56268 75.4074 1.441 66.5256Z" fill="#F6ECE0"/>
<path d="M74.2495 42.3457C77.4575 38.0544 85.4567 38.6114 92.1161 43.5897C98.7756 48.5681 100.285 58.5922 97.0768 62.8835C93.8688 67.1748 87.1582 64.1083 80.4988 59.1299C73.8393 54.1516 71.0414 46.637 74.2495 42.3457Z" fill="#E6D2BA"/>
<path d="M74.3932 42.2986C76.5876 39.3632 82.0519 39.7388 86.5982 43.1374C91.1444 46.536 92.169 53.3869 89.9747 56.3222C87.7803 59.2576 83.1979 57.1658 78.6517 53.7672C74.1054 50.3686 72.1988 45.2339 74.3932 42.2986Z" fill="#F6ECE0"/>
<path d="M159.88 160.524C162.77 156.658 169.978 157.159 175.978 161.645C181.979 166.131 183.339 175.163 180.448 179.03C177.557 182.896 171.511 180.133 165.511 175.648C159.51 171.162 156.989 164.391 159.88 160.524Z" fill="#E6D2BA"/>
<path d="M159.599 160.561C161.544 157.959 166.393 158.297 170.43 161.315C174.467 164.333 175.382 170.41 173.438 173.011C171.493 175.613 167.425 173.754 163.387 170.736C159.35 167.718 157.654 163.162 159.599 160.561Z" fill="#F6ECE0"/>
<path d="M29.9351 285.199C73.4367 390.559 60.6392 426.346 46.5626 432.244C41.7089 435.615 41.4329 435.334 44.5716 432.244C59.409 416.236 47.7041 362.031 32.8666 328.891C20.9967 302.379 -34.0286 283.431 -58.948 277.345C-58.948 259.912 -55.8728 223.478 -54.1608 207.282C-102.325 204.586 -168.861 180.805 -186.972 164.031C-181.14 159.931 -175.371 157.74 -162.588 161.784C-134.968 172.794 -124.829 166.746 -123.212 162.346C-122.641 161.223 -122.071 158.021 -124.353 154.201C-126.636 150.382 -125.685 142.142 -124.353 141.206C-122.737 140.176 -117.677 144.428 -114.937 148.023C-108.318 157.684 -91.4447 164.78 -83.8357 167.12C-76.6072 168.431 -61.8078 170.603 -60.4382 168.806C-59.0686 167.008 -60.6284 164.874 -61.5795 164.031C-66.9058 156.635 -75.4468 141.114 -67.0009 138.193C-58.555 135.272 -55.7573 131.69 -54.1608 146.618C-53.3999 153.733 -46.5708 169.704 -25.3419 176.669C1.19437 185.376 22.0239 174.142 26.0186 171.614C35.3776 165.997 43.289 150.611 45.0962 146.117C47.8544 145.181 57.7684 143.978 58.9098 148.023C60.5076 156.111 49.1308 166.465 46.2774 167.963C43.1387 170.491 37.8315 175.771 41.712 176.669C71.1016 184.814 93.9285 164.593 95.9258 163.75C108.709 158.807 108.1 165.81 106.198 169.929L86.5098 186.218C91.1703 187.997 101.579 191.548 106.198 190.934C119.076 190.934 131.899 183.698 135.038 185.102C138.176 186.506 145.168 191.548 136.729 197.453C94.0427 222.392 35.752 220.959 11.0229 217.027C15.0176 256.346 14.8125 252.339 29.9351 285.199Z" fill="#B49678"/>
<path d="M-28.8476 125.281C71.2534 126.688 126.742 168.727 142.043 191.884C99.7904 152.283 12.3542 141.257 -28.8476 139.007C-70.0493 136.757 -149.319 152.039 -187.848 164.04C-126.349 125.564 -60.6476 125.281 -28.8476 125.281Z" fill="#9C5C3F"/>
<path d="M18.1557 363.467C4.24987 371.918 4.84005 376.4 5.08902 378.23C6.22806 386.595 21.2285 391.052 28.284 393.149L28.4996 393.213C64.4631 403.904 134.797 388.921 149.183 386.121C163.568 383.321 173.276 378.802 179.752 375.176C183.94 372.831 186.598 369.309 186.918 367.994C187.358 364.982 186.177 360.081 179.752 357.23C170.737 354.074 164.168 347.855 162.01 345.14L134.797 316.885C130.682 313.067 120.724 304.565 113.819 301.103C89.5553 288.274 69.0241 295.758 61.7915 301.103C57.396 304.115 49.6589 311.851 42.1417 325.962C36.9869 337.416 28.4653 351.758 18.1557 363.467Z" fill="#BC643A" stroke="#C96F44" stroke-width="0.80166"/>
<path d="M164.234 365.563C93.9378 338.929 43.5171 362.863 27.0938 378.16C40.7119 389.471 68.9712 390.071 81.3986 388.957C83.3166 397.595 78.2818 411.238 75.5246 416.979C59.7006 450.014 58.3841 479.318 63.5367 485.235C69.5435 492.132 89.0661 492.372 97.9371 486.973C115.487 476.998 110.969 416.251 108.012 383.944C141.961 379.831 159.639 369.976 164.234 365.563Z" fill="#E8D9C6" stroke="#E8D9C6" stroke-width="0.80166"/>
<path d="M81.602 389.517C79.8949 407.332 79.8949 405.423 73.4322 420.311C117.055 432.978 100.072 478.913 100.907 483.717C101.321 486.096 118.083 460.962 111.355 416.466C111.355 408.96 109.404 392.528 108.672 385.19C129.255 383.968 151.788 373.525 160.161 369.029C169.043 364.575 158.616 362.035 155.009 364.575C143.205 369.563 138.196 367.587 137.505 365.593C137.261 365.084 137.031 362.129 138.669 361.139C145.229 357.177 138.75 358.128 138.181 357.704C137.49 357.237 135.816 356.711 134.645 358.34C131.816 362.717 124.606 365.933 121.354 366.993C118.265 367.587 111.94 368.571 111.355 367.756C110.77 366.942 111.436 365.975 111.843 365.593C114.119 362.242 119.36 354.058 115.75 352.735C112.141 351.412 110.086 351.763 108.672 357.704C108.347 360.927 105.429 368.164 96.3565 371.32C85.0163 375.264 76.1148 370.174 74.4077 369.029C70.4081 366.484 68.4733 360.376 67.7011 358.34C68.3108 355.638 62.9448 356.507 62.4571 358.34C61.7742 362.005 64.5307 366.696 65.7501 367.375C67.0914 368.52 69.3594 370.912 67.7011 371.32C55.1414 375.01 45.3864 365.848 44.5328 365.466C39.07 363.226 39.3301 366.399 40.143 368.265L48.5568 375.646C46.5651 376.452 42.094 378.711 40.143 377.999C35.5531 377.999 29.7056 374.262 28.6808 375.392C27.7007 376.472 25.4854 377.918 27.3145 380.081C45.5565 391.381 71.034 391.298 81.602 389.517Z" fill="#C5A687" stroke="#C5A687" stroke-width="0.80166"/>
<path d="M98.0379 349.531C56.0606 350.167 32.7914 367.804 26.375 378.275C44.0936 360.368 80.7599 355.382 98.0379 354.364C115.316 353.347 148.558 360.257 164.715 365.684C138.925 348.285 111.373 349.531 98.0379 349.531Z" fill="#A46C53" stroke="#A46C53" stroke-width="0.80166"/>
<path d="M84.4786 420.672C78.056 443.01 66.8654 485.762 76.6126 489.724" stroke="#C5A687" stroke-opacity="0.5" stroke-width="3.20664" stroke-linecap="round"/>
<path d="M101.66 419.512C101.66 438.857 100.158 485.535 91.7124 489.067" stroke="#C5A687" stroke-opacity="0.5" stroke-width="3.20664" stroke-linecap="round"/>
<path fill-rule="evenodd" clip-rule="evenodd" d="M107.545 297.605C86.0676 288.985 68.3944 295.643 61.7945 300.521C57.399 303.533 49.6619 311.269 42.1446 325.38C38.8333 332.738 34.1325 341.288 28.4609 349.565C37.3563 353.967 63.3892 344.656 80.6506 330.505C96.5587 317.463 107.723 305.738 107.545 297.605Z" fill="#DC7747" fill-opacity="0.7"/>
<path d="M117.406 306.206C116.125 308.598 112.213 308.747 108.666 306.539C105.12 304.331 102.133 301.4 103.414 299.008C104.694 296.616 109.757 295.67 113.303 297.878C116.85 300.086 118.686 303.815 117.406 306.206Z" fill="#E6D2BA"/>
<path d="M113.196 303.661C112.115 305.682 109.277 306.099 106.859 304.593C104.44 303.088 102.474 300.958 103.555 298.937C104.637 296.917 108.358 295.771 110.776 297.277C113.194 298.782 114.278 301.641 113.196 303.661Z" fill="#F6ECE0"/>
<path d="M97.0145 329.95C97.0888 324.103 91.5411 319.28 84.6235 319.178C77.7058 319.076 71.6077 326.762 71.5334 332.609C71.4592 338.456 77.4368 340.249 84.3545 340.351C91.2721 340.453 96.9402 335.796 97.0145 329.95Z" fill="#E6D2BA"/>
<path d="M90.5379 327.728C90.5889 323.712 86.7162 320.398 81.8879 320.327C77.0596 320.256 72.8044 325.535 72.7534 329.551C72.7024 333.567 76.8748 334.8 81.7031 334.871C86.5314 334.943 90.4868 331.745 90.5379 327.728Z" fill="#F6ECE0"/>
<path d="M149.555 344.184C151.537 340.997 150.087 336.203 146.316 333.476C142.545 330.749 136.639 332.623 134.657 335.81C132.675 338.997 135.368 342.291 139.139 345.018C142.91 347.744 147.573 347.371 149.555 344.184Z" fill="#E6D2BA"/>
<path d="M145.226 341.341C146.612 339.112 145.598 335.76 142.961 333.854C140.325 331.947 136.195 333.257 134.809 335.485C133.424 337.714 135.306 340.017 137.943 341.923C140.579 343.83 143.84 343.569 145.226 341.341Z" fill="#F6ECE0"/>
<path d="M54.8 310.656C53.4547 308.715 50.1003 308.967 47.3077 311.218C44.515 313.47 43.8821 318.002 45.2274 319.943C46.5727 321.884 49.3867 320.497 52.1794 318.246C54.972 315.994 56.1453 312.596 54.8 310.656Z" fill="#E6D2BA"/>
<path d="M52.1659 310.636C51.2457 309.308 48.9543 309.478 47.0478 311.015C45.1413 312.552 44.7116 315.65 45.6319 316.977C46.5521 318.304 48.4737 317.359 50.3802 315.822C52.2866 314.285 53.0861 311.963 52.1659 310.636Z" fill="#F6ECE0"/>
<path d="M31.6692 348.276C30.457 346.527 27.4345 346.754 24.9183 348.783C22.402 350.811 21.8317 354.896 23.0439 356.644C24.256 358.393 26.7916 357.143 29.3079 355.115C31.8242 353.086 32.8813 350.024 31.6692 348.276Z" fill="#E6D2BA"/>
<path d="M29.9804 347.737C29.1648 346.561 27.1313 346.713 25.4383 348.078C23.7453 349.443 23.3616 352.191 24.1772 353.367C24.9927 354.544 26.6987 353.703 28.3917 352.338C30.0847 350.974 30.7959 348.914 29.9804 347.737Z" fill="#F6ECE0"/>
<path d="M159.78 344.522C160.992 342.774 164.015 343 166.531 345.029C169.047 347.057 169.618 351.142 168.405 352.89C167.193 354.639 164.658 353.389 162.141 351.361C159.625 349.332 158.568 346.271 159.78 344.522Z" fill="#E6D2BA"/>
<path d="M159.837 344.495C160.743 343.188 163.002 343.358 164.882 344.874C166.763 346.39 167.189 349.443 166.283 350.75C165.377 352.057 163.482 351.123 161.602 349.607C159.721 348.09 158.931 345.802 159.837 344.495Z" fill="#F6ECE0"/>
<path d="M93.9939 499.872L93.2992 505.75L96.3771 506.226L96.4199 499.237C97.4533 482.827 116.575 469.751 126.006 465.264L186.809 431.398C173.098 429.688 143.31 427.224 133.849 431.04C124.388 434.855 113.932 445.113 109.886 449.765C96.5843 464.705 93.7489 489.395 93.9939 499.872Z" fill="#75A142"/>
<path d="M153.859 497.695C127.25 489.847 108.88 515.967 103.022 530.007L107.96 539.816C116.385 530.728 125.971 530.007 134.396 531.883C142.82 533.758 153.859 539.816 168.384 541.403C195.11 543.596 212.54 542.317 217.914 541.403C207.65 530.103 180.469 505.542 153.859 497.695Z" fill="#97C65F"/>
<path d="M-64.5336 440.84C-0.779617 470.854 68.7357 453.346 94.2833 440.84C91.2334 466.18 112.089 517.229 123.095 526.454C131.9 533.835 127.383 541.585 124.023 544.537C116.386 546.997 113.946 549.416 113.681 550.318C105.592 565.449 86.8954 575.781 69.127 569.016C54.9123 563.603 42.0767 565.038 37.4357 566.433C10.6505 577.749 -11.4937 572.091 -18.3889 569.016C-25.2841 565.941 -39.4723 555.116 -61.3512 559.298C-83.2302 563.48 -97.0206 548.719 -93.7056 542.692C-91.0536 537.87 -79.3406 519.689 -73.8156 511.201C-64.3745 503.427 -63.6938 461.054 -64.5336 440.84Z" fill="#5B4739"/>
<path d="M-64.6392 441.824C12.8107 464.173 72.0968 453.638 91.7976 443.546C96.1857 472.344 86.861 502.741 84.6669 508.402C82.9117 512.931 77.8105 516.443 75.4793 517.632C74.6566 518.371 65.469 516.032 60.6695 511.233C55.87 506.433 58.0641 507.664 43.1171 482.312C31.1596 462.031 26.4332 475.174 25.5647 484.281L23.5078 520.463C22.3651 529.611 18.4889 549.507 12.1262 555.906C5.76347 562.306 3.98994 568.09 3.89852 570.182C-1.86086 570.879 -15.2171 570.773 -22.5672 564.767C-29.9172 558.761 -46.3817 555.783 -53.6952 555.045C-56.3007 547.291 -54.4858 535.027 -52.4611 532.031C-50.43 529.026 -47.3874 519.355 -46.2903 514.186C-44.8642 498.335 -45.6961 479.359 -46.2903 471.851C-47.2045 470.457 -49.17 469.021 -49.7185 474.436C-49.6088 489.401 -56.6206 505.777 -60.1402 512.094C-76.0471 531.883 -79.4488 551.407 -78.946 557.929C-86.1223 556.74 -98.5843 547.844 -94.8336 543.23C-89.2401 536.35 -81.823 521.239 -79.0805 517.588C-62.1323 502.214 -63.9079 456.961 -64.6392 441.824Z" fill="#695546"/>
<path d="M67.0143 470.575C67.5588 470.476 70.0546 459.382 71.2344 453.848L63.4749 455.078C63.611 456.922 63.8833 469.468 64.8362 470.575C65.5985 471.46 66.6059 470.944 67.0143 470.575Z" fill="#AD7D5E" stroke="#AD7D5E" stroke-width="1.2361"/>
<path d="M-64.7646 440.441C-64.7646 450.359 -47.6121 457.045 15.5985 458.152C78.8092 459.259 94.5537 446.96 94.5547 438.719C94.5558 429.618 72.1058 420.763 28.3492 420.763C-24.1975 419.533 -64.7646 430.524 -64.7646 440.441Z" fill="#AD7D5E"/>
<ellipse cx="14.1159" cy="438.119" rx="21.1194" ry="79.112" transform="rotate(-90 14.1159 438.119)" fill="#AD7D5E"/>
<path d="M13.4699 422.903C30.8671 422.903 46.5849 424.786 57.9254 427.814C63.6024 429.329 68.1304 431.118 71.2174 433.066C74.3502 435.044 75.7564 437.024 75.7564 438.858C75.7564 440.692 74.3502 442.672 71.2174 444.649C68.1304 446.598 63.6024 448.386 57.9254 449.902C46.5849 452.929 30.8671 454.813 13.4699 454.813C-3.92726 454.813 -19.645 452.929 -30.9855 449.902C-36.6625 448.386 -41.1905 446.598 -44.2776 444.649C-47.4103 442.672 -48.8165 440.692 -48.8165 438.858C-48.8165 437.024 -47.4103 435.044 -44.2776 433.066C-41.1905 431.118 -36.6625 429.329 -30.9855 427.814C-19.645 424.786 -3.92726 422.903 13.4699 422.903Z" fill="#AD7D5E" stroke="#715D4E" stroke-width="1.83575"/>
<path d="M11.7003 429.544C22.8109 429.544 32.8535 430.746 40.1045 432.682C43.7333 433.651 46.6369 434.796 48.6224 436.05C50.6308 437.317 51.5783 438.614 51.5783 439.853C51.5783 441.092 50.6308 442.389 48.6224 443.656C46.6369 444.909 43.7333 446.055 40.1045 447.024C32.8535 448.959 22.8109 450.162 11.7003 450.162C0.589619 450.162 -9.45296 448.959 -16.7039 447.024C-20.3327 446.055 -23.2363 444.909 -25.2219 443.656C-27.2303 442.389 -28.1778 441.092 -28.1778 439.853C-28.1778 438.614 -27.2303 437.317 -25.2219 436.05C-23.2363 434.796 -20.3327 433.651 -16.7039 432.682C-9.45296 430.746 0.589619 429.544 11.7003 429.544Z" fill="#AD7D5E" stroke="#715D4E" stroke-width="0.917875"/>
<defs>
<linearGradient id="paint0_linear_1261_4007" x1="-23.1839" y1="137.285" x2="-23.1839" y2="440.65" gradientUnits="userSpaceOnUse">
<stop stop-color="#E8D9C6"/>
<stop offset="1" stop-color="#E8D9C6"/>
</linearGradient>
</defs>
</svg>
