<svg width="204" height="543" viewBox="0 0 204 543" fill="none" xmlns="http://www.w3.org/2000/svg">
<path d="M64.5543 47.5459C24.3049 247.058 101.649 383.089 145.352 426.166L178.08 369.471C172.759 319.163 159.501 275.688 153.397 260.398C147.579 241.837 131.494 199.714 114.83 178.441C98.1653 157.168 74.3693 82.3139 64.5543 47.5459Z" fill="#97C65F"/>
<path d="M52.9593 146.258C24.8715 163.501 26.0636 172.647 26.5664 176.381C28.8671 193.448 59.1659 202.543 73.4169 206.821L73.8523 206.951C146.493 228.765 288.558 198.195 317.614 192.482C346.67 186.769 366.278 177.548 379.359 170.149C387.818 165.364 393.188 158.178 393.834 155.495C394.721 149.349 392.337 139.35 379.359 133.533C361.15 127.093 347.881 114.403 343.523 108.863L288.558 51.2129C280.244 43.4224 260.131 26.0754 246.184 19.0119C197.176 -7.16441 155.706 8.10509 141.097 19.0119C132.219 25.1578 116.591 40.9421 101.407 69.7334C90.9953 93.1051 73.7831 122.367 52.9593 146.258Z" fill="#C16134" stroke="#C16134" stroke-width="1.01447"/>
<path d="M348.007 150.527C206.019 96.1835 104.177 145.019 71.0039 176.23C98.5106 199.31 155.59 200.534 180.692 198.261C184.566 215.885 174.396 243.721 168.827 255.436C139.446 323.44 135.539 382.742 145.947 394.814C158.079 408.886 196.179 409.267 214.097 398.251C249.545 377.899 240.418 253.95 234.446 188.032C303.019 179.639 338.726 159.531 348.007 150.527Z" fill="url(#paint0_linear_1261_4079)" stroke="#E8D9C6" stroke-width="1.01447"/>
<path d="M186.92 262.977C173.947 308.556 151.344 395.785 171.032 403.87" stroke="#C5A687" stroke-opacity="0.5" stroke-width="4.05788" stroke-linecap="round"/>
<path d="M221.621 260.609C221.62 300.082 218.588 395.323 201.528 402.53" stroke="#C5A687" stroke-opacity="0.5" stroke-width="4.05788" stroke-linecap="round"/>
<path fill-rule="evenodd" clip-rule="evenodd" d="M217.896 82.3622C260.36 103.201 319.056 110.123 326.627 91.817C326.692 91.6585 326.754 91.4983 326.812 91.3366L288.558 51.2129C280.244 43.4224 260.131 26.0754 246.184 19.0119C208.117 -1.32032 174.598 3.35283 154.683 11.5642C147.226 29.8823 175.493 61.5538 217.896 82.3622Z" fill="#DC7747" fill-opacity="0.7"/>
<path d="M105.881 100.138C110.127 108.149 105.368 119.801 95.2521 126.163C85.1359 132.525 73.9604 135.962 69.7144 127.951C65.4683 119.94 69.7597 103.514 79.8758 97.1518C89.992 90.7896 101.635 92.1264 105.881 100.138Z" fill="#E6D2BA"/>
<path d="M105.093 98.8957C108.187 104.734 104.719 113.226 97.3466 117.862C89.9741 122.499 81.8296 125.004 78.7352 119.166C75.6407 113.327 78.7682 101.356 86.1406 96.7197C93.5131 92.0831 101.998 93.0573 105.093 98.8957Z" fill="#F6ECE0"/>
<path d="M190.287 65.9204C190.437 53.9908 179.231 44.151 165.259 43.9424C151.286 43.7339 138.969 59.4172 138.819 71.3468C138.669 83.2763 150.743 86.9347 164.715 87.1432C178.688 87.3518 190.137 77.85 190.287 65.9204Z" fill="#E6D2BA"/>
<path d="M188.645 60.8182C188.748 52.6232 180.926 45.862 171.173 45.7164C161.421 45.5709 152.826 56.3424 152.723 64.5373C152.62 72.7322 161.048 75.2473 170.8 75.3928C180.552 75.5384 188.542 69.0131 188.645 60.8182Z" fill="#F6ECE0"/>
<path d="M126.974 38.5032C124.257 34.5437 117.482 35.0576 111.841 39.651C106.2 44.2444 104.922 53.4933 107.639 57.4527C110.356 61.4122 116.04 58.5828 121.681 53.9894C127.322 49.3961 129.692 42.4626 126.974 38.5032Z" fill="#E6D2BA"/>
<path d="M126.852 38.4614C124.993 35.753 120.365 36.0995 116.514 39.2353C112.663 42.3711 111.796 48.6922 113.654 51.4006C115.513 54.1089 119.394 52.1789 123.245 49.0431C127.096 45.9073 128.711 41.1697 126.852 38.4614Z" fill="#F6ECE0"/>
<path d="M54.4473 147.545C51.9989 143.977 45.8939 144.44 40.8114 148.579C35.7289 152.718 34.577 161.051 37.0254 164.619C39.4738 168.187 44.5953 165.637 49.6778 161.498C54.7603 157.36 56.8956 151.112 54.4473 147.545Z" fill="#E6D2BA"/>
<path d="M54.6801 147.58C53.0328 145.18 48.9253 145.491 45.5057 148.276C42.0861 151.061 41.3111 156.668 42.9584 159.068C44.6057 161.468 48.0515 159.753 51.4711 156.968C54.8907 154.184 56.3274 149.98 54.6801 147.58Z" fill="#F6ECE0"/>
<path d="M164.508 262.577C127.661 359.79 138.501 392.81 150.424 398.252C154.535 401.361 154.769 401.102 152.11 398.252C139.543 383.481 149.457 333.469 162.025 302.891C172.079 278.429 218.687 260.946 239.794 255.332C239.794 239.246 237.189 205.63 235.739 190.687C276.536 188.199 332.893 166.257 348.233 150.78C343.293 146.997 338.407 144.976 327.58 148.707C304.185 158.865 295.597 153.285 294.227 149.226C293.744 148.189 293.26 145.235 295.194 141.711C297.127 138.186 296.322 130.584 295.194 129.72C293.824 128.77 289.538 132.693 287.218 136.01C281.611 144.924 267.319 151.471 260.874 153.631C254.752 154.84 242.216 156.844 241.056 155.186C239.896 153.527 241.217 151.558 242.023 150.78C246.534 143.956 253.769 129.635 246.615 126.94C239.461 124.245 237.091 120.94 235.739 134.714C235.095 141.279 229.31 156.015 211.329 162.441C188.852 170.474 171.209 160.109 167.825 157.777C159.898 152.594 153.197 138.398 151.666 134.252C149.33 133.388 140.932 132.278 139.966 136.01C138.612 143.473 148.249 153.026 150.666 154.408C153.324 156.74 157.82 161.612 154.533 162.441C129.639 169.956 110.304 151.299 108.612 150.521C97.7847 145.96 98.3003 152.421 99.9115 156.222L116.588 171.252C112.64 172.893 103.824 176.17 99.9115 175.603C89.0038 175.603 78.1421 168.926 75.4836 170.222C72.825 171.517 66.9028 176.17 74.051 181.617C110.207 204.628 159.581 203.306 180.527 199.678C177.143 235.956 177.317 232.259 164.508 262.577Z" fill="#B49678"/>
<path d="M214.299 115.027C129.511 116.325 82.511 155.114 69.5508 176.48C105.34 139.941 179.4 129.768 214.299 127.692C249.198 125.616 316.341 139.716 348.976 150.788C296.885 115.288 241.234 115.027 214.299 115.027Z" fill="#9C5C3F"/>
<path d="M168.468 347.33C182.243 355.093 181.658 359.21 181.412 360.892C180.283 368.575 165.424 372.67 158.436 374.596L158.222 374.655C122.598 384.475 52.9267 370.712 38.677 368.14C24.4273 365.568 14.8113 361.417 8.39635 358.086C4.24776 355.931 1.61427 352.696 1.29761 351.488C0.862198 348.721 2.03148 344.22 8.39635 341.601C17.3262 338.701 23.8335 332.988 25.971 330.494L52.9267 304.539C57.0037 301.032 66.8677 293.222 73.7076 290.042C97.7421 278.257 118.08 285.132 125.244 290.042C129.598 292.809 137.262 299.915 144.709 312.878C149.815 323.4 158.256 336.574 168.468 347.33Z" fill="#BC643A" stroke="#C96F44" stroke-width="0.80166"/>
<path d="M23.7699 349.256C93.4035 324.79 143.349 346.776 159.617 360.827C146.127 371.218 118.135 371.769 105.824 370.746C103.925 378.681 108.912 391.213 111.643 396.487C127.318 426.833 128.622 453.752 123.518 459.187C117.568 465.522 98.2293 465.743 89.442 460.784C72.0573 451.621 76.5334 395.818 79.4625 366.141C45.8332 362.362 28.3219 353.31 23.7699 349.256Z" fill="#E8D9C6" stroke="#E8D9C6" stroke-width="0.80166"/>
<path d="M105.624 371.26C107.315 387.625 107.315 385.872 113.716 399.548C70.5049 411.184 87.3281 453.38 86.5007 457.793C86.091 459.978 69.4862 436.891 76.1513 396.016C76.1513 389.121 78.0839 374.027 78.8086 367.286C58.4196 366.164 36.0996 356.571 27.8054 352.44C19.007 348.349 29.3356 346.016 32.9091 348.349C44.6014 352.931 49.5633 351.115 50.2478 349.284C50.4894 348.817 50.7178 346.102 49.0947 345.193C42.597 341.553 49.0142 342.426 49.5779 342.037C50.2624 341.608 51.9212 341.125 53.0807 342.621C55.883 346.642 63.0256 349.596 66.2467 350.57C69.3066 351.115 75.5715 352.019 76.1513 351.271C76.7311 350.523 76.0708 349.635 75.6681 349.284C73.4134 346.206 68.2222 338.688 71.7975 337.472C75.3729 336.257 77.4081 336.58 78.8086 342.037C79.1307 344.998 82.0216 351.645 91.0082 354.544C102.242 358.168 111.059 353.492 112.75 352.44C116.712 350.102 118.628 344.491 119.393 342.621C118.79 340.14 124.105 340.938 124.588 342.621C125.264 345.988 122.534 350.297 121.326 350.921C119.997 351.973 117.751 354.17 119.393 354.544C131.835 357.934 141.498 349.518 142.343 349.167C147.755 347.11 147.497 350.024 146.692 351.739L138.357 358.519C140.33 359.259 144.759 361.334 146.692 360.68C151.238 360.68 157.031 357.247 158.046 358.285C159.017 359.277 161.211 360.605 159.399 362.593C141.329 372.973 116.092 372.897 105.624 371.26Z" fill="#C5A687" stroke="#C5A687" stroke-width="0.80166"/>
<path d="M89.3411 334.53C130.922 335.114 153.972 351.315 160.328 360.934C142.777 344.484 106.456 339.904 89.3411 338.969C72.2261 338.035 39.2979 344.383 23.2933 349.368C48.8394 333.385 76.1315 334.53 89.3411 334.53Z" fill="#A46C53" stroke="#A46C53" stroke-width="0.80166"/>
<path d="M102.776 399.875C109.138 420.395 120.223 459.667 110.568 463.307" stroke="#C5A687" stroke-opacity="0.5" stroke-width="3.20664" stroke-linecap="round"/>
<path d="M85.7539 398.812C85.7544 416.583 87.2415 459.462 95.6078 462.706" stroke="#C5A687" stroke-opacity="0.5" stroke-width="3.20664" stroke-linecap="round"/>
<path fill-rule="evenodd" clip-rule="evenodd" d="M79.923 286.831C101.201 278.909 118.71 285.026 125.248 289.507C129.603 292.274 137.267 299.38 144.713 312.342C147.993 319.101 152.648 326.954 158.266 334.557C149.458 338.604 123.665 330.05 106.564 317.049C90.8084 305.071 79.7502 294.302 79.923 286.831Z" fill="#DC7747" fill-opacity="0.7"/>
<path d="M70.1555 294.73C71.4239 296.927 75.2999 297.064 78.8127 295.036C82.3256 293.008 85.2841 290.315 84.0157 288.118C82.7473 285.921 77.7322 285.052 74.2194 287.08C70.7065 289.108 68.8871 292.533 70.1555 294.73Z" fill="#E6D2BA"/>
<path d="M74.3244 292.389C75.396 294.245 78.2066 294.629 80.6022 293.245C82.9978 291.862 84.9459 289.906 83.8744 288.05C82.8028 286.194 79.1174 285.141 76.7218 286.524C74.3263 287.908 73.2529 290.533 74.3244 292.389Z" fill="#F6ECE0"/>
<path d="M90.3517 316.542C90.2781 311.172 95.7735 306.742 102.626 306.648C109.478 306.554 115.519 313.615 115.592 318.985C115.666 324.356 109.745 326.003 102.892 326.097C96.0399 326.191 90.4253 321.913 90.3517 316.542Z" fill="#E6D2BA"/>
<path d="M96.775 314.502C96.7245 310.813 100.561 307.769 105.343 307.703C110.126 307.638 114.341 312.487 114.392 316.176C114.442 319.866 110.309 320.998 105.526 321.064C100.744 321.129 96.8255 318.192 96.775 314.502Z" fill="#F6ECE0"/>
<path d="M38.3126 329.619C36.3493 326.691 37.7857 322.287 41.521 319.782C45.2562 317.277 51.1065 318.998 53.0698 321.926C55.0331 324.854 52.3661 327.879 48.6308 330.384C44.8955 332.889 40.2759 332.547 38.3126 329.619Z" fill="#E6D2BA"/>
<path d="M42.5964 327.005C41.2236 324.958 42.228 321.878 44.8396 320.127C47.4513 318.376 51.5418 319.579 52.9146 321.626C54.2873 323.673 52.4225 325.788 49.8108 327.54C47.1991 329.291 43.9691 329.052 42.5964 327.005Z" fill="#F6ECE0"/>
<path d="M132.168 298.815C133.501 297.032 136.824 297.264 139.59 299.332C142.356 301.4 142.983 305.564 141.651 307.346C140.318 309.129 137.531 307.855 134.764 305.787C131.998 303.719 130.836 300.598 132.168 298.815Z" fill="#E6D2BA"/>
<path d="M134.783 298.795C135.694 297.576 137.964 297.732 139.853 299.144C141.741 300.555 142.167 303.401 141.255 304.621C140.344 305.84 138.44 304.971 136.552 303.559C134.663 302.147 133.871 300.015 134.783 298.795Z" fill="#F6ECE0"/>
<path d="M155.081 333.379C156.282 331.773 159.276 331.981 161.768 333.845C164.261 335.708 164.826 339.46 163.625 341.066C162.424 342.672 159.913 341.525 157.42 339.661C154.927 337.798 153.88 334.985 155.081 333.379Z" fill="#E6D2BA"/>
<path d="M156.752 332.878C157.56 331.797 159.574 331.937 161.251 333.191C162.928 334.445 163.308 336.969 162.5 338.05C161.693 339.13 160.003 338.358 158.326 337.104C156.649 335.851 155.944 333.958 156.752 332.878Z" fill="#F6ECE0"/>
<path d="M28.1768 329.93C26.9761 328.324 23.9821 328.532 21.4896 330.396C18.997 332.259 18.4321 336.011 19.6328 337.617C20.8336 339.223 23.3452 338.075 25.8378 336.212C28.3303 334.349 29.3775 331.536 28.1768 329.93Z" fill="#E6D2BA"/>
<path d="M28.1214 329.903C27.224 328.703 24.9862 328.859 23.1232 330.251C21.2602 331.644 20.838 334.448 21.7355 335.649C22.6329 336.849 24.5102 335.991 26.3732 334.599C28.2362 333.206 29.0189 331.104 28.1214 329.903Z" fill="#F6ECE0"/>
<path d="M102.854 500.779L103.351 504.985L101.149 505.325L101.118 500.325C100.379 488.584 86.6978 479.228 79.9497 476.017L36.4464 451.787C46.2564 450.564 67.5687 448.8 74.3379 451.531C81.1072 454.261 88.5887 461.6 91.4834 464.928C101 475.618 103.029 493.283 102.854 500.779Z" fill="#75A142"/>
<path d="M88.3377 433.691C90.5926 438.006 107.606 454.026 119.844 467.661L114.799 502.159C95.0469 495.494 86.3807 462.413 84.8841 453.201C83.6868 445.832 84.144 437.27 84.5222 433.91C84.0693 431.814 84.7504 431.058 85.1476 430.942C85.4593 430.42 86.5337 430.238 88.3377 433.691Z" fill="#5A7639" stroke="#607B40" stroke-width="1.2361"/>
<path d="M124.78 518.358L128.734 522.586L127.251 525.634L123 519.931C112.481 507.345 93.5711 513.114 85.4312 517.571L29.9675 542.251C36.8222 529.01 52.4694 501.269 60.2204 496.234C67.9715 491.2 80.1913 490.597 85.3323 490.925C102.021 491.711 118.584 509.541 124.78 518.358Z" fill="#97C65F"/>
<path d="M121.427 401.172C185.181 431.186 254.697 413.678 280.244 401.172C277.194 426.512 298.05 477.561 309.056 486.787C317.861 494.167 313.344 501.917 309.984 504.869C302.347 507.329 299.907 509.748 299.642 510.65C291.553 525.781 272.856 536.113 255.088 529.348C240.873 523.935 228.038 525.371 223.397 526.765C196.611 538.082 174.467 532.423 167.572 529.348C160.677 526.273 146.489 515.448 124.61 519.63C102.731 523.812 88.9403 509.051 92.2553 503.024C94.9073 498.202 106.62 480.021 112.145 471.533C121.586 463.759 122.267 421.386 121.427 401.172Z" fill="#5B4739"/>
<path d="M121.322 402.156C198.772 424.505 258.058 413.97 277.759 403.878C282.147 432.676 272.822 463.073 270.628 468.734C268.873 473.263 263.771 476.775 261.44 477.964C260.618 478.703 251.43 476.365 246.63 471.565C241.831 466.765 244.025 467.996 229.078 442.644C217.121 422.363 212.394 435.506 211.526 444.613L209.469 480.795C208.326 489.943 204.45 509.839 198.087 516.238C191.724 522.638 189.951 528.422 189.859 530.514C184.1 531.211 170.744 531.105 163.394 525.099C156.044 519.093 147.302 516.238 139.988 515.5C137.383 507.747 137.646 495.996 139.671 493C141.702 489.995 143.391 479.169 144.488 474C145.914 458.149 140.265 439.691 139.671 432.184C138.756 430.789 136.791 429.353 136.242 434.768C136.352 449.733 129.34 466.109 125.821 472.426C109.914 492.216 106.512 511.739 107.015 518.262C99.8386 517.072 87.3766 508.176 91.1273 503.562C96.7208 496.682 104.138 481.571 106.88 477.92C123.829 462.546 122.053 417.293 121.322 402.156Z" fill="#695546"/>
<path d="M176.059 447.635C177.012 447.143 177.738 423.159 178.918 417.624L162.446 416.395C170.342 427.218 173.2 446.651 174.153 447.758C174.916 448.643 175.651 448.004 176.059 447.635Z" fill="#AD7D5E" stroke="#AD7D5E" stroke-width="1.2361"/>
<path d="M121.196 400.773C121.196 410.691 138.349 417.378 201.559 418.484C264.77 419.591 280.515 407.292 280.516 399.051C280.517 389.95 258.067 381.095 214.31 381.095C161.763 379.865 121.196 390.856 121.196 400.773Z" fill="#AD7D5E"/>
<ellipse cx="201.112" cy="401.119" rx="21.1194" ry="79.112" transform="rotate(-90 201.112 401.119)" fill="#AD7D5E"/>
<path d="M200.466 385.903C217.863 385.903 233.581 387.786 244.921 390.814C250.598 392.329 255.126 394.118 258.214 396.066C261.346 398.044 262.752 400.024 262.752 401.858C262.752 403.692 261.346 405.672 258.214 407.649C255.126 409.598 250.598 411.386 244.921 412.902C233.581 415.929 217.863 417.813 200.466 417.813C183.069 417.813 167.351 415.929 156.011 412.902C150.334 411.386 145.806 409.598 142.719 407.649C139.586 405.672 138.18 403.692 138.18 401.858C138.18 400.024 139.586 398.044 142.719 396.066C145.806 394.118 150.334 392.329 156.011 390.814C167.351 387.786 183.069 385.903 200.466 385.903Z" fill="#AD7D5E" stroke="#695546" stroke-width="1.83575"/>
<path d="M198.696 392.544C209.807 392.544 219.85 393.746 227.101 395.682C230.729 396.651 233.633 397.796 235.619 399.05C237.627 400.317 238.574 401.614 238.574 402.853C238.574 404.092 237.627 405.389 235.619 406.656C233.633 407.909 230.729 409.055 227.101 410.024C219.85 411.959 209.807 413.162 198.696 413.162C187.586 413.162 177.543 411.959 170.292 410.024C166.663 409.055 163.76 407.909 161.774 406.656C159.766 405.389 158.818 404.092 158.818 402.853C158.818 401.614 159.766 400.317 161.774 399.05C163.76 397.796 166.663 396.651 170.292 395.682C177.543 393.746 187.586 392.544 198.696 392.544Z" fill="#AD7D5E" stroke="#695546" stroke-width="0.917875"/>
<defs>
<linearGradient id="paint0_linear_1261_4079" x1="209.506" y1="126.09" x2="209.506" y2="405.995" gradientUnits="userSpaceOnUse">
<stop stop-color="#E8D9C6"/>
<stop offset="1" stop-color="#E8D9C6"/>
</linearGradient>
</defs>
</svg>
