<svg width="398" height="115" viewBox="0 0 398 115" fill="none" xmlns="http://www.w3.org/2000/svg">
<path d="M388.064 57.4818C345.615 42.3374 291.667 30.286 209.057 59.3727C120.45 90.5709 67.9911 78.3922 30.0662 56.2629" stroke="#61934A" stroke-width="3" stroke-linecap="round"/>
<path d="M71.8251 71.8563L75.7941 73.3984C75.8087 69.0907 73.1562 64.9278 71.8281 63.3848C72.6808 70.2097 72.3996 72.0512 71.8251 71.8563L71.7993 71.8463C71.808 71.8501 71.8166 71.8534 71.8251 71.8563Z" fill="#61934A"/>
<path d="M75.7941 73.3984L71.7993 71.8463C72.3911 72.1047 72.6935 70.3109 71.8281 63.3848C73.1562 64.9278 75.8087 69.0907 75.7941 73.3984Z" stroke="#61934A" stroke-width="1.15385" stroke-linecap="round"/>
<path d="M168.081 70.857L172.14 69.5706C169.452 66.2051 164.775 64.6243 162.773 64.2546C167.716 69.0377 168.651 70.6487 168.081 70.857L168.055 70.8653C168.064 70.8629 168.073 70.8601 168.081 70.857Z" fill="#61934A"/>
<path d="M172.14 69.5706L168.055 70.8653C168.678 70.6958 167.789 69.1086 162.773 64.2546C164.775 64.6243 169.452 66.2051 172.14 69.5706Z" stroke="#61934A" stroke-width="1.15385" stroke-linecap="round"/>
<path d="M30.1938 57.0907C31.2653 53.9159 30.9574 47.0572 21.1534 45.0209C11.6871 43.0548 9.03292 40.8798 8.84049 39.9441C8.83665 39.9123 8.83285 39.8805 8.8291 39.8488C8.8299 39.8789 8.83363 39.9107 8.84049 39.9441C10.0453 49.9255 15.9756 67.184 30.1938 57.0907Z" fill="#61934A" stroke="#61934A" stroke-width="0.337854"/>
<path d="M12.0899 45.6967C13.0763 49.7001 17.3494 57.6147 26.5507 57.246C22.5456 58.7324 14.0463 58.5035 12.0899 45.6967Z" fill="#7AB55E"/>
<path d="M73.5276 64.4743C71.0465 65.9203 65.2351 66.8422 61.8381 58.9612C58.5582 51.3518 56.2754 49.4976 55.4566 49.4971C55.4292 49.4994 55.4019 49.5017 55.3746 49.504C55.4001 49.4994 55.4274 49.4971 55.4566 49.4971C64.0443 48.7909 79.555 50.7997 73.5276 64.4743Z" fill="#61934A" stroke="#61934A" stroke-width="0.289558"/>
<path d="M60.8459 51.2368C64.3769 51.376 71.7573 53.6015 73.0313 61.3903C73.59 57.7719 71.9351 50.6754 60.8459 51.2368Z" fill="#7AB55E"/>
<path d="M113.946 77.9332L118.143 78.6492C115.943 82.3525 111.529 84.5613 109.596 85.2028C113.834 79.7855 114.539 78.0611 113.946 77.9332L113.919 77.9285C113.928 77.9297 113.937 77.9313 113.946 77.9332Z" fill="#61934A"/>
<path d="M118.143 78.6492L113.919 77.9285C114.559 78.0108 113.897 79.7052 109.596 85.2028C111.529 84.5613 115.943 82.3525 118.143 78.6492Z" stroke="#61934A" stroke-width="1.15385" stroke-linecap="round"/>
<path d="M111.624 85.1244C110.238 82.6092 105.726 78.8327 98.7626 83.849C92.0394 88.6925 89.1282 89.1104 88.4255 88.6903C88.4032 88.6743 88.3809 88.6582 88.3587 88.6423C88.3782 88.6592 88.4005 88.6753 88.4255 88.6903C95.4304 93.708 109.77 99.953 111.624 85.1244Z" fill="#61934A" stroke="#61934A" stroke-width="0.289558"/>
<path d="M93.9408 89.9661C97.0417 91.6607 104.517 93.5429 109.611 87.515C108.232 90.9065 103.166 96.1447 93.9408 89.9661Z" fill="#7AB55E"/>
<path d="M224.852 54.5006L228.513 54.0627C227.087 58.2929 223.596 61.6587 222.028 62.8128C224.981 56.3479 225.373 54.465 224.852 54.5006L224.829 54.5035C224.837 54.5021 224.845 54.5012 224.852 54.5006Z" fill="#61934A"/>
<path d="M228.513 54.0627L224.829 54.5035C225.384 54.4102 225.025 56.252 222.028 62.8128C223.596 61.6587 227.087 58.2929 228.513 54.0627Z" stroke="#61934A" stroke-width="1.15385" stroke-linecap="round"/>
<path d="M224.408 61.1401C222.305 59.1842 216.838 57.008 211.793 63.95C206.921 70.6529 204.287 71.9601 203.488 71.7808C203.462 71.7725 203.435 71.7643 203.409 71.7561C203.433 71.7661 203.459 71.7744 203.488 71.7808C211.71 74.3566 227.283 75.8048 224.408 61.1401Z" fill="#61934A" stroke="#61934A" stroke-width="0.289558"/>
<path d="M209.126 71.2679C212.601 71.9079 220.29 71.3584 223.244 64.0398C222.994 67.6926 219.82 74.2521 209.126 71.2679Z" fill="#7AB55E"/>
<path d="M282.648 43.343L286.089 42.7652C284.607 47.1622 281.222 50.743 279.714 51.9838C282.704 45.2368 283.136 43.2882 282.648 43.343L282.625 43.3467C282.633 43.345 282.64 43.3438 282.648 43.343Z" fill="#61934A"/>
<path d="M286.089 42.7652L282.625 43.3467C283.148 43.2315 282.748 45.1368 279.714 51.9838C281.222 50.743 284.607 47.1622 286.089 42.7652Z" stroke="#61934A" stroke-width="1.15385" stroke-linecap="round"/>
<path d="M281.91 50.0592C279.758 48.1576 274.237 46.1215 269.37 53.19C264.671 60.0149 262.071 61.3889 261.268 61.23C261.241 61.2224 261.215 61.2149 261.189 61.2073C261.213 61.2167 261.239 61.2243 261.268 61.23C269.554 63.5953 285.158 64.6457 281.91 50.0592Z" fill="#61934A" stroke="#61934A" stroke-width="0.289558"/>
<path d="M266.892 60.5752C270.383 61.1264 278.055 60.3809 280.822 52.9894C280.665 56.6473 277.66 63.2856 266.892 60.5752Z" fill="#7AB55E"/>
<path d="M368.494 51.8163L371.794 53.1434C367.828 56.2384 362.733 57.5954 360.681 57.887C367.38 53.5202 368.946 52.0287 368.494 51.8163L368.473 51.8077C368.48 51.8103 368.488 51.8131 368.494 51.8163Z" fill="#61934A"/>
<path d="M371.794 53.1434L368.473 51.8077C368.991 51.9851 367.479 53.4555 360.681 57.887C362.733 57.5954 367.828 56.2384 371.794 53.1434Z" stroke="#61934A" stroke-width="1.15385" stroke-linecap="round"/>
<path d="M364.053 56.8321C362.914 54.1958 358.784 50.005 351.373 54.3322C344.217 58.5103 341.279 58.6479 340.62 58.1624C340.599 58.1443 340.578 58.1263 340.558 58.1082C340.576 58.127 340.596 58.1451 340.62 58.1624C347.113 63.8272 360.789 71.4153 364.053 56.8321Z" fill="#61934A" stroke="#61934A" stroke-width="0.289558"/>
<path d="M345.988 59.9619C348.913 61.9453 356.174 64.534 361.822 59.0211C360.124 62.2651 354.581 66.9947 345.988 59.9619Z" fill="#7AB55E"/>
<path d="M166.478 65.3409C164.733 67.6224 159.71 70.6867 153.57 64.6917C147.64 58.9032 144.824 58.0575 144.066 58.3686C144.042 58.3811 144.017 58.3936 143.993 58.4061C144.015 58.3923 144.039 58.3797 144.066 58.3686C151.739 54.4471 166.847 50.4015 166.478 65.3409Z" fill="#61934A" stroke="#61934A" stroke-width="0.289558"/>
<path d="M149.715 57.9226C153.034 56.7074 160.706 55.9565 164.848 62.6743C163.988 59.1155 159.756 53.1829 149.715 57.9226Z" fill="#7AB55E"/>
<path d="M253.341 46.4654L256.96 45.8301C253.859 41.949 249.179 39.5568 247.226 38.8459C252.692 44.5488 253.844 46.348 253.341 46.4654L253.317 46.4696C253.325 46.4685 253.333 46.4672 253.341 46.4654Z" fill="#61934A"/>
<path d="M256.96 45.8301L253.317 46.4696C253.877 46.4005 252.773 44.6333 247.226 38.8459C249.179 39.5568 253.859 41.949 256.96 45.8301Z" stroke="#61934A" stroke-width="1.15385" stroke-linecap="round"/>
<path d="M249.739 40.7027C247.994 42.9837 242.97 46.0467 236.831 40.0501C230.904 34.26 228.087 33.4135 227.33 33.7244C227.305 33.7369 227.281 33.7494 227.256 33.762C227.278 33.7481 227.303 33.7355 227.33 33.7244C235.003 29.805 250.112 25.7634 249.739 40.7027Z" fill="#61934A" stroke="#61934A" stroke-width="0.289558"/>
<path d="M232.976 33.2801C236.294 32.0658 243.967 31.317 248.107 38.0358C247.248 34.4768 243.018 28.5431 232.976 33.2801Z" fill="#7AB55E"/>
<path d="M336.193 43.5606L340.12 42.8673C335.358 38.2785 329.266 35.4114 326.814 34.5515C334.848 41.3068 336.73 43.4301 336.193 43.5606L336.167 43.5651C336.176 43.564 336.185 43.5625 336.193 43.5606Z" fill="#61934A"/>
<path d="M340.12 42.8673L336.167 43.5651C336.784 43.492 334.967 41.407 326.814 34.5515C329.266 35.4114 335.358 38.2785 340.12 42.8673Z" stroke="#61934A" stroke-width="1.15385" stroke-linecap="round"/>
<path d="M328.751 34.7826C326.965 37.0311 321.885 40.0008 315.858 33.8918C310.038 27.9933 307.238 27.095 306.475 27.3918C306.45 27.4039 306.425 27.416 306.401 27.428C306.423 27.4146 306.448 27.4024 306.475 27.3918C314.219 23.6147 329.401 19.8528 328.751 34.7826Z" fill="#61934A" stroke="#61934A" stroke-width="0.289558"/>
<path d="M312.128 27.0554C315.468 25.9026 323.153 25.2956 327.169 32.0897C326.375 28.5155 322.256 22.5047 312.128 27.0554Z" fill="#7AB55E"/>
<path d="M378.909 43.4716C382.208 43.9948 388.887 46.9042 389.217 54.3562C390.144 51.0221 389.379 44.1775 378.909 43.4716Z" fill="#7AB55E"/>
<path d="M389.342 57.3089C386.853 58.3903 381.296 58.6094 378.984 50.8349C376.752 43.3283 374.815 41.3342 374.047 41.2427C374.021 41.2418 373.995 41.2409 373.969 41.24C373.993 41.2386 374.019 41.2394 374.047 41.2427C382.185 41.5346 396.52 45.1445 389.342 57.3089Z" fill="#61934A" stroke="#61934A" stroke-width="0.27367"/>
</svg>
