<svg width="151" height="170" viewBox="0 0 151 170" fill="none" xmlns="http://www.w3.org/2000/svg">
<path d="M19.255 23.3984C17.2349 30.8184 -3.59778 61.2872 -17.8698 86.4611L1.57722 137.981C29.7986 121.019 31.9851 67.0512 31.1797 52.3328C30.5354 40.558 26.9353 27.5024 25.2158 22.4464C25.206 19.0596 23.8996 18.1235 23.2476 18.0788C22.5901 17.3787 20.8711 17.4625 19.255 23.3984Z" fill="#517B37" stroke="#607B40" stroke-opacity="0.5" stroke-width="0.301628"/>
<path d="M-4.49479 107.492L-10.9566 113.549L-9.01929 118.368L-1.95146 110.085C15.3773 91.9226 43.5506 102.722 55.4712 110.391L137.292 153.941C128.248 132.964 107.344 88.8825 96.0761 80.3706C84.8079 71.8586 66.2741 69.6614 58.4158 69.6268C32.9355 69.0901 5.85861 94.6463 -4.49479 107.492Z" fill="#97C65F"/>
</svg>
