<svg width="398" height="115" viewBox="0 0 398 115" fill="none" xmlns="http://www.w3.org/2000/svg">
<path d="M10.0061 57.4818C52.4548 42.3374 106.403 30.286 189.014 59.3727C277.62 90.5709 330.079 78.3922 368.004 56.2629" stroke="#61934A" stroke-width="3" stroke-linecap="round"/>
<path d="M326.245 71.8563L322.276 73.3984C322.262 69.0907 324.914 64.9278 326.242 63.3848C325.389 70.2097 325.671 72.0512 326.245 71.8563L326.271 71.8463C326.262 71.8501 326.254 71.8534 326.245 71.8563Z" fill="#61934A"/>
<path d="M322.276 73.3984L326.271 71.8463C325.679 72.1047 325.377 70.3109 326.242 63.3848C324.914 64.9278 322.262 69.0907 322.276 73.3984Z" stroke="#61934A" stroke-width="1.15385" stroke-linecap="round"/>
<path d="M229.989 70.857L225.93 69.5706C228.619 66.2051 233.295 64.6243 235.297 64.2546C230.354 69.0377 229.419 70.6487 229.989 70.857L230.015 70.8653C230.006 70.8629 229.998 70.8601 229.989 70.857Z" fill="#61934A"/>
<path d="M225.93 69.5706L230.015 70.8653C229.392 70.6958 230.281 69.1086 235.297 64.2546C233.295 64.6243 228.619 66.2051 225.93 69.5706Z" stroke="#61934A" stroke-width="1.15385" stroke-linecap="round"/>
<path d="M367.877 57.0907C366.805 53.9159 367.113 47.0572 376.917 45.0209C386.383 43.0548 389.037 40.8798 389.23 39.9441C389.234 39.9123 389.237 39.8805 389.241 39.8488C389.24 39.8789 389.237 39.9107 389.23 39.9441C388.025 49.9255 382.095 67.184 367.877 57.0907Z" fill="#61934A" stroke="#61934A" stroke-width="0.337854"/>
<path d="M385.98 45.6967C384.994 49.7001 380.721 57.6147 371.52 57.246C375.525 58.7324 384.024 58.5035 385.98 45.6967Z" fill="#7AB55E"/>
<path d="M324.543 64.4743C327.024 65.9203 332.835 66.8422 336.232 58.9612C339.512 51.3518 341.795 49.4976 342.614 49.4971C342.641 49.4994 342.668 49.5017 342.696 49.504C342.67 49.4994 342.643 49.4971 342.614 49.4971C334.026 48.7909 318.515 50.7997 324.543 64.4743Z" fill="#61934A" stroke="#61934A" stroke-width="0.289558"/>
<path d="M337.224 51.2368C333.693 51.376 326.313 53.6015 325.039 61.3903C324.48 57.7719 326.135 50.6754 337.224 51.2368Z" fill="#7AB55E"/>
<path d="M284.124 77.9332L279.927 78.6492C282.127 82.3525 286.542 84.5613 288.474 85.2028C284.236 79.7855 283.531 78.0611 284.124 77.9332L284.152 77.9285C284.142 77.9297 284.133 77.9313 284.124 77.9332Z" fill="#61934A"/>
<path d="M279.927 78.6492L284.152 77.9285C283.511 78.0108 284.173 79.7052 288.474 85.2028C286.542 84.5613 282.127 82.3525 279.927 78.6492Z" stroke="#61934A" stroke-width="1.15385" stroke-linecap="round"/>
<path d="M286.446 85.1244C287.832 82.6092 292.345 78.8327 299.308 83.849C306.031 88.6925 308.942 89.1104 309.645 88.6903C309.667 88.6743 309.689 88.6582 309.712 88.6423C309.692 88.6592 309.67 88.6753 309.645 88.6903C302.64 93.708 288.3 99.953 286.446 85.1244Z" fill="#61934A" stroke="#61934A" stroke-width="0.289558"/>
<path d="M304.13 89.9661C301.029 91.6607 293.553 93.5429 288.459 87.515C289.838 90.9065 294.904 96.1447 304.13 89.9661Z" fill="#7AB55E"/>
<path d="M173.218 54.5006L169.558 54.0627C170.983 58.2929 174.475 61.6587 176.042 62.8128C173.089 56.3479 172.698 54.465 173.218 54.5006L173.242 54.5035C173.234 54.5021 173.226 54.5012 173.218 54.5006Z" fill="#61934A"/>
<path d="M169.558 54.0627L173.242 54.5035C172.687 54.4102 173.045 56.252 176.042 62.8128C174.475 61.6587 170.983 58.2929 169.558 54.0627Z" stroke="#61934A" stroke-width="1.15385" stroke-linecap="round"/>
<path d="M173.662 61.1401C175.765 59.1842 181.232 57.008 186.278 63.95C191.149 70.6529 193.784 71.9601 194.583 71.7808C194.609 71.7725 194.635 71.7643 194.661 71.7561C194.637 71.7661 194.611 71.7744 194.583 71.7808C186.36 74.3566 170.787 75.8048 173.662 61.1401Z" fill="#61934A" stroke="#61934A" stroke-width="0.289558"/>
<path d="M188.945 71.2679C185.469 71.9079 177.78 71.3584 174.826 64.0398C175.076 67.6926 178.25 74.2521 188.945 71.2679Z" fill="#7AB55E"/>
<path d="M115.423 43.343L111.982 42.7652C113.464 47.1622 116.849 50.743 118.356 51.9838C115.367 45.2368 114.934 43.2882 115.423 43.343L115.445 43.3467C115.437 43.345 115.43 43.3438 115.423 43.343Z" fill="#61934A"/>
<path d="M111.982 42.7652L115.445 43.3467C114.922 43.2315 115.322 45.1368 118.356 51.9838C116.849 50.743 113.464 47.1622 111.982 42.7652Z" stroke="#61934A" stroke-width="1.15385" stroke-linecap="round"/>
<path d="M116.161 50.0592C118.312 48.1576 123.833 46.1215 128.7 53.19C133.399 60.0149 135.999 61.3889 136.802 61.23C136.829 61.2224 136.855 61.2149 136.882 61.2073C136.857 61.2167 136.831 61.2243 136.802 61.23C128.517 63.5953 112.912 64.6457 116.161 50.0592Z" fill="#61934A" stroke="#61934A" stroke-width="0.289558"/>
<path d="M131.178 60.5752C127.688 61.1264 120.015 60.3809 117.248 52.9894C117.405 56.6473 120.411 63.2856 131.178 60.5752Z" fill="#7AB55E"/>
<path d="M29.576 51.8163L26.2761 53.1434C30.2428 56.2384 35.3375 57.5954 37.389 57.887C30.6901 53.5202 29.1244 52.0287 29.576 51.8163L29.5974 51.8077C29.5899 51.8103 29.5827 51.8131 29.576 51.8163Z" fill="#61934A"/>
<path d="M26.2761 53.1434L29.5974 51.8077C29.0792 51.9851 30.5908 53.4555 37.389 57.887C35.3375 57.5954 30.2428 56.2384 26.2761 53.1434Z" stroke="#61934A" stroke-width="1.15385" stroke-linecap="round"/>
<path d="M34.0175 56.8321C35.1563 54.1958 39.2866 50.005 46.6977 54.3322C53.8534 58.5103 56.7912 58.6479 57.4505 58.1624C57.4712 58.1443 57.4918 58.1263 57.5124 58.1082C57.4946 58.127 57.474 58.1451 57.4505 58.1624C50.9577 63.8272 37.2814 71.4153 34.0175 56.8321Z" fill="#61934A" stroke="#61934A" stroke-width="0.289558"/>
<path d="M52.0818 59.9619C49.1573 61.9453 41.8963 64.534 36.2486 59.0211C37.9463 62.2651 43.4898 66.9947 52.0818 59.9619Z" fill="#7AB55E"/>
<path d="M231.593 65.3409C233.337 67.6224 238.36 70.6867 244.501 64.6917C250.43 58.9032 253.247 58.0575 254.004 58.3686C254.029 58.3811 254.053 58.3936 254.077 58.4061C254.055 58.3923 254.031 58.3797 254.004 58.3686C246.331 54.4471 231.223 50.4015 231.593 65.3409Z" fill="#61934A" stroke="#61934A" stroke-width="0.289558"/>
<path d="M248.355 57.9226C245.037 56.7074 237.365 55.9565 233.222 62.6743C234.083 59.1155 238.314 53.1829 248.355 57.9226Z" fill="#7AB55E"/>
<path d="M144.73 46.4654L141.11 45.8301C144.211 41.949 148.891 39.5568 150.844 38.8459C145.378 44.5488 144.226 46.348 144.73 46.4654L144.753 46.4696C144.745 46.4685 144.737 46.4672 144.73 46.4654Z" fill="#61934A"/>
<path d="M141.11 45.8301L144.753 46.4696C144.193 46.4005 145.297 44.6333 150.844 38.8459C148.891 39.5568 144.211 41.949 141.11 45.8301Z" stroke="#61934A" stroke-width="1.15385" stroke-linecap="round"/>
<path d="M148.331 40.7027C150.076 42.9837 155.1 46.0467 161.239 40.0501C167.167 34.26 169.983 33.4135 170.741 33.7244C170.765 33.7369 170.79 33.7494 170.814 33.762C170.792 33.7481 170.768 33.7355 170.741 33.7244C163.067 29.805 147.958 25.7634 148.331 40.7027Z" fill="#61934A" stroke="#61934A" stroke-width="0.289558"/>
<path d="M165.094 33.2801C161.776 32.0658 154.104 31.317 149.963 38.0358C150.823 34.4768 155.052 28.5431 165.094 33.2801Z" fill="#7AB55E"/>
<path d="M61.8777 43.5606L57.9508 42.8673C62.7121 38.2785 68.8047 35.4114 71.2558 34.5515C63.2223 41.3068 61.3406 43.4301 61.8777 43.5606L61.9032 43.5651C61.8942 43.564 61.8857 43.5625 61.8777 43.5606Z" fill="#61934A"/>
<path d="M57.9508 42.8673L61.9032 43.5651C61.2861 43.492 63.1032 41.407 71.2558 34.5515C68.8047 35.4114 62.7121 38.2785 57.9508 42.8673Z" stroke="#61934A" stroke-width="1.15385" stroke-linecap="round"/>
<path d="M69.3189 34.7826C71.1053 37.0311 76.1851 40.0008 82.2124 33.8918C88.0321 27.9933 90.8325 27.095 91.5955 27.3918C91.6203 27.4039 91.6449 27.416 91.6695 27.428C91.6474 27.4146 91.6228 27.4024 91.5955 27.3918C83.8509 23.6147 68.6698 19.8528 69.3189 34.7826Z" fill="#61934A" stroke="#61934A" stroke-width="0.289558"/>
<path d="M85.9424 27.0554C82.602 25.9026 74.9173 25.2956 70.9013 32.0897C71.6951 28.5155 75.8145 22.5047 85.9424 27.0554Z" fill="#7AB55E"/>
<path d="M19.1613 43.4716C15.8627 43.9948 9.18312 46.9042 8.8533 54.3562C7.92666 51.0221 8.69097 44.1775 19.1613 43.4716Z" fill="#7AB55E"/>
<path d="M8.72789 57.3089C11.2174 58.3903 16.7743 58.6094 19.0864 50.8349C21.3188 43.3283 23.2553 41.3342 24.0237 41.2427C24.0497 41.2418 24.0756 41.2409 24.1014 41.24C24.077 41.2386 24.0511 41.2394 24.0237 41.2427C15.8851 41.5346 1.55049 45.1445 8.72789 57.3089Z" fill="#61934A" stroke="#61934A" stroke-width="0.27367"/>
</svg>
