<svg width="227" height="190" viewBox="0 0 227 190" fill="none" xmlns="http://www.w3.org/2000/svg">
<path d="M61.3104 111.379C62.0284 114.969 70.9314 130.119 76.8906 142.54L65.9773 166.377C53.1255 157.402 53.8434 131.698 54.705 124.734C55.3943 119.162 57.5291 113.079 58.5103 110.733C58.6252 109.125 59.2762 108.723 59.5873 108.723C59.9224 108.412 60.7361 108.507 61.3104 111.379Z" fill="#80A257" stroke="#607B40" stroke-width="0.210299"/>
<path d="M69.8546 152.093L72.7266 155.18L71.6496 157.406L68.5623 153.242C60.923 144.052 47.1904 148.264 41.279 151.519L1.00031 169.54C5.97831 159.871 17.3415 139.615 22.9705 135.938C28.5995 132.262 37.4737 131.822 41.2072 132.061C53.3267 132.636 65.3553 145.655 69.8546 152.093Z" fill="#678D3A" stroke="#678D3A" stroke-width="0.210299"/>
<path d="M48.4955 97.6124L49.3471 98.9944L48.7727 99.7535L47.921 97.9487C45.7297 93.9033 40.2277 94.4584 37.7506 95.2416L21.1858 99.0091C23.7939 95.734 29.6108 88.9431 32.013 87.9795C34.4152 87.016 37.7987 87.5187 39.1902 87.8904C43.7224 89.0208 47.2822 94.8427 48.4955 97.6124Z" fill="#678D3A" stroke="#678D3A" stroke-width="0.0809612"/>
<path d="M191.559 98.3652C193.892 143.149 168.147 168.831 154.982 176.074L148.765 162.362C152.213 151.786 157.451 143.047 159.669 140.041C161.947 136.317 167.867 128.001 173.085 124.196C178.303 120.391 187.575 105.39 191.559 98.3652Z" fill="#80A257" stroke="#5A7639" stroke-width="0.210299"/>
<path d="M195.571 133.014C182.418 129.108 173.338 142.108 170.442 149.097L172.883 153.979C177.048 149.456 181.786 149.097 185.951 150.03C190.115 150.963 195.571 153.979 202.751 154.769C215.962 155.86 224.578 155.223 227.234 154.769C222.161 149.145 208.725 136.92 195.571 133.014Z" fill="#678D3A" stroke="#678D3A" stroke-width="0.210299"/>
<path d="M76.2976 112.191C110.832 129.713 148.488 119.492 162.327 112.191C160.675 126.984 171.972 156.784 177.934 162.17C182.703 166.478 180.256 171.002 178.437 172.725C174.299 174.162 172.978 175.574 172.834 176.1C168.453 184.933 158.325 190.965 148.7 187.015C141 183.856 134.047 184.693 131.533 185.507C117.024 192.113 105.029 188.81 101.294 187.015C97.5586 185.22 89.8731 178.901 78.0215 181.342C66.1699 183.784 58.6998 175.167 60.4955 171.648C61.9321 168.833 68.2769 158.22 71.2697 153.265C76.3838 148.727 76.7525 123.992 76.2976 112.191Z" fill="#483026" stroke="#574139" stroke-width="0.210299"/>
<path d="M76.2415 112.766C118.195 125.812 150.31 119.662 160.981 113.771C163.358 130.582 158.307 148.326 157.119 151.631C156.168 154.275 153.405 156.325 152.142 157.019C151.696 157.45 146.719 156.085 144.12 153.283C141.52 150.482 142.708 151.2 134.612 136.401C128.134 124.561 125.574 132.234 125.104 137.55L123.99 158.672C123.371 164.012 121.271 175.626 117.824 179.362C114.378 183.098 113.417 186.474 113.368 187.695C110.248 188.103 103.013 188.04 99.0314 184.534C95.0499 181.029 86.1313 179.29 82.1697 178.859C80.7584 174.333 81.7415 167.173 82.8382 165.425C83.9384 163.67 85.5866 158.025 86.1808 155.008C86.9534 145.755 86.5027 134.677 86.1808 130.294C85.6856 129.48 84.621 128.642 84.3238 131.803C84.3833 140.539 80.5851 150.099 78.6785 153.786C70.062 165.338 68.2193 176.735 68.4917 180.543C64.6043 179.849 57.8538 174.656 59.8856 171.962C62.9155 167.946 66.9332 159.125 68.4188 156.993C77.5995 148.018 76.6377 121.602 76.2415 112.766Z" fill="#6C4C43" stroke="#6C4C43" stroke-width="0.210299"/>
<path d="M147.546 129.55C147.841 129.492 149.193 123.016 149.832 119.785L145.629 120.503C145.703 121.58 145.85 128.904 146.366 129.55C146.779 130.067 147.325 129.765 147.546 129.55Z" fill="#CF9F81" stroke="#CF9F81" stroke-width="0.210299"/>
<path d="M105.881 139.315C106.397 139.028 106.791 125.027 107.43 121.796L98.5071 121.078C102.784 127.396 104.333 138.74 104.849 139.387C105.262 139.904 105.66 139.53 105.881 139.315Z" fill="#CF9F81" stroke="#CF9F81" stroke-width="0.210299"/>
<path d="M76.1675 111.961C76.1675 117.75 85.4588 121.654 119.699 122.3C153.94 122.946 162.468 115.766 162.469 110.956C162.469 105.643 150.308 100.473 126.606 100.473C98.1422 99.7552 76.1675 106.172 76.1675 111.961Z" fill="#CF9F81"/>
<path d="M134.736 24.966C134.736 30.2436 139.014 34.5219 144.292 34.5219C149.335 33.3274 153.848 30.2436 153.848 24.966C153.848 19.6885 149.569 15.4102 144.292 15.4102C139.014 15.4102 135.798 19.7899 134.736 24.966Z" fill="#8D705A"/>
<path d="M134.736 24.966C134.736 30.2436 139.014 34.5219 144.292 34.5219C149.335 33.3274 153.848 30.2436 153.848 24.966C153.848 19.6885 149.569 15.4102 144.292 15.4102C139.014 15.4102 135.798 19.7899 134.736 24.966Z" stroke="#5F4B3D"/>
<path d="M146.032 30.2708C153.79 24.5328 148.999 18.2281 145.234 15.5273C158.785 19.2464 152.94 32.5287 146.829 33.1929C143.596 34.7867 138.273 36.0087 146.032 30.2708Z" fill="#81634C"/>
<ellipse cx="5.196" cy="5.49462" rx="5.196" ry="5.49462" transform="matrix(-1 0 0 1 149.074 19.3516)" fill="#BC9183"/>
<path d="M147.78 20.9122C151.99 24.6562 148.242 29.9968 145.424 30.8184L143.218 27.4146C147.997 25.302 144.349 17.8605 147.78 20.9122Z" fill="#B59084"/>
<path d="M109.77 24.7238C109.77 30.0014 105.465 34.2797 100.155 34.2797C95.0798 33.0852 90.5391 30.0014 90.5391 24.7238C90.5391 19.4463 94.8441 15.168 100.155 15.168C105.465 15.168 108.702 19.5477 109.77 24.7238Z" fill="#8D705A"/>
<path d="M109.77 24.7238C109.77 30.0014 105.465 34.2797 100.155 34.2797C95.0798 33.0852 90.5391 30.0014 90.5391 24.7238C90.5391 19.4463 94.8441 15.168 100.155 15.168C105.465 15.168 108.702 19.5477 109.77 24.7238Z" stroke="#5F4B3D"/>
<path d="M101.226 30.1483C108.954 24.4062 104.198 18.23 100.449 15.5273C113.153 17.1224 108.107 32.4079 102.02 33.0725C98.7998 34.6675 93.4976 35.8903 101.226 30.1483Z" fill="#81634C"/>
<path d="M96.449 55.0684C97.4316 54.4139 98.9512 54.7957 99.5881 55.0684L103.683 63.3854C101.044 70.2026 95.3571 84.1096 93.7193 85.2004C91.672 86.5638 89.0788 87.3819 85.1207 86.0185C81.1627 84.655 80.4803 77.5651 86.4856 68.7028C92.4909 59.8404 95.2206 55.8865 96.449 55.0684Z" fill="#8D705A"/>
<rect width="47.3015" height="23.6507" transform="matrix(-1 0 0 1 145.844 52.9141)" fill="#8D705A"/>
<path d="M151.159 88.3821C148.868 76.798 147.132 72.7808 147.309 72.0273H96.8804C97.0574 72.7808 94.7152 76.694 93.0302 88.3821C90.8831 103.274 96.8576 109.524 98.9819 112.582C99.3902 113.17 107.745 115.64 118.1 113.247C118.738 112.183 119.782 105.756 119.959 104.604C121.34 104.817 124.031 104.692 124.34 104.604C124.517 105.756 126.359 112.183 126.996 113.247C137.883 115.773 144.272 113.079 144.787 112.582C148.637 108.859 153.948 102.476 151.159 88.3821Z" fill="#8D705A"/>
<path d="M103.325 82.1221C103.325 98.0252 111.774 102.607 122.197 102.607C132.621 102.607 141.07 98.5643 141.07 82.1221C141.07 70.8083 132.621 61.6367 122.197 61.6367C111.774 61.6367 103.325 70.8083 103.325 82.1221Z" fill="#B4907A"/>
<path d="M151.566 91.0196C149.945 81.1927 147.224 72.3992 146.914 69.0741C146.737 66.8131 145.93 66.4141 145.186 66.4141C144.255 66.4141 144.654 69.7391 146.914 83.0394C149.174 96.3397 144.122 105.384 141.331 107.778C138.074 110.571 130.67 112.127 126.017 110.132L127.108 112.965C137.476 115.492 143.724 112.965 144.388 112.566C145.053 112.167 153.826 104.719 151.566 91.0196Z" fill="#81634C"/>
<path d="M97.3242 67.4399C97.0053 68.9271 96.8813 72.1761 96.7927 73.5482L94.1226 84.8072C91.1996 87.0647 82.4434 88.2879 82.1777 81.3828C83.905 83.9058 86.2965 84.3042 87.758 83.9058C89.6181 83.9058 91.8767 78.0631 92.4082 75.2745C92.9273 72.5507 97.7227 65.5808 97.3242 67.4399Z" fill="#81634C"/>
<path d="M117.598 113.129C118.562 112.944 119.239 108.407 119.328 107.171L119.062 106.906C118.308 109.378 115.548 113.341 97.2302 109.422C97.6562 110.163 98.872 112.114 99.3601 112.599C108.412 115.115 114.136 113.791 117.598 113.129Z" fill="#81634C"/>
<path d="M133.912 101.235C130.881 103.187 126.692 104.257 124.444 104.6C124.552 105.72 125.407 108.466 126.44 111.383C129.199 112.172 130.728 112.729 131.803 112.751C131.625 111.825 131.274 109.484 131.299 107.52C131.331 105.066 137.701 98.796 133.912 101.235Z" fill="#81634C"/>
<path d="M109.09 102.207C112.264 103.824 117.555 104.474 119.804 104.597C119.804 105.7 119.182 108.457 118.442 111.398C115.796 112.428 113.323 113.114 112.264 113.237C112.353 112.317 112.476 110.001 112.264 108.089C112 105.7 105.121 100.185 109.09 102.207Z" fill="#81634C"/>
<ellipse cx="5.85296" cy="5.73351" rx="5.85296" ry="5.73351" transform="matrix(-1 0 0 1 106.07 19.1094)" fill="#BC9183"/>
<path d="M104.281 20.7064C108.802 24.6188 104.777 30.1994 101.75 31.0579L99.3806 27.5012C104.514 25.2935 100.595 17.5176 104.281 20.7064Z" fill="#B59084"/>
<path d="M91.1138 42.5326C90.1419 52.2295 96.2629 58.6178 122.198 60.0817C145.231 59.5494 153.88 52.2295 152.214 42.5326C148.964 23.6154 138.849 16.9609 122.198 16.9609C105.546 16.9609 97.3274 20.9536 91.1138 42.5326Z" fill="#8D705A"/>
<path d="M91.1138 42.5326C90.1419 52.2295 96.2629 58.6178 122.198 60.0817C145.231 59.5494 153.88 52.2295 152.214 42.5326C148.964 23.6154 138.849 16.9609 122.198 16.9609C105.546 16.9609 97.3274 20.9536 91.1138 42.5326Z" stroke="#7D6655"/>
<path d="M133.927 18.6328C133.957 18.6409 133.988 18.6492 134.019 18.6578C135.3 19.0344 138.006 20.9335 140.704 25.8146C144.158 32.0654 145.886 43.3198 145.886 46.1629C145.886 48.8228 145.221 51.4827 141.368 54.4086C137.627 57.2494 119.312 61.4574 98.1852 55.2066C111.605 61.3244 130.473 59.7285 139.906 57.4675C149.34 55.2066 151.732 49.3548 152.13 45.8969C152.529 42.439 150.27 33.7943 146.55 27.4105C143.604 22.3554 137.03 19.4894 134.019 18.6578C133.987 18.6485 133.957 18.6402 133.927 18.6328Z" fill="#81634C"/>
<ellipse cx="6.80855" cy="5.97241" rx="6.80855" ry="5.97241" transform="matrix(-1 0 0 1 128.883 42.7617)" fill="#B4907A"/>
<path d="M118.251 46.2106C118.251 47.0229 120.042 47.2259 122.252 47.2259C124.462 47.2259 126.254 47.0229 126.254 46.2106C126.254 45.3984 124.462 45.1953 122.252 45.1953C120.042 45.1953 118.251 45.3984 118.251 46.2106Z" fill="#5F4B3D"/>
<path d="M111.684 39.897C110.541 39.1759 107.674 38.1663 105.353 39.897" stroke="#5F4B3D" stroke-width="1.985" stroke-linecap="round"/>
<path d="M138.32 39.897C137.177 39.1759 134.311 38.1663 131.99 39.897" stroke="#5F4B3D" stroke-width="1.985" stroke-linecap="round"/>
<path d="M119.209 50.6468C120.378 50.6468 122.195 50.6468 122.195 45.9883" stroke="#5F4B3D" stroke-width="1.985" stroke-linecap="round"/>
<path d="M125.18 50.6468C123.965 50.6468 122.074 50.6468 122.074 45.9883" stroke="#5F4B3D" stroke-width="1.985" stroke-linecap="round"/>
<ellipse cx="5.73351" cy="5.07655" rx="5.73351" ry="5.07655" transform="matrix(-1 0 0 1 105.473 41.2109)" fill="#CF938B"/>
<ellipse cx="131.333" cy="35.934" rx="1.49091" ry="2.0073" transform="rotate(65.5568 131.333 35.934)" fill="#B4907A"/>
<ellipse cx="1.49091" cy="2.0073" rx="1.49091" ry="2.0073" transform="matrix(-0.413791 0.910372 0.910372 0.413791 111.512 33.7461)" fill="#B4907A"/>
<ellipse cx="5.73351" cy="5.07655" rx="5.73351" ry="5.07655" transform="matrix(-1 0 0 1 148.832 41.2109)" fill="#CF938B"/>
<path d="M145.336 41.5664C145.604 43.7342 145.926 48.6802 144.532 51.1223C151.369 48.866 148.822 42.4954 145.336 41.5664Z" fill="#C58D85"/>
<path d="M95.5319 31.5328C98.611 23.942 104.955 20.1734 107.742 19.2379L106.946 18.0352C101.425 18.5697 96.3725 26.8554 94.6029 30.8646L95.5319 31.5328Z" fill="#927763" fill-opacity="0.3"/>
<path d="M98.3694 55.0995C117.869 63.3821 138.683 57.142 146.652 52.9867C148.161 54.0715 150.72 56.6596 147.241 57.3429C143.763 58.0263 142.657 58.8715 141.359 59.5922C130.725 62.5805 108.319 59.7544 98.3694 55.0995Z" fill="#81634C"/>
<path d="M148.838 73.5097C147.86 74.1642 146.349 73.7824 145.716 73.5097L141.644 65.1928C144.268 58.3756 149.923 44.4685 151.552 43.3777C153.588 42.0143 156.167 41.1962 160.103 42.5597C164.039 43.9231 164.718 51.013 158.746 59.8753C152.774 68.7377 150.059 72.6917 148.838 73.5097Z" fill="#8D705A"/>
<path d="M158.398 54.6616C156.694 58.4871 149.187 70.3195 146.095 69.7646C144.268 69.4368 145.144 75.4727 147.214 75.4727C148.183 75.4726 149.384 73.463 159.103 59.1171C167.953 46.054 161.117 42.1012 157.771 41.7161C154.31 41.3176 151.381 43.1772 150.582 44.107C149.162 46.5866 147.982 48.6993 151.075 46.5588C158.265 41.5832 160.528 49.8796 158.398 54.6616Z" fill="#81634C"/>
</svg>
