<svg width="230" height="263" viewBox="0 0 230 263" fill="none" xmlns="http://www.w3.org/2000/svg">
<path d="M34.1922 190.09C44.0142 185.806 52.294 195.015 55.2061 200.155L53.7804 204.172C50.1206 201.064 46.4134 201.238 43.2749 202.36C40.1363 203.481 36.195 206.339 30.7055 207.637C20.5701 209.745 13.8313 210.075 11.7288 209.976C15.1241 205.132 24.3702 194.374 34.1922 190.09Z" fill="#678D3A" stroke="#678D3A" stroke-width="0.170624"/>
<path d="M31.8663 157.084C30.1461 179.432 42.6923 192.583 49.1805 196.365L52.4566 189.59C50.8649 184.263 48.3558 179.832 47.2846 178.302C46.1926 176.413 43.3374 172.184 40.7772 170.219C38.217 168.253 33.7698 160.643 31.8663 157.084Z" fill="#5A7639" stroke="#5A7639" stroke-width="0.1092"/>
<path d="M151.042 75.408C167.188 84.5073 166.503 89.3338 166.214 91.3044C164.891 100.311 147.475 105.11 139.283 107.367L139.032 107.436C97.276 118.948 15.6128 102.816 -1.08971 99.8007C-17.7922 96.7859 -29.0633 91.9199 -36.5825 88.0155C-41.4452 85.4905 -44.532 81.6985 -44.9031 80.2825C-45.4135 77.0393 -44.0429 71.7629 -36.5825 68.6933C-26.1156 65.2947 -18.4881 58.5982 -15.9828 55.6747L15.6128 25.2525C20.3916 21.1414 31.9534 11.9873 39.9706 8.25987C68.1421 -5.55347 91.9803 2.50431 100.378 8.25987C105.481 11.5031 114.465 19.8326 123.193 35.0259C129.178 47.3592 139.072 62.8006 151.042 75.408Z" fill="#BC643A" stroke="#C96F44" stroke-width="0.886825"/>
<path d="M-18.5624 77.6611C63.0571 48.9839 121.599 74.7546 140.668 91.2246C124.856 103.404 92.0452 104.05 77.6161 102.85C75.3891 112.151 81.2349 126.84 84.4363 133.022C102.809 168.592 104.338 200.144 98.355 206.514C91.3807 213.941 68.7135 214.199 58.4137 208.386C38.0366 197.646 43.2832 132.238 46.7165 97.4527C7.29858 93.0238 -13.2269 82.4129 -18.5624 77.6611Z" fill="#E8D9C6" stroke="#E8D9C6" stroke-width="0.886825"/>
<path d="M77.3806 103.457C79.3627 122.639 79.3628 120.584 86.8663 136.615C36.217 150.253 55.9359 199.712 54.9661 204.885C54.4858 207.446 35.023 180.385 42.8353 132.474C42.8353 124.392 45.1006 106.7 45.95 98.7988C22.0515 97.4835 -4.11044 86.2392 -13.8322 81.3981C-24.1451 76.6025 -12.0387 73.8679 -7.85005 76.6025C5.85481 81.9734 11.6708 79.8452 12.4731 77.6986C12.7562 77.1505 13.024 73.9688 11.1216 72.9031C3.50537 68.6367 11.0272 69.6604 11.6879 69.2037C12.4902 68.7013 14.4345 68.135 15.7937 69.8888C19.0783 74.6021 27.4503 78.064 31.2258 79.2058C34.8125 79.8452 42.1557 80.9047 42.8353 80.0278C43.5149 79.1509 42.7409 78.1096 42.269 77.6986C39.6262 74.0906 33.5414 65.2788 37.7321 63.8539C41.9229 62.4289 44.3084 62.8077 45.95 69.2037C46.3276 72.6748 49.716 80.4663 60.2495 83.8643C73.4164 88.1117 83.7517 82.6311 85.7338 81.398C90.3776 78.6577 92.624 72.081 93.5206 69.8888C92.8127 66.98 99.043 67.9158 99.6093 69.8888C100.402 73.8348 97.2017 78.8861 95.7859 79.6168C94.2285 80.8499 91.5951 83.4258 93.5206 83.8643C108.103 87.8377 119.43 77.9726 120.421 77.5616C126.763 75.1501 126.461 78.5663 125.518 80.5759L115.749 88.5227C118.061 89.3905 123.252 91.8232 125.518 91.0559C130.847 91.0559 137.636 87.0326 138.826 88.2487C139.964 89.4119 142.536 90.9687 140.412 93.2979C119.232 105.465 89.6508 105.376 77.3806 103.457Z" fill="#C5A687" stroke="#C5A687" stroke-width="0.886825"/>
<path d="M58.2941 60.4C107.033 61.0847 134.05 80.0744 141.5 91.3493C120.927 72.0678 78.3551 66.6994 58.2941 65.6038C38.2332 64.5083 -0.362854 71.9491 -19.1223 77.792C10.821 59.0582 42.8109 60.3999 58.2941 60.4Z" fill="#A46C53" stroke="#A46C53" stroke-width="0.886825"/>
<path d="M74.0363 137C81.4934 161.052 94.4866 207.083 83.1693 211.35" stroke="#C5A687" stroke-opacity="0.5" stroke-width="3.5473" stroke-linecap="round"/>
<path d="M54.0898 135.754C54.0904 156.584 55.8334 206.843 65.6399 210.646" stroke="#C5A687" stroke-opacity="0.5" stroke-width="3.5473" stroke-linecap="round"/>
<path fill-rule="evenodd" clip-rule="evenodd" d="M47.2548 4.4875C72.1921 -4.79394 92.7119 2.37506 100.375 7.62706C105.478 10.8703 114.462 19.1998 123.19 34.3931C127.035 42.3161 132.493 51.5219 139.078 60.435C128.75 65.1747 98.5237 55.1488 78.4816 39.9119C60.0104 25.8693 47.0473 13.2444 47.2548 4.4875Z" fill="#DC7747" fill-opacity="0.7"/>
<path d="M35.8116 13.7522C37.2984 16.3274 41.8415 16.4878 45.959 14.1105C50.0765 11.7333 53.5443 8.57679 52.0576 6.00166C50.5708 3.42652 44.6925 2.4079 40.575 4.78514C36.4575 7.16238 34.3249 11.1771 35.8116 13.7522Z" fill="#E6D2BA"/>
<path d="M40.6998 11.0107C41.9557 13.1861 45.2502 13.6354 48.0581 12.0143C50.866 10.3931 53.1495 8.0996 51.8935 5.92418C50.6375 3.74877 46.3177 2.51527 43.5098 4.13642C40.7019 5.75757 39.4438 8.8353 40.6998 11.0107Z" fill="#F6ECE0"/>
<path d="M59.4868 39.3186C59.4006 33.0233 65.8418 27.8307 73.8737 27.7207C81.9056 27.6107 88.986 35.8868 89.0722 42.1821C89.1585 48.4774 82.2179 50.4079 74.186 50.518C66.1541 50.628 59.5731 45.6138 59.4868 39.3186Z" fill="#E6D2BA"/>
<path d="M67.0049 36.9249C66.9456 32.6004 71.4422 29.0325 77.0482 28.9557C82.6542 28.8789 87.5947 34.563 87.654 38.8875C87.7132 43.212 82.8687 44.5393 77.2627 44.6161C71.6567 44.6929 67.0641 41.2494 67.0049 36.9249Z" fill="#F6ECE0"/>
<path d="M-1.51947 54.6439C-3.82074 51.2123 -2.13705 46.0503 2.24116 43.1142C6.61938 40.1781 13.4766 42.1951 15.7779 45.6267C18.0792 49.0583 14.953 52.6049 10.5748 55.541C6.19658 58.4771 0.781802 58.0754 -1.51947 54.6439Z" fill="#E6D2BA"/>
<path d="M3.50342 51.5771C1.89437 49.1778 3.0716 45.5685 6.13284 43.5156C9.19408 41.4627 13.9886 42.873 15.5977 45.2723C17.2067 47.6717 15.0209 50.1515 11.9597 52.2044C8.89846 54.2573 5.11246 53.9765 3.50342 51.5771Z" fill="#F6ECE0"/>
<path d="M108.497 18.54C110.059 16.4506 113.953 16.7218 117.196 19.1457C120.438 21.5697 121.173 26.4504 119.611 28.5398C118.049 30.6292 114.782 29.1361 111.539 26.7122C108.297 24.2882 106.935 20.6294 108.497 18.54Z" fill="#E6D2BA"/>
<path d="M111.559 18.5214C112.627 17.0922 115.288 17.275 117.502 18.9298C119.715 20.5846 120.214 23.9203 119.146 25.3495C118.077 26.7787 115.846 25.7602 113.632 24.1054C111.419 22.4507 110.491 19.9506 111.559 18.5214Z" fill="#F6ECE0"/>
<path d="M135.354 59.0466C136.761 57.164 140.271 57.4083 143.192 59.5924C146.114 61.7765 146.776 66.1742 145.368 68.0568C143.961 69.9395 141.017 68.5942 138.095 66.4101C135.174 64.226 133.946 60.9293 135.354 59.0466Z" fill="#E6D2BA"/>
<path d="M137.313 58.466C138.26 57.1993 140.621 57.3637 142.587 58.8332C144.552 60.3027 144.998 63.2615 144.051 64.5281C143.104 65.7948 141.123 64.8897 139.158 63.4202C137.192 61.9507 136.366 59.7327 137.313 58.466Z" fill="#F6ECE0"/>
<path d="M176.17 164.594C181.617 168.37 173.643 184.914 168.975 192.713L163.108 169.513C166.298 167.041 173.376 162.597 176.17 164.594Z" fill="#ECE392" stroke="#ECE392" stroke-width="0.586218" stroke-linecap="round"/>
<path d="M85.1939 193.964C80.9047 189.401 95.9505 172.029 102.477 164.957L108.084 186.551C104.363 188.539 87.3782 196.364 85.1939 193.964Z" fill="#ECE392" stroke="#ECE392" stroke-width="0.586218" stroke-linecap="round"/>
<path d="M134.597 141.616C158.186 145.513 158.186 162.086 163.48 172.225L169.804 184.741L169.803 194.747C171.248 198.197 174.804 206.017 172.296 208.777C161.3 218.207 138.414 216.827 127.002 216.827C116.53 216.827 112.643 215.118 104.324 213.186C99.7088 211.019 90.1306 196.958 93.2312 184.741C95.0827 177.446 96.6928 174.351 104.324 160.36C106.396 156.562 112.985 141.986 134.597 141.616Z" fill="#ECE392" stroke="#ECE392" stroke-width="0.586218"/>
<path d="M151.965 165.475C149.503 163.834 147.26 163.419 143.645 165.295" stroke="#5F4B3D" stroke-width="1.70514" stroke-linecap="round"/>
<path d="M129.465 164.467C128.086 162.675 124.819 161.869 121.314 164.137" stroke="#5F4B3D" stroke-width="1.70514" stroke-linecap="round"/>
<path d="M131.442 173.306C133.918 175.319 136.897 175.498 139.86 173.509C141.413 172.467 140.348 170.486 138.41 170.469L133.062 170.425C131.231 170.41 130.084 172.202 131.442 173.306Z" fill="#DCB059"/>
<path d="M177.801 165.918C179.048 172.13 171.332 188.204 168.985 191.505L167.277 185.211C170.327 180.41 177.855 166.216 177.801 165.918Z" fill="#F3ECA8" stroke="#FDFCE1" stroke-width="0.103874" stroke-linecap="round"/>
<path d="M131.003 168.477C134.006 166.203 137.448 166.214 140.617 168.902C142.02 170.092 140.781 171.98 138.853 171.868L132.419 171.492C130.597 171.385 129.604 169.536 131.003 168.477Z" fill="#EBC376" stroke="#EBC376" stroke-width="0.586218" stroke-linecap="round"/>
<path fill-rule="evenodd" clip-rule="evenodd" d="M110.42 215.655C110.702 214.41 110.976 213.144 111.252 211.869C114.488 196.928 117.989 180.758 137.48 181.897C154.82 182.91 157.244 202.449 157.182 214.951C146.567 217.5 134.274 217.207 127.308 216.377C123.331 216.928 116.849 216.484 110.42 215.655Z" fill="#FDFCE1"/>
<path d="M110.42 215.655L110.393 215.931L110.05 215.887L110.119 215.585L110.42 215.655ZM111.252 211.869L110.95 211.801L111.252 211.869ZM137.48 181.897L137.483 181.619L137.48 181.897ZM157.182 214.951L157.489 214.967L157.488 215.169L157.275 215.22L157.182 214.951ZM127.308 216.377L127.246 216.102L127.288 216.096L127.332 216.102L127.308 216.377ZM110.119 215.585C110.4 214.341 110.674 213.076 110.95 211.801L111.554 211.937C111.278 213.211 111.003 214.478 110.721 215.725L110.119 215.585ZM110.95 211.801C112.565 204.343 114.257 196.517 118.003 190.703C119.879 187.79 122.278 185.371 125.452 183.754C128.628 182.137 132.56 181.332 137.483 181.619L137.477 182.175C132.654 181.893 128.839 182.682 125.776 184.243C122.71 185.804 120.377 188.148 118.538 191.003C114.851 196.725 113.174 204.453 111.554 211.937L110.95 211.801ZM137.483 181.619C141.887 181.877 145.359 183.313 148.081 185.529C150.796 187.74 152.748 190.714 154.143 194.029C156.93 200.655 157.52 208.708 157.489 214.967L156.874 214.934C156.905 208.692 156.314 200.725 153.57 194.202C152.199 190.943 150.297 188.061 147.684 185.933C145.075 183.81 141.742 182.424 137.477 182.175L137.483 181.619ZM157.275 215.22C146.611 217.781 134.275 217.486 127.285 216.653L127.332 216.102C134.272 216.929 146.523 217.219 157.088 214.682L157.275 215.22ZM127.371 216.652C123.345 217.209 116.823 216.76 110.393 215.931L110.447 215.38C116.875 216.209 123.317 216.646 127.246 216.102L127.371 216.652Z" fill="#FDFCE1"/>
<path fill-rule="evenodd" clip-rule="evenodd" d="M130.671 142.371C110.274 145.274 102.487 163.239 104.929 183.937C105.349 187.502 104.029 185.734 101.223 181.977C99.5373 179.721 97.3162 176.747 94.6144 173.78C96.5963 171.406 98.2434 169.871 99.1605 169.016C99.504 168.696 99.7451 168.471 99.8631 168.333C100.227 167.909 100.739 166.83 101.446 165.341C104.765 158.349 112.385 142.296 129.177 142.296C129.682 142.314 130.18 142.339 130.671 142.371Z" fill="#E3CB79"/>
<path fill-rule="evenodd" clip-rule="evenodd" d="M172.534 208.134C172.405 208.512 172.226 208.847 171.988 209.129C162.835 217.571 144.822 217.349 133.536 217.21C132.216 217.194 130.988 217.179 129.877 217.179C120.141 217.179 112.784 215.661 105.05 213.729C101.673 212.024 92.3048 201.533 94.1635 192.209C96.3345 192.091 98.4603 191.708 99.8018 190.159C100.049 189.874 100.035 190.262 100.005 191.116C99.8011 196.887 98.8458 223.925 172.534 208.134Z" fill="url(#paint0_linear_1261_4847)" fill-opacity="0.6"/>
<path d="M172.179 199.823C176.985 199.78 169.268 210.936 164.809 216.519C156.858 223.711 152.581 203.866 152.392 201.512C152.204 199.158 154.993 198.119 156.747 197.617C158.502 197.115 159.983 201.045 161.886 199.036C163.79 197.026 164.377 196.517 166.194 196.8C168.012 197.082 166.171 199.876 172.179 199.823Z" fill="#EBC376"/>
<path fill-rule="evenodd" clip-rule="evenodd" d="M166.375 214.501C170.812 208.621 176.458 199.784 172.179 199.823C168.247 199.858 167.677 198.673 167.243 197.771C167.014 197.295 166.822 196.897 166.194 196.8C164.377 196.517 163.79 197.026 161.886 199.036C160.793 200.19 159.839 199.384 158.892 198.584C158.191 197.992 157.494 197.403 156.747 197.617C155.177 198.066 152.778 198.946 152.427 200.814C153.315 200.209 154.435 199.83 155.302 199.582C156.049 199.368 156.746 199.957 157.447 200.549C158.393 201.349 159.347 202.155 160.441 201C162.344 198.991 162.932 198.482 164.749 198.764C165.377 198.862 165.568 199.259 165.797 199.736C166.231 200.638 166.801 201.823 170.734 201.787C174.557 201.753 170.456 208.805 166.375 214.501Z" fill="#DCB059"/>
<path d="M104.083 201.666C99.2762 201.623 106.993 212.78 111.453 218.363C119.404 225.554 123.681 205.709 123.869 203.355C124.057 201.001 121.269 199.963 119.514 199.461C117.76 198.958 116.279 202.889 114.375 200.879C112.472 198.87 111.885 198.361 110.067 198.643C108.25 198.926 110.091 201.72 104.083 201.666Z" fill="#EBC376"/>
<path fill-rule="evenodd" clip-rule="evenodd" d="M109.887 216.349C105.45 210.469 99.8039 201.632 104.083 201.67C108.015 201.706 108.585 200.521 109.019 199.618C109.248 199.142 109.439 198.745 110.067 198.647C111.885 198.365 112.472 198.874 114.375 200.883C115.469 202.038 116.423 201.232 117.37 200.432C118.071 199.84 118.768 199.251 119.514 199.464C121.085 199.914 123.484 200.793 123.835 202.661C122.947 202.057 121.827 201.677 120.96 201.429C120.213 201.216 119.516 201.804 118.815 202.397C117.868 203.197 116.914 204.003 115.821 202.848C113.917 200.839 113.33 200.329 111.513 200.612C110.885 200.71 110.694 201.107 110.464 201.583C110.03 202.486 109.461 203.67 105.528 203.635C101.705 203.601 105.805 210.652 109.887 216.349Z" fill="#DCB059"/>
<path fill-rule="evenodd" clip-rule="evenodd" d="M161.932 170.947L159.206 174.864C159.554 168.113 157.604 155.684 148.895 148.238C159.19 154.085 161.932 163.598 161.932 170.947Z" fill="#F3ECA8"/>
<path fill-rule="evenodd" clip-rule="evenodd" d="M97.2373 170.746C90.2731 178.925 81.8488 190.284 85.1954 193.844C85.543 194.226 86.2652 194.349 87.2491 194.278C92.1293 178.441 100.956 176.327 104.824 177.285L97.2373 170.746Z" fill="#E3CB79"/>
<defs>
<linearGradient id="paint0_linear_1261_4847" x1="108.791" y1="212" x2="161.433" y2="210.981" gradientUnits="userSpaceOnUse">
<stop stop-color="#E3CB79"/>
<stop offset="1" stop-color="#E8D283" stop-opacity="0"/>
</linearGradient>
</defs>
</svg>
