<svg width="410" height="221" viewBox="0 0 410 221" fill="none" xmlns="http://www.w3.org/2000/svg">
<path d="M14.01 111.482C56.4587 96.3374 110.407 84.286 193.018 113.373C281.624 144.571 334.083 132.392 372.008 110.263" stroke="#61934A" stroke-width="3" stroke-linecap="round"/>
<path d="M330.249 125.856L326.28 127.398C326.265 123.091 328.918 118.928 330.246 117.385C329.393 124.21 329.675 126.051 330.249 125.856L330.275 125.846C330.266 125.85 330.258 125.853 330.249 125.856Z" fill="#61934A"/>
<path d="M326.28 127.398L330.275 125.846C329.683 126.105 329.381 124.311 330.246 117.385C328.918 118.928 326.265 123.091 326.28 127.398Z" stroke="#61934A" stroke-width="1.15385" stroke-linecap="round"/>
<path d="M233.993 124.857L229.934 123.571C232.623 120.205 237.299 118.624 239.301 118.255C234.358 123.038 233.423 124.649 233.993 124.857L234.019 124.865C234.01 124.863 234.001 124.86 233.993 124.857Z" fill="#61934A"/>
<path d="M229.934 123.571L234.019 124.865C233.396 124.696 234.285 123.109 239.301 118.255C237.299 118.624 232.623 120.205 229.934 123.571Z" stroke="#61934A" stroke-width="1.15385" stroke-linecap="round"/>
<path d="M371.88 111.091C370.809 107.916 371.117 101.057 380.921 99.0209C390.387 97.0548 393.041 94.8798 393.234 93.9441C393.238 93.9123 393.241 93.8805 393.245 93.8488C393.244 93.8789 393.241 93.9107 393.234 93.9441C392.029 103.926 386.099 121.184 371.88 111.091Z" fill="#61934A" stroke="#61934A" stroke-width="0.337854"/>
<path d="M389.984 99.6967C388.998 103.7 384.725 111.615 375.524 111.246C379.529 112.732 388.028 112.503 389.984 99.6967Z" fill="#7AB55E"/>
<path d="M328.547 118.474C331.028 119.92 336.839 120.842 340.236 112.961C343.516 105.352 345.799 103.498 346.618 103.497C346.645 103.499 346.672 103.502 346.7 103.504C346.674 103.499 346.647 103.497 346.618 103.497C338.03 102.791 322.519 104.8 328.547 118.474Z" fill="#61934A" stroke="#61934A" stroke-width="0.289558"/>
<path d="M341.228 105.237C337.697 105.376 330.317 107.602 329.043 115.39C328.484 111.772 330.139 104.675 341.228 105.237Z" fill="#7AB55E"/>
<path d="M288.128 131.933L283.931 132.649C286.131 136.352 290.546 138.561 292.478 139.203C288.24 133.785 287.535 132.061 288.128 131.933L288.156 131.929C288.146 131.93 288.137 131.931 288.128 131.933Z" fill="#61934A"/>
<path d="M283.931 132.649L288.156 131.929C287.515 132.011 288.177 133.705 292.478 139.203C290.546 138.561 286.131 136.352 283.931 132.649Z" stroke="#61934A" stroke-width="1.15385" stroke-linecap="round"/>
<path d="M290.45 139.124C291.836 136.609 296.348 132.833 303.312 137.849C310.035 142.692 312.946 143.11 313.649 142.69C313.671 142.674 313.693 142.658 313.716 142.642C313.696 142.659 313.674 142.675 313.649 142.69C306.644 147.708 292.304 153.953 290.45 139.124Z" fill="#61934A" stroke="#61934A" stroke-width="0.289558"/>
<path d="M308.133 143.966C305.033 145.661 297.557 147.543 292.463 141.515C293.842 144.906 298.908 150.145 308.133 143.966Z" fill="#7AB55E"/>
<path d="M177.222 108.501L173.562 108.063C174.987 112.293 178.479 115.659 180.046 116.813C177.093 110.348 176.701 108.465 177.222 108.501L177.246 108.503C177.238 108.502 177.23 108.501 177.222 108.501Z" fill="#61934A"/>
<path d="M173.562 108.063L177.246 108.503C176.69 108.41 177.049 110.252 180.046 116.813C178.479 115.659 174.987 112.293 173.562 108.063Z" stroke="#61934A" stroke-width="1.15385" stroke-linecap="round"/>
<path d="M177.666 115.14C179.769 113.184 185.236 111.008 190.281 117.95C195.153 124.653 197.788 125.96 198.586 125.781C198.613 125.773 198.639 125.764 198.665 125.756C198.641 125.766 198.615 125.774 198.586 125.781C190.364 128.357 174.791 129.805 177.666 115.14Z" fill="#61934A" stroke="#61934A" stroke-width="0.289558"/>
<path d="M192.949 125.268C189.473 125.908 181.784 125.358 178.83 118.04C179.08 121.693 182.254 128.252 192.949 125.268Z" fill="#7AB55E"/>
<path d="M119.427 97.343L115.986 96.7652C117.468 101.162 120.853 104.743 122.36 105.984C119.371 99.2368 118.938 97.2882 119.427 97.343L119.449 97.3467C119.441 97.345 119.434 97.3438 119.427 97.343Z" fill="#61934A"/>
<path d="M115.986 96.7652L119.449 97.3467C118.926 97.2315 119.326 99.1368 122.36 105.984C120.853 104.743 117.468 101.162 115.986 96.7652Z" stroke="#61934A" stroke-width="1.15385" stroke-linecap="round"/>
<path d="M120.164 104.059C122.316 102.158 127.837 100.122 132.704 107.19C137.403 114.015 140.003 115.389 140.806 115.23C140.833 115.222 140.859 115.215 140.885 115.207C140.861 115.217 140.835 115.224 140.806 115.23C132.521 117.595 116.916 118.646 120.164 104.059Z" fill="#61934A" stroke="#61934A" stroke-width="0.289558"/>
<path d="M135.182 114.575C131.691 115.126 124.019 114.381 121.252 106.989C121.409 110.647 124.414 117.286 135.182 114.575Z" fill="#7AB55E"/>
<path d="M33.5799 105.816L30.28 107.143C34.2467 110.238 39.3414 111.595 41.3929 111.887C34.694 107.52 33.1283 106.029 33.5799 105.816L33.6013 105.808C33.5938 105.81 33.5866 105.813 33.5799 105.816Z" fill="#61934A"/>
<path d="M30.28 107.143L33.6013 105.808C33.0831 105.985 34.5947 107.455 41.3929 111.887C39.3414 111.595 34.2467 110.238 30.28 107.143Z" stroke="#61934A" stroke-width="1.15385" stroke-linecap="round"/>
<path d="M38.0214 110.832C39.1602 108.196 43.2905 104.005 50.7016 108.332C57.8573 112.51 60.7951 112.648 61.4544 112.162C61.4751 112.144 61.4958 112.126 61.5163 112.108C61.4985 112.127 61.4779 112.145 61.4544 112.162C54.9616 117.827 41.2854 125.415 38.0214 110.832Z" fill="#61934A" stroke="#61934A" stroke-width="0.289558"/>
<path d="M56.0858 113.962C53.1612 115.945 45.9002 118.534 40.2525 113.021C41.9502 116.265 47.4937 120.995 56.0858 113.962Z" fill="#7AB55E"/>
<path d="M235.597 119.341C237.341 121.622 242.364 124.687 248.505 118.692C254.434 112.903 257.251 112.057 258.008 112.369C258.032 112.381 258.057 112.394 258.081 112.406C258.059 112.392 258.035 112.38 258.008 112.369C250.335 108.447 235.227 104.401 235.597 119.341Z" fill="#61934A" stroke="#61934A" stroke-width="0.289558"/>
<path d="M252.359 111.923C249.041 110.707 241.369 109.957 237.226 116.674C238.087 113.116 242.318 107.183 252.359 111.923Z" fill="#7AB55E"/>
<path d="M148.734 100.465L145.114 99.8301C148.215 95.949 152.895 93.5568 154.848 92.8459C149.382 98.5488 148.23 100.348 148.734 100.465L148.757 100.47C148.749 100.469 148.741 100.467 148.734 100.465Z" fill="#61934A"/>
<path d="M145.114 99.8301L148.757 100.47C148.197 100.4 149.301 98.6333 154.848 92.8459C152.895 93.5568 148.215 95.949 145.114 99.8301Z" stroke="#61934A" stroke-width="1.15385" stroke-linecap="round"/>
<path d="M152.335 94.7027C154.08 96.9837 159.104 100.047 165.243 94.0501C171.171 88.26 173.987 87.4135 174.745 87.7244C174.769 87.7369 174.794 87.7494 174.818 87.762C174.796 87.7481 174.772 87.7355 174.745 87.7244C167.071 83.805 151.962 79.7634 152.335 94.7027Z" fill="#61934A" stroke="#61934A" stroke-width="0.289558"/>
<path d="M169.098 87.2801C165.78 86.0658 158.108 85.317 153.967 92.0358C154.826 88.4768 159.056 82.5431 169.098 87.2801Z" fill="#7AB55E"/>
<path d="M65.8816 97.5606L61.9547 96.8673C66.716 92.2785 72.8086 89.4114 75.2597 88.5515C67.2262 95.3068 65.3445 97.4301 65.8816 97.5606L65.9071 97.5651C65.8981 97.564 65.8896 97.5625 65.8816 97.5606Z" fill="#61934A"/>
<path d="M61.9547 96.8673L65.9071 97.5651C65.29 97.492 67.1071 95.407 75.2597 88.5515C72.8086 89.4114 66.716 92.2785 61.9547 96.8673Z" stroke="#61934A" stroke-width="1.15385" stroke-linecap="round"/>
<path d="M73.3228 88.7826C75.1092 91.0311 80.189 94.0008 86.2163 87.8918C92.036 81.9933 94.8364 81.095 95.5995 81.3918C95.6242 81.4039 95.6488 81.416 95.6734 81.428C95.6513 81.4146 95.6267 81.4024 95.5995 81.3918C87.8548 77.6147 72.6737 73.8528 73.3228 88.7826Z" fill="#61934A" stroke="#61934A" stroke-width="0.289558"/>
<path d="M89.9463 81.0554C86.6059 79.9026 78.9212 79.2956 74.9052 86.0897C75.699 82.5155 79.8184 76.5047 89.9463 81.0554Z" fill="#7AB55E"/>
<path d="M12.7357 111.309C15.2252 112.39 20.7821 112.609 23.0942 104.835C25.3266 97.3283 27.2631 95.3342 28.0315 95.2427C28.0575 95.2418 28.0834 95.2409 28.1092 95.24C28.0848 95.2386 28.0589 95.2394 28.0315 95.2427C19.8929 95.5346 5.5583 99.1445 12.7357 111.309Z" fill="#61934A" stroke="#61934A" stroke-width="0.27367"/>
<path d="M23.1652 97.4716C19.8667 97.9948 13.187 100.904 12.8572 108.356C11.9306 105.022 12.6949 98.1775 23.1652 97.4716Z" fill="#7AB55E"/>
</svg>
