<svg width="411" height="221" viewBox="0 0 411 221" fill="none" xmlns="http://www.w3.org/2000/svg">
<path d="M396.177 111.482C353.729 96.3374 299.78 84.286 217.17 113.373C128.563 144.571 76.1044 132.392 38.1795 110.263" stroke="#61934A" stroke-width="3" stroke-linecap="round"/>
<path d="M79.9384 125.856L83.9074 127.398C83.922 123.091 81.2695 118.928 79.9414 117.385C80.7941 124.21 80.5129 126.051 79.9384 125.856L79.9126 125.846C79.9213 125.85 79.9298 125.853 79.9384 125.856Z" fill="#61934A"/>
<path d="M83.9074 127.398L79.9126 125.846C80.5043 126.105 80.8067 124.311 79.9414 117.385C81.2695 118.928 83.922 123.091 83.9074 127.398Z" stroke="#61934A" stroke-width="1.15385" stroke-linecap="round"/>
<path d="M176.195 124.857L180.254 123.571C177.565 120.205 172.889 118.624 170.887 118.255C175.829 123.038 176.764 124.649 176.195 124.857L176.168 124.865C176.177 124.863 176.186 124.86 176.195 124.857Z" fill="#61934A"/>
<path d="M180.254 123.571L176.168 124.865C176.791 124.696 175.902 123.109 170.887 118.255C172.889 118.624 177.565 120.205 180.254 123.571Z" stroke="#61934A" stroke-width="1.15385" stroke-linecap="round"/>
<path d="M38.3071 111.091C39.3786 107.916 39.0707 101.057 29.2667 99.0209C19.8004 97.0548 17.1462 94.8798 16.9538 93.9441C16.9499 93.9123 16.9461 93.8805 16.9424 93.8488C16.9432 93.8789 16.9469 93.9107 16.9538 93.9441C18.1586 103.926 24.0889 121.184 38.3071 111.091Z" fill="#61934A" stroke="#61934A" stroke-width="0.337854"/>
<path d="M20.2032 99.6967C21.1896 103.7 25.4627 111.615 34.664 111.246C30.6589 112.732 22.1596 112.503 20.2032 99.6967Z" fill="#7AB55E"/>
<path d="M81.6409 118.474C79.1598 119.92 73.3483 120.842 69.9514 112.961C66.6715 105.352 64.3887 103.498 63.5699 103.497C63.5425 103.499 63.5152 103.502 63.4879 103.504C63.5134 103.499 63.5407 103.497 63.5699 103.497C72.1576 102.791 87.6683 104.8 81.6409 118.474Z" fill="#61934A" stroke="#61934A" stroke-width="0.289558"/>
<path d="M68.9592 105.237C72.4902 105.376 79.8706 107.602 81.1446 115.39C81.7033 111.772 80.0483 104.675 68.9592 105.237Z" fill="#7AB55E"/>
<path d="M122.059 131.933L126.257 132.649C124.056 136.352 119.642 138.561 117.71 139.203C121.947 133.785 122.652 132.061 122.059 131.933L122.032 131.929C122.041 131.93 122.05 131.931 122.059 131.933Z" fill="#61934A"/>
<path d="M126.257 132.649L122.032 131.929C122.672 132.011 122.01 133.705 117.71 139.203C119.642 138.561 124.056 136.352 126.257 132.649Z" stroke="#61934A" stroke-width="1.15385" stroke-linecap="round"/>
<path d="M119.737 139.124C118.351 136.609 113.839 132.833 106.876 137.849C100.153 142.692 97.2415 143.11 96.5388 142.69C96.5165 142.674 96.4942 142.658 96.472 142.642C96.4915 142.659 96.5138 142.675 96.5388 142.69C103.544 147.708 117.883 153.953 119.737 139.124Z" fill="#61934A" stroke="#61934A" stroke-width="0.289558"/>
<path d="M102.054 143.966C105.155 145.661 112.63 147.543 117.725 141.515C116.345 144.906 111.28 150.145 102.054 143.966Z" fill="#7AB55E"/>
<path d="M232.966 108.501L236.626 108.063C235.2 112.293 231.709 115.659 230.141 116.813C233.094 110.348 233.486 108.465 232.966 108.501L232.942 108.503C232.95 108.502 232.958 108.501 232.966 108.501Z" fill="#61934A"/>
<path d="M236.626 108.063L232.942 108.503C233.497 108.41 233.138 110.252 230.141 116.813C231.709 115.659 235.2 112.293 236.626 108.063Z" stroke="#61934A" stroke-width="1.15385" stroke-linecap="round"/>
<path d="M232.521 115.14C230.418 113.184 224.952 111.008 219.906 117.95C215.034 124.653 212.4 125.96 211.601 125.781C211.575 125.773 211.549 125.764 211.523 125.756C211.546 125.766 211.573 125.774 211.601 125.781C219.824 128.357 235.397 129.805 232.521 115.14Z" fill="#61934A" stroke="#61934A" stroke-width="0.289558"/>
<path d="M217.239 125.268C220.714 125.908 228.403 125.358 231.357 118.04C231.107 121.693 227.934 128.252 217.239 125.268Z" fill="#7AB55E"/>
<path d="M290.761 97.343L294.202 96.7652C292.72 101.162 289.335 104.743 287.828 105.984C290.817 99.2368 291.249 97.2882 290.761 97.343L290.738 97.3467C290.746 97.345 290.754 97.3438 290.761 97.343Z" fill="#61934A"/>
<path d="M294.202 96.7652L290.738 97.3467C291.261 97.2315 290.861 99.1368 287.828 105.984C289.335 104.743 292.72 101.162 294.202 96.7652Z" stroke="#61934A" stroke-width="1.15385" stroke-linecap="round"/>
<path d="M290.023 104.059C287.871 102.158 282.351 100.122 277.484 107.19C272.785 114.015 270.184 115.389 269.381 115.23C269.355 115.222 269.328 115.215 269.302 115.207C269.326 115.217 269.353 115.224 269.381 115.23C277.667 117.595 293.272 118.646 290.023 104.059Z" fill="#61934A" stroke="#61934A" stroke-width="0.289558"/>
<path d="M275.006 114.575C278.496 115.126 286.169 114.381 288.935 106.989C288.778 110.647 285.773 117.286 275.006 114.575Z" fill="#7AB55E"/>
<path d="M376.608 105.816L379.907 107.143C375.941 110.238 370.846 111.595 368.795 111.887C375.493 107.52 377.059 106.029 376.608 105.816L376.586 105.808C376.594 105.81 376.601 105.813 376.608 105.816Z" fill="#61934A"/>
<path d="M379.907 107.143L376.586 105.808C377.104 105.985 375.593 107.455 368.795 111.887C370.846 111.595 375.941 110.238 379.907 107.143Z" stroke="#61934A" stroke-width="1.15385" stroke-linecap="round"/>
<path d="M372.166 110.832C371.027 108.196 366.897 104.005 359.486 108.332C352.33 112.51 349.392 112.648 348.733 112.162C348.712 112.144 348.692 112.126 348.671 112.108C348.689 112.127 348.71 112.145 348.733 112.162C355.226 117.827 368.902 125.415 372.166 110.832Z" fill="#61934A" stroke="#61934A" stroke-width="0.289558"/>
<path d="M354.102 113.962C357.026 115.945 364.287 118.534 369.935 113.021C368.237 116.265 362.694 120.995 354.102 113.962Z" fill="#7AB55E"/>
<path d="M174.591 119.341C172.847 121.622 167.824 124.687 161.683 118.692C155.754 112.903 152.937 112.057 152.18 112.369C152.155 112.381 152.131 112.394 152.106 112.406C152.128 112.392 152.153 112.38 152.18 112.369C159.852 108.447 174.96 104.401 174.591 119.341Z" fill="#61934A" stroke="#61934A" stroke-width="0.289558"/>
<path d="M157.829 111.923C161.147 110.707 168.819 109.957 172.961 116.674C172.101 113.116 167.869 107.183 157.829 111.923Z" fill="#7AB55E"/>
<path d="M261.454 100.465L265.073 99.8301C261.972 95.949 257.292 93.5568 255.34 92.8459C260.805 98.5488 261.957 100.348 261.454 100.465L261.43 100.47C261.439 100.469 261.446 100.467 261.454 100.465Z" fill="#61934A"/>
<path d="M265.073 99.8301L261.43 100.47C261.991 100.4 260.886 98.6333 255.34 92.8459C257.292 93.5568 261.972 95.949 265.073 99.8301Z" stroke="#61934A" stroke-width="1.15385" stroke-linecap="round"/>
<path d="M257.852 94.7027C256.108 96.9837 251.084 100.047 244.944 94.0501C239.017 88.26 236.2 87.4135 235.443 87.7244C235.418 87.7369 235.394 87.7494 235.37 87.762C235.391 87.7481 235.416 87.7355 235.443 87.7244C243.116 83.805 258.226 79.7634 257.852 94.7027Z" fill="#61934A" stroke="#61934A" stroke-width="0.289558"/>
<path d="M241.089 87.2801C244.408 86.0658 252.08 85.317 256.221 92.0358C255.361 88.4768 251.131 82.5431 241.089 87.2801Z" fill="#7AB55E"/>
<path d="M344.306 97.5606L348.233 96.8673C343.471 92.2785 337.379 89.4114 334.928 88.5515C342.961 95.3068 344.843 97.4301 344.306 97.5606L344.28 97.5651C344.289 97.564 344.298 97.5625 344.306 97.5606Z" fill="#61934A"/>
<path d="M348.233 96.8673L344.28 97.5651C344.897 97.492 343.08 95.407 334.928 88.5515C337.379 89.4114 343.471 92.2785 348.233 96.8673Z" stroke="#61934A" stroke-width="1.15385" stroke-linecap="round"/>
<path d="M336.865 88.7826C335.078 91.0311 329.999 94.0008 323.971 87.8918C318.151 81.9933 315.351 81.095 314.588 81.3918C314.563 81.4039 314.539 81.416 314.514 81.428C314.536 81.4146 314.561 81.4024 314.588 81.3918C322.333 77.6147 337.514 73.8528 336.865 88.7826Z" fill="#61934A" stroke="#61934A" stroke-width="0.289558"/>
<path d="M320.241 81.0554C323.582 79.9026 331.266 79.2956 335.282 86.0897C334.489 82.5155 330.369 76.5047 320.241 81.0554Z" fill="#7AB55E"/>
<path d="M397.452 111.309C394.962 112.39 389.405 112.609 387.093 104.835C384.861 97.3283 382.924 95.3342 382.156 95.2427C382.13 95.2418 382.104 95.2409 382.078 95.24C382.103 95.2386 382.129 95.2394 382.156 95.2427C390.295 95.5346 404.629 99.1445 397.452 111.309Z" fill="#61934A" stroke="#61934A" stroke-width="0.27367"/>
<path d="M387.022 97.4716C390.321 97.9948 397 100.904 397.33 108.356C398.257 105.022 397.493 98.1775 387.022 97.4716Z" fill="#7AB55E"/>
</svg>
