<svg width="175" height="170" viewBox="0 0 175 170" fill="none" xmlns="http://www.w3.org/2000/svg">
<path d="M139.589 13.1188C142.833 21.0675 170.945 52.3509 190.703 78.5162L173.737 137.331C138.474 121.715 129.634 62.5468 128.877 46.2585C128.272 33.2278 131.004 18.4674 132.446 12.716C132.065 8.98693 133.498 7.81514 134.262 7.69539C134.956 6.85359 136.994 6.75974 139.589 13.1188Z" fill="#517B37" stroke="#607B40" stroke-width="0.341518"/>
<path d="M177.366 103.112L185.692 109.081L183.965 114.595L174.666 106.242C152.115 88.1258 120.13 103.062 106.956 112.795L15.4791 169.587C23.715 145.518 43.2633 94.7331 55.5697 84.1441C67.8762 73.5552 89.4868 69.1307 98.7537 68.2421C128.752 64.8936 163.661 90.0937 177.366 103.112Z" fill="#97C65F" stroke="#97C65F" stroke-width="0.341518"/>
</svg>
