<svg width="120" height="42" viewBox="0 0 120 42" fill="none" xmlns="http://www.w3.org/2000/svg">
<path d="M60.0354 26.9525C69.4695 28.1045 80.0129 28.1852 89.618 27.1789C99.223 26.1726 107.204 24.1512 112.012 21.5072C116.82 18.8632 118.111 15.7853 115.634 12.8711C113.157 9.95702 107.09 7.41467 98.6104 5.73779C90.1306 4.06092 79.8435 3.3692 69.7468 3.79697C59.6501 4.22473 50.4643 5.74144 43.9733 8.05257C37.4822 10.3637 34.1492 13.3043 34.6214 16.3034C35.0937 19.3024 39.3374 22.1458 46.5286 24.2815L75.7207 15.7763L60.0354 26.9525Z" fill="#3E7E1F"/>
<path d="M65.1011 20.2996L46.5649 24.1776L76.2591 15.5551L60.127 26.9177L65.1011 20.2996Z" fill="#3E7E1F"/>
<path d="M31.3775 39.296C26.3714 39.9073 20.7768 39.9501 15.6801 39.4161C10.5833 38.8822 6.34821 37.8096 3.79712 36.4066C1.24603 35.0036 0.561044 33.3703 1.87519 31.824C3.18933 30.2777 6.40881 28.9286 10.9084 28.0388C15.4081 27.149 20.8667 26.782 26.2243 27.009C31.5819 27.236 36.4562 28.0408 39.9005 29.2671C43.3449 30.4935 45.1135 32.0539 44.8629 33.6453C44.6123 35.2366 42.3604 36.7454 38.5446 37.8787L23.0544 33.3656L31.3775 39.296Z" fill="#3E7E1F" fill-opacity="0.5"/>
<path d="M28.685 35.7705L38.5209 37.8283L22.7643 33.2529L31.3244 39.2822L28.685 35.7705Z" fill="#3E7E1F" fill-opacity="0.5"/>
</svg>
