<svg width="115" height="86" viewBox="0 0 115 86" fill="none" xmlns="http://www.w3.org/2000/svg">
<path d="M99.0632 46.8105C98.4914 50.5392 98.9462 52.663 99.6368 56.1799C102.7 55.3717 111.053 51.706 109.893 45.494C108.995 40.6833 109.187 41.4015 106.929 37.8735C104.97 41.2407 99.4994 43.9665 99.0632 46.8105Z" fill="url(#paint0_linear_2667_491)"/>
<path d="M103.089 47.0917C103.661 50.8205 103.206 52.9442 102.516 56.4612C99.4523 55.653 91.0994 51.9872 92.2594 45.7752C93.1578 40.9646 92.965 41.6828 95.2229 38.1548C97.1822 41.5219 102.653 44.2478 103.089 47.0917Z" fill="url(#paint1_linear_2667_491)"/>
<path d="M88.0144 47.5601C88.0144 51.457 93.8943 56.6622 97.7911 56.6622C101.688 56.6622 101.773 57.5251 101.773 53.6282C101.773 49.7313 98.9672 48.7596 95.0703 48.7596C88.0144 46.8981 88.7595 43.0443 88.0144 47.5601Z" fill="url(#paint2_linear_2667_491)"/>
<path d="M88.0144 47.5601C88.0144 51.457 93.8943 56.6622 97.7911 56.6622C101.688 56.6622 101.773 57.5251 101.773 53.6282C101.773 49.7313 98.9672 48.7596 95.0703 48.7596C88.0144 46.8981 88.7595 43.0443 88.0144 47.5601Z" fill="url(#paint3_linear_2667_491)"/>
<path d="M108.225 48.311C108.225 52.2078 104.203 50.2161 101.169 56.4958C97.9235 48.5226 94.1133 52.2078 94.1133 48.311C94.1133 44.4141 98.2057 39.985 101.169 37.5859C104.344 39.4205 108.225 44.4141 108.225 48.311Z" fill="url(#paint4_radial_2667_491)"/>
<path d="M108.302 47.6746C108.726 52.261 103.779 51.8878 102.227 54.66C104.054 50.3559 107.589 52.3477 107.589 48.4508C107.589 44.5539 105.198 42.0299 103.293 39.0664C106.115 41.9593 107.385 43.6528 108.302 47.6746Z" fill="#EEC1A9"/>
<path d="M114.154 47.5991C114.154 51.496 108.274 56.7013 104.377 56.7013C100.48 56.7013 100.395 57.5641 100.395 53.6672C100.395 49.7703 103.201 48.7986 107.098 48.7986C114.154 46.9372 113.408 43.0833 114.154 47.5991Z" fill="url(#paint5_linear_2667_491)"/>
<path d="M114.154 47.5991C114.154 51.496 108.274 56.7013 104.377 56.7013C100.48 56.7013 100.395 57.5641 100.395 53.6672C100.395 49.7703 103.201 48.7986 107.098 48.7986C114.154 46.9372 113.408 43.0833 114.154 47.5991Z" fill="url(#paint6_linear_2667_491)"/>
<path d="M109.213 47.2656C110.071 50.5224 105.439 54.9826 102.726 55.6973C100.013 56.412 100.143 57.1488 99.2851 53.8919C98.4272 50.635 101.331 47.1524 104.045 46.4377C110.937 45.8328 107.7 43.6281 109.213 47.2656Z" fill="url(#paint7_radial_2667_491)"/>
<path d="M92.0699 47.7462C90.6959 47.0419 88.8242 45.4883 88.8242 45.4883C88.8242 45.4883 89.4813 46.2917 89.9532 46.7583C90.8897 47.6845 90.9381 48.1309 92.0699 48.8046C93.0126 49.3657 93.7431 49.8536 94.7512 50.2863C95.7292 50.7062 96.4011 50.7613 97.2913 51.3447C98.5013 52.1376 99.0953 52.6005 99.7609 53.8848C100.126 54.5893 100.678 56.4955 100.678 56.4955C100.678 56.4955 101.088 54.0503 100.819 53.0381C100.445 51.6262 99.8064 50.8726 98.632 50.0041C97.3566 49.0609 96.2444 49.3401 94.7512 48.8046C93.6916 48.4246 93.0717 48.2597 92.0699 47.7462Z" fill="#EAB29F" fill-opacity="0.84"/>
<path d="M93.2586 45.9898C91.8027 48.7753 95.511 54.0128 98.0408 55.335C100.571 56.6573 100.304 57.303 101.76 54.5175C103.216 51.732 101.02 47.8171 98.4899 46.4948C91.836 44.2496 95.4295 43.0147 93.2586 45.9898Z" fill="url(#paint8_radial_2667_491)"/>
<path d="M94.2073 44.5162C94.2055 44.5231 94.2037 44.5301 94.2017 44.5372C94.1242 44.824 93.9339 45.3183 93.3872 46.0694C93.0494 46.7229 93.0062 47.5303 93.1837 48.4093C93.3619 49.2919 93.7603 50.2334 94.2854 51.1352C95.3383 52.9436 96.8796 54.558 98.1107 55.2014C98.5713 55.4422 98.9427 55.6623 99.2445 55.8412C99.3592 55.9091 99.4638 55.9712 99.5595 56.0261C99.7352 56.127 99.8783 56.2026 100.001 56.2519C100.124 56.3011 100.218 56.32 100.295 56.3161C100.438 56.309 100.584 56.2213 100.797 55.9194C101.009 55.619 101.26 55.1476 101.626 54.4477C102.325 53.1105 102.154 51.4873 101.482 50.0202C100.813 48.5577 99.6573 47.279 98.4304 46.6339C95.5377 45.6566 94.562 44.865 94.2073 44.5162Z" stroke="#C88181" stroke-opacity="0.02" stroke-width="0.301606"/>
<path d="M96.5121 45.7703L94.1836 44.4297C94.1836 44.4297 95.4796 45.678 96.5121 46.1231C96.9121 46.2956 97.1735 46.2964 97.5704 46.4759C98.2739 46.794 98.6246 47.0828 99.1933 47.6049C100.066 48.4063 100.402 49.0273 100.957 50.0744C101.281 50.685 101.529 51.0193 101.663 51.6973C101.84 52.593 101.701 53.1475 101.451 54.0258C101.279 54.6313 101.043 54.9201 100.816 55.5075C100.637 55.971 100.393 56.707 100.393 56.707C100.393 56.707 101.44 55.423 101.804 54.4491C102.137 53.5581 102.285 52.9997 102.227 52.0501C102.184 51.343 102.064 50.945 101.804 50.2861C101.523 49.574 101.277 49.2042 100.816 48.5927C100.136 47.6896 99.6693 47.1983 98.6994 46.617C97.9137 46.1462 96.5121 45.7703 96.5121 45.7703Z" fill="url(#paint9_linear_2667_491)"/>
<path d="M108.86 46.0535C108.812 45.7264 108.719 45.2773 108.719 45.2773C108.719 45.2773 108.673 45.819 108.719 46.2652C108.768 46.7439 108.91 47.0628 109.001 47.5352C109.117 48.1329 109.001 48.4955 108.86 49.0875C108.614 50.1186 108.206 50.6238 107.59 51.4866C106.763 52.6443 106.127 53.1863 104.979 54.0267C103.726 54.9442 102.472 54.6908 101.451 55.8612C101.205 56.1437 100.887 56.6374 100.887 56.6374C100.887 56.6374 101.396 56.2825 101.733 56.0729C103.022 55.2732 104.015 55.3136 105.261 54.4501C106.543 53.5625 107.22 52.9249 108.084 51.6277C108.678 50.7354 109.1 50.2145 109.283 49.1581C109.396 48.5065 109.424 48.1108 109.283 47.4647C109.162 46.9096 108.943 46.6155 108.86 46.0535Z" fill="url(#paint10_linear_2667_491)"/>
<path d="M98.7068 55.304C99.602 56.1333 101.29 57.0614 101.29 57.0614C101.29 57.0614 99.8075 55.8685 98.9701 54.9878C98.1501 54.1255 97.7354 53.5942 97.0526 52.6197C96.3339 51.5939 95.8496 51.038 95.4091 49.8656C95.227 49.381 95.0352 48.5938 95.0352 48.5938C95.0352 48.5938 95.0968 49.4952 95.2372 50.0532C95.5586 51.3305 96.1084 51.9266 96.8482 53.0164C97.4947 53.9688 97.8624 54.5218 98.7068 55.304Z" fill="url(#paint11_linear_2667_491)"/>
<path d="M75.8462 79.9435C63.7443 81.4337 50.2196 81.5381 37.8984 80.2364C25.5773 78.9347 15.339 76.3197 9.1719 72.8993C3.00475 69.479 1.34884 65.4973 4.52572 61.7275C7.70261 57.9577 15.4856 54.6688 26.3632 52.4995C37.2408 50.3303 50.4368 49.4355 63.3886 49.9888C76.3405 50.5422 88.1237 52.5043 96.4502 55.494C104.777 58.4838 109.052 62.2878 108.447 66.1675C107.841 70.0471 102.397 73.7255 93.1723 76.4882L55.7255 65.4856L75.8462 79.9435Z" fill="#3E7E1F"/>
<path d="M69.3383 71.3403L93.1161 76.357L55.0252 65.2027L75.719 79.9016L69.3383 71.3403Z" fill="#3E7E1F"/>
<path d="M29.5669 52.3303C30.9611 60.6223 42.3109 66.1182 48.6176 66.1182C49.4295 66.1182 50.9837 64.7002 50.7053 59.0285C50.427 53.3568 44.3551 53.3307 41.354 54.0266C38.6138 52.8233 37.4308 49.3118 44.0072 41.0652C52.2277 30.757 44.0506 17.4603 34.5688 15.9688C27.8429 14.9108 21.8249 17.7521 19.2152 21.7536C16.3299 26.1776 19.6066 34.7585 22.3468 32.6707C27.8049 28.5122 32.3506 30.322 31.7851 38.6295C31.4662 43.3161 28.7405 47.4154 29.5669 52.3303Z" fill="#FFFCF9"/>
<path d="M29.5669 52.3303C30.9611 60.6223 42.3109 66.1182 48.6176 66.1182C49.4295 66.1182 50.9837 64.7002 50.7053 59.0285C50.427 53.3568 44.3551 53.3307 41.354 54.0266C38.6138 52.8233 37.4308 49.3118 44.0072 41.0652C52.2277 30.757 44.0506 17.4603 34.5688 15.9688C27.8429 14.9108 21.8249 17.7521 19.2152 21.7536C16.3299 26.1776 19.6066 34.7585 22.3468 32.6707C27.8049 28.5122 32.3506 30.322 31.7851 38.6295C31.4662 43.3161 28.7405 47.4154 29.5669 52.3303Z" fill="#DBA478"/>
<path d="M22.1727 32.7988C24.2437 31.9312 27.0441 28.7973 30.2192 31.6245C29.4411 30.1975 30.2686 27.493 32.7244 28.445C32.7243 26.84 33.2205 25.4917 35.5255 25.1437C34.0468 22.882 36.0796 20.4218 38.7091 22.3929C37.6133 21.2727 38.8245 17.885 41.4844 19.3155C29.5668 10.0946 20.172 19.9679 18.9541 22.0991C16.4293 26.5175 18.9541 34.1471 22.1727 32.7988Z" fill="#F3EFEA"/>
<path d="M22.0844 32.7983C20.7984 33.7715 19.2283 31.1165 18.9528 29.9711C21.4465 26.593 27.6865 21.1417 32.8711 27.057C32.7841 27.4339 32.6362 28.24 32.7406 28.4488C32.8711 28.7098 29.1306 27.5354 30.1309 31.3194C26.841 29.1983 23.7235 31.5578 22.1075 32.7808L22.0844 32.7983Z" fill="#CBB9A9"/>
<path d="M30.5205 45.0214C36.7489 37.1227 34.5945 29.7112 32.9127 27.1016C32.7735 27.3451 32.7242 28.1309 32.7387 28.4499C29.868 27.4495 29.3897 30.4507 30.3466 31.538C33.0258 35.2264 31.6369 42.0347 30.5205 45.0214Z" fill="#CD9163"/>
<path d="M31.7378 57.1582C36.6092 63.6824 45.3807 66.0456 48.3964 66.0311C58.1392 63.1083 47.686 56.8973 41.2198 54.0701C39.248 53.4467 36.6964 49.8511 43.3074 41.8481C51.4275 32.0183 45.0472 22.7539 42.568 20.4922C44.134 34.1495 39.4363 36.8027 36.9571 40.1953C34.4779 43.5879 31.0419 47.8069 32.5642 52.6783C33.2388 54.837 33.1006 56.1143 31.7378 57.1582Z" fill="#CD9163"/>
<path d="M56.8265 10.3996C59.3666 10.1212 62.7231 10.2836 63.9699 10.3996C67.0943 5.91966 72.0526 2.04863 72.7486 3.52745C73.3812 4.87187 73.5315 10.3996 73.5315 13.4442C74.6623 15.7495 77.5257 22.7086 71.3132 27.2756C74.9349 35.1916 88.7322 63.2892 68.9856 66.9427C67.0986 67.3342 59.8437 68.6825 51.5275 66.9427C31.7809 63.2892 45.8615 35.1916 49.4832 27.2756C43.2708 22.7086 46.1342 15.7495 47.265 13.4442C47.265 10.3996 47.4152 4.87187 48.0479 3.52745C48.7438 2.04863 53.7022 5.91966 56.8265 10.3996Z" fill="#F3EFEA"/>
<path d="M56.8296 10.3996C59.3697 10.1212 62.7261 10.2836 63.973 10.3996C67.0973 5.91966 72.0557 2.04863 72.7516 3.52745C73.3843 4.87187 73.5345 10.3996 73.5345 13.4442C73.9739 14.4881 74.4958 15.532 74.8438 17.0543C71.9151 18.6201 64.8226 20.2381 60.4035 14.1836C55.9844 20.2381 48.8484 18.6201 45.9198 17.0543C46.2677 15.532 46.8287 14.4881 47.268 13.4442C47.268 10.3996 47.4183 4.87187 48.051 3.52745C48.7469 2.04863 53.7053 5.91966 56.8296 10.3996Z" fill="#DBA478"/>
<ellipse cx="1.43533" cy="1.73979" rx="1.43533" ry="1.73979" transform="matrix(-1 0 0 1 67.0117 16.0117)" fill="#5F4B3D"/>
<ellipse cx="1.43533" cy="1.73979" rx="1.43533" ry="1.73979" transform="matrix(-1 0 0 1 57.0977 16.0117)" fill="#5F4B3D"/>
<path d="M61.9971 19.0193C62.8159 19.4747 61.4096 20.5127 60.567 21.0552C59.886 20.477 58.4845 19.4956 59.0404 19.0907C59.8581 18.495 61.2474 18.6023 61.9971 19.0193Z" fill="#5F4B3D"/>
<path d="M57.4866 21.4051C59.8353 23.4929 61.1546 21.7531 61.0531 20.7092C60.8067 20.3178 60.2123 19.8244 60.1397 20.6222C59.9658 22.536 58.3198 21.1024 57.7911 20.9702C57.4431 20.8832 57.3851 21.2746 57.4866 21.4051Z" fill="#5F4B3D"/>
<path d="M63.6267 21.4051C61.278 23.4929 59.9587 21.7531 60.0601 20.7092C60.3066 20.3178 60.901 19.8244 60.9735 20.6222C61.1475 22.536 62.7935 21.1024 63.3222 20.9702C63.6702 20.8832 63.7282 21.2746 63.6267 21.4051Z" fill="#5F4B3D"/>
<path d="M71.4069 27.189C75.5824 24.6141 75.4374 19.3599 74.843 17.0547C74.1123 17.507 72.7407 17.9391 72.1463 18.0986C72.7407 20.4038 72.7117 24.3096 68.5363 26.8845C69.0437 27.2759 70.1542 27.8849 71.4069 27.189Z" fill="#DED2C7"/>
<path d="M49.6634 27.189C45.4879 24.6141 45.6329 19.3599 46.2273 17.0547C46.9581 17.507 48.3296 17.9391 48.924 18.0986C48.3296 20.4038 48.3586 24.3096 52.5341 26.8845C52.0266 27.2759 50.9161 27.8849 49.6634 27.189Z" fill="#DED2C7"/>
<path d="M54.8336 29.5394C59.3222 34.6196 63.9556 31.6561 65.6519 29.5394C68.3659 26.0598 64.985 26.7847 62.9552 27.5821C62.1578 27.8866 59.618 28.3128 57.5303 27.5821C55.5005 26.7847 52.1195 26.0598 54.8336 29.5394Z" fill="#DED2C7"/>
<path d="M66.9258 10.2278C67.7957 8.66197 70.3706 4.83444 71.6232 4.3125" stroke="#AD8A70" stroke-width="0.207242" stroke-linecap="round"/>
<path d="M52.755 9.29513C52.7665 9.31573 52.7778 9.33612 52.7891 9.35631C52.7788 9.33717 52.7674 9.31674 52.755 9.29513C51.8731 7.71799 50.111 4.95661 48.8745 4.44141C48.6425 5.3113 48.1438 7.68611 48.1786 9.70427C49.1355 7.92098 50.4838 10.6177 50.7883 9.70427C51.0927 8.79088 49.8314 7.83399 50.6578 8.22545C51.4842 8.6169 51.6582 10.0522 51.5712 9.05184C51.4842 8.05147 49.6574 6.79012 50.8753 7.44254C51.8036 7.93987 52.5029 8.85842 52.755 9.29513Z" fill="#FFEEE7"/>
<path d="M52.8789 9.44487C52.6614 9.03892 51.9394 8.05304 50.9651 7.5311C49.7472 6.87868 51.574 8.14003 51.661 9.14041C51.748 10.1408 51.574 8.70546 50.7476 8.31401C49.9212 7.92256 51.1826 8.87944 50.8781 9.79283" stroke="#AD8A70" stroke-width="0.138161" stroke-linecap="round"/>
<path d="M67.3524 9.72579C67.3402 9.74755 67.3282 9.76902 67.3164 9.7902C67.3272 9.77011 67.3392 9.7486 67.3524 9.72579C68.2429 8.13899 70.3014 5.04222 71.5371 4.52734C71.7691 5.39724 72.2243 8.12001 72.1895 10.1382C71.2326 8.35488 69.6217 11.0515 69.3172 10.1382C69.0127 9.22477 70.2741 8.26789 69.4477 8.65934C68.6213 9.05079 68.4473 10.4861 68.5343 9.48574C68.6213 8.48536 70.4481 7.22401 69.2302 7.87643C68.3042 8.37254 67.606 9.2878 67.3524 9.72579Z" fill="#FFEEE7"/>
<path d="M67.2305 9.87847C67.4479 9.47252 68.17 8.48663 69.1443 7.9647C70.3621 7.31228 68.5354 8.57362 68.4484 9.574C68.3614 10.5744 68.5354 9.13906 69.3618 8.7476C70.1882 8.35615 68.9268 9.31303 69.2313 10.2264" stroke="#AD8A70" stroke-width="0.138161" stroke-linecap="round"/>
<path d="M53.1367 9.87719C52.2668 8.31138 50.2139 5.04928 48.9612 4.52734" stroke="#AD8A70" stroke-width="0.207242" stroke-linecap="round"/>
<path d="M73.5836 54.5469C73.2356 63.1588 71.1914 65.2466 68.7122 67.0299C71.1914 66.6529 75.9758 65.0291 77.9766 60.6796C76.8167 59.6792 74.8014 57.7655 73.5836 54.5469Z" fill="#CBB9A9"/>
<path d="M47.7899 52.6758C48.1379 62.0706 49.6602 65.2457 52.7483 67.029C50.2691 66.6521 44.8758 65.3327 42.875 60.9833C44.0349 59.9829 46.572 55.8944 47.7899 52.6758Z" fill="#CBB9A9"/>
<path d="M58.3153 67.5738C59.334 67.9263 61.8134 67.7207 62.9258 67.5738C62.5306 66.1892 61.7949 65.1153 61.5774 57.1992C61.2554 57.4719 60.4466 57.8516 59.4462 57.1992C59.4111 64.4998 59.2287 67.3335 58.3153 67.5738Z" fill="#DED2C7"/>
<path d="M72.1335 36.7591C71.9141 34.6985 69.6686 29.4203 68.6661 26.9694C69.0942 27.2138 70.2329 27.439 71.1452 27.1869C72.3195 29.5789 72.6331 33.9191 72.1335 36.7591Z" fill="#DED2C7"/>
<path d="M65.6653 11.3567C71.1456 13.314 71.4936 15.5322 72.146 18.0871C72.9289 17.8841 74.6165 17.4199 74.9297 17.1415C74.6542 16.1411 74.0598 14.0099 73.5379 13.4879C73.6248 10.1678 73.5987 3.42326 72.6245 3.17969L72.581 3.26668L72.1895 3.52765C72.6071 4.08438 72.5375 8.89199 72.581 11.1392C72.3635 12.2266 72.6245 13.7315 71.0587 12.0961C69.4929 10.4607 67.8401 11.3567 65.6653 11.3567Z" fill="#CD9163"/>
<path d="M51.3972 12.8368C49.3965 14.0981 49.5705 15.5013 48.9181 18.0562C48.1351 17.8532 46.3171 17.3341 46.0039 17.0558C46.2794 16.0554 46.7433 14.0111 47.2653 13.4892C47.2653 10.1836 47.5262 4.09435 48.1351 3.39844L48.1786 3.44193V3.7464C47.7611 4.30313 47.7002 9.4587 47.6567 11.7059C48.1786 11.9843 50.5274 12.6918 51.3972 12.8368Z" fill="#CD9163"/>
<path d="M49.0504 3.13672C51.1729 3.55427 55.1251 8.12411 56.8359 10.3568C56.5025 10.3858 55.5659 10.5308 54.6612 10.8788C53.5303 11.3137 54.6612 10.3133 54.2263 8.92151C53.7913 7.52968 50.7902 4.05011 49.0504 3.13672Z" fill="#CD9163"/>
<path d="M71.5819 3.39844C69.4594 3.81599 65.5506 8.12486 63.8398 10.3576C64.1733 10.3866 64.6314 10.4011 65.5361 10.749C66.4408 11.097 65.1012 10.4881 65.5361 9.09624C65.9711 7.70441 69.8421 4.31183 71.5819 3.39844Z" fill="#CD9163"/>
<ellipse cx="4.132" cy="3.52307" rx="4.132" ry="3.52307" transform="matrix(-1 0 0 1 51.9609 18.6211)" fill="#F1B09E"/>
<ellipse cx="4.132" cy="3.52307" rx="4.132" ry="3.52307" transform="matrix(-1 0 0 1 77.5352 18.6211)" fill="#F1B09E"/>
<path d="M41.0285 15.8012C45.5088 15.3698 49.3864 17.0052 52.5866 19.023C52.7829 19.2174 52.8859 19.9225 52.3197 19.4881C51.5576 18.9033 47.3486 15.6779 41.2362 15.864C40.8028 15.8274 41.4523 15.7905 41.0285 15.8012Z" fill="#FEFDFB"/>
<path d="M39.3235 20.166C43.9074 18.391 48.401 18.8135 52.2846 19.8135C52.5412 19.9437 52.8341 20.6 52.1266 20.3476C51.1744 20.0079 45.9169 18.1354 39.5576 20.1645C39.0938 20.2598 39.7649 20.0275 39.3235 20.166Z" fill="#FEFDFB"/>
<path d="M42.4802 26.2167C45.1305 23.03 48.6591 21.5338 51.9819 20.7185C52.2291 20.7129 52.7296 21.0887 52.0941 21.1843C51.2387 21.313 46.5171 22.0263 42.6539 26.121C42.3495 26.38 42.7494 25.9343 42.4802 26.2167Z" fill="#FEFDFB"/>
<path d="M80.1825 15.8012C75.7021 15.3698 71.8245 17.0052 68.6243 19.023C68.4281 19.2174 68.325 19.9225 68.8912 19.4881C69.6534 18.9033 73.8623 15.6779 79.9748 15.864C80.4081 15.8274 79.7587 15.7905 80.1825 15.8012Z" fill="#FEFDFB"/>
<path d="M81.8875 20.166C77.3035 18.391 72.8099 18.8135 68.9263 19.8135C68.6697 19.9437 68.3769 20.6 69.0843 20.3476C70.0365 20.0079 75.2941 18.1354 81.6533 20.1645C82.1172 20.2598 81.446 20.0275 81.8875 20.166Z" fill="#FEFDFB"/>
<path d="M78.7307 26.2207C76.0804 23.0339 72.5518 21.5377 69.229 20.7224C68.9818 20.7168 68.4813 21.0926 69.1169 21.1882C69.9722 21.3169 74.6938 22.0302 78.557 26.125C78.8615 26.3839 78.4615 25.9382 78.7307 26.2207Z" fill="#FEFDFB"/>
<path d="M57.6617 68.247C59.2793 67.7362 59.793 62.3753 59.793 51.1536C56.5744 50.4577 49.65 48.6222 47.7014 46.8477C48.1799 60.766 48.4722 64.5701 53.8777 67.6381C55.487 68.5515 56.8353 68.508 57.6617 68.247Z" fill="#F3EFEA"/>
<path d="M63.7523 68.247C62.1348 67.7362 61.6211 62.3753 61.6211 51.1536C65.6516 49.9068 73.7126 47.3 73.7126 46.8477C73.2342 60.766 72.9419 64.5701 67.5364 67.6381C65.9271 68.5515 64.5787 68.508 63.7523 68.247Z" fill="#F3EFEA"/>
<path d="M73.9688 46.3711L61.4858 51.025L61.8772 59.2455L73.0554 56.8968L73.9688 46.3711Z" fill="#F3EFEA"/>
<path d="M47.4844 46.4141L59.9674 50.72L59.4889 58.984L48.2238 55.3305L47.4844 46.4141Z" fill="#F3EFEA"/>
<path d="M72.8579 54.3322C73.6787 53.797 73.6408 54.9846 73.5539 55.985C73.172 60.378 72.8579 65.2494 67.1167 67.9025C64.7184 69.0109 63.6806 67.9895 63.3327 67.2066C73.032 66.3367 69.8568 56.2895 72.8579 54.3322Z" fill="#E5DDD8"/>
<path d="M57.2716 68.2031C59.3556 67.6076 59.3593 58.0687 59.5769 52.6754C59.6312 51.3278 57.9239 52.9799 57.9239 53.9802C57.9239 58.1958 56.616 64.843 55.0969 65.8978C54.5315 66.3763 52.983 66.9243 50.9648 65.4628C53.792 68.3335 56.1842 68.5945 57.2716 68.2031Z" fill="#E5DDD8"/>
<path d="M42.7907 60.9419C38.6152 54.1567 44.1825 38.1941 49.1409 28.2773C48.9525 28.7558 47.6447 34.5493 49.3149 41.1953C50.9851 47.8413 45.9223 58.8541 42.7907 60.9419Z" fill="#DBA478"/>
<path d="M77.7126 60.8552C81.9787 54.1266 76.9733 39.3253 71.6669 28.4081C71.849 28.8891 73.1516 34.3472 71.3925 40.9702C69.6334 47.5932 74.6092 58.7257 77.7126 60.8552Z" fill="#DBA478"/>
<path d="M74.1925 55.983C75.4451 51.9815 73.366 41.2963 72.1916 36.6279C72.7136 34.6445 71.9307 29.9587 71.4957 27.668C75.2942 34.9316 82.5434 51.764 77.8894 60.9414C76.7875 60.0425 74.7144 57.688 74.1925 55.983Z" fill="#CD9163"/>
<path d="M45.3557 57.201C44.103 53.1995 44.7902 45.153 48.3568 34.4968C48.3568 32.5395 48.4002 30.9157 48.8352 28.625C45.2686 36.2366 38.2225 52.3731 42.7025 60.8981C43.8043 59.9992 44.8337 58.906 45.3557 57.201Z" fill="#CD9163"/>
<defs>
<linearGradient id="paint0_linear_2667_491" x1="106.885" y1="38.6443" x2="105.897" y2="44.8536" gradientUnits="userSpaceOnUse">
<stop stop-color="#E09277"/>
<stop offset="1" stop-color="#FAE6CE"/>
</linearGradient>
<linearGradient id="paint1_linear_2667_491" x1="95.267" y1="38.9256" x2="96.2549" y2="45.1348" gradientUnits="userSpaceOnUse">
<stop stop-color="#E09277"/>
<stop offset="1" stop-color="#FAE6CE"/>
</linearGradient>
<linearGradient id="paint2_linear_2667_491" x1="92.217" y1="50.3556" x2="101.178" y2="56.0003" gradientUnits="userSpaceOnUse">
<stop offset="0.04" stop-color="#E09277"/>
<stop offset="0.942708" stop-color="#F7E7D8"/>
</linearGradient>
<linearGradient id="paint3_linear_2667_491" x1="92.217" y1="50.3556" x2="101.178" y2="56.0003" gradientUnits="userSpaceOnUse">
<stop offset="0.04" stop-color="#E09277"/>
<stop offset="0.942708" stop-color="#F7E7D8"/>
</linearGradient>
<radialGradient id="paint4_radial_2667_491" cx="0" cy="0" r="1" gradientUnits="userSpaceOnUse" gradientTransform="translate(101.24 41.4667) rotate(90.269) scale(15.0293 11.2159)">
<stop stop-color="#E09277"/>
<stop offset="0.4" stop-color="#F1BEAB"/>
</radialGradient>
<linearGradient id="paint5_linear_2667_491" x1="109.951" y1="50.3946" x2="100.99" y2="56.0394" gradientUnits="userSpaceOnUse">
<stop offset="0.04" stop-color="#E09277"/>
<stop offset="0.942708" stop-color="#F7E7D8"/>
</linearGradient>
<linearGradient id="paint6_linear_2667_491" x1="109.951" y1="50.3946" x2="100.99" y2="56.0394" gradientUnits="userSpaceOnUse">
<stop offset="0.04" stop-color="#E09277"/>
<stop offset="0.942708" stop-color="#F7E7D8"/>
</linearGradient>
<radialGradient id="paint7_radial_2667_491" cx="0" cy="0" r="1" gradientUnits="userSpaceOnUse" gradientTransform="translate(100.693 55.0881) rotate(-40.9302) scale(11.5 15.8154)">
<stop stop-color="#FCE5D0"/>
<stop offset="1" stop-color="#EFB7A4"/>
</radialGradient>
<radialGradient id="paint8_radial_2667_491" cx="0" cy="0" r="1" gradientUnits="userSpaceOnUse" gradientTransform="translate(100.152 55.2728) rotate(-128.137) scale(11.5176 14.9921)">
<stop stop-color="#FCE5D0"/>
<stop offset="1" stop-color="#EFB7A4"/>
</radialGradient>
<linearGradient id="paint9_linear_2667_491" x1="98.2116" y1="44.4297" x2="98.2116" y2="56.707" gradientUnits="userSpaceOnUse">
<stop stop-color="#E09277"/>
<stop offset="1" stop-color="#F0BFAF" stop-opacity="0"/>
</linearGradient>
<linearGradient id="paint10_linear_2667_491" x1="105.133" y1="45.2773" x2="105.133" y2="56.6374" gradientUnits="userSpaceOnUse">
<stop stop-color="#E09277"/>
<stop offset="1" stop-color="#F1C4B2" stop-opacity="0"/>
</linearGradient>
<linearGradient id="paint11_linear_2667_491" x1="98.7306" y1="49.167" x2="97.5949" y2="56.4882" gradientUnits="userSpaceOnUse">
<stop stop-color="#E09277"/>
<stop offset="1" stop-color="#F1BCA9" stop-opacity="0"/>
</linearGradient>
</defs>
</svg>
