<svg width="302" height="349" viewBox="0 0 302 349" fill="none" xmlns="http://www.w3.org/2000/svg">
<path d="M78.3638 175.057C76.1307 251.079 141.37 296.169 169.723 305.326L172.982 273.002C165.031 255.976 153.394 242.462 148.508 237.908C143.453 232.16 130.396 219.515 119.101 214.312C107.806 209.108 87.2365 185.974 78.3638 175.057Z" fill="#86A173"/>
<path d="M293.192 224.896C290.898 228.529 274.811 241.396 263.083 252.508L264.948 283.198C282.742 278.751 292.781 250.288 294.773 242.296C296.367 235.903 296.6 228.343 296.518 225.362C297.07 223.552 296.529 222.838 296.19 222.708C295.955 222.227 295.028 221.991 293.192 224.896Z" fill="#5A7639" stroke="#607B40" stroke-width="0.621734"/>
<path d="M209.204 239.947C208.971 267.375 225.387 282.383 233.624 286.458L237.058 277.913C234.67 271.543 231.236 266.342 229.801 264.564C228.31 262.35 224.471 257.425 221.181 255.239C217.891 253.054 211.826 244.134 209.204 239.947Z" fill="#5A7639" stroke="#5A7639" stroke-width="0.621734"/>
<path d="M227.364 202.088C233.385 245.103 210.704 272.051 198.611 280.148L191.458 267.44C193.895 256.945 198.213 248.072 200.101 244.985C201.985 241.2 206.998 232.677 211.712 228.567C216.427 224.456 224.111 209.201 227.364 202.088Z" fill="#5A7639" fill-opacity="0.5"/>
<path d="M292.191 111.109C315.288 124.125 314.307 131.03 313.894 133.849C312.002 146.733 287.087 153.598 275.368 156.828L275.01 156.926C215.277 173.393 98.4549 150.316 74.5615 146.003C50.6681 141.69 34.5445 134.729 23.7881 129.144C16.8319 125.532 12.4161 120.107 11.8852 118.082C11.1551 113.442 13.1157 105.894 23.7881 101.503C38.7613 96.6414 49.6726 87.0618 53.2566 82.8797L98.4549 39.3598C105.291 33.4787 121.831 20.3836 133.299 15.0514C173.6 -4.70903 207.701 6.81786 219.714 15.0514C227.015 19.6909 239.866 31.6064 252.351 53.3409C260.913 70.9841 275.067 93.0735 292.191 111.109Z" fill="#C16134" stroke="#C16134" stroke-width="0.621734"/>
<path d="M49.5679 114.334C166.327 73.3105 250.073 110.176 277.352 133.737C254.732 151.16 207.795 152.084 187.154 150.368C183.968 163.673 192.331 184.686 196.91 193.53C221.07 244.865 224.283 289.633 215.725 298.745C205.748 309.369 174.419 309.656 159.684 301.34C130.535 285.976 138.04 192.408 142.951 142.647C86.5629 136.311 57.2005 121.132 49.5679 114.334Z" fill="url(#paint0_linear_2455_5547)" stroke="#E8D9C6" stroke-width="0.621734"/>
<path d="M182.035 199.215C192.702 233.622 211.29 299.471 195.1 305.575" stroke="#C5A687" stroke-opacity="0.5" stroke-width="2.48694" stroke-linecap="round"/>
<path d="M153.496 197.43C153.497 227.227 155.99 299.125 170.019 304.565" stroke="#C5A687" stroke-opacity="0.5" stroke-width="2.48694" stroke-linecap="round"/>
<path fill-rule="evenodd" clip-rule="evenodd" d="M156.563 62.8744C121.644 78.6052 73.3777 83.8309 67.1522 70.0118C67.0985 69.8927 67.0478 69.7724 67 69.6509L98.4594 39.3598C105.296 33.4787 121.835 20.3836 133.304 15.0513C164.605 -0.296346 192.166 3.22994 208.543 9.42789C214.677 23.256 191.433 47.1657 156.563 62.8744Z" fill="#DC7747" fill-opacity="0.7"/>
<path d="M112.702 37.4745C116.712 44.4207 128.967 44.8534 140.073 38.441C151.18 32.0287 160.534 23.5143 156.524 16.5681C152.513 9.62191 136.657 6.87429 125.55 13.2867C114.444 19.6991 108.691 30.5283 112.702 37.4745Z" fill="#E6D2BA"/>
<path d="M114.763 31.3637C118.15 37.2317 127.037 38.4437 134.611 34.0708C142.185 29.6979 148.344 23.5113 144.957 17.6433C141.569 11.7753 129.916 8.44811 122.342 12.821C114.768 17.1939 111.375 25.4958 114.763 31.3637Z" fill="#F6ECE0"/>
<path d="M248.672 76.2881C245.18 82.3357 249.093 91.1316 257.412 95.9344C265.731 100.737 274.92 103.332 278.412 97.2842C281.904 91.2367 278.375 78.8369 270.056 74.0341C261.737 69.2313 252.163 70.2405 248.672 76.2881Z" fill="#E6D2BA"/>
<path d="M249.32 75.3556C246.775 79.763 249.627 86.1733 255.69 89.6735C261.752 93.1737 268.449 95.0646 270.994 90.6573C273.539 86.2499 270.967 77.2132 264.904 73.713C258.842 70.2128 251.864 70.9483 249.32 75.3556Z" fill="#F6ECE0"/>
<path d="M179.264 50.4604C179.141 41.4548 188.355 34.0267 199.845 33.8693C211.335 33.7119 221.463 45.5511 221.587 54.5567C221.71 63.5623 211.782 66.324 200.292 66.4814C188.802 66.6388 179.387 59.4659 179.264 50.4604Z" fill="#E6D2BA"/>
<path d="M180.617 46.6051C180.532 40.4188 186.965 35.3147 194.984 35.2049C203.004 35.095 210.071 43.2264 210.156 49.4127C210.241 55.599 203.311 57.4976 195.291 57.6075C187.272 57.7173 180.702 52.7914 180.617 46.6051Z" fill="#F6ECE0"/>
<path d="M82.9688 77.7977C79.6768 72.8887 82.0853 65.5043 88.3485 61.3041C94.6116 57.1039 104.421 59.9893 107.713 64.8983C111.005 69.8073 106.533 74.8809 100.27 79.081C94.0068 83.2812 86.2608 82.7066 82.9688 77.7977Z" fill="#E6D2BA"/>
<path d="M83.312 73.4144C81.0102 69.9821 82.6942 64.8189 87.0734 61.8822C91.4526 58.9454 98.3114 60.9629 100.613 64.3952C102.915 67.8276 99.7881 71.375 95.4089 74.3118C91.0297 77.2485 85.6137 76.8468 83.312 73.4144Z" fill="#F6ECE0"/>
<path d="M231.326 29.7605C233.56 26.7716 239.132 27.1595 243.77 30.627C248.409 34.0945 249.46 41.0765 247.226 44.0655C244.991 47.0545 240.317 44.9186 235.679 41.4511C231.04 37.9835 229.092 32.7495 231.326 29.7605Z" fill="#E6D2BA"/>
<path d="M231.426 29.7323C232.954 27.6878 236.76 27.9494 239.927 30.3166C243.093 32.6838 243.807 37.4556 242.279 39.5001C240.75 41.5446 237.559 40.0877 234.392 37.7205C231.225 35.3533 229.897 31.7769 231.426 29.7323Z" fill="#F6ECE0"/>
<path d="M290.969 112.078C292.983 109.385 298.003 109.734 302.182 112.858C306.362 115.983 307.309 122.274 305.296 124.967C303.282 127.66 299.071 125.736 294.891 122.611C290.712 119.487 288.956 114.771 290.969 112.078Z" fill="#E6D2BA"/>
<path d="M290.779 112.101C292.133 110.289 295.511 110.524 298.323 112.626C301.135 114.728 301.772 118.961 300.417 120.773C299.063 122.585 296.229 121.29 293.417 119.188C290.605 117.086 289.424 113.913 290.779 112.101Z" fill="#F6ECE0"/>
<path d="M56.9604 81.9293C54.947 79.2361 49.9268 79.5856 45.7474 82.71C41.568 85.8344 40.6208 92.1254 42.6341 94.8186C44.6475 97.5118 48.8589 95.5873 53.0383 92.4629C57.2177 89.3385 58.9737 84.6225 56.9604 81.9293Z" fill="#E6D2BA"/>
<path d="M53.0143 81.8875C51.5095 79.8746 47.7573 80.1358 44.6335 82.4711C41.5097 84.8063 40.8017 89.5084 42.3065 91.5213C43.8113 93.5343 46.9591 92.0959 50.0829 89.7606C53.2067 87.4254 54.5191 83.9005 53.0143 81.8875Z" fill="#F6ECE0"/>
<path d="M150.203 64.028C149.559 60.7276 145.712 58.7003 141.609 59.5001C137.506 60.2998 134.803 65.3823 135.447 68.6828C136.09 71.9832 139.836 72.2518 143.939 71.452C148.041 70.6523 150.846 67.3285 150.203 64.028Z" fill="#E6D2BA"/>
<path d="M147.237 63.0435C146.712 60.3459 143.567 58.6889 140.213 59.3426C136.86 59.9962 134.651 64.1504 135.176 66.848C135.702 69.5457 138.764 69.7652 142.117 69.1115C145.471 68.4578 147.763 65.7411 147.237 63.0435Z" fill="#F6ECE0"/>
<path d="M200.463 198.91C230.762 272.295 221.849 297.222 212.044 301.33C208.663 303.677 208.471 303.482 210.657 301.33C220.992 290.18 212.839 252.425 202.505 229.342C194.237 210.876 155.911 197.678 138.554 193.44C138.554 181.297 140.696 155.92 141.888 144.64C108.341 142.762 61.9975 126.198 49.3827 114.515C53.4451 111.658 57.4629 110.133 66.3666 112.95C85.6048 120.618 92.6667 116.406 93.7929 113.341C94.1904 112.558 94.5878 110.328 92.9979 107.668C91.408 105.007 92.0704 99.2682 92.9979 98.6161C94.1241 97.8988 97.6485 100.86 99.5564 103.364C104.167 110.094 115.919 115.036 121.219 116.666C126.254 117.579 136.562 119.092 137.516 117.84C138.47 116.588 137.384 115.101 136.721 114.515C133.011 109.363 127.062 98.5521 132.945 96.5177C138.828 94.4833 140.776 91.988 141.888 102.386C142.418 107.342 147.175 118.466 161.961 123.317C180.444 129.382 194.952 121.557 197.735 119.796C204.253 115.884 209.764 105.167 211.023 102.037C212.944 101.385 219.849 100.547 220.644 103.364C221.757 108.998 213.833 116.21 211.845 117.253C209.659 119.014 205.963 122.691 208.666 123.317C229.136 128.99 245.035 114.906 246.426 114.319C255.33 110.876 254.906 115.753 253.581 118.622L239.868 129.968C243.114 131.207 250.364 133.681 253.581 133.253C262.551 133.253 271.482 128.213 273.669 129.191C275.855 130.169 280.725 133.681 274.847 137.793C245.115 155.164 204.514 154.166 187.29 151.427C190.072 178.814 189.929 176.023 200.463 198.91Z" fill="#B49678"/>
<path d="M159.515 87.5234C229.237 88.503 267.886 117.784 278.543 133.913C249.113 106.331 188.212 98.6511 159.515 97.0839C130.817 95.5167 75.6041 106.161 48.7681 114.519C91.603 87.7202 137.365 87.5233 159.515 87.5234Z" fill="#9C5C3F"/>
<path d="M193.488 200.542C181.585 207.25 182.09 210.808 182.303 212.261C183.278 218.9 196.118 222.438 202.157 224.102L202.341 224.153C233.124 232.639 293.326 220.747 305.638 218.524C317.951 216.302 326.26 212.714 331.804 209.836C335.388 207.975 337.664 205.179 337.938 204.135C338.314 201.744 337.303 197.855 331.804 195.592C324.087 193.086 318.465 188.15 316.618 185.995L293.326 163.567C289.803 160.537 281.279 153.788 275.369 151.041C254.601 140.857 237.028 146.798 230.837 151.041C227.075 153.431 220.452 159.572 214.018 170.772C209.606 179.864 202.312 191.248 193.488 200.542Z" fill="#BC643A" stroke="#C96F44" stroke-width="0.621734"/>
<path d="M318.521 202.202C258.351 181.061 215.194 200.059 201.137 212.201C212.793 221.179 236.981 221.656 247.618 220.771C249.26 227.628 244.95 238.456 242.59 243.014C229.046 269.236 227.919 292.496 232.33 297.192C237.471 302.666 254.181 302.857 261.774 298.572C276.796 290.654 272.928 242.436 270.397 216.792C299.456 213.527 314.587 205.705 318.521 202.202Z" fill="#E8D9C6" stroke="#E8D9C6" stroke-width="0.621734"/>
<path d="M247.793 221.218C246.332 235.359 246.332 233.844 240.801 245.661C278.139 255.716 263.602 292.176 264.317 295.989C264.671 297.878 279.019 277.928 273.26 242.609C273.26 236.651 271.59 223.608 270.964 217.784C288.582 216.814 307.868 208.525 315.035 204.956C322.638 201.421 313.713 199.405 310.625 201.421C300.522 205.38 296.234 203.811 295.643 202.229C295.434 201.825 295.237 199.479 296.639 198.693C302.254 195.548 296.709 196.303 296.222 195.966C295.63 195.596 294.197 195.178 293.195 196.471C290.774 199.946 284.602 202.498 281.819 203.34C279.174 203.811 273.761 204.592 273.26 203.946C272.759 203.299 273.33 202.532 273.678 202.229C275.626 199.569 280.112 193.073 277.022 192.022C273.933 190.972 272.174 191.251 270.964 195.966C270.686 198.525 268.188 204.269 260.422 206.774C250.716 209.905 243.097 205.865 241.636 204.956C238.212 202.936 236.556 198.087 235.895 196.471C236.417 194.327 231.824 195.017 231.407 196.471C230.822 199.38 233.181 203.104 234.225 203.643C235.373 204.552 237.315 206.451 235.895 206.774C225.145 209.703 216.795 202.431 216.065 202.128C211.389 200.35 211.611 202.868 212.307 204.35L219.509 210.208C217.804 210.848 213.977 212.641 212.307 212.076C208.378 212.076 203.373 209.11 202.496 210.006C201.657 210.864 199.761 212.011 201.327 213.728C216.941 222.698 238.748 222.632 247.793 221.218Z" fill="#C5A687" stroke="#C5A687" stroke-width="0.621734"/>
<path d="M261.858 189.48C225.929 189.985 206.012 203.984 200.52 212.296C215.686 198.082 247.07 194.124 261.858 193.317C276.647 192.509 305.1 197.994 318.929 202.302C296.855 188.491 273.273 189.48 261.858 189.48Z" fill="#A46C53" stroke="#A46C53" stroke-width="0.621734"/>
<path d="M250.255 245.945C244.758 263.677 235.179 297.61 243.522 300.756" stroke="#C5A687" stroke-opacity="0.5" stroke-width="2.48694" stroke-linecap="round"/>
<path d="M264.961 245.027C264.961 260.383 263.676 297.434 256.446 300.237" stroke="#C5A687" stroke-opacity="0.5" stroke-width="2.48694" stroke-linecap="round"/>
<path fill-rule="evenodd" clip-rule="evenodd" d="M270.004 148.262C251.619 141.419 236.491 146.704 230.842 150.576C227.08 152.967 220.457 159.107 214.023 170.308C211.188 176.149 207.164 182.936 202.309 189.507C209.919 193.005 232.206 185.614 246.984 174.379C260.602 164.026 270.159 154.718 270.004 148.262Z" fill="#DC7747" fill-opacity="0.7"/>
<path d="M278.445 155.087C277.348 156.985 273.999 157.103 270.964 155.351C267.929 153.598 265.372 151.272 266.468 149.373C267.564 147.475 271.898 146.724 274.933 148.476C277.968 150.229 279.541 153.188 278.445 155.087Z" fill="#E6D2BA"/>
<path d="M274.839 153.067C273.913 154.67 271.485 155.002 269.415 153.807C267.345 152.611 265.661 150.921 266.587 149.317C267.513 147.713 270.698 146.804 272.768 147.999C274.838 149.194 275.765 151.463 274.839 153.067Z" fill="#F6ECE0"/>
<path d="M260.986 173.934C261.05 169.294 256.301 165.466 250.38 165.385C244.459 165.303 239.239 171.405 239.176 176.045C239.112 180.686 244.229 182.109 250.15 182.191C256.071 182.272 260.922 178.575 260.986 173.934Z" fill="#E6D2BA"/>
<path d="M255.443 172.174C255.487 168.986 252.172 166.356 248.039 166.299C243.906 166.243 240.264 170.433 240.22 173.621C240.177 176.809 243.748 177.787 247.881 177.844C252.014 177.901 255.399 175.362 255.443 172.174Z" fill="#F6ECE0"/>
<path d="M305.958 185.232C307.655 182.702 306.413 178.897 303.186 176.732C299.958 174.568 294.903 176.055 293.207 178.584C291.51 181.114 293.815 183.729 297.042 185.893C300.27 188.058 304.262 187.762 305.958 185.232Z" fill="#E6D2BA"/>
<path d="M302.252 182.977C303.439 181.208 302.571 178.547 300.314 177.034C298.057 175.52 294.523 176.56 293.337 178.329C292.15 180.098 293.762 181.926 296.019 183.439C298.275 184.953 301.066 184.746 302.252 182.977Z" fill="#F6ECE0"/>
<path d="M224.851 158.623C223.699 157.083 220.828 157.283 218.438 159.07C216.048 160.857 215.506 164.455 216.657 165.995C217.809 167.535 220.218 166.435 222.608 164.648C224.998 162.861 226.002 160.164 224.851 158.623Z" fill="#E6D2BA"/>
<path d="M222.603 158.602C221.815 157.548 219.854 157.683 218.222 158.903C216.59 160.123 216.222 162.582 217.01 163.635C217.798 164.689 219.443 163.938 221.074 162.718C222.706 161.498 223.391 159.655 222.603 158.602Z" fill="#F6ECE0"/>
<path d="M205.058 188.479C204.021 187.091 201.434 187.272 199.28 188.882C197.126 190.492 196.638 193.734 197.676 195.122C198.713 196.509 200.883 195.518 203.037 193.908C205.191 192.298 206.096 189.867 205.058 188.479Z" fill="#E6D2BA"/>
<path d="M203.613 188.052C202.914 187.118 201.174 187.239 199.725 188.322C198.276 189.406 197.947 191.587 198.645 192.521C199.343 193.454 200.804 192.787 202.253 191.704C203.702 190.621 204.311 188.985 203.613 188.052Z" fill="#F6ECE0"/>
<path d="M235.601 300.408L235.062 304.966L237.449 305.335L237.483 299.915C238.284 287.188 253.114 277.047 260.428 273.567L307.585 247.302C296.951 245.976 273.849 244.064 266.511 247.024C259.174 249.983 251.064 257.939 247.926 261.547C237.61 273.134 235.411 292.282 235.601 300.408Z" fill="#75A142"/>
<path d="M18.904 310.486C21.112 323.618 39.0869 332.322 49.075 332.322C50.3608 332.322 52.8223 330.077 52.3814 321.094C51.9406 312.112 42.3244 312.071 37.5714 313.173C33.2317 311.267 31.3581 305.706 41.7733 292.645C54.7924 276.32 41.8422 255.262 26.8256 252.9C16.1736 251.224 6.64271 255.724 2.50964 262.061C-2.0598 269.067 3.12959 282.657 7.46926 279.351C16.1134 272.765 23.3125 275.631 22.417 288.788C21.9118 296.21 17.5952 302.702 18.904 310.486Z" fill="#FFFCF9"/>
<path d="M18.9039 310.486C21.112 323.618 39.0869 332.322 49.075 332.322C50.3608 332.322 52.8223 330.077 52.3814 321.094C51.9406 312.112 42.3244 312.071 37.5714 313.173C33.2317 311.267 31.3581 305.706 41.7733 292.645C54.7924 276.32 41.8422 255.262 26.8256 252.9C16.1736 251.224 6.6427 255.724 2.50963 262.061C-2.0598 269.067 3.12959 282.657 7.46926 279.351C16.1134 272.765 23.3125 275.631 22.417 288.788C21.9118 296.21 17.5952 302.702 18.9039 310.486Z" fill="#DBA478"/>
<path d="M7.19299 279.557C10.4728 278.183 14.908 273.22 19.9365 277.698C18.7041 275.438 20.0146 271.154 23.9039 272.662C23.9037 270.12 24.6896 267.985 28.3401 267.434C25.9982 263.852 29.2176 259.956 33.3821 263.077C31.6466 261.303 33.5648 255.938 37.7773 258.203C18.9032 243.6 4.02434 259.237 2.09559 262.612C-1.90297 269.61 2.09559 281.693 7.19299 279.557Z" fill="#F3EFEA"/>
<path d="M7.05747 279.558C5.02077 281.1 2.53411 276.895 2.09785 275.081C6.04718 269.731 15.9297 261.097 24.1406 270.466C24.0029 271.063 23.7687 272.339 23.934 272.67C24.1406 273.083 18.2166 271.223 19.801 277.216C14.5907 273.857 9.65333 277.594 7.09398 279.531L7.05747 279.558Z" fill="#CBB9A9"/>
<path d="M20.4185 298.915C30.2827 286.406 26.8706 274.668 24.2071 270.535C23.9867 270.921 23.9086 272.165 23.9315 272.671C19.3852 271.086 18.6276 275.839 20.143 277.561C24.3863 283.403 22.1865 294.185 20.4185 298.915Z" fill="#CD9163"/>
<path d="M22.3521 318.135C30.0671 328.468 43.9588 332.211 48.7348 332.188C64.1647 327.559 47.6097 317.722 37.369 313.245C34.2462 312.257 30.2051 306.563 40.6752 293.888C53.5352 278.321 43.4306 263.648 39.5042 260.066C41.9843 281.696 34.5445 285.898 30.6182 291.271C26.6918 296.644 21.25 303.325 23.6609 311.04C24.7293 314.459 24.5105 316.482 22.3521 318.135Z" fill="#CD9163"/>
<path d="M62.084 244.086C66.1068 243.646 71.4225 243.903 73.3972 244.086C78.3453 236.991 86.198 230.861 87.3001 233.203C88.3021 235.332 88.54 244.086 88.54 248.908C90.331 252.559 94.8658 263.58 85.027 270.813C90.7627 283.35 112.614 327.849 81.3406 333.635C78.3521 334.255 66.8623 336.391 53.6918 333.635C22.4186 327.849 44.7185 283.35 50.4542 270.813C40.6154 263.58 45.1502 252.559 46.9412 248.908C46.9412 244.086 47.1791 235.332 48.1811 233.203C49.2832 230.861 57.136 236.991 62.084 244.086Z" fill="#F3EFEA"/>
<path d="M62.0838 244.086C66.1066 243.646 71.4223 243.903 73.3969 244.086C78.345 236.991 86.1978 230.861 87.2999 233.203C88.3019 235.332 88.5398 244.086 88.5398 248.908C89.2356 250.561 90.0622 252.215 90.6133 254.626C85.9751 257.105 74.7425 259.668 67.7439 250.079C60.7453 259.668 49.4438 257.105 44.8056 254.626C45.3567 252.215 46.2451 250.561 46.9409 248.908C46.9409 244.086 47.1788 235.332 48.1808 233.203C49.283 230.861 57.1357 236.991 62.0838 244.086Z" fill="#DBA478"/>
<ellipse cx="2.27316" cy="2.75535" rx="2.27316" ry="2.75535" transform="matrix(-1 0 0 1 78.2109 252.973)" fill="#5F4B3D"/>
<ellipse cx="2.27316" cy="2.75535" rx="2.27316" ry="2.75535" transform="matrix(-1 0 0 1 62.5078 252.973)" fill="#5F4B3D"/>
<path d="M70.2734 257.737C71.5701 258.458 69.3428 260.102 68.0084 260.961C66.9298 260.046 64.7103 258.491 65.5907 257.85C66.8857 256.907 69.086 257.077 70.2734 257.737Z" fill="#5F4B3D"/>
<path d="M63.1281 261.518C66.8478 264.824 68.9372 262.069 68.7765 260.415C68.3862 259.795 67.4448 259.014 67.3299 260.278C67.0545 263.309 64.4476 261.038 63.6103 260.829C63.0592 260.691 62.9673 261.311 63.1281 261.518Z" fill="#5F4B3D"/>
<path d="M72.8485 261.518C69.1288 264.824 67.0393 262.069 67.2 260.415C67.5904 259.795 68.5318 259.014 68.6466 260.278C68.9221 263.309 71.529 261.038 72.3663 260.829C72.9174 260.691 73.0092 261.311 72.8485 261.518Z" fill="#5F4B3D"/>
<path d="M85.1698 270.675C91.7826 266.597 91.553 258.276 90.6116 254.625C89.4543 255.341 87.2822 256.026 86.3408 256.278C87.2822 259.929 87.2363 266.115 80.6235 270.193C81.4271 270.813 83.1859 271.777 85.1698 270.675Z" fill="#DED2C7"/>
<path d="M50.7404 270.675C44.1275 266.597 44.3572 258.276 45.2986 254.625C46.4558 255.341 48.6279 256.026 49.5694 256.278C48.6279 259.929 48.6738 266.115 55.2867 270.193C54.483 270.813 52.7242 271.777 50.7404 270.675Z" fill="#DED2C7"/>
<path d="M58.9239 274.399C66.0327 282.445 73.3707 277.752 76.0571 274.399C80.3555 268.889 75.0009 270.037 71.7863 271.3C70.5235 271.782 66.5011 272.457 63.1947 271.3C59.9801 270.037 54.6256 268.889 58.9239 274.399Z" fill="#DED2C7"/>
<path d="M78.0742 243.81C79.4519 241.33 83.5298 235.268 85.5137 234.441" stroke="#AD8A70" stroke-width="0.386969" stroke-linecap="round"/>
<path d="M55.6374 242.335C55.6556 242.368 55.6736 242.4 55.6914 242.432C55.6752 242.402 55.6572 242.37 55.6374 242.335C54.2407 239.838 51.4501 235.464 49.4918 234.648C49.1244 236.026 48.3346 239.787 48.3897 242.983C49.9051 240.159 52.0405 244.43 52.5227 242.983C53.0049 241.537 51.0072 240.021 52.316 240.641C53.6248 241.261 53.9004 243.534 53.7626 241.95C53.6248 240.366 50.7317 238.368 52.6605 239.401C54.1307 240.189 55.2383 241.644 55.6374 242.335Z" fill="#FFEEE7"/>
<path d="M55.8281 242.569C55.4837 241.926 54.3402 240.365 52.7972 239.538C50.8684 238.505 53.7615 240.503 53.8993 242.087C54.0371 243.671 53.7615 241.398 52.4528 240.778C51.144 240.158 53.1416 241.674 52.6594 243.12" stroke="#AD8A70" stroke-width="0.257979" stroke-linecap="round"/>
<path d="M78.7484 243.022C78.729 243.056 78.71 243.09 78.6914 243.124C78.7085 243.092 78.7275 243.058 78.7484 243.022C80.1587 240.509 83.4188 235.604 85.3758 234.789C85.7432 236.167 86.4642 240.479 86.4091 243.675C84.8936 240.851 82.3423 245.122 81.8601 243.675C81.3779 242.228 83.3756 240.713 82.0668 241.333C80.758 241.953 80.4824 244.226 80.6202 242.642C80.758 241.057 83.6511 239.06 81.7224 240.093C80.2557 240.879 79.15 242.328 78.7484 243.022Z" fill="#FFEEE7"/>
<path d="M78.5586 243.257C78.903 242.614 80.0465 241.052 81.5895 240.226C83.5183 239.192 80.6252 241.19 80.4874 242.774C80.3496 244.359 80.6252 242.086 81.934 241.466C83.2428 240.846 81.2451 242.361 81.7273 243.808" stroke="#AD8A70" stroke-width="0.257979" stroke-linecap="round"/>
<path d="M56.2383 243.262C54.8606 240.782 51.6093 235.616 49.6254 234.789" stroke="#AD8A70" stroke-width="0.386969" stroke-linecap="round"/>
<path d="M88.617 314.004C88.0659 327.643 84.8284 330.949 80.902 333.774C84.8284 333.177 92.4056 330.605 95.5742 323.717C93.7373 322.132 90.5457 319.101 88.617 314.004Z" fill="#DED2C7"/>
<path d="M47.7682 311.039C48.3193 325.918 50.7302 330.946 55.621 333.771C51.6946 333.174 43.153 331.084 39.9844 324.196C41.8213 322.612 45.8395 316.136 47.7682 311.039Z" fill="#DED2C7"/>
<path d="M64.4366 334.634C66.0499 335.192 69.9766 334.866 71.7383 334.634C71.1124 332.441 69.9473 330.74 69.6029 318.203C69.0929 318.635 67.8119 319.236 66.2276 318.203C66.172 329.765 65.8832 334.253 64.4366 334.634Z" fill="#DED2C7"/>
<path d="M86.3222 285.834C85.9748 282.57 82.4184 274.211 80.8309 270.329C81.5088 270.717 83.3121 271.073 84.757 270.674C86.6168 274.462 87.1134 281.336 86.3222 285.834Z" fill="#DED2C7"/>
<path d="M76.0778 245.602C84.7571 248.702 85.3082 252.215 86.3414 256.262C87.5814 255.94 90.254 255.205 90.75 254.764C90.3137 253.18 89.3723 249.804 88.5457 248.978C88.6835 243.72 88.6422 233.038 87.0992 232.652L87.0303 232.79L86.4103 233.203C87.0716 234.085 86.9614 241.699 87.0303 245.258C86.6859 246.98 87.0992 249.364 84.6194 246.773C82.1395 244.183 79.522 245.602 76.0778 245.602Z" fill="#CD9163"/>
<path d="M53.4869 247.944C50.3182 249.941 50.5938 252.164 49.5605 256.21C48.3206 255.888 45.4413 255.066 44.9453 254.626C45.3816 253.041 46.1163 249.804 46.9429 248.977C46.9429 243.742 47.3562 234.098 48.3206 232.996L48.3895 233.065V233.547C47.7282 234.429 47.6318 242.594 47.5629 246.153C48.3895 246.594 52.1092 247.714 53.4869 247.944Z" fill="#CD9163"/>
<path d="M49.7636 232.582C53.1251 233.243 59.3843 240.481 62.0938 244.017C61.5656 244.063 60.0823 244.292 58.6496 244.843C56.8586 245.532 58.6496 243.948 57.9607 241.744C57.2719 239.539 52.5189 234.029 49.7636 232.582Z" fill="#CD9163"/>
<path d="M85.4488 232.996C82.0873 233.657 75.8969 240.481 73.1875 244.017C73.7156 244.063 74.4412 244.086 75.874 244.637C77.3067 245.189 75.1851 244.224 75.874 242.02C76.5628 239.816 82.6934 234.443 85.4488 232.996Z" fill="#CD9163"/>
<ellipse cx="6.54395" cy="5.57958" rx="6.54395" ry="5.57958" transform="matrix(-1 0 0 1 54.3828 257.102)" fill="#F1B09E"/>
<ellipse cx="6.54395" cy="5.57958" rx="6.54395" ry="5.57958" transform="matrix(-1 0 0 1 94.8828 257.102)" fill="#F1B09E"/>
<path d="M37.084 252.648C44.1797 251.964 50.3207 254.555 55.389 257.75C55.6997 258.058 55.863 259.175 54.9662 258.487C53.7592 257.561 47.0934 252.452 37.4129 252.747C36.7267 252.689 37.7552 252.631 37.084 252.648Z" fill="#FEFDFB"/>
<path d="M34.3866 259.562C41.6463 256.751 48.7629 257.42 54.9135 259.004C55.3199 259.21 55.7837 260.25 54.6633 259.85C53.1553 259.312 44.8287 256.346 34.7575 259.56C34.0228 259.711 35.0858 259.343 34.3866 259.562Z" fill="#FEFDFB"/>
<path d="M39.3844 269.147C43.5817 264.1 49.1701 261.73 54.4325 260.439C54.824 260.43 55.6167 261.025 54.6102 261.177C53.2555 261.381 45.7778 262.51 39.6596 268.995C39.1773 269.405 39.8108 268.699 39.3844 269.147Z" fill="#FEFDFB"/>
<path d="M99.0683 252.648C91.9727 251.964 85.8316 254.555 80.7634 257.75C80.4526 258.058 80.2894 259.175 81.1861 258.487C82.3931 257.561 89.059 252.452 98.7394 252.747C99.4257 252.689 98.3972 252.631 99.0683 252.648Z" fill="#FEFDFB"/>
<path d="M101.762 259.562C94.5021 256.751 87.3855 257.42 81.2349 259.004C80.8285 259.21 80.3648 260.25 81.4852 259.85C82.9931 259.312 91.3197 256.346 101.391 259.56C102.126 259.711 101.063 259.343 101.762 259.562Z" fill="#FEFDFB"/>
<path d="M96.7718 269.147C92.5745 264.1 86.9862 261.73 81.7237 260.439C81.3323 260.43 80.5396 261.025 81.5461 261.177C82.9008 261.381 90.3785 262.51 96.4967 268.995C96.9789 269.405 96.3455 268.699 96.7718 269.147Z" fill="#FEFDFB"/>
<path d="M63.402 335.703C65.9638 334.894 66.7773 326.404 66.7773 308.632C61.6799 307.53 50.7136 304.623 47.6277 301.812C48.3854 323.855 48.8483 329.88 57.4092 334.739C59.9579 336.185 62.0933 336.117 63.402 335.703Z" fill="#F3EFEA"/>
<path d="M73.0511 335.703C70.4893 334.894 69.6758 326.404 69.6758 308.632C76.059 306.657 88.8255 302.529 88.8255 301.812C88.0677 323.855 87.6048 329.88 79.044 334.739C76.4953 336.185 74.3599 336.117 73.0511 335.703Z" fill="#F3EFEA"/>
<path d="M89.2344 301.051L69.4648 308.421L70.0847 321.44L87.7878 317.721L89.2344 301.051Z" fill="#F3EFEA"/>
<path d="M47.2852 301.125L67.0548 307.944L66.2971 321.032L48.4562 315.246L47.2852 301.125Z" fill="#F3EFEA"/>
<path d="M87.4652 313.664C88.765 312.816 88.7051 314.697 88.5674 316.281C87.9627 323.239 87.4652 330.954 78.3727 335.155C74.5744 336.911 72.9309 335.293 72.3798 334.053C87.7408 332.676 82.7122 316.764 87.4652 313.664Z" fill="#E5DDD8"/>
<path d="M62.7846 335.63C66.0851 334.687 66.0909 319.58 66.4355 311.038C66.5216 308.904 63.8177 311.52 63.8177 313.105C63.8177 319.781 61.7463 330.308 59.3405 331.979C58.4451 332.736 55.9926 333.604 52.7964 331.29C57.2738 335.836 61.0625 336.249 62.7846 335.63Z" fill="#E5DDD8"/>
<path d="M39.8485 324.126C33.2356 313.38 42.0528 288.1 49.9056 272.395C49.6071 273.152 47.5359 282.328 50.1811 292.853C52.8262 303.378 44.8082 320.82 39.8485 324.126Z" fill="#DBA478"/>
<path d="M95.1582 323.99C101.914 313.334 93.9873 289.893 85.5835 272.603C85.8718 273.365 87.9348 282.009 85.1489 292.498C82.3629 302.987 90.2433 320.618 95.1582 323.99Z" fill="#DBA478"/>
<path d="M89.5794 316.273C91.5632 309.936 88.2705 293.013 86.4106 285.62C87.2372 282.479 85.9973 275.058 85.3085 271.43C91.3243 282.933 102.805 309.591 95.4343 324.126C93.6892 322.702 90.406 318.973 89.5794 316.273Z" fill="#CD9163"/>
<path d="M43.9118 318.206C41.9279 311.869 43.0163 299.125 48.6648 282.249C48.6648 279.149 48.7335 276.577 49.4224 272.949C43.7738 285.004 32.6147 310.56 39.7098 324.061C41.4549 322.637 43.0852 320.906 43.9118 318.206Z" fill="#CD9163"/>
<path d="M85.2083 295.725C86.3425 297.895 94.8999 305.953 101.055 312.811L98.518 330.163C88.5829 326.81 84.224 310.172 83.4713 305.538C82.8691 301.832 83.099 297.525 83.2892 295.835C83.0614 294.781 83.404 294.4 83.6038 294.342C83.7606 294.08 84.301 293.988 85.2083 295.725Z" fill="#5A7639" stroke="#607B40" stroke-width="0.621734"/>
<path d="M205.464 274.076C213.218 300.833 193.195 315.502 184.958 319.577L181.524 311.033C183.912 304.662 187.346 299.462 188.782 297.684C190.273 295.469 194.112 290.545 197.402 288.359C200.691 286.173 202.843 278.263 205.464 274.076Z" fill="#5A7639"/>
<path d="M211.704 307.967C198.319 304.02 189.08 317.157 186.133 324.219L188.617 329.153C192.855 324.582 197.676 324.219 201.914 325.163C206.151 326.106 211.704 329.153 219.009 329.951C232.452 331.054 241.219 330.411 243.922 329.951C238.759 324.268 225.088 311.914 211.704 307.967Z" fill="#75A142"/>
<path d="M101.852 279.367C133.919 294.464 168.884 285.657 181.734 279.367C180.2 292.113 190.69 317.789 196.226 322.43C200.654 326.142 198.382 330.04 196.693 331.525C192.851 332.762 191.624 333.979 191.49 334.433C187.422 342.043 178.018 347.24 169.081 343.837C161.931 341.115 155.475 341.837 153.141 342.538C139.668 348.23 128.53 345.384 125.062 343.837C121.594 342.29 114.457 336.846 103.453 338.949C92.448 341.053 85.5117 333.628 87.1791 330.597C88.513 328.171 94.4044 319.027 97.1833 314.758C101.932 310.847 102.274 289.535 101.852 279.367Z" fill="#5B4739"/>
<path d="M101.802 279.859C140.758 291.1 170.578 285.801 180.487 280.725C182.694 295.21 178.004 310.499 176.901 313.347C176.018 315.625 173.452 317.391 172.279 317.989C171.866 318.361 167.244 317.185 164.83 314.771C162.416 312.356 163.52 312.975 156.002 300.224C149.987 290.023 147.61 296.634 147.173 301.214L146.139 319.413C145.564 324.014 143.614 334.022 140.414 337.24C137.214 340.459 136.322 343.369 136.276 344.421C133.379 344.772 126.661 344.718 122.964 341.697C119.267 338.676 110.986 337.178 107.307 336.807C105.997 332.907 106.909 326.738 107.928 325.232C108.949 323.72 110.48 318.856 111.032 316.256C111.749 308.283 111.33 298.738 111.032 294.963C110.572 294.261 109.583 293.539 109.307 296.262C109.362 303.789 105.836 312.026 104.065 315.204C96.0645 325.157 94.3535 334.977 94.6064 338.258C90.9968 337.66 84.7287 333.185 86.6152 330.865C89.4286 327.404 93.1593 319.803 94.5387 317.967C103.063 310.234 102.17 287.473 101.802 279.859Z" fill="#695546"/>
<path d="M168.014 294.316C168.288 294.266 169.543 288.686 170.137 285.902L166.234 286.521C166.302 287.449 166.439 293.759 166.919 294.316C167.302 294.761 167.809 294.501 168.014 294.316Z" fill="#AD7D5E" stroke="#AD7D5E" stroke-width="0.621734"/>
<path d="M129.328 302.733C129.807 302.485 130.172 290.422 130.766 287.638L122.481 287.02C126.452 292.463 127.89 302.238 128.369 302.795C128.753 303.24 129.122 302.918 129.328 302.733Z" fill="#AD7D5E" stroke="#AD7D5E" stroke-width="0.621734"/>
<path d="M101.733 279.164C101.733 284.153 110.36 287.516 142.154 288.073C173.947 288.629 181.867 282.443 181.867 278.298C181.868 273.72 170.576 269.266 148.567 269.266C122.137 268.648 101.733 274.176 101.733 279.164Z" fill="#AD7D5E"/>
<path d="M97.2085 337.707L97.2899 340.617L95.7155 341.272L96.0138 337.707C96.2435 329.459 87.1964 325.332 82.6442 324.3L53.5227 315.119C60.5173 312.414 75.656 307.175 80.254 307.86C84.8519 308.546 89.6572 312.39 91.4851 314.227C97.5112 320.084 97.8116 332.32 97.2085 337.707Z" fill="#81B148"/>
<path d="M162.402 235.614C162.3 238.218 161.852 242.04 161.176 244.195C161.818 250.249 167.813 246.225 169.588 246.013C174.748 244.336 175.929 240.264 175.337 234.769C171.871 224.665 154.156 213.576 152.465 212.646L152.443 212.634C150.688 211.668 140.676 206.161 132.09 211.885C123.466 217.634 106.432 228.85 108.293 236.29C110.153 243.73 115.772 246.591 119.154 245.154C121.859 244.004 122.595 239.179 121.735 236.924C133.91 216.295 162.529 232.359 162.402 235.614Z" fill="#A36B52" stroke="#A36B52" stroke-width="0.0845457"/>
<path fill-rule="evenodd" clip-rule="evenodd" d="M162.648 219.791C170.901 227.691 175.37 237.878 164.472 240.136C163.643 240.308 162.795 240.463 161.93 240.603C162.181 238.894 162.345 237.065 162.402 235.614C162.529 232.359 133.91 216.295 121.735 236.924C122.059 237.774 122.156 238.987 122.008 240.232C121.709 240.199 121.421 240.167 121.142 240.136C108.993 238.779 110.902 229.347 120.897 219.699C124.701 216.809 128.659 214.171 131.687 212.153C131.823 212.063 131.957 211.973 132.09 211.885C136.661 208.837 141.637 208.973 145.555 209.913C145.694 210.011 145.827 210.109 145.957 210.207C146.759 210.33 147.59 210.528 148.441 210.792C150.426 211.524 151.872 212.319 152.443 212.634L152.465 212.646C153.278 213.093 157.793 215.887 162.648 219.791Z" fill="#BC856D"/>
<path d="M154.879 217.558C154.076 219.445 155.871 222.016 158.889 223.301C161.906 224.585 165.084 225.188 165.887 223.301C166.69 221.414 164.815 217.751 161.797 216.466C158.78 215.182 155.682 215.671 154.879 217.558Z" fill="#F2E4D3"/>
<path d="M120.066 221.489C120.895 222.625 120.094 224.621 118.277 225.947C116.46 227.272 114.43 228.167 113.601 227.03C112.772 225.894 113.458 223.156 115.275 221.831C117.092 220.506 119.237 220.353 120.066 221.489Z" fill="#E6D2BA"/>
<path d="M119.147 221.241C119.761 222.083 119.168 223.561 117.822 224.542C116.476 225.524 114.973 226.186 114.36 225.345C113.746 224.503 114.254 222.476 115.599 221.495C116.945 220.513 118.533 220.4 119.147 221.241Z" fill="#F6ECE0"/>
<path d="M143.588 219.246C142.826 220.5 146.394 221.872 147.849 221.996C150.983 222.396 151.313 220.523 150.205 219.318C149.604 218.663 147.313 217.072 146.288 217.39C144.673 217.891 144.173 218.135 143.588 219.246Z" fill="#E6D2BA"/>
<path d="M143.811 218.977C143.218 219.954 145.998 221.023 147.131 221.12C149.573 221.432 149.83 219.972 148.967 219.033C148.499 218.523 146.714 217.283 145.915 217.531C144.656 217.922 144.267 218.111 143.811 218.977Z" fill="#F6ECE0"/>
<ellipse cx="1.86001" cy="1.22591" rx="1.86001" ry="1.22591" transform="matrix(-1 0 0 1 142.531 211.605)" fill="#E6D2BA"/>
<ellipse cx="1.47955" cy="0.972276" rx="1.47955" ry="0.972276" transform="matrix(-1 0 0 1 141.852 211.691)" fill="#F6ECE0"/>
<ellipse cx="5.49547" cy="3.76228" rx="5.49547" ry="3.76228" transform="matrix(-0.983847 0.179012 0.179012 0.983847 137.707 215.246)" fill="#F2E4D3"/>
<ellipse cx="5.49547" cy="3.76228" rx="5.49547" ry="3.76228" transform="matrix(-0.983847 0.179012 0.179012 0.983847 137.707 215.246)" fill="#F2E4D3"/>
<ellipse cx="5.49547" cy="3.76228" rx="5.49547" ry="3.76228" transform="matrix(-0.983847 0.179012 0.179012 0.983847 137.707 215.246)" fill="#E6D2BA"/>
<ellipse cx="4.18694" cy="2.86645" rx="4.18694" ry="2.86645" transform="matrix(-0.983847 0.179012 0.179012 0.983847 135.797 215.746)" fill="#F6ECE0"/>
<path d="M123.741 218.165C124.238 218.9 125.674 218.797 126.948 217.936C128.223 217.075 128.853 215.781 128.356 215.046C127.438 214.603 126.424 214.413 125.15 215.274C123.875 216.136 123.591 217.35 123.741 218.165Z" fill="#E6D2BA"/>
<path d="M123.818 217.655C124.218 218.245 125.372 218.163 126.396 217.471C127.42 216.779 127.927 215.739 127.528 215.148C126.79 214.792 125.974 214.639 124.95 215.332C123.926 216.024 123.698 217 123.818 217.655Z" fill="#F6ECE0"/>
<path d="M168.596 231.757C167.983 232.398 168.386 233.78 169.497 234.844C170.608 235.908 172.006 236.25 172.62 235.61C172.859 234.618 172.83 233.587 171.719 232.523C170.608 231.459 169.36 231.439 168.596 231.757Z" fill="#E6D2BA"/>
<path d="M168.606 231.653C168.138 232.142 168.446 233.196 169.293 234.008C170.141 234.82 171.208 235.081 171.676 234.592C171.858 233.836 171.836 233.049 170.989 232.238C170.141 231.426 169.189 231.41 168.606 231.653Z" fill="#F6ECE0"/>
<path d="M154.879 217.558C154.076 219.445 155.871 222.016 158.889 223.301C161.906 224.585 165.084 225.188 165.887 223.301C166.69 221.414 164.815 217.751 161.797 216.466C158.78 215.182 155.682 215.671 154.879 217.558Z" fill="#E6D2BA"/>
<path d="M155.602 217.004C155.003 218.411 156.342 220.329 158.592 221.286C160.842 222.244 163.212 222.694 163.811 221.286C164.41 219.879 163.011 217.147 160.761 216.19C158.511 215.232 156.201 215.596 155.602 217.004Z" fill="#F6ECE0"/>
<ellipse cx="1.31046" cy="1.5641" rx="1.31046" ry="1.5641" transform="matrix(-1 0 0 1 114.293 235.445)" fill="#F2E4D3"/>
<ellipse cx="1.05682" cy="1.26819" rx="1.05682" ry="1.26819" transform="matrix(-1 0 0 1 113.789 235.445)" fill="#F6ECE0"/>
<path d="M166.614 253.147C166.379 249.164 165.155 239.771 162.081 233.397C158.987 226.981 135.67 229.611 124.398 231.728C122.893 233.884 119.55 241.024 118.225 252.331C117.579 251.445 114.705 249.519 113.13 250.538C111.162 251.813 113.666 258.147 118.225 260.853C118.48 264.606 120.304 271.59 126.095 274.843C124.047 274.34 119.902 274.593 119.707 279.629C119.623 284.194 134.251 281.927 137.506 277.421L149.932 277.651C152.351 280.205 164.403 283.559 166.717 279.755C167.187 277.988 166.31 273.599 161.333 273.845C163.051 272.692 165.638 266.344 166.594 259.864C168.146 259.573 174.616 254.977 175.219 250.538C174.068 248.124 166.537 250.491 166.614 253.147Z" fill="#D1BC9F"/>
<path d="M124.491 236.107C125.598 233.18 155.238 231.959 160.299 234.332C170.73 255.122 161.625 265.215 155.13 269.264C148.958 273.111 136.276 272.772 131.837 269.982C116.689 260.461 120.651 246.257 124.491 236.107Z" fill="#F2E4D3"/>
<ellipse cx="1.94455" cy="2.79001" rx="1.94455" ry="2.79001" transform="matrix(-1 0 0 1 153.773 242.379)" fill="#564035"/>
<ellipse cx="1.94455" cy="2.79001" rx="1.94455" ry="2.79001" transform="matrix(-1 0 0 1 135.934 242.379)" fill="#564035"/>
<path d="M145.914 248.772C145.914 248.425 145.525 248.217 145.226 248.394C143.369 249.488 142.154 249.449 140.506 248.418C140.217 248.237 139.827 248.436 139.827 248.777C139.827 248.915 139.895 249.045 140.009 249.121C142.242 250.616 143.55 250.608 145.728 249.126C145.845 249.046 145.914 248.913 145.914 248.772Z" fill="#70554A"/>
<path d="M119.068 236.704C134.793 217.766 157.465 227.742 166.836 235.097C163.961 239.426 159.635 235.887 158.255 233.576C152.877 235.943 149.701 233.773 148.363 232.392C144.102 235.064 139.711 234.294 138.048 233.576C137.304 235.199 131.566 234.844 128.79 234.463C130.059 237.972 117.334 238.648 119.068 236.704Z" fill="#E8D8C8" stroke="#F2E4D3" stroke-width="0.0845457"/>
<path d="M153.305 227.79C150.599 233.666 138.425 239.246 131.238 227.621" stroke="#D1BC9F" stroke-width="1.09909"/>
<path d="M137.961 233.707C135.509 235.821 126.505 235.567 125.575 230.621" stroke="#D1BC9F" stroke-width="1.09909"/>
<path d="M128.96 234.469C129.087 238.231 118.011 238.316 118.983 236.794" stroke="#D1BC9F" stroke-width="1.09909"/>
<path d="M160.832 231.086C158.549 235.82 149.926 234.721 148.446 232.439" stroke="#D1BC9F" stroke-width="1.09909"/>
<path d="M166.836 235.018C164.384 238.189 159.269 236.244 157.874 233.75" stroke="#D1BC9F" stroke-width="1.09909"/>
<path d="M167.215 235.401C156.507 225.021 133.097 220.614 119.476 235.82C119.11 236.232 118.749 236.658 118.392 237.098C118.746 236.657 119.108 236.231 119.476 235.82C135.062 218.294 159.28 226.333 167.215 235.401Z" fill="#886653"/>
<path d="M167.215 235.401L167.08 235.54L167.36 235.273L167.215 235.401ZM118.11 237.139C118.043 237.223 118.057 237.345 118.141 237.412C118.224 237.479 118.346 237.465 118.413 237.381L118.11 237.139ZM167.35 235.261C161.959 230.036 153.384 226.323 144.449 225.822C135.509 225.321 126.189 228.035 119.332 235.691L119.621 235.949C126.384 228.399 135.58 225.713 144.427 226.209C153.279 226.705 161.762 230.386 167.08 235.54L167.35 235.261ZM119.332 235.691C118.961 236.105 118.597 236.533 118.241 236.976L118.544 237.219C118.895 236.781 119.254 236.358 119.621 235.949L119.332 235.691ZM118.241 236.976C118.198 237.031 118.154 237.085 118.111 237.14L118.415 237.381C118.457 237.327 118.5 237.273 118.544 237.219L118.241 236.976ZM118.413 237.381C118.456 237.327 118.5 237.273 118.543 237.22L118.242 236.976C118.198 237.03 118.154 237.085 118.11 237.139L118.413 237.381ZM118.543 237.22C118.898 236.782 119.257 236.358 119.621 235.949L119.331 235.691C118.963 236.105 118.6 236.533 118.242 236.976L118.543 237.22ZM119.621 235.949C127.365 227.241 137.25 224.884 146.194 225.831C155.148 226.779 163.139 231.037 167.069 235.528L167.36 235.273C163.356 230.697 155.27 226.402 146.235 225.445C137.19 224.487 127.173 226.873 119.331 235.691L119.621 235.949Z" fill="#886653"/>
<path d="M155.594 274.125C155.594 275.036 159.65 277.592 161.682 277.592C163.713 277.592 165.359 276.853 165.359 275.943C165.359 275.032 164.178 273.533 162.147 273.533C159.991 273.364 155.594 273.215 155.594 274.125Z" fill="#F2E4D3"/>
<path d="M131.216 275.176C131.216 276.087 127.033 276.994 125.002 276.994C122.971 276.994 120.605 277.481 120.605 276.571C120.605 275.66 122.59 274.204 124.621 274.204C126.777 274.034 131.216 274.266 131.216 275.176Z" fill="#F2E4D3"/>
<path d="M118.564 255.44C120.153 254.358 120.959 254.355 121.48 255.059L121.311 252.912L119.832 252.109C118.958 251.912 116.856 251.289 115.435 250.579C114.015 249.868 113.153 250.57 112.857 251.086C112.476 252.049 118.437 257.309 118.944 257.14C119.35 257.004 119.127 256.581 118.564 255.44Z" fill="#F2E4D3" stroke="#F2E4D3" stroke-width="0.0845457"/>
<path d="M167.718 254.662C166.128 253.58 165.322 253.577 164.801 254.282L164.97 252.135L166.449 251.331C167.323 251.134 169.403 249.801 170.846 249.801C172.434 249.801 173.129 249.792 173.424 250.308C173.805 251.272 167.844 256.531 167.337 256.362C166.931 256.227 167.154 255.804 167.718 254.662Z" fill="url(#paint1_linear_2455_5547)" stroke="#F2E4D3" stroke-width="0.0845457"/>
<path d="M151.652 229.527C148.531 231.353 140.306 233.908 133.221 229.527C136.23 233.611 144.127 239.327 151.652 229.527Z" fill="#D1BC9F"/>
<path d="M150.874 231.347C154.1 233.567 158.174 232.834 159.741 232.087C158.825 233.671 155.409 236.092 149.075 233.103L150.874 231.347Z" fill="#D1BC9F"/>
<path d="M159.87 232.985C161.943 235.791 165.347 235.855 166.76 235.422C165.678 236.804 162.422 238.528 158.048 234.367L159.87 232.985Z" fill="#D1BC9F"/>
<path d="M127.387 233.332C125.619 236.339 120.425 237.125 118.975 236.842C120.194 238.103 125.428 239.111 129.343 234.516L127.387 233.332Z" fill="#D1BC9F"/>
<path d="M135.982 231.765C132.755 233.985 128.681 233.252 127.115 232.505C128.031 234.089 131.447 236.51 137.78 233.521L135.982 231.765Z" fill="#D1BC9F"/>
<ellipse cx="6.67911" cy="5.19956" rx="6.67911" ry="5.19956" transform="matrix(-1 0 0 1 168.562 243.902)" fill="#DAAA93"/>
<ellipse cx="6.67911" cy="5.19956" rx="6.67911" ry="5.19956" transform="matrix(-1 0 0 1 128.152 243.902)" fill="#DAAA93"/>
<defs>
<linearGradient id="paint0_linear_2455_5547" x1="163.46" y1="95.8867" x2="163.46" y2="307.186" gradientUnits="userSpaceOnUse">
<stop stop-color="#E8D9C6"/>
<stop offset="1" stop-color="#E8D9C6"/>
</linearGradient>
<linearGradient id="paint1_linear_2455_5547" x1="169.121" y1="249.801" x2="169.121" y2="256.366" gradientUnits="userSpaceOnUse">
<stop stop-color="#FEF8F0"/>
<stop offset="1" stop-color="#F2E4D3"/>
</linearGradient>
</defs>
</svg>
