<svg width="338" height="345" viewBox="0 0 338 345" fill="none" xmlns="http://www.w3.org/2000/svg">
<path d="M77.898 171.362C75.6649 247.383 140.904 292.474 169.257 301.631L172.516 269.307C164.565 252.281 152.929 238.766 148.043 234.213C142.987 228.465 129.93 215.82 118.635 210.616C107.34 205.413 86.7707 182.279 77.898 171.362Z" fill="#86A173"/>
<path d="M264.486 279.499C282.28 275.051 292.318 246.588 294.311 238.597C294.791 236.668 298.352 220.017 295.727 219.009C287.5 229 287 233.499 262.62 248.809L264.486 279.499Z" fill="#5A7639"/>
<path d="M208.742 236.252C208.509 263.68 224.925 278.687 233.162 282.763L236.596 274.218C234.208 267.847 230.774 262.647 229.339 260.869C227.848 258.654 224.009 253.73 220.719 251.544C217.429 249.358 211.364 240.439 208.742 236.252Z" fill="#5A7639" stroke="#5A7639" stroke-width="0.621734"/>
<path d="M226.902 198.392C232.923 241.408 210.242 268.356 198.149 276.453C190.718 263.249 191.226 255.052 199.639 241.289C207.287 225.928 219.599 214.364 226.902 198.392Z" fill="#5A7639" fill-opacity="0.5"/>
<path d="M291.729 107.413C314.826 120.43 313.845 127.335 313.432 130.154C311.54 143.037 286.625 149.903 274.906 153.132L274.548 153.231C214.815 169.698 97.993 146.621 74.0996 142.308C50.2062 137.995 34.0826 131.034 23.3262 125.449C16.37 121.837 11.9542 116.412 11.4233 114.386C10.6932 109.747 12.6538 102.199 23.3262 97.8077C38.2994 92.9461 49.2107 83.3665 52.7947 79.1844L97.993 35.6645C104.829 29.7834 121.369 16.6883 132.838 11.356C173.138 -8.40434 207.239 3.12255 219.252 11.356C226.553 15.9955 239.404 27.9111 251.889 49.6456C260.451 67.2888 274.605 89.3782 291.729 107.413Z" fill="#C16134" stroke="#C16134" stroke-width="0.621734"/>
<path d="M49.106 110.639C165.865 69.6152 249.611 106.481 276.89 130.042C254.271 147.465 207.333 148.389 186.692 146.673C183.506 159.978 191.869 180.991 196.449 189.835C220.609 241.17 223.822 285.937 215.263 295.05C205.286 305.673 173.957 305.961 159.223 297.645C130.073 282.281 137.578 188.713 142.489 138.951C86.1009 132.616 56.7386 117.436 49.106 110.639Z" fill="url(#paint0_linear_131_2069)" stroke="#E8D9C6" stroke-width="0.621734"/>
<path d="M181.573 195.52C192.241 229.927 210.828 295.776 194.638 301.88" stroke="#C5A687" stroke-opacity="0.5" stroke-width="2.48694" stroke-linecap="round"/>
<path d="M153.034 193.734C153.035 223.532 155.528 295.429 169.557 300.869" stroke="#C5A687" stroke-opacity="0.5" stroke-width="2.48694" stroke-linecap="round"/>
<path fill-rule="evenodd" clip-rule="evenodd" d="M156.1 59.1791C121.182 74.9099 72.9153 80.1356 66.6898 66.3165C66.6361 66.1974 66.5854 66.0771 66.5376 65.9556L97.997 35.6645C104.833 29.7834 121.373 16.6883 132.841 11.356C164.142 -3.99166 191.703 -0.465372 208.081 5.73257C214.215 19.5607 190.97 43.4704 156.1 59.1791Z" fill="#DC7747" fill-opacity="0.7"/>
<path d="M274.385 134.097C244.653 151.468 204.052 150.47 186.828 147.731C190.202 180.938 247.843 282.442 211.582 297.634C208.201 299.982 208.009 299.786 210.195 297.634C220.53 286.484 212.377 248.73 202.043 225.647C193.775 207.18 155.449 193.983 138.092 189.744C138.092 177.602 140.234 152.225 141.426 140.944C107.879 139.066 61.5356 122.502 48.9208 110.819C60.033 103.006 88.6089 122.495 93.331 109.645C95.2797 105.809 88.0437 98.0788 92.536 94.9204C94.2891 93.8039 118.463 112.265 120.757 112.971C155.124 119.202 118.294 97.729 132.483 92.822C143.343 89.0662 146.615 114.738 161.499 119.622C181.991 126.345 202.524 118.326 210.561 98.3414C212.482 97.6893 219.387 96.8517 220.182 99.6686C221.295 105.302 213.371 112.514 211.383 113.558C194.59 127.082 241.091 112.679 245.965 110.623C254.868 107.18 254.444 112.058 253.119 114.927C224.056 138.973 264.83 121.747 273.207 125.495C275.393 126.473 280.263 129.985 274.385 134.097Z" fill="#B49678"/>
<path d="M159.053 83.8281C228.775 84.8077 267.424 114.089 278.081 130.218C248.651 102.636 187.75 94.9558 159.053 93.3886C130.355 91.8214 75.1422 102.466 48.3062 110.824C91.141 84.0249 136.903 83.828 159.053 83.8281Z" fill="#9C5C3F"/>
<path d="M193.026 196.847C181.123 203.554 181.628 207.113 181.841 208.565C182.816 215.205 195.656 218.743 201.695 220.407L201.879 220.458C232.662 228.944 292.864 217.051 305.177 214.829C312.258 213.55 334.995 209.906 337.476 200.44C337.852 198.049 336.841 194.159 331.342 191.896C308.345 184.429 296.993 157.614 274.907 147.345C254.139 137.162 236.566 143.102 230.375 147.345C213.134 158.302 206.887 182.248 193.026 196.847Z" fill="#BC643A" stroke="#C96F44" stroke-width="0.621734"/>
<path d="M318.059 198.506C257.889 177.366 214.732 196.364 200.675 208.505C212.331 217.484 236.519 217.96 247.156 217.076C248.798 223.932 244.489 234.761 242.129 239.318C228.584 265.54 227.457 288.8 231.868 293.497C237.009 298.971 253.719 299.162 261.312 294.876C276.334 286.959 272.466 238.74 269.935 213.097C298.994 209.832 314.125 202.009 318.059 198.506Z" fill="#E8D9C6" stroke="#E8D9C6" stroke-width="0.621734"/>
<path d="M247.332 217.522C245.87 231.663 245.87 230.148 240.339 241.966C277.677 252.02 263.14 288.481 263.855 292.294C264.209 294.182 278.557 274.233 272.798 238.913C272.798 232.956 271.128 219.913 270.502 214.088C288.12 213.119 307.406 204.829 314.573 201.26C322.176 197.725 313.251 195.709 310.163 197.725C300.06 201.685 295.773 200.116 295.181 198.533C292.526 193.393 301.2 196.032 295.76 192.271C291.693 189.724 277.535 206.362 272.798 200.25C271.138 198.108 281.611 190.044 276.56 188.327C273.471 187.277 271.712 187.556 270.502 192.271C270.224 194.83 267.726 200.574 259.961 203.079C250.254 206.21 242.635 202.169 241.174 201.26C240.075 200.612 232.687 186.704 230.945 192.776C228.755 203.673 238.817 205.1 233.5 206.311C229.574 207.38 209.939 196.596 211.845 200.654C215.645 203.746 221.677 211.71 211.845 208.38C207.917 208.38 202.911 205.414 202.034 206.311C193.333 215.205 241.076 218.5 247.332 217.522Z" fill="#C5A687" stroke="#C5A687" stroke-width="0.621734"/>
<path d="M261.397 185.785C225.467 186.29 205.55 200.289 200.058 208.601C215.224 194.387 246.608 190.429 261.397 189.621C276.185 188.814 304.638 194.299 318.468 198.606C296.393 184.796 272.811 185.785 261.397 185.785Z" fill="#A46C53" stroke="#A46C53" stroke-width="0.621734"/>
<path d="M249.793 242.25C244.296 259.981 234.717 293.915 243.06 297.061" stroke="#C5A687" stroke-opacity="0.5" stroke-width="2.48694" stroke-linecap="round"/>
<path d="M264.499 241.332C264.499 256.688 263.214 293.739 255.984 296.542" stroke="#C5A687" stroke-opacity="0.5" stroke-width="2.48694" stroke-linecap="round"/>
<path fill-rule="evenodd" clip-rule="evenodd" d="M269.541 144.567C251.156 137.723 236.028 143.009 230.379 146.88C226.617 149.271 219.994 155.412 213.56 166.612C210.725 172.454 206.701 179.241 201.846 185.812C209.456 189.31 231.743 181.918 246.521 170.684C260.139 160.331 269.697 151.022 269.541 144.567Z" fill="#DC7747" fill-opacity="0.7"/>
<path d="M234.6 301.271L236.988 301.64C237.177 270.692 284.922 255.972 307.123 243.606C283.7 240.687 263.872 238.985 247.464 257.851C236.535 270.127 236.406 285.995 234.6 301.271Z" fill="#75A142"/>
<path d="M18.4381 306.791C20.6462 319.923 38.6211 328.627 48.6092 328.627C49.895 328.627 52.3565 326.382 51.9156 317.399C51.4747 308.417 41.8586 308.375 37.1056 309.477C32.7659 307.572 30.8923 302.01 41.3075 288.95C54.3265 272.625 41.3764 251.566 26.3598 249.204C15.7077 247.529 6.17689 252.028 2.04382 258.366C-2.52562 265.372 2.66377 278.962 7.00344 275.656C15.6476 269.07 22.8467 271.936 21.9512 285.093C21.446 292.515 17.1293 299.007 18.4381 306.791Z" fill="#FFFCF9"/>
<path d="M18.4381 306.791C20.6462 319.923 38.6211 328.627 48.6092 328.627C49.895 328.627 52.3565 326.382 51.9156 317.399C51.4747 308.417 41.8586 308.375 37.1056 309.477C32.7659 307.572 30.8923 302.01 41.3075 288.95C54.3265 272.625 41.3764 251.566 26.3598 249.204C15.7077 247.529 6.17688 252.028 2.04381 258.366C-2.52562 265.372 2.66376 278.962 7.00344 275.656C15.6476 269.07 22.8467 271.936 21.9512 285.093C21.446 292.515 17.1293 299.007 18.4381 306.791Z" fill="#DBA478"/>
<path d="M6.72717 275.862C10.007 274.488 14.4421 269.525 19.4706 274.002C18.2383 271.742 19.5488 267.459 23.4381 268.967C23.4379 266.425 24.2237 264.29 27.8743 263.739C25.5324 260.157 28.7518 256.26 32.9163 259.382C31.1807 257.608 33.099 252.243 37.3115 254.508C18.4374 239.905 3.55852 255.541 1.62977 258.917C-2.36879 265.914 1.62977 277.997 6.72717 275.862Z" fill="#F3EFEA"/>
<path d="M6.59165 275.863C4.55494 277.404 2.06829 273.199 1.63202 271.385C5.58136 266.035 15.4639 257.402 23.6748 266.77C23.537 267.367 23.3028 268.644 23.4682 268.975C23.6748 269.388 17.7508 267.528 19.3351 273.521C14.1249 270.162 9.18751 273.898 6.62816 275.835L6.59165 275.863Z" fill="#CBB9A9"/>
<path d="M19.9527 295.22C29.8169 282.711 26.4048 270.973 23.7413 266.84C23.5208 267.226 23.4428 268.47 23.4657 268.975C18.9194 267.391 18.1618 272.144 19.6772 273.866C23.9205 279.707 21.7207 290.49 19.9527 295.22Z" fill="#CD9163"/>
<path d="M21.8863 314.44C29.6013 324.773 43.493 328.515 48.2689 328.492C63.6989 323.863 47.1439 314.027 36.9031 309.549C33.7804 308.562 29.7393 302.868 40.2094 290.193C53.0694 274.625 42.9648 259.953 39.0384 256.371C41.5185 278.001 34.0787 282.202 30.1523 287.575C26.226 292.948 20.7842 299.63 23.1951 307.345C24.2635 310.764 24.0447 312.787 21.8863 314.44Z" fill="#CD9163"/>
<path d="M61.6182 240.391C65.641 239.95 70.9567 240.207 72.9314 240.391C77.8794 233.296 85.7322 227.165 86.8343 229.507C87.8363 231.637 88.0742 240.391 88.0742 245.213C89.8652 248.864 94.4 259.885 84.5611 267.118C90.2969 279.655 112.148 324.154 80.8748 329.94C77.8863 330.56 66.3965 332.695 53.2259 329.94C21.9527 324.154 44.2526 279.655 49.9884 267.118C40.1496 259.885 44.6844 248.864 46.4753 245.213C46.4753 240.391 46.7133 231.637 47.7153 229.507C48.8174 227.165 56.6701 233.296 61.6182 240.391Z" fill="#F3EFEA"/>
<path d="M61.618 240.391C65.6408 239.95 70.9565 240.207 72.9311 240.391C77.8792 233.296 85.7319 227.165 86.8341 229.507C87.836 231.637 88.074 240.391 88.074 245.213C88.7698 246.866 89.5964 248.519 90.1475 250.93C85.5093 253.41 74.2767 255.973 67.2781 246.384C60.2795 255.973 48.978 253.41 44.3398 250.93C44.8909 248.519 45.7793 246.866 46.4751 245.213C46.4751 240.391 46.713 231.637 47.715 229.507C48.8171 227.165 56.6699 233.296 61.618 240.391Z" fill="#DBA478"/>
<ellipse cx="2.27316" cy="2.75535" rx="2.27316" ry="2.75535" transform="matrix(-1 0 0 1 77.7451 249.277)" fill="#5F4B3D"/>
<ellipse cx="2.27316" cy="2.75535" rx="2.27316" ry="2.75535" transform="matrix(-1 0 0 1 62.0417 249.277)" fill="#5F4B3D"/>
<path d="M69.8075 254.042C71.1043 254.763 68.877 256.407 67.5426 257.266C66.464 256.35 64.2445 254.796 65.1249 254.155C66.4198 253.211 68.6202 253.381 69.8075 254.042Z" fill="#5F4B3D"/>
<path d="M62.6622 257.822C66.382 261.129 68.4714 258.373 68.3107 256.72C67.9204 256.1 66.979 255.319 66.8641 256.582C66.5886 259.613 63.9818 257.343 63.1444 257.133C62.5934 256.996 62.5015 257.616 62.6622 257.822Z" fill="#5F4B3D"/>
<path d="M72.3827 257.822C68.6629 261.129 66.5735 258.373 66.7342 256.72C67.1246 256.1 68.066 255.319 68.1808 256.582C68.4563 259.613 71.0631 257.343 71.9005 257.133C72.4515 256.996 72.5434 257.616 72.3827 257.822Z" fill="#5F4B3D"/>
<path d="M84.704 266.98C91.3168 262.902 91.0872 254.581 90.1458 250.93C88.9885 251.646 86.8164 252.33 85.875 252.583C86.8164 256.234 86.7705 262.419 80.1577 266.497C80.9613 267.117 82.7201 268.082 84.704 266.98Z" fill="#DED2C7"/>
<path d="M50.2746 266.98C43.6617 262.902 43.8913 254.581 44.8327 250.93C45.99 251.646 48.1621 252.33 49.1035 252.583C48.1621 256.234 48.208 262.419 54.8208 266.497C54.0172 267.117 52.2584 268.082 50.2746 266.98Z" fill="#DED2C7"/>
<path d="M58.4581 270.704C65.5669 278.75 72.9048 274.056 75.5913 270.704C79.8896 265.193 74.5351 266.341 71.3205 267.604C70.0576 268.086 66.0353 268.762 62.7289 267.604C59.5143 266.341 54.1598 265.193 58.4581 270.704Z" fill="#DED2C7"/>
<path d="M77.6084 240.114C78.9861 237.634 83.064 231.573 85.0478 230.746" stroke="#AD8A70" stroke-width="0.386969" stroke-linecap="round"/>
<path d="M55.1716 238.64C55.1898 238.673 55.2078 238.705 55.2256 238.737C55.2093 238.707 55.1913 238.674 55.1716 238.64C53.7749 236.142 50.9843 231.769 49.026 230.953C48.6586 232.331 47.8687 236.092 47.9239 239.288C49.4393 236.464 51.5747 240.735 52.0569 239.288C52.5391 237.841 50.5414 236.326 51.8502 236.946C53.159 237.566 53.4345 239.839 53.2968 238.255C53.159 236.67 50.2659 234.673 52.1946 235.706C53.6649 236.494 54.7724 237.948 55.1716 238.64Z" fill="#FFEEE7"/>
<path d="M55.3623 238.874C55.0179 238.231 53.8743 236.67 52.3314 235.843C50.4026 234.81 53.2957 236.807 53.4335 238.392C53.5713 239.976 53.2957 237.703 51.9869 237.083C50.6781 236.463 52.6758 237.978 52.1936 239.425" stroke="#AD8A70" stroke-width="0.257979" stroke-linecap="round"/>
<path d="M78.2825 239.327C78.2632 239.361 78.2442 239.395 78.2256 239.429C78.2426 239.397 78.2616 239.363 78.2825 239.327C79.6929 236.814 82.953 231.909 84.91 231.094C85.2774 232.471 85.9984 236.784 85.9432 239.98C84.4278 237.156 81.8765 241.426 81.3943 239.98C80.9121 238.533 82.9097 237.018 81.601 237.638C80.2922 238.258 80.0166 240.531 80.1544 238.946C80.2922 237.362 83.1853 235.365 81.2565 236.398C79.7899 237.183 78.6842 238.633 78.2825 239.327Z" fill="#FFEEE7"/>
<path d="M78.0928 239.561C78.4372 238.918 79.5807 237.357 81.1237 236.53C83.0525 235.497 80.1594 237.495 80.0216 239.079C79.8838 240.663 80.1594 238.39 81.4681 237.77C82.7769 237.15 80.7793 238.666 81.2615 240.112" stroke="#AD8A70" stroke-width="0.257979" stroke-linecap="round"/>
<path d="M55.7725 239.566C54.3948 237.087 51.1435 231.92 49.1596 231.094" stroke="#AD8A70" stroke-width="0.386969" stroke-linecap="round"/>
<path d="M88.1511 310.309C87.6001 323.948 84.3625 327.254 80.4362 330.078C84.3625 329.481 91.9397 326.91 95.1084 320.021C93.2715 318.437 90.0799 315.406 88.1511 310.309Z" fill="#DED2C7"/>
<path d="M47.3024 307.344C47.8535 322.223 50.2644 327.251 55.1552 330.075C51.2288 329.478 42.6872 327.389 39.5186 320.501C41.3555 318.916 45.3737 312.441 47.3024 307.344Z" fill="#DED2C7"/>
<path d="M63.9708 330.938C65.5841 331.497 69.5108 331.171 71.2725 330.938C70.6466 328.746 69.4815 327.045 69.1371 314.508C68.6271 314.94 67.3461 315.541 65.7618 314.508C65.7061 326.07 65.4173 330.558 63.9708 330.938Z" fill="#DED2C7"/>
<path d="M85.8563 282.138C85.509 278.875 81.9526 270.516 80.365 266.634C81.043 267.021 82.8463 267.378 84.2912 266.979C86.1509 270.767 86.6476 277.64 85.8563 282.138Z" fill="#DED2C7"/>
<path d="M75.612 241.907C84.2913 245.007 84.8424 248.52 85.8756 252.566C87.1155 252.245 89.7882 251.51 90.2842 251.069C89.8479 249.484 88.9065 246.109 88.0799 245.282C88.2177 240.024 88.1763 229.343 86.6333 228.957L86.5645 229.095L85.9445 229.508C86.6058 230.39 86.4956 238.004 86.5645 241.563C86.22 243.285 86.6333 245.668 84.1535 243.078C81.6737 240.488 79.0561 241.907 75.612 241.907Z" fill="#CD9163"/>
<path d="M53.0211 244.249C49.8524 246.246 50.128 248.468 49.0947 252.515C47.8548 252.193 44.9755 251.371 44.4795 250.93C44.9158 249.346 45.6505 246.108 46.4771 245.282C46.4771 240.047 46.8904 230.403 47.8548 229.301L47.9237 229.37V229.852C47.2624 230.734 47.166 238.899 47.0971 242.458C47.9237 242.898 51.6434 244.019 53.0211 244.249Z" fill="#CD9163"/>
<path d="M49.2978 228.887C52.6593 229.548 58.9185 236.785 61.6279 240.321C61.0998 240.367 59.6165 240.597 58.1837 241.148C56.3928 241.837 58.1837 240.253 57.4949 238.048C56.8061 235.844 52.0531 230.333 49.2978 228.887Z" fill="#CD9163"/>
<path d="M84.983 229.301C81.6215 229.962 75.4311 236.786 72.7217 240.322C73.2498 240.368 73.9754 240.391 75.4081 240.942C76.8409 241.493 74.7193 240.529 75.4081 238.325C76.097 236.12 82.2276 230.747 84.983 229.301Z" fill="#CD9163"/>
<ellipse cx="6.54395" cy="5.57958" rx="6.54395" ry="5.57958" transform="matrix(-1 0 0 1 53.917 253.406)" fill="#F1B09E"/>
<ellipse cx="6.54395" cy="5.57958" rx="6.54395" ry="5.57958" transform="matrix(-1 0 0 1 94.417 253.406)" fill="#F1B09E"/>
<path d="M36.6182 248.952C43.7139 248.269 49.8549 250.859 54.9231 254.055C55.2339 254.363 55.3972 255.479 54.5004 254.791C49.4731 250.934 42.3246 248.809 36.6182 248.952Z" fill="#FEFDFB"/>
<path d="M33.9208 255.867C41.1805 253.056 48.2971 253.725 54.4477 255.309C54.8541 255.515 55.3179 256.554 54.1975 256.154C47.7887 253.868 39.7414 254.041 33.9208 255.867Z" fill="#FEFDFB"/>
<path d="M38.9186 265.451C43.1159 260.405 48.7043 258.035 53.9667 256.744C54.3582 256.735 55.1509 257.33 54.1444 257.482C48.4328 258.341 42.4975 261.696 38.9186 265.451Z" fill="#FEFDFB"/>
<path d="M98.6025 248.952C91.5068 248.269 85.3658 250.859 80.2976 254.055C79.9868 254.363 79.8235 255.479 80.7203 254.791C85.7476 250.934 92.8961 248.809 98.6025 248.952Z" fill="#FEFDFB"/>
<path d="M101.296 255.867C94.0363 253.056 86.9197 253.725 80.7691 255.309C80.3627 255.515 79.8989 256.554 81.0193 256.154C87.4281 253.868 95.4754 254.041 101.296 255.867Z" fill="#FEFDFB"/>
<path d="M96.306 265.451C92.1087 260.405 86.5203 258.035 81.2579 256.744C80.8664 256.735 80.0738 257.33 81.0803 257.482C86.7918 258.341 92.7271 261.696 96.306 265.451Z" fill="#FEFDFB"/>
<path d="M62.9362 332.008C65.498 331.199 66.3115 322.709 66.3115 304.937C61.2141 303.835 50.2478 300.928 47.1618 298.117C47.9196 320.16 48.3825 326.185 56.9433 331.044C59.492 332.49 61.6274 332.421 62.9362 332.008Z" fill="#F3EFEA"/>
<path d="M72.5853 332.008C70.0235 331.199 69.21 322.709 69.21 304.937C75.5932 302.962 88.3596 298.834 88.3596 298.117C87.6019 320.16 87.139 326.185 78.5781 331.044C76.0294 332.49 73.8941 332.421 72.5853 332.008Z" fill="#F3EFEA"/>
<path d="M88.7686 297.355L68.9989 304.726L69.6189 317.745L87.322 314.025L88.7686 297.355Z" fill="#F3EFEA"/>
<path d="M46.8193 297.43L66.589 304.249L65.8312 317.337L47.9904 311.551L46.8193 297.43Z" fill="#F3EFEA"/>
<path d="M86.9994 309.968C88.2992 309.121 88.2393 311.002 88.1016 312.586C87.4968 319.543 86.9994 327.258 77.9068 331.46C74.1085 333.215 72.4651 331.598 71.9139 330.358C87.275 328.98 82.2464 313.068 86.9994 309.968Z" fill="#E5DDD8"/>
<path d="M62.9882 332.395C66.2887 331.452 66.2945 316.345 66.6391 307.804C66.7252 305.669 64.0213 308.286 64.0213 309.87C64.0213 316.546 61.9499 327.074 59.5442 328.744C58.6487 329.502 56.1962 330.37 53 328.055C57.4774 332.602 61.2661 333.015 62.9882 332.395Z" fill="#E5DDD8"/>
<path d="M39.3827 320.431C32.7698 309.685 41.587 284.405 49.4398 268.699C49.1413 269.457 47.0701 278.632 49.7153 289.158C52.3604 299.683 44.3424 317.124 39.3827 320.431Z" fill="#DBA478"/>
<path d="M94.6924 320.295C101.449 309.639 93.5214 286.197 85.1177 268.908C85.406 269.669 87.469 278.313 84.683 288.803C81.8971 299.292 89.7775 316.922 94.6924 320.295Z" fill="#DBA478"/>
<path d="M89.1135 312.578C91.0974 306.24 87.8046 289.318 85.9448 281.924C86.7714 278.783 85.5315 271.362 84.8426 267.734C90.8585 279.238 102.339 305.896 94.9684 320.43C93.2234 319.007 89.9401 315.278 89.1135 312.578Z" fill="#CD9163"/>
<path d="M43.446 314.51C41.4621 308.173 42.5505 295.43 48.1989 278.553C48.1989 275.453 48.2677 272.882 48.9565 269.254C43.308 281.309 32.1489 306.864 39.244 320.366C40.9891 318.942 42.6194 317.211 43.446 314.51Z" fill="#CD9163"/>
<path d="M98.0536 326.47C88.1185 323.117 83.7596 306.478 83.0069 301.845C82.8246 300.723 81.595 291.1 83.1394 290.649C83.1394 290.649 88.5 296.5 100.591 309.118L98.0536 326.47Z" fill="#5A7639"/>
<path d="M204.998 270.381C212.752 297.137 192.729 311.807 184.492 315.882L181.058 307.338C186.241 293.514 197.264 282.733 204.998 270.381Z" fill="#5A7639"/>
<path d="M211.238 304.271C197.854 300.324 188.614 313.462 185.668 320.524L188.152 325.458C192.389 320.887 197.211 320.524 201.448 321.467C205.685 322.411 211.238 325.458 218.543 326.256C231.986 327.359 240.753 326.716 243.456 326.256C238.293 320.573 224.622 308.219 211.238 304.271Z" fill="#75A142"/>
<path d="M101.386 275.672C133.453 290.769 168.418 281.962 181.268 275.672C179.734 288.417 190.224 314.094 195.76 318.734C200.188 322.447 197.916 326.345 196.227 327.83C185.662 331.232 182.825 345.553 168.615 340.142C161.465 337.42 155.009 338.141 152.675 338.843C139.202 344.535 128.064 341.689 124.596 340.142C121.128 338.595 113.992 333.15 102.987 335.254C91.9822 337.358 85.0459 329.933 86.7132 326.901C96.7542 308.645 102.313 297.984 101.386 275.672Z" fill="#5B4739"/>
<path d="M101.337 276.164C140.292 287.405 170.112 282.106 180.021 277.03C181.426 286.249 182.484 308.849 171.813 314.294C166.4 319.152 156.028 297.363 155.536 296.529C149.521 286.328 147.144 292.939 146.707 297.519C145.828 312.988 136.374 327.817 135.81 340.726C126.056 341.906 99.4662 333.366 107.462 321.536C112.973 313.383 111.287 300.382 110.566 291.267C110.2 290.709 105.462 308.165 103.599 311.509C95.5986 321.462 93.8876 331.282 94.1405 334.563C90.5309 333.964 84.2628 329.49 86.1493 327.169C98.3091 312.211 102.262 295.325 101.337 276.164Z" fill="#695546"/>
<path d="M167.548 290.62C167.822 290.571 169.077 284.991 169.671 282.207L165.768 282.826C165.836 283.754 165.973 290.064 166.453 290.62C166.836 291.066 167.343 290.806 167.548 290.62Z" fill="#AD7D5E" stroke="#AD7D5E" stroke-width="0.621734"/>
<path d="M128.862 299.037C129.341 298.79 129.706 286.727 130.3 283.943L122.015 283.324C125.986 288.768 127.424 298.543 127.903 299.099C128.287 299.545 128.656 299.223 128.862 299.037Z" fill="#AD7D5E" stroke="#AD7D5E" stroke-width="0.621734"/>
<path d="M101.267 275.469C101.267 280.457 109.894 283.821 141.688 284.377C173.482 284.934 181.401 278.748 181.401 274.603C181.402 270.025 170.11 265.571 148.101 265.571C121.671 264.952 101.267 270.481 101.267 275.469Z" fill="#AD7D5E"/>
<path d="M96.7427 334.011L96.8241 336.922L95.2497 337.577L95.548 334.011C95.7777 325.764 86.7306 321.637 82.1784 320.605L53.0569 311.424C60.0515 308.719 75.1902 303.479 79.7881 304.165C84.3861 304.851 89.1914 308.695 91.0193 310.531C97.0454 316.388 97.3458 328.625 96.7427 334.011Z" fill="#81B148"/>
<path d="M161.936 231.919C161.834 234.523 161.386 238.344 160.71 240.5C161.353 246.554 167.347 242.529 169.122 242.318C174.282 240.641 175.463 236.569 174.871 231.073C171.405 220.97 153.69 209.881 151.999 208.951L151.977 208.938C150.222 207.973 140.21 202.465 131.624 208.19C123 213.939 105.967 225.155 107.827 232.595C109.687 240.035 115.306 242.896 118.688 241.458C121.394 240.309 122.129 235.484 121.269 233.229C133.444 212.6 162.063 228.664 161.936 231.919Z" fill="#A36B52" stroke="#A36B52" stroke-width="0.0845457"/>
<path d="M161.936 231.919C161.834 234.523 161.386 238.344 160.71 240.5C161.353 246.554 167.347 242.529 169.122 242.318C174.282 240.641 175.463 236.569 174.871 231.073C171.405 220.97 153.69 209.881 151.999 208.951L151.977 208.938C150.222 207.973 140.21 202.465 131.624 208.19C123 213.939 105.967 225.155 107.827 232.595C109.687 240.035 115.306 242.896 118.688 241.458C121.394 240.309 122.129 235.484 121.269 233.229C133.444 212.6 162.063 228.664 161.936 231.919Z" fill="#A36B52" stroke="#A36B52" stroke-width="0.0845457"/>
<path d="M164.006 236.441C181.55 232.805 159.272 208.625 145.491 206.511C143.166 204.751 139.329 202.853 134.584 205.581C113.786 217.545 104.021 234.581 120.677 236.441C129.748 237.454 149.786 239.387 164.006 236.441Z" fill="#BC856D"/>
<path d="M166.149 249.451C165.914 245.468 164.689 236.075 161.615 229.702C158.521 223.286 135.204 225.916 123.932 228.032C122.427 230.189 119.084 237.329 117.759 248.636C117.113 247.75 114.239 245.824 112.664 246.843C110.696 248.117 113.201 254.452 117.759 257.158C118.014 260.911 119.838 267.895 125.63 271.147C123.581 270.644 119.436 270.897 119.241 275.934C119.157 280.498 133.785 278.232 137.04 273.726L149.466 273.956C151.885 276.509 163.937 279.864 166.251 276.059C166.721 274.292 165.844 269.904 160.867 270.15C162.585 268.997 165.173 262.649 166.129 256.169C167.68 255.878 174.15 251.282 174.753 246.843C173.603 244.429 166.071 246.795 166.149 249.451Z" fill="#D1BC9F"/>
<path d="M124.025 232.412C125.132 229.484 154.772 228.263 159.833 230.637C170.264 251.427 161.159 261.52 154.664 265.568C148.492 269.415 135.81 269.077 131.371 266.287C116.223 256.765 120.185 242.562 124.025 232.412Z" fill="#F2E4D3"/>
<ellipse cx="1.94455" cy="2.79001" rx="1.94455" ry="2.79001" transform="matrix(-1 0 0 1 153.308 238.684)" fill="#564035"/>
<ellipse cx="1.94455" cy="2.79001" rx="1.94455" ry="2.79001" transform="matrix(-1 0 0 1 135.468 238.684)" fill="#564035"/>
<path d="M145.448 245.077C145.448 244.73 145.059 244.522 144.76 244.698C142.903 245.793 141.689 245.753 140.041 244.723C139.751 244.541 139.361 244.74 139.361 245.082V245.082C139.361 245.22 139.429 245.35 139.543 245.426C141.776 246.92 143.084 246.913 145.262 245.431C145.379 245.351 145.448 245.218 145.448 245.077V245.077Z" fill="#70554A"/>
<path d="M118.602 233.009C134.327 214.07 157 224.047 166.37 231.402C163.496 235.731 159.17 232.191 157.789 229.88C152.412 232.248 149.236 230.078 147.897 228.697C143.636 231.368 139.245 230.599 137.582 229.88C136.838 231.504 131.1 231.149 128.325 230.768C129.593 234.277 116.869 234.953 118.602 233.009Z" fill="#E8D8C8" stroke="#F2E4D3" stroke-width="0.0845457"/>
<path d="M152.839 224.095C150.133 229.971 137.959 235.551 130.772 223.926" stroke="#D1BC9F" stroke-width="1.09909"/>
<path d="M137.495 230.012C135.043 232.125 126.039 231.872 125.109 226.926" stroke="#D1BC9F" stroke-width="1.09909"/>
<path d="M128.494 230.773C128.621 234.536 117.546 234.62 118.518 233.098" stroke="#D1BC9F" stroke-width="1.09909"/>
<path d="M160.366 227.391C158.083 232.125 149.46 231.026 147.98 228.743" stroke="#D1BC9F" stroke-width="1.09909"/>
<path d="M166.37 231.323C163.918 234.493 158.803 232.549 157.408 230.055" stroke="#D1BC9F" stroke-width="1.09909"/>
<path d="M166.749 231.705C156.041 221.326 132.631 216.918 119.011 232.125C118.644 232.536 118.283 232.962 117.927 233.403C118.28 232.962 118.642 232.536 119.011 232.125C134.596 214.599 158.815 222.638 166.749 231.705Z" fill="#886653"/>
<path d="M166.749 231.705L166.614 231.844L166.895 231.578L166.749 231.705ZM117.644 233.444C117.578 233.527 117.591 233.649 117.675 233.716C117.758 233.783 117.88 233.77 117.947 233.686L117.644 233.444ZM166.884 231.566C161.493 226.341 152.918 222.627 143.983 222.127C135.043 221.626 125.724 224.34 118.866 231.995L119.155 232.254C125.918 224.703 135.114 222.018 143.961 222.514C152.813 223.01 161.297 226.69 166.614 231.844L166.884 231.566ZM118.866 231.995C118.495 232.409 118.131 232.838 117.775 233.281L118.078 233.524C118.429 233.086 118.789 232.663 119.155 232.254L118.866 231.995ZM117.775 233.281C117.732 233.335 117.688 233.39 117.645 233.445L117.949 233.686C117.992 233.632 118.035 233.578 118.078 233.524L117.775 233.281ZM117.947 233.686C117.991 233.632 118.034 233.578 118.077 233.525L117.776 233.281C117.732 233.335 117.688 233.389 117.644 233.444L117.947 233.686ZM118.077 233.525C118.432 233.087 118.791 232.663 119.155 232.253L118.866 231.996C118.497 232.41 118.134 232.838 117.776 233.281L118.077 233.525ZM119.155 232.253C126.899 223.546 136.784 221.188 145.728 222.135C154.683 223.083 162.673 227.342 166.603 231.833L166.895 231.578C162.89 227.001 154.804 222.706 145.769 221.75C136.724 220.792 126.707 223.178 118.866 231.996L119.155 232.253Z" fill="#886653"/>
<path d="M155.129 270.43C155.129 271.341 159.185 273.896 161.216 273.896C163.247 273.896 164.894 273.158 164.894 272.248C164.894 271.337 163.712 269.838 161.681 269.838C159.525 269.669 155.129 269.519 155.129 270.43Z" fill="#F2E4D3"/>
<path d="M130.75 271.481C130.75 272.391 126.567 273.299 124.536 273.299C122.505 273.299 120.14 273.786 120.14 272.876C120.14 271.965 122.124 270.508 124.156 270.508C126.311 270.339 130.75 270.57 130.75 271.481Z" fill="#F2E4D3"/>
<path d="M118.098 251.744C119.687 250.662 120.493 250.659 121.015 251.364C120.827 248.976 113.997 244.589 112.391 247.39C112.011 248.354 117.971 253.613 118.478 253.444C118.884 253.309 118.661 252.886 118.098 251.744Z" fill="#F2E4D3" stroke="#F2E4D3" stroke-width="0.0845457"/>
<path d="M167.252 250.967C165.662 249.884 164.856 249.882 164.335 250.586L164.504 248.439C165.838 247.715 171.613 244.265 172.959 246.613C173.339 247.576 167.379 252.835 166.871 252.666C166.466 252.531 166.688 252.108 167.252 250.967Z" fill="url(#paint1_linear_131_2069)" stroke="#F2E4D3" stroke-width="0.0845457"/>
<path d="M151.187 225.832C148.065 227.657 139.84 230.213 132.756 225.832C135.764 229.915 143.662 235.632 151.187 225.832Z" fill="#D1BC9F"/>
<path d="M150.408 227.652C153.634 229.871 157.709 229.139 159.275 228.392C158.359 229.976 154.943 232.396 148.61 229.408L150.408 227.652Z" fill="#D1BC9F"/>
<path d="M159.404 229.29C161.477 232.096 164.881 232.16 166.294 231.726C165.213 233.108 161.956 234.833 157.583 230.672L159.404 229.29Z" fill="#D1BC9F"/>
<path d="M126.921 229.636C125.153 232.643 119.959 233.43 118.509 233.146C119.729 234.408 124.962 235.415 128.877 230.821L126.921 229.636Z" fill="#D1BC9F"/>
<path d="M135.516 228.07C132.289 230.289 128.215 229.557 126.649 228.81C127.565 230.394 130.981 232.814 137.314 229.826L135.516 228.07Z" fill="#D1BC9F"/>
<ellipse cx="6.67911" cy="5.19956" rx="6.67911" ry="5.19956" transform="matrix(-1 0 0 1 168.097 240.207)" fill="#DAAA93"/>
<ellipse cx="6.67911" cy="5.19956" rx="6.67911" ry="5.19956" transform="matrix(-1 0 0 1 127.687 240.207)" fill="#DAAA93"/>
<ellipse cx="132.582" cy="215.942" rx="6" ry="4" transform="rotate(-9.57222 132.582 215.942)" fill="#E6D2BA"/>
<ellipse cx="131.001" cy="215.004" rx="3.64772" ry="2.43181" transform="rotate(-9.57222 131.001 215.004)" fill="#F6ECE0"/>
<ellipse cx="160.019" cy="215.843" rx="6" ry="4" transform="rotate(20.4278 160.019 215.843)" fill="#E6D2BA"/>
<ellipse cx="160.032" cy="215.021" rx="5.15628" ry="3.43752" transform="rotate(20.4278 160.032 215.021)" fill="#F6ECE0"/>
<ellipse cx="168.451" cy="228.971" rx="2.90827" ry="1.93885" transform="rotate(56.8355 168.451 228.971)" fill="#E6D2BA"/>
<ellipse cx="168.828" cy="228.492" rx="2.25507" ry="1.50338" transform="rotate(56.8355 168.828 228.492)" fill="#F6ECE0"/>
<ellipse cx="146" cy="216.906" rx="3.8777" ry="2.58513" transform="rotate(-2.81553 146 216.906)" fill="#E6D2BA"/>
<ellipse cx="145.705" cy="216.149" rx="3.00676" ry="2.00451" transform="rotate(-2.81553 145.705 216.149)" fill="#F6ECE0"/>
<ellipse cx="126.425" cy="212.221" rx="2.39924" ry="1.5995" transform="rotate(-32.8155 126.425 212.221)" fill="#E6D2BA"/>
<ellipse cx="126.12" cy="211.944" rx="1.76419" ry="1.17613" transform="rotate(-32.8155 126.12 211.944)" fill="#F6ECE0"/>
<ellipse cx="116.623" cy="220.317" rx="3.74466" ry="2.27014" transform="rotate(-32.8155 116.623 220.317)" fill="#E6D2BA"/>
<ellipse cx="116.309" cy="220.035" rx="2.7535" ry="1.83566" transform="rotate(-32.8155 116.309 220.035)" fill="#F6ECE0"/>
<ellipse cx="112.877" cy="232.688" rx="1.60597" ry="0.973597" transform="rotate(-70.5722 112.877 232.688)" fill="#E6D2BA"/>
<ellipse cx="112.697" cy="232.676" rx="1.18089" ry="0.787261" transform="rotate(-70.5722 112.697 232.676)" fill="#F6ECE0"/>
<ellipse cx="126.5" cy="23.8606" rx="20.2167" ry="14.3849" transform="rotate(-26.336 126.5 23.8606)" fill="#E6D2BA"/>
<ellipse cx="122.963" cy="21.8999" rx="14.7474" ry="10.4933" transform="rotate(-26.336 122.963 21.8999)" fill="#F6ECE0"/>
<ellipse cx="97" cy="65.9535" rx="15.6782" ry="11.1557" transform="rotate(-26.336 97 65.9535)" fill="#E6D2BA"/>
<ellipse cx="94.2568" cy="64.4332" rx="11.4367" ry="8.13767" transform="rotate(-26.336 94.2568 64.4332)" fill="#F6ECE0"/>
<ellipse cx="144.5" cy="62.4765" rx="7.83912" ry="5.57784" transform="rotate(-17.2341 144.5 62.4765)" fill="#E6D2BA"/>
<ellipse cx="196.095" cy="49.6475" rx="20.2167" ry="14.3849" transform="rotate(3.66404 196.095 49.6475)" fill="#E6D2BA"/>
<ellipse cx="194.012" cy="46.1809" rx="14.7474" ry="10.4933" transform="rotate(3.66404 194.012 46.1809)" fill="#F6ECE0"/>
<ellipse cx="260.8" cy="79.1792" rx="20.2167" ry="14.3849" transform="rotate(33.664 260.8 79.1792)" fill="#E6D2BA"/>
<ellipse cx="258.091" cy="75.9084" rx="14.7474" ry="10.4933" transform="rotate(33.664 258.091 75.9084)" fill="#F6ECE0"/>
<ellipse cx="143.266" cy="61.5093" rx="5.71836" ry="4.06883" transform="rotate(-17.2341 143.266 61.5093)" fill="#F6ECE0"/>
<ellipse cx="295.535" cy="115.588" rx="7.83912" ry="5.57784" transform="rotate(27.7659 295.535 115.588)" fill="#E6D2BA"/>
<ellipse cx="295.346" cy="114.031" rx="5.71836" ry="4.06883" transform="rotate(27.7659 295.346 114.031)" fill="#F6ECE0"/>
<ellipse cx="277.535" cy="150.588" rx="7.83912" ry="5.57784" transform="rotate(27.7659 277.535 150.588)" fill="#E6D2BA"/>
<ellipse cx="277.346" cy="149.031" rx="5.71836" ry="4.06883" transform="rotate(27.7659 277.346 149.031)" fill="#F6ECE0"/>
<ellipse cx="220.802" cy="157.856" rx="4.97667" ry="3.54109" transform="rotate(-32.2341 220.802 157.856)" fill="#E6D2BA"/>
<ellipse cx="219.887" cy="157.465" rx="3.6303" ry="2.5831" transform="rotate(-32.2341 219.887 157.465)" fill="#F6ECE0"/>
<ellipse cx="201.098" cy="186.649" rx="4.97667" ry="3.54109" transform="rotate(-32.2341 201.098 186.649)" fill="#E6D2BA"/>
<ellipse cx="200.183" cy="186.258" rx="3.6303" ry="2.5831" transform="rotate(-32.2341 200.183 186.258)" fill="#F6ECE0"/>
<ellipse cx="317.058" cy="185.979" rx="4.97667" ry="3.54109" transform="rotate(42.7659 317.058 185.979)" fill="#E6D2BA"/>
<ellipse cx="317.199" cy="184.993" rx="3.6303" ry="2.5831" transform="rotate(42.7659 317.199 184.993)" fill="#F6ECE0"/>
<ellipse cx="300.5" cy="177.376" rx="7.80433" ry="5.55308" transform="rotate(42.7659 300.5 177.376)" fill="#E6D2BA"/>
<ellipse cx="300.72" cy="175.831" rx="5.69299" ry="4.05078" transform="rotate(42.7659 300.72 175.831)" fill="#F6ECE0"/>
<ellipse cx="249.725" cy="171.9" rx="10.9805" ry="7.81308" transform="rotate(-5.89481 249.725 171.9)" fill="#E6D2BA"/>
<ellipse cx="248.297" cy="170.231" rx="8.00992" ry="5.69936" transform="rotate(-5.89481 248.297 170.231)" fill="#F6ECE0"/>
<ellipse cx="52.5001" cy="82.4618" rx="10.7212" ry="7.62855" transform="rotate(-38.084 52.5001 82.4618)" fill="#E6D2BA"/>
<ellipse cx="50.452" cy="81.8266" rx="7.82074" ry="5.56476" transform="rotate(-38.084 50.452 81.8266)" fill="#F6ECE0"/>
<ellipse cx="234.083" cy="30.8207" rx="10.7212" ry="7.62855" transform="rotate(41.5611 234.083 30.8207)" fill="#E6D2BA"/>
<ellipse cx="234.34" cy="28.6921" rx="7.82074" ry="5.56476" transform="rotate(41.5611 234.34 28.6921)" fill="#F6ECE0"/>
<defs>
<linearGradient id="paint0_linear_131_2069" x1="162.998" y1="92.1914" x2="162.998" y2="303.491" gradientUnits="userSpaceOnUse">
<stop stop-color="#E8D9C6"/>
<stop offset="1" stop-color="#E8D9C6"/>
</linearGradient>
<linearGradient id="paint1_linear_131_2069" x1="168.656" y1="246.105" x2="168.656" y2="252.671" gradientUnits="userSpaceOnUse">
<stop stop-color="#FEF8F0"/>
<stop offset="1" stop-color="#F2E4D3"/>
</linearGradient>
</defs>
</svg>
