<svg width="1704" height="1407" viewBox="0 0 1704 1407" fill="none" xmlns="http://www.w3.org/2000/svg">
<path d="M360.635 281.131C360.635 340.562 312.257 388.741 252.58 388.741C195.551 375.29 144.525 340.562 144.525 281.131C144.525 221.7 192.903 173.521 252.58 173.521C312.257 173.521 348.629 222.842 360.635 281.131Z" fill="#8D705A"/>
<path d="M360.635 281.131C360.635 340.562 312.257 388.741 252.58 388.741C195.551 375.29 144.525 340.562 144.525 281.131C144.525 221.7 192.903 173.521 252.58 173.521C312.257 173.521 348.629 222.842 360.635 281.131Z" stroke="#5F4B3D"/>
<path d="M232.897 340.894C145.165 276.278 199.347 205.28 241.91 174.866C88.6805 216.747 154.78 366.322 223.883 373.8C260.438 391.749 320.628 405.51 232.897 340.894Z" fill="#81634C"/>
<ellipse cx="257.305" cy="279.786" rx="58.7548" ry="61.8757" fill="#BC9183"/>
<path d="M213.145 235.486C165.543 277.649 207.92 337.79 239.79 347.042L264.732 308.712C210.691 284.921 251.944 201.121 213.145 235.486Z" fill="#B59084"/>
<path d="M642.926 278.441C642.926 337.872 691.607 386.05 751.657 386.05C809.042 372.599 860.387 337.872 860.387 278.441C860.387 219.009 811.707 170.831 751.657 170.831C691.607 170.831 655.008 220.152 642.926 278.441Z" fill="#8D705A"/>
<path d="M642.926 278.441C642.926 337.872 691.607 386.05 751.657 386.05C809.042 372.599 860.387 337.872 860.387 278.441C860.387 219.009 811.707 170.831 751.657 170.831C691.607 170.831 655.008 220.152 642.926 278.441Z" stroke="#5F4B3D"/>
<path d="M739.577 339.515C652.187 274.853 705.967 205.301 748.365 174.866C604.71 192.828 661.764 364.961 730.599 372.445C767.011 390.406 826.967 404.177 739.577 339.515Z" fill="#81634C"/>
<path d="M793.609 620.136C782.497 612.766 765.315 617.065 758.113 620.136L711.813 713.795C741.651 790.564 805.956 947.174 824.476 959.457C847.626 974.811 876.949 984.024 921.705 968.67C966.462 953.316 974.179 873.475 906.272 773.675C838.366 673.875 807.499 629.349 793.609 620.136Z" fill="#9B8270"/>
<rect x="235.019" y="595.89" width="534.871" height="266.335" fill="#8D705A"/>
<path d="M174.933 995.283C200.845 864.833 220.472 819.595 218.47 811.11H788.704C786.702 819.595 813.187 863.662 832.242 995.283C856.52 1162.98 788.961 1233.36 764.941 1267.8C760.324 1274.42 665.855 1302.24 548.755 1275.29C541.548 1263.31 529.738 1190.94 527.737 1177.96C512.123 1180.35 481.697 1178.96 478.194 1177.96C476.192 1190.94 455.374 1263.31 448.168 1275.29C325.062 1303.73 252.811 1273.4 246.995 1267.8C203.457 1225.87 143.406 1154 174.933 995.283Z" fill="#8D705A"/>
<path d="M715.862 924.774C715.862 1103.86 620.316 1155.46 502.454 1155.46C384.592 1155.46 289.046 1109.93 289.046 924.774C289.046 797.368 384.592 694.085 502.454 694.085C620.316 694.085 715.862 797.368 715.862 924.774Z" fill="#B4907A"/>
<path d="M170.33 1024.98C188.66 914.313 219.432 815.289 222.939 777.844C224.944 752.382 234.062 747.889 242.48 747.889C253.002 747.889 248.492 785.333 222.939 935.11C197.386 1084.89 254.505 1186.73 286.07 1213.69C322.897 1245.15 406.624 1262.67 459.233 1240.2L446.904 1272.11C329.661 1300.56 259.014 1272.11 251.499 1267.61C243.983 1263.12 144.778 1179.24 170.33 1024.98Z" fill="#81634C"/>
<path d="M783.662 759.462C787.268 776.21 788.67 812.797 789.672 828.249L819.865 955.038C852.917 980.46 951.929 994.235 954.933 916.476C935.403 944.888 908.36 949.374 891.834 944.888C870.8 944.888 845.26 879.091 839.25 847.689C833.38 817.016 779.155 738.527 783.662 759.462Z" fill="#927763"/>
<path d="M554.442 1273.96C543.539 1271.88 535.877 1220.78 534.873 1206.87L537.884 1203.89C546.414 1231.72 577.623 1276.34 784.75 1232.21C779.933 1240.56 766.185 1262.53 760.665 1267.99C658.306 1296.32 593.579 1281.41 554.442 1273.96Z" fill="#927763"/>
<path d="M369.963 1140.03C404.239 1162.01 451.612 1174.06 477.025 1177.91C475.803 1190.54 466.134 1221.45 454.458 1254.3C423.259 1263.19 405.967 1269.46 393.808 1269.7C395.828 1259.28 399.798 1232.91 399.512 1210.81C399.155 1183.17 327.117 1112.56 369.963 1140.03Z" fill="#81634C"/>
<path d="M650.626 1150.97C614.727 1169.19 554.897 1176.5 529.469 1177.88C529.469 1190.3 536.499 1221.35 544.876 1254.48C574.791 1266.07 602.761 1273.8 614.727 1275.18C613.73 1264.83 612.334 1238.74 614.727 1217.21C617.719 1190.3 695.499 1128.2 650.626 1150.97Z" fill="#81634C"/>
<ellipse cx="750.981" cy="279.786" rx="66.1836" ry="64.566" fill="#BC9183"/>
<path d="M705.032 233.163C653.903 277.221 699.419 340.064 733.65 349.732L760.439 309.679C702.396 284.819 746.704 197.253 705.032 233.163Z" fill="#B59084"/>
<path d="M853.898 478.974C864.889 588.172 795.674 660.112 502.411 676.598C241.955 670.603 144.152 588.172 162.992 478.974C199.746 265.945 314.122 191.008 502.411 191.008C690.7 191.008 783.637 235.97 853.898 478.974Z" fill="#8D705A"/>
<path d="M853.898 478.974C864.889 588.172 795.674 660.112 502.411 676.598C241.955 670.603 144.152 588.172 162.992 478.974C199.746 265.945 314.122 191.008 502.411 191.008C690.7 191.008 783.637 235.97 853.898 478.974Z" stroke="#7D6655"/>
<path d="M369.785 209.84C369.444 209.931 369.099 210.025 368.749 210.121C354.263 214.362 323.663 235.748 293.16 290.715C254.096 361.106 234.564 487.843 234.564 519.86C234.564 549.814 242.076 579.768 285.647 612.717C327.951 644.707 535.055 692.094 773.945 621.703C622.197 690.596 408.848 672.624 302.174 647.163C195.5 621.703 168.456 555.805 163.948 516.865C159.441 477.925 184.983 380.576 227.052 308.687C260.365 251.76 334.7 219.485 368.749 210.121C369.104 210.017 369.45 209.923 369.785 209.84Z" fill="#81634C"/>
<ellipse cx="503.807" cy="548.811" rx="76.989" ry="67.2562" fill="#B4907A"/>
<path d="M547.026 520.355C547.026 529.502 526.768 531.788 501.778 531.788C476.788 531.788 456.53 529.502 456.53 520.355C456.53 511.208 476.788 508.921 501.778 508.921C526.768 508.921 547.026 511.208 547.026 520.355Z" fill="#5F4B3D"/>
<path d="M621.315 449.271C634.241 441.151 666.653 429.782 692.902 449.271" stroke="#5F4B3D" stroke-width="9" stroke-linecap="round"/>
<path d="M320.113 449.271C333.039 441.151 365.451 429.782 391.7 449.271" stroke="#5F4B3D" stroke-width="9" stroke-linecap="round"/>
<path d="M536.223 570.332C523.01 570.332 502.456 570.332 502.456 517.873" stroke="#5F4B3D" stroke-width="9" stroke-linecap="round"/>
<path d="M468.69 570.332C482.432 570.332 503.808 570.332 503.808 517.873" stroke="#5F4B3D" stroke-width="9" stroke-linecap="round"/>
<ellipse cx="756.385" cy="521.236" rx="64.8329" ry="57.1678" fill="#CF938B"/>
<ellipse cx="16.8013" cy="22.682" rx="16.8013" ry="22.682" transform="matrix(-0.415207 0.909727 0.911013 0.412378 385.452 380.033)" fill="#B4907A"/>
<ellipse cx="16.8013" cy="22.682" rx="16.8013" ry="22.682" transform="matrix(0.415207 0.909727 -0.911013 0.412378 623.256 380.033)" fill="#B4907A"/>
<ellipse cx="266.084" cy="521.236" rx="64.8329" ry="57.1678" fill="#CF938B"/>
<path d="M240.78 468.103C237.748 492.515 234.11 548.213 249.876 575.713C172.564 550.305 201.366 478.565 240.78 468.103Z" fill="#C58D85"/>
<path d="M803.959 355.114C769.141 269.633 697.405 227.194 665.889 216.659L674.893 203.115C737.325 209.134 794.454 302.441 814.464 347.589L803.959 355.114Z" fill="#927763" fill-opacity="0.3"/>
<path d="M771.904 620.496C551.406 713.768 316.053 643.498 225.939 596.704C208.871 608.92 179.94 638.065 219.275 645.76C258.61 653.456 271.116 662.973 285.787 671.089C406.033 704.741 659.397 672.915 771.904 620.496Z" fill="#81634C"/>
<path d="M201.224 827.805C212.275 835.175 229.362 830.876 236.525 827.805L282.569 734.146C252.896 657.376 188.946 500.767 170.528 488.484C147.506 473.13 118.345 463.917 73.8359 479.271C29.3267 494.625 21.6527 574.465 89.1839 674.266C156.715 774.066 187.411 818.592 201.224 827.805Z" fill="#8D705A"/>
<path d="M93.0632 615.557C112.334 658.638 197.217 791.884 232.179 785.635C252.834 781.943 242.936 849.914 219.525 849.914C208.566 849.914 194.993 827.283 85.0919 665.732C-14.9824 518.626 62.3116 474.114 100.147 469.776C139.29 465.288 172.41 486.23 181.443 496.701C197.502 524.624 210.84 548.415 175.865 524.311C94.5687 468.28 68.9753 561.707 93.0632 615.557Z" fill="#81634C"/>
<path d="M1061.65 737C1062.85 767.8 1068.15 813 1076.15 838.5C1068.55 910.1 997.648 862.5 976.648 860C915.617 840.166 901.646 792 908.647 727C949.648 607.5 1159.18 476.335 1179.18 465.335L1179.44 465.189C1200.2 453.769 1318.62 388.627 1420.18 456.335C1522.18 524.334 1723.65 657 1701.65 745C1679.65 833 1613.18 866.834 1573.18 849.834C1541.18 836.234 1532.48 779.167 1542.65 752.5C1398.65 508.5 1060.15 698.5 1061.65 737Z" fill="#A36B52" stroke="#A36B52"/>
<path fill-rule="evenodd" clip-rule="evenodd" d="M1058.77 549.82C961.123 643.264 908.228 763.784 1037.15 790.5C1046.96 792.532 1057 794.368 1067.23 796.022C1064.26 775.811 1062.32 754.168 1061.65 737C1060.15 698.5 1398.65 508.5 1542.65 752.5C1538.82 762.545 1537.67 776.905 1539.43 791.63C1542.95 791.244 1546.36 790.867 1549.65 790.5C1693.4 774.447 1670.76 662.817 1552.43 548.666C1507.48 514.514 1460.72 483.352 1424.94 459.507C1423.33 458.435 1421.74 457.377 1420.18 456.335C1366.11 420.29 1307.27 421.895 1260.93 433.002C1259.28 434.167 1257.69 435.336 1256.15 436.5C1246.6 437.965 1236.7 440.327 1226.57 443.484C1203.19 452.126 1186.18 461.485 1179.44 465.189L1179.18 465.335C1169.57 470.621 1116.18 503.66 1058.77 549.82Z" fill="#BC856D"/>
<path d="M1150.56 523.418C1160.06 545.74 1138.83 576.15 1103.14 591.341C1067.44 606.531 1029.86 613.664 1020.36 591.342C1010.86 569.019 1033.04 525.695 1068.73 510.505C1104.43 495.315 1141.06 501.096 1150.56 523.418Z" fill="#E8D9C6"/>
<path d="M1562.36 569.904C1552.56 583.345 1562.03 606.95 1583.52 622.627C1605.02 638.303 1629.02 648.89 1638.83 635.448C1648.63 622.007 1640.52 589.627 1619.03 573.95C1597.54 558.273 1572.17 556.462 1562.36 569.904Z" fill="#E6D2BA"/>
<path d="M1573.24 566.997C1565.98 576.951 1572.99 594.431 1588.91 606.039C1604.83 617.648 1622.6 625.487 1629.86 615.533C1637.12 605.58 1631.12 581.602 1615.2 569.993C1599.29 558.385 1580.5 557.043 1573.24 566.997Z" fill="#F6ECE0"/>
<path d="M1284.13 543.424C1293.14 558.26 1250.94 574.483 1233.73 575.951C1196.67 580.68 1192.76 558.529 1205.87 544.271C1212.98 536.531 1240.07 517.713 1252.2 521.477C1271.3 527.404 1277.22 530.285 1284.13 543.424Z" fill="#E6D2BA"/>
<path d="M1281.48 540.183C1288.5 551.743 1255.61 564.385 1242.2 565.528C1213.32 569.214 1210.28 551.953 1220.49 540.843C1226.03 534.812 1247.14 520.148 1256.6 523.081C1271.48 527.699 1276.09 529.944 1281.48 540.183Z" fill="#F6ECE0"/>
<ellipse cx="1318.65" cy="467.5" rx="22" ry="14.5" fill="#E6D2BA"/>
<ellipse cx="1322.15" cy="465.5" rx="17.5" ry="11.5" fill="#F6ECE0"/>
<ellipse cx="1409.65" cy="551.5" rx="65" ry="44.5" transform="rotate(10.3122 1409.65 551.5)" fill="#E8D9C6"/>
<ellipse cx="1409.65" cy="551.5" rx="65" ry="44.5" transform="rotate(10.3122 1409.65 551.5)" fill="#E8D9C6"/>
<ellipse cx="1409.65" cy="551.5" rx="65" ry="44.5" transform="rotate(10.3122 1409.65 551.5)" fill="#E6D2BA"/>
<ellipse cx="1418.95" cy="544.236" rx="49.5228" ry="33.9041" transform="rotate(10.3122 1418.95 544.236)" fill="#F6ECE0"/>
<path d="M1518.87 530.632C1513 539.326 1496.02 538.116 1480.94 527.929C1465.87 517.743 1458.41 502.436 1464.29 493.742C1475.15 488.5 1487.15 486.258 1502.22 496.445C1517.29 506.632 1520.65 521 1518.87 530.632Z" fill="#E6D2BA"/>
<path d="M1517.96 524.543C1513.24 531.531 1499.59 530.558 1487.47 522.37C1475.36 514.183 1469.37 501.88 1474.09 494.892C1482.82 490.679 1492.46 488.877 1504.58 497.065C1516.69 505.252 1519.39 516.801 1517.96 524.543Z" fill="#F6ECE0"/>
<path d="M988.374 691.406C995.631 698.986 990.861 715.33 977.72 727.911C964.579 740.493 948.043 744.548 940.786 736.968C937.957 725.245 938.299 713.045 951.44 700.463C964.581 687.882 979.335 687.637 988.374 691.406Z" fill="#E6D2BA"/>
<path d="M988.26 690.153C993.797 695.936 990.157 708.406 980.131 718.006C970.104 727.605 957.488 730.699 951.951 724.916C949.792 715.971 950.054 706.663 960.08 697.063C970.106 687.464 981.363 687.277 988.26 690.153Z" fill="#F6ECE0"/>
<path d="M1150.56 523.418C1160.06 545.74 1138.83 576.15 1103.14 591.341C1067.44 606.531 1029.86 613.664 1020.36 591.342C1010.86 569.019 1033.04 525.695 1068.73 510.505C1104.43 495.315 1141.06 501.096 1150.56 523.418Z" fill="#E6D2BA"/>
<path d="M1142.03 516.876C1149.12 533.522 1133.28 556.2 1106.67 567.528C1080.05 578.856 1052.02 584.175 1044.94 567.529C1037.85 550.882 1054.39 518.574 1081.01 507.246C1107.63 495.918 1134.95 500.23 1142.03 516.876Z" fill="#F6ECE0"/>
<ellipse cx="1646.15" cy="753.5" rx="15.5" ry="18.5" fill="#E8D9C6"/>
<ellipse cx="1649.15" cy="750" rx="12.5" ry="15" fill="#F6ECE0"/>
<path d="M1065.41 710.757C1028.81 786.647 1014.38 898.733 1011.74 945.29C964.53 901.756 936.778 911.837 928.804 922.32C900.696 960.046 963.292 1020.53 998.104 1046.06C1007.99 1126.29 1053 1174.9 1074.26 1189.18C1015.4 1186.26 1005.03 1238.17 1010.58 1259.07C1037.96 1304.07 1180.51 1264.39 1209.12 1234.19L1356.09 1231.47C1394.59 1284.77 1567.61 1311.57 1566.61 1257.58C1564.31 1198.01 1515.28 1195.02 1491.05 1200.97C1559.55 1162.5 1581.13 1079.9 1584.14 1035.5C1638.06 1003.5 1667.69 928.572 1644.41 913.5C1625.78 901.443 1591.79 924.226 1584.14 934.703C1568.47 800.969 1528.93 716.52 1511.13 691.011C1377.81 665.972 1102.02 634.867 1065.41 710.757Z" fill="#D1BC9F"/>
<path d="M1510.04 742.831C1496.94 708.202 1146.36 693.76 1086.51 721.834C963.129 967.739 1070.82 1087.12 1147.65 1135C1220.65 1180.5 1370.65 1176.5 1423.15 1143.5C1602.32 1030.88 1555.45 862.878 1510.04 742.831Z" fill="#E8D9C6"/>
<ellipse cx="1186.65" cy="850" rx="23" ry="33" fill="#564035"/>
<ellipse cx="1397.65" cy="850" rx="23" ry="33" fill="#564035"/>
<path d="M1256.65 892.641C1256.65 888.534 1261.25 886.08 1264.79 888.165C1286.75 901.111 1301.12 900.642 1320.61 888.453C1324.04 886.308 1328.65 888.66 1328.65 892.704V892.704C1328.65 894.333 1327.84 895.867 1326.49 896.773C1300.08 914.447 1284.61 914.353 1258.85 896.825C1257.47 895.886 1256.65 894.311 1256.65 892.641V892.641Z" fill="#70554A"/>
<path d="M1574.15 749.914C1388.15 525.914 1119.98 643.914 1009.15 730.914C1043.15 782.114 1094.32 740.247 1110.65 712.914C1174.25 740.914 1211.82 715.247 1227.65 698.914C1278.05 730.514 1329.98 721.414 1349.65 712.914C1358.45 732.114 1426.32 727.914 1459.15 723.414C1444.15 764.914 1594.65 772.914 1574.15 749.914Z" fill="#E8D8C8" stroke="#E8D9C6"/>
<path d="M1169.15 644.5C1201.15 714 1345.15 780 1430.15 642.5" stroke="#D1BC9F" stroke-width="13"/>
<path d="M1350.65 714.5C1379.65 739.5 1486.15 736.5 1497.15 678" stroke="#D1BC9F" stroke-width="13"/>
<path d="M1457.15 723.5C1455.65 768 1586.65 769 1575.15 751" stroke="#D1BC9F" stroke-width="13"/>
<path d="M1080.15 683.5C1107.15 739.5 1209.15 726.5 1226.65 699.5" stroke="#D1BC9F" stroke-width="13"/>
<path d="M1009.15 730C1038.15 767.5 1098.65 744.5 1115.15 715" stroke="#D1BC9F" stroke-width="13"/>
<path d="M1002.21 731.987C1000.82 733.332 1000.79 735.548 1002.14 736.936C1003.48 738.324 1005.7 738.359 1007.08 737.013L1002.21 731.987ZM1007.08 737.013C1071.65 674.423 1175.93 630.222 1283.77 626.561C1391.5 622.903 1502.47 659.706 1580.91 758.674L1586.39 754.326C1506.32 653.295 1393.04 615.847 1283.53 619.565C1174.12 623.279 1068.14 668.077 1002.21 731.987L1007.08 737.013Z" fill="#886653"/>
<path d="M1142.15 1192.5C1142.15 1203.27 1094.17 1233.5 1070.15 1233.5C1046.12 1233.5 1026.65 1224.77 1026.65 1214C1026.65 1203.23 1040.62 1185.5 1064.65 1185.5C1090.15 1183.51 1142.15 1181.74 1142.15 1192.5Z" fill="#E8D9C6"/>
<path d="M1439.65 1214.11C1439.65 1224.88 1489.12 1235.61 1513.15 1235.61C1537.17 1235.61 1565.15 1241.38 1565.15 1230.61C1565.15 1219.84 1541.67 1202.61 1517.65 1202.61C1492.15 1200.61 1439.65 1203.34 1439.65 1214.11Z" fill="#E8D9C6"/>
<path d="M964.408 962.194C963.542 949.311 943.737 927.354 937.301 921.802C925.148 905 1006.92 916.35 1038.17 923.889C1040.33 939.729 1042.21 971.451 1032.41 971.617C1022.62 971.783 1015.13 967.489 1012.61 965.321C1013.46 985.018 1009.02 1007.01 1006.69 1015.54C992.958 1003.13 965.275 975.077 964.408 962.194Z" fill="#E8D9C6" stroke="#E8D9C6"/>
<path d="M1580.15 971.5C1561.35 958.7 1551.82 958.667 1545.65 967L1547.65 941.604L1565.15 932.104C1575.48 929.77 1600.35 922.4 1617.15 914C1633.95 905.6 1644.15 913.896 1647.65 920C1652.15 931.396 1581.65 993.604 1575.65 991.604C1570.85 990.004 1573.48 985 1580.15 971.5Z" fill="#E8D9C6" stroke="#E8D9C6"/>
<ellipse cx="1067.65" cy="896.5" rx="79" ry="61.5" fill="#DAAA93"/>
<ellipse cx="1545.65" cy="896.5" rx="79" ry="61.5" fill="#DAAA93"/>
<path d="M1188.78 665C1225.7 686.591 1322.99 716.819 1406.78 665C1371.2 713.296 1277.78 780.91 1188.78 665Z" fill="#D1BC9F"/>
<path d="M1197.95 686.487C1159.79 712.74 1111.6 704.078 1093.07 695.243C1103.91 713.976 1144.31 742.605 1219.22 707.261L1197.95 686.487Z" fill="#D1BC9F"/>
<path d="M1091.56 705.908C1067.05 739.093 1026.78 739.85 1010.07 734.725C1022.86 751.072 1061.38 771.465 1113.11 722.255L1091.56 705.908Z" fill="#D1BC9F"/>
<path d="M1475.78 709.986C1496.69 745.551 1558.13 754.852 1575.28 751.5C1560.85 766.422 1498.95 778.338 1452.64 723.993L1475.78 709.986Z" fill="#D1BC9F"/>
<path d="M1374.11 691.487C1412.27 717.74 1460.46 709.078 1478.99 700.243C1468.15 718.976 1427.75 747.605 1352.83 712.261L1374.11 691.487Z" fill="#D1BC9F"/>
</svg>
