<svg width="697" height="284" viewBox="0 0 697 284" fill="none" xmlns="http://www.w3.org/2000/svg">
<path d="M240.386 84.2661C238.998 93.3143 240.102 98.4678 241.778 107.002C249.211 105.041 269.48 96.1457 266.665 81.0715C264.485 69.3979 264.953 71.1407 259.474 62.5798C254.719 70.7504 241.444 77.365 240.386 84.2661Z" fill="url(#paint0_linear_630_57)"/>
<path d="M250.155 84.9512C251.543 93.9994 250.439 99.1529 248.763 107.687C241.33 105.726 221.061 96.8307 223.876 81.7565C226.056 70.083 225.588 71.8258 231.067 63.2648C235.822 71.4355 249.097 78.05 250.155 84.9512Z" fill="url(#paint1_linear_630_57)"/>
<path d="M213.575 86.089C213.575 95.5452 227.843 108.176 237.299 108.176C246.756 108.176 246.963 110.27 246.963 100.814C246.963 91.3577 240.153 88.9997 230.697 88.9997C213.575 84.4828 215.383 75.131 213.575 86.089Z" fill="url(#paint2_linear_630_57)"/>
<path d="M213.575 86.089C213.575 95.5452 227.843 108.176 237.299 108.176C246.756 108.176 246.963 110.27 246.963 100.814C246.963 91.3577 240.153 88.9997 230.697 88.9997C213.575 84.4828 215.383 75.131 213.575 86.089Z" fill="url(#paint3_linear_630_57)"/>
<path d="M262.619 87.9072C262.619 97.3634 252.859 92.5302 245.497 107.769C237.621 88.4209 228.375 97.3634 228.375 87.9072C228.375 78.451 238.306 67.7033 245.497 61.8818C253.202 66.3336 262.619 78.451 262.619 87.9072Z" fill="url(#paint4_radial_630_57)"/>
<path d="M262.808 86.3664C263.835 97.4956 251.831 96.5901 248.064 103.317C252.498 92.8727 261.077 97.706 261.077 88.2498C261.077 78.7936 255.274 72.6688 250.651 65.4775C257.5 72.4975 260.582 76.6068 262.808 86.3664Z" fill="#EEC1A9"/>
<path d="M277.001 86.1804C277.001 95.6366 262.733 108.268 253.277 108.268C243.821 108.268 243.613 110.361 243.613 100.905C243.613 91.449 250.423 89.091 259.879 89.091C277.001 84.5741 275.193 75.2223 277.001 86.1804Z" fill="url(#paint5_linear_630_57)"/>
<path d="M277.001 86.1804C277.001 95.6366 262.733 108.268 253.277 108.268C243.821 108.268 243.613 110.361 243.613 100.905C243.613 91.449 250.423 89.091 259.879 89.091C277.001 84.5741 275.193 75.2223 277.001 86.1804Z" fill="url(#paint6_linear_630_57)"/>
<path d="M265.016 85.3707C267.098 93.2739 255.858 104.097 249.274 105.831C242.69 107.566 243.007 109.353 240.925 101.45C238.843 93.547 245.89 85.0962 252.474 83.3619C269.199 81.8939 261.345 76.5439 265.016 85.3707Z" fill="url(#paint7_radial_630_57)"/>
<path d="M223.409 86.5371C220.075 84.8281 215.533 81.0581 215.533 81.0581C215.533 81.0581 217.128 83.0078 218.273 84.1401C220.545 86.3875 220.663 87.4707 223.409 89.1054C225.697 90.467 227.469 91.6509 229.916 92.7011C232.289 93.7199 233.919 93.8537 236.08 95.2693C239.016 97.1934 240.457 98.3166 242.072 101.433C242.958 103.143 244.298 107.768 244.298 107.768C244.298 107.768 245.292 101.835 244.641 99.3786C243.732 95.9524 242.183 94.1237 239.333 92.0162C236.238 89.7274 233.539 90.4049 229.916 89.1054C227.344 88.1833 225.84 87.7831 223.409 86.5371Z" fill="#EAB29F" fill-opacity="0.84"/>
<path d="M226.299 82.2798C222.766 89.0391 231.764 101.748 237.903 104.957C244.042 108.166 243.394 109.733 246.927 102.973C250.46 96.2141 245.132 86.714 238.993 83.5054C222.846 78.057 231.567 75.0605 226.299 82.2798Z" fill="url(#paint8_radial_630_57)"/>
<path d="M228.567 78.5812C228.555 78.63 228.542 78.6824 228.526 78.7386C228.34 79.4265 227.882 80.6203 226.557 82.4399C225.726 84.0434 225.622 86.0202 226.055 88.1635C226.489 90.3139 227.459 92.6051 228.736 94.7975C231.294 99.1918 235.042 103.12 238.043 104.689C239.16 105.272 240.059 105.805 240.79 106.239C241.069 106.404 241.324 106.555 241.557 106.689C241.984 106.934 242.334 107.119 242.637 107.24C242.94 107.362 243.176 107.411 243.377 107.401C243.754 107.382 244.123 107.148 244.643 106.411C245.16 105.678 245.772 104.53 246.659 102.833C248.367 99.565 247.946 95.6044 246.311 92.034C244.681 88.4725 241.866 85.3568 238.873 83.7848C231.635 81.3398 229.352 79.3763 228.567 78.5812Z" stroke="#C88181" stroke-opacity="0.02" stroke-width="0.605883"/>
<path d="M234.197 81.7439L228.547 78.4907C228.547 78.4907 231.692 81.5198 234.197 82.6C235.168 83.0186 235.802 83.0205 236.765 83.4561C238.472 84.228 239.323 84.9287 240.703 86.1956C242.822 88.1405 243.637 89.6472 244.984 92.1883C245.769 93.67 246.371 94.4812 246.696 96.1264C247.126 98.3 246.788 99.6453 246.183 101.777C245.765 103.246 245.191 103.947 244.642 105.372C244.208 106.497 243.614 108.283 243.614 108.283C243.614 108.283 246.154 105.167 247.039 102.804C247.848 100.642 248.206 99.2867 248.066 96.9825C247.961 95.2665 247.67 94.3009 247.039 92.702C246.356 90.974 245.759 90.0765 244.642 88.5927C242.99 86.4011 241.859 85.209 239.505 83.7985C237.598 82.656 234.197 81.7439 234.197 81.7439Z" fill="url(#paint9_linear_630_57)"/>
<path d="M264.16 82.4279C264.044 81.634 263.818 80.5444 263.818 80.5444C263.818 80.5444 263.706 81.8588 263.818 82.9415C263.938 84.1031 264.281 84.8769 264.503 86.0235C264.783 87.4737 264.504 88.3536 264.16 89.7903C263.563 92.2922 262.573 93.5182 261.078 95.6118C259.073 98.4211 257.528 99.7363 254.743 101.776C251.703 104.002 248.659 103.387 246.182 106.227C245.585 106.913 244.812 108.111 244.812 108.111C244.812 108.111 246.048 107.25 246.867 106.741C249.994 104.8 252.403 104.899 255.428 102.803C258.537 100.649 260.18 99.1021 262.277 95.9542C263.719 93.789 264.743 92.525 265.188 89.9615C265.462 88.3803 265.529 87.4202 265.188 85.8522C264.894 84.5054 264.361 83.7917 264.16 82.4279Z" fill="url(#paint10_linear_630_57)"/>
<path d="M239.527 104.876C241.699 106.888 245.796 109.141 245.796 109.141C245.796 109.141 242.198 106.246 240.166 104.109C238.176 102.016 237.17 100.727 235.513 98.3621C233.769 95.873 232.594 94.5241 231.525 91.6791C231.083 90.5031 230.617 88.5928 230.617 88.5928C230.617 88.5928 230.767 90.7802 231.107 92.1342C231.887 95.2339 233.222 96.6802 235.017 99.3248C236.585 101.636 237.478 102.978 239.527 104.876Z" fill="url(#paint11_linear_630_57)"/>
<path d="M184.051 164.66C154.684 168.276 121.865 168.53 91.9665 165.371C62.0679 162.212 37.2237 155.867 22.2585 147.567C7.29324 139.267 3.27501 129.605 10.984 120.457C18.6931 111.309 37.5792 103.328 63.975 98.0644C90.3707 92.8005 122.392 90.6291 153.821 91.9719C185.25 93.3147 213.843 98.0758 234.049 105.331C254.254 112.586 264.629 121.817 263.159 131.231C261.689 140.645 248.479 149.571 226.094 156.276L135.226 129.577L184.051 164.66Z" fill="#55833F"/>
<path d="M168.279 143.779L225.979 155.953L133.547 128.885L183.763 164.554L168.279 143.779Z" fill="#55833F" stroke="#55833F" stroke-width="0.908812"/>
<path d="M483.464 244.784C526.605 244.221 568.905 239.43 603.768 231.157C638.632 222.885 664.1 211.597 676.205 199.052C688.309 186.506 686.369 173.409 670.686 161.802C655.004 150.194 626.46 140.729 589.505 134.88C552.549 129.032 509.258 127.13 466.38 129.47C423.502 131.81 383.445 138.26 352.454 147.817C321.463 157.373 301.279 169.498 295.048 182.301C288.817 195.105 296.889 207.867 318.006 218.599L488.526 186.667L483.464 244.784Z" fill="#61934A"/>
<path d="M277.629 216.092C273.508 240.786 276.785 254.851 281.763 278.143C303.84 272.791 364.04 248.514 355.679 207.373C349.205 175.513 350.594 180.27 334.321 156.905C320.2 179.204 280.772 197.257 277.629 216.092Z" fill="url(#paint12_linear_630_57)"/>
<path d="M306.649 217.962C310.77 242.656 307.492 256.721 302.515 280.013C280.438 274.661 220.237 250.384 228.598 209.243C235.072 177.383 233.683 182.14 249.956 158.775C264.077 181.074 303.505 199.127 306.649 217.962Z" fill="url(#paint13_linear_630_57)"/>
<path d="M198.001 221.067C198.001 246.875 240.378 281.348 268.463 281.348C296.548 281.348 297.164 287.063 297.164 261.254C297.164 235.446 276.939 229.011 248.854 229.011C198.001 216.683 203.372 191.16 198.001 221.067Z" fill="url(#paint14_linear_630_57)"/>
<path d="M198.001 221.067C198.001 246.875 240.378 281.348 268.463 281.348C296.548 281.348 297.164 287.063 297.164 261.254C297.164 235.446 276.939 229.011 248.854 229.011C198.001 216.683 203.372 191.16 198.001 221.067Z" fill="url(#paint15_linear_630_57)"/>
<path d="M343.663 226.029C343.663 251.837 314.677 238.646 292.81 280.236C269.418 227.431 241.957 251.837 241.957 226.029C241.957 200.221 271.452 170.888 292.81 155C315.694 167.15 343.663 200.221 343.663 226.029Z" fill="url(#paint16_radial_630_57)"/>
<path d="M344.224 221.823C347.275 252.197 311.623 249.726 300.436 268.086C313.603 239.58 339.084 252.772 339.084 226.963C339.084 201.155 321.848 184.439 308.118 164.813C328.459 183.972 337.613 195.187 344.224 221.823Z" fill="#EEC1A9"/>
<path d="M386.382 221.317C386.382 247.125 344.005 281.598 315.92 281.598C287.834 281.598 287.219 287.312 287.219 261.504C287.219 235.696 307.444 229.261 335.529 229.261C386.382 216.933 381.011 191.41 386.382 221.317Z" fill="url(#paint17_linear_630_57)"/>
<path d="M386.382 221.317C386.382 247.125 344.005 281.598 315.92 281.598C287.834 281.598 287.219 287.312 287.219 261.504C287.219 235.696 307.444 229.261 335.529 229.261C386.382 216.933 381.011 191.41 386.382 221.317Z" fill="url(#paint18_linear_630_57)"/>
<path d="M350.778 219.107C356.961 240.676 323.579 270.215 304.024 274.948C284.469 279.682 285.409 284.561 279.226 262.992C273.043 241.422 293.974 218.358 313.529 213.624C363.2 209.618 339.874 195.017 350.778 219.107Z" fill="url(#paint19_radial_630_57)"/>
<path d="M227.209 222.29C217.305 217.626 203.816 207.337 203.816 207.337C203.816 207.337 208.552 212.658 211.953 215.748C218.703 221.882 219.051 224.838 227.209 229.3C234.003 233.016 239.268 236.247 246.533 239.113C253.582 241.894 258.424 242.259 264.84 246.123C273.56 251.374 277.841 254.439 282.638 262.945C285.269 267.61 289.249 280.235 289.249 280.235C289.249 280.235 292.2 264.041 290.266 257.338C287.569 247.987 282.966 242.996 274.502 237.244C265.31 230.997 257.294 232.846 246.533 229.3C238.896 226.783 234.429 225.691 227.209 222.29Z" fill="#EAB29F" fill-opacity="0.84"/>
<path d="M235.792 210.671C225.299 229.119 252.026 263.806 270.258 272.563C288.491 281.32 286.567 285.596 297.06 267.148C307.553 248.701 291.727 222.773 273.495 214.016C225.539 199.146 251.438 190.968 235.792 210.671Z" fill="url(#paint20_radial_630_57)"/>
<path d="M235.976 210.778C233.394 215.327 233.094 220.893 234.401 226.843C235.71 232.798 238.625 239.116 242.442 245.14C250.079 257.193 261.293 268.021 270.363 272.378C273.661 273.961 276.304 275.401 278.474 276.583C279.307 277.037 280.07 277.452 280.775 277.824C282.047 278.495 283.123 279.02 284.07 279.369C285.018 279.718 285.824 279.884 286.559 279.851C288.008 279.785 289.265 278.934 290.834 276.891C292.403 274.85 294.242 271.673 296.868 267.056C302.069 257.913 300.758 246.893 295.851 237.042C290.946 227.199 282.468 218.566 273.404 214.208C249.906 206.92 244.105 201.23 242.465 199.621C242.431 199.588 242.398 199.556 242.367 199.526C242.275 199.435 242.202 199.366 242.143 199.315C242.138 199.311 242.133 199.306 242.129 199.303C242.106 199.384 242.081 199.5 242.046 199.661C242.039 199.691 242.032 199.722 242.025 199.755C241.965 200.029 241.883 200.389 241.751 200.839C241.221 202.638 239.894 205.841 235.976 210.778Z" stroke="#C88181" stroke-opacity="0.02" stroke-width="0.425723"/>
<path d="M259.246 209.207L242.465 200.328C242.465 200.328 251.805 208.595 259.246 211.543C262.13 212.686 264.013 212.691 266.874 213.88C271.944 215.986 274.471 217.899 278.57 221.356C284.863 226.664 287.283 230.777 291.284 237.712C293.616 241.756 295.403 243.97 296.369 248.46C297.645 254.392 296.642 258.064 294.843 263.88C293.603 267.891 291.9 269.804 290.267 273.694C288.978 276.763 287.215 281.638 287.215 281.638C287.215 281.638 294.76 273.134 297.386 266.684C299.788 260.783 300.854 257.085 300.437 250.796C300.126 246.113 299.261 243.478 297.386 239.114C295.359 234.398 293.587 231.948 290.267 227.899C285.363 221.917 282.001 218.664 275.011 214.814C269.348 211.696 259.246 209.207 259.246 209.207Z" fill="url(#paint21_linear_630_57)"/>
<path d="M348.241 211.076C347.894 208.909 347.224 205.936 347.224 205.936C347.224 205.936 346.893 209.523 347.224 212.478C347.58 215.648 348.6 217.76 349.258 220.889C350.091 224.847 349.261 227.249 348.241 231.17C346.466 237.998 343.527 241.344 339.088 247.058C333.131 254.725 328.544 258.314 320.272 263.88C311.242 269.956 302.201 268.279 294.846 276.03C293.07 277.901 290.777 281.17 290.777 281.17C290.777 281.17 294.446 278.82 296.88 277.432C306.166 272.135 313.321 272.403 322.306 266.684C331.541 260.806 336.419 256.584 342.647 247.992C346.932 242.083 349.973 238.633 351.292 231.637C352.106 227.321 352.307 224.701 351.292 220.422C350.42 216.746 348.837 214.798 348.241 211.076Z" fill="url(#paint22_linear_630_57)"/>
<path d="M275.081 272.34C281.533 277.832 293.701 283.979 293.701 283.979C293.701 283.979 283.014 276.078 276.979 270.246C271.069 264.534 268.08 261.016 263.159 254.562C257.979 247.769 254.489 244.087 251.314 236.323C250.002 233.113 248.619 227.899 248.619 227.899C248.619 227.899 249.063 233.869 250.075 237.565C252.391 246.024 256.354 249.972 261.686 257.189C266.345 263.497 268.996 267.159 275.081 272.34Z" fill="url(#paint23_linear_630_57)"/>
<path d="M209.251 78.7872C206.134 66.7514 194.002 72.425 189.957 76.7125C173.256 91.4425 167.73 111.279 178.754 113.641C183.11 114.575 215.267 102.023 209.251 78.7872Z" fill="#A7C192"/>
<path d="M160.808 114.989C160.808 118.198 169.725 120.798 180.724 120.798C190.597 120.798 196.369 119.712 199.623 114.764C200.375 113.62 200.62 112.079 199.756 111.017C197.196 107.874 190.193 109.18 180.724 109.18C169.725 109.18 160.808 111.781 160.808 114.989Z" fill="#A7C192"/>
<path fill-rule="evenodd" clip-rule="evenodd" d="M200.726 71.567C215.031 81.9831 200.024 99.333 182.178 109.077C183.88 109.121 188.536 109.075 192.648 108.732C202.405 103.142 212.919 92.9493 209.252 78.7872C207.796 73.1648 204.373 71.4069 200.726 71.567Z" fill="#93AF7D"/>
<path fill-rule="evenodd" clip-rule="evenodd" d="M169.38 110.215C185.767 113.11 193.659 111.955 196.691 109.317C198.02 109.629 199.055 110.156 199.757 111.018C200.621 112.08 200.376 113.621 199.624 114.765C196.369 119.713 190.598 120.799 180.725 120.799C169.726 120.799 160.809 118.198 160.809 114.99C160.809 113.012 164.2 111.264 169.38 110.215Z" fill="#93AF7D"/>
<path d="M55.7473 78.7872C58.8637 66.7514 70.9959 72.425 75.0414 76.7125C91.7422 91.4425 97.2685 111.279 86.2444 113.641C81.8877 114.575 49.7309 102.023 55.7473 78.7872Z" fill="#A7C192"/>
<path d="M104.19 114.989C104.19 118.198 95.2735 120.798 84.2739 120.798C74.401 120.798 68.6295 119.712 65.3754 114.764C64.6231 113.62 64.3776 112.079 65.2421 111.017C67.8019 107.874 74.805 109.18 84.2739 109.18C95.2735 109.18 104.19 111.781 104.19 114.989Z" fill="#A7C192"/>
<path fill-rule="evenodd" clip-rule="evenodd" d="M64.2736 71.567C49.9691 81.9831 64.9759 99.3327 82.8223 109.076C81.12 109.121 76.4638 109.074 72.3507 108.732C62.594 103.142 52.0811 92.9488 55.748 78.7872C57.2037 73.1651 60.6266 71.4071 64.2736 71.567Z" fill="#93AF7D"/>
<path fill-rule="evenodd" clip-rule="evenodd" d="M95.3873 110.255C79.1569 113.098 71.325 111.942 68.3077 109.317C66.9789 109.628 65.9433 110.156 65.2416 111.017C64.377 112.079 64.6226 113.62 65.3749 114.764C68.6289 119.712 74.4004 120.799 84.2733 120.799C95.2729 120.799 102.924 118.198 102.924 114.99C102.924 113.037 100.088 111.309 95.3873 110.255Z" fill="#93AF7D"/>
<path d="M133.11 122.666C163.179 122.666 208.149 112.085 181.192 43.2072C179.365 38.5393 175.059 28.6848 171.013 19.4527C171.532 18.2079 171.697 16.7734 171.74 15.4072C171.74 6.92832 164.866 0.0548698 156.387 0.0548698C152.653 -0.360057 148.953 1.68 147.57 2.75189C145.253 4.72279 141.035 9.39072 138.234 8.3534C132.923 6.94265 127.861 7.76559 125.994 8.3534C123.193 9.39072 118.975 4.72279 116.658 2.75189C115.724 1.74915 112.695 -0.194084 108.048 0.0548698C99.5695 0.0548698 92.696 6.92832 92.696 15.4072C92.7377 16.7411 92.9035 17.5855 93.5259 19.0378C90.2065 28.3736 86.5759 39.058 83.5676 45.4893C56.8049 112.915 103.041 122.666 133.11 122.666Z" fill="#A7C192"/>
<path fill-rule="evenodd" clip-rule="evenodd" d="M163.504 106.276C175.053 105.999 191.968 88.4549 167.239 20.4899C169.659 13.9202 169.79 0.780903 151.368 0.780903C151.361 0.771789 151.355 0.762663 151.349 0.753524C152.86 0.212404 154.62 -0.141704 156.389 0.0547985C164.868 0.0547985 171.741 6.92825 171.741 15.4071C171.699 16.7733 171.534 18.2078 171.015 19.4526C175.061 28.6847 179.367 38.5392 181.194 43.2072C204.877 103.72 173.043 119.236 144.571 122.112C144.07 117.478 144.346 112.998 144.936 109.595L163.504 106.276Z" fill="#93AF7D"/>
<path fill-rule="evenodd" clip-rule="evenodd" d="M100.98 106.276C89.4313 105.999 72.5162 88.4549 97.2458 20.4899C94.8254 13.9202 94.694 0.780903 113.117 0.780903C113.123 0.771614 113.129 0.762312 113.136 0.752997C111.625 0.212174 109.865 -0.14164 108.097 0.0547985C99.6184 0.0547985 92.7449 6.92825 92.7449 15.4071C92.7876 16.7733 92.9524 18.2078 93.471 19.4526C89.4255 28.6847 85.1196 38.5392 83.2927 43.2072C59.6095 103.719 91.4419 119.235 119.913 122.112C120.415 117.478 120.138 112.998 119.548 109.595L100.98 106.276Z" fill="#93AF7D"/>
<ellipse cx="108.998" cy="16.0297" rx="4.62124" ry="5.60151" fill="#5F4B3D"/>
<ellipse cx="153.996" cy="16.0297" rx="4.62124" ry="5.60151" fill="#5F4B3D"/>
<path d="M138.167 26.506C132.905 29.7297 128.855 27.7915 126.947 26.506C125.194 25.3374 126.131 23.9046 126.947 24.477C128.855 25.7625 132.594 28.129 138.167 24.477C138.983 23.9046 139.958 25.4087 138.167 26.506Z" fill="#5F4B3D"/>
<ellipse cx="170.351" cy="31.4852" rx="9.95824" ry="8.81719" fill="#F1B09E"/>
<ellipse cx="95.0422" cy="31.4852" rx="9.95824" ry="8.81719" fill="#F1B09E"/>
<path fill-rule="evenodd" clip-rule="evenodd" d="M162.144 118.134C152.843 121.849 142.302 122.929 133.201 122.929C123.593 122.929 112.244 121.82 102.392 117.764C90.7144 99.5628 82.6517 67.8724 105.235 50.0696C120.794 37.8044 144.686 37.7656 160.181 50.1111C182.688 68.0429 173.986 100.009 162.144 118.134Z" fill="#DAEDB8"/>
<path fill-rule="evenodd" clip-rule="evenodd" d="M133.2 122.928C142.301 122.928 152.842 121.848 162.143 118.134C164.652 114.293 167.02 109.832 168.98 105.015C137.455 118.015 114.383 112.161 95.8809 105.061C97.7415 109.707 99.9901 114.02 102.392 117.764C112.243 121.819 123.593 122.928 133.2 122.928Z" fill="#B7CF8C" fill-opacity="0.5"/>
<path d="M149.936 126.192C157.197 115.301 161.223 105.446 166.928 91.6499L138.172 104.028C137.21 110.537 135.237 124.109 135.243 125.991C135.251 128.672 139.696 129.433 141.031 126.677C141.505 125.781 142.044 125.643 142.473 125.773C142.94 125.915 143.04 126.483 143.243 126.927C144.112 128.821 148.411 128.48 149.936 126.192Z" fill="#DAEDB8"/>
<path fill-rule="evenodd" clip-rule="evenodd" d="M164.897 94.6459C159.825 109.772 154.707 122.717 150.228 126.677C148.17 128.497 144.064 128.82 143.237 126.929C143.196 126.835 143.16 126.736 143.123 126.637C142.983 126.263 142.843 125.885 142.474 125.773C142.045 125.643 141.506 125.781 141.032 126.677C139.697 129.433 135.252 128.672 135.244 125.991C135.243 125.731 135.28 125.249 135.347 124.593C137.866 125.635 138.853 124.285 139.853 122.917C140.485 122.052 141.122 121.18 142.156 120.902C143.362 120.577 143.339 121.146 143.31 121.873C143.274 122.771 143.228 123.911 145.475 123.911C149.19 123.911 160.704 102.023 165.061 93.7246L164.897 94.6459Z" fill="#A7C192"/>
<path d="M115.441 126.192C108.18 115.301 104.154 105.446 98.4492 91.6499L127.205 104.028C128.167 110.537 130.14 124.109 130.134 125.991C130.126 128.672 125.681 129.433 124.346 126.677C123.872 125.781 123.332 125.643 122.904 125.773C122.437 125.915 122.337 126.483 122.134 126.927C121.265 128.821 116.966 128.48 115.441 126.192Z" fill="#DAEDB8"/>
<path fill-rule="evenodd" clip-rule="evenodd" d="M100.478 94.6343C105.551 109.766 110.671 122.716 115.151 126.677C117.209 128.497 121.315 128.82 122.142 126.929C122.182 126.835 122.219 126.736 122.256 126.637C122.395 126.263 122.536 125.885 122.905 125.773C123.333 125.643 123.873 125.781 124.347 126.677C125.682 129.433 130.127 128.672 130.135 125.991C130.136 125.731 130.099 125.249 130.032 124.592C127.512 125.636 126.524 124.285 125.524 122.917C124.892 122.052 124.255 121.18 123.221 120.902C122.015 120.577 122.037 121.146 122.067 121.873C122.103 122.771 122.149 123.911 119.902 123.911C116.187 123.911 104.673 102.023 100.316 93.7246L100.478 94.6343Z" fill="#A7C192"/>
<defs>
<linearGradient id="paint0_linear_630_57" x1="259.367" y1="64.4501" x2="256.97" y2="79.5175" gradientUnits="userSpaceOnUse">
<stop stop-color="#F1B09E"/>
<stop offset="1" stop-color="#FAE6CE"/>
</linearGradient>
<linearGradient id="paint1_linear_630_57" x1="231.174" y1="65.1352" x2="233.571" y2="80.2025" gradientUnits="userSpaceOnUse">
<stop stop-color="#F1B09E"/>
<stop offset="1" stop-color="#FAE6CE"/>
</linearGradient>
<linearGradient id="paint2_linear_630_57" x1="223.773" y1="92.8725" x2="245.518" y2="106.57" gradientUnits="userSpaceOnUse">
<stop stop-color="#EFB7A4"/>
<stop offset="0.942708" stop-color="#F7E7D8"/>
</linearGradient>
<linearGradient id="paint3_linear_630_57" x1="223.773" y1="92.8725" x2="245.518" y2="106.57" gradientUnits="userSpaceOnUse">
<stop stop-color="#EFB7A4"/>
<stop offset="0.942708" stop-color="#F7E7D8"/>
</linearGradient>
<radialGradient id="paint4_radial_630_57" cx="0" cy="0" r="1" gradientUnits="userSpaceOnUse" gradientTransform="translate(245.668 71.2989) rotate(90.269) scale(36.4702 27.2166)">
<stop stop-color="#FADFCC"/>
<stop offset="1" stop-color="#F1BEAB"/>
</radialGradient>
<linearGradient id="paint5_linear_630_57" x1="266.803" y1="92.9639" x2="245.058" y2="106.661" gradientUnits="userSpaceOnUse">
<stop stop-color="#EFB7A4"/>
<stop offset="0.942708" stop-color="#F7E7D8"/>
</linearGradient>
<linearGradient id="paint6_linear_630_57" x1="266.803" y1="92.9639" x2="245.058" y2="106.661" gradientUnits="userSpaceOnUse">
<stop stop-color="#EFB7A4"/>
<stop offset="0.942708" stop-color="#F7E7D8"/>
</linearGradient>
<radialGradient id="paint7_radial_630_57" cx="0" cy="0" r="1" gradientUnits="userSpaceOnUse" gradientTransform="translate(244.341 104.353) rotate(-40.9302) scale(27.9059 38.3778)">
<stop stop-color="#FCE5D0"/>
<stop offset="1" stop-color="#EFB7A4"/>
</radialGradient>
<radialGradient id="paint8_radial_630_57" cx="0" cy="0" r="1" gradientUnits="userSpaceOnUse" gradientTransform="translate(243.026 104.806) rotate(-128.137) scale(27.9486 36.38)">
<stop stop-color="#FCE5D0"/>
<stop offset="1" stop-color="#EFB7A4"/>
</radialGradient>
<linearGradient id="paint9_linear_630_57" x1="238.321" y1="78.4907" x2="238.321" y2="108.283" gradientUnits="userSpaceOnUse">
<stop stop-color="#F0BFAF"/>
<stop offset="1" stop-color="#F0BFAF" stop-opacity="0"/>
</linearGradient>
<linearGradient id="paint10_linear_630_57" x1="255.116" y1="80.5444" x2="255.116" y2="108.111" gradientUnits="userSpaceOnUse">
<stop stop-color="#F4B59C"/>
<stop offset="1" stop-color="#F1C4B2" stop-opacity="0"/>
</linearGradient>
<linearGradient id="paint11_linear_630_57" x1="239.585" y1="89.9838" x2="236.829" y2="107.749" gradientUnits="userSpaceOnUse">
<stop stop-color="#F1BCA9"/>
<stop offset="1" stop-color="#F1BCA9" stop-opacity="0"/>
</linearGradient>
<linearGradient id="paint12_linear_630_57" x1="334.003" y1="162.009" x2="327.968" y2="203.29" gradientUnits="userSpaceOnUse">
<stop stop-color="#F1B09E"/>
<stop offset="1" stop-color="#FAE6CE"/>
</linearGradient>
<linearGradient id="paint13_linear_630_57" x1="250.274" y1="163.88" x2="256.309" y2="205.16" gradientUnits="userSpaceOnUse">
<stop stop-color="#F1B09E"/>
<stop offset="1" stop-color="#FAE6CE"/>
</linearGradient>
<linearGradient id="paint14_linear_630_57" x1="228.29" y1="239.581" x2="289.66" y2="281.651" gradientUnits="userSpaceOnUse">
<stop stop-color="#EFB7A4"/>
<stop offset="0.942708" stop-color="#F7E7D8"/>
</linearGradient>
<linearGradient id="paint15_linear_630_57" x1="228.29" y1="239.581" x2="289.66" y2="281.651" gradientUnits="userSpaceOnUse">
<stop stop-color="#EFB7A4"/>
<stop offset="0.942708" stop-color="#F7E7D8"/>
</linearGradient>
<radialGradient id="paint16_radial_630_57" cx="0" cy="0" r="1" gradientUnits="userSpaceOnUse" gradientTransform="translate(293.318 180.701) rotate(90.2927) scale(99.5355 80.834)">
<stop stop-color="#FADFCC"/>
<stop offset="1" stop-color="#F1BEAB"/>
</radialGradient>
<linearGradient id="paint17_linear_630_57" x1="356.093" y1="239.83" x2="294.723" y2="281.9" gradientUnits="userSpaceOnUse">
<stop stop-color="#EFB7A4"/>
<stop offset="0.942708" stop-color="#F7E7D8"/>
</linearGradient>
<linearGradient id="paint18_linear_630_57" x1="356.093" y1="239.83" x2="294.723" y2="281.9" gradientUnits="userSpaceOnUse">
<stop stop-color="#EFB7A4"/>
<stop offset="0.942708" stop-color="#F7E7D8"/>
</linearGradient>
<radialGradient id="paint19_radial_630_57" cx="0" cy="0" r="1" gradientUnits="userSpaceOnUse" gradientTransform="translate(289.371 270.913) rotate(-38.5493) scale(80.0664 108.424)">
<stop stop-color="#FCE5D0"/>
<stop offset="1" stop-color="#EFB7A4"/>
</radialGradient>
<radialGradient id="paint20_radial_630_57" cx="0" cy="0" r="1" gradientUnits="userSpaceOnUse" gradientTransform="translate(285.474 272.151) rotate(-130.512) scale(78.9124 104.443)">
<stop stop-color="#FCE5D0"/>
<stop offset="1" stop-color="#EFB7A4"/>
</radialGradient>
<linearGradient id="paint21_linear_630_57" x1="271.495" y1="200.328" x2="271.495" y2="281.638" gradientUnits="userSpaceOnUse">
<stop stop-color="#F0BFAF"/>
<stop offset="1" stop-color="#F0BFAF" stop-opacity="0"/>
</linearGradient>
<linearGradient id="paint22_linear_630_57" x1="321.379" y1="205.936" x2="321.379" y2="281.17" gradientUnits="userSpaceOnUse">
<stop stop-color="#F4B59C"/>
<stop offset="1" stop-color="#F1C4B2" stop-opacity="0"/>
</linearGradient>
<linearGradient id="paint23_linear_630_57" x1="275.253" y1="231.696" x2="268.316" y2="280.36" gradientUnits="userSpaceOnUse">
<stop stop-color="#F1BCA9"/>
<stop offset="1" stop-color="#F1BCA9" stop-opacity="0"/>
</linearGradient>
</defs>
</svg>
