<svg width="401" height="203" viewBox="0 0 401 203" fill="none" xmlns="http://www.w3.org/2000/svg">
<path d="M279.885 102.904C299.105 106.054 320.684 107.082 340.431 105.789C360.178 104.496 376.685 100.975 386.746 95.9092C396.806 90.8431 399.703 84.5939 394.872 78.3749C390.042 72.156 377.83 66.4112 360.608 62.2562C343.385 58.1012 322.382 55.8325 301.676 55.8906C280.969 55.9488 262.038 58.3296 248.559 62.5708C235.08 66.812 228.014 72.6109 228.733 78.8414C229.453 85.0719 237.907 91.2893 252.453 96.2862L312.919 81.1115L279.885 102.904Z" fill="#61934A"/>
<path d="M305.23 38.5977C302.837 54.1997 304.74 63.086 307.63 77.8017C320.447 74.42 355.398 59.0818 350.544 33.0891C346.785 12.9602 347.591 15.9653 338.144 1.20344C329.946 15.2923 307.055 26.6979 305.23 38.5977Z" fill="url(#paint0_linear_630_3)"/>
<path d="M322.079 39.7788C324.472 55.3808 322.569 64.2671 319.679 78.9829C306.861 75.6012 271.911 60.2629 276.765 34.2702C280.524 14.1413 279.717 17.1465 289.165 2.38459C297.363 16.4734 320.254 27.879 322.079 39.7788Z" fill="url(#paint1_linear_630_3)"/>
<path d="M259.001 41.7411C259.001 58.0466 283.604 79.8267 299.909 79.8267C316.215 79.8267 316.572 83.4369 316.572 67.1314C316.572 50.8259 304.83 46.76 288.525 46.76C259.001 38.9714 262.119 22.8459 259.001 41.7411Z" fill="url(#paint2_linear_630_3)"/>
<path d="M259.001 41.7411C259.001 58.0466 283.604 79.8267 299.909 79.8267C316.215 79.8267 316.572 83.4369 316.572 67.1314C316.572 50.8259 304.83 46.76 288.525 46.76C259.001 38.9714 262.119 22.8459 259.001 41.7411Z" fill="url(#paint3_linear_630_3)"/>
<path d="M343.567 44.8761C343.567 61.1816 326.739 52.8475 314.043 79.1237C300.462 45.7618 284.52 61.1816 284.52 44.8761C284.52 28.5706 301.643 10.0381 314.043 0C327.329 7.67618 343.567 28.5706 343.567 44.8761Z" fill="url(#paint4_radial_630_3)"/>
<path d="M343.893 42.2187C345.664 61.4091 324.966 59.8476 318.471 71.4472C326.115 53.4377 340.909 61.7718 340.909 45.4663C340.909 29.1608 330.902 18.5997 322.931 6.19971C334.74 18.3044 340.055 25.3902 343.893 42.2187Z" fill="#EEC1A9"/>
<path d="M368.37 41.8988C368.37 58.2043 343.767 79.9844 327.462 79.9844C311.156 79.9844 310.799 83.5947 310.799 67.2891C310.799 50.9836 322.541 46.9178 338.846 46.9178C368.37 39.1291 365.252 23.0036 368.37 41.8988Z" fill="url(#paint5_linear_630_3)"/>
<path d="M368.37 41.8988C368.37 58.2043 343.767 79.9844 327.462 79.9844C311.156 79.9844 310.799 83.5947 310.799 67.2891C310.799 50.9836 322.541 46.9178 338.846 46.9178C368.37 39.1291 365.252 23.0036 368.37 41.8988Z" fill="url(#paint6_linear_630_3)"/>
<path d="M347.699 40.5024C351.289 54.13 331.908 72.7925 320.555 75.783C309.202 78.7735 309.748 81.8564 306.158 68.2287C302.568 54.6011 314.72 40.0291 326.073 37.0386C354.911 34.5074 341.369 25.2822 347.699 40.5024Z" fill="url(#paint7_radial_630_3)"/>
<path d="M275.956 42.514C270.206 39.5671 262.375 33.0664 262.375 33.0664C262.375 33.0664 265.124 36.4282 267.099 38.3807C271.018 42.256 271.22 44.1237 275.956 46.9426C279.9 49.2903 282.957 51.3318 287.175 53.1426C291.267 54.8994 294.079 55.13 297.804 57.5711C302.866 60.8888 305.352 62.8256 308.137 68.1997C309.664 71.1471 311.975 79.1235 311.975 79.1235C311.975 79.1235 313.688 68.8919 312.565 64.6568C310.999 58.749 308.327 55.5957 303.413 51.9616C298.076 48.015 293.423 49.1832 287.175 46.9426C282.741 45.3525 280.148 44.6625 275.956 42.514Z" fill="#EAB29F" fill-opacity="0.84"/>
<path d="M280.94 35.1731C274.848 46.8283 290.364 68.7434 300.95 74.2761C311.535 79.8088 310.418 82.5106 316.51 70.8554C322.602 59.2002 313.414 42.8191 302.829 37.2864C274.987 27.8917 290.024 22.7248 280.94 35.1731Z" fill="url(#paint8_radial_630_3)"/>
<path d="M284.743 28.4109C284.709 28.5729 284.664 28.775 284.599 29.0176C284.284 30.1796 283.504 32.221 281.224 35.3493C279.759 38.1681 279.582 41.6297 280.335 45.356C281.089 49.09 282.771 53.0603 284.979 56.8528C289.401 64.448 295.886 71.2534 301.104 73.9806C303.024 74.9841 304.567 75.8984 305.828 76.6459C306.31 76.9316 306.751 77.193 307.156 77.4256C307.893 77.849 308.507 78.1744 309.043 78.3888C309.578 78.603 310.014 78.6974 310.398 78.6783C311.14 78.6414 311.821 78.173 312.725 76.8927C313.627 75.6158 314.688 73.6227 316.215 70.701C319.197 64.9962 318.454 58.1018 315.62 51.9137C312.792 45.7354 307.906 40.3247 302.697 37.5938C289.378 33.0964 285.819 29.5524 284.743 28.4109Z" stroke="#C88181" stroke-opacity="0.02" stroke-width="0.666676"/>
<path d="M294.557 34.2477L284.814 28.6382C284.814 28.6382 290.237 33.8612 294.557 35.7239C296.231 36.4457 297.325 36.4489 298.986 37.2001C301.929 38.5311 303.397 39.7393 305.776 41.9239C309.43 45.2775 310.835 47.8756 313.157 52.2572C314.512 54.8121 315.549 56.2109 316.11 59.0477C316.85 62.7957 316.268 65.1155 315.224 68.7905C314.504 71.3244 313.515 72.5328 312.567 74.9905C311.819 76.9297 310.795 80.0095 310.795 80.0095C310.795 80.0095 315.176 74.6369 316.7 70.5619C318.095 66.8336 318.714 64.4972 318.472 60.5238C318.291 57.5651 317.789 55.9 316.7 53.1429C315.523 50.1633 314.494 48.6158 312.567 46.0572C309.72 42.2783 307.768 40.2226 303.71 37.7906C300.422 35.8205 294.557 34.2477 294.557 34.2477Z" fill="url(#paint9_linear_630_3)"/>
<path d="M346.225 35.4288C346.024 34.0599 345.635 32.1812 345.635 32.1812C345.635 32.1812 345.442 34.4475 345.635 36.3145C345.841 38.3175 346.434 39.6518 346.816 41.6288C347.299 44.1295 346.817 45.6467 346.225 48.124C345.194 52.4381 343.488 54.5521 340.911 58.1621C337.452 63.0062 334.789 65.2741 329.987 68.7906C324.745 72.6295 319.496 71.5695 315.225 76.4668C314.195 77.6488 312.863 79.7144 312.863 79.7144C312.863 79.7144 314.993 78.2294 316.406 77.3525C321.798 74.0061 325.952 74.1754 331.168 70.562C336.53 66.8481 339.361 64.1805 342.978 58.7525C345.465 55.019 347.23 52.8396 347.997 48.4192C348.469 45.6927 348.586 44.0372 347.997 41.3335C347.49 39.0111 346.571 37.7804 346.225 35.4288Z" fill="url(#paint10_linear_630_3)"/>
<path d="M303.75 74.135C307.496 77.6047 314.56 81.4885 314.56 81.4885C314.56 81.4885 308.355 76.4969 304.851 72.812C301.42 69.2036 299.685 66.9809 296.828 62.9031C293.821 58.611 291.795 56.2851 289.951 51.3794C289.189 49.3516 288.387 46.0576 288.387 46.0576C288.387 46.0576 288.645 49.8294 289.232 52.1641C290.577 57.509 292.878 60.003 295.973 64.563C298.678 68.548 300.217 70.8618 303.75 74.135Z" fill="url(#paint11_linear_630_3)"/>
<path d="M111.73 107.722C105.947 142.373 110.546 162.108 117.53 194.791C148.508 187.28 232.979 153.215 221.248 95.4878C212.163 50.7833 214.112 57.4575 191.279 24.6727C171.465 55.9627 116.14 81.2935 111.73 107.722Z" fill="url(#paint12_linear_630_3)"/>
<path d="M152.448 110.345C158.231 144.996 153.631 164.732 146.648 197.414C115.67 189.904 31.1987 155.839 42.93 98.1113C52.0147 53.4068 50.0653 60.081 72.8992 27.2963C92.7129 58.5863 148.037 83.917 152.448 110.345Z" fill="url(#paint13_linear_630_3)"/>
<path d="M0.000152588 114.703C0.000152588 150.916 59.4622 199.288 98.8705 199.288C138.279 199.288 139.143 207.306 139.143 171.093C139.143 134.88 110.764 125.85 71.3552 125.85C0.000152588 108.552 7.53598 72.7388 0.000152588 114.703Z" fill="url(#paint14_linear_630_3)"/>
<path d="M0.000152588 114.703C0.000152588 150.916 59.4622 199.288 98.8705 199.288C138.279 199.288 139.143 207.306 139.143 171.093C139.143 134.88 110.764 125.85 71.3552 125.85C0.000152588 108.552 7.53598 72.7388 0.000152588 114.703Z" fill="url(#paint15_linear_630_3)"/>
<path d="M204.386 121.666C204.386 157.879 163.714 139.37 133.031 197.726C100.208 123.633 61.6758 157.879 61.6758 121.666C61.6758 85.4527 103.062 44.2937 133.031 22C165.141 39.0481 204.386 85.4527 204.386 121.666Z" fill="url(#paint16_radial_630_3)"/>
<path d="M205.174 115.764C209.455 158.384 159.431 154.916 143.732 180.678C162.208 140.68 197.962 159.19 197.962 122.977C197.962 86.7635 173.778 63.3083 154.512 35.769C183.054 62.6526 195.898 78.3893 205.174 115.764Z" fill="#EEC1A9"/>
<path d="M264.33 115.053C264.33 151.266 204.868 199.638 165.46 199.638C126.051 199.638 125.188 207.656 125.188 171.443C125.188 135.229 153.567 126.2 192.975 126.2C264.33 108.902 256.794 73.0884 264.33 115.053Z" fill="url(#paint17_linear_630_3)"/>
<path d="M264.33 115.053C264.33 151.266 204.868 199.638 165.46 199.638C126.051 199.638 125.188 207.656 125.188 171.443C125.188 135.229 153.567 126.2 192.975 126.2C264.33 108.902 256.794 73.0884 264.33 115.053Z" fill="url(#paint18_linear_630_3)"/>
<path d="M214.37 111.953C223.046 142.218 176.205 183.666 148.766 190.308C121.327 196.949 122.646 203.796 113.971 173.53C105.295 143.265 134.664 110.901 162.103 104.26C231.8 98.6383 199.07 78.15 214.37 111.953Z" fill="url(#paint19_radial_630_3)"/>
<path d="M40.9835 116.419C27.0876 109.874 8.16016 95.437 8.16016 95.437C8.16016 95.437 14.8052 102.903 19.577 107.24C29.0483 115.846 29.5372 119.994 40.9835 126.255C50.5167 131.469 57.9041 136.003 68.0984 140.024C77.9892 143.926 84.7836 144.438 93.7863 149.86C106.022 157.228 112.03 161.529 118.761 173.465C122.452 180.011 128.037 197.726 128.037 197.726C128.037 197.726 132.177 175.002 129.464 165.596C125.679 152.476 119.22 145.473 107.344 137.402C94.446 128.636 83.1984 131.231 68.0984 126.255C57.3825 122.723 51.1145 121.191 40.9835 116.419Z" fill="#EAB29F" fill-opacity="0.84"/>
<path d="M53.0248 100.116C38.3014 126.001 75.8027 174.672 101.386 186.96C126.969 199.247 124.27 205.248 138.993 179.363C153.717 153.478 131.511 117.097 105.927 104.809C38.638 83.9444 74.9787 72.4692 53.0248 100.116Z" fill="url(#paint20_radial_630_3)"/>
<path d="M53.2826 100.265C49.6601 106.649 49.2381 114.459 51.0729 122.808C52.9092 131.163 57.0001 140.028 62.3555 148.481C73.0713 165.393 88.8069 180.588 101.534 186.7C106.16 188.922 109.869 190.942 112.915 192.601C114.083 193.238 115.154 193.821 116.142 194.342C117.928 195.284 119.437 196.021 120.767 196.51C122.097 197 123.228 197.234 124.259 197.186C126.292 197.094 128.056 195.899 130.257 193.034C132.459 190.169 135.039 185.712 138.724 179.234C146.021 166.404 144.183 150.941 137.297 137.119C130.415 123.307 118.519 111.194 105.8 105.078C72.828 94.8523 64.6894 86.8688 62.3876 84.6109C62.3394 84.5636 62.2938 84.5189 62.2505 84.4766C62.1209 84.3501 62.0191 84.2529 61.9362 84.181C61.9292 84.1749 61.9224 84.1691 61.9159 84.1636C61.8835 84.2785 61.8483 84.4405 61.7992 84.6664C61.79 84.7084 61.7804 84.7526 61.7703 84.799C61.6864 85.1831 61.5714 85.6882 61.3857 86.319C60.6424 88.8442 58.7799 93.3387 53.2826 100.265Z" stroke="#C88181" stroke-opacity="0.02" stroke-width="0.597361"/>
<path d="M85.9378 98.0608L62.3906 85.6025C62.3906 85.6025 75.4964 97.2024 85.9378 101.339C89.9838 102.942 92.6265 102.949 96.6411 104.618C103.755 107.574 107.301 110.257 113.053 115.109C121.882 122.557 125.278 128.327 130.892 138.058C134.165 143.732 136.672 146.839 138.027 153.139C139.817 161.463 138.41 166.615 135.886 174.777C134.146 180.405 131.756 183.089 129.464 188.547C127.656 192.854 125.183 199.694 125.183 199.694C125.183 199.694 135.769 187.762 139.454 178.711C142.825 170.431 144.321 165.242 143.735 156.418C143.3 149.846 142.086 146.149 139.454 140.025C136.61 133.408 134.123 129.971 129.464 124.289C122.583 115.896 117.867 111.33 108.058 105.929C100.112 101.554 85.9378 98.0608 85.9378 98.0608Z" fill="url(#paint21_linear_630_3)"/>
<path d="M210.809 100.684C210.323 97.6437 209.382 93.4712 209.382 93.4712C209.382 93.4712 208.917 98.5045 209.382 102.651C209.881 107.099 211.313 110.063 212.236 114.453C213.404 120.007 212.24 123.377 210.809 128.879C208.318 138.46 204.194 143.155 197.965 151.172C189.606 161.931 183.17 166.968 171.564 174.777C158.893 183.303 146.207 180.949 135.886 191.826C133.395 194.451 130.178 199.038 130.178 199.038C130.178 199.038 135.326 195.74 138.74 193.793C151.771 186.361 161.811 186.737 174.418 178.712C187.376 170.463 194.22 164.539 202.96 152.484C208.971 144.192 213.239 139.352 215.09 129.534C216.232 123.479 216.514 119.802 215.09 113.798C213.867 108.64 211.645 105.907 210.809 100.684Z" fill="url(#paint22_linear_630_3)"/>
<path d="M108.156 186.647C117.209 194.353 134.283 202.979 134.283 202.979C134.283 202.979 119.287 191.893 110.819 183.709C102.526 175.695 98.3323 170.759 91.4269 161.702C84.159 152.17 79.2621 147.004 74.8068 136.109C72.9653 131.606 71.0254 124.29 71.0254 124.29C71.0254 124.29 71.6488 132.667 73.0685 137.852C76.3185 149.722 81.8792 155.261 89.3604 165.389C95.8981 174.239 99.6169 179.378 108.156 186.647Z" fill="url(#paint23_linear_630_3)"/>
<defs>
<linearGradient id="paint0_linear_630_3" x1="337.959" y1="4.42856" x2="333.826" y2="30.4095" gradientUnits="userSpaceOnUse">
<stop stop-color="#F1B09E"/>
<stop offset="1" stop-color="#FAE6CE"/>
</linearGradient>
<linearGradient id="paint1_linear_630_3" x1="289.349" y1="5.60972" x2="293.483" y2="31.5906" gradientUnits="userSpaceOnUse">
<stop stop-color="#F1B09E"/>
<stop offset="1" stop-color="#FAE6CE"/>
</linearGradient>
<linearGradient id="paint2_linear_630_3" x1="276.586" y1="53.438" x2="314.081" y2="77.057" gradientUnits="userSpaceOnUse">
<stop stop-color="#EFB7A4"/>
<stop offset="0.942708" stop-color="#F7E7D8"/>
</linearGradient>
<linearGradient id="paint3_linear_630_3" x1="276.586" y1="53.438" x2="314.081" y2="77.057" gradientUnits="userSpaceOnUse">
<stop stop-color="#EFB7A4"/>
<stop offset="0.942708" stop-color="#F7E7D8"/>
</linearGradient>
<radialGradient id="paint4_radial_630_3" cx="0" cy="0" r="1" gradientUnits="userSpaceOnUse" gradientTransform="translate(314.339 16.2381) rotate(90.269) scale(62.8863 46.9301)">
<stop stop-color="#FADFCC"/>
<stop offset="1" stop-color="#F1BEAB"/>
</radialGradient>
<linearGradient id="paint5_linear_630_3" x1="350.785" y1="53.5957" x2="313.29" y2="77.2147" gradientUnits="userSpaceOnUse">
<stop stop-color="#EFB7A4"/>
<stop offset="0.942708" stop-color="#F7E7D8"/>
</linearGradient>
<linearGradient id="paint6_linear_630_3" x1="350.785" y1="53.5957" x2="313.29" y2="77.2147" gradientUnits="userSpaceOnUse">
<stop stop-color="#EFB7A4"/>
<stop offset="0.942708" stop-color="#F7E7D8"/>
</linearGradient>
<radialGradient id="paint7_radial_630_3" cx="0" cy="0" r="1" gradientUnits="userSpaceOnUse" gradientTransform="translate(312.048 73.2337) rotate(-40.9302) scale(48.1187 66.1755)">
<stop stop-color="#FCE5D0"/>
<stop offset="1" stop-color="#EFB7A4"/>
</radialGradient>
<radialGradient id="paint8_radial_630_3" cx="0" cy="0" r="1" gradientUnits="userSpaceOnUse" gradientTransform="translate(309.784 74.0158) rotate(-128.137) scale(48.1923 62.7308)">
<stop stop-color="#FCE5D0"/>
<stop offset="1" stop-color="#EFB7A4"/>
</radialGradient>
<linearGradient id="paint9_linear_630_3" x1="301.669" y1="28.6382" x2="301.669" y2="80.0095" gradientUnits="userSpaceOnUse">
<stop stop-color="#F0BFAF"/>
<stop offset="1" stop-color="#F0BFAF" stop-opacity="0"/>
</linearGradient>
<linearGradient id="paint10_linear_630_3" x1="330.63" y1="32.1812" x2="330.63" y2="79.7144" gradientUnits="userSpaceOnUse">
<stop stop-color="#F4B59C"/>
<stop offset="1" stop-color="#F1C4B2" stop-opacity="0"/>
</linearGradient>
<linearGradient id="paint11_linear_630_3" x1="303.849" y1="48.4563" x2="299.097" y2="79.0898" gradientUnits="userSpaceOnUse">
<stop stop-color="#F1BCA9"/>
<stop offset="1" stop-color="#F1BCA9" stop-opacity="0"/>
</linearGradient>
<linearGradient id="paint12_linear_630_3" x1="190.833" y1="31.8354" x2="182.365" y2="89.7591" gradientUnits="userSpaceOnUse">
<stop stop-color="#F1B09E"/>
<stop offset="1" stop-color="#FAE6CE"/>
</linearGradient>
<linearGradient id="paint13_linear_630_3" x1="73.3451" y1="34.459" x2="81.8131" y2="92.3827" gradientUnits="userSpaceOnUse">
<stop stop-color="#F1B09E"/>
<stop offset="1" stop-color="#FAE6CE"/>
</linearGradient>
<linearGradient id="paint14_linear_630_3" x1="42.5" y1="140.681" x2="128.614" y2="199.712" gradientUnits="userSpaceOnUse">
<stop stop-color="#EFB7A4"/>
<stop offset="0.942708" stop-color="#F7E7D8"/>
</linearGradient>
<linearGradient id="paint15_linear_630_3" x1="42.5" y1="140.681" x2="128.614" y2="199.712" gradientUnits="userSpaceOnUse">
<stop stop-color="#EFB7A4"/>
<stop offset="0.942708" stop-color="#F7E7D8"/>
</linearGradient>
<radialGradient id="paint16_radial_630_3" cx="0" cy="0" r="1" gradientUnits="userSpaceOnUse" gradientTransform="translate(133.744 58.0633) rotate(90.2927) scale(139.665 113.424)">
<stop stop-color="#FADFCC"/>
<stop offset="1" stop-color="#F1BEAB"/>
</radialGradient>
<linearGradient id="paint17_linear_630_3" x1="221.83" y1="141.031" x2="135.717" y2="200.062" gradientUnits="userSpaceOnUse">
<stop stop-color="#EFB7A4"/>
<stop offset="0.942708" stop-color="#F7E7D8"/>
</linearGradient>
<linearGradient id="paint18_linear_630_3" x1="221.83" y1="141.031" x2="135.717" y2="200.062" gradientUnits="userSpaceOnUse">
<stop stop-color="#EFB7A4"/>
<stop offset="0.942708" stop-color="#F7E7D8"/>
</linearGradient>
<radialGradient id="paint19_radial_630_3" cx="0" cy="0" r="1" gradientUnits="userSpaceOnUse" gradientTransform="translate(128.205 184.646) rotate(-38.5493) scale(112.347 152.137)">
<stop stop-color="#FCE5D0"/>
<stop offset="1" stop-color="#EFB7A4"/>
</radialGradient>
<radialGradient id="paint20_radial_630_3" cx="0" cy="0" r="1" gradientUnits="userSpaceOnUse" gradientTransform="translate(122.737 186.382) rotate(-130.512) scale(110.727 146.551)">
<stop stop-color="#FCE5D0"/>
<stop offset="1" stop-color="#EFB7A4"/>
</radialGradient>
<linearGradient id="paint21_linear_630_3" x1="103.125" y1="85.6025" x2="103.125" y2="199.694" gradientUnits="userSpaceOnUse">
<stop stop-color="#F0BFAF"/>
<stop offset="1" stop-color="#F0BFAF" stop-opacity="0"/>
</linearGradient>
<linearGradient id="paint22_linear_630_3" x1="173.117" y1="93.4712" x2="173.117" y2="199.038" gradientUnits="userSpaceOnUse">
<stop stop-color="#F4B59C"/>
<stop offset="1" stop-color="#F1C4B2" stop-opacity="0"/>
</linearGradient>
<linearGradient id="paint23_linear_630_3" x1="108.397" y1="129.617" x2="98.6629" y2="197.901" gradientUnits="userSpaceOnUse">
<stop stop-color="#F1BCA9"/>
<stop offset="1" stop-color="#F1BCA9" stop-opacity="0"/>
</linearGradient>
</defs>
</svg>
