<svg width="227" height="155" viewBox="0 0 227 155" fill="none" xmlns="http://www.w3.org/2000/svg">
<path d="M95.6793 73.4068C90.7272 103.079 94.6658 119.98 100.646 147.967C127.174 141.535 199.509 112.364 189.464 62.9303C181.684 24.6482 183.353 30.3635 163.8 2.28875C146.833 29.0835 99.4563 50.7752 95.6793 73.4068Z" fill="url(#paint0_linear_227_4488)"/>
<path d="M130.547 75.6539C135.499 105.326 131.561 122.227 125.58 150.214C99.0526 143.782 26.7171 114.611 36.763 65.1773C44.5426 26.8953 42.8732 32.6106 62.4267 4.53582C79.394 31.3306 126.77 53.0222 130.547 75.6539Z" fill="url(#paint1_linear_227_4488)"/>
<path d="M-0.000396729 79.3857C-0.000396729 110.396 50.9191 151.819 84.6659 151.819C118.413 151.819 119.152 158.685 119.152 127.674C119.152 96.6636 94.8504 88.931 61.1036 88.931C-0.000396729 74.1182 6.45281 43.4499 -0.000396729 79.3857Z" fill="url(#paint2_linear_227_4488)"/>
<path d="M-0.000396729 79.3857C-0.000396729 110.396 50.9191 151.819 84.6659 151.819C118.413 151.819 119.152 158.685 119.152 127.674C119.152 96.6636 94.8504 88.931 61.1036 88.931C-0.000396729 74.1182 6.45281 43.4499 -0.000396729 79.3857Z" fill="url(#paint3_linear_227_4488)"/>
<path d="M175.023 85.3474C175.023 116.358 140.194 100.508 113.919 150.481C85.8116 87.0319 52.8154 116.358 52.8154 85.3474C52.8154 54.3368 88.2557 19.0909 113.919 0C141.416 14.5989 175.023 54.3368 175.023 85.3474Z" fill="url(#paint4_radial_227_4488)"/>
<path d="M175.699 80.2935C179.365 116.791 136.527 113.821 123.084 135.882C138.905 101.63 169.523 117.481 169.523 86.47C169.523 55.4594 148.813 35.3739 132.315 11.791C156.757 34.8124 167.755 48.2883 175.699 80.2935Z" fill="#EEC1A9"/>
<path d="M226.355 79.6846C226.355 110.695 175.435 152.118 141.689 152.118C107.942 152.118 107.202 158.984 107.202 127.973C107.202 96.9625 131.504 89.2299 165.251 89.2299C226.355 74.417 219.902 43.7488 226.355 79.6846Z" fill="url(#paint5_linear_227_4488)"/>
<path d="M226.355 79.6846C226.355 110.695 175.435 152.118 141.689 152.118C107.942 152.118 107.202 158.984 107.202 127.973C107.202 96.9625 131.504 89.2299 165.251 89.2299C226.355 74.417 219.902 43.7488 226.355 79.6846Z" fill="url(#paint6_linear_227_4488)"/>
<path d="M183.573 77.0295C191.003 102.947 150.891 138.44 127.394 144.128C103.897 149.815 105.027 155.678 97.5973 129.761C90.168 103.843 115.318 76.1294 138.815 70.4419C198.499 65.6279 170.471 48.0831 183.573 77.0295Z" fill="url(#paint7_radial_227_4488)"/>
<path d="M35.0951 80.8546C23.1956 75.25 6.9873 62.8867 6.9873 62.8867C6.9873 62.8867 12.6777 69.2804 16.7639 72.9937C24.8746 80.364 25.2933 83.916 35.0951 89.277C43.2587 93.742 49.5849 97.6247 58.3147 101.068C66.7844 104.41 72.6028 104.848 80.3121 109.491C90.7899 115.801 95.9346 119.484 101.698 129.705C104.86 135.31 109.642 150.48 109.642 150.48C109.642 150.48 113.188 131.021 110.864 122.967C107.623 111.731 102.092 105.734 91.9218 98.8225C80.877 91.3166 71.2453 93.5383 58.3147 89.277C49.1382 86.253 43.7706 84.9407 35.0951 80.8546Z" fill="#EAB29F" fill-opacity="0.84"/>
<path d="M45.4076 66.8931C32.7994 89.0594 64.9132 130.738 86.821 141.261C108.729 151.783 106.418 156.922 119.026 134.755C131.634 112.589 112.618 81.4345 90.7099 70.9121C33.0877 53.0449 64.2076 43.2183 45.4076 66.8931Z" fill="url(#paint8_radial_227_4488)"/>
<path d="M45.6953 67.0599C42.6084 72.5035 42.2457 79.1698 43.8143 86.307C45.3845 93.4516 48.8835 101.036 53.4667 108.269C62.6386 122.745 76.1044 135.745 86.9858 140.971C90.9498 142.875 94.1284 144.606 96.7369 146.027C97.7372 146.572 98.6536 147.071 99.4984 147.516C101.027 148.323 102.315 148.952 103.449 149.369C104.583 149.786 105.54 149.983 106.408 149.943C108.11 149.865 109.599 148.868 111.481 146.42C113.362 143.972 115.569 140.161 118.725 134.611C124.957 123.654 123.392 110.439 117.5 98.6144C111.614 86.8008 101.44 76.4423 90.5675 71.2126C62.3213 62.4515 55.3451 55.6092 53.3661 53.6682C53.3252 53.6281 53.2864 53.59 53.2496 53.5541C53.1788 53.485 53.1182 53.4266 53.0657 53.3779C53.0469 53.4578 53.0254 53.5566 52.9989 53.6786C52.9913 53.7135 52.9833 53.7503 52.9748 53.7891C52.9027 54.1187 52.8039 54.5532 52.6441 55.0958C52.0046 57.2684 50.4052 61.1245 45.6953 67.0599ZM53.1411 53.1299C53.1411 53.1298 53.1401 53.1312 53.1383 53.1347C53.1403 53.1318 53.1411 53.13 53.1411 53.1299Z" stroke="#C88181" stroke-opacity="0.02" stroke-width="0.666676"/>
<path d="M73.5911 65.1333L53.4268 54.4648C53.4268 54.4648 64.6497 64.3983 73.5911 67.9408C77.0558 69.3134 79.3188 69.3197 82.7567 70.7482C88.8485 73.2797 91.8853 75.5775 96.8106 79.7322C104.372 86.1102 107.28 91.0514 112.087 99.3845C114.89 104.244 117.037 106.904 118.197 112.299C119.73 119.427 118.525 123.839 116.364 130.828C114.874 135.647 112.827 137.946 110.864 142.62C109.316 146.308 107.198 152.165 107.198 152.165C107.198 152.165 116.264 141.947 119.419 134.197C122.306 127.107 123.586 122.663 123.085 115.106C122.712 109.479 121.672 106.313 119.419 101.069C116.984 95.4023 114.854 92.4592 110.864 87.5931C104.972 80.4062 100.933 76.4966 92.5333 71.8712C85.7292 68.1245 73.5911 65.1333 73.5911 65.1333Z" fill="url(#paint9_linear_227_4488)"/>
<path d="M180.524 67.3806C180.108 64.7772 179.302 61.2041 179.302 61.2041C179.302 61.2041 178.904 65.5143 179.302 69.065C179.729 72.8744 180.955 75.412 181.746 79.172C182.746 83.928 181.749 86.8135 180.524 91.5249C178.391 99.7297 174.86 103.75 169.525 110.616C162.367 119.829 156.856 124.142 146.917 130.83C136.067 138.131 125.203 136.115 116.365 145.429C114.232 147.676 111.477 151.605 111.477 151.605C111.477 151.605 115.885 148.781 118.809 147.113C129.967 140.749 138.565 141.071 149.361 134.199C160.458 127.135 166.318 122.062 173.803 111.739C178.951 104.638 182.605 100.493 184.19 92.0864C185.168 86.901 185.41 83.7525 184.19 78.6105C183.143 74.1936 181.24 71.853 180.524 67.3806Z" fill="url(#paint10_linear_227_4488)"/>
<path d="M92.6179 140.993C100.37 147.592 114.991 154.979 114.991 154.979C114.991 154.979 102.149 145.486 94.8977 138.477C87.7966 131.615 84.2052 127.388 78.2919 119.632C72.068 111.469 67.8747 107.046 64.0595 97.7159C62.4825 93.8593 60.8213 87.5947 60.8213 87.5947C60.8213 87.5947 61.3551 94.7681 62.5709 99.2084C65.354 109.373 70.1158 114.117 76.5222 122.789C82.1207 130.368 85.3053 134.769 92.6179 140.993Z" fill="url(#paint11_linear_227_4488)"/>
<defs>
<linearGradient id="paint0_linear_227_4488" x1="163.418" y1="8.42244" x2="156.167" y2="58.0246" gradientUnits="userSpaceOnUse">
<stop stop-color="#F1B09E"/>
<stop offset="1" stop-color="#FAE6CE"/>
</linearGradient>
<linearGradient id="paint1_linear_227_4488" x1="62.8086" y1="10.6695" x2="70.06" y2="60.2717" gradientUnits="userSpaceOnUse">
<stop stop-color="#F1B09E"/>
<stop offset="1" stop-color="#FAE6CE"/>
</linearGradient>
<linearGradient id="paint2_linear_227_4488" x1="36.3938" y1="101.631" x2="110.136" y2="152.182" gradientUnits="userSpaceOnUse">
<stop stop-color="#EFB7A4"/>
<stop offset="0.942708" stop-color="#F7E7D8"/>
</linearGradient>
<linearGradient id="paint3_linear_227_4488" x1="36.3938" y1="101.631" x2="110.136" y2="152.182" gradientUnits="userSpaceOnUse">
<stop stop-color="#EFB7A4"/>
<stop offset="0.942708" stop-color="#F7E7D8"/>
</linearGradient>
<radialGradient id="paint4_radial_227_4488" cx="0" cy="0" r="1" gradientUnits="userSpaceOnUse" gradientTransform="translate(114.53 30.8823) rotate(90.2927) scale(119.6 97.1288)">
<stop stop-color="#FADFCC"/>
<stop offset="1" stop-color="#F1BEAB"/>
</radialGradient>
<linearGradient id="paint5_linear_227_4488" x1="189.961" y1="101.93" x2="116.219" y2="152.481" gradientUnits="userSpaceOnUse">
<stop stop-color="#EFB7A4"/>
<stop offset="0.942708" stop-color="#F7E7D8"/>
</linearGradient>
<linearGradient id="paint6_linear_227_4488" x1="189.961" y1="101.93" x2="116.219" y2="152.481" gradientUnits="userSpaceOnUse">
<stop stop-color="#EFB7A4"/>
<stop offset="0.942708" stop-color="#F7E7D8"/>
</linearGradient>
<radialGradient id="paint7_radial_227_4488" cx="0" cy="0" r="1" gradientUnits="userSpaceOnUse" gradientTransform="translate(109.787 139.279) rotate(-38.5493) scale(96.2065 130.281)">
<stop stop-color="#FCE5D0"/>
<stop offset="1" stop-color="#EFB7A4"/>
</radialGradient>
<radialGradient id="paint8_radial_227_4488" cx="0" cy="0" r="1" gradientUnits="userSpaceOnUse" gradientTransform="translate(105.105 140.766) rotate(-130.512) scale(94.8199 125.497)">
<stop stop-color="#FCE5D0"/>
<stop offset="1" stop-color="#EFB7A4"/>
</radialGradient>
<linearGradient id="paint9_linear_227_4488" x1="88.3091" y1="54.4648" x2="88.3091" y2="152.165" gradientUnits="userSpaceOnUse">
<stop stop-color="#F0BFAF"/>
<stop offset="1" stop-color="#F0BFAF" stop-opacity="0"/>
</linearGradient>
<linearGradient id="paint10_linear_227_4488" x1="148.247" y1="61.2041" x2="148.247" y2="151.605" gradientUnits="userSpaceOnUse">
<stop stop-color="#F4B59C"/>
<stop offset="1" stop-color="#F1C4B2" stop-opacity="0"/>
</linearGradient>
<linearGradient id="paint11_linear_227_4488" x1="92.8236" y1="92.1566" x2="84.4883" y2="150.631" gradientUnits="userSpaceOnUse">
<stop stop-color="#F1BCA9"/>
<stop offset="1" stop-color="#F1BCA9" stop-opacity="0"/>
</linearGradient>
</defs>
</svg>
