<svg width="176" height="115" viewBox="0 0 176 115" fill="none" xmlns="http://www.w3.org/2000/svg">
<path d="M54.8854 106.792C74.1049 109.941 95.6836 110.97 115.431 109.677C135.178 108.384 151.685 104.863 161.746 99.7969C171.806 94.7308 174.703 88.4816 169.872 82.2626C165.042 76.0437 152.83 70.2989 135.608 66.1439C118.385 61.9889 97.3818 59.7202 76.6756 59.7783C55.9694 59.8365 37.0385 62.2173 23.559 66.4585C10.0795 70.6997 3.01352 76.4986 3.73316 82.7291C4.4528 88.9596 12.9067 95.1769 27.4532 100.174L87.9187 84.9992L54.8854 106.792Z" fill="#6C8C42"/>
<path d="M84.2298 38.5977C81.8371 54.1997 83.7401 63.086 86.6297 77.8017C99.4471 74.42 134.398 59.0818 129.544 33.0891C125.785 12.9602 126.591 15.9653 117.144 1.20344C108.946 15.2923 86.0547 26.6979 84.2298 38.5977Z" fill="url(#paint0_linear_227_4436)"/>
<path d="M101.079 39.7793C103.472 55.3813 101.569 64.2676 98.6788 78.9834C85.8615 75.6017 50.911 60.2634 55.7649 34.2707C59.5237 14.1418 58.7171 17.1469 68.1648 2.38508C76.363 16.4739 99.2539 27.8795 101.079 39.7793Z" fill="url(#paint1_linear_227_4436)"/>
<path d="M38 41.7406C38 58.0461 62.6029 79.8262 78.9084 79.8262C95.2139 79.8262 95.5713 83.4364 95.5713 67.1309C95.5713 50.8254 83.8292 46.7596 67.5237 46.7596C38 38.9709 41.118 22.8454 38 41.7406Z" fill="url(#paint2_linear_227_4436)"/>
<path d="M38 41.7406C38 58.0461 62.6029 79.8262 78.9084 79.8262C95.2139 79.8262 95.5713 83.4364 95.5713 67.1309C95.5713 50.8254 83.8292 46.7596 67.5237 46.7596C38 38.9709 41.118 22.8454 38 41.7406Z" fill="url(#paint3_linear_227_4436)"/>
<path d="M122.567 44.8761C122.567 61.1816 105.739 52.8475 93.0433 79.1237C79.4624 45.7618 63.5195 61.1816 63.5195 44.8761C63.5195 28.5706 80.6433 10.0381 93.0433 0C106.329 7.67618 122.567 28.5706 122.567 44.8761Z" fill="url(#paint4_radial_227_4436)"/>
<path d="M122.893 42.2192C124.664 61.4096 103.966 59.8481 97.4707 71.4477C105.115 53.4382 119.909 61.7723 119.909 45.4668C119.909 29.1613 109.902 18.6002 101.931 6.2002C113.74 18.3049 119.055 25.3906 122.893 42.2192Z" fill="#EEC1A9"/>
<path d="M147.37 41.8988C147.37 58.2043 122.767 79.9844 106.462 79.9844C90.1562 79.9844 89.7988 83.5947 89.7988 67.2891C89.7988 50.9836 101.541 46.9178 117.846 46.9178C147.37 39.1291 144.252 23.0036 147.37 41.8988Z" fill="url(#paint5_linear_227_4436)"/>
<path d="M147.37 41.8988C147.37 58.2043 122.767 79.9844 106.462 79.9844C90.1562 79.9844 89.7988 83.5947 89.7988 67.2891C89.7988 50.9836 101.541 46.9178 117.846 46.9178C147.37 39.1291 144.252 23.0036 147.37 41.8988Z" fill="url(#paint6_linear_227_4436)"/>
<path d="M126.699 40.5024C130.289 54.13 110.908 72.7925 99.5549 75.783C88.2018 78.7735 88.7478 81.8564 85.1581 68.2287C81.5685 54.6011 93.7202 40.0291 105.073 37.0386C133.911 34.5074 120.369 25.2822 126.699 40.5024Z" fill="url(#paint7_radial_227_4436)"/>
<path d="M54.9569 42.514C49.2074 39.5671 41.376 33.0664 41.376 33.0664C41.376 33.0664 44.1254 36.4282 46.0998 38.3807C50.0186 42.256 50.2209 44.1237 54.9569 46.9426C58.9013 49.2903 61.958 51.3318 66.1759 53.1426C70.2683 54.8994 73.0796 55.13 76.8045 57.5711C81.8671 60.8888 84.3529 62.8256 87.1378 68.1997C88.6652 71.1471 90.9759 79.1235 90.9759 79.1235C90.9759 79.1235 92.689 68.8919 91.5664 64.6568C90.0004 58.749 87.3281 55.5957 82.414 51.9616C77.0774 48.015 72.4237 49.1832 66.1759 46.9426C61.7422 45.3525 59.1487 44.6625 54.9569 42.514Z" fill="#EAB29F" fill-opacity="0.84"/>
<path d="M59.9409 35.1736C53.849 46.8288 69.3655 68.7438 79.9508 74.2765C90.536 79.8092 89.4192 82.5111 95.5112 70.8559C101.603 59.2007 92.415 42.8196 81.8298 37.2869C53.9883 27.8922 69.0245 22.7253 59.9409 35.1736Z" fill="url(#paint8_radial_227_4436)"/>
<path d="M63.7435 28.4114C63.7101 28.5733 63.6654 28.7755 63.5998 29.0181C63.2855 30.1801 62.5047 32.2215 60.225 35.3498C58.7601 38.1686 58.5831 41.6302 59.3356 45.3565C60.0897 49.0905 61.7718 53.0608 63.98 56.8533C68.4021 64.4485 74.8874 71.2539 80.1052 73.9811C82.025 74.9846 83.5676 75.8989 84.8288 76.6464C85.3109 76.9321 85.7518 77.1935 86.157 77.4261C86.8943 77.8494 87.508 78.1749 88.0435 78.3893C88.5787 78.6035 89.0145 78.6979 89.3994 78.6788C90.1406 78.6419 90.8221 78.1735 91.7261 76.8932C92.6276 75.6163 93.6886 73.6232 95.2157 70.7015C98.1975 64.9967 97.4545 58.1023 94.6213 51.9142C91.7926 45.7359 86.9069 40.3251 81.6984 37.5943C68.3786 33.0969 64.8197 29.5529 63.7435 28.4114Z" stroke="#C88181" stroke-opacity="0.02" stroke-width="0.666676"/>
<path d="M73.5573 34.2482L63.8145 28.6387C63.8145 28.6387 69.2371 33.8617 73.5573 35.7244C75.2313 36.4461 76.3248 36.4494 77.9859 37.2006C80.9293 38.5316 82.3966 39.7398 84.7763 41.9244C88.4296 45.278 89.8346 47.8761 92.1573 52.2577C93.5116 54.8126 94.549 56.2114 95.1096 59.0481C95.8503 62.7962 95.2683 65.116 94.2239 68.791C93.5038 71.3249 92.515 72.5333 91.5668 74.991C90.8186 76.9302 89.7954 80.01 89.7954 80.01C89.7954 80.01 94.1756 74.6374 95.7001 70.5624C97.095 66.8341 97.7137 64.4977 97.4715 60.5243C97.2912 57.5655 96.7889 55.9005 95.7001 53.1434C94.5235 50.1638 93.4945 48.6163 91.5668 46.0577C88.7197 42.2788 86.7682 40.2231 82.7097 37.791C79.4221 35.821 73.5573 34.2482 73.5573 34.2482Z" fill="url(#paint9_linear_227_4436)"/>
<path d="M125.225 35.4293C125.024 34.0604 124.635 32.1816 124.635 32.1816C124.635 32.1816 124.442 34.448 124.635 36.315C124.841 38.3179 125.434 39.6522 125.816 41.6292C126.299 44.13 125.817 45.6472 125.225 48.1245C124.194 52.4386 122.488 54.5526 119.911 58.1626C116.452 63.0067 113.789 65.2746 108.987 68.7911C103.745 72.63 98.4956 71.57 94.2252 76.4673C93.1945 77.6493 91.8633 79.7149 91.8633 79.7149C91.8633 79.7149 93.9933 78.2299 95.4061 77.353C100.798 74.0066 104.952 74.1759 110.168 70.5625C115.53 66.8486 118.361 64.181 121.978 58.753C124.465 55.0194 126.23 52.84 126.997 48.4197C127.469 45.6932 127.586 44.0377 126.997 41.334C126.49 39.0116 125.571 37.7809 125.225 35.4293Z" fill="url(#paint10_linear_227_4436)"/>
<path d="M82.7509 74.135C86.4965 77.6047 93.561 81.4885 93.561 81.4885C93.561 81.4885 87.3563 76.4969 83.8525 72.812C80.4214 69.2036 78.6861 66.9809 75.829 62.9031C72.8218 58.611 70.7957 56.2851 68.9523 51.3794C68.1903 49.3516 67.3877 46.0576 67.3877 46.0576C67.3877 46.0576 67.6456 49.8294 68.233 52.1641C69.5778 57.509 71.8786 60.003 74.9739 64.563C77.679 68.548 79.2177 70.8618 82.7509 74.135Z" fill="url(#paint11_linear_227_4436)"/>
<defs>
<linearGradient id="paint0_linear_227_4436" x1="116.959" y1="4.42856" x2="112.826" y2="30.4095" gradientUnits="userSpaceOnUse">
<stop stop-color="#F1B09E"/>
<stop offset="1" stop-color="#FAE6CE"/>
</linearGradient>
<linearGradient id="paint1_linear_227_4436" x1="68.3494" y1="5.6102" x2="72.4827" y2="31.5911" gradientUnits="userSpaceOnUse">
<stop stop-color="#F1B09E"/>
<stop offset="1" stop-color="#FAE6CE"/>
</linearGradient>
<linearGradient id="paint2_linear_227_4436" x1="55.5846" y1="53.4375" x2="93.0798" y2="77.0565" gradientUnits="userSpaceOnUse">
<stop stop-color="#EFB7A4"/>
<stop offset="0.942708" stop-color="#F7E7D8"/>
</linearGradient>
<linearGradient id="paint3_linear_227_4436" x1="55.5846" y1="53.4375" x2="93.0798" y2="77.0565" gradientUnits="userSpaceOnUse">
<stop stop-color="#EFB7A4"/>
<stop offset="0.942708" stop-color="#F7E7D8"/>
</linearGradient>
<radialGradient id="paint4_radial_227_4436" cx="0" cy="0" r="1" gradientUnits="userSpaceOnUse" gradientTransform="translate(93.3385 16.2381) rotate(90.269) scale(62.8863 46.9301)">
<stop stop-color="#FADFCC"/>
<stop offset="1" stop-color="#F1BEAB"/>
</radialGradient>
<linearGradient id="paint5_linear_227_4436" x1="129.785" y1="53.5957" x2="92.2903" y2="77.2147" gradientUnits="userSpaceOnUse">
<stop stop-color="#EFB7A4"/>
<stop offset="0.942708" stop-color="#F7E7D8"/>
</linearGradient>
<linearGradient id="paint6_linear_227_4436" x1="129.785" y1="53.5957" x2="92.2903" y2="77.2147" gradientUnits="userSpaceOnUse">
<stop stop-color="#EFB7A4"/>
<stop offset="0.942708" stop-color="#F7E7D8"/>
</linearGradient>
<radialGradient id="paint7_radial_227_4436" cx="0" cy="0" r="1" gradientUnits="userSpaceOnUse" gradientTransform="translate(91.0478 73.2337) rotate(-40.9302) scale(48.1187 66.1755)">
<stop stop-color="#FCE5D0"/>
<stop offset="1" stop-color="#EFB7A4"/>
</radialGradient>
<radialGradient id="paint8_radial_227_4436" cx="0" cy="0" r="1" gradientUnits="userSpaceOnUse" gradientTransform="translate(88.7849 74.0163) rotate(-128.137) scale(48.1923 62.7308)">
<stop stop-color="#FCE5D0"/>
<stop offset="1" stop-color="#EFB7A4"/>
</radialGradient>
<linearGradient id="paint9_linear_227_4436" x1="80.6687" y1="28.6387" x2="80.6687" y2="80.01" gradientUnits="userSpaceOnUse">
<stop stop-color="#F0BFAF"/>
<stop offset="1" stop-color="#F0BFAF" stop-opacity="0"/>
</linearGradient>
<linearGradient id="paint10_linear_227_4436" x1="109.63" y1="32.1816" x2="109.63" y2="79.7149" gradientUnits="userSpaceOnUse">
<stop stop-color="#F4B59C"/>
<stop offset="1" stop-color="#F1C4B2" stop-opacity="0"/>
</linearGradient>
<linearGradient id="paint11_linear_227_4436" x1="82.8504" y1="48.4563" x2="78.0983" y2="79.0898" gradientUnits="userSpaceOnUse">
<stop stop-color="#F1BCA9"/>
<stop offset="1" stop-color="#F1BCA9" stop-opacity="0"/>
</linearGradient>
</defs>
</svg>
