<svg width="110" height="92" viewBox="0 0 110 92" fill="none" xmlns="http://www.w3.org/2000/svg">
<path d="M45.4409 85.1879C61.3517 87.795 79.2155 88.6462 95.5633 87.576C111.911 86.5059 125.576 83.5908 133.905 79.3969C142.233 75.203 144.631 70.0296 140.632 64.8813C136.634 59.7329 126.524 54.9772 112.267 51.5375C98.0092 48.0977 80.6214 46.2196 63.4798 46.2677C46.3383 46.3159 30.6664 48.2868 19.5075 51.7979C8.34852 55.309 2.49897 60.1095 3.09472 65.2674C3.69047 70.4253 10.689 75.5723 22.7313 79.709L72.7874 67.1467L45.4409 85.1879Z" fill="#51833A"/>
<path d="M66.4215 31.9529C64.4407 44.869 66.0161 52.2255 68.4083 64.4079C79.0191 61.6083 107.953 48.9106 103.935 27.3927C100.823 10.729 101.49 13.2168 93.6692 0.996261C86.8825 12.6596 67.9323 22.1017 66.4215 31.9529Z" fill="url(#paint0_linear_2455_4749)"/>
<path d="M80.3675 32.9295C82.3483 45.8455 80.7729 53.202 78.3807 65.3844C67.7699 62.5849 38.8363 49.8872 42.8545 28.3692C45.9663 11.7056 45.2986 14.1934 53.1198 1.97282C59.9066 13.6362 78.8568 23.0783 80.3675 32.9295Z" fill="url(#paint1_linear_2455_4749)"/>
<path d="M28.1484 34.554C28.1484 48.0525 48.5158 66.0831 62.0143 66.0831C75.5127 66.0831 75.8086 69.0718 75.8086 55.5733C75.8086 42.0749 66.088 38.709 52.5895 38.709C28.1484 32.2612 30.7296 18.9117 28.1484 34.554Z" fill="url(#paint2_linear_2455_4749)"/>
<path d="M28.1484 34.554C28.1484 48.0525 48.5158 66.0831 62.0143 66.0831C75.5127 66.0831 75.8086 69.0718 75.8086 55.5733C75.8086 42.0749 66.088 38.709 52.5895 38.709C28.1484 32.2612 30.7296 18.9117 28.1484 34.554Z" fill="url(#paint3_linear_2455_4749)"/>
<path d="M98.1557 37.1505C98.1557 50.649 84.2243 43.7496 73.7146 65.5022C62.4716 37.8837 49.2734 50.649 49.2734 37.1505C49.2734 23.6521 63.4493 8.30998 73.7146 0C84.7131 6.35469 98.1557 23.6521 98.1557 37.1505Z" fill="url(#paint4_radial_2455_4749)"/>
<path d="M98.4284 34.951C99.8948 50.8377 82.7599 49.545 77.3828 59.1477C83.7113 44.2386 95.9581 51.138 95.9581 37.6395C95.9581 24.141 87.6743 15.3981 81.0752 5.13281C90.8517 15.1537 95.2511 21.0195 98.4284 34.951Z" fill="#EEC1A9"/>
<path d="M118.691 34.6869C118.691 48.1853 98.324 66.2159 84.8256 66.2159C71.3271 66.2159 71.0312 69.2046 71.0312 55.7061C71.0312 42.2077 80.7519 38.8418 94.2503 38.8418C118.691 32.394 116.11 19.0445 118.691 34.6869Z" fill="url(#paint5_linear_2455_4749)"/>
<path d="M118.691 34.6869C118.691 48.1853 98.324 66.2159 84.8256 66.2159C71.3271 66.2159 71.0312 69.2046 71.0312 55.7061C71.0312 42.2077 80.7519 38.8418 94.2503 38.8418C118.691 32.394 116.11 19.0445 118.691 34.6869Z" fill="url(#paint6_linear_2455_4749)"/>
<path d="M101.579 33.5296C104.55 44.8112 88.5058 60.2609 79.1072 62.7365C69.7085 65.2122 70.1605 67.7644 67.1888 56.4828C64.2172 45.2012 74.2769 33.1378 83.6756 30.6621C107.549 28.5667 96.3376 20.9297 101.579 33.5296Z" fill="url(#paint7_radial_2455_4749)"/>
<path d="M42.1882 35.1962C37.4285 32.7566 30.9453 27.375 30.9453 27.375C30.9453 27.375 33.2214 30.1581 34.8559 31.7744C38.1001 34.9826 38.2676 36.5287 42.1882 38.8623C45.4536 40.8059 47.984 42.4959 51.4759 43.995C54.8637 45.4494 57.191 45.6403 60.2747 47.6611C64.4657 50.4077 66.5235 52.011 68.8291 56.4599C70.0935 58.9 72.0064 65.5032 72.0064 65.5032C72.0064 65.5032 73.4246 57.033 72.4952 53.527C71.1988 48.6362 68.9866 46.0258 64.9185 43.0173C60.5006 39.7501 56.648 40.7172 51.4759 38.8623C47.8054 37.546 45.6584 36.9748 42.1882 35.1962Z" fill="#EAB29F" fill-opacity="0.84"/>
<path d="M46.3095 29.1184C41.2663 38.7671 54.1115 56.9094 62.8745 61.4896C71.6375 66.0698 70.713 68.3065 75.7561 58.6578C80.7993 49.0091 73.193 35.4481 64.4301 30.8678C41.3816 23.0905 53.8293 18.8131 46.3095 29.1184Z" fill="url(#paint8_radial_2455_4749)"/>
<path d="M49.491 23.639C49.4662 23.7528 49.4349 23.8856 49.3938 24.0375C49.1317 25.0069 48.4823 26.702 46.5936 29.2945C45.3908 31.6117 45.2435 34.4613 45.8646 37.5369C46.4873 40.6201 47.8769 43.901 49.7028 47.037C53.3604 53.3191 58.7223 58.9432 63.0289 61.1942C64.6197 62.0256 65.899 62.7839 66.9434 63.4029C67.3421 63.6391 67.7065 63.8551 68.041 64.0472C68.6509 64.3974 69.156 64.6651 69.5954 64.841C70.0344 65.0168 70.3865 65.0919 70.6937 65.0766C71.2795 65.0475 71.8297 64.6793 72.5758 63.6227C73.3194 62.5695 74.1958 60.9235 75.4607 58.5034C77.9181 53.8019 77.3084 48.1141 74.9673 43.0009C72.6308 37.8975 68.5961 33.4299 64.2986 31.1753C53.5553 27.5473 50.4739 24.6662 49.491 23.639Z" stroke="#C88181" stroke-opacity="0.02" stroke-width="0.666676"/>
<path d="M57.5851 28.3508L49.5195 23.707C49.5195 23.707 54.0086 28.0309 57.5851 29.5729C58.971 30.1704 59.8762 30.1731 61.2513 30.795C63.688 31.8969 64.9027 32.8971 66.8727 34.7055C69.8971 37.4818 71.0602 39.6326 72.983 43.2599C74.1042 45.375 74.963 46.533 75.4271 48.8814C76.0403 51.9842 75.5585 53.9046 74.6939 56.947C74.0978 59.0446 73.2792 60.045 72.4942 62.0796C71.8748 63.685 71.0277 66.2346 71.0277 66.2346C71.0277 66.2346 74.6539 61.7869 75.9159 58.4134C77.0707 55.327 77.5829 53.3927 77.3824 50.1034C77.2331 47.654 76.8173 46.2756 75.9159 43.9932C74.9419 41.5265 74.09 40.2454 72.4942 38.1273C70.1372 34.9989 68.5217 33.2971 65.1619 31.2838C62.4402 29.6529 57.5851 28.3508 57.5851 28.3508Z" fill="url(#paint9_linear_2455_4749)"/>
<path d="M100.357 29.3291C100.19 28.1959 99.8679 26.6406 99.8679 26.6406C99.8679 26.6406 99.7086 28.5168 99.8679 30.0624C100.039 31.7205 100.529 32.8251 100.846 34.4618C101.246 36.532 100.847 37.788 100.357 39.8388C99.5034 43.4103 98.091 45.1603 95.9574 48.1488C93.0943 52.159 90.8896 54.0365 86.9141 56.9476C82.5742 60.1256 78.2288 59.2481 74.6936 63.3023C73.8403 64.2808 72.7383 65.9908 72.7383 65.9908C72.7383 65.9908 74.5016 64.7615 75.6712 64.0355C80.1345 61.2652 83.5735 61.4054 87.8918 58.4141C92.3303 55.3395 94.6746 53.1312 97.6682 48.6376C99.7274 45.5468 101.189 43.7426 101.823 40.0832C102.214 37.8261 102.311 36.4556 101.823 34.2174C101.404 32.2948 100.643 31.2759 100.357 29.3291Z" fill="url(#paint10_linear_2455_4749)"/>
<path d="M65.195 61.3726C68.2957 64.2451 74.144 67.4602 74.144 67.4602C74.144 67.4602 69.0075 63.328 66.1069 60.2774C63.2665 57.2902 61.8299 55.4502 59.4647 52.0743C56.9752 48.5212 55.2979 46.5957 53.7718 42.5345C53.141 40.8558 52.4766 38.1289 52.4766 38.1289C52.4766 38.1289 52.6901 41.2514 53.1764 43.1842C54.2896 47.6089 56.1943 49.6735 58.7568 53.4485C60.9961 56.7475 62.27 58.663 65.195 61.3726Z" fill="url(#paint11_linear_2455_4749)"/>
<defs>
<linearGradient id="paint0_linear_2455_4749" x1="93.5165" y1="3.66617" x2="90.0947" y2="25.1744" gradientUnits="userSpaceOnUse">
<stop stop-color="#F1B09E"/>
<stop offset="1" stop-color="#FAE6CE"/>
</linearGradient>
<linearGradient id="paint1_linear_2455_4749" x1="53.2726" y1="4.64273" x2="56.6943" y2="26.1509" gradientUnits="userSpaceOnUse">
<stop stop-color="#F1B09E"/>
<stop offset="1" stop-color="#FAE6CE"/>
</linearGradient>
<linearGradient id="paint2_linear_2455_4749" x1="42.7058" y1="44.2373" x2="73.746" y2="63.7902" gradientUnits="userSpaceOnUse">
<stop stop-color="#EFB7A4"/>
<stop offset="0.942708" stop-color="#F7E7D8"/>
</linearGradient>
<linearGradient id="paint3_linear_2455_4749" x1="42.7058" y1="44.2373" x2="73.746" y2="63.7902" gradientUnits="userSpaceOnUse">
<stop stop-color="#EFB7A4"/>
<stop offset="0.942708" stop-color="#F7E7D8"/>
</linearGradient>
<radialGradient id="paint4_radial_2455_4749" cx="0" cy="0" r="1" gradientUnits="userSpaceOnUse" gradientTransform="translate(73.959 13.4426) rotate(90.269) scale(52.0602 38.8509)">
<stop stop-color="#FADFCC"/>
<stop offset="1" stop-color="#F1BEAB"/>
</radialGradient>
<linearGradient id="paint5_linear_2455_4749" x1="104.134" y1="44.3701" x2="73.0938" y2="63.923" gradientUnits="userSpaceOnUse">
<stop stop-color="#EFB7A4"/>
<stop offset="0.942708" stop-color="#F7E7D8"/>
</linearGradient>
<linearGradient id="paint6_linear_2455_4749" x1="104.134" y1="44.3701" x2="73.0938" y2="63.923" gradientUnits="userSpaceOnUse">
<stop stop-color="#EFB7A4"/>
<stop offset="0.942708" stop-color="#F7E7D8"/>
</linearGradient>
<radialGradient id="paint7_radial_2455_4749" cx="0" cy="0" r="1" gradientUnits="userSpaceOnUse" gradientTransform="translate(72.0646 60.6261) rotate(-40.9302) scale(39.8349 54.7831)">
<stop stop-color="#FCE5D0"/>
<stop offset="1" stop-color="#EFB7A4"/>
</radialGradient>
<radialGradient id="paint8_radial_2455_4749" cx="0" cy="0" r="1" gradientUnits="userSpaceOnUse" gradientTransform="translate(70.1878 61.2741) rotate(-128.137) scale(39.8958 51.9314)">
<stop stop-color="#FCE5D0"/>
<stop offset="1" stop-color="#EFB7A4"/>
</radialGradient>
<linearGradient id="paint9_linear_2455_4749" x1="63.4722" y1="23.707" x2="63.4722" y2="66.2346" gradientUnits="userSpaceOnUse">
<stop stop-color="#F0BFAF"/>
<stop offset="1" stop-color="#F0BFAF" stop-opacity="0"/>
</linearGradient>
<linearGradient id="paint10_linear_2455_4749" x1="87.4461" y1="26.6406" x2="87.4461" y2="65.9908" gradientUnits="userSpaceOnUse">
<stop stop-color="#F4B59C"/>
<stop offset="1" stop-color="#F1C4B2" stop-opacity="0"/>
</linearGradient>
<linearGradient id="paint11_linear_2455_4749" x1="65.2773" y1="40.1146" x2="61.3433" y2="65.4745" gradientUnits="userSpaceOnUse">
<stop stop-color="#F1BCA9"/>
<stop offset="1" stop-color="#F1BCA9" stop-opacity="0"/>
</linearGradient>
</defs>
</svg>
