<svg width="345" height="171" viewBox="0 0 345 171" fill="none" xmlns="http://www.w3.org/2000/svg">
<path d="M168.231 151.653C203.946 151.187 238.963 147.221 267.825 140.373C296.686 133.525 317.77 124.18 327.791 113.794C337.811 103.409 336.205 92.5664 323.222 82.9572C310.24 73.348 286.61 65.512 256.017 60.6704C225.423 55.8289 189.585 54.254 154.088 56.1911C118.592 58.1282 85.4312 63.4686 59.7754 71.3798C34.1196 79.291 17.4102 89.3284 12.2518 99.9276C7.09342 110.527 13.7758 121.092 31.2574 129.977L172.422 103.542L168.231 151.653Z" fill="#51833A"/>
<path d="M161.919 50.5745C158.507 71.0178 161.221 82.6615 165.341 101.944C183.618 97.5125 233.454 77.4148 226.533 43.3566C221.173 16.9817 222.323 20.9193 208.851 1.57686C197.162 20.0375 164.521 34.9822 161.919 50.5745Z" fill="url(#paint0_linear_2455_4663)"/>
<path d="M185.944 52.1214C189.356 72.5647 186.643 84.2084 182.522 103.49C164.246 99.0593 114.409 78.9617 121.331 44.9035C126.69 18.5286 125.54 22.4662 139.012 3.12374C150.702 21.5843 183.342 36.5291 185.944 52.1214Z" fill="url(#paint1_linear_2455_4663)"/>
<path d="M96.002 54.6942C96.002 76.0593 131.084 104.598 154.334 104.598C177.584 104.598 178.094 109.328 178.094 87.9631C178.094 66.598 161.351 61.2705 138.1 61.2705C96.002 51.065 100.448 29.9358 96.002 54.6942Z" fill="url(#paint2_linear_2455_4663)"/>
<path d="M96.002 54.6942C96.002 76.0593 131.084 104.598 154.334 104.598C177.584 104.598 178.094 109.328 178.094 87.9631C178.094 66.598 161.351 61.2705 138.1 61.2705C96.002 51.065 100.448 29.9358 96.002 54.6942Z" fill="url(#paint3_linear_2455_4663)"/>
<path d="M216.587 58.8011C216.587 80.1663 192.591 69.2461 174.489 103.676C155.124 59.9617 132.391 80.1663 132.391 58.8011C132.391 37.436 156.808 13.1529 174.489 0C193.433 10.0581 216.587 37.436 216.587 58.8011Z" fill="url(#paint4_radial_2455_4663)"/>
<path d="M217.051 55.3206C219.576 80.4659 190.062 78.4198 180.801 93.6188C191.701 70.0209 212.796 80.9411 212.796 59.576C212.796 38.2109 198.527 24.3727 187.161 8.125C204 23.9858 211.578 33.2702 217.051 55.3206Z" fill="#EEC1A9"/>
<path d="M251.951 54.9012C251.951 76.2663 216.869 104.805 193.619 104.805C170.369 104.805 169.859 109.535 169.859 88.1701C169.859 66.805 186.603 61.4775 209.853 61.4775C251.951 51.272 247.505 30.1428 251.951 54.9012Z" fill="url(#paint5_linear_2455_4663)"/>
<path d="M251.951 54.9012C251.951 76.2663 216.869 104.805 193.619 104.805C170.369 104.805 169.859 109.535 169.859 88.1701C169.859 66.805 186.603 61.4775 209.853 61.4775C251.951 51.272 247.505 30.1428 251.951 54.9012Z" fill="url(#paint6_linear_2455_4663)"/>
<path d="M222.475 53.0687C227.594 70.925 199.958 95.3784 183.77 99.2968C167.581 103.215 168.36 107.255 163.241 89.3985C158.123 71.5422 175.45 52.4485 191.639 48.5301C232.759 45.2135 213.448 33.1257 222.475 53.0687Z" fill="url(#paint7_radial_2455_4663)"/>
<path d="M120.178 55.7073C111.979 51.846 100.812 43.3281 100.812 43.3281C100.812 43.3281 104.733 47.7331 107.548 50.2914C113.136 55.3693 113.425 57.8165 120.178 61.5101C125.802 64.5863 130.161 67.2613 136.175 69.6339C142.01 71.9359 146.019 72.2381 151.33 75.4366C158.549 79.7838 162.094 82.3216 166.065 89.3632C168.243 93.2252 171.538 103.677 171.538 103.677C171.538 103.677 173.98 90.2702 172.38 84.721C170.147 76.98 166.336 72.8483 159.329 68.0865C151.72 62.9153 145.084 64.4459 136.175 61.5101C129.853 59.4266 126.155 58.5225 120.178 55.7073Z" fill="#EAB29F" fill-opacity="0.84"/>
<path d="M127.284 46.0898C118.598 61.3616 140.723 90.0768 155.817 97.3263C170.91 104.576 169.318 108.116 178.004 92.8442C186.691 77.5724 173.59 56.1083 158.496 48.8588C118.796 36.5489 140.237 29.7787 127.284 46.0898Z" fill="url(#paint8_radial_2455_4663)"/>
<path d="M127.468 46.1963C125.338 49.9517 125.088 54.5493 126.17 59.4692C127.252 64.3938 129.663 69.6205 132.822 74.6052C139.142 84.58 148.421 93.5388 155.922 97.1413C158.652 98.4528 160.842 99.6452 162.639 100.624C163.328 100.999 163.96 101.343 164.542 101.651C165.595 102.206 166.484 102.64 167.266 102.928C168.048 103.215 168.71 103.352 169.311 103.324C170.492 103.27 171.523 102.578 172.82 100.89C174.117 99.2021 175.638 96.5752 177.812 92.7521C182.11 85.197 181.029 76.0862 176.969 67.9371C172.912 59.795 165.9 52.6553 158.405 49.0507C138.947 43.0155 134.142 38.3026 132.78 36.967C132.752 36.9393 132.725 36.913 132.7 36.8882C132.641 36.8306 132.592 36.7837 132.551 36.7461C132.536 36.8061 132.519 36.8832 132.498 36.9819C132.492 37.0062 132.487 37.0319 132.481 37.059C132.431 37.2859 132.363 37.5848 132.253 37.9581C131.813 39.4528 130.712 42.1079 127.468 46.1963ZM132.597 36.6005C132.597 36.6005 132.597 36.6012 132.596 36.603C132.597 36.6015 132.597 36.6006 132.597 36.6005Z" stroke="#C88181" stroke-opacity="0.02" stroke-width="0.425723"/>
<path d="M146.701 44.8736L132.809 37.5234C132.809 37.5234 140.541 44.3672 146.701 46.8078C149.088 47.7536 150.647 47.7578 153.016 48.7421C157.213 50.4861 159.305 52.0693 162.698 54.9317C167.908 59.3259 169.911 62.7302 173.223 68.4714C175.154 71.8191 176.633 73.6519 177.433 77.3689C178.489 82.28 177.659 85.3196 176.17 90.135C175.143 93.4552 173.733 95.0386 172.381 98.2588C171.314 100.8 169.855 104.835 169.855 104.835C169.855 104.835 176.101 97.7956 178.275 92.4561C180.264 87.5709 181.146 84.5094 180.801 79.3032C180.544 75.4263 179.827 73.2446 178.275 69.632C176.597 65.7278 175.13 63.7001 172.381 60.3476C168.321 55.396 165.539 52.7025 159.752 49.5158C155.064 46.9344 146.701 44.8736 146.701 44.8736Z" fill="url(#paint9_linear_2455_4663)"/>
<path d="M220.376 46.4194C220.089 44.6258 219.534 42.1641 219.534 42.1641C219.534 42.1641 219.259 45.1336 219.534 47.58C219.828 50.2045 220.673 51.9528 221.218 54.5433C221.907 57.8199 221.22 59.808 220.376 63.0539C218.906 68.7068 216.473 71.4767 212.798 76.2068C207.867 82.5542 204.069 85.5257 197.222 90.1334C189.746 95.1635 182.262 93.7745 176.173 100.192C174.703 101.74 172.805 104.447 172.805 104.447C172.805 104.447 175.842 102.501 177.856 101.352C185.544 96.9673 191.468 97.1891 198.906 92.4545C206.551 87.5882 210.589 84.0928 215.745 76.9805C219.292 72.0884 221.809 69.2328 222.902 63.4408C223.576 59.8683 223.742 57.699 222.902 54.1564C222.18 51.1134 220.869 49.5008 220.376 46.4194Z" fill="url(#paint10_linear_2455_4663)"/>
<path d="M159.809 97.1413C165.15 101.688 175.223 106.777 175.223 106.777C175.223 106.777 166.376 100.236 161.38 95.4078C156.487 90.6797 154.013 87.7674 149.939 82.4241C145.651 76.8003 142.762 73.7527 140.133 67.3247C139.047 64.6676 137.902 60.3516 137.902 60.3516C137.902 60.3516 138.27 65.2937 139.108 68.3529C141.025 75.3563 144.306 78.6241 148.72 84.5992C152.577 89.8207 154.771 92.8525 159.809 97.1413Z" fill="url(#paint11_linear_2455_4663)"/>
<defs>
<linearGradient id="paint0_linear_2455_4663" x1="208.588" y1="5.80274" x2="203.592" y2="39.9768" gradientUnits="userSpaceOnUse">
<stop stop-color="#F1B09E"/>
<stop offset="1" stop-color="#FAE6CE"/>
</linearGradient>
<linearGradient id="paint1_linear_2455_4663" x1="139.275" y1="7.34962" x2="144.271" y2="41.5236" gradientUnits="userSpaceOnUse">
<stop stop-color="#F1B09E"/>
<stop offset="1" stop-color="#FAE6CE"/>
</linearGradient>
<linearGradient id="paint2_linear_2455_4663" x1="121.076" y1="70.0206" x2="171.882" y2="104.848" gradientUnits="userSpaceOnUse">
<stop stop-color="#EFB7A4"/>
<stop offset="0.942708" stop-color="#F7E7D8"/>
</linearGradient>
<linearGradient id="paint3_linear_2455_4663" x1="121.076" y1="70.0206" x2="171.882" y2="104.848" gradientUnits="userSpaceOnUse">
<stop stop-color="#EFB7A4"/>
<stop offset="0.942708" stop-color="#F7E7D8"/>
</linearGradient>
<radialGradient id="paint4_radial_2455_4663" cx="0" cy="0" r="1" gradientUnits="userSpaceOnUse" gradientTransform="translate(174.91 21.2767) rotate(90.2927) scale(82.4 66.9181)">
<stop stop-color="#FADFCC"/>
<stop offset="1" stop-color="#F1BEAB"/>
</radialGradient>
<linearGradient id="paint5_linear_2455_4663" x1="226.877" y1="70.2277" x2="176.071" y2="105.055" gradientUnits="userSpaceOnUse">
<stop stop-color="#EFB7A4"/>
<stop offset="0.942708" stop-color="#F7E7D8"/>
</linearGradient>
<linearGradient id="paint6_linear_2455_4663" x1="226.877" y1="70.2277" x2="176.071" y2="105.055" gradientUnits="userSpaceOnUse">
<stop stop-color="#EFB7A4"/>
<stop offset="0.942708" stop-color="#F7E7D8"/>
</linearGradient>
<radialGradient id="paint7_radial_2455_4663" cx="0" cy="0" r="1" gradientUnits="userSpaceOnUse" gradientTransform="translate(171.639 95.9565) rotate(-38.5493) scale(66.2826 89.7585)">
<stop stop-color="#FCE5D0"/>
<stop offset="1" stop-color="#EFB7A4"/>
</radialGradient>
<radialGradient id="paint8_radial_2455_4663" cx="0" cy="0" r="1" gradientUnits="userSpaceOnUse" gradientTransform="translate(168.413 96.9853) rotate(-130.512) scale(65.3273 86.4624)">
<stop stop-color="#FCE5D0"/>
<stop offset="1" stop-color="#EFB7A4"/>
</radialGradient>
<linearGradient id="paint9_linear_2455_4663" x1="156.841" y1="37.5234" x2="156.841" y2="104.835" gradientUnits="userSpaceOnUse">
<stop stop-color="#F0BFAF"/>
<stop offset="1" stop-color="#F0BFAF" stop-opacity="0"/>
</linearGradient>
<linearGradient id="paint10_linear_2455_4663" x1="198.138" y1="42.1641" x2="198.138" y2="104.447" gradientUnits="userSpaceOnUse">
<stop stop-color="#F4B59C"/>
<stop offset="1" stop-color="#F1C4B2" stop-opacity="0"/>
</linearGradient>
<linearGradient id="paint11_linear_2455_4663" x1="159.951" y1="63.4945" x2="154.208" y2="103.781" gradientUnits="userSpaceOnUse">
<stop stop-color="#F1BCA9"/>
<stop offset="1" stop-color="#F1BCA9" stop-opacity="0"/>
</linearGradient>
</defs>
</svg>
