<svg width="303" height="379" viewBox="0 0 303 379" fill="none" xmlns="http://www.w3.org/2000/svg">
<path d="M166.783 156.58C166.781 268.745 80.2248 282.705 77.5095 308.686L70.7775 274.275C79.2505 254.207 91.1255 238.033 96.0598 232.539C101.213 225.655 114.421 210.421 125.583 203.88C136.744 197.338 157.7 169.621 166.783 156.58Z" fill="#86A173"/>
<path d="M-41.5565 170.856C69.1315 188.996 68.9107 276.67 94.1108 283.551L59.0635 284.63C40.6304 273.023 26.5895 258.689 21.9659 252.931C16.0057 246.733 3.10822 231.235 -1.5421 219.162C-6.19242 207.09 -30.156 181.928 -41.5565 170.856Z" fill="#86A173"/>
<path d="M-19.0082 112.307C-43.2747 124.017 -42.684 131.016 -42.4293 133.875C-41.2632 146.941 -16.3178 155.328 -4.58484 159.273L-4.22641 159.394C55.5792 179.509 175.798 163.272 200.362 160.36C224.926 157.448 241.741 151.411 253.014 146.437C260.304 143.221 265.117 138.03 265.776 136.025C266.792 131.405 265.242 123.699 254.642 118.649C239.694 112.868 229.157 102.587 225.756 98.169L182.333 51.7223C175.724 45.4023 159.667 31.2513 148.312 25.2069C108.473 2.93871 73.0979 12.4946 60.3904 20.0561C52.689 24.2852 38.9121 35.4985 24.9285 56.605C15.1782 73.8322 -0.523558 95.196 -19.0082 112.307Z" fill="#C16134" stroke="#C16134" stroke-width="0.621734"/>
<path d="M227.659 130.01C111.279 81.8076 23.9008 113.879 -5.24101 135.939C16.7464 154.804 64.448 158.531 85.5504 158.036C88.0081 171.602 78.2619 192.229 73.0816 200.847C45.4767 251.017 39.5709 295.832 47.7417 305.503C57.267 316.778 89.1262 318.934 104.607 311.453C135.171 297.744 133.045 203.228 130.979 152.908C188.724 149.899 219.493 136.389 227.659 130.01Z" fill="url(#paint0_linear_2455_5730)" stroke="#E8D9C6" stroke-width="0.621734"/>
<path d="M87.8822 207.458C75.0019 241.414 52.2122 306.507 68.3249 313.609" stroke="#C5A687" stroke-opacity="0.5" stroke-width="2.48694" stroke-linecap="round"/>
<path d="M117.023 207.359C115.268 237.316 108.496 309.449 93.9026 314.082" stroke="#C5A687" stroke-opacity="0.5" stroke-width="2.48694" stroke-linecap="round"/>
<path fill-rule="evenodd" clip-rule="evenodd" d="M121.832 71.9184C156.433 89.8147 205.234 97.9453 212.382 84.4234C212.444 84.3056 212.503 84.1864 212.56 84.0659L182.337 51.7395C175.728 45.4195 159.672 31.2684 148.317 25.2241C117.372 7.92756 89.1209 9.83114 72.0934 15.0868C65.0365 28.6229 87.2782 54.0468 121.832 71.9184Z" fill="#DC7747" fill-opacity="0.7"/>
<path d="M167.951 48.9753C163.462 55.7196 150.968 55.4242 140.045 48.3155C129.123 41.2068 120.107 32.0893 124.597 25.345C129.086 18.6007 145.381 16.7835 156.303 23.8922C167.226 31.0009 172.441 42.231 167.951 48.9753Z" fill="#E6D2BA"/>
<path d="M166.211 42.7065C162.418 48.4039 153.306 49.0927 145.857 44.245C138.408 39.3972 132.506 32.8104 136.298 27.113C140.091 21.4155 152.142 18.765 159.591 23.6128C167.04 28.4605 170.004 37.0091 166.211 42.7065Z" fill="#F6ECE0"/>
<path d="M27.3229 79.8925C30.5192 86.1806 26.0197 94.7903 17.2731 99.1229C8.52651 103.456 -0.976385 105.516 -4.17268 99.2283C-7.36898 92.9402 -3.04831 80.6845 5.69832 76.3519C14.4449 72.0192 24.1266 73.6044 27.3229 79.8925Z" fill="#E6D2BA"/>
<path d="M26.7177 78.9115C29.0471 83.4941 25.768 89.7687 19.3936 92.9262C13.0193 96.0838 6.09373 97.5856 3.76433 93.003C1.43494 88.4204 4.58376 79.4887 10.9581 76.3311C17.3325 73.1736 24.3883 74.3289 26.7177 78.9115Z" fill="#F6ECE0"/>
<path d="M99.4619 58.0647C100.118 49.0183 91.1802 41.0013 79.4992 40.1581C67.8182 39.315 56.8156 50.6138 56.1596 59.6602C55.5037 68.7066 65.4428 72.0749 77.1239 72.9181C88.8049 73.7612 98.806 67.1111 99.4619 58.0647Z" fill="#E6D2BA"/>
<path d="M98.3173 54.1076C98.7679 47.8932 92.5239 42.3785 84.3709 41.79C76.218 41.2015 68.5481 48.9551 68.0976 55.1694C67.647 61.3838 74.5862 63.7057 82.7392 64.2941C90.8922 64.8826 97.8667 60.3219 98.3173 54.1076Z" fill="#F6ECE0"/>
<path d="M195.826 91.2876C199.465 86.5487 197.449 78.9812 191.324 74.3852C185.199 69.7893 175.049 72.1054 171.41 76.8444C167.772 81.5834 172.023 86.9507 178.148 91.5466C184.273 96.1426 192.188 96.0266 195.826 91.2876Z" fill="#E6D2BA"/>
<path d="M195.736 86.8623C198.28 83.5488 196.871 78.2576 192.589 75.0441C188.306 71.8306 181.209 73.4501 178.665 76.7636C176.121 80.0771 179.093 83.8299 183.376 87.0433C187.658 90.2568 193.192 90.1757 195.736 86.8623Z" fill="#F6ECE0"/>
<path d="M47.7131 34.1539C45.6157 31.0158 39.9241 31.0737 35.0005 34.2833C30.077 37.4929 28.5962 44.4495 30.6935 47.5877C32.7909 50.7258 37.6723 48.8571 42.5958 45.6475C47.5194 42.4379 49.8105 37.2921 47.7131 34.1539Z" fill="#E6D2BA"/>
<path d="M47.6083 34.1132C46.1736 31.9666 42.2858 32.0027 38.9246 34.1939C35.5634 36.385 34.5562 41.1397 35.9909 43.2863C37.4255 45.4329 40.7587 44.1584 44.1199 41.9672C47.4811 39.7761 49.0429 36.2598 47.6083 34.1132Z" fill="#F6ECE0"/>
<path d="M222.049 96.9905C224.256 94.4029 229.343 95.0535 233.412 98.4437C237.48 101.834 238.073 108.215 235.866 110.803C233.659 113.39 229.487 111.204 225.419 107.814C221.351 104.424 219.842 99.578 222.049 96.9905Z" fill="#E6D2BA"/>
<path d="M226.069 97.1825C227.719 95.2485 231.521 95.7348 234.562 98.2687C237.602 100.803 238.046 105.572 236.396 107.506C234.747 109.44 231.629 107.806 228.588 105.272C225.547 102.739 224.419 99.1165 226.069 97.1825Z" fill="#F6ECE0"/>
<path d="M128.232 73.4394C129.081 70.1596 133.115 68.3509 137.242 69.3994C141.37 70.448 143.82 75.7188 142.971 78.9986C142.122 82.2783 138.296 82.325 134.168 81.2765C130.041 80.2279 127.383 76.7191 128.232 73.4394Z" fill="#E6D2BA"/>
<path d="M131.31 72.6269C132.004 69.9462 135.301 68.4678 138.674 69.3248C142.048 70.1819 144.051 74.49 143.357 77.1707C142.663 79.8514 139.535 79.8895 136.162 79.0325C132.788 78.1755 130.616 75.3076 131.31 72.6269Z" fill="#F6ECE0"/>
<path d="M69.1561 206.075C34.0057 278.047 41.6067 303.639 51.3404 308.353C54.6418 310.914 54.8489 310.729 52.7513 308.436C42.8932 296.61 53.4118 259.139 65.2862 236.549C74.7857 218.477 114.558 207.493 132.467 204.267C133.182 192.059 132.497 166.419 131.949 155.007C166.192 155.118 214.319 141.228 227.842 130.234C223.877 127.121 219.879 125.347 210.654 127.648C190.629 134.211 183.692 129.555 182.726 126.407C182.368 125.597 182.095 123.331 183.869 120.751C185.644 118.171 185.308 112.362 184.402 111.651C183.299 110.863 179.539 113.63 177.45 116.034C172.362 122.524 160.114 126.793 154.626 128.116C149.449 128.733 138.872 129.64 137.976 128.324C137.079 127.009 138.272 125.579 138.98 125.028C143.058 120.071 149.748 109.556 143.882 107.16C138.017 104.764 136.181 102.14 134.437 112.527C133.606 117.478 128.111 128.378 112.781 132.374C93.6187 137.369 79.3184 128.637 76.5912 126.701C70.1892 122.38 65.2138 111.277 64.1175 108.055C62.2012 107.285 55.2248 106.031 54.2501 108.816C52.7859 114.414 60.4236 122.136 62.3842 123.304C64.5048 125.204 68.0492 129.122 65.2623 129.59C44.1008 134.073 28.7536 118.965 27.3727 118.292C18.5166 114.3 18.6607 119.229 19.8398 122.193L33.1239 134.416C29.7482 135.469 22.2264 137.523 18.9781 136.902C9.85203 136.367 1.06138 130.767 -1.22052 131.62C-3.50241 132.473 -8.66415 135.713 -2.92569 140.198C26.3016 159.434 67.6691 160.85 85.3552 159.124C80.9112 186.491 81.221 183.694 69.1561 206.075Z" fill="#B49678"/>
<path d="M117.374 96.5323C46.3782 93.3612 5.33047 120.496 -6.46273 136.076C25.1048 110.1 87.5204 106.009 116.811 106.144C146.102 106.279 201.651 120.271 228.462 130.274C186.459 100.778 139.91 97.8524 117.374 96.5323Z" fill="#9C5C3F"/>
<path d="M105.74 278.483C102.559 306.159 126.336 323.173 135.138 325.816L132.873 312.434C131.774 305.935 127.839 300.49 126.127 298.977C124.288 297.042 119.681 292.827 116.072 291.221C112.464 289.615 109.023 282.174 105.74 278.483Z" fill="#5A7639"/>
<path d="M64.5015 319.462L62.758 325.181L59.7039 324.394L62.5046 317.907C68.2139 302.303 55.7567 282.568 48.8144 274.652L6.06629 219.042C19.5046 222.93 48.1918 232.533 55.4344 239.84C62.6771 247.147 68.2268 260.815 70.0963 266.735C76.387 285.873 68.9876 309.861 64.5015 319.462Z" fill="#5A7639"/>
<path d="M163.631 237.219C151.517 246.634 141.365 258.492 142.663 266.805L142.662 284.255C144.006 277.535 159.826 260.515 164.34 258.964C168.854 257.412 175.81 257.077 183.116 253.625C196.35 246.932 194.293 205.195 196.563 203.21C189.584 207.088 174.458 228.803 163.631 237.219Z" fill="#578324"/>
<path d="M184.211 255.58C192.934 260.496 192.564 263.104 192.408 264.169C191.693 269.035 182.283 271.628 177.857 272.847L177.722 272.885C155.161 279.104 111.039 270.388 102.015 268.759C92.9908 267.13 86.9011 264.501 82.8385 262.392C80.2113 261.028 78.5435 258.979 78.343 258.214C78.0672 256.461 78.8077 253.611 82.8385 251.952C88.4937 250.116 92.6148 246.498 93.9684 244.918L111.039 228.481C113.621 226.26 119.868 221.314 124.2 219.301C139.42 211.837 152.3 216.191 156.837 219.301C159.594 221.053 164.448 225.553 169.164 233.762C172.397 240.426 177.743 248.768 184.211 255.58Z" fill="#BC643A" stroke="#C96F44" stroke-width="0.621734"/>
<path d="M92.5747 256.795C136.673 241.301 168.303 255.225 178.605 264.124C170.063 270.704 152.335 271.053 144.539 270.405C143.336 275.43 146.494 283.367 148.224 286.707C158.151 305.925 158.976 322.972 155.744 326.414C151.976 330.426 139.729 330.566 134.164 327.425C123.155 321.622 125.989 286.283 127.844 267.489C106.547 265.096 95.4574 259.363 92.5747 256.795Z" fill="#E8D9C6" stroke="#E8D9C6" stroke-width="0.621734"/>
<path d="M144.407 270.735C145.478 281.099 145.478 279.988 149.532 288.649C122.167 296.018 132.821 322.74 132.297 325.535C132.037 326.919 121.521 312.298 125.742 286.412C125.742 282.046 126.966 272.487 127.425 268.218C114.513 267.507 100.378 261.432 95.1254 258.816C89.5535 256.225 96.0945 254.748 98.3575 256.225C105.762 259.127 108.904 257.977 109.338 256.817C109.491 256.521 109.636 254.802 108.608 254.226C104.493 251.921 108.557 252.474 108.914 252.228C109.347 251.956 110.398 251.65 111.132 252.598C112.907 255.144 117.43 257.015 119.47 257.632C121.408 257.977 125.375 258.55 125.742 258.076C126.11 257.602 125.691 257.039 125.436 256.817C124.009 254.868 120.721 250.107 122.985 249.337C125.249 248.567 126.538 248.772 127.425 252.228C127.629 254.103 129.46 258.313 135.151 260.149C142.265 262.444 147.849 259.482 148.92 258.816C151.429 257.336 152.643 253.782 153.127 252.598C152.745 251.026 156.111 251.532 156.417 252.598C156.845 254.73 155.116 257.459 154.351 257.854C153.51 258.52 152.087 259.912 153.127 260.149C161.006 262.295 167.126 256.965 167.661 256.743C171.088 255.44 170.925 257.286 170.415 258.372L165.137 262.666C166.386 263.134 169.191 264.449 170.415 264.034C173.294 264.034 176.963 261.86 177.605 262.518C178.22 263.146 179.61 263.987 178.462 265.246C167.019 271.819 151.036 271.771 144.407 270.735Z" fill="#C5A687" stroke="#C5A687" stroke-width="0.621734"/>
<path d="M134.099 247.476C160.432 247.846 175.03 258.106 179.055 264.198C167.94 253.78 144.938 250.88 134.099 250.288C123.261 249.696 102.407 253.716 92.2719 256.873C108.45 246.751 125.734 247.476 134.099 247.476Z" fill="#A46C53" stroke="#A46C53" stroke-width="0.621734"/>
<path d="M142.602 288.859C146.631 301.855 153.651 326.725 147.536 329.03" stroke="#C5A687" stroke-opacity="0.5" stroke-width="2.48694" stroke-linecap="round"/>
<path d="M131.824 288.184C131.825 299.438 132.766 326.592 138.065 328.647" stroke="#C5A687" stroke-opacity="0.5" stroke-width="2.48694" stroke-linecap="round"/>
<path fill-rule="evenodd" clip-rule="evenodd" d="M128.134 217.267C141.61 212.248 152.7 216.123 156.841 218.961C159.598 220.713 164.452 225.213 169.167 233.422C171.244 237.702 174.193 242.675 177.75 247.49C172.175 250.056 155.837 244.639 145.005 236.404C135.027 228.818 128.024 221.998 128.134 217.267Z" fill="#DC7747" fill-opacity="0.7"/>
<path d="M121.949 222.273C122.752 223.664 125.207 223.751 127.431 222.467C129.656 221.182 131.529 219.477 130.726 218.086C129.923 216.694 126.747 216.144 124.522 217.428C122.298 218.713 121.145 220.882 121.949 222.273Z" fill="#E6D2BA"/>
<path d="M124.589 220.786C125.267 221.961 127.047 222.204 128.564 221.328C130.081 220.452 131.315 219.213 130.637 218.037C129.958 216.862 127.624 216.196 126.107 217.071C124.59 217.947 123.91 219.61 124.589 220.786Z" fill="#F6ECE0"/>
<path d="M134.74 236.084C134.694 232.682 138.174 229.877 142.513 229.817C146.853 229.758 150.678 234.229 150.725 237.631C150.772 241.032 147.022 242.075 142.682 242.134C138.343 242.194 134.787 239.485 134.74 236.084Z" fill="#E6D2BA"/>
<path d="M138.806 234.789C138.774 232.453 141.203 230.525 144.232 230.484C147.261 230.442 149.931 233.513 149.963 235.85C149.995 238.186 147.377 238.903 144.348 238.945C141.319 238.986 138.838 237.126 138.806 234.789Z" fill="#F6ECE0"/>
<path d="M101.783 244.364C100.54 242.51 101.449 239.721 103.815 238.135C106.18 236.548 109.885 237.638 111.129 239.492C112.372 241.346 110.683 243.262 108.317 244.849C105.952 246.435 103.026 246.218 101.783 244.364Z" fill="#E6D2BA"/>
<path d="M104.491 242.705C103.622 241.408 104.258 239.458 105.912 238.349C107.566 237.24 110.156 238.002 111.026 239.298C111.895 240.595 110.714 241.935 109.06 243.044C107.406 244.153 105.361 244.001 104.491 242.705Z" fill="#F6ECE0"/>
<path d="M161.222 224.854C162.065 223.725 164.17 223.872 165.922 225.181C167.674 226.491 168.071 229.128 167.227 230.257C166.383 231.386 164.617 230.579 162.866 229.269C161.114 227.96 160.378 225.983 161.222 224.854Z" fill="#E6D2BA"/>
<path d="M162.873 224.845C163.45 224.073 164.888 224.171 166.084 225.065C167.28 225.96 167.549 227.762 166.972 228.534C166.395 229.306 165.189 228.756 163.993 227.862C162.797 226.968 162.296 225.617 162.873 224.845Z" fill="#F6ECE0"/>
<path d="M175.731 246.744C176.492 245.727 178.388 245.859 179.966 247.039C181.545 248.219 181.903 250.595 181.142 251.612C180.382 252.629 178.791 251.902 177.213 250.722C175.634 249.542 174.971 247.761 175.731 246.744Z" fill="#E6D2BA"/>
<path d="M176.79 246.431C177.301 245.746 178.577 245.835 179.639 246.629C180.701 247.423 180.942 249.022 180.43 249.706C179.919 250.39 178.848 249.901 177.786 249.107C176.724 248.313 176.278 247.115 176.79 246.431Z" fill="#F6ECE0"/>
<path d="M95.3662 244.56C94.6058 243.543 92.7098 243.675 91.1313 244.855C89.5528 246.035 89.195 248.411 89.9554 249.428C90.7158 250.446 92.3065 249.719 93.885 248.539C95.4635 247.359 96.1267 245.578 95.3662 244.56Z" fill="#E6D2BA"/>
<path d="M95.3297 244.544C94.7613 243.783 93.3442 243.882 92.1644 244.764C90.9845 245.646 90.7172 247.422 91.2855 248.182C91.8539 248.942 93.0427 248.399 94.2225 247.517C95.4023 246.635 95.898 245.304 95.3297 244.544Z" fill="#F6ECE0"/>
<path d="M63.8831 313.031L64.6903 319.862L61.1135 320.415L61.0639 312.294C59.863 293.224 37.6422 278.027 26.682 272.813L-43.9765 233.458C-28.043 231.471 6.5726 228.607 17.5673 233.042C28.562 237.476 40.7136 249.396 45.4151 254.802C60.8727 272.164 64.1678 300.856 63.8831 313.031Z" fill="#6E973D"/>
<path d="M114.558 308.064C127.942 304.117 132.731 318.198 135.678 325.26L137.617 336.605C133.379 332.034 128.585 324.317 124.348 325.26C120.111 326.203 114.558 329.251 107.252 330.049C93.8099 331.152 85.043 330.508 82.3398 330.049C87.5026 324.365 101.174 312.011 114.558 308.064Z" fill="#75A142"/>
<g clip-path="url(#clip0_2455_5730)">
<path d="M224.868 223.424C223.193 229.679 216.764 233.39 210.51 231.715C204.912 228.697 200.544 223.61 202.22 217.356C203.895 211.101 210.324 207.39 216.578 209.066C222.833 210.741 225.254 216.953 224.868 223.424Z" fill="#A0836F"/>
<path d="M224.868 223.424C223.193 229.679 216.764 233.39 210.51 231.715C204.912 228.697 200.544 223.61 202.22 217.356C203.895 211.101 210.324 207.39 216.578 209.066C222.833 210.741 225.254 216.953 224.868 223.424Z" stroke="#5F4B3D"/>
<path d="M209.796 226.129C202.423 216.865 210.104 210.915 215.422 208.91C198.182 209.014 200.892 226.611 207.923 229.339C211.248 232.254 217.168 235.393 209.796 226.129Z" fill="#846853"/>
<ellipse cx="214.077" cy="220.38" rx="6.37489" ry="6.74126" transform="rotate(15 214.077 220.38)" fill="#C6A195"/>
<path d="M210.703 214.478C204.525 217.578 207.27 225.097 210.35 226.966L214.044 223.632C209.052 219.611 215.738 211.951 210.703 214.478Z" fill="#B59084"/>
<path d="M254.527 231.069C252.851 237.324 256.594 243.761 262.888 245.447C269.281 245.643 275.641 243.43 277.317 237.176C278.993 230.922 275.25 224.485 268.956 222.798C262.663 221.112 257.436 225.275 254.527 231.069Z" fill="#A0836F"/>
<path d="M254.527 231.069C252.851 237.324 256.594 243.761 262.888 245.447C269.281 245.643 275.641 243.43 277.317 237.176C278.993 230.922 275.25 224.485 268.956 222.798C262.663 221.112 257.436 225.275 254.527 231.069Z" stroke="#5F4B3D"/>
<path d="M262.936 240.207C255.601 230.948 263.198 225.139 268.5 223.127C252.938 220.983 254.064 240.7 261.067 243.42C264.376 246.333 270.272 249.466 262.936 240.207Z" fill="#846853"/>
<ellipse cx="265.815" cy="234.243" rx="7.18091" ry="7.03436" transform="rotate(15 265.815 234.243)" fill="#C6A195"/>
<path d="M262.315 228.049C255.714 231.25 258.713 239.141 262.028 241.12L265.965 237.657C260.582 233.411 267.695 225.44 262.315 228.049Z" fill="#B59084"/>
<path d="M270.987 258.094C269.059 269.894 259.777 275.521 228.577 269.021C201.45 261.076 193.524 249.655 198.578 238.692C208.437 217.306 222.537 212.632 242.27 217.919C262.003 223.207 270.475 230.548 270.987 258.094Z" fill="#A0836F"/>
<path d="M270.987 258.094C269.059 269.894 259.777 275.521 228.577 269.021C201.45 261.076 193.524 249.655 198.578 238.692C208.437 217.306 222.537 212.632 242.27 217.919C262.003 223.207 270.475 230.548 270.987 258.094Z" stroke="#846853"/>
<path d="M227.837 216.177C227.799 216.178 227.76 216.178 227.72 216.178C226.083 216.217 222.273 217.609 217.526 222.537C211.447 228.847 205.826 241.636 204.923 245.006C204.079 248.158 204.021 251.521 207.659 256.212C211.19 260.766 231.559 271.569 258.58 270.87C240.734 273.859 218.881 265.976 208.42 260.301C197.958 254.626 196.982 246.932 197.607 242.707C198.233 238.483 203.655 228.955 210.091 222.572C215.187 217.516 223.888 216.207 227.72 216.178C227.761 216.177 227.799 216.177 227.837 216.177Z" fill="#846853"/>
<ellipse cx="232.325" cy="255.611" rx="8.3533" ry="7.32746" transform="rotate(15 232.325 255.611)" fill="#C6AA95"/>
<path d="M237.654 253.83C237.396 254.793 235.208 254.465 232.589 253.763C229.97 253.061 227.912 252.252 228.17 251.289C228.428 250.327 230.615 250.655 233.234 251.357C235.853 252.058 237.912 252.868 237.654 253.83Z" fill="#5F4B3D"/>
<path d="M247.447 248.433C249.03 247.942 252.748 247.655 254.949 250.444" stroke="#5F4B3D" stroke-width="1.97893" stroke-linecap="round"/>
<path d="M215.88 239.976C217.464 239.485 221.181 239.198 223.383 241.986" stroke="#5F4B3D" stroke-width="1.97893" stroke-linecap="round"/>
<path d="M235.118 258.785C233.733 258.414 231.579 257.837 233.059 252.316" stroke="#5F4B3D" stroke-width="1.97893" stroke-linecap="round"/>
<path d="M228.04 256.89C229.48 257.276 231.72 257.876 233.199 252.355" stroke="#5F4B3D" stroke-width="1.97893" stroke-linecap="round"/>
<ellipse cx="259.573" cy="259.805" rx="7.03436" ry="6.22834" transform="rotate(15 259.573 259.805)" fill="#CD9F99"/>
<ellipse cx="1.82918" cy="2.46273" rx="1.82918" ry="2.46273" transform="matrix(-0.635313 0.772255 0.772255 0.635313 224.68 234.527)" fill="#C6AA95"/>
<ellipse cx="247.476" cy="243.415" rx="1.82918" ry="2.46273" transform="rotate(80.5568 247.476 243.415)" fill="#C6AA95"/>
<ellipse cx="208.187" cy="246.036" rx="7.03436" ry="6.22834" transform="rotate(15 208.187 246.036)" fill="#CD9F99"/>
<path d="M207.037 239.735C206.031 242.219 204.079 247.978 204.956 251.315C197.57 246.47 202.612 239.729 207.037 239.735Z" fill="#C58D85"/>
<path d="M269.243 243.658C268.004 233.685 261.683 227.204 258.677 225.211L260.002 224.038C266.376 226.425 269.732 237.848 270.556 243.161L269.243 243.658Z" fill="#927763" fill-opacity="0.3"/>
<path d="M206.353 229.54C212.413 221.522 221.127 219.071 224.727 218.847L224.166 217.169C217.453 216.049 208.835 224.264 205.464 228.454L206.353 229.54Z" fill="#927763" fill-opacity="0.3"/>
<path d="M198.028 264.324C199.253 263.504 201.146 263.982 201.94 264.324L207.042 274.745C203.754 283.287 196.668 300.713 194.627 302.08C192.076 303.788 188.845 304.813 183.912 303.105C178.98 301.396 178.13 292.513 185.613 281.408C193.096 270.303 196.498 265.349 198.028 264.324Z" fill="#8F7461"/>
<path d="M262.352 264.324C261.121 263.504 259.217 263.982 258.419 264.324L253.289 274.745C256.595 283.287 263.721 300.713 265.773 302.08C268.338 303.788 271.587 304.813 276.547 303.105C281.506 301.396 282.361 292.513 274.837 281.408C267.312 270.303 263.892 265.349 262.352 264.324Z" fill="#8F7461"/>
<path d="M186.441 287.547C188.576 282.753 197.062 269.148 200.454 263.655C200.287 263.434 200.906 263.275 199.571 263.655C198.403 263.988 197.736 263.988 185.558 281.964C174.468 298.332 183.033 303.285 187.226 303.768C191.563 304.267 195.233 301.937 196.234 300.772C198.014 297.665 199.492 295.018 195.616 297.7C186.608 303.934 183.772 293.539 186.441 287.547Z" fill="#745C4A"/>
<rect x="200.453" y="261.629" width="59.2695" height="29.6348" fill="#8F7461"/>
<path d="M193.795 306.063C196.667 291.548 198.841 286.514 198.62 285.57H261.808C261.586 286.514 264.521 291.418 266.632 306.063C269.322 324.723 261.836 332.554 259.174 336.386C258.663 337.122 248.195 340.218 235.219 337.219C234.42 335.886 233.112 327.833 232.89 326.389C231.16 326.656 227.788 326.5 227.4 326.389C227.178 327.833 224.871 335.886 224.073 337.219C210.431 340.384 202.425 337.009 201.78 336.386C196.956 331.721 190.302 323.723 193.795 306.063Z" fill="#8F7461"/>
<rect x="195.062" y="282.285" width="69.2974" height="4.93913" fill="#8F7461"/>
<path d="M253.733 298.223C253.733 318.15 243.146 323.892 230.085 323.892C217.025 323.892 206.438 318.826 206.438 298.223C206.438 284.047 217.025 272.555 230.085 272.555C243.146 272.555 253.733 284.047 253.733 298.223Z" fill="#AC8D79"/>
<path d="M193.285 309.37C195.316 297.057 198.726 286.039 199.115 281.872C199.337 279.039 200.347 278.539 201.28 278.539C202.446 278.539 201.946 282.705 199.115 299.371C196.283 316.036 202.613 327.369 206.11 330.369C210.191 333.868 219.469 335.818 225.299 333.318L223.933 336.868C210.941 340.035 203.112 336.868 202.28 336.368C201.447 335.868 190.454 326.536 193.285 309.37Z" fill="#745C4A"/>
<path d="M261.252 279.827C261.652 281.691 261.807 285.762 261.918 287.481L265.264 301.589C268.926 304.417 279.898 305.95 280.231 297.298C278.067 300.459 275.07 300.958 273.239 300.459C270.908 300.459 268.078 293.138 267.412 289.644C266.761 286.231 260.753 277.498 261.252 279.827Z" fill="#745C4A"/>
<path d="M235.848 337.074C234.64 336.843 233.791 331.157 233.68 329.609L234.013 329.277C234.958 332.374 238.417 337.34 261.369 332.429C260.835 333.358 259.312 335.802 258.7 336.411C247.357 339.563 240.185 337.904 235.848 337.074Z" fill="#745C4A"/>
<path d="M215.405 322.175C219.204 324.62 224.453 325.961 227.269 326.39C227.134 327.795 226.062 331.235 224.768 334.89C221.311 335.879 219.395 336.576 218.048 336.604C218.272 335.444 218.711 332.51 218.68 330.05C218.64 326.975 210.658 319.118 215.405 322.175Z" fill="#745C4A"/>
<path d="M246.505 323.392C242.527 325.419 235.898 326.232 233.08 326.386C233.08 327.768 233.859 331.223 234.787 334.909C238.102 336.199 241.201 337.059 242.527 337.212C242.417 336.06 242.262 333.158 242.527 330.763C242.859 327.768 251.478 320.858 246.505 323.392Z" fill="#745C4A"/>
<path d="M224.872 223.424C223.196 229.679 216.768 233.39 210.514 231.715C204.916 228.697 200.548 223.61 202.223 217.356C203.899 211.101 210.328 207.39 216.582 209.066C222.837 210.741 225.258 216.953 224.872 223.424Z" fill="#947A67"/>
<path d="M224.872 223.424C223.196 229.679 216.768 233.39 210.514 231.715C204.916 228.697 200.548 223.61 202.223 217.356C203.899 211.101 210.328 207.39 216.582 209.066C222.837 210.741 225.258 216.953 224.872 223.424Z" stroke="#5B4739"/>
<path d="M209.8 226.129C202.427 216.865 210.108 210.915 215.426 208.91C198.186 209.014 200.896 226.611 207.927 229.339C211.252 232.254 217.172 235.393 209.8 226.129Z" fill="#745C4A"/>
<ellipse cx="214.081" cy="220.38" rx="6.37489" ry="6.74126" transform="rotate(15 214.081 220.38)" fill="#C6A195"/>
<path d="M210.707 214.478C204.529 217.578 207.274 225.097 210.354 226.966L214.048 223.632C209.056 219.611 215.742 211.951 210.707 214.478Z" fill="#B59084"/>
<path d="M254.531 231.069C252.855 237.324 256.598 243.761 262.891 245.447C269.285 245.643 275.645 243.43 277.321 237.176C278.997 230.922 275.254 224.485 268.96 222.798C262.667 221.112 257.44 225.275 254.531 231.069Z" fill="#947A67"/>
<path d="M254.531 231.069C252.855 237.324 256.598 243.761 262.891 245.447C269.285 245.643 275.645 243.43 277.321 237.176C278.997 230.922 275.254 224.485 268.96 222.798C262.667 221.112 257.44 225.275 254.531 231.069Z" stroke="#5B4739"/>
<path d="M262.94 240.207C255.605 230.948 263.202 225.139 268.504 223.127C252.942 220.983 254.068 240.7 261.071 243.42C264.38 246.333 270.276 249.466 262.94 240.207Z" fill="#846853"/>
<ellipse cx="265.819" cy="234.243" rx="7.18091" ry="7.03436" transform="rotate(15 265.819 234.243)" fill="#C6A195"/>
<path d="M262.319 228.049C255.718 231.25 258.717 239.141 262.031 241.12L265.968 237.657C260.586 233.411 267.699 225.44 262.319 228.049Z" fill="#B59084"/>
<path d="M270.99 258.094C269.063 269.894 259.781 275.521 228.581 269.021C201.454 261.076 193.528 249.655 198.582 238.692C208.44 217.306 222.54 212.632 242.274 217.919C262.007 223.207 270.479 230.548 270.99 258.094Z" fill="#8F7461"/>
<path d="M270.99 258.094C269.063 269.894 259.781 275.521 228.581 269.021C201.454 261.076 193.528 249.655 198.582 238.692C208.44 217.306 222.54 212.632 242.274 217.919C262.007 223.207 270.479 230.548 270.99 258.094Z" stroke="#846853"/>
<path d="M227.841 216.177C227.803 216.178 227.764 216.178 227.724 216.178C226.087 216.217 222.277 217.609 217.53 222.537C211.451 228.847 205.83 241.636 204.927 245.006C204.083 248.158 204.025 251.521 207.663 256.212C211.194 260.766 231.563 271.569 258.584 270.87C240.738 273.859 218.885 265.976 208.423 260.301C197.962 254.626 196.985 246.932 197.611 242.707C198.237 238.483 203.659 228.955 210.095 222.572C215.191 217.516 223.892 216.207 227.724 216.178C227.765 216.177 227.803 216.177 227.841 216.177Z" fill="#745C4A"/>
<ellipse cx="232.332" cy="255.611" rx="8.3533" ry="7.32746" transform="rotate(15 232.332 255.611)" fill="#C6AA95"/>
<path d="M237.658 253.83C237.4 254.793 235.212 254.465 232.593 253.763C229.974 253.061 227.916 252.252 228.174 251.289C228.432 250.327 230.619 250.655 233.238 251.357C235.857 252.058 237.916 252.868 237.658 253.83Z" fill="#5B4739"/>
<path d="M247.454 248.433C249.038 247.942 252.755 247.655 254.957 250.444" stroke="#5B4739" stroke-width="1.97893" stroke-linecap="round"/>
<path d="M215.888 239.976C217.472 239.485 221.189 239.198 223.39 241.986" stroke="#5B4739" stroke-width="1.97893" stroke-linecap="round"/>
<path d="M235.126 258.785C233.741 258.414 231.587 257.837 233.066 252.316" stroke="#5B4739" stroke-width="1.97893" stroke-linecap="round"/>
<path d="M228.047 256.89C229.487 257.276 231.728 257.876 233.207 252.355" stroke="#5B4739" stroke-width="1.97893" stroke-linecap="round"/>
<ellipse cx="259.577" cy="259.805" rx="7.03436" ry="6.22834" transform="rotate(15 259.577 259.805)" fill="#CD9F99"/>
<ellipse cx="1.82918" cy="2.46273" rx="1.82918" ry="2.46273" transform="matrix(-0.635313 0.772255 0.772255 0.635313 224.684 234.527)" fill="#C6AA95"/>
<ellipse cx="247.48" cy="243.415" rx="1.82918" ry="2.46273" transform="rotate(80.5568 247.48 243.415)" fill="#C6AA95"/>
<ellipse cx="208.19" cy="246.036" rx="7.03436" ry="6.22834" transform="rotate(15 208.19 246.036)" fill="#CD9F99"/>
<path d="M207.041 239.735C206.035 242.219 204.083 247.978 204.96 251.315C197.574 246.47 202.616 239.729 207.041 239.735Z" fill="#BF7C74"/>
<path d="M269.247 243.658C268.008 233.685 261.686 227.204 258.681 225.211L260.006 224.038C266.379 226.425 269.736 237.848 270.56 243.161L269.247 243.658Z" fill="#927763" fill-opacity="0.3"/>
<path d="M206.357 229.54C212.416 221.522 221.131 219.071 224.731 218.847L224.17 217.169C217.457 216.049 208.838 224.264 205.468 228.454L206.357 229.54Z" fill="#745C4A"/>
<path d="M206.064 259.095C202.897 258.391 199.394 261.953 198.038 263.822C195.363 267.743 191.09 274.244 195.4 268.879C199.709 263.514 210.022 262.026 214.639 261.953C213.1 261.293 209.23 259.798 206.064 259.095Z" fill="#745C4A"/>
</g>
<path d="M151.008 331.631L151.311 335.074L153.194 335.184L152.369 331.133C150.987 321.57 160.736 312.966 165.783 309.86L197.721 286.971C189.383 286.718 171.419 286.891 166.273 289.61C161.126 292.329 156.173 298.834 154.339 301.747C148.268 311.118 149.589 325.574 151.008 331.631Z" fill="#81B148"/>
<defs>
<linearGradient id="paint0_linear_2455_5730" x1="112.867" y1="104.675" x2="100.422" y2="317.105" gradientUnits="userSpaceOnUse">
<stop stop-color="#E8D9C6"/>
<stop offset="1" stop-color="#E8D9C6"/>
</linearGradient>
<clipPath id="clip0_2455_5730">
<rect width="142.703" height="214.604" fill="white" transform="translate(159.723 164.359)"/>
</clipPath>
</defs>
</svg>
