<svg width="1372" height="624" fill="none" xmlns="http://www.w3.org/2000/svg"><path d="M1051.2 435.587c-124.474 6.09-263.657 19.323-324.694 36.89-12.507 1.892-309.686 3.513-348.21 50.359-41.466 50.424 925.564 40.405 932.564 0 4.58-26.399-104.06-94.861-259.66-87.249Z" fill="url(#a)"/><path d="M845.368 472.938c11.498.476 15.169 13.257 15.568 19.589l-3.342 7.95c-2.075-4.72-5.659-11.033-9.216-11.424-3.558-.391-8.707.519-14.618-.805-10.778-2.724-17.441-5.57-19.425-6.653 5.554-3.084 19.536-9.132 31.033-8.657Z" fill="#98C367"/><path fill-rule="evenodd" clip-rule="evenodd" d="M820.849 478.731c26.341-3.252 36.782 6.165 39.848 14.627l.842-.829c-.399-6.331-4.07-19.113-15.568-19.588-8.482-.351-18.317 2.849-25.122 5.79Z" fill="#7CA34F"/><path d="M1083.69 399.625c.35 5.928.19 14.693-.87 19.732 2.81 13.584 15.51 3.121 19.48 2.246 11.33-4.954 13.1-14.451 10.53-26.78-10.11-22.137-52.75-43.332-56.8-45.063l-.05-.023c-4.19-1.798-28.12-12.054-46.32 2.842-18.271 14.96-54.393 44.193-48.516 60.649 5.877 16.456 19.258 21.689 26.606 17.675 5.878-3.21 6.47-14.315 4.018-19.236 23.002-49.493 91.482-19.451 91.922-12.042Z" fill="#A36B52" stroke="#A36B52" stroke-width=".193"/><path fill-rule="evenodd" clip-rule="evenodd" d="M1080.72 363.687c20.48 16.073 32.9 38.183 8.68 45.737-1.84.574-3.73 1.116-5.66 1.626.19-3.931.15-8.118-.05-11.423-.43-7.409-68.91-37.451-91.917 12.042.924 1.854 1.416 4.586 1.355 7.443-.682-.007-1.342-.015-1.978-.024-27.869-.366-25.625-22.206-5.077-46.33 7.968-7.388 16.337-14.237 22.737-19.479.29-.236.58-.469.86-.698 9.68-7.929 20.99-8.732 30.09-7.477.34.193.66.388.98.583 1.87.101 3.82.369 5.83.787 4.63 1.214 8.06 2.683 9.42 3.265l.05.022c1.94.833 12.8 6.16 24.68 13.926Z" fill="#BC856D"/><path d="M1062.61 360.356c-1.4 4.459 3.25 9.889 10.37 12.128 7.13 2.239 14.47 2.897 15.87-1.561 1.41-4.459-3.66-12.346-10.79-14.585-7.13-2.24-14.05-.44-15.45 4.018Z" fill="#E8D9C6"/><path d="M984.544 377.033c2.133 2.392.762 7.096-3.063 10.506-3.825 3.411-8.227 5.893-10.361 3.501-2.133-2.392-1.188-8.752 2.636-12.163 3.825-3.411 8.655-4.237 10.788-1.844Z" fill="#E6D2BA"/><path d="M982.401 376.683c1.58 1.771.565 5.254-2.268 7.78-2.832 2.526-6.092 4.364-7.672 2.593-1.58-1.772-.88-6.482 1.952-9.008 2.832-2.525 6.409-3.137 7.988-1.365Z" fill="#F6ECE0"/><path d="M1037.38 366.709c-1.44 3.015 6.95 5.329 10.28 5.286 7.19.208 7.52-4.113 4.74-6.599-1.51-1.35-7.05-4.447-9.31-3.496-3.55 1.496-4.63 2.16-5.71 4.809Z" fill="#E6D2BA"/><path d="M1037.84 366.038c-1.13 2.349 5.41 4.152 8 4.118 5.61.162 5.87-3.204 3.7-5.142-1.18-1.051-5.5-3.464-7.26-2.724-2.76 1.166-3.6 1.683-4.44 3.748Z" fill="#F6ECE0"/><ellipse cx="4.238" cy="2.793" rx="4.238" ry="2.793" transform="scale(-1 1) rotate(5.618 -4079.424 -10354.989)" fill="#E6D2BA"/><ellipse cx="3.371" cy="2.215" rx="3.371" ry="2.215" transform="scale(-1 1) rotate(5.618 -4082.134 -10339.431)" fill="#F6ECE0"/><ellipse cx="12.521" cy="8.572" rx="12.521" ry="8.572" transform="scale(-1 1) rotate(15.93 -1794.272 -3476.796)" fill="#E8D9C6"/><ellipse cx="12.521" cy="8.572" rx="12.521" ry="8.572" transform="scale(-1 1) rotate(15.93 -1794.272 -3476.796)" fill="#E8D9C6"/><ellipse cx="12.521" cy="8.572" rx="12.521" ry="8.572" transform="scale(-1 1) rotate(15.93 -1794.272 -3476.796)" fill="#E6D2BA"/><ellipse cx="9.54" cy="6.531" rx="9.54" ry="6.531" transform="scale(-1 1) rotate(15.93 -1797.743 -3460.898)" fill="#F6ECE0"/><path d="M992.141 368.685c1.291 1.556 4.524 1.003 7.221-1.234 2.698-2.237 3.838-5.312 2.548-6.868-2.18-.8-4.523-1.004-7.22 1.233-2.698 2.238-3.071 5.056-2.549 6.869Z" fill="#E6D2BA"/><path d="M992.202 367.499c1.037 1.25 3.635.807 5.804-.992 2.164-1.798 3.084-4.269 2.044-5.52-1.749-.643-3.632-.807-5.8.992-2.169 1.798-2.468 4.063-2.048 5.52Z" fill="#F6ECE0"/><path d="M1096.88 389.502c-1.25 1.59-.03 4.634 2.73 6.798 2.76 2.164 6 2.63 7.25 1.04.32-2.301.03-4.634-2.73-6.798-2.76-2.164-5.59-1.933-7.25-1.04Z" fill="#E6D2BA"/><path d="M1096.87 389.26c-.95 1.213-.02 3.535 2.08 5.186 2.11 1.651 4.58 2.007 5.54.793.24-1.755.02-3.535-2.09-5.186-2.1-1.651-4.26-1.475-5.53-.793Z" fill="#F6ECE0"/><path d="M1062.61 360.356c-1.4 4.459 3.25 9.889 10.37 12.128 7.13 2.239 14.47 2.897 15.87-1.561 1.41-4.459-3.66-12.346-10.79-14.585-7.13-2.24-14.05-.44-15.45 4.018Z" fill="#E6D2BA"/><path d="M1064.13 358.941c-1.05 3.325 2.41 7.374 7.73 9.044 5.32 1.669 10.79 2.16 11.84-1.165 1.04-3.324-2.74-9.206-8.06-10.876-5.31-1.67-10.47-.328-11.51 2.997Z" fill="#F6ECE0"/><ellipse cx="2.986" cy="3.564" rx="2.986" ry="3.564" transform="scale(-1 1) rotate(5.618 -4665.177 -9726.516)" fill="#E8D9C6"/><ellipse cx="2.408" cy="2.89" rx="2.408" ry="2.89" transform="scale(-1 1) rotate(5.618 -4665.752 -9714.72)" fill="#F6ECE0"/><path d="M1082.47 394.664c8.45 13.859 13.33 35.075 14.71 43.951 8.23-9.236 13.75-7.827 15.47-5.968 6.1 6.703-4.76 19.479-10.95 25.03-.38 15.568-8.09 25.735-11.9 28.873 11.23-1.668 14.19 8.087 13.52 12.199-4.4 9.143-32.47 4.224-38.53-1.026l-28.23 2.251c-6.37 10.943-39.036 19.345-39.863 8.975-.682-11.463 8.663-12.961 13.423-12.278-13.862-6.084-19.557-21.512-20.972-29.967-10.94-5.119-18.033-18.924-13.853-22.253 3.343-2.663 10.29 1.064 11.952 2.929.484-25.934 6.471-42.87 9.404-48.096 25.089-7.315 77.369-18.479 85.819-4.62Z" fill="#CEB798"/><path d="M997.835 409.199c1.858-6.886 68.795-16.266 80.805-12.013 28.29 44.817 9.89 69.734-3.93 80.363-13.14 10.099-41.97 12.161-52.66 6.825-36.474-18.213-30.657-51.304-24.215-75.175Z" fill="#E8D9C6"/><ellipse cx="4.431" cy="6.357" rx="4.431" ry="6.357" transform="scale(-1 1) rotate(5.618 -4781.129 -10651.123)" fill="#564035"/><ellipse cx="4.431" cy="6.357" rx="4.431" ry="6.357" transform="scale(-1 1) rotate(5.618 -4801.463 -10236.922)" fill="#564035"/><path d="M1049.24 433.141c-.08-.787-1.01-1.171-1.64-.704-3.97 2.896-6.73 3.077-10.7 1.107-.7-.346-1.54.192-1.46.967.03.312.21.591.49.739 5.4 2.891 8.36 2.581 12.97-1.265a.997.997 0 0 0 .34-.844Z" fill="#70554A"/><path d="M985.683 411.768c31.437-46.452 85.067-28.887 107.957-14.298-5.55 10.457-16.15 3.396-19.8-1.536-11.66 6.567-19.35 2.355-22.69-.478-9.07 7.009-19.19 6.243-23.12 4.985-1.33 3.847-14.42 4.321-20.8 4.078 3.66 7.673-25.043 12.045-21.547 7.249Z" fill="#E8D8C8" stroke="#E8D9C6" stroke-width=".193"/><path d="M1061.34 383.922c-4.83 13.928-31.19 29.297-50.08 4.539" stroke="#D1BC9F" stroke-width="2.504"/><path d="M1027.86 400.763c-5.08 5.34-25.56 6.773-28.77-4.235" stroke="#D1BC9F" stroke-width="2.504"/><path d="M1007.61 404.496c1.13 8.503-23.964 11.165-22.099 7.498M1079.14 389.719c-4.12 11.245-23.92 10.676-27.79 5.83" stroke="#D1BC9F" stroke-width="2.504"/><path d="M1093.63 397.294c-4.86 7.736-16.89 4.467-20.61-.877" stroke="#D1BC9F" stroke-width="2.504"/><path d="M1094.57 398.072c-27.4-21.791-83.97-26.195-110.582 15.136" stroke="#886653" stroke-width="1.348" stroke-linecap="round"/><path d="M1076.84 488.469c.2 2.064 9.97 6.955 14.58 6.502 4.6-.453 8.17-2.494 7.97-4.559-.2-2.064-3.22-5.2-7.82-4.747-4.93.098-14.93.739-14.73 2.804ZM1020.21 498.225c.21 2.064-9.08 5.054-13.68 5.507-4.61.453-9.862 2.086-10.065.022-.203-2.065 3.975-5.811 8.575-6.264 4.85-.864 14.97-1.33 15.17.735Z" fill="#E8D9C6"/><path d="M1106.58 440.962c-.08-2.486 3.31-7.069 4.44-8.255 2.01-3.45-13.45.268-19.3 2.303-.12 3.077.12 9.194 2 9.041 1.88-.153 3.24-1.117 3.68-1.58.21 3.792 1.47 7.924 2.08 9.517 2.4-2.64 7.18-8.539 7.1-11.026Z" fill="#E8D9C6" stroke="#E8D9C6" stroke-width=".193"/><path d="M1057.95 388.219c-6.67 4.835-24.75 12.465-41.79 4.111 7.73 8.588 26.92 19.789 41.79-4.111ZM1056.6 392.514c7.82 4.313 16.89 1.744 20.28-.299-1.73 3.795-8.93 10.046-23.96 4.682l3.68-4.383ZM1077.36 394.228c5.33 5.9 13.06 5.286 16.17 3.988-2.14 3.375-9.14 8.011-19.99-.448l3.82-3.54ZM1003.78 402.258c-3.34 7.213-14.94 10.155-18.291 9.835 3.047 2.589 15.141 3.706 22.991-7.586l-4.7-2.249Z" fill="#D1BC9F"/><path d="M1022.92 396.794c-6.82 5.752-16.22 5-19.94 3.656 2.43 3.387 10.72 8.114 24.41-.075l-4.47-3.581Z" fill="#D1BC9F"/><path d="M988.705 454.357c3.363-2.808 5.19-2.995 6.53-1.513l-.863-4.831-3.534-1.492c-2.025-.252-6.931-1.196-10.31-2.49-3.38-1.293-5.179.49-5.734 1.726-.648 2.269 14.041 12.866 15.153 12.369.89-.397.291-1.307-1.242-3.769Z" fill="#E8D9C6" stroke="#E8D9C6" stroke-width=".193"/><ellipse cx="15.218" cy="11.847" rx="15.218" ry="11.847" transform="scale(-1 1) rotate(5.618 -4799.623 -10996.409)" fill="#DAAA93"/><ellipse cx="15.218" cy="11.847" rx="15.218" ry="11.847" transform="scale(-1 1) rotate(5.618 -4845.682 -10058.03)" fill="#DAAA93"/><path d="M1195.94 380.676c12.66 67.762-17.91 112.825-34.78 126.887l-11.56-19.487c2.59-16.918 8.08-31.445 10.54-36.538 2.4-6.201 8.93-20.24 15.42-27.238 6.49-6.997 16.29-31.998 20.38-43.624Z" fill="#4D7B37" stroke="#4D7B37" stroke-width=".203"/><path d="M1200 466.571c-22.2-7.197-37.53 16.759-42.42 29.637l4.12 8.997c7.03-8.335 15.03-8.997 22.06-7.277 7.03 1.72 16.24 7.277 28.36 8.732 22.29 2.012 36.84.838 41.32 0-8.56-10.364-31.24-32.891-53.44-40.089Z" fill="#678D3A" stroke="#678D3A" stroke-width=".242"/><path fill-rule="evenodd" clip-rule="evenodd" d="M1234.83 484.528c-49.39-11.871-72.24 2.995-80.73 19.163l-.6-1.42c1.92-13.486 10.45-36.332 33.1-35.086 16.7.919 35.41 9.705 48.23 17.343Z" fill="#7CA34F"/><path d="M859.617 293.65c8.936 13.182 67.853-.851 96.195-9.515 4.103-3.172 17.552-10.304 38.523-13.46 30.315-3.946 32.595-20.655 37.615-25.529 38.11-34.162 76.36-31.098 90.72-25.296-15.96-41.542-51.74-49.433-81.15-54.307-29.4-4.873-60.634 17.638-69.068 20.655-6.747 2.414-13.905 2.553-16.64 2.321-31.685 8.819-31.913 9.283-61.318 30.402-29.406 21.119-38.524 53.61-45.59 63.125-5.653 7.612 3.571 9.051 8.89 8.819l1.823 2.785Z" fill="url(#b)" stroke="#C2DE93" stroke-width=".456"/><path d="M1101.93 217.994c-69.53-41.079-164.127 76.585-222.254 59.875 2.806 7.217 25.058 12.273 91.342-23.454 66.282-35.727 91.712-31.877 103.232-27.968l27.68-8.453Z" fill="#A1C277"/><path d="M1079.13 296.436c22.06 92.645 13.56 203.379 4.37 228.908h22.5c7.84-39.732-4.38-175.53-10.91-228.908 1.59-28.546 49-16.246 69.75-24.368 16.59-6.499 12.69-17.716 8.66-22.512-6.69-5.492-27.08-19.355-55.16-30.866-35.11-14.389-82.29 22.512-85.48 25.993-3.2 3.481-12.54 22.047-36.704 25.528-22.978 3.899-36.472 10.753-40.347 13.693 38.675-6.344 117.481-12.718 123.321 12.532Z" fill="#698C3D" stroke="#769A49" stroke-width=".456"/><path fill-rule="evenodd" clip-rule="evenodd" d="M1144.45 231.191c-2.5 12.057-15.52 27.028-54.25 34.501-38.76 7.482-36.33 7.645-26.26 8.32 7.54.506 19.37 1.299 21.39 5.664 10.93 23.529 21.85 172.421 10.86 220.826l8.84 5.977c7.84-39.732-3.27-156.42-9.8-209.798 1.06-18.983 22.38-19.903 42.65-20.777 10.21-.441 20.15-.87 27.1-3.591 16.6-6.499 12.69-17.716 8.66-22.512-4.39-3.606-14.69-10.821-29.19-18.61Z" fill="#4D7B37"/><path d="m1119.16 510.091.32 6.365-3.12 1.543.41-7.825c.02-18.069-18.33-26.47-27.5-28.412l-58.83-18.059c13.87-6.411 43.92-18.938 53.17-17.759 9.24 1.18 19.08 9.259 22.83 13.151 12.39 12.398 13.64 39.163 12.72 50.996Z" fill="#97C65F" stroke="#97C65F" stroke-width=".199"/><path fill-rule="evenodd" clip-rule="evenodd" d="M1116.78 495.59c-7.08-15.963-27.73-47.115-53.61-44.019a39.19 39.19 0 0 1-4.18.296c10.32-3.744 20.03-6.535 24.62-5.949 9.25 1.179 19.08 9.258 22.84 13.15 12.38 12.398 13.64 39.163 12.71 50.996l.32 6.366-2.7 1.333V495.59Z" fill="#769A49"/><path d="M924.026 142.156c34.271 2.964 73.888-8.813 89.414-15.072 4.04-11.267 35.81-20.261 55.14-24.214 13.62-3.459 19.29-8.746 24.39-17.048 26.18-45.462 66.71-41.015 83.7-33.108-28.56-46.945-51.41-46.451-83.7-51.887-32.3-5.436-56.02 17.543-62.83 21.743-6.82 4.2-28.56 5.436-33.617 6.177-5.053.741-23.067 3.706-48.991 31.379-36.907 37.16-43.644 78.241-42.399 94.136 2.856-12.848 15.158-12.106 18.893-12.106Z" fill="url(#c)"/><path d="M928.523 126.308c93.367-85.984 180.897-88.866 212.977-77.137l-7.62 8.572c-27.41-6.917-112.62-3.971-205.357 68.565Z" fill="#90B58C"/><path d="M1131.19 140.92c20.92 102.785 4.27 339.808-4.44 365.092h24.9c10.02-24.115.63-308.511-6.18-367.316 5.5-13.342 9.23-13.589 12.75-16.307 22.62-12.848 48.99-3.953 55.58-8.895 36.68-24.707 1-54.11-26.24-54.11-33.17-37.06-80.31 2.224-87.56 13.837-7.25 11.612-7.69 21.496-31.86 29.649-46.39 11.267-55.5 20.343-54.26 23.473 21.75-8.895 109.19-12.107 117.31 14.577Z" fill="#4D8369" stroke="#4D8369" stroke-width="1.456"/><path fill-rule="evenodd" clip-rule="evenodd" d="M1203.77 63.148c-1.93 9.796-11.14 27.603-35.44 31.362-32.09 4.962-30.09 49.621-28.48 57.289 1.58 7.554 14.84 107.025 7.95 354.893h3.8c10.02-24.115.64-308.511-6.17-367.316 4.51-10.953 7.83-13.081 10.82-14.995.65-.418 1.29-.825 1.92-1.312 13.99-7.945 29.41-7.576 40.7-7.305 6.97.167 12.36.296 14.88-1.59 29.55-19.904 12.14-42.854-9.98-51.026Z" fill="#336C50"/><path d="M1288.95 370.483c-5.27 8.331-39.99-.538-56.7-6.014-2.42-2.005-10.34-6.513-22.7-8.507-17.87-2.494-19.22-13.055-22.17-16.135-22.47-21.591-45.01-19.655-53.47-15.988 9.4-26.255 30.49-31.242 47.83-34.322 17.33-3.08 35.73 11.147 40.7 13.054 3.98 1.526 8.2 1.614 9.81 1.467 18.68 5.574 18.81 5.867 36.14 19.215 17.33 13.347 22.71 33.882 26.87 39.896 3.33 4.811-2.1 5.72-5.24 5.573l-1.07 1.761Z" fill="url(#d)" stroke="#C2DE93" stroke-width=".269"/><path d="M1154.45 322.911c43.24-27.462 102.08 51.197 138.24 40.026-1.75 4.825-15.59 8.205-56.82-15.679-41.22-23.883-57.04-21.31-64.21-18.696l-17.21-5.651Z" fill="#A1C277"/><path d="M1159.57 372.24c-13.01 58.553-5.42 116.461 0 132.596h-15.18c-4.63-25.111 1.92-98.861 5.77-132.596-.94-18.042-28.88-10.268-41.11-15.401-9.78-4.107-7.48-11.197-5.1-14.228 3.94-3.471 15.96-12.233 32.51-19.508 20.69-9.094 48.5 14.228 50.38 16.428 1.88 2.2 7.39 13.934 21.63 16.134 13.54 2.464 21.5 6.796 23.78 8.654-22.79-4.009-69.24-8.038-72.68 7.921Z" fill="#769A49" stroke="#769A49" stroke-width=".269"/><path fill-rule="evenodd" clip-rule="evenodd" d="M1121.73 331.562c1.45 7.51 9.01 16.836 31.5 21.491 22.52 4.66 21.11 4.761 15.26 5.182-4.38.315-11.25.809-12.43 3.528-6.34 14.655-12.69 107.39-6.3 137.541l-5.14 3.722c-4.55-24.747 1.9-97.427 5.69-130.673-.61-11.824-13-12.397-24.77-12.942-5.93-.274-11.71-.541-15.74-2.236-9.64-4.048-7.37-11.034-5.03-14.022 2.55-2.246 8.53-6.74 16.96-11.591Z" fill="#688C3B"/><path d="M978.591 443.737c2.471 12.74 7.814 24.703 10.225 27.505l-1.86.869c-2.971-4.726-7.435-20.595-9.368-27.905-1.648-3.623-6.886.717-9.803.83-2.333.091-2.434-1.588-2.193-2.439.527-1.092 2.281-4.044 5.083-7.124 3.502-3.851 11.077-1.712 11.64-1.439.562.273 2.636 2.161 5.729 1.251 2.972-.788 4.949-.658 5.567-.494-4.99 1.356-15.603 5.333-15.02 8.946Z" fill="#769A49" stroke="#769A49" stroke-width=".062"/><path d="M1004.27 431.253c-.41 2.218-6.789 3.098-10.65 3.569-.657-.181-2.643-.351-5.335.421-3.859 1.196-4.986-.848-5.839-1.2-6.341-2.294-10.8.261-12.237 1.825-.192-6.302 3.724-9.346 7.023-11.637 3.3-2.292 8.216-1.125 9.387-1.208a5.508 5.508 0 0 0 2.126-.636c4.273-.64 4.324-.592 8.949.497 4.626 1.089 4.846 3.468 6.186 4.307 1.07.672 1.54 2.681.89 2.951l-.5 1.111Z" fill="#C2DE93" stroke="#C2DE93" stroke-width=".062"/><path d="M1002.43 429.644c.04-.035.1-.031.13.009.03.039.02.099-.02.133l-.11-.142Zm.11.142c-1.56 1.387-3.838 1.785-6.439 1.762-2.603-.024-5.562-.471-8.512-.797-2.955-.326-5.904-.532-8.504-.082-2.598.451-4.84 1.554-6.395 3.841l-.146-.105c1.593-2.344 3.889-3.467 6.519-3.923 2.627-.455 5.597-.246 8.553.081 2.96.327 5.903.772 8.494.795 2.594.024 4.81-.376 6.32-1.714l.11.142Z" fill="#769A49"/><path d="M896.248 180.917c-.683 8.597 3.783 10.328 9.43 10.778 5.647.449 10.861-.956 11.545-9.553.683-8.597-3.423-21.131-9.07-21.58-5.647-.449-11.221 11.758-11.905 20.355Z" fill="#69C1B1"/><path fill-rule="evenodd" clip-rule="evenodd" d="M903.813 165.2c.045.002.091.004.137.008 4.867.387 8.382 11.484 7.777 19.101-.203 2.554-.844 4.393-1.789 5.694 3.239-.605 5.774-2.77 6.218-8.354.606-7.618-2.91-18.714-7.777-19.101-1.573-.125-3.142.921-4.566 2.652Z" fill="#59AF9F"/><path d="M912.366 183.258c0 4.089-3.174 7.404-7.089 7.404-3.916 0-7.089-3.315-7.089-7.404 0-4.088 3.173-1.586 7.089-1.586 3.915 0 7.089-2.502 7.089 1.586Z" fill="#91CEBC"/><path d="M898.25 181.498c-.553-4.647 2.712-11.528 4.67-15.315a8.451 8.451 0 0 1 1.037-1.552c2.037-2.434 1.218-1.369.792.167-.464 1.67-3.248 8.907-2.32 11.69 3.489 10.466-3.716 8.907-4.179 5.01Z" fill="#CEE1CC"/><path d="M1139.98 504.342c-.84 7.344-16.29 6.471-23.9 5.116-12.58 0-13.82.909-21.43-2.152-7.6-3.06 4.07-31.987 22.33-29.023 18.27 2.965 24.05 16.879 23 26.059Z" fill="#A5663D" stroke="#A5663D" stroke-width=".287"/><path d="M1128.08 515.198c-.54-1.148-.77-3.698-.81-4.829-4.67-1.722-16.42-1.323-21.71-.909-2.09 4.24-5.01 13.522 0 16.735 6.26 4.017 16.16 2.821 20.7 0 4.54-2.821 2.49-9.563 1.82-10.997Z" fill="#D1BC9F" stroke="#D1BC9F" stroke-width=".287"/><ellipse cx="4.877" cy="10.769" rx="4.877" ry="10.769" transform="scale(-1 1) rotate(-36.729 170.7 1917.305)" fill="#BC856D"/><path fill-rule="evenodd" clip-rule="evenodd" d="M1104.89 511.114c6.35.148 19.14.709 19.49 1.772.44 1.325 1.32 11.887-.86 14.593 1.04-.369 1.97-.803 2.75-1.284 4.54-2.821 2.48-9.563 1.81-10.997-.53-1.148-.76-3.698-.81-4.829-4.67-1.722-16.42-1.323-21.71-.909-.23.464-.46.987-.7 1.556l.03.098Z" fill="#BFA27A"/><path fill-rule="evenodd" clip-rule="evenodd" d="M1130.38 509.687c4.83-.552 8.8-2.175 9.22-5.798.91-7.908-3.26-19.328-16.11-24.237.3.446.89 1.029 1.84 1.763 5.32 4.112 4.89 11.895 3.05 18.396-1 3.526-.42 7.576 2 9.876Z" fill="#815131"/><path d="M1235.67 485.271c-1.04 9.092-20.16 8.01-29.59 6.333-15.57 0-17.11 1.125-26.52-2.663s5.03-39.597 27.64-35.927c22.61 3.669 29.78 20.893 28.47 32.257Z" fill="#D1BC9F" stroke="#D1BC9F" stroke-width=".425"/><path d="M1220.94 498.711c-.66-1.421-.95-4.578-1.01-5.978-5.77-2.131-20.32-1.638-26.87-1.125-2.58 5.248-6.2 16.738 0 20.716 7.75 4.972 20.01 3.492 25.63 0 5.62-3.492 3.08-11.838 2.25-13.613Z" fill="#E8D9C6" stroke="#E8D9C6" stroke-width=".425"/><ellipse cx="6.037" cy="13.331" rx="6.037" ry="13.331" transform="scale(-1 1) rotate(-36.729 89.63 2039.563)" fill="#E8D9C6"/><path fill-rule="evenodd" clip-rule="evenodd" d="M1202.74 452.318c18.31 4.736 32.9 33.244 10.4 35.828-8.79 1.009-11.9 2.046-11.49 2.981 1.5-.022 3.15-.038 5.01-.038 9.43 1.677 28.56 2.758 29.6-6.333 1.3-11.365-5.86-28.588-28.47-32.258a19.954 19.954 0 0 0-5.05-.18Z" fill="#BD9D72"/><path fill-rule="evenodd" clip-rule="evenodd" d="M1192.38 493.274c7.94.186 23.94.894 24.38 2.236.55 1.67 1.66 14.995-1.08 18.408 1.31-.465 2.47-1.013 3.44-1.62 5.68-3.559 3.11-12.064 2.27-13.873-.67-1.448-.95-4.665-1.01-6.092-5.84-2.172-20.53-1.669-27.15-1.146-.29.585-.59 1.247-.88 1.967l.03.12Z" fill="#D0B898"/><path d="M918.203 466.33c-1.358 11.847-26.277 10.438-38.567 8.253-20.285 0-22.291 1.466-34.555-3.471-12.264-4.936 6.556-51.602 36.021-46.819 29.465 4.782 38.798 27.227 37.101 42.037Z" fill="#AD916A" stroke="#D1BC9F" stroke-width=".425"/><path d="M898.999 483.838c-.864-1.851-1.235-5.965-1.312-7.79-7.528-2.777-26.482-2.134-35.018-1.466-3.368 6.839-8.083 21.813 0 26.997 10.105 6.479 26.071 4.551 33.399 0 7.327-4.551 4.01-15.427 2.931-17.741Z" fill="#D1BC9F"/><ellipse cx="7.868" cy="17.372" rx="7.868" ry="17.372" transform="scale(-1 1) rotate(-36.729 212.734 1532.461)" fill="#E8D9C6"/><path fill-rule="evenodd" clip-rule="evenodd" d="M875.199 423.383c23.864 6.168 42.881 43.323 13.551 46.692-11.44 1.313-15.502 2.664-14.97 3.882 1.951-.029 4.114-.05 6.539-.05 12.29 2.186 37.209 3.595 38.566-8.253 1.697-14.809-7.636-37.255-37.1-42.037a26 26 0 0 0-6.586-.234Z" fill="#9E845F"/><path fill-rule="evenodd" clip-rule="evenodd" d="M861.788 476.759c10.351.243 31.197 1.165 31.774 2.913.72 2.178 2.157 19.548-1.407 23.992 1.701-.607 3.221-1.321 4.486-2.114 7.403-4.637 4.052-15.721 2.961-18.079-.873-1.886-1.247-6.079-1.325-7.939-7.606-2.83-26.756-2.175-35.38-1.493a43.925 43.925 0 0 0-1.151 2.57l.042.15Z" fill="#C2A782"/><path d="M948.017 490.475c-.74 6.452-14.31 5.684-21.003 4.494-11.048 0-12.14.798-18.819-1.89-6.679-2.688 3.571-28.102 19.617-25.497 16.046 2.604 21.129 14.828 20.205 22.893Z" fill="#A5663D" stroke="#A5663D" stroke-width=".287"/><path d="M937.557 500.008c-.471-1.008-.672-3.248-.714-4.243-4.1-1.512-14.422-1.162-19.071-.798-1.834 3.725-4.402 11.88 0 14.702 5.503 3.529 14.198 2.479 18.189 0 3.99-2.478 2.184-8.401 1.596-9.661Z" fill="#D1BC9F" stroke="#D1BC9F" stroke-width=".287"/><ellipse cx="4.285" cy="9.461" rx="4.285" ry="9.461" transform="scale(-1 1) rotate(-36.729 248.097 1627.533)" fill="#BC856D"/><path fill-rule="evenodd" clip-rule="evenodd" d="M917.177 496.42c5.579.13 16.815.623 17.127 1.557.388 1.164 1.162 10.446-.759 12.821.916-.324 1.734-.706 2.416-1.129 3.99-2.478 2.184-8.401 1.596-9.661-.471-1.008-.672-3.248-.714-4.243-4.1-1.512-14.422-1.162-19.071-.798-.201.408-.41.869-.619 1.37l.024.083Z" fill="#BFA27A"/><path fill-rule="evenodd" clip-rule="evenodd" d="M939.943 495.127c4.08-.524 7.383-1.958 7.738-5.051.796-6.948-2.867-16.984-14.158-21.295.256.392.776.905 1.614 1.552 4.41 3.408 4.325 9.688 2.943 15.183-.859 3.415-.357 7.343 1.863 9.611Z" fill="#815131"/><path d="M464.805 478.096C282.622 506.248 95.64 562.74 794.768 564.78c4.914-.165 9.01-.148 12.232.03-4.107-.008-8.184-.018-12.232-.03-31.638 1.065-97.163 9.691-181.541 31.442-121.853 31.412-735.699-27.871-591.4-76.98 115.44-39.287 387.853-41.883 442.978-41.146Z" fill="#59C5B0"/><path d="M984 572.498c-145.6 5.6-244.833 9.999-277.5 22.499 359.5-33 419.5 8.503 503 25.503s139.08-36.487 247-71.504c188-60.999-315-109.996-266-100.496s297.28 61.75 212 88.497C1318 563.5 1166 565.498 984 572.498Z" fill="#59C5B0"/><defs><linearGradient id="a" x1="844" y1="507" x2="844" y2="557" gradientUnits="userSpaceOnUse"><stop stop-color="#C2DBC0"/><stop offset="1" stop-color="#9CC9AD"/></linearGradient><linearGradient id="b" x1="867.784" y1="256.22" x2="1060.52" y2="182.769" gradientUnits="userSpaceOnUse"><stop offset=".365" stop-color="#C9DE93"/><stop offset="1" stop-color="#D8EAA9"/></linearGradient><linearGradient id="c" x1="1110.22" y1="7.218" x2="1039.24" y2="83.359" gradientUnits="userSpaceOnUse"><stop stop-color="#ABD4A6"/><stop offset="1" stop-color="#B9D9B6"/></linearGradient><linearGradient id="d" x1="1191.22" y1="288.997" x2="1241.7" y2="339.236" gradientUnits="userSpaceOnUse"><stop stop-color="#CEE4A9"/><stop offset="1" stop-color="#C2DE93"/></linearGradient></defs></svg>