<svg width="404" height="490" viewBox="0 0 404 490" fill="none" xmlns="http://www.w3.org/2000/svg">
<path d="M229.11 202.876C229.108 347.5 117.502 365.5 114.001 399L105.321 354.63C116.246 328.756 131.558 307.901 137.92 300.817C144.564 291.941 161.595 272.298 175.987 263.864C190.378 255.429 217.398 219.691 229.11 202.876Z" fill="#86A173"/>
<path d="M-39.5225 221.288C103.198 244.677 102.913 357.724 135.406 366.597L90.2163 367.987C66.4487 353.022 48.3445 334.539 42.3829 327.115C34.6978 319.123 18.0679 299.14 12.0718 283.574C6.07575 268.008 -24.8227 235.564 -39.5225 221.288Z" fill="#86A173"/>
<path d="M-10.3917 145.794C-41.6807 160.893 -40.9191 169.918 -40.5907 173.604C-39.0871 190.451 -6.92283 201.266 8.20562 206.352L8.66785 206.508C85.7808 232.444 240.79 211.508 272.463 207.754C304.136 203.999 325.817 196.215 340.352 189.802C349.752 185.654 355.957 178.962 356.807 176.377C358.117 170.419 356.118 160.484 342.451 153.971C323.177 146.518 309.59 133.262 305.206 127.565L249.216 67.6769C240.694 59.528 219.991 41.2817 205.35 33.4882C153.981 4.77571 108.369 17.097 91.9842 26.8467C82.0542 32.2997 64.2904 46.7581 46.26 73.9726C33.688 96.1852 13.4423 123.732 -10.3917 145.794Z" fill="#C16134" stroke="#C16134" stroke-width="0.80166"/>
<path d="M307.655 168.621C157.596 106.469 44.9313 147.821 7.35603 176.266C35.7065 200.59 97.2126 205.395 124.422 204.757C127.591 222.249 115.024 248.845 108.345 259.957C72.7511 324.646 65.1362 382.43 75.6716 394.901C87.9535 409.438 129.032 412.219 148.994 402.572C188.402 384.896 185.661 263.027 182.997 198.145C257.453 194.266 297.126 176.846 307.655 168.621Z" fill="url(#paint0_linear_789_5810)" stroke="#E8D9C6" stroke-width="0.80166"/>
<path d="M127.433 268.476C110.825 312.258 81.4404 396.188 102.216 405.345" stroke="#C5A687" stroke-opacity="0.5" stroke-width="3.20664" stroke-linecap="round"/>
<path d="M165 268.354C162.736 306.979 154.005 399.988 135.188 405.962" stroke="#C5A687" stroke-opacity="0.5" stroke-width="3.20664" stroke-linecap="round"/>
<path fill-rule="evenodd" clip-rule="evenodd" d="M171.202 93.6942C215.817 116.77 278.74 127.253 287.957 109.818C288.037 109.667 288.113 109.513 288.185 109.358L249.216 67.6764C240.695 59.5275 219.991 41.2812 205.35 33.4876C165.451 11.1859 129.025 13.64 107.069 20.4164C97.9711 37.87 126.649 70.6509 171.202 93.6942Z" fill="#DC7747" fill-opacity="0.7"/>
<path d="M230.67 64.135C224.881 72.831 208.772 72.4501 194.688 63.2842C180.604 54.1183 168.98 42.3623 174.768 33.6663C180.557 24.9703 201.567 22.6272 215.651 31.7931C229.734 40.959 236.459 55.4389 230.67 64.135Z" fill="#E6D2BA"/>
<path d="M228.422 56.0508C223.532 63.397 211.782 64.2851 202.178 58.0345C192.573 51.7838 184.963 43.2908 189.853 35.9446C194.743 28.5984 210.282 25.1809 219.886 31.4315C229.49 37.6822 233.312 48.7046 228.422 56.0508Z" fill="#F6ECE0"/>
<path d="M49.3441 103.998C53.4654 112.106 47.6639 123.207 36.3861 128.794C25.1082 134.38 12.8553 137.037 8.73398 128.929C4.6127 120.822 10.1837 105.019 21.4616 99.4328C32.7394 93.8464 45.2228 95.8903 49.3441 103.998Z" fill="#E6D2BA"/>
<path d="M48.5647 102.735C51.5682 108.644 47.3402 116.734 39.1211 120.806C30.902 124.877 21.9723 126.813 18.9688 120.905C15.9653 114.996 20.0254 103.479 28.2444 99.408C36.4635 95.3367 45.5612 96.8263 48.5647 102.735Z" fill="#F6ECE0"/>
<path d="M142.356 75.8507C143.201 64.1864 131.677 53.8493 116.616 52.7622C101.554 51.6751 87.3677 66.2437 86.522 77.908C85.6762 89.5724 98.4917 93.9154 113.553 95.0026C128.615 96.0897 141.51 87.5151 142.356 75.8507Z" fill="#E6D2BA"/>
<path d="M140.88 70.7525C141.46 62.7398 133.41 55.6291 122.897 54.8704C112.385 54.1116 102.495 64.109 101.914 72.1217C101.333 80.1344 110.281 83.1282 120.793 83.887C131.306 84.6458 140.299 78.7653 140.88 70.7525Z" fill="#F6ECE0"/>
<path d="M266.616 118.69C271.307 112.58 268.708 102.822 260.811 96.8965C252.913 90.9705 239.825 93.9569 235.133 100.067C230.442 106.178 235.923 113.098 243.821 119.024C251.718 124.95 261.924 124.801 266.616 118.69Z" fill="#E6D2BA"/>
<path d="M266.491 112.98C269.771 108.708 267.954 101.885 262.432 97.7417C256.91 93.5982 247.759 95.6863 244.479 99.9587C241.198 104.231 245.031 109.07 250.553 113.213C256.075 117.357 263.211 117.252 266.491 112.98Z" fill="#F6ECE0"/>
<path d="M75.6318 45.0212C72.9275 40.9749 65.5888 41.0495 59.2404 45.1879C52.892 49.3264 50.9826 58.2962 53.687 62.3425C56.3913 66.3888 62.6853 63.9793 69.0337 59.8409C75.3821 55.7025 78.3362 49.0675 75.6318 45.0212Z" fill="#E6D2BA"/>
<path d="M75.4965 44.9727C73.6467 42.2049 68.6338 42.2515 64.2999 45.0767C59.966 47.9019 58.6673 54.0326 60.5172 56.8004C62.367 59.5682 66.6648 57.9249 70.9987 55.0996C75.3326 52.2744 77.3464 47.7404 75.4965 44.9727Z" fill="#F6ECE0"/>
<path d="M300.418 126.042C303.264 122.706 309.824 123.545 315.069 127.916C320.315 132.287 321.08 140.515 318.234 143.852C315.388 147.188 310.009 144.37 304.764 139.998C299.518 135.627 297.573 129.379 300.418 126.042Z" fill="#E6D2BA"/>
<path d="M305.607 126.294C307.734 123.8 312.637 124.427 316.557 127.694C320.478 130.962 321.05 137.111 318.923 139.605C316.796 142.099 312.776 139.992 308.855 136.725C304.934 133.458 303.48 128.788 305.607 126.294Z" fill="#F6ECE0"/>
<path d="M179.452 95.6741C180.546 91.4452 185.748 89.113 191.07 90.465C196.391 91.817 199.551 98.6132 198.457 102.842C197.362 107.071 192.428 107.131 187.106 105.779C181.784 104.427 178.357 99.903 179.452 95.6741Z" fill="#E6D2BA"/>
<path d="M183.423 94.6289C184.317 91.1724 188.569 89.2662 192.918 90.3712C197.268 91.4763 199.851 97.0311 198.956 100.488C198.062 103.944 194.028 103.993 189.679 102.888C185.329 101.783 182.528 98.0853 183.423 94.6289Z" fill="#F6ECE0"/>
<path d="M103.281 266.662C57.9585 359.462 67.7592 392.46 80.3097 398.538C84.5665 401.841 84.8336 401.602 82.129 398.645C69.418 383.397 82.9806 335.083 98.2913 305.955C110.54 282.653 161.822 268.49 184.914 264.33C185.836 248.59 184.953 215.529 184.245 200.815C228.398 200.959 290.453 183.048 307.89 168.873C302.777 164.859 297.622 162.572 285.728 165.539C259.907 174.001 250.963 167.998 249.718 163.939C249.256 162.894 248.904 159.972 251.192 156.646C253.479 153.319 253.046 145.829 251.879 144.912C250.456 143.896 245.608 147.464 242.914 150.563C236.355 158.932 220.562 164.436 213.485 166.141C206.811 166.938 193.173 168.107 192.016 166.41C190.86 164.714 192.398 162.871 193.312 162.161C198.57 155.768 207.195 142.211 199.632 139.122C192.069 136.033 189.703 132.648 187.454 146.042C186.382 152.425 179.298 166.48 159.531 171.632C134.823 178.072 116.384 166.814 112.868 164.318C104.613 158.746 98.198 144.43 96.7844 140.276C94.3136 139.283 85.3183 137.666 84.0614 141.257C82.1735 148.474 92.0215 158.432 94.5495 159.937C97.2838 162.387 101.854 167.439 98.2606 168.042C70.975 173.823 51.1865 154.343 49.406 153.476C37.9869 148.328 38.1728 154.683 39.693 158.504L56.8215 174.266C52.4689 175.622 42.7703 178.272 38.582 177.47C26.8149 176.781 15.4803 169.56 12.5381 170.66C9.5958 171.76 2.9403 175.938 10.3394 181.721C48.0249 206.523 101.364 208.35 124.168 206.123C118.438 241.41 118.838 237.803 103.281 266.662Z" fill="#B49678"/>
<path d="M165.456 125.42C73.9144 121.332 20.9878 156.318 5.78172 176.407C46.4847 142.914 126.963 137.64 164.73 137.814C202.497 137.988 274.122 156.029 308.693 168.926C254.533 130.895 194.514 127.123 165.456 125.42Z" fill="#9C5C3F"/>
<path d="M150.401 360.059C146.3 395.743 176.959 417.681 188.307 421.089L185.387 403.835C183.969 395.454 178.897 388.434 176.689 386.483C174.317 383.988 168.377 378.553 163.724 376.482C159.071 374.411 154.635 364.817 150.401 360.059Z" fill="#5A7639"/>
<path d="M97.2235 412.892L94.9755 420.266L91.0375 419.251L94.6487 410.887C102.01 390.767 85.948 365.321 76.9967 355.114L21.8776 283.411C39.2048 288.424 76.1939 300.806 85.5325 310.227C94.8711 319.649 102.027 337.273 104.437 344.906C112.549 369.583 103.008 400.512 97.2235 412.892Z" fill="#5A7639"/>
<path d="M225.04 306.851C209.42 318.992 196.33 334.28 198.003 344.999L198.003 367.499C199.736 358.834 220.133 336.89 225.954 334.889C231.774 332.888 240.743 332.456 250.164 328.006C267.227 319.375 264.575 265.56 267.502 263.001C258.503 268.001 239 296 225.04 306.851Z" fill="#578324"/>
<path d="M251.573 330.531C262.821 336.87 262.343 340.232 262.142 341.605C261.221 347.879 249.087 351.223 243.381 352.795L243.206 352.843C214.117 360.863 157.226 349.624 145.591 347.524C133.955 345.424 126.103 342.034 120.865 339.314C117.477 337.555 115.327 334.913 115.068 333.927C114.713 331.667 115.667 327.992 120.865 325.853C128.156 323.486 133.47 318.82 135.215 316.784L157.226 295.59C160.555 292.726 168.61 286.349 174.195 283.752C193.821 274.129 210.428 279.743 216.278 283.752C219.833 286.012 226.091 291.814 232.172 302.399C236.341 310.991 243.234 321.748 251.573 330.531Z" fill="#BC643A" stroke="#C96F44" stroke-width="0.80166"/>
<path d="M133.42 332.101C190.28 312.123 231.064 330.076 244.348 341.55C233.332 350.035 210.475 350.485 200.423 349.649C198.871 356.128 202.944 366.361 205.174 370.668C217.973 395.448 219.038 417.428 214.87 421.866C210.012 427.04 194.221 427.22 187.045 423.17C172.85 415.688 176.505 370.122 178.897 345.889C151.436 342.803 137.137 335.411 133.42 332.101Z" fill="#E8D9C6" stroke="#E8D9C6" stroke-width="0.80166"/>
<path d="M200.256 350.071C201.637 363.434 201.637 362.002 206.864 373.17C171.58 382.671 185.317 417.127 184.641 420.73C184.307 422.515 170.748 403.662 176.19 370.285C176.19 364.655 177.768 352.33 178.36 346.826C161.711 345.909 143.486 338.076 136.713 334.704C129.529 331.363 137.963 329.458 140.88 331.363C150.428 335.104 154.48 333.622 155.039 332.126C155.236 331.745 155.422 329.528 154.097 328.786C148.791 325.813 154.031 326.527 154.492 326.208C155.05 325.858 156.405 325.464 157.352 326.686C159.64 329.969 165.472 332.381 168.103 333.176C170.601 333.622 175.717 334.36 176.19 333.749C176.664 333.138 176.125 332.413 175.796 332.126C173.955 329.613 169.716 323.474 172.635 322.481C175.555 321.489 177.217 321.753 178.36 326.208C178.623 328.627 180.984 334.054 188.322 336.422C197.495 339.381 204.695 335.563 206.075 334.704C209.311 332.795 210.875 328.213 211.5 326.686C211.007 324.659 215.347 325.311 215.742 326.686C216.294 329.435 214.065 332.954 213.078 333.463C211.993 334.322 210.159 336.116 211.5 336.422C221.659 339.19 229.55 332.317 230.24 332.031C234.659 330.351 234.448 332.731 233.791 334.131L226.985 339.667C228.596 340.271 232.213 341.966 233.791 341.432C237.503 341.432 242.233 338.629 243.062 339.476C243.855 340.286 245.647 341.371 244.167 342.994C229.412 351.47 208.804 351.407 200.256 350.071Z" fill="#C5A687" stroke="#C5A687" stroke-width="0.80166"/>
<path d="M186.961 320.077C220.914 320.554 239.736 333.783 244.926 341.638C230.594 328.206 200.936 324.466 186.961 323.702C172.985 322.939 146.097 328.123 133.029 332.193C153.889 319.142 176.174 320.077 186.961 320.077Z" fill="#A46C53" stroke="#A46C53" stroke-width="0.80166"/>
<path d="M197.924 373.439C203.119 390.195 212.171 422.262 204.287 425.235" stroke="#C5A687" stroke-opacity="0.5" stroke-width="3.20664" stroke-linecap="round"/>
<path d="M184.031 372.569C184.032 387.08 185.246 422.093 192.078 424.743" stroke="#C5A687" stroke-opacity="0.5" stroke-width="3.20664" stroke-linecap="round"/>
<path fill-rule="evenodd" clip-rule="evenodd" d="M179.269 281.127C196.645 274.658 210.942 279.653 216.281 283.312C219.837 285.572 226.095 291.374 232.175 301.959C234.853 307.478 238.655 313.89 243.242 320.099C236.051 323.405 214.989 316.42 201.024 305.803C188.157 296.022 179.127 287.228 179.269 281.127Z" fill="#DC7747" fill-opacity="0.7"/>
<path d="M171.295 287.577C172.331 289.371 175.496 289.483 178.364 287.827C181.233 286.171 183.649 283.972 182.613 282.178C181.577 280.384 177.482 279.674 174.614 281.331C171.745 282.987 170.259 285.783 171.295 287.577Z" fill="#E6D2BA"/>
<path d="M174.697 285.667C175.572 287.182 177.867 287.495 179.824 286.366C181.78 285.237 183.37 283.639 182.496 282.123C181.621 280.608 178.611 279.748 176.655 280.878C174.699 282.007 173.822 284.151 174.697 285.667Z" fill="#F6ECE0"/>
<path d="M187.788 305.39C187.728 301.004 192.216 297.387 197.811 297.31C203.406 297.234 208.339 302.999 208.399 307.385C208.459 311.77 203.624 313.115 198.029 313.192C192.433 313.269 187.848 309.776 187.788 305.39Z" fill="#E6D2BA"/>
<path d="M193.026 303.722C192.985 300.709 196.118 298.224 200.023 298.17C203.928 298.117 207.37 302.076 207.412 305.089C207.453 308.102 204.078 309.026 200.172 309.08C196.267 309.133 193.068 306.735 193.026 303.722Z" fill="#F6ECE0"/>
<path d="M145.286 316.065C143.682 313.675 144.855 310.079 147.905 308.033C150.955 305.988 155.733 307.393 157.336 309.784C158.939 312.174 156.761 314.645 153.711 316.69C150.661 318.736 146.889 318.456 145.286 316.065Z" fill="#E6D2BA"/>
<path d="M148.787 313.931C147.666 312.259 148.486 309.745 150.619 308.315C152.751 306.885 156.092 307.867 157.212 309.539C158.333 311.21 156.811 312.938 154.678 314.368C152.545 315.798 149.908 315.602 148.787 313.931Z" fill="#F6ECE0"/>
<path d="M221.932 290.915C223.02 289.459 225.733 289.648 227.992 291.337C230.251 293.026 230.763 296.426 229.675 297.881C228.587 299.337 226.311 298.297 224.052 296.608C221.793 294.919 220.844 292.371 221.932 290.915Z" fill="#E6D2BA"/>
<path d="M224.063 290.9C224.807 289.904 226.661 290.031 228.203 291.184C229.745 292.337 230.092 294.661 229.348 295.656C228.604 296.652 227.049 295.943 225.507 294.79C223.965 293.637 223.319 291.895 224.063 290.9Z" fill="#F6ECE0"/>
<path d="M240.641 319.134C241.622 317.822 244.066 317.992 246.102 319.514C248.137 321.035 248.598 324.099 247.618 325.411C246.637 326.722 244.586 325.785 242.551 324.263C240.516 322.742 239.661 320.445 240.641 319.134Z" fill="#E6D2BA"/>
<path d="M242.01 318.73C242.669 317.848 244.314 317.963 245.683 318.986C247.053 320.01 247.363 322.071 246.704 322.954C246.044 323.836 244.664 323.205 243.295 322.182C241.925 321.158 241.35 319.613 242.01 318.73Z" fill="#F6ECE0"/>
<path d="M137.019 316.318C136.039 315.006 133.594 315.176 131.558 316.698C129.523 318.22 129.062 321.283 130.042 322.595C131.023 323.906 133.074 322.969 135.109 321.448C137.144 319.926 137.999 317.629 137.019 316.318Z" fill="#E6D2BA"/>
<path d="M136.971 316.298C136.238 315.318 134.411 315.445 132.89 316.582C131.369 317.72 131.024 320.01 131.757 320.99C132.489 321.97 134.022 321.27 135.544 320.132C137.065 318.995 137.704 317.279 136.971 316.298Z" fill="#F6ECE0"/>
<path d="M96.43 404.606L97.4708 413.413L92.8589 414.126L92.7949 403.655C91.2464 379.065 62.5952 359.472 48.4632 352.748L-42.6434 302.004C-22.0989 299.443 22.5342 295.75 36.7107 301.467C50.8872 307.185 66.5554 322.555 72.6174 329.525C92.5484 351.912 96.7971 388.906 96.43 404.606Z" fill="#6E973D"/>
<path d="M161.769 398.199C179.026 393.109 185.201 411.265 189 420.371L191.5 434.999C186.036 429.105 179.855 419.155 174.391 420.371C168.928 421.587 161.769 425.516 152.349 426.546C135.016 427.968 123.712 427.138 120.227 426.546C126.883 419.217 144.511 403.288 161.769 398.199Z" fill="#75A142"/>
<g clip-path="url(#clip0_789_5810)">
<path d="M303.994 289.061C301.833 297.126 293.544 301.911 285.48 299.751C278.262 295.86 272.63 289.301 274.791 281.236C276.951 273.172 285.241 268.386 293.305 270.547C301.369 272.708 304.491 280.717 303.994 289.061Z" fill="#A0836F"/>
<path d="M303.994 289.061C301.833 297.126 293.544 301.911 285.48 299.751C278.262 295.86 272.63 289.301 274.791 281.236C276.951 273.172 285.241 268.386 293.305 270.547C301.369 272.708 304.491 280.717 303.994 289.061Z" stroke="#5F4B3D"/>
<path d="M284.561 292.546C275.055 280.602 284.958 272.93 291.815 270.344C269.586 270.479 273.08 293.168 282.146 296.685C286.433 300.444 294.067 304.491 284.561 292.546Z" fill="#846853"/>
<ellipse cx="290.081" cy="285.138" rx="8.21974" ry="8.69214" transform="rotate(15 290.081 285.138)" fill="#C6A195"/>
<path d="M285.729 277.528C277.764 281.525 281.303 291.22 285.274 293.63L290.038 289.332C283.6 284.147 292.221 274.27 285.729 277.528Z" fill="#B59084"/>
<path d="M342.241 298.918C340.08 306.982 344.906 315.282 353.021 317.457C361.265 317.709 369.466 314.856 371.627 306.792C373.787 298.728 368.961 290.428 360.846 288.253C352.731 286.079 345.993 291.446 342.241 298.918Z" fill="#A0836F"/>
<path d="M342.241 298.918C340.08 306.982 344.906 315.282 353.021 317.457C361.265 317.709 369.466 314.856 371.627 306.792C373.787 298.728 368.961 290.428 360.846 288.253C352.731 286.079 345.993 291.446 342.241 298.918Z" stroke="#5F4B3D"/>
<path d="M353.083 310.705C343.625 298.767 353.421 291.277 360.257 288.682C340.192 285.918 341.643 311.34 350.673 314.848C354.94 318.604 362.541 322.643 353.083 310.705Z" fill="#846853"/>
<ellipse cx="356.795" cy="303.013" rx="9.25901" ry="9.07006" transform="rotate(15 356.795 303.013)" fill="#C6A195"/>
<path d="M352.281 295.023C343.77 299.15 347.636 309.325 351.91 311.877L356.986 307.412C350.047 301.937 359.218 291.659 352.281 295.023Z" fill="#B59084"/>
<path d="M363.457 333.768C360.972 348.983 349.003 356.238 308.774 347.856C273.796 337.612 263.577 322.886 270.093 308.751C282.805 281.176 300.986 275.149 326.429 281.966C351.873 288.784 362.797 298.25 363.457 333.768Z" fill="#A0836F"/>
<path d="M363.457 333.768C360.972 348.983 349.003 356.238 308.774 347.856C273.796 337.612 263.577 322.886 270.093 308.751C282.805 281.176 300.986 275.149 326.429 281.966C351.873 288.784 362.797 298.25 363.457 333.768Z" stroke="#846853"/>
<path d="M307.826 279.72C307.776 279.72 307.726 279.72 307.676 279.72C305.564 279.771 300.651 281.565 294.531 287.919C286.693 296.056 279.445 312.546 278.281 316.89C277.192 320.955 277.118 325.291 281.808 331.34C286.362 337.212 312.625 351.141 347.466 350.24C324.455 354.093 296.279 343.93 282.789 336.612C269.3 329.295 268.041 319.374 268.848 313.927C269.655 308.48 276.645 296.196 284.944 287.964C291.516 281.446 302.734 279.758 307.676 279.72C307.727 279.719 307.777 279.719 307.826 279.72Z" fill="#846853"/>
<ellipse cx="313.611" cy="330.568" rx="10.7707" ry="9.44797" transform="rotate(15 313.611 330.568)" fill="#C6AA95"/>
<path d="M320.485 328.272C320.153 329.513 317.332 329.089 313.955 328.185C310.578 327.28 307.924 326.236 308.256 324.995C308.589 323.754 311.409 324.177 314.786 325.082C318.163 325.987 320.818 327.03 320.485 328.272Z" fill="#5F4B3D"/>
<path d="M333.109 321.315C335.151 320.681 339.944 320.312 342.782 323.907" stroke="#5F4B3D" stroke-width="2.55162" stroke-linecap="round"/>
<path d="M292.406 310.409C294.447 309.776 299.241 309.407 302.079 313.001" stroke="#5F4B3D" stroke-width="2.55162" stroke-linecap="round"/>
<path d="M317.206 334.662C315.421 334.183 312.643 333.439 314.551 326.321" stroke="#5F4B3D" stroke-width="2.55162" stroke-linecap="round"/>
<path d="M308.085 332.216C309.942 332.714 312.831 333.488 314.738 326.37" stroke="#5F4B3D" stroke-width="2.55162" stroke-linecap="round"/>
<ellipse cx="348.745" cy="335.971" rx="9.07006" ry="8.03078" transform="rotate(15 348.745 335.971)" fill="#CD9F99"/>
<ellipse cx="2.35853" cy="3.17543" rx="2.35853" ry="3.17543" transform="matrix(-0.635313 0.772255 0.772255 0.635313 303.754 303.38)" fill="#C6AA95"/>
<ellipse cx="333.145" cy="314.838" rx="2.35853" ry="3.17543" transform="rotate(80.5568 333.145 314.838)" fill="#C6AA95"/>
<ellipse cx="282.491" cy="318.218" rx="9.07006" ry="8.03078" transform="rotate(15 282.491 318.218)" fill="#CD9F99"/>
<path d="M281.002 310.092C279.705 313.295 277.188 320.721 278.318 325.023C268.795 318.776 275.295 310.085 281.002 310.092Z" fill="#C58D85"/>
<path d="M361.213 315.152C359.616 302.293 351.465 293.937 347.59 291.366L349.299 289.854C357.516 292.932 361.844 307.661 362.906 314.512L361.213 315.152Z" fill="#927763" fill-opacity="0.3"/>
<path d="M280.124 296.947C287.937 286.609 299.174 283.447 303.816 283.159L303.092 280.995C294.436 279.552 283.324 290.144 278.978 295.545L280.124 296.947Z" fill="#927763" fill-opacity="0.3"/>
<path d="M269.388 341.807C270.967 340.75 273.409 341.367 274.432 341.807L281.011 355.245C276.771 366.259 267.634 388.727 265.002 390.49C261.713 392.692 257.547 394.014 251.187 391.811C244.828 389.608 243.731 378.154 253.38 363.836C263.029 349.517 267.415 343.129 269.388 341.807Z" fill="#947A67"/>
<path d="M352.327 341.807C350.739 340.75 348.284 341.367 347.255 341.807L340.64 355.245C344.903 366.259 354.091 388.727 356.737 390.49C360.045 392.692 364.235 394.014 370.629 391.811C377.024 389.608 378.127 378.154 368.424 363.836C358.722 349.517 354.312 343.129 352.327 341.807Z" fill="#947A67"/>
<path d="M254.447 371.746C257.201 365.565 268.142 348.023 272.516 340.941C272.301 340.655 273.098 340.45 271.377 340.941C269.871 341.37 269.011 341.37 253.308 364.548C239.01 385.653 250.054 392.039 255.459 392.661C261.052 393.305 265.784 390.3 267.075 388.798C269.369 384.792 271.275 381.379 266.278 384.837C254.662 392.876 251.006 379.472 254.447 371.746Z" fill="#846853"/>
<rect x="272.516" y="338.329" width="76.4217" height="38.2108" fill="#947A67"/>
<path d="M263.933 395.63C267.635 376.914 270.439 370.424 270.153 369.207H351.628C351.342 370.424 355.126 376.746 357.848 395.63C361.317 419.69 351.664 429.786 348.232 434.727C347.573 435.677 334.075 439.668 317.344 435.801C316.314 434.083 314.627 423.7 314.341 421.838C312.11 422.182 307.763 421.981 307.262 421.838C306.976 423.7 304.002 434.083 302.972 435.801C285.383 439.883 275.06 435.531 274.229 434.727C268.008 428.712 259.428 418.401 263.933 395.63Z" fill="#947A67"/>
<rect x="265.566" y="364.961" width="89.3516" height="6.36847" fill="#947A67"/>
<path d="M341.217 385.514C341.217 411.207 327.566 418.611 310.726 418.611C293.886 418.611 280.234 412.078 280.234 385.514C280.234 367.235 293.886 352.417 310.726 352.417C327.566 352.417 341.217 367.235 341.217 385.514Z" fill="#BA9B87"/>
<path d="M263.275 399.89C265.894 384.013 270.291 369.806 270.792 364.434C271.078 360.781 272.381 360.136 273.584 360.136C275.087 360.136 274.443 365.508 270.792 386.997C267.141 408.485 275.302 423.097 279.812 426.965C285.074 431.477 297.037 433.992 304.553 430.768L302.792 435.345C286.04 439.428 275.946 435.345 274.872 434.701C273.799 434.056 259.624 422.023 263.275 399.89Z" fill="#846853"/>
<path d="M350.909 361.796C351.424 364.199 351.625 369.448 351.768 371.665L356.082 389.856C360.804 393.503 374.951 395.479 375.38 384.323C372.59 388.399 368.726 389.043 366.364 388.399C363.359 388.399 359.71 378.96 358.851 374.454C358.013 370.054 350.265 358.793 350.909 361.796Z" fill="#846853"/>
<path d="M318.155 435.611C316.598 435.313 315.503 427.982 315.359 425.985L315.79 425.558C317.008 429.55 321.467 435.953 351.061 429.622C350.373 430.82 348.409 433.971 347.62 434.755C332.995 438.819 323.747 436.68 318.155 435.611Z" fill="#846853"/>
<path d="M291.799 416.396C296.696 419.549 303.465 421.278 307.096 421.831C306.921 423.642 305.54 428.077 303.872 432.79C299.414 434.066 296.943 434.965 295.206 435C295.495 433.505 296.062 429.722 296.021 426.55C295.97 422.585 285.677 412.455 291.799 416.396Z" fill="#846853"/>
<path d="M331.895 417.966C326.766 420.579 318.218 421.629 314.584 421.827C314.584 423.609 315.589 428.064 316.786 432.816C321.06 434.479 325.056 435.588 326.766 435.786C326.624 434.301 326.424 430.559 326.766 427.47C327.193 423.609 338.307 414.699 331.895 417.966Z" fill="#846853"/>
<path d="M303.994 289.061C301.833 297.126 293.544 301.911 285.48 299.751C278.262 295.86 272.63 289.301 274.791 281.236C276.951 273.172 285.241 268.386 293.305 270.547C301.369 272.708 304.491 280.717 303.994 289.061Z" fill="#947A67"/>
<path d="M303.994 289.061C301.833 297.126 293.544 301.911 285.48 299.751C278.262 295.86 272.63 289.301 274.791 281.236C276.951 273.172 285.241 268.386 293.305 270.547C301.369 272.708 304.491 280.717 303.994 289.061Z" stroke="#5F4B3D"/>
<path d="M284.561 292.546C275.055 280.602 284.958 272.93 291.815 270.344C269.586 270.479 273.08 293.168 282.146 296.685C286.433 300.444 294.067 304.491 284.561 292.546Z" fill="#846853"/>
<ellipse cx="290.081" cy="285.138" rx="8.21974" ry="8.69214" transform="rotate(15 290.081 285.138)" fill="#C6A195"/>
<path d="M285.729 277.528C277.764 281.525 281.303 291.22 285.274 293.63L290.038 289.332C283.6 284.147 292.221 274.27 285.729 277.528Z" fill="#B59084"/>
<path d="M342.241 298.918C340.08 306.982 344.906 315.282 353.021 317.457C361.265 317.709 369.466 314.856 371.627 306.792C373.787 298.728 368.961 290.428 360.846 288.253C352.731 286.079 345.993 291.446 342.241 298.918Z" fill="#947A67"/>
<path d="M342.241 298.918C340.08 306.982 344.906 315.282 353.021 317.457C361.265 317.709 369.466 314.856 371.627 306.792C373.787 298.728 368.961 290.428 360.846 288.253C352.731 286.079 345.993 291.446 342.241 298.918Z" stroke="#5F4B3D"/>
<path d="M353.083 310.705C343.625 298.767 353.421 291.277 360.257 288.682C340.192 285.918 341.643 311.34 350.673 314.848C354.94 318.604 362.541 322.643 353.083 310.705Z" fill="#846853"/>
<ellipse cx="356.795" cy="303.013" rx="9.25901" ry="9.07006" transform="rotate(15 356.795 303.013)" fill="#C6A195"/>
<path d="M352.281 295.023C343.77 299.15 347.636 309.325 351.91 311.877L356.986 307.412C350.047 301.937 359.218 291.659 352.281 295.023Z" fill="#B59084"/>
<path d="M363.457 333.768C360.972 348.983 349.003 356.238 308.774 347.856C273.796 337.612 263.577 322.886 270.093 308.751C282.805 281.176 300.986 275.149 326.429 281.966C351.873 288.784 362.797 298.25 363.457 333.768Z" fill="#947A67"/>
<path d="M363.457 333.768C360.972 348.983 349.003 356.238 308.774 347.856C273.796 337.612 263.577 322.886 270.093 308.751C282.805 281.176 300.986 275.149 326.429 281.966C351.873 288.784 362.797 298.25 363.457 333.768Z" stroke="#846853"/>
<path d="M307.826 279.72C307.776 279.72 307.726 279.72 307.676 279.72C305.564 279.771 300.651 281.565 294.531 287.919C286.693 296.056 279.445 312.546 278.281 316.89C277.192 320.955 277.118 325.291 281.808 331.34C286.362 337.212 312.625 351.141 347.466 350.24C324.455 354.093 296.279 343.93 282.789 336.612C269.3 329.295 268.041 319.374 268.848 313.927C269.655 308.48 276.645 296.196 284.944 287.964C291.516 281.446 302.734 279.758 307.676 279.72C307.727 279.719 307.777 279.719 307.826 279.72Z" fill="#846853"/>
<ellipse cx="313.611" cy="330.568" rx="10.7707" ry="9.44797" transform="rotate(15 313.611 330.568)" fill="#C6AA95"/>
<path d="M320.485 328.272C320.153 329.513 317.332 329.089 313.955 328.185C310.578 327.28 307.924 326.236 308.256 324.995C308.589 323.754 311.409 324.177 314.786 325.082C318.163 325.987 320.818 327.03 320.485 328.272Z" fill="#5F4B3D"/>
<path d="M333.109 321.315C335.151 320.681 339.944 320.312 342.782 323.907" stroke="#5F4B3D" stroke-width="2.55162" stroke-linecap="round"/>
<path d="M292.406 310.409C294.447 309.776 299.241 309.407 302.079 313.001" stroke="#5F4B3D" stroke-width="2.55162" stroke-linecap="round"/>
<path d="M317.206 334.662C315.421 334.183 312.643 333.439 314.551 326.321" stroke="#5F4B3D" stroke-width="2.55162" stroke-linecap="round"/>
<path d="M308.085 332.216C309.942 332.714 312.831 333.488 314.738 326.37" stroke="#5F4B3D" stroke-width="2.55162" stroke-linecap="round"/>
<ellipse cx="348.745" cy="335.971" rx="9.07006" ry="8.03078" transform="rotate(15 348.745 335.971)" fill="#CD9F99"/>
<ellipse cx="2.35853" cy="3.17543" rx="2.35853" ry="3.17543" transform="matrix(-0.635313 0.772255 0.772255 0.635313 303.754 303.38)" fill="#C6AA95"/>
<ellipse cx="333.145" cy="314.838" rx="2.35853" ry="3.17543" transform="rotate(80.5568 333.145 314.838)" fill="#C6AA95"/>
<ellipse cx="282.491" cy="318.218" rx="9.07006" ry="8.03078" transform="rotate(15 282.491 318.218)" fill="#CD9F99"/>
<path d="M281.002 310.092C279.705 313.295 277.188 320.721 278.318 325.023C268.795 318.776 275.295 310.085 281.002 310.092Z" fill="#C58D85"/>
<path d="M361.213 315.152C359.616 302.293 351.465 293.937 347.59 291.366L349.299 289.854C357.516 292.932 361.844 307.661 362.906 314.512L361.213 315.152Z" fill="#927763" fill-opacity="0.3"/>
<path d="M280.124 296.947C287.937 286.609 299.174 283.447 303.816 283.159L303.092 280.995C294.436 279.552 283.324 290.144 278.978 295.545L280.124 296.947Z" fill="#927763" fill-opacity="0.3"/>
<path d="M279.752 335.055C275.669 334.148 271.152 338.741 269.404 341.151C265.954 346.207 260.445 354.59 266.001 347.672C271.558 340.754 284.855 338.836 290.809 338.741C288.824 337.891 283.834 335.963 279.752 335.055Z" fill="#846853"/>
</g>
<path d="M208.768 428.584L209.159 433.024L211.587 433.166L210.524 427.942C208.741 415.611 221.311 404.518 227.819 400.512L269 371C258.248 370.673 235.086 370.896 228.45 374.403C221.815 377.909 215.428 386.296 213.063 390.052C205.235 402.134 206.938 420.774 208.768 428.584Z" fill="#81B148"/>
<defs>
<linearGradient id="paint0_linear_789_5810" x1="159.643" y1="135.954" x2="143.597" y2="409.859" gradientUnits="userSpaceOnUse">
<stop stop-color="#E8D9C6"/>
<stop offset="1" stop-color="#E8D9C6"/>
</linearGradient>
<clipPath id="clip0_789_5810">
<rect width="184" height="276.709" fill="white" transform="translate(220 212.908)"/>
</clipPath>
</defs>
</svg>
