<svg width="1897" height="532" viewBox="0 0 1897 532" fill="none" xmlns="http://www.w3.org/2000/svg">
<path opacity="0.3" d="M1306.43 486.31C1177.35 491.275 1089.37 495.175 1060.41 506.257C1379.13 477 1432.32 513.795 1506.35 528.867C1580.38 543.938 1627.17 487.446 1725.34 465.474C2058.05 391 1446.07 367.954 1489.51 376.376C1532.95 384.799 1725.34 406.729 1684.05 436.5C1617.05 484.81 1467.79 480.104 1306.43 486.31Z" fill="url(#paint0_linear_119_734)"/>
<path d="M1317.84 355.438C1205.62 359.98 1080.15 369.851 1025.13 382.954C1013.85 384.366 745.944 385.574 711.216 420.517C673.834 458.128 1545.61 450.655 1551.92 420.517C1556.05 400.826 1458.11 349.76 1317.84 355.438Z" fill="url(#paint1_linear_119_734)"/>
<path d="M1330.83 297.681C1331.08 301.753 1330.96 307.776 1330.24 311.238C1332.17 320.571 1340.89 313.383 1343.62 312.781C1351.41 309.378 1352.62 302.852 1350.86 294.381C1343.91 279.171 1314.61 264.609 1311.83 263.419L1311.8 263.403C1308.91 262.168 1292.47 255.121 1279.97 265.356C1267.42 275.635 1242.6 295.72 1246.64 307.027C1250.67 318.334 1259.87 321.929 1264.92 319.171C1268.96 316.965 1269.36 309.336 1267.68 305.955C1283.48 271.948 1330.53 292.59 1330.83 297.681Z" fill="#A36B52" stroke="#A36B52" stroke-width="0.132359"/>
<path fill-rule="evenodd" clip-rule="evenodd" d="M1328.83 273.017C1342.88 284.058 1351.38 299.226 1334.76 304.411C1333.49 304.806 1332.2 305.178 1330.87 305.529C1331 302.829 1330.97 299.954 1330.84 297.684C1330.54 292.594 1283.49 271.952 1267.68 305.959C1268.31 307.231 1268.65 309.106 1268.61 311.068C1268.14 311.063 1267.69 311.057 1267.25 311.051C1248.11 310.799 1249.65 295.805 1263.75 279.238C1269.23 274.156 1274.98 269.445 1279.39 265.839C1279.59 265.677 1279.78 265.517 1279.98 265.36C1286.63 259.908 1294.41 259.36 1300.66 260.225C1300.89 260.355 1301.11 260.487 1301.33 260.618C1302.58 260.686 1303.89 260.864 1305.24 261.14C1308.47 261.979 1310.86 263.003 1311.8 263.407L1311.84 263.423C1313.17 263.995 1320.66 267.667 1328.83 273.017Z" fill="#BC856D"/>
<path d="M1316.35 270.701C1315.39 273.765 1318.58 277.495 1323.48 279.034C1328.38 280.572 1333.42 281.025 1334.38 277.961C1335.35 274.898 1331.86 269.478 1326.96 267.94C1322.07 266.402 1317.31 267.638 1316.35 270.701Z" fill="#E8D9C6"/>
<path d="M1262.71 282.155C1264.18 283.798 1263.24 287.03 1260.61 289.374C1257.98 291.717 1254.96 293.423 1253.49 291.779C1252.02 290.136 1252.67 285.765 1255.3 283.422C1257.93 281.078 1261.25 280.511 1262.71 282.155Z" fill="#E6D2BA"/>
<path d="M1261.24 281.916C1262.32 283.133 1261.63 285.526 1259.68 287.262C1257.74 288.997 1255.5 290.26 1254.41 289.043C1253.32 287.826 1253.8 284.59 1255.75 282.854C1257.7 281.119 1260.15 280.699 1261.24 281.916Z" fill="#F6ECE0"/>
<path d="M1299.02 275.067C1298.03 277.138 1303.8 278.729 1306.08 278.699C1311.02 278.842 1311.25 275.873 1309.34 274.165C1308.3 273.238 1304.49 271.11 1302.94 271.763C1300.5 272.791 1299.76 273.247 1299.02 275.067Z" fill="#E6D2BA"/>
<path d="M1299.33 274.604C1298.55 276.218 1303.05 277.457 1304.83 277.434C1308.68 277.545 1308.86 275.232 1307.37 273.901C1306.56 273.178 1303.59 271.52 1302.38 272.029C1300.48 272.83 1299.91 273.186 1299.33 274.604Z" fill="#F6ECE0"/>
<ellipse cx="2.91189" cy="1.9192" rx="2.91189" ry="1.9192" transform="matrix(-0.995197 0.0978935 0.0978935 0.995197 1296.2 263.32)" fill="#E6D2BA"/>
<ellipse cx="2.31628" cy="1.52213" rx="2.31628" ry="1.52213" transform="matrix(-0.995197 0.0978935 0.0978935 0.995197 1295.16 263.551)" fill="#F6ECE0"/>
<ellipse cx="8.60332" cy="5.88997" rx="8.60332" ry="5.88997" transform="matrix(-0.961597 0.274464 0.274464 0.961597 1289.25 269.73)" fill="#E8D9C6"/>
<ellipse cx="8.60332" cy="5.88997" rx="8.60332" ry="5.88997" transform="matrix(-0.961597 0.274464 0.274464 0.961597 1289.25 269.73)" fill="#E8D9C6"/>
<ellipse cx="8.60332" cy="5.88997" rx="8.60332" ry="5.88997" transform="matrix(-0.961597 0.274464 0.274464 0.961597 1289.25 269.73)" fill="#E6D2BA"/>
<ellipse cx="6.55478" cy="4.48751" rx="6.55478" ry="4.48751" transform="matrix(-0.961597 0.274464 0.274464 0.961597 1286.34 270.805)" fill="#F6ECE0"/>
<path d="M1267.93 276.424C1268.82 277.493 1271.04 277.114 1272.89 275.577C1274.75 274.04 1275.53 271.927 1274.64 270.858C1273.15 270.308 1271.54 270.168 1269.68 271.705C1267.83 273.242 1267.57 275.178 1267.93 276.424Z" fill="#E6D2BA"/>
<path d="M1267.97 275.608C1268.69 276.467 1270.47 276.162 1271.96 274.927C1273.45 273.691 1274.08 271.993 1273.37 271.134C1272.16 270.692 1270.87 270.58 1269.38 271.815C1267.89 273.051 1267.69 274.607 1267.97 275.608Z" fill="#F6ECE0"/>
<path d="M1339.9 290.726C1339.04 291.818 1339.88 293.909 1341.77 295.396C1343.67 296.883 1345.9 297.203 1346.76 296.111C1346.98 294.53 1346.77 292.927 1344.88 291.44C1342.99 289.953 1341.04 290.112 1339.9 290.726Z" fill="#E6D2BA"/>
<path d="M1339.89 290.561C1339.24 291.394 1339.88 292.99 1341.32 294.124C1342.77 295.259 1344.47 295.503 1345.12 294.669C1345.29 293.463 1345.14 292.24 1343.69 291.106C1342.25 289.971 1340.76 290.093 1339.89 290.561Z" fill="#F6ECE0"/>
<path d="M1316.35 270.701C1315.39 273.765 1318.58 277.495 1323.48 279.034C1328.38 280.572 1333.42 281.025 1334.38 277.961C1335.35 274.898 1331.86 269.478 1326.96 267.94C1322.07 266.402 1317.31 267.638 1316.35 270.701Z" fill="#E6D2BA"/>
<path d="M1317.39 269.728C1316.68 272.013 1319.06 274.795 1322.71 275.942C1326.36 277.089 1330.12 277.427 1330.84 275.142C1331.56 272.858 1328.96 268.816 1325.31 267.669C1321.66 266.522 1318.11 267.444 1317.39 269.728Z" fill="#F6ECE0"/>
<ellipse cx="2.05156" cy="2.44864" rx="2.05156" ry="2.44864" transform="matrix(-0.995197 0.0978935 0.0978935 0.995197 1255.86 304.789)" fill="#E8D9C6"/>
<ellipse cx="1.65449" cy="1.98538" rx="1.65449" ry="1.98538" transform="matrix(-0.995197 0.0978935 0.0978935 0.995197 1255.07 304.867)" fill="#F6ECE0"/>
<path d="M1330 294.271C1335.8 303.794 1339.16 318.371 1340.11 324.469C1345.76 318.123 1349.55 319.092 1350.74 320.369C1354.93 324.974 1347.47 333.753 1343.21 337.566C1342.95 348.263 1337.65 355.249 1335.03 357.405C1342.75 356.259 1344.79 362.961 1344.33 365.786C1341.3 372.069 1322.01 368.689 1317.85 365.082L1298.46 366.628C1294.08 374.147 1271.63 379.92 1271.07 372.795C1270.6 364.919 1277.02 363.889 1280.29 364.359C1270.76 360.179 1266.85 349.578 1265.88 343.769C1258.36 340.252 1253.49 330.766 1256.36 328.479C1258.66 326.65 1263.43 329.21 1264.57 330.491C1264.9 312.673 1269.02 301.036 1271.03 297.446C1288.27 292.42 1324.19 284.749 1330 294.271Z" fill="#CEB798"/>
<path d="M1271.84 304.258C1273.12 299.527 1319.11 293.082 1327.36 296.005C1346.8 326.797 1334.16 343.917 1324.66 351.22C1315.63 358.16 1295.82 359.576 1288.48 355.91C1263.42 343.396 1267.42 320.66 1271.84 304.258Z" fill="#E8D9C6"/>
<ellipse cx="3.04425" cy="4.36784" rx="3.04425" ry="4.36784" transform="matrix(-0.995197 0.0978935 0.0978935 0.995197 1318.43 309.535)" fill="#564035"/>
<ellipse cx="3.04425" cy="4.36784" rx="3.04425" ry="4.36784" transform="matrix(-0.995197 0.0978935 0.0978935 0.995197 1290.64 312.27)" fill="#564035"/>
<path d="M1307.16 320.707C1307.11 320.166 1306.47 319.903 1306.03 320.223C1303.31 322.213 1301.41 322.338 1298.68 320.984C1298.21 320.746 1297.63 321.116 1297.68 321.649V321.649C1297.7 321.863 1297.83 322.055 1298.02 322.157C1301.73 324.143 1303.76 323.93 1306.93 321.287C1307.1 321.145 1307.19 320.927 1307.16 320.707V320.707Z" fill="#70554A"/>
<path d="M1263.5 306.02C1285.09 274.104 1321.95 286.173 1337.67 296.197C1333.86 303.382 1326.58 298.53 1324.07 295.141C1316.06 299.653 1310.78 296.759 1308.48 294.813C1302.25 299.628 1295.29 299.103 1292.59 298.238C1291.68 300.881 1282.68 301.207 1278.3 301.04C1280.82 306.312 1261.09 309.316 1263.5 306.02Z" fill="#E8D8C8" stroke="#E8D9C6" stroke-width="0.132359"/>
<path d="M1315.48 286.888C1312.16 296.458 1294.05 307.017 1281.07 290.007" stroke="#D1BC9F" stroke-width="1.72066"/>
<path d="M1292.48 298.46C1288.98 302.129 1274.91 303.114 1272.71 295.551" stroke="#D1BC9F" stroke-width="1.72066"/>
<path d="M1278.56 301.02C1279.34 306.862 1262.1 308.691 1263.38 306.171" stroke="#D1BC9F" stroke-width="1.72066"/>
<path d="M1327.71 290.871C1324.88 298.597 1311.27 298.207 1308.62 294.877" stroke="#D1BC9F" stroke-width="1.72066"/>
<path d="M1337.66 296.074C1334.33 301.389 1326.06 299.143 1323.5 295.471" stroke="#D1BC9F" stroke-width="1.72066"/>
<path d="M1338.31 296.614C1319.49 281.642 1280.62 278.616 1262.33 307.014" stroke="#886653" stroke-width="0.926512" stroke-linecap="round"/>
<path d="M1326.13 358.722C1326.27 360.141 1332.98 363.501 1336.15 363.19C1339.31 362.879 1341.76 361.476 1341.62 360.058C1341.48 358.639 1339.41 356.485 1336.25 356.796C1332.86 356.863 1325.99 357.304 1326.13 358.722Z" fill="#E8D9C6"/>
<path d="M1287.22 365.43C1287.36 366.849 1280.98 368.903 1277.82 369.214C1274.66 369.526 1271.05 370.648 1270.91 369.229C1270.77 367.81 1273.64 365.237 1276.8 364.925C1280.13 364.331 1287.08 364.011 1287.22 365.43Z" fill="#E8D9C6"/>
<path d="M1346.57 326.081C1346.51 324.373 1348.84 321.224 1349.61 320.41C1351 318.039 1340.37 320.594 1336.35 321.992C1336.27 324.106 1336.44 328.309 1337.73 328.204C1339.02 328.099 1339.95 327.436 1340.26 327.118C1340.4 329.723 1341.27 332.563 1341.69 333.657C1343.34 331.843 1346.62 327.79 1346.57 326.081Z" fill="#E8D9C6" stroke="#E8D9C6" stroke-width="0.132359"/>
<path d="M1313.15 289.848C1308.57 293.17 1296.14 298.412 1284.43 292.672C1289.75 298.573 1302.93 306.269 1313.15 289.848Z" fill="#D1BC9F"/>
<path d="M1312.22 292.802C1317.59 295.766 1323.82 294.001 1326.15 292.597C1324.97 295.205 1320.01 299.499 1309.69 295.814L1312.22 292.802Z" fill="#D1BC9F"/>
<path d="M1326.49 293.973C1330.15 298.027 1335.46 297.605 1337.59 296.713C1336.12 299.032 1331.31 302.217 1323.86 296.405L1326.49 293.973Z" fill="#D1BC9F"/>
<path d="M1275.93 299.492C1273.64 304.448 1265.67 306.469 1263.36 306.25C1265.46 308.029 1273.76 308.796 1279.16 301.038L1275.93 299.492Z" fill="#D1BC9F"/>
<path d="M1289.08 295.737C1284.4 299.689 1277.94 299.173 1275.38 298.249C1277.05 300.576 1282.74 303.824 1292.15 298.197L1289.08 295.737Z" fill="#D1BC9F"/>
<path d="M1265.57 335.287C1267.88 333.358 1269.14 333.23 1270.06 334.247L1269.46 330.928L1267.04 329.903C1265.64 329.73 1262.27 329.081 1259.95 328.193C1257.63 327.304 1256.39 328.529 1256.01 329.378C1255.57 330.938 1265.66 338.218 1266.42 337.877C1267.04 337.604 1266.62 336.979 1265.57 335.287Z" fill="#E8D9C6" stroke="#E8D9C6" stroke-width="0.132359"/>
<ellipse cx="10.4563" cy="8.14007" rx="10.4563" ry="8.14007" transform="matrix(-0.995197 0.0978935 0.0978935 0.995197 1341.72 309.645)" fill="#DAAA93"/>
<ellipse cx="10.4563" cy="8.14007" rx="10.4563" ry="8.14007" transform="matrix(-0.995197 0.0978935 0.0978935 0.995197 1278.76 315.836)" fill="#DAAA93"/>
<path d="M1437.96 284.66C1446.66 331.218 1425.65 362.181 1414.06 371.842L1406.12 358.453C1407.9 346.829 1411.67 336.848 1413.36 333.348C1415.01 329.088 1419.5 319.442 1423.96 314.634C1428.41 309.826 1435.15 292.648 1437.96 284.66Z" fill="#4D7B37" stroke="#4D7B37" stroke-width="0.139363"/>
<path fill-rule="evenodd" clip-rule="evenodd" d="M1464.69 356.02C1430.75 347.863 1415.05 358.077 1409.22 369.186L1408.8 368.21C1410.12 358.944 1415.98 343.247 1431.54 344.103C1443.02 344.735 1455.88 350.772 1464.69 356.02Z" fill="#7CA34F"/>
<path d="M1206.88 224.864C1213.02 233.921 1253.5 224.279 1272.97 218.326C1275.79 216.147 1285.03 211.246 1299.44 209.078C1320.27 206.367 1321.84 194.886 1325.28 191.537C1351.47 168.065 1377.75 170.17 1387.62 174.157C1376.66 145.614 1352.07 140.192 1331.86 136.844C1311.66 133.495 1290.2 148.963 1284.41 151.035C1279.77 152.694 1274.85 152.789 1272.97 152.63C1251.2 158.689 1251.05 159.008 1230.84 173.519C1210.64 188.029 1204.37 210.353 1199.52 216.891C1195.63 222.121 1201.97 223.11 1205.63 222.95L1206.88 224.864Z" fill="url(#paint2_linear_119_734)" stroke="#C2DE93" stroke-width="0.31324"/>
<path d="M1373.36 172.882C1325.6 144.657 1260.6 225.502 1220.66 214.021C1222.59 218.98 1237.88 222.453 1283.42 197.906C1328.96 173.359 1346.44 176.004 1354.35 178.69L1373.36 172.882Z" fill="#8FB95C"/>
<path d="M1357.7 226.778C1372.86 290.433 1367.02 366.516 1360.7 384.057H1376.16C1381.55 356.758 1373.15 263.453 1368.66 226.778C1369.76 207.164 1402.34 215.616 1416.59 210.035C1427.99 205.57 1425.31 197.863 1422.54 194.567C1417.95 190.794 1403.93 181.269 1384.64 173.36C1360.52 163.473 1328.1 188.827 1325.91 191.219C1323.71 193.611 1317.29 206.367 1300.69 208.759C1284.9 211.438 1275.63 216.147 1272.97 218.167C1299.54 213.808 1353.69 209.429 1357.7 226.778Z" fill="#698C3D" stroke="#769A49" stroke-width="0.31324"/>
<path fill-rule="evenodd" clip-rule="evenodd" d="M1402.58 181.957C1400.86 190.241 1391.92 200.525 1365.31 205.659C1338.68 210.8 1340.35 210.912 1347.27 211.376C1352.45 211.724 1360.57 212.269 1361.97 215.268C1369.47 231.434 1376.98 333.741 1369.42 366.996L1375.5 371.102C1380.89 343.803 1373.25 263.628 1368.77 226.953C1369.49 213.911 1384.14 213.278 1398.07 212.677C1405.08 212.375 1411.92 212.08 1416.69 210.21C1428.09 205.745 1425.41 198.038 1422.64 194.743C1419.63 192.265 1412.55 187.308 1402.58 181.957Z" fill="#4D7B37"/>
<path d="M1380 383.821L1380.22 388.195L1378.08 389.255L1378.36 383.878C1378.38 371.464 1365.77 365.692 1359.47 364.357L1319.05 351.949C1328.58 347.544 1349.22 338.937 1355.58 339.747C1361.93 340.558 1368.69 346.108 1371.27 348.782C1379.78 357.301 1380.64 375.691 1380 383.821Z" fill="#97C65F" stroke="#97C65F" stroke-width="0.136635"/>
<path fill-rule="evenodd" clip-rule="evenodd" d="M1378.38 373.855C1373.51 362.887 1359.32 341.483 1341.54 343.61C1340.46 343.74 1339.5 343.805 1338.66 343.814C1345.75 341.24 1352.43 339.322 1355.58 339.724C1361.93 340.534 1368.69 346.085 1371.27 348.759C1379.78 357.278 1380.64 375.668 1380.01 383.798L1380.23 388.171L1378.38 389.087V373.855Z" fill="#769A49"/>
<path d="M1251.13 100.658C1274.68 102.757 1301.9 94.418 1312.56 89.9859C1315.34 82.0081 1337.17 75.6399 1350.45 72.8407C1359.81 70.3913 1363.7 66.6474 1367.21 60.769C1385.2 28.5779 1413.04 31.7271 1424.72 37.3255C1405.09 4.08471 1389.39 4.43458 1367.21 0.58565C1345.02 -3.26328 1328.72 13.0072 1324.04 15.9814C1319.36 18.9556 1304.41 19.8303 1300.94 20.3552C1297.47 20.88 1285.09 22.9794 1267.28 42.574C1241.92 68.8867 1237.29 97.9753 1238.15 109.231C1240.11 100.133 1248.56 100.658 1251.13 100.658Z" fill="url(#paint3_linear_119_734)"/>
<path d="M1254.22 89.4358C1318.37 28.5525 1378.51 26.5115 1400.55 34.8168L1395.32 40.8861C1376.49 35.9884 1317.93 38.0742 1254.22 89.4358Z" fill="#6DB492"/>
<path d="M1393.47 99.7806C1407.84 172.56 1396.4 340.392 1390.41 358.296H1407.53C1414.41 341.221 1407.96 139.844 1403.28 98.2058C1407.06 88.7584 1409.62 88.5835 1412.04 86.659C1427.58 77.5615 1445.7 83.8598 1450.23 80.3608C1475.43 62.8656 1450.92 42.0467 1432.2 42.0467C1409.41 15.804 1377.02 43.621 1372.04 51.8437C1367.06 60.0665 1366.75 67.0645 1350.15 72.8379C1318.27 80.8157 1312.01 87.2423 1312.87 89.4584C1327.81 83.1602 1387.89 80.8858 1393.47 99.7806Z" fill="#71B889"/>
<path fill-rule="evenodd" clip-rule="evenodd" d="M1443.34 44.7191C1442.01 51.6541 1435.69 64.2684 1418.98 66.9306C1396.94 70.4441 1398.32 102.066 1399.42 107.496C1400.5 112.845 1409.61 183.277 1404.88 358.784H1407.5C1414.38 341.709 1407.93 140.333 1403.25 98.6941C1406.35 90.9387 1408.63 89.4318 1410.69 88.0762C1411.14 87.7805 1411.57 87.492 1412.01 87.1473C1421.62 81.5216 1432.22 81.7831 1439.97 81.9746C1444.76 82.0928 1448.47 82.1843 1450.19 80.849C1470.5 66.7559 1458.54 50.5059 1443.34 44.7191Z" fill="#48926E"/>
<path d="M1501.87 277.659C1498.25 283.384 1474.39 277.29 1462.91 273.528C1461.25 272.15 1455.8 269.053 1447.31 267.682C1435.03 265.969 1434.11 258.713 1432.08 256.597C1416.65 241.762 1401.16 243.092 1395.34 245.612C1401.8 227.572 1416.3 224.146 1428.2 222.029C1440.11 219.913 1452.76 229.688 1456.17 230.999C1458.91 232.047 1461.8 232.107 1462.91 232.006C1475.74 235.836 1475.83 236.038 1487.74 245.208C1499.65 254.379 1503.34 268.489 1506.2 272.62C1508.49 275.926 1504.76 276.551 1502.6 276.45L1501.87 277.659Z" fill="url(#paint4_linear_119_734)" stroke="#C2DE93" stroke-width="0.184619"/>
<path d="M1409.46 244.973C1439.17 226.104 1479.6 280.149 1504.44 272.474C1503.24 275.789 1493.73 278.111 1465.4 261.702C1437.07 245.292 1426.21 247.06 1421.28 248.855L1409.46 244.973Z" fill="#8FB95C"/>
<path d="M1412.97 278.865C1404.04 319.096 1409.25 358.883 1412.97 369.969H1402.54C1399.36 352.716 1403.86 302.044 1406.51 278.865C1405.86 266.469 1386.66 271.81 1378.26 268.283C1371.54 265.461 1373.12 260.59 1374.75 258.507C1377.46 256.122 1385.72 250.102 1397.09 245.104C1411.31 238.855 1430.42 254.879 1431.71 256.391C1433 257.903 1436.79 265.965 1446.57 267.477C1455.88 269.17 1461.34 272.146 1462.91 273.423C1447.25 270.668 1415.33 267.9 1412.97 278.865Z" fill="#769A49" stroke="#769A49" stroke-width="0.184619"/>
<path fill-rule="evenodd" clip-rule="evenodd" d="M1386.97 250.922C1387.97 256.082 1393.17 262.488 1408.62 265.686C1424.09 268.888 1423.12 268.958 1419.1 269.247C1416.09 269.463 1411.37 269.803 1410.56 271.671C1406.2 281.74 1401.84 345.461 1406.23 366.175L1402.7 368.732C1399.57 351.728 1404.01 301.791 1406.62 278.948C1406.19 270.824 1397.68 270.431 1389.59 270.056C1385.52 269.868 1381.55 269.684 1378.78 268.52C1372.16 265.739 1373.71 260.938 1375.32 258.886C1377.07 257.343 1381.18 254.255 1386.97 250.922Z" fill="#688C3B"/>
<path d="M1232.05 127.404C1231.58 133.311 1234.65 134.501 1238.53 134.809C1242.41 135.118 1246 134.153 1246.47 128.246C1246.93 122.339 1244.11 113.727 1240.23 113.418C1236.35 113.11 1232.52 121.497 1232.05 127.404Z" fill="#69C1B1"/>
<path fill-rule="evenodd" clip-rule="evenodd" d="M1237.25 116.619C1237.28 116.62 1237.32 116.622 1237.35 116.624C1240.69 116.89 1243.11 124.514 1242.69 129.748C1242.55 131.503 1242.11 132.766 1241.46 133.66C1243.69 133.244 1245.43 131.756 1245.73 127.92C1246.15 122.686 1243.73 115.062 1240.39 114.796C1239.31 114.71 1238.23 115.429 1237.25 116.619Z" fill="#59AF9F"/>
<path d="M1243.13 129.017C1243.13 131.826 1240.95 134.104 1238.26 134.104C1235.57 134.104 1233.39 131.826 1233.39 129.017C1233.39 126.208 1235.57 127.927 1238.26 127.927C1240.95 127.927 1243.13 126.208 1243.13 129.017Z" fill="#91CEBC"/>
<path d="M1233.43 127.805C1233.05 124.612 1235.29 119.884 1236.64 117.282C1236.83 116.902 1237.08 116.544 1237.35 116.216C1238.75 114.543 1238.19 115.275 1237.89 116.33C1237.58 117.478 1235.66 122.45 1236.3 124.362C1238.7 131.553 1233.75 130.482 1233.43 127.805Z" fill="#CEE1CC"/>
<path opacity="0.3" d="M929.047 383.501C512.453 404.136 498.072 458.608 1119.68 460.467C1124.03 460.321 1127.66 460.336 1130.51 460.494C1126.88 460.487 1123.27 460.478 1119.68 460.467C1091.63 461.41 1033.53 469.056 958.717 488.343C850.686 516.192 306.467 463.633 434.398 420.094C536.744 385.264 880.175 382.847 929.047 383.501Z" fill="url(#paint5_linear_119_734)"/>
<path d="M1.03601 429.805C0.0348067 487.157 452.043 499.403 553.356 496.945C302.736 490.192 39.1062 450.761 149.772 432.437C316.732 404.792 388.999 436.669 426.984 406.742C442.064 394.861 740.613 380.841 751.069 378.051C546.279 368.053 2.03721 372.454 1.03601 429.805Z" fill="#59B8C5" fill-opacity="0.15"/>
<path d="M1865.55 380.498C1842.05 370.997 1637.88 373.497 1571.05 375.997C1714.25 375.997 1856.55 401.498 1889.55 411.998C1899.38 403.998 1905.61 396.698 1865.55 380.498Z" fill="#59B8C5" fill-opacity="0.15"/>
<defs>
<linearGradient id="paint0_linear_119_734" x1="1411.61" y1="375.328" x2="1412.05" y2="588" gradientUnits="userSpaceOnUse">
<stop stop-color="#59B8C5"/>
<stop offset="1" stop-color="#59B8C5" stop-opacity="0"/>
</linearGradient>
<linearGradient id="paint1_linear_119_734" x1="1131.05" y1="408.705" x2="1131.05" y2="446" gradientUnits="userSpaceOnUse">
<stop stop-color="#7FA751"/>
<stop offset="1" stop-color="#437929"/>
</linearGradient>
<linearGradient id="paint2_linear_119_734" x1="1212.49" y1="199.146" x2="1363.63" y2="150.83" gradientUnits="userSpaceOnUse">
<stop offset="0.364583" stop-color="#B5D67D"/>
<stop offset="1" stop-color="#D8EAA9"/>
</linearGradient>
<linearGradient id="paint3_linear_119_734" x1="1379.06" y1="5.11061" x2="1272.89" y2="68.0453" gradientUnits="userSpaceOnUse">
<stop stop-color="#ACE2CF"/>
<stop offset="1" stop-color="#B0E0AB"/>
</linearGradient>
<linearGradient id="paint4_linear_119_734" x1="1434.72" y1="221.672" x2="1478.52" y2="255.663" gradientUnits="userSpaceOnUse">
<stop stop-color="#B5D67E"/>
<stop offset="1" stop-color="#C2DE93"/>
</linearGradient>
<linearGradient id="paint5_linear_119_734" x1="772.779" y1="383.418" x2="773.047" y2="527" gradientUnits="userSpaceOnUse">
<stop stop-color="#59B8C5"/>
<stop offset="1" stop-color="#59B8C5" stop-opacity="0"/>
</linearGradient>
</defs>
</svg>
