<svg width="659" height="615" viewBox="0 0 659 615" fill="none" xmlns="http://www.w3.org/2000/svg">
<path d="M417.153 418.224C428.03 495.939 387.054 544.624 365.207 559.252L352.284 536.293C356.685 517.333 364.488 501.303 367.898 495.724C371.302 488.887 380.358 473.488 388.876 466.062C397.394 458.636 411.276 431.076 417.153 418.224Z" fill="#5A7639" fill-opacity="0.8"/>
<path d="M617.254 406.383C491.253 449.157 442.177 540.606 433.389 580.984L476.678 581.483C503.012 561.502 522.725 539.088 529.152 530.348C537.513 520.685 555.474 497.043 561.543 480.026C567.611 463.009 601.212 423.84 617.254 406.383Z" fill="#5A7639" fill-opacity="0.8"/>
<path d="M399.347 477.181C398.925 526.733 428.583 553.846 443.465 561.209L449.669 545.772C445.354 534.263 439.151 524.867 436.557 521.655C433.864 517.654 426.928 508.757 420.984 504.808C415.04 500.859 404.082 484.744 399.347 477.181Z" fill="#678840" stroke="#678840"/>
<path d="M517.5 203.356C560.039 227.33 558.234 240.046 557.472 245.238C553.988 268.967 508.101 281.611 486.518 287.559L485.858 287.74C375.845 318.068 160.689 275.566 116.684 267.623C72.6785 259.68 42.983 246.859 23.1724 236.573C10.3609 229.92 2.22827 219.93 1.25037 216.199C-0.0942383 207.654 3.51666 193.753 23.1724 185.665C50.7492 176.711 70.845 159.068 77.4458 151.366L160.689 71.2134C173.28 60.382 203.741 36.264 224.864 26.4435C299.087 -9.95001 361.892 11.2795 384.017 26.4435C397.463 34.9883 421.131 56.9337 444.127 96.9629C459.895 129.457 485.963 170.14 517.5 203.356Z" fill="#C16134" stroke="#BD7350"/>
<path d="M70.6475 209.294C285.687 133.739 439.926 201.636 490.166 245.029C448.508 277.118 362.061 278.819 324.046 275.659C318.178 300.163 333.58 338.864 342.014 355.152C386.511 449.698 392.428 532.148 376.666 548.931C358.291 568.497 300.59 569.026 273.454 553.711C219.767 525.414 233.59 353.086 242.635 261.438C138.783 249.769 84.7048 221.813 70.6475 209.294Z" fill="#E8D9C6" stroke="#E8D9C6"/>
<path d="M314.616 365.63C334.263 429 368.496 550.277 338.678 561.518" stroke="#C5A687" stroke-opacity="0.5" stroke-width="4" stroke-linecap="round"/>
<path d="M262.064 362.341C262.066 417.22 266.658 549.637 292.495 559.656" stroke="#C5A687" stroke-opacity="0.5" stroke-width="4" stroke-linecap="round"/>
<path fill-rule="evenodd" clip-rule="evenodd" d="M267.708 114.523C203.397 143.495 114.503 153.12 103.037 127.669C102.937 127.447 102.843 127.223 102.754 126.997L160.689 71.2134C173.28 60.382 203.741 36.264 224.864 26.4435C282.517 -1.82545 333.281 4.67264 363.442 16.0895C374.738 41.5574 331.929 85.5922 267.708 114.523Z" fill="#DC7747"/>
<path d="M186.927 67.7377C194.313 80.5308 216.883 81.3278 237.339 69.5179C257.794 57.7079 275.022 42.0266 267.636 29.2336C260.25 16.4405 231.047 11.3801 210.592 23.19C190.136 35 179.541 54.9447 186.927 67.7377Z" fill="#E6D2BA"/>
<path d="M190.729 56.4769C196.968 67.2842 213.335 69.5164 227.284 61.4626C241.234 53.4089 252.578 42.0147 246.338 31.2074C240.099 20.4002 218.638 14.2722 204.689 22.326C190.739 30.3798 184.489 45.6696 190.729 56.4769Z" fill="#F6ECE0"/>
<path d="M437.346 139.221C430.916 150.359 438.123 166.559 453.443 175.404C468.764 184.25 485.689 189.029 492.12 177.89C498.55 166.752 492.051 143.915 476.731 135.07C461.41 126.224 443.777 128.083 437.346 139.221Z" fill="#E6D2BA"/>
<path d="M438.541 137.498C433.854 145.615 439.107 157.421 450.272 163.867C461.438 170.314 473.772 173.796 478.459 165.679C483.145 157.562 478.409 140.919 467.243 134.472C456.078 128.026 443.227 129.38 438.541 137.498Z" fill="#F6ECE0"/>
<path d="M309.519 91.6513C309.292 75.0654 326.262 61.3848 347.423 61.0949C368.585 60.805 387.239 82.6098 387.466 99.1957C387.694 115.782 369.408 120.868 348.246 121.158C327.085 121.448 309.746 108.237 309.519 91.6513Z" fill="#E6D2BA"/>
<path d="M312.004 84.5551C311.848 73.1616 323.695 63.7612 338.465 63.5589C353.235 63.3565 366.252 78.3324 366.408 89.7259C366.564 101.12 353.8 104.616 339.03 104.819C324.26 105.021 312.16 95.9487 312.004 84.5551Z" fill="#F6ECE0"/>
<path d="M132.167 142.001C126.104 132.96 130.54 119.36 142.075 111.624C153.61 103.888 171.677 109.203 177.74 118.244C183.803 127.285 175.567 136.629 164.031 144.365C152.496 152.1 138.23 151.042 132.167 142.001Z" fill="#E6D2BA"/>
<path d="M132.803 133.926C128.564 127.605 131.665 118.096 139.731 112.687C147.796 107.278 160.428 110.994 164.668 117.315C168.907 123.637 163.148 130.17 155.083 135.579C147.017 140.988 137.042 140.248 132.803 133.926Z" fill="#F6ECE0"/>
<path d="M405.399 53.5334C409.514 48.0285 419.776 48.743 428.319 55.1293C436.861 61.5156 438.797 74.3745 434.682 79.8795C430.567 85.3844 421.959 81.4506 413.416 75.0644C404.873 68.6781 401.284 59.0384 405.399 53.5334Z" fill="#E6D2BA"/>
<path d="M405.589 53.4758C408.404 49.7103 415.414 50.192 421.246 54.5518C427.077 58.9116 428.392 67.7 425.577 71.4654C422.762 75.2309 416.884 72.5476 411.052 68.1878C405.22 63.8281 402.774 57.2413 405.589 53.4758Z" fill="#F6ECE0"/>
<path d="M515.248 205.134C518.956 200.174 528.201 200.817 535.899 206.572C543.596 212.326 545.341 223.912 541.633 228.872C537.925 233.833 530.168 230.288 522.471 224.534C514.773 218.78 511.539 210.094 515.248 205.134Z" fill="#E6D2BA"/>
<path d="M514.894 205.182C517.388 201.845 523.609 202.278 528.788 206.149C533.967 210.021 535.141 217.816 532.646 221.154C530.151 224.491 524.932 222.106 519.754 218.235C514.575 214.363 512.399 208.519 514.894 205.182Z" fill="#F6ECE0"/>
<path d="M255.995 116.641C254.81 110.563 247.724 106.829 240.167 108.302C232.61 109.775 227.633 119.135 228.817 125.214C230.002 131.293 236.901 131.787 244.458 130.314C252.014 128.841 257.179 122.72 255.995 116.641Z" fill="#E6D2BA"/>
<path d="M250.527 114.833C249.559 109.865 243.767 106.813 237.59 108.017C231.414 109.221 227.345 116.872 228.314 121.84C229.282 126.808 234.921 127.213 241.097 126.009C247.274 124.805 251.495 119.801 250.527 114.833Z" fill="#F6ECE0"/>
<path d="M346.448 364.552C402.252 499.709 387.932 546.132 369.874 553.698C363.648 558.022 363.294 557.661 367.32 553.698C386.354 533.162 371.339 463.629 352.305 421.116C337.078 387.106 267.63 363.46 235.663 355.654C235.663 333.29 238.47 285.892 240.666 265.116C178.88 261.657 93.5274 231.15 70.2943 209.633C77.7762 204.373 85.1759 201.563 101.574 206.751C137.006 220.873 150.012 213.115 152.086 207.471C152.818 206.03 153.55 201.923 150.622 197.023C147.694 192.123 148.914 181.553 150.622 180.352C152.696 179.031 159.187 184.485 162.701 189.097C171.193 201.491 192.838 210.594 202.599 213.596C211.871 215.277 230.856 218.063 232.613 215.758C234.37 213.452 232.369 210.714 231.149 209.633C224.316 200.145 213.36 180.234 224.194 176.487C235.029 172.74 238.618 168.145 240.666 187.296C241.642 196.423 250.402 216.91 277.635 225.845C311.676 237.014 338.396 222.603 343.52 219.36C355.526 212.155 365.675 192.417 367.993 186.653C371.531 185.452 384.249 183.909 385.713 189.097C387.763 199.473 373.169 212.755 369.508 214.677C365.482 217.919 358.674 224.692 363.652 225.845C401.353 236.293 430.636 210.353 433.198 209.272C449.596 202.932 448.815 211.914 446.375 217.199L421.119 238.095C427.097 240.376 440.449 244.932 446.375 244.145C462.895 244.145 479.344 234.861 483.371 236.663C487.397 238.464 496.366 244.932 485.54 252.506C430.782 284.499 356.006 282.66 324.284 277.616C329.408 328.055 327.049 322.4 346.448 364.552Z" fill="#C5A687" stroke="#C5A687"/>
<path d="M273.13 159.007C401.54 160.811 472.722 215.656 492.35 245.362C438.148 194.562 325.984 180.417 273.13 177.531C220.276 174.645 118.589 194.249 69.1639 209.643C148.055 160.286 232.337 159.007 273.13 159.007Z" fill="#89553F"/>
<path d="M356.175 378.185C332.718 391.396 333.714 398.403 334.134 401.264C336.055 414.34 361.359 421.308 373.26 424.585L373.624 424.685C434.289 441.398 552.932 417.976 577.198 413.599C601.464 409.222 617.839 402.158 628.763 396.489C635.828 392.823 640.313 387.318 640.852 385.262C641.593 380.553 639.602 372.893 628.763 368.436C613.557 363.502 602.475 353.78 598.835 349.535L552.932 305.367C545.989 299.398 529.192 286.108 517.544 280.696C476.616 260.641 441.983 272.34 429.782 280.696C422.368 285.405 409.316 297.498 396.636 319.556C387.941 337.462 373.566 359.881 356.175 378.185Z" fill="#C16134" stroke="#C16134"/>
<path d="M602.99 381.309C484.583 339.754 399.654 377.097 371.99 400.963C394.929 418.612 442.529 419.548 463.461 417.81C466.692 431.287 458.211 452.573 453.567 461.531C426.913 513.074 424.696 558.795 433.375 568.026C443.493 578.787 476.377 579.161 491.319 570.738C520.88 555.175 513.269 460.395 508.288 409.988C565.473 403.571 595.25 388.195 602.99 381.309Z" fill="#E8D9C6" stroke="#E8D9C6"/>
<path d="M463.68 419.115C460.803 446.966 460.803 443.982 449.909 467.257C523.441 487.059 494.813 558.871 496.221 566.38C496.918 570.1 525.174 530.808 513.832 461.245C513.832 449.511 510.544 423.823 509.31 412.351C544.006 410.441 581.987 394.115 596.101 387.086C611.073 380.123 593.497 376.153 587.416 380.123C567.52 387.921 559.076 384.831 557.911 381.715C557.5 380.919 557.112 376.299 559.873 374.752C570.93 368.557 560.01 370.044 559.051 369.381C557.887 368.651 555.064 367.829 553.091 370.375C548.322 377.219 536.168 382.245 530.687 383.903C525.48 384.831 514.819 386.37 513.832 385.097C512.846 383.823 513.969 382.311 514.654 381.715C518.491 376.476 527.325 363.682 521.241 361.613C515.157 359.544 511.694 360.094 509.31 369.381C508.762 374.42 503.843 385.733 488.551 390.667C469.435 396.834 454.431 388.876 451.553 387.086C444.812 383.107 441.55 373.558 440.249 370.375C441.276 366.152 432.231 367.511 431.409 370.375C430.258 376.105 434.904 383.439 436.96 384.5C439.221 386.29 443.044 390.03 440.249 390.667C419.078 396.436 402.634 382.113 401.196 381.516C391.987 378.014 392.426 382.975 393.796 385.892L407.979 397.431C404.621 398.69 397.085 402.223 393.796 401.109C386.059 401.109 376.203 395.267 374.475 397.033C372.823 398.722 369.089 400.982 372.172 404.364C402.921 422.029 445.867 421.9 463.68 419.115Z" fill="#C5A687" stroke="#C5A687"/>
<path d="M491.207 356.653C420.203 357.648 380.844 385.24 369.99 401.623C399.961 373.607 461.982 365.806 491.207 364.215C520.433 362.623 576.661 373.434 603.99 381.924C560.368 354.704 513.764 356.653 491.207 356.653Z" fill="#9C593B" stroke="#9C593B"/>
<path d="M467.99 467.623C457.555 502.561 439.372 569.425 455.209 575.623" stroke="#C5A687" stroke-opacity="0.5" stroke-width="4" stroke-linecap="round"/>
<path d="M496.99 465.623C496.989 495.939 494.424 569.088 479.99 574.623" stroke="#C5A687" stroke-opacity="0.5" stroke-width="4" stroke-linecap="round"/>
<path fill-rule="evenodd" clip-rule="evenodd" d="M507.158 275.107C470.961 261.633 441.176 272.039 430.053 279.663C422.645 284.37 409.606 296.46 396.937 318.513C391.357 330.013 383.435 343.374 373.877 356.311C388.867 363.192 432.741 348.639 461.833 326.523C488.642 306.141 507.457 287.817 507.158 275.107Z" fill="#DC7747"/>
<path d="M523.776 288.549C521.618 292.287 515.024 292.519 509.048 289.069C503.071 285.618 498.038 281.037 500.196 277.299C502.354 273.561 510.886 272.083 516.862 275.533C522.839 278.984 525.934 284.811 523.776 288.549Z" fill="#E6D2BA"/>
<path d="M516.683 284.569C514.86 287.726 510.078 288.378 506.003 286.025C501.927 283.672 498.613 280.343 500.436 277.186C502.259 274.028 508.529 272.238 512.604 274.591C516.68 276.944 518.506 281.411 516.683 284.569Z" fill="#F6ECE0"/>
<path d="M489.411 325.661C489.536 316.523 480.187 308.986 468.529 308.827C456.87 308.667 446.593 320.68 446.468 329.817C446.343 338.955 456.417 341.757 468.075 341.917C479.733 342.076 489.286 334.798 489.411 325.661Z" fill="#E6D2BA"/>
<path d="M478.497 322.185C478.583 315.908 472.056 310.73 463.919 310.618C455.782 310.507 448.611 318.757 448.525 325.034C448.439 331.311 455.471 333.237 463.608 333.349C471.745 333.46 478.411 328.462 478.497 322.185Z" fill="#F6ECE0"/>
<path d="M577.958 347.904C581.298 342.923 578.854 335.431 572.499 331.169C566.144 326.907 556.191 329.835 552.851 334.816C549.511 339.797 554.048 344.945 560.403 349.206C566.758 353.468 574.618 352.885 577.958 347.904Z" fill="#E6D2BA"/>
<path d="M570.667 343.456C573.002 339.973 571.293 334.735 566.85 331.755C562.407 328.775 555.448 330.822 553.112 334.305C550.777 337.787 553.949 341.387 558.392 344.366C562.836 347.346 568.331 346.939 570.667 343.456Z" fill="#F6ECE0"/>
<path d="M418.273 295.503C416.006 292.47 410.352 292.864 405.646 296.382C400.94 299.9 399.873 306.985 402.14 310.017C404.407 313.05 409.15 310.883 413.856 307.365C418.563 303.846 420.54 298.536 418.273 295.503Z" fill="#E6D2BA"/>
<path d="M413.829 295.471C412.278 293.397 408.417 293.662 405.204 296.064C401.991 298.466 401.267 303.307 402.817 305.382C404.368 307.456 407.607 305.978 410.82 303.576C414.033 301.174 415.38 297.545 413.829 295.471Z" fill="#F6ECE0"/>
<path d="M384.06 351.025C381.829 348.041 376.267 348.429 371.637 351.89C367.006 355.352 365.957 362.322 368.188 365.306C370.418 368.289 375.084 366.157 379.714 362.696C384.345 359.234 386.29 354.009 384.06 351.025Z" fill="#E6D2BA"/>
<path d="M380.956 350.107C379.455 348.099 375.713 348.36 372.597 350.689C369.482 353.018 368.776 357.707 370.277 359.715C371.777 361.722 374.917 360.288 378.032 357.959C381.147 355.63 382.456 352.114 380.956 350.107Z" fill="#F6ECE0"/>
<path d="M595.19 348.431C597.233 345.698 602.327 346.053 606.567 349.223C610.808 352.393 611.769 358.777 609.726 361.509C607.683 364.242 603.41 362.289 599.17 359.119C594.929 355.949 593.147 351.164 595.19 348.431Z" fill="#E6D2BA"/>
<path d="M595.291 348.391C596.818 346.348 600.625 346.613 603.795 348.983C606.964 351.352 607.682 356.123 606.156 358.166C604.629 360.208 601.435 358.748 598.265 356.379C595.096 354.01 593.764 350.433 595.291 348.391Z" fill="#F6ECE0"/>
<path d="M424.934 582.562L422.378 592.428L427.518 593.958L429.221 582.045C434.81 554.288 470.482 536.437 487.619 530.981L599.252 487.38C576.258 481.267 526.013 470.116 508.981 474.42C491.95 478.724 471.718 493.787 463.731 500.78C437.553 523.168 426.959 564.629 424.934 582.562Z" fill="#93B965"/>
</svg>
