<svg width="1372" height="624" viewBox="0 0 1372 624" fill="none" xmlns="http://www.w3.org/2000/svg">
<path d="M1051.2 435.587C926.726 441.677 787.543 454.91 726.506 472.477C713.999 474.369 416.82 475.99 378.296 522.836C336.83 573.26 1303.86 563.241 1310.86 522.836C1315.44 496.437 1206.8 427.975 1051.2 435.587Z" fill="url(#paint0_linear_1576_319)"/>
<path d="M845.368 472.938C856.866 473.414 860.537 486.195 860.936 492.527L857.594 500.477C855.519 495.757 851.935 489.444 848.378 489.053C844.82 488.662 839.671 489.572 833.76 488.248C822.982 485.524 816.319 482.678 814.335 481.595C819.889 478.511 833.871 472.463 845.368 472.938Z" fill="#98C367"/>
<path fill-rule="evenodd" clip-rule="evenodd" d="M820.849 478.731C847.19 475.479 857.631 484.896 860.697 493.358L861.539 492.529C861.14 486.198 857.469 473.416 845.971 472.941C837.489 472.59 827.654 475.79 820.849 478.731Z" fill="#7CA34F"/>
<path d="M1083.69 399.625C1084.04 405.553 1083.88 414.318 1082.82 419.357C1085.63 432.941 1098.33 422.478 1102.3 421.603C1113.63 416.649 1115.4 407.152 1112.83 394.823C1102.72 372.686 1060.08 351.491 1056.03 349.76L1055.98 349.737C1051.79 347.939 1027.86 337.683 1009.66 352.579C991.389 367.539 955.267 396.772 961.144 413.228C967.021 429.684 980.402 434.917 987.75 430.903C993.628 427.693 994.22 416.588 991.768 411.667C1014.77 362.174 1083.25 392.216 1083.69 399.625Z" fill="#A36B52" stroke="#A36B52" stroke-width="0.192639"/>
<path fill-rule="evenodd" clip-rule="evenodd" d="M1080.72 363.687C1101.2 379.76 1113.62 401.87 1089.4 409.424C1087.56 409.998 1085.67 410.54 1083.74 411.05C1083.93 407.119 1083.89 402.932 1083.69 399.627C1083.26 392.218 1014.78 362.176 991.773 411.669C992.697 413.523 993.189 416.255 993.128 419.112C992.446 419.105 991.786 419.097 991.15 419.088C963.281 418.722 965.525 396.882 986.073 372.758C994.041 365.37 1002.41 358.521 1008.81 353.279C1009.1 353.043 1009.39 352.81 1009.67 352.581C1019.35 344.652 1030.66 343.849 1039.76 345.104C1040.1 345.297 1040.42 345.492 1040.74 345.687C1042.61 345.788 1044.56 346.056 1046.57 346.474C1051.2 347.688 1054.63 349.157 1055.99 349.739L1056.04 349.761C1057.98 350.594 1068.84 355.921 1080.72 363.687Z" fill="#BC856D"/>
<path d="M1062.61 360.356C1061.21 364.815 1065.86 370.245 1072.98 372.484C1080.11 374.723 1087.45 375.381 1088.85 370.923C1090.26 366.464 1085.19 358.577 1078.06 356.338C1070.93 354.098 1064.01 355.898 1062.61 360.356Z" fill="#E8D9C6"/>
<path d="M984.544 377.033C986.677 379.425 985.306 384.129 981.481 387.539C977.656 390.95 973.254 393.432 971.12 391.04C968.987 388.648 969.932 382.288 973.756 378.877C977.581 375.466 982.411 374.64 984.544 377.033Z" fill="#E6D2BA"/>
<path d="M982.401 376.683C983.981 378.454 982.966 381.937 980.133 384.463C977.301 386.989 974.041 388.827 972.461 387.056C970.881 385.284 971.581 380.574 974.413 378.048C977.245 375.523 980.822 374.911 982.401 376.683Z" fill="#F6ECE0"/>
<path d="M1037.38 366.709C1035.94 369.724 1044.33 372.038 1047.66 371.995C1054.85 372.203 1055.18 367.882 1052.4 365.396C1050.89 364.046 1045.35 360.949 1043.09 361.9C1039.54 363.396 1038.46 364.06 1037.38 366.709Z" fill="#E6D2BA"/>
<path d="M1037.84 366.038C1036.71 368.387 1043.25 370.19 1045.84 370.156C1051.45 370.318 1051.71 366.952 1049.54 365.014C1048.36 363.963 1044.04 361.55 1042.28 362.29C1039.52 363.456 1038.68 363.973 1037.84 366.038Z" fill="#F6ECE0"/>
<ellipse cx="4.23805" cy="2.79326" rx="4.23805" ry="2.79326" transform="matrix(-0.995197 0.0978935 0.0978935 0.995197 1033.28 349.613)" fill="#E6D2BA"/>
<ellipse cx="3.37117" cy="2.21534" rx="3.37117" ry="2.21534" transform="matrix(-0.995197 0.0978935 0.0978935 0.995197 1031.77 349.953)" fill="#F6ECE0"/>
<ellipse cx="12.5215" cy="8.57241" rx="12.5215" ry="8.57241" transform="matrix(-0.961597 0.274464 0.274464 0.961597 1023.16 358.945)" fill="#E8D9C6"/>
<ellipse cx="12.5215" cy="8.57241" rx="12.5215" ry="8.57241" transform="matrix(-0.961597 0.274464 0.274464 0.961597 1023.16 358.945)" fill="#E8D9C6"/>
<ellipse cx="12.5215" cy="8.57241" rx="12.5215" ry="8.57241" transform="matrix(-0.961597 0.274464 0.274464 0.961597 1023.16 358.945)" fill="#E6D2BA"/>
<ellipse cx="9.54001" cy="6.53123" rx="9.54001" ry="6.53123" transform="matrix(-0.961597 0.274464 0.274464 0.961597 1018.93 360.508)" fill="#F6ECE0"/>
<path d="M992.141 368.685C993.432 370.241 996.665 369.688 999.362 367.451C1002.06 365.214 1003.2 362.139 1001.91 360.583C999.73 359.783 997.387 359.579 994.69 361.816C991.992 364.054 991.619 366.872 992.141 368.685Z" fill="#E6D2BA"/>
<path d="M992.202 367.499C993.239 368.749 995.837 368.306 998.006 366.507C1000.17 364.709 1001.09 362.238 1000.05 360.987C998.301 360.344 996.418 360.18 994.25 361.979C992.081 363.777 991.782 366.042 992.202 367.499Z" fill="#F6ECE0"/>
<path d="M1096.88 389.502C1095.63 391.092 1096.85 394.136 1099.61 396.3C1102.37 398.464 1105.61 398.93 1106.86 397.34C1107.18 395.039 1106.89 392.706 1104.13 390.542C1101.37 388.378 1098.54 388.609 1096.88 389.502Z" fill="#E6D2BA"/>
<path d="M1096.87 389.26C1095.92 390.473 1096.85 392.795 1098.95 394.446C1101.06 396.097 1103.53 396.453 1104.49 395.239C1104.73 393.484 1104.51 391.704 1102.4 390.053C1100.3 388.402 1098.14 388.578 1096.87 389.26Z" fill="#F6ECE0"/>
<path d="M1062.61 360.356C1061.21 364.815 1065.86 370.245 1072.98 372.484C1080.11 374.723 1087.45 375.381 1088.85 370.923C1090.26 366.464 1085.19 358.577 1078.06 356.338C1070.93 354.098 1064.01 355.898 1062.61 360.356Z" fill="#E6D2BA"/>
<path d="M1064.13 358.941C1063.08 362.266 1066.54 366.315 1071.86 367.985C1077.18 369.654 1082.65 370.145 1083.7 366.82C1084.74 363.496 1080.96 357.614 1075.64 355.944C1070.33 354.274 1065.17 355.616 1064.13 358.941Z" fill="#F6ECE0"/>
<ellipse cx="2.9859" cy="3.56381" rx="2.9859" ry="3.56381" transform="matrix(-0.995197 0.0978935 0.0978935 0.995197 974.57 409.973)" fill="#E8D9C6"/>
<ellipse cx="2.40798" cy="2.88958" rx="2.40798" ry="2.88958" transform="matrix(-0.995197 0.0978935 0.0978935 0.995197 973.418 410.086)" fill="#F6ECE0"/>
<path d="M1082.47 394.664C1090.92 408.523 1095.8 429.739 1097.18 438.615C1105.41 429.379 1110.93 430.788 1112.65 432.647C1118.75 439.35 1107.89 452.126 1101.7 457.677C1101.32 473.245 1093.61 483.412 1089.8 486.55C1101.03 484.882 1103.99 494.637 1103.32 498.749C1098.92 507.892 1070.85 502.973 1064.79 497.723L1036.56 499.974C1030.19 510.917 997.524 519.319 996.697 508.949C996.015 497.486 1005.36 495.988 1010.12 496.671C996.258 490.587 990.563 475.159 989.148 466.704C978.208 461.585 971.115 447.78 975.295 444.451C978.638 441.788 985.585 445.515 987.247 447.38C987.731 421.446 993.718 404.51 996.651 399.284C1021.74 391.969 1074.02 380.805 1082.47 394.664Z" fill="#CEB798"/>
<path d="M997.835 409.199C999.693 402.313 1066.63 392.933 1078.64 397.186C1106.93 442.003 1088.53 466.92 1074.71 477.549C1061.57 487.648 1032.74 489.71 1022.05 484.374C985.576 466.161 991.393 433.07 997.835 409.199Z" fill="#E8D9C6"/>
<ellipse cx="4.43069" cy="6.35707" rx="4.43069" ry="6.35707" transform="matrix(-0.995197 0.0978935 0.0978935 0.995197 1065.64 416.883)" fill="#564035"/>
<ellipse cx="4.43069" cy="6.35707" rx="4.43069" ry="6.35707" transform="matrix(-0.995197 0.0978935 0.0978935 0.995197 1025.19 420.863)" fill="#564035"/>
<path d="M1049.24 433.141C1049.16 432.354 1048.23 431.97 1047.6 432.437C1043.63 435.333 1040.87 435.514 1036.9 433.544C1036.2 433.198 1035.36 433.736 1035.44 434.511C1035.47 434.823 1035.65 435.102 1035.93 435.25C1041.33 438.141 1044.29 437.831 1048.9 433.985C1049.14 433.779 1049.27 433.461 1049.24 433.141Z" fill="#70554A"/>
<path d="M985.683 411.768C1017.12 365.316 1070.75 382.881 1093.64 397.47C1088.09 407.927 1077.49 400.866 1073.84 395.934C1062.18 402.501 1054.49 398.289 1051.15 395.456C1042.08 402.465 1031.96 401.699 1028.03 400.441C1026.7 404.288 1013.61 404.762 1007.23 404.519C1010.89 412.192 982.187 416.564 985.683 411.768Z" fill="#E8D8C8" stroke="#E8D9C6" stroke-width="0.192639"/>
<path d="M1061.34 383.922C1056.51 397.85 1030.15 413.219 1011.26 388.461" stroke="#D1BC9F" stroke-width="2.5043"/>
<path d="M1027.86 400.763C1022.78 406.103 1002.3 407.536 999.09 396.528" stroke="#D1BC9F" stroke-width="2.5043"/>
<path d="M1007.61 404.496C1008.74 412.999 983.646 415.661 985.511 411.994" stroke="#D1BC9F" stroke-width="2.5043"/>
<path d="M1079.14 389.719C1075.02 400.964 1055.22 400.395 1051.35 395.549" stroke="#D1BC9F" stroke-width="2.5043"/>
<path d="M1093.63 397.294C1088.77 405.03 1076.74 401.761 1073.02 396.417" stroke="#D1BC9F" stroke-width="2.5043"/>
<path d="M1094.57 398.072C1067.17 376.281 1010.6 371.877 983.988 413.208" stroke="#886653" stroke-width="1.34847" stroke-linecap="round"/>
<path d="M1076.84 488.469C1077.04 490.533 1086.81 495.424 1091.42 494.971C1096.02 494.518 1099.59 492.477 1099.39 490.412C1099.19 488.348 1096.17 485.212 1091.57 485.665C1086.64 485.763 1076.64 486.404 1076.84 488.469Z" fill="#E8D9C6"/>
<path d="M1020.21 498.225C1020.42 500.289 1011.13 503.279 1006.53 503.732C1001.92 504.185 996.668 505.818 996.465 503.754C996.262 501.689 1000.44 497.943 1005.04 497.49C1009.89 496.626 1020.01 496.16 1020.21 498.225Z" fill="#E8D9C6"/>
<path d="M1106.58 440.962C1106.5 438.476 1109.89 433.893 1111.02 432.707C1113.03 429.257 1097.57 432.975 1091.72 435.01C1091.6 438.087 1091.84 444.204 1093.72 444.051C1095.6 443.898 1096.96 442.934 1097.4 442.471C1097.61 446.263 1098.87 450.395 1099.48 451.988C1101.88 449.348 1106.66 443.449 1106.58 440.962Z" fill="#E8D9C6" stroke="#E8D9C6" stroke-width="0.192639"/>
<path d="M1057.95 388.219C1051.28 393.054 1033.2 400.684 1016.16 392.33C1023.89 400.918 1043.08 412.119 1057.95 388.219Z" fill="#D1BC9F"/>
<path d="M1056.6 392.514C1064.42 396.827 1073.49 394.258 1076.88 392.215C1075.15 396.01 1067.95 402.261 1052.92 396.897L1056.6 392.514Z" fill="#D1BC9F"/>
<path d="M1077.36 394.228C1082.69 400.128 1090.42 399.514 1093.53 398.216C1091.39 401.591 1084.39 406.227 1073.54 397.768L1077.36 394.228Z" fill="#D1BC9F"/>
<path d="M1003.78 402.258C1000.44 409.471 988.84 412.413 985.489 412.093C988.536 414.682 1000.63 415.799 1008.48 404.507L1003.78 402.258Z" fill="#D1BC9F"/>
<path d="M1022.92 396.794C1016.1 402.546 1006.7 401.794 1002.98 400.45C1005.41 403.837 1013.7 408.564 1027.39 400.375L1022.92 396.794Z" fill="#D1BC9F"/>
<path d="M988.705 454.357C992.068 451.549 993.895 451.362 995.235 452.844L994.372 448.013L990.838 446.521C988.813 446.269 983.907 445.325 980.528 444.031C977.148 442.738 975.349 444.521 974.794 445.757C974.146 448.026 988.835 458.623 989.947 458.126C990.837 457.729 990.238 456.819 988.705 454.357Z" fill="#E8D9C6" stroke="#E8D9C6" stroke-width="0.192639"/>
<ellipse cx="15.2184" cy="11.8473" rx="15.2184" ry="11.8473" transform="matrix(-0.995197 0.0978935 0.0978935 0.995197 1099.53 417.035)" fill="#DAAA93"/>
<ellipse cx="15.2184" cy="11.8473" rx="15.2184" ry="11.8473" transform="matrix(-0.995197 0.0978935 0.0978935 0.995197 1007.89 426.051)" fill="#DAAA93"/>
<path d="M1195.94 380.676C1208.6 448.438 1178.03 493.501 1161.16 507.563L1149.6 488.076C1152.19 471.158 1157.68 456.631 1160.14 451.538C1162.54 445.337 1169.07 431.298 1175.56 424.3C1182.05 417.303 1191.85 392.302 1195.94 380.676Z" fill="#4D7B37" stroke="#4D7B37" stroke-width="0.202833"/>
<path d="M1200 466.571C1177.8 459.374 1162.47 483.33 1157.58 496.208L1161.7 505.205C1168.73 496.87 1176.73 496.208 1183.76 497.928C1190.79 499.648 1200 505.205 1212.12 506.66C1234.41 508.672 1248.96 507.498 1253.44 506.66C1244.88 496.296 1222.2 473.769 1200 466.571Z" fill="#678D3A" stroke="#678D3A" stroke-width="0.242375"/>
<path fill-rule="evenodd" clip-rule="evenodd" d="M1234.83 484.528C1185.44 472.657 1162.59 487.523 1154.1 503.691L1153.5 502.271C1155.42 488.785 1163.95 465.939 1186.6 467.185C1203.3 468.104 1222.01 476.89 1234.83 484.528Z" fill="#7CA34F"/>
<path d="M859.617 293.65C868.553 306.832 927.47 292.799 955.812 284.135C959.915 280.963 973.364 273.831 994.335 270.675C1024.65 266.729 1026.93 250.02 1031.95 245.146C1070.06 210.984 1108.31 214.048 1122.67 219.85C1106.71 178.308 1070.93 170.417 1041.52 165.543C1012.12 160.67 980.886 183.181 972.452 186.198C965.705 188.612 958.547 188.751 955.812 188.519C924.127 197.338 923.899 197.802 894.494 218.921C865.088 240.04 855.97 272.531 848.904 282.046C843.251 289.658 852.475 291.097 857.794 290.865L859.617 293.65Z" fill="url(#paint1_linear_1576_319)" stroke="#C2DE93" stroke-width="0.455898"/>
<path d="M1101.93 217.994C1032.4 176.915 937.803 294.579 879.676 277.869C882.482 285.086 904.734 290.142 971.018 254.415C1037.3 218.688 1062.73 222.538 1074.25 226.447L1101.93 217.994Z" fill="#A1C277"/>
<path d="M1079.13 296.436C1101.19 389.081 1092.69 499.815 1083.5 525.344H1106C1113.84 485.612 1101.62 349.814 1095.09 296.436C1096.68 267.89 1144.09 280.19 1164.84 272.068C1181.43 265.569 1177.53 254.352 1173.5 249.556C1166.81 244.064 1146.42 230.201 1118.34 218.69C1083.23 204.301 1036.05 241.202 1032.86 244.683C1029.66 248.164 1020.32 266.73 996.156 270.211C973.178 274.11 959.684 280.964 955.809 283.904C994.484 277.56 1073.29 271.186 1079.13 296.436Z" fill="#698C3D" stroke="#769A49" stroke-width="0.455898"/>
<path fill-rule="evenodd" clip-rule="evenodd" d="M1144.45 231.191C1141.95 243.248 1128.93 258.219 1090.2 265.692C1051.44 273.174 1053.87 273.337 1063.94 274.012C1071.48 274.518 1083.31 275.311 1085.33 279.676C1096.26 303.205 1107.18 452.097 1096.19 500.502L1105.03 506.479C1112.87 466.747 1101.76 350.059 1095.23 296.681C1096.29 277.698 1117.61 276.778 1137.88 275.904C1148.09 275.463 1158.03 275.034 1164.98 272.313C1181.58 265.814 1177.67 254.597 1173.64 249.801C1169.25 246.195 1158.95 238.98 1144.45 231.191Z" fill="#4D7B37"/>
<path d="M1119.16 510.091L1119.48 516.456L1116.36 517.999L1116.77 510.174C1116.79 492.105 1098.44 483.704 1089.27 481.762L1030.44 463.703C1044.31 457.292 1074.36 444.765 1083.61 445.944C1092.85 447.124 1102.69 455.203 1106.44 459.095C1118.83 471.493 1120.08 498.258 1119.16 510.091Z" fill="#97C65F" stroke="#97C65F" stroke-width="0.198862"/>
<path fill-rule="evenodd" clip-rule="evenodd" d="M1116.78 495.59C1109.7 479.627 1089.05 448.475 1063.17 451.571C1061.6 451.758 1060.21 451.854 1058.99 451.867C1069.31 448.123 1079.02 445.332 1083.61 445.918C1092.86 447.097 1102.69 455.176 1106.45 459.068C1118.83 471.466 1120.09 498.231 1119.16 510.064L1119.48 516.43L1116.78 517.763V495.59Z" fill="#769A49"/>
<path d="M924.026 142.156C958.297 145.12 997.914 133.343 1013.44 127.084C1017.48 115.817 1049.25 106.823 1068.58 102.87C1082.2 99.4111 1087.87 94.1237 1092.97 85.8219C1119.15 40.3596 1159.68 44.807 1176.67 52.7135C1148.11 5.76869 1125.26 6.2628 1092.97 0.827092C1060.67 -4.60862 1036.95 18.3696 1030.14 22.5699C1023.32 26.7703 1001.58 28.0056 996.523 28.7469C991.47 29.4881 973.456 32.453 947.532 60.1257C910.625 97.2862 903.888 138.367 905.133 154.262C907.989 141.414 920.291 142.156 924.026 142.156Z" fill="url(#paint2_linear_1576_319)"/>
<path d="M928.523 126.308C1021.89 40.3244 1109.42 37.4419 1141.5 49.1712L1133.88 57.7427C1106.47 50.8259 1021.26 53.7715 928.523 126.308Z" fill="#90B58C"/>
<path d="M1131.19 140.92C1152.11 243.705 1135.46 480.728 1126.75 506.012H1151.65C1161.67 481.897 1152.28 197.501 1145.47 138.696C1150.97 125.354 1154.7 125.107 1158.22 122.389C1180.84 109.541 1207.21 118.436 1213.8 113.494C1250.48 88.7866 1214.8 59.3849 1187.56 59.3849C1154.39 22.3232 1107.25 61.6082 1100 73.2208C1092.75 84.8335 1092.31 94.7166 1068.14 102.87C1021.75 114.137 1012.64 123.213 1013.88 126.343C1035.63 117.448 1123.07 114.236 1131.19 140.92Z" fill="#4D8369" stroke="#4D8369" stroke-width="1.4561"/>
<path fill-rule="evenodd" clip-rule="evenodd" d="M1203.77 63.1484C1201.84 72.9439 1192.63 90.7513 1168.33 94.5102C1136.24 99.4722 1138.24 144.131 1139.85 151.799C1141.43 159.353 1154.69 258.824 1147.8 506.692H1151.6C1161.62 482.577 1152.24 198.181 1145.43 139.376C1149.94 128.423 1153.26 126.295 1156.25 124.381C1156.9 123.963 1157.54 123.556 1158.17 123.069C1172.16 115.124 1187.58 115.493 1198.87 115.764C1205.84 115.931 1211.23 116.06 1213.75 114.174C1243.3 94.2703 1225.89 71.3205 1203.77 63.1484Z" fill="#336C50"/>
<path d="M1288.95 370.483C1283.68 378.814 1248.96 369.945 1232.25 364.469C1229.83 362.464 1221.91 357.956 1209.55 355.962C1191.68 353.468 1190.33 342.907 1187.38 339.827C1164.91 318.236 1142.37 320.172 1133.91 323.839C1143.31 297.584 1164.4 292.597 1181.74 289.517C1199.07 286.437 1217.47 300.664 1222.44 302.571C1226.42 304.097 1230.64 304.185 1232.25 304.038C1250.93 309.612 1251.06 309.905 1268.39 323.253C1285.72 336.6 1291.1 357.135 1295.26 363.149C1298.59 367.96 1293.16 368.869 1290.02 368.722L1288.95 370.483Z" fill="url(#paint3_linear_1576_319)" stroke="#C2DE93" stroke-width="0.2687"/>
<path d="M1154.45 322.911C1197.69 295.449 1256.53 374.108 1292.69 362.937C1290.94 367.762 1277.1 371.142 1235.87 347.258C1194.65 323.375 1178.83 325.948 1171.66 328.562L1154.45 322.911Z" fill="#A1C277"/>
<path d="M1159.57 372.24C1146.56 430.793 1154.15 488.701 1159.57 504.836H1144.39C1139.76 479.725 1146.31 405.975 1150.16 372.24C1149.22 354.198 1121.28 361.972 1109.05 356.839C1099.27 352.732 1101.57 345.642 1103.95 342.611C1107.89 339.14 1119.91 330.378 1136.46 323.103C1157.15 314.009 1184.96 337.331 1186.84 339.531C1188.72 341.731 1194.23 353.465 1208.47 355.665C1222.01 358.129 1229.97 362.461 1232.25 364.319C1209.46 360.31 1163.01 356.281 1159.57 372.24Z" fill="#769A49" stroke="#769A49" stroke-width="0.2687"/>
<path fill-rule="evenodd" clip-rule="evenodd" d="M1121.73 331.562C1123.18 339.072 1130.74 348.398 1153.23 353.053C1175.75 357.713 1174.34 357.814 1168.49 358.235C1164.11 358.55 1157.24 359.044 1156.06 361.763C1149.72 376.418 1143.37 469.153 1149.76 499.304L1144.62 503.026C1140.07 478.279 1146.52 405.599 1150.31 372.353C1149.7 360.529 1137.31 359.956 1125.54 359.411C1119.61 359.137 1113.83 358.87 1109.8 357.175C1100.16 353.127 1102.43 346.141 1104.77 343.153C1107.32 340.907 1113.3 336.413 1121.73 331.562Z" fill="#688C3B"/>
<path d="M978.591 443.737C981.062 456.477 986.405 468.44 988.816 471.242L986.956 472.111C983.985 467.385 979.521 451.516 977.588 444.206C975.94 440.583 970.702 444.923 967.785 445.036C965.452 445.127 965.351 443.448 965.592 442.597C966.119 441.505 967.873 438.553 970.675 435.473C974.177 431.622 981.752 433.761 982.315 434.034C982.877 434.307 984.951 436.195 988.044 435.285C991.016 434.497 992.993 434.627 993.611 434.791C988.621 436.147 978.008 440.124 978.591 443.737Z" fill="#769A49" stroke="#769A49" stroke-width="0.0617952"/>
<path d="M1004.27 431.253C1003.86 433.471 997.481 434.351 993.62 434.822C992.963 434.641 990.977 434.471 988.285 435.243C984.426 436.439 983.299 434.395 982.446 434.043C976.105 431.749 971.646 434.304 970.209 435.868C970.017 429.566 973.933 426.522 977.232 424.231C980.532 421.939 985.448 423.106 986.619 423.023C987.556 422.957 988.427 422.571 988.745 422.387C993.018 421.747 993.069 421.795 997.694 422.884C1002.32 423.973 1002.54 426.352 1003.88 427.191C1004.95 427.863 1005.42 429.872 1004.77 430.142L1004.27 431.253Z" fill="#C2DE93" stroke="#C2DE93" stroke-width="0.0617952"/>
<path d="M1002.43 429.644C1002.47 429.609 1002.53 429.613 1002.56 429.653C1002.59 429.692 1002.58 429.752 1002.54 429.786L1002.43 429.644ZM1002.54 429.786C1000.98 431.173 998.702 431.571 996.101 431.548C993.498 431.524 990.539 431.077 987.589 430.751C984.634 430.425 981.685 430.219 979.085 430.669C976.487 431.12 974.245 432.223 972.69 434.51L972.544 434.405C974.137 432.061 976.433 430.938 979.063 430.482C981.69 430.027 984.66 430.236 987.616 430.563C990.576 430.89 993.519 431.335 996.11 431.358C998.704 431.382 1000.92 430.982 1002.43 429.644L1002.54 429.786Z" fill="#769A49"/>
<path d="M896.248 180.917C895.565 189.514 900.031 191.245 905.678 191.695C911.325 192.144 916.539 190.739 917.223 182.142C917.906 173.545 913.8 161.011 908.153 160.562C902.506 160.113 896.932 172.32 896.248 180.917Z" fill="#69C1B1"/>
<path fill-rule="evenodd" clip-rule="evenodd" d="M903.813 165.2C903.858 165.202 903.904 165.204 903.95 165.208C908.817 165.595 912.332 176.692 911.727 184.309C911.524 186.863 910.883 188.702 909.938 190.003C913.177 189.398 915.712 187.233 916.156 181.649C916.762 174.031 913.246 162.935 908.379 162.548C906.806 162.423 905.237 163.469 903.813 165.2Z" fill="#59AF9F"/>
<path d="M912.366 183.258C912.366 187.347 909.192 190.662 905.277 190.662C901.361 190.662 898.188 187.347 898.188 183.258C898.188 179.17 901.361 181.672 905.277 181.672C909.192 181.672 912.366 179.17 912.366 183.258Z" fill="#91CEBC"/>
<path d="M898.25 181.498C897.697 176.851 900.962 169.97 902.92 166.183C903.206 165.629 903.556 165.109 903.957 164.631C905.994 162.197 905.175 163.262 904.749 164.798C904.285 166.468 901.501 173.705 902.429 176.488C905.918 186.954 898.713 185.395 898.25 181.498Z" fill="#CEE1CC"/>
<path d="M1139.98 504.342C1139.14 511.686 1123.69 510.813 1116.08 509.458C1103.5 509.458 1102.26 510.367 1094.65 507.306C1087.05 504.246 1098.72 475.319 1116.98 478.283C1135.25 481.248 1141.03 495.162 1139.98 504.342Z" fill="#A5663D" stroke="#A5663D" stroke-width="0.286886"/>
<path d="M1128.08 515.198C1127.54 514.05 1127.31 511.5 1127.27 510.369C1122.6 508.647 1110.85 509.046 1105.56 509.46C1103.47 513.7 1100.55 522.982 1105.56 526.195C1111.82 530.212 1121.72 529.016 1126.26 526.195C1130.8 523.374 1128.75 516.632 1128.08 515.198Z" fill="#D1BC9F" stroke="#D1BC9F" stroke-width="0.286886"/>
<ellipse cx="4.87706" cy="10.7689" rx="4.87706" ry="10.7689" transform="matrix(-0.801468 -0.598037 -0.598037 0.801468 1112.73 482.73)" fill="#BC856D"/>
<path fill-rule="evenodd" clip-rule="evenodd" d="M1104.89 511.114C1111.24 511.262 1124.03 511.823 1124.38 512.886C1124.82 514.211 1125.7 524.773 1123.52 527.479C1124.56 527.11 1125.49 526.676 1126.27 526.195C1130.81 523.374 1128.75 516.632 1128.08 515.198C1127.55 514.05 1127.32 511.5 1127.27 510.369C1122.6 508.647 1110.85 509.046 1105.56 509.46C1105.33 509.924 1105.1 510.447 1104.86 511.016C1104.87 511.049 1104.88 511.081 1104.89 511.114Z" fill="#BFA27A"/>
<path fill-rule="evenodd" clip-rule="evenodd" d="M1130.38 509.687C1135.21 509.135 1139.18 507.512 1139.6 503.889C1140.51 495.981 1136.34 484.561 1123.49 479.652C1123.79 480.098 1124.38 480.681 1125.33 481.415C1130.65 485.527 1130.22 493.31 1128.38 499.811C1127.38 503.337 1127.96 507.387 1130.38 509.687Z" fill="#815131"/>
<path d="M1235.67 485.271C1234.63 494.363 1215.51 493.281 1206.08 491.604C1190.51 491.604 1188.97 492.729 1179.56 488.941C1170.15 485.153 1184.59 449.344 1207.2 453.014C1229.81 456.683 1236.98 473.907 1235.67 485.271Z" fill="#D1BC9F" stroke="#D1BC9F" stroke-width="0.425021"/>
<path d="M1220.94 498.711C1220.28 497.29 1219.99 494.133 1219.93 492.733C1214.16 490.602 1199.61 491.095 1193.06 491.608C1190.48 496.856 1186.86 508.346 1193.06 512.324C1200.81 517.296 1213.07 515.816 1218.69 512.324C1224.31 508.832 1221.77 500.486 1220.94 498.711Z" fill="#E8D9C6" stroke="#E8D9C6" stroke-width="0.425021"/>
<ellipse cx="6.03723" cy="13.3307" rx="6.03723" ry="13.3307" transform="matrix(-0.801468 -0.598037 -0.598037 0.801468 1201.94 458.52)" fill="#E8D9C6"/>
<path fill-rule="evenodd" clip-rule="evenodd" d="M1202.74 452.318C1221.05 457.054 1235.64 485.562 1213.14 488.146C1204.35 489.155 1201.24 490.192 1201.65 491.127C1203.15 491.105 1204.8 491.089 1206.66 491.089C1216.09 492.766 1235.22 493.847 1236.26 484.756C1237.56 473.391 1230.4 456.168 1207.79 452.498C1206.06 452.217 1204.37 452.167 1202.74 452.318Z" fill="#BD9D72"/>
<path fill-rule="evenodd" clip-rule="evenodd" d="M1192.38 493.274C1200.32 493.46 1216.32 494.168 1216.76 495.51C1217.31 497.18 1218.42 510.505 1215.68 513.918C1216.99 513.453 1218.15 512.905 1219.12 512.298C1224.8 508.739 1222.23 500.234 1221.39 498.425C1220.72 496.977 1220.44 493.76 1220.38 492.333C1214.54 490.161 1199.85 490.664 1193.23 491.187C1192.94 491.772 1192.64 492.434 1192.35 493.154C1192.36 493.194 1192.37 493.234 1192.38 493.274Z" fill="#D0B898"/>
<path d="M918.203 466.33C916.845 478.177 891.926 476.768 879.636 474.583C859.351 474.583 857.345 476.049 845.081 471.112C832.817 466.176 851.637 419.51 881.102 424.293C910.567 429.075 919.9 451.52 918.203 466.33Z" fill="#AD916A" stroke="#D1BC9F" stroke-width="0.425021"/>
<path d="M898.999 483.838C898.135 481.987 897.764 477.873 897.687 476.048C890.159 473.271 871.205 473.914 862.669 474.582C859.301 481.421 854.586 496.395 862.669 501.579C872.774 508.058 888.74 506.13 896.068 501.579C903.395 497.028 900.078 486.152 898.999 483.838Z" fill="#D1BC9F"/>
<ellipse cx="7.86752" cy="17.3721" rx="7.86752" ry="17.3721" transform="matrix(-0.801468 -0.598037 -0.598037 0.801468 874.234 431.465)" fill="#E8D9C6"/>
<path fill-rule="evenodd" clip-rule="evenodd" d="M875.199 423.383C899.063 429.551 918.08 466.706 888.75 470.075C877.31 471.388 873.248 472.739 873.78 473.957C875.731 473.928 877.894 473.907 880.319 473.907C892.609 476.093 917.528 477.502 918.885 465.654C920.582 450.845 911.249 428.399 881.785 423.617C879.524 423.25 877.326 423.186 875.199 423.383Z" fill="#9E845F"/>
<path fill-rule="evenodd" clip-rule="evenodd" d="M861.788 476.759C872.139 477.002 892.985 477.924 893.562 479.672C894.282 481.85 895.719 499.22 892.155 503.664C893.856 503.057 895.376 502.343 896.641 501.55C904.044 496.913 900.693 485.829 899.602 483.471C898.729 481.585 898.355 477.392 898.277 475.532C890.671 472.702 871.521 473.357 862.897 474.039C862.523 474.804 862.133 475.668 861.746 476.609C861.759 476.659 861.773 476.709 861.788 476.759Z" fill="#C2A782"/>
<path d="M948.017 490.475C947.277 496.927 933.707 496.159 927.014 494.969C915.966 494.969 914.874 495.767 908.195 493.079C901.516 490.391 911.766 464.977 927.812 467.582C943.858 470.186 948.941 482.41 948.017 490.475Z" fill="#A5663D" stroke="#A5663D" stroke-width="0.286886"/>
<path d="M937.557 500.008C937.086 499 936.885 496.76 936.843 495.765C932.743 494.253 922.421 494.603 917.772 494.967C915.938 498.692 913.37 506.847 917.772 509.669C923.275 513.198 931.97 512.148 935.961 509.669C939.951 507.191 938.145 501.268 937.557 500.008Z" fill="#D1BC9F" stroke="#D1BC9F" stroke-width="0.286886"/>
<ellipse cx="4.28458" cy="9.46071" rx="4.28458" ry="9.46071" transform="matrix(-0.801468 -0.598037 -0.598037 0.801468 924.07 471.488)" fill="#BC856D"/>
<path fill-rule="evenodd" clip-rule="evenodd" d="M917.177 496.42C922.756 496.55 933.992 497.043 934.304 497.977C934.692 499.141 935.466 508.423 933.545 510.798C934.461 510.474 935.279 510.092 935.961 509.669C939.951 507.191 938.145 501.268 937.557 500.008C937.086 499 936.885 496.76 936.843 495.765C932.743 494.253 922.421 494.603 917.772 494.967C917.571 495.375 917.362 495.836 917.153 496.337C917.161 496.365 917.169 496.392 917.177 496.42Z" fill="#BFA27A"/>
<path fill-rule="evenodd" clip-rule="evenodd" d="M939.943 495.127C944.023 494.603 947.326 493.169 947.681 490.076C948.477 483.128 944.814 473.092 933.523 468.781C933.779 469.173 934.299 469.686 935.137 470.333C939.547 473.741 939.462 480.021 938.08 485.516C937.221 488.931 937.723 492.859 939.943 495.127Z" fill="#815131"/>
<path d="M464.805 478.096C282.622 506.248 95.6397 562.74 794.768 564.78C799.682 564.615 803.778 564.632 807 564.81C802.893 564.802 798.816 564.792 794.768 564.78C763.13 565.845 697.605 574.471 613.227 596.222C491.374 627.634 -122.472 568.351 21.8274 519.242C137.267 479.955 409.68 477.359 464.805 478.096Z" fill="#59C5B0"/>
<path d="M984 572.498C838.4 578.098 739.167 582.497 706.5 594.997C1066 561.997 1126 603.5 1209.5 620.5C1293 637.5 1348.58 584.013 1456.5 548.996C1644.5 487.997 1141.5 439 1190.5 448.5C1239.5 458 1487.78 510.25 1402.5 536.997C1318 563.5 1166 565.498 984 572.498Z" fill="#59C5B0"/>
<defs>
<linearGradient id="paint0_linear_1576_319" x1="844" y1="507" x2="844" y2="557" gradientUnits="userSpaceOnUse">
<stop stop-color="#C2DBC0"/>
<stop offset="1" stop-color="#9CC9AD"/>
</linearGradient>
<linearGradient id="paint1_linear_1576_319" x1="867.784" y1="256.22" x2="1060.52" y2="182.769" gradientUnits="userSpaceOnUse">
<stop offset="0.364583" stop-color="#C9DE93"/>
<stop offset="1" stop-color="#D8EAA9"/>
</linearGradient>
<linearGradient id="paint2_linear_1576_319" x1="1110.22" y1="7.21753" x2="1039.24" y2="83.3587" gradientUnits="userSpaceOnUse">
<stop stop-color="#ABD4A6"/>
<stop offset="1" stop-color="#B9D9B6"/>
</linearGradient>
<linearGradient id="paint3_linear_1576_319" x1="1191.22" y1="288.997" x2="1241.7" y2="339.236" gradientUnits="userSpaceOnUse">
<stop stop-color="#CEE4A9"/>
<stop offset="1" stop-color="#C2DE93"/>
</linearGradient>
</defs>
</svg>
