<svg width="230" height="147" viewBox="0 0 230 147" fill="none" xmlns="http://www.w3.org/2000/svg">
<path d="M199.002 67.7671C197.854 75.2576 198.767 79.5239 200.154 86.5889C206.308 84.9654 223.088 77.6015 220.757 65.1224C218.953 55.4585 219.34 56.9013 214.804 49.8141C210.868 56.5781 199.878 62.054 199.002 67.7671Z" fill="url(#paint0_linear_882_95)"/>
<path d="M207.09 68.3335C208.238 75.824 207.325 80.0903 205.937 87.1554C199.784 85.5318 183.004 78.1679 185.334 65.6888C187.139 56.0249 186.752 57.4677 191.288 50.3805C195.223 57.1446 206.213 62.6204 207.09 68.3335Z" fill="url(#paint1_linear_882_95)"/>
<path d="M176.807 69.2756C176.807 77.1039 188.619 87.5605 196.447 87.5605C204.276 87.5605 204.447 89.2938 204.447 81.4655C204.447 73.6372 198.81 71.6852 190.982 71.6852C176.807 67.9458 178.304 60.204 176.807 69.2756Z" fill="url(#paint2_linear_882_95)"/>
<path d="M176.807 69.2756C176.807 77.1039 188.619 87.5605 196.447 87.5605C204.276 87.5605 204.447 89.2938 204.447 81.4655C204.447 73.6372 198.81 71.6852 190.982 71.6852C176.807 67.9458 178.304 60.204 176.807 69.2756Z" fill="url(#paint3_linear_882_95)"/>
<path d="M217.407 70.7814C217.407 78.6096 209.328 74.6084 203.233 87.2236C196.713 71.2066 189.059 78.6096 189.059 70.7814C189.059 62.9531 197.28 54.0556 203.233 49.2363C209.611 52.9217 217.407 62.9531 217.407 70.7814Z" fill="url(#paint4_radial_882_95)"/>
<path d="M217.565 69.5056C218.415 78.7189 208.478 77.9693 205.359 83.5382C209.029 74.8919 216.132 78.8931 216.132 71.0648C216.132 63.2365 211.328 58.1661 207.501 52.2129C213.17 58.0244 215.722 61.4262 217.565 69.5056Z" fill="#EEC1A9"/>
<path d="M229.314 69.3518C229.314 77.18 217.502 87.6367 209.674 87.6367C201.845 87.6367 201.674 89.3699 201.674 81.5417C201.674 73.7134 207.311 71.7614 215.139 71.7614C229.314 68.022 227.817 60.2802 229.314 69.3518Z" fill="url(#paint5_linear_882_95)"/>
<path d="M229.314 69.3518C229.314 77.18 217.502 87.6367 209.674 87.6367C201.845 87.6367 201.674 89.3699 201.674 81.5417C201.674 73.7134 207.311 71.7614 215.139 71.7614C229.314 68.022 227.817 60.2802 229.314 69.3518Z" fill="url(#paint6_linear_882_95)"/>
<path d="M219.393 68.682C221.116 75.2246 211.812 84.1844 206.361 85.6202C200.91 87.0559 201.172 88.536 199.449 81.9934C197.726 75.4508 203.56 68.4547 209.01 67.019C222.855 65.8038 216.353 61.3748 219.393 68.682Z" fill="url(#paint7_radial_882_95)"/>
<path d="M184.948 69.6471C182.188 68.2323 178.428 65.1113 178.428 65.1113C178.428 65.1113 179.748 66.7253 180.696 67.6627C182.577 69.5233 182.674 70.4199 184.948 71.7733C186.842 72.9004 188.309 73.8805 190.334 74.7499C192.299 75.5934 193.649 75.7041 195.437 76.876C197.868 78.4689 199.061 79.3987 200.398 81.9788C201.131 83.3939 202.241 87.2233 202.241 87.2233C202.241 87.2233 203.063 82.3111 202.524 80.2779C201.772 77.4416 200.489 75.9277 198.13 74.1829C195.568 72.2882 193.334 72.849 190.334 71.7733C188.206 71.0099 186.96 70.6786 184.948 69.6471Z" fill="#EAB29F" fill-opacity="0.84"/>
<path d="M187.341 66.1218C184.416 71.7174 191.866 82.2388 196.948 84.8951C202.03 87.5513 201.493 88.8485 204.418 83.2528C207.343 77.6572 202.932 69.7926 197.85 67.1363C184.483 62.6259 191.702 60.1453 187.341 66.1218Z" fill="url(#paint8_radial_882_95)"/>
<path d="M189.247 63.1617C189.243 63.1754 189.239 63.1895 189.235 63.2038C189.08 63.7799 188.697 64.7729 187.599 66.2817C186.921 67.5944 186.834 69.2164 187.19 70.9823C187.548 72.7552 188.349 74.6465 189.404 76.4583C191.519 80.091 194.615 83.334 197.088 84.6266C198.013 85.1103 198.759 85.5525 199.366 85.9118C199.596 86.0484 199.806 86.1729 199.998 86.2833C200.351 86.486 200.639 86.6379 200.886 86.7369C201.133 86.8358 201.321 86.8736 201.477 86.8659C201.763 86.8516 202.056 86.6755 202.484 86.0689C202.91 85.4655 203.415 84.5186 204.15 83.1125C205.554 80.4263 205.21 77.1654 203.861 74.2184C202.516 71.2803 200.195 68.7116 197.73 67.4157C191.919 65.4525 189.959 63.8622 189.247 63.1617Z" stroke="#C88181" stroke-opacity="0.02" stroke-width="0.605883"/>
<path d="M193.879 65.6795L189.201 62.9863C189.201 62.9863 191.805 65.4939 193.879 66.3882C194.682 66.7347 195.207 66.7363 196.005 67.0969C197.418 67.7359 198.122 68.316 199.265 69.3648C201.019 70.9749 201.693 72.2222 202.809 74.3258C203.459 75.5524 203.957 76.224 204.226 77.5859C204.582 79.3853 204.302 80.4991 203.801 82.2635C203.455 83.48 202.98 84.0602 202.525 85.2401C202.166 86.1711 201.675 87.6497 201.675 87.6497C201.675 87.6497 203.778 85.0703 204.509 83.1139C205.179 81.324 205.476 80.2022 205.36 78.2946C205.273 76.8741 205.032 76.0747 204.509 74.751C203.945 73.3205 203.451 72.5776 202.525 71.3492C201.158 69.5349 200.221 68.548 198.273 67.3804C196.694 66.4346 193.879 65.6795 193.879 65.6795Z" fill="url(#paint9_linear_882_95)"/>
<path d="M218.685 66.2447C218.588 65.5875 218.402 64.6855 218.402 64.6855C218.402 64.6855 218.309 65.7736 218.402 66.67C218.501 67.6316 218.785 68.2722 218.968 69.2213C219.201 70.4219 218.969 71.1504 218.685 72.3397C218.19 74.4109 217.371 75.4258 216.134 77.159C214.473 79.4847 213.195 80.5735 210.889 82.2618C208.372 84.1048 205.852 83.5959 203.802 85.9471C203.307 86.5146 202.668 87.5063 202.668 87.5063C202.668 87.5063 203.691 86.7933 204.369 86.3723C206.957 84.7657 208.952 84.847 211.456 83.1122C214.03 81.3292 215.39 80.0484 217.126 77.4425C218.32 75.65 219.168 74.6037 219.535 72.4814C219.762 71.1725 219.818 70.3776 219.535 69.0796C219.292 67.9646 218.851 67.3737 218.685 66.2447Z" fill="url(#paint10_linear_882_95)"/>
<path d="M198.29 84.8295C200.088 86.4954 203.48 88.36 203.48 88.36C203.48 88.36 200.501 85.9635 198.819 84.1944C197.172 82.462 196.338 81.3949 194.967 79.4371C193.523 77.3765 192.55 76.2598 191.665 73.9046C191.299 72.931 190.914 71.3496 190.914 71.3496C190.914 71.3496 191.038 73.1604 191.32 74.2813C191.966 76.8474 193.07 78.0448 194.556 80.2341C195.855 82.1472 196.594 83.2581 198.29 84.8295Z" fill="url(#paint11_linear_882_95)"/>
<path d="M152.368 134.321C128.057 137.314 100.888 137.524 76.1364 134.909C51.385 132.294 30.8179 127.041 18.429 120.17C6.04005 113.299 2.71356 105.3 9.09548 97.7272C15.4774 90.1542 31.1122 83.5474 52.9638 79.1897C74.8154 74.832 101.324 73.0344 127.343 74.146C153.361 75.2577 177.032 79.1992 193.759 85.2051C210.485 91.2111 219.074 98.8529 217.857 106.647C216.641 114.44 205.705 121.83 187.174 127.38L111.948 105.277L152.368 134.321Z" fill="#51833A"/>
<path d="M139.31 117.036L187.076 127.114L110.557 104.706L152.128 134.234L139.31 117.036Z" fill="#51833A"/>
<path d="M173.859 64.286C171.316 54.4655 161.417 59.0948 158.116 62.5932C144.489 74.6119 139.98 90.7971 148.975 92.7245C152.53 93.4862 178.768 83.245 173.859 64.286Z" fill="#ADD68C"/>
<path d="M134.331 93.8247C134.331 96.4424 141.606 98.5645 150.581 98.5645C158.637 98.5645 163.346 97.6781 166.001 93.6406C166.615 92.7072 166.816 91.4499 166.11 90.5836C164.022 88.0187 158.307 89.085 150.581 89.085C141.606 89.085 134.331 91.2071 134.331 93.8247Z" fill="#ADD68C"/>
<path fill-rule="evenodd" clip-rule="evenodd" d="M166.904 58.3948C178.576 66.8936 166.331 81.05 151.77 89.0003C153.158 89.0364 156.957 88.9986 160.313 88.719C168.274 84.158 176.852 75.8412 173.86 64.286C172.673 59.6986 169.88 58.2643 166.904 58.3948Z" fill="#9FC581"/>
<path fill-rule="evenodd" clip-rule="evenodd" d="M141.326 89.928C154.696 92.2897 161.135 91.3471 163.609 89.1953C164.693 89.4494 165.539 89.8797 166.111 90.583C166.817 91.4492 166.616 92.7066 166.003 93.64C163.347 97.6774 158.638 98.5639 150.583 98.5639C141.608 98.5639 134.332 96.4418 134.332 93.8241C134.332 92.2098 137.099 90.7839 141.326 89.928Z" fill="#9FC581"/>
<path d="M48.6098 64.286C51.1525 54.4655 61.0516 59.0948 64.3525 62.5932C77.9793 74.6119 82.4884 90.7971 73.4935 92.7245C69.9386 93.4862 43.7007 83.245 48.6098 64.286Z" fill="#ADD68C"/>
<path d="M88.136 93.8247C88.136 96.4424 80.8603 98.5645 71.8854 98.5645C63.8297 98.5645 59.1205 97.6781 56.4654 93.6406C55.8516 92.7072 55.6512 91.4499 56.3566 90.5836C58.4453 88.0187 64.1593 89.085 71.8854 89.085C80.8603 89.085 88.136 91.2071 88.136 93.8247Z" fill="#ADD68C"/>
<path fill-rule="evenodd" clip-rule="evenodd" d="M55.5669 58.3948C43.8948 66.8936 56.1395 81.05 70.7012 89.0003C69.3123 89.0364 65.5135 88.9986 62.1576 88.719C54.1966 84.158 45.6184 75.8412 48.6104 64.286C49.7982 59.6986 52.5911 58.2643 55.5669 58.3948Z" fill="#9FC581"/>
<path fill-rule="evenodd" clip-rule="evenodd" d="M80.9543 89.9632C67.7117 92.2828 61.3216 91.3389 58.8597 89.1973C57.7751 89.4514 56.9299 89.8817 56.3572 90.5849C55.6518 91.4512 55.8522 92.7086 56.466 93.642C59.1211 97.6794 63.8303 98.5658 71.8859 98.5658C80.8609 98.5658 87.1035 96.4437 87.1035 93.826C87.1035 92.2324 84.7898 90.8224 80.9543 89.9632Z" fill="#9FC581"/>
<path d="M111.734 100.087C136.269 100.087 172.961 91.4544 150.966 35.2544C149.475 31.4457 145.962 23.405 142.661 15.8722C143.084 14.8565 143.218 13.686 143.253 12.5713C143.253 5.65308 137.645 0.0447703 130.727 0.0447703C127.68 -0.293784 124.661 1.37077 123.533 2.24537C121.642 3.8535 118.2 7.66224 115.915 6.81585C111.582 5.66477 107.451 6.33623 105.928 6.81585C103.642 7.66224 100.201 3.8535 98.3103 2.24537C97.5485 1.4272 95.0771 -0.15836 91.2853 0.0447703C84.3671 0.0447703 78.7588 5.65308 78.7588 12.5713C78.7928 13.6597 78.9281 14.3487 79.4359 15.5336C76.7275 23.1511 73.7651 31.8688 71.3106 37.1164C49.4739 92.1315 87.1995 100.087 111.734 100.087Z" fill="#ADD68C"/>
<path fill-rule="evenodd" clip-rule="evenodd" d="M136.532 86.7147C145.955 86.489 159.757 72.1738 139.579 16.7187C141.554 11.3582 141.661 0.637371 126.629 0.637371C126.624 0.629877 126.619 0.622372 126.614 0.614857C127.847 0.173354 129.283 -0.11556 130.726 0.04477C137.645 0.04477 143.253 5.65307 143.253 12.5713C143.218 13.686 143.084 14.8565 142.66 15.8722C145.961 23.405 149.475 31.4457 150.965 35.2544C170.29 84.6289 144.315 97.2889 121.084 99.6357C120.675 95.8547 120.9 92.1995 121.382 89.4232L136.532 86.7147Z" fill="#9FC581"/>
<path fill-rule="evenodd" clip-rule="evenodd" d="M85.5167 86.7147C76.0936 86.489 62.2919 72.1738 82.4697 16.7187C80.4948 11.3582 80.3876 0.637371 95.4194 0.637371C95.4245 0.629877 95.4296 0.622372 95.4347 0.614857C94.2021 0.173354 92.7655 -0.11556 91.3225 0.04477C84.4043 0.04477 78.796 5.65307 78.796 12.5713C78.8309 13.686 78.9653 14.8565 79.3885 15.8722C76.0876 23.405 72.5743 31.4457 71.0836 35.2544C51.7593 84.6289 77.7338 97.2889 100.965 99.6357C101.374 95.8547 101.148 92.1995 100.667 89.4232L85.5167 86.7147Z" fill="#9FC581"/>
<ellipse cx="92.0558" cy="13.0783" rx="3.77065" ry="4.57048" fill="#5F4B3D"/>
<ellipse cx="128.773" cy="13.0783" rx="3.77065" ry="4.57048" fill="#5F4B3D"/>
<path d="M115.858 21.6279C111.565 24.2583 108.26 22.6767 106.703 21.6279C105.273 20.6744 106.038 19.5053 106.703 19.9724C108.26 21.0212 111.311 22.9521 115.858 19.9724C116.524 19.5053 117.32 20.7326 115.858 21.6279Z" fill="#5F4B3D"/>
<ellipse cx="142.117" cy="25.6904" rx="8.1253" ry="7.19427" fill="#DBB396"/>
<ellipse cx="80.6702" cy="25.6904" rx="8.1253" ry="7.19427" fill="#DBB396"/>
<path fill-rule="evenodd" clip-rule="evenodd" d="M135.421 96.3902C127.833 99.4209 119.232 100.302 111.806 100.302C103.967 100.302 94.7066 99.397 86.6683 96.0881C77.1398 81.2367 70.5611 55.3792 88.9876 40.8532C101.683 30.8456 121.177 30.8139 133.82 40.8871C152.184 55.5185 145.084 81.6012 135.421 96.3902Z" fill="#DAEDB8"/>
<path fill-rule="evenodd" clip-rule="evenodd" d="M111.808 100.301C119.233 100.301 127.834 99.4205 135.423 96.3898C137.47 93.2565 139.402 89.6164 141.002 85.6855C115.279 96.2932 96.4537 91.5164 81.3574 85.7234C82.8756 89.5141 84.7103 93.0336 86.6698 96.0876C94.7081 99.3966 103.969 100.301 111.808 100.301Z" fill="#B7CF8C" fill-opacity="0.5"/>
<path d="M125.462 102.966C131.387 94.0788 134.671 86.0382 139.326 74.7812L115.863 84.8811C115.079 90.1916 113.469 101.266 113.473 102.801C113.48 104.989 117.107 105.61 118.196 103.361C118.583 102.63 119.023 102.518 119.373 102.624C119.754 102.739 119.835 103.203 120.001 103.565C120.71 105.111 124.217 104.832 125.462 102.966Z" fill="#DAEDB8"/>
<path fill-rule="evenodd" clip-rule="evenodd" d="M137.669 77.2273C133.531 89.5692 129.355 100.131 125.701 103.362C124.021 104.847 120.671 105.11 119.996 103.567C119.963 103.491 119.933 103.41 119.903 103.329C119.789 103.024 119.675 102.716 119.374 102.625C119.024 102.519 118.584 102.63 118.197 103.362C117.108 105.61 113.481 104.99 113.474 102.802C113.474 102.59 113.504 102.197 113.558 101.661C115.613 102.511 116.419 101.41 117.235 100.294C117.751 99.5882 118.271 98.8769 119.114 98.6499C120.098 98.3848 120.08 98.8484 120.056 99.4417C120.026 100.174 119.989 101.104 121.822 101.104C124.853 101.104 134.248 83.2457 137.803 76.4746L137.669 77.2273Z" fill="#ADD68C"/>
<path d="M97.3157 102.966C91.3908 94.0788 88.1063 86.0382 83.4512 74.7812L106.914 84.8811C107.699 90.1916 109.309 101.266 109.304 102.801C109.298 104.989 105.67 105.61 104.581 103.361C104.195 102.63 103.754 102.518 103.405 102.624C103.024 102.739 102.942 103.203 102.776 103.565C102.068 105.111 98.5599 104.832 97.3157 102.966Z" fill="#DAEDB8"/>
<path fill-rule="evenodd" clip-rule="evenodd" d="M85.1104 77.2273C89.2485 89.5692 93.4246 100.131 97.0787 103.362C98.7583 104.847 102.109 105.11 102.783 103.567C102.816 103.491 102.846 103.41 102.876 103.329C102.99 103.024 103.105 102.716 103.406 102.625C103.755 102.519 104.196 102.63 104.582 103.362C105.671 105.61 109.299 104.99 109.305 102.802C109.306 102.59 109.276 102.197 109.221 101.661C107.166 102.511 106.36 101.41 105.545 100.294C105.029 99.5882 104.509 98.8769 103.666 98.6499C102.681 98.3848 102.7 98.8484 102.724 99.4417C102.753 100.174 102.791 101.104 100.957 101.104C97.9263 101.104 88.5314 83.2457 84.9766 76.4746L85.1104 77.2273Z" fill="#ADD68C"/>
<defs>
<linearGradient id="paint0_linear_882_95" x1="214.716" y1="51.3625" x2="212.731" y2="63.8359" gradientUnits="userSpaceOnUse">
<stop stop-color="#F1B09E"/>
<stop offset="1" stop-color="#FAE6CE"/>
</linearGradient>
<linearGradient id="paint1_linear_882_95" x1="191.376" y1="51.9289" x2="193.361" y2="64.4023" gradientUnits="userSpaceOnUse">
<stop stop-color="#F1B09E"/>
<stop offset="1" stop-color="#FAE6CE"/>
</linearGradient>
<linearGradient id="paint2_linear_882_95" x1="185.25" y1="74.8913" x2="203.251" y2="86.2308" gradientUnits="userSpaceOnUse">
<stop stop-color="#EFB7A4"/>
<stop offset="0.942708" stop-color="#F7E7D8"/>
</linearGradient>
<linearGradient id="paint3_linear_882_95" x1="185.25" y1="74.8913" x2="203.251" y2="86.2308" gradientUnits="userSpaceOnUse">
<stop stop-color="#EFB7A4"/>
<stop offset="0.942708" stop-color="#F7E7D8"/>
</linearGradient>
<radialGradient id="paint4_radial_882_95" cx="0" cy="0" r="1" gradientUnits="userSpaceOnUse" gradientTransform="translate(203.375 57.0322) rotate(90.269) scale(30.1917 22.5311)">
<stop stop-color="#FADFCC"/>
<stop offset="1" stop-color="#F1BEAB"/>
</radialGradient>
<linearGradient id="paint5_linear_882_95" x1="220.871" y1="74.9675" x2="202.87" y2="86.3069" gradientUnits="userSpaceOnUse">
<stop stop-color="#EFB7A4"/>
<stop offset="0.942708" stop-color="#F7E7D8"/>
</linearGradient>
<linearGradient id="paint6_linear_882_95" x1="220.871" y1="74.9675" x2="202.87" y2="86.3069" gradientUnits="userSpaceOnUse">
<stop stop-color="#EFB7A4"/>
<stop offset="0.942708" stop-color="#F7E7D8"/>
</linearGradient>
<radialGradient id="paint7_radial_882_95" cx="0" cy="0" r="1" gradientUnits="userSpaceOnUse" gradientTransform="translate(202.277 84.3963) rotate(-40.9302) scale(23.1018 31.7709)">
<stop stop-color="#FCE5D0"/>
<stop offset="1" stop-color="#EFB7A4"/>
</radialGradient>
<radialGradient id="paint8_radial_882_95" cx="0" cy="0" r="1" gradientUnits="userSpaceOnUse" gradientTransform="translate(201.189 84.7701) rotate(-128.137) scale(23.1371 30.117)">
<stop stop-color="#FCE5D0"/>
<stop offset="1" stop-color="#EFB7A4"/>
</radialGradient>
<linearGradient id="paint9_linear_882_95" x1="197.293" y1="62.9863" x2="197.293" y2="87.6497" gradientUnits="userSpaceOnUse">
<stop stop-color="#F0BFAF"/>
<stop offset="1" stop-color="#F0BFAF" stop-opacity="0"/>
</linearGradient>
<linearGradient id="paint10_linear_882_95" x1="211.198" y1="64.6855" x2="211.198" y2="87.5063" gradientUnits="userSpaceOnUse">
<stop stop-color="#F4B59C"/>
<stop offset="1" stop-color="#F1C4B2" stop-opacity="0"/>
</linearGradient>
<linearGradient id="paint11_linear_882_95" x1="198.338" y1="72.5012" x2="196.056" y2="87.2084" gradientUnits="userSpaceOnUse">
<stop stop-color="#F1BCA9"/>
<stop offset="1" stop-color="#F1BCA9" stop-opacity="0"/>
</linearGradient>
</defs>
</svg>
