<svg width="1440" height="78" viewBox="0 0 1440 78" fill="none" xmlns="http://www.w3.org/2000/svg">
<path fill-rule="evenodd" clip-rule="evenodd" d="M0 20C92.608 24.1251 175.815 30.4766 237.356 39.2384C653.107 98.4297 894.587 74.0829 1216.19 39.2381C1292.78 30.9404 1366.97 24.8113 1440 20.5632V0.563249C1366.97 4.81133 1292.78 10.9404 1216.19 19.2381C894.587 54.0829 653.107 78.4297 237.356 19.2384C175.814 10.4766 92.608 4.12509 0 0V20Z" fill="url(#paint0_linear_2466_7006)"/>
<path fill-rule="evenodd" clip-rule="evenodd" d="M0 77.8884H1440V20.5633C1366.97 24.8113 1292.78 30.9404 1216.19 39.2381C894.587 74.0829 653.107 98.4297 237.356 39.2384C175.815 30.4766 92.608 24.1251 0 20V77.8884Z" fill="url(#paint1_linear_2466_7006)"/>
<defs>
<linearGradient id="paint0_linear_2466_7006" x1="-95.8178" y1="40.7457" x2="1590.66" y2="87.4759" gradientUnits="userSpaceOnUse">
<stop stop-color="#8D7454"/>
<stop offset="0.489583" stop-color="#B79C7A"/>
<stop offset="1" stop-color="#8D7454"/>
</linearGradient>
<linearGradient id="paint1_linear_2466_7006" x1="720" y1="804.891" x2="720.79" y2="85.8906" gradientUnits="userSpaceOnUse">
<stop stop-color="#034444"/>
<stop offset="1" stop-color="#32BEC7"/>
</linearGradient>
</defs>
</svg>
