<svg width="1440" height="1362" viewBox="0 0 1440 1362" fill="none" xmlns="http://www.w3.org/2000/svg">
<path d="M2681.12 978.35C3191.2 748.785 3659.2 714.754 3871.2 812.45C4061.7 1016.77 4288.02 1557.61 3851.62 1286.53C3701.29 1139.99 3301.84 878.117 3037.62 924.8C2530.62 1014.38 2467.19 1350.16 2124.7 1262.79C1832.7 1188.3 1904.76 929.399 1493.7 903.492C929.696 867.948 631.195 1466.3 22.1953 1134.75C-230.205 1069.71 -211.71 818.823 -188.377 745.145C241.623 1053.33 816.122 1119.05 1077.62 942.324C1570.86 608.979 1848.62 712.039 1926.12 838.622C2013.39 981.169 2277.62 1159.95 2681.12 978.35Z" fill="white" fill-opacity="0.06"/>
<path d="M-1064.58 382.665C-1574.66 612.23 -2042.66 646.261 -2254.66 548.565C-2445.16 344.248 -2671.48 -196.598 -2235.08 74.4838C-2084.74 221.028 -1685.3 482.899 -1421.08 436.216C-914.078 346.639 -850.646 10.8527 -508.152 98.2227C-216.153 172.712 -288.216 431.617 122.848 457.523C686.847 493.068 985.348 -105.284 1594.35 226.266C1846.75 291.31 1828.25 542.193 1804.92 615.87C1374.92 307.69 800.421 241.963 538.922 418.692C45.6831 752.037 -232.078 648.977 -309.578 522.393C-396.852 379.847 -661.077 201.067 -1064.58 382.665Z" fill="white" fill-opacity="0.06"/>
</svg>
