<svg width="651" height="800" viewBox="0 0 651 800" fill="none" xmlns="http://www.w3.org/2000/svg">
<path d="M456.207 366.652C450.638 362.922 442.026 365.098 438.417 366.652L415.212 414.047C430.166 452.896 462.394 532.146 471.676 538.362C483.278 546.132 497.974 550.794 520.405 543.024C542.836 535.254 546.703 494.852 512.67 444.349C478.637 393.846 463.168 371.314 456.207 366.652Z" fill="#947A67"/>
<path d="M163.658 366.652C169.257 362.922 177.917 365.098 181.546 366.652L204.879 414.047C189.842 452.896 157.435 532.146 148.102 538.362C136.436 546.132 121.658 550.794 99.1025 543.024C76.5471 535.254 72.6583 494.852 106.88 444.349C141.102 393.846 156.658 371.314 163.658 366.652Z" fill="#947A67"/>
<path d="M508.906 472.251C499.194 450.45 460.601 388.575 445.174 363.595C445.933 362.586 443.122 361.865 449.192 363.595C454.502 365.109 457.537 365.109 512.923 446.86C563.356 521.302 524.403 543.827 505.336 546.022C485.609 548.293 468.918 537.695 464.366 532.397C456.273 518.267 449.551 506.227 467.177 518.425C508.147 546.779 521.045 499.501 508.906 472.251Z" fill="#846853"/>
<rect width="269.553" height="134.776" transform="matrix(-1 0 0 1 445.163 354.382)" fill="#947A67"/>
<path d="M475.444 556.491C462.386 490.478 452.494 467.586 453.503 463.292H166.129C167.138 467.586 153.791 489.886 144.188 556.491C131.953 641.356 166 676.968 178.105 694.396C180.432 697.745 228.04 711.823 287.054 698.184C290.685 692.123 296.637 655.5 297.646 648.933C305.514 650.145 320.848 649.438 322.613 648.933C323.622 655.5 334.113 692.123 337.745 698.184C399.785 712.581 436.197 697.23 439.128 694.396C461.069 673.18 491.332 636.809 475.444 556.491Z" fill="#947A67"/>
<rect width="315.159" height="22.4627" transform="matrix(-1 0 0 1 469.668 448.317)" fill="#947A67"/>
<path d="M202.838 520.811C202.838 611.436 250.989 637.549 310.387 637.549C369.784 637.549 417.936 614.508 417.936 520.811C417.936 456.338 369.784 404.073 310.387 404.073C250.989 404.073 202.838 456.338 202.838 520.811Z" fill="#BA9B87"/>
<path d="M477.763 571.517C468.526 515.517 453.018 465.407 451.251 446.459C450.241 433.574 445.645 431.3 441.403 431.3C436.101 431.3 438.373 450.248 451.251 526.041C464.128 601.834 435.343 653.373 419.435 667.016C400.876 682.933 358.681 691.801 332.169 680.432L338.382 696.575C397.468 710.976 433.071 696.575 436.858 694.302C440.646 692.028 490.641 649.584 477.763 571.517Z" fill="#846853"/>
<path d="M168.67 437.156C166.853 445.631 166.146 464.146 165.641 471.965L150.425 536.126C133.768 548.99 83.8705 555.961 82.3563 516.612C92.1991 530.989 105.827 533.259 114.156 530.989C124.756 530.989 137.627 497.694 140.656 481.803C143.614 466.281 170.941 426.562 168.67 437.156Z" fill="#846853"/>
<path d="M284.188 697.513C289.682 696.462 293.544 670.604 294.05 663.562L292.533 662.053C288.234 676.137 272.506 698.72 168.122 676.388C170.55 680.613 177.479 691.729 180.26 694.495C231.845 708.83 264.464 701.285 284.188 697.513Z" fill="#846853"/>
<path d="M377.158 629.739C359.884 640.86 336.01 646.959 323.203 648.91C323.819 655.297 328.692 670.943 334.576 687.565C350.299 692.065 359.014 695.235 365.141 695.36C364.123 690.087 362.122 676.743 362.266 665.555C362.446 651.571 398.75 615.838 377.158 629.739Z" fill="#846853"/>
<path d="M235.715 635.275C253.806 644.494 283.958 648.195 296.773 648.894C296.773 655.179 293.23 670.893 289.008 687.654C273.932 693.52 259.837 697.431 253.806 698.13C254.309 692.892 255.012 679.692 253.806 668.798C252.299 655.179 213.101 623.752 235.715 635.275Z" fill="#846853"/>
<path d="M334.125 180.608C341.747 209.052 370.984 225.932 399.428 218.311C424.885 204.59 444.752 181.452 437.13 153.008C429.509 124.564 400.272 107.684 371.827 115.306C343.383 122.927 332.372 151.178 334.125 180.608Z" fill="#947A67"/>
<path d="M334.125 180.608C341.747 209.052 370.984 225.932 399.428 218.311C424.885 204.59 444.752 181.452 437.13 153.008C429.509 124.564 400.272 107.684 371.827 115.306C343.383 122.927 332.372 151.178 334.125 180.608Z" stroke="#5F4B3D"/>
<path d="M402.672 192.897C436.202 150.767 401.272 123.707 377.084 114.587C455.49 115.062 443.166 195.09 411.188 207.495C396.067 220.754 369.143 235.027 402.672 192.897Z" fill="#846853"/>
<ellipse cx="28.9924" cy="30.6587" rx="28.9924" ry="30.6587" transform="matrix(-0.965926 0.258819 0.258819 0.965926 403.271 129.65)" fill="#C6A195"/>
<path d="M398.568 139.927C426.664 154.026 414.179 188.222 400.175 196.721L383.371 181.561C406.078 163.273 375.669 128.434 398.568 139.927Z" fill="#B59084"/>
<path d="M199.228 215.374C206.85 243.818 189.826 273.093 161.204 280.763C132.127 281.654 103.201 271.59 95.5794 243.146C87.9578 214.702 104.982 185.427 133.604 177.757C162.226 170.088 185.995 189.019 199.228 215.374Z" fill="#947A67"/>
<path d="M199.228 215.374C206.85 243.818 189.826 273.093 161.204 280.763C132.127 281.654 103.201 271.59 95.5794 243.146C87.9578 214.702 104.982 185.427 133.604 177.757C162.226 170.088 185.995 189.019 199.228 215.374Z" stroke="#5F4B3D"/>
<path d="M160.994 256.947C194.355 214.839 159.802 188.42 135.691 179.268C206.465 169.518 201.346 259.188 169.496 271.561C154.444 284.808 127.633 299.056 160.994 256.947Z" fill="#846853"/>
<ellipse cx="32.6581" cy="31.9917" rx="32.6581" ry="31.9917" transform="matrix(-0.965926 0.258819 0.258819 0.965926 171.164 190.463)" fill="#C6A195"/>
<path d="M163.822 201.635C193.841 216.191 180.206 252.082 165.13 261.08L147.225 245.332C171.702 226.021 139.354 189.77 163.822 201.635Z" fill="#B59084"/>
<path d="M124.391 338.293C133.156 391.96 175.372 417.551 317.265 387.987C440.639 351.854 476.684 299.912 453.7 250.055C408.863 152.792 344.737 131.534 254.992 155.582C165.247 179.629 126.717 213.017 124.391 338.293Z" fill="#947A67"/>
<path d="M124.391 338.293C133.156 391.96 175.372 417.551 317.265 387.987C440.639 351.854 476.684 299.912 453.7 250.055C408.863 152.792 344.737 131.534 254.992 155.582C165.247 179.629 126.717 213.017 124.391 338.293Z" stroke="#7D6655"/>
<path d="M320.621 147.656C320.795 147.656 320.971 147.657 321.15 147.659C328.599 147.838 345.926 154.166 367.514 176.577C395.16 205.278 420.723 263.441 424.829 278.764C428.67 293.1 428.931 308.395 412.389 329.73C396.328 350.443 303.692 399.573 180.802 396.393C261.965 409.985 361.35 374.136 408.929 348.327C456.509 322.517 460.948 287.524 458.103 268.312C455.257 249.099 430.599 205.77 401.328 176.736C378.15 153.745 338.58 147.792 321.15 147.659C320.968 147.654 320.791 147.653 320.621 147.656Z" fill="#846853"/>
<ellipse cx="37.9901" cy="33.3246" rx="37.9901" ry="33.3246" transform="matrix(-0.965926 0.258819 0.258819 0.965926 328.282 284.985)" fill="#C6AA95"/>
<path d="M275.962 318.907C277.135 323.285 287.084 321.792 298.995 318.601C310.906 315.409 320.268 311.727 319.095 307.35C317.922 302.972 307.973 304.465 296.062 307.656C284.151 310.848 274.789 314.529 275.962 318.907Z" fill="#5F4B3D"/>
<path d="M231.438 294.374C224.236 292.138 207.329 290.836 197.317 303.516" stroke="#5F4B3D" stroke-width="9" stroke-linecap="round"/>
<path d="M375.001 255.906C367.799 253.67 350.892 252.369 340.881 265.049" stroke="#5F4B3D" stroke-width="9" stroke-linecap="round"/>
<path d="M287.521 341.447C293.819 339.759 303.615 337.134 296.888 312.027" stroke="#5F4B3D" stroke-width="9" stroke-linecap="round"/>
<path d="M319.71 332.822C313.16 334.577 302.972 337.307 296.244 312.199" stroke="#5F4B3D" stroke-width="9" stroke-linecap="round"/>
<ellipse cx="31.9917" cy="28.3259" rx="31.9917" ry="28.3259" transform="matrix(-0.965926 0.258819 0.258819 0.965926 199.857 310.426)" fill="#CD9F99"/>
<ellipse cx="331.614" cy="244.653" rx="8.31894" ry="11.2003" transform="rotate(50.5568 331.614 244.653)" fill="#C6AA95"/>
<ellipse cx="8.31894" cy="11.2003" rx="8.31894" ry="11.2003" transform="matrix(-0.16407 0.986449 0.986449 0.16407 221.633 261.484)" fill="#C6AA95"/>
<ellipse cx="31.9917" cy="28.3259" rx="31.9917" ry="28.3259" transform="matrix(-0.965926 0.258819 0.258819 0.965926 433.551 247.807)" fill="#CD9F99"/>
<path d="M415.227 254.787C419.803 266.083 428.68 292.276 424.692 307.451C458.283 285.417 435.355 254.761 415.227 254.787Z" fill="#C58D85"/>
<path d="M132.309 272.635C137.942 227.277 166.691 197.804 180.362 188.737L174.333 183.404C145.348 194.259 130.084 246.212 126.337 270.375L132.309 272.635Z" fill="#927763" fill-opacity="0.3"/>
<path d="M418.319 208.419C390.762 171.954 351.127 160.804 334.755 159.787L337.309 152.155C367.839 147.062 407.034 184.423 422.361 203.476L418.319 208.419Z" fill="#927763" fill-opacity="0.3"/>
<path d="M334.125 180.608C341.747 209.052 370.984 225.932 399.428 218.311C424.885 204.59 444.752 181.452 437.13 153.008C429.509 124.564 400.272 107.684 371.827 115.306C343.383 122.927 332.372 151.178 334.125 180.608Z" fill="#947A67"/>
<path d="M334.125 180.608C341.747 209.052 370.984 225.932 399.428 218.311C424.885 204.59 444.752 181.452 437.13 153.008C429.509 124.564 400.272 107.684 371.827 115.306C343.383 122.927 332.372 151.178 334.125 180.608Z" stroke="#5F4B3D"/>
<path d="M402.672 192.897C436.202 150.767 401.272 123.707 377.084 114.587C455.49 115.062 443.166 195.09 411.188 207.495C396.067 220.754 369.143 235.027 402.672 192.897Z" fill="#846853"/>
<ellipse cx="28.9924" cy="30.6587" rx="28.9924" ry="30.6587" transform="matrix(-0.965926 0.258819 0.258819 0.965926 403.271 129.65)" fill="#C6A195"/>
<path d="M398.568 139.927C426.664 154.026 414.179 188.222 400.175 196.721L383.371 181.561C406.078 163.273 375.669 128.434 398.568 139.927Z" fill="#B59084"/>
<path d="M199.228 215.374C206.85 243.818 189.826 273.093 161.204 280.763C132.127 281.654 103.201 271.59 95.5794 243.146C87.9578 214.702 104.982 185.427 133.604 177.757C162.226 170.088 185.995 189.019 199.228 215.374Z" fill="#947A67"/>
<path d="M199.228 215.374C206.85 243.818 189.826 273.093 161.204 280.763C132.127 281.654 103.201 271.59 95.5794 243.146C87.9578 214.702 104.982 185.427 133.604 177.757C162.226 170.088 185.995 189.019 199.228 215.374Z" stroke="#5F4B3D"/>
<path d="M160.994 256.947C194.355 214.839 159.802 188.42 135.691 179.268C206.465 169.518 201.346 259.188 169.496 271.561C154.444 284.808 127.633 299.056 160.994 256.947Z" fill="#846853"/>
<ellipse cx="32.6581" cy="31.9917" rx="32.6581" ry="31.9917" transform="matrix(-0.965926 0.258819 0.258819 0.965926 171.164 190.463)" fill="#C6A195"/>
<path d="M163.822 201.635C193.841 216.191 180.206 252.082 165.13 261.08L147.225 245.332C171.702 226.021 139.354 189.77 163.822 201.635Z" fill="#B59084"/>
<path d="M124.391 338.293C133.156 391.96 175.372 417.551 317.265 387.987C440.639 351.854 476.684 299.912 453.7 250.055C408.863 152.792 344.737 131.534 254.992 155.582C165.247 179.629 126.717 213.017 124.391 338.293Z" fill="#947A67"/>
<path d="M124.391 338.293C133.156 391.96 175.372 417.551 317.265 387.987C440.639 351.854 476.684 299.912 453.7 250.055C408.863 152.792 344.737 131.534 254.992 155.582C165.247 179.629 126.717 213.017 124.391 338.293Z" stroke="#7D6655"/>
<path d="M320.621 147.656C320.795 147.656 320.971 147.657 321.15 147.659C328.599 147.838 345.926 154.166 367.514 176.577C395.16 205.278 420.723 263.441 424.829 278.764C428.67 293.1 428.931 308.395 412.389 329.73C396.328 350.443 303.692 399.573 180.802 396.393C261.965 409.985 361.35 374.136 408.929 348.327C456.509 322.517 460.948 287.524 458.103 268.312C455.257 249.099 430.599 205.77 401.328 176.736C378.15 153.745 338.58 147.792 321.15 147.659C320.968 147.654 320.791 147.653 320.621 147.656Z" fill="#846853"/>
<ellipse cx="37.9901" cy="33.3246" rx="37.9901" ry="33.3246" transform="matrix(-0.965926 0.258819 0.258819 0.965926 328.282 284.985)" fill="#C6AA95"/>
<path d="M275.962 318.907C277.135 323.285 287.084 321.792 298.995 318.601C310.906 315.409 320.268 311.727 319.095 307.35C317.922 302.972 307.973 304.465 296.062 307.656C284.151 310.848 274.789 314.529 275.962 318.907Z" fill="#5F4B3D"/>
<path d="M231.438 294.374C224.236 292.138 207.329 290.836 197.317 303.516" stroke="#5F4B3D" stroke-width="9" stroke-linecap="round"/>
<path d="M375.001 255.906C367.799 253.67 350.892 252.369 340.881 265.049" stroke="#5F4B3D" stroke-width="9" stroke-linecap="round"/>
<path d="M287.521 341.447C293.819 339.759 303.615 337.134 296.888 312.027" stroke="#5F4B3D" stroke-width="9" stroke-linecap="round"/>
<path d="M319.71 332.822C313.16 334.577 302.972 337.307 296.244 312.199" stroke="#5F4B3D" stroke-width="9" stroke-linecap="round"/>
<ellipse cx="31.9917" cy="28.3259" rx="31.9917" ry="28.3259" transform="matrix(-0.965926 0.258819 0.258819 0.965926 199.857 310.426)" fill="#CD9F99"/>
<ellipse cx="331.614" cy="244.653" rx="8.31894" ry="11.2003" transform="rotate(50.5568 331.614 244.653)" fill="#C6AA95"/>
<ellipse cx="8.31894" cy="11.2003" rx="8.31894" ry="11.2003" transform="matrix(-0.16407 0.986449 0.986449 0.16407 221.633 261.484)" fill="#C6AA95"/>
<ellipse cx="31.9917" cy="28.3259" rx="31.9917" ry="28.3259" transform="matrix(-0.965926 0.258819 0.258819 0.965926 433.551 247.807)" fill="#CD9F99"/>
<path d="M415.227 254.787C419.803 266.083 428.68 292.276 424.692 307.451C458.283 285.417 435.355 254.761 415.227 254.787Z" fill="#C58D85"/>
<path d="M132.309 272.635C137.942 227.277 166.691 197.804 180.362 188.737L174.333 183.404C145.348 194.259 130.084 246.212 126.337 270.375L132.309 272.635Z" fill="#927763" fill-opacity="0.3"/>
<path d="M418.319 208.419C390.762 171.954 351.127 160.804 334.755 159.787L337.309 152.155C367.839 147.062 407.034 184.423 422.361 203.476L418.319 208.419Z" fill="#927763" fill-opacity="0.3"/>
<path d="M419.642 342.837C434.042 339.637 449.976 355.837 456.142 364.337C468.309 382.171 487.742 411.737 468.142 387.337C448.542 362.937 401.642 356.171 380.642 355.837C387.642 352.837 405.242 346.037 419.642 342.837Z" fill="#846853"/>
</svg>
