<svg width="736" height="751" viewBox="0 0 736 751" fill="none" xmlns="http://www.w3.org/2000/svg">
<path d="M133.83 565.5C149.858 660.821 280.33 724 352.83 724C362.164 724 380.03 707.7 376.83 642.5C373.63 577.3 303.83 577 269.33 585C237.83 571.167 224.23 530.8 299.83 436C394.33 317.5 300.33 164.646 191.33 147.5C114.011 135.337 44.8307 168 14.8303 214C-18.3375 264.856 19.3303 363.5 50.8303 339.5C113.575 291.694 165.83 312.5 159.33 408C155.663 461.875 124.33 509 133.83 565.5Z" fill="#FFFCF9"/>
<path d="M133.83 565.5C149.858 660.821 280.33 724 352.83 724C362.164 724 380.03 707.7 376.83 642.5C373.63 577.3 303.83 577 269.33 585C237.83 571.167 224.23 530.8 299.83 436C394.33 317.5 300.33 164.646 191.33 147.5C114.011 135.337 44.8307 168 14.8303 214C-18.3375 264.856 19.3303 363.5 50.8303 339.5C113.575 291.694 165.83 312.5 159.33 408C155.663 461.875 124.33 509 133.83 565.5Z" fill="#EAC8AD"/>
<path d="M48.8301 341C72.6373 331.027 104.83 295 141.33 327.5C132.385 311.096 141.897 280.006 170.128 290.95C170.127 272.5 175.831 257 202.329 253C185.33 227 208.699 198.718 238.927 221.377C226.329 208.5 240.253 169.556 270.83 186C133.83 80.0001 25.8301 193.5 11.8301 218C-17.1939 268.792 11.8301 356.5 48.8301 341Z" fill="#F3EFEA"/>
<path d="M47.8301 341C33.0464 352.188 14.9967 321.667 11.8301 308.5C40.4967 269.667 112.23 207 171.83 275C170.83 279.333 169.13 288.6 170.33 291C171.83 294 128.83 280.5 140.33 324C102.511 299.617 66.6724 326.74 48.0951 340.799L47.8301 341Z" fill="#DED2C7"/>
<path d="M144.83 481.5C216.43 390.7 191.663 305.5 172.33 275.5C170.73 278.3 170.163 287.333 170.33 291C137.33 279.5 131.83 314 142.83 326.5C173.63 368.9 157.663 447.167 144.83 481.5Z" fill="#E6B895"/>
<path d="M158.829 621C214.829 696 315.664 723.167 350.33 723C462.33 689.4 342.164 618 267.831 585.5C245.164 578.333 215.831 537 291.829 445C385.175 332 311.83 225.5 283.33 199.5C301.331 356.5 247.329 387 218.829 426C190.329 465 150.829 513.5 168.329 569.5C176.084 594.316 174.496 609 158.829 621Z" fill="#D2A787"/>
<path d="M447.246 83.5001C476.446 80.3001 515.03 82.1667 529.364 83.5001C565.28 32.0001 622.28 -12.4999 630.28 4.50003C637.553 19.955 639.28 83.5001 639.28 118.5C652.28 145 685.196 225 613.78 277.5C655.414 368.5 814.022 691.5 587.022 733.5C565.33 738 481.93 753.5 386.33 733.5C159.33 691.5 321.196 368.5 362.83 277.5C291.414 225 324.33 145 337.33 118.5C337.33 83.5001 339.057 19.9551 346.33 4.50004C354.33 -12.4999 411.33 32.0001 447.246 83.5001Z" fill="#F3EFEA"/>
<path d="M447.245 83.5001C476.445 80.3001 515.03 82.1667 529.363 83.5001C565.279 32.0001 622.279 -12.4999 630.279 4.50003C637.552 19.955 639.279 83.5001 639.279 118.5C644.33 130.5 650.33 142.5 654.33 160C620.663 178 539.13 196.6 488.33 127C437.53 196.6 355.497 178 321.83 160C325.83 142.5 332.279 130.5 337.329 118.5C337.329 83.5001 339.056 19.9551 346.329 4.50004C354.329 -12.4999 411.329 32.0001 447.245 83.5001Z" fill="#EAC8AD"/>
<ellipse cx="16.5" cy="20" rx="16.5" ry="20" transform="matrix(-1 0 0 1 564.33 148)" fill="#5F4B3D"/>
<ellipse cx="16.5" cy="20" rx="16.5" ry="20" transform="matrix(-1 0 0 1 450.33 148)" fill="#5F4B3D"/>
<path d="M506.693 182.607C516.105 187.842 499.938 199.775 490.252 206.011C482.423 199.364 466.313 188.083 472.703 183.427C482.103 176.579 498.074 177.814 506.693 182.607Z" fill="#5F4B3D"/>
<path d="M454.83 210C481.83 234 496.997 214 495.83 202C492.997 197.5 486.163 191.829 485.33 201C483.33 223 464.408 206.52 458.33 205C454.33 204 453.663 208.5 454.83 210Z" fill="#5F4B3D"/>
<path d="M525.377 210C498.377 234 483.21 214 484.377 202C487.21 197.5 494.044 191.829 494.877 201C496.877 223 515.799 206.52 521.877 205C525.877 204 526.544 208.5 525.377 210Z" fill="#5F4B3D"/>
<path d="M614.83 276.5C662.83 246.9 661.164 186.5 654.33 160C645.93 165.2 630.164 170.167 623.33 172C630.164 198.5 629.83 243.4 581.83 273C587.664 277.5 600.43 284.5 614.83 276.5Z" fill="#DED2C7"/>
<path d="M364.887 276.5C316.887 246.9 318.553 186.5 325.387 160C333.787 165.2 349.553 170.167 356.387 172C349.553 198.5 349.886 243.4 397.886 273C392.053 277.5 379.287 284.5 364.887 276.5Z" fill="#DED2C7"/>
<path d="M424.33 303.5C475.93 361.9 529.193 327.833 548.693 303.5C579.893 263.5 541.027 271.833 517.693 281C508.527 284.5 479.33 289.4 455.33 281C431.997 271.833 393.13 263.5 424.33 303.5Z" fill="#DED2C7"/>
<path d="M563.33 81.5C573.33 63.5 602.93 19.5 617.33 13.5" stroke="#AD8A70" stroke-width="3" stroke-linecap="round"/>
<path d="M400.438 70.7967C400.57 71.0335 400.701 71.2679 400.83 71.5C400.712 71.28 400.581 71.0451 400.438 70.7967C390.3 52.6664 370.044 20.9226 355.83 15C353.163 25 347.43 52.3 347.83 75.5C358.83 55 374.33 86 377.83 75.5C381.33 65 366.83 54 376.33 58.5C385.83 63 387.83 79.5 386.83 68C385.83 56.5 364.83 42 378.83 49.5C389.502 55.2171 397.541 65.7765 400.438 70.7967Z" fill="#FFEEE7"/>
<path d="M401.83 72.5C399.33 67.8333 391.03 56.5 379.83 50.5C365.83 43 386.83 57.5 387.83 69C388.83 80.5 386.83 64 377.33 59.5C367.83 55 382.33 66 378.83 76.5" stroke="#AD8A70" stroke-width="2" stroke-linecap="round"/>
<path d="M568.224 75.7596C568.084 76.0097 567.946 76.2565 567.811 76.5C567.934 76.269 568.072 76.0217 568.224 75.7596C578.461 57.5182 602.125 21.9188 616.33 16C618.997 26 624.23 57.3 623.83 80.5C612.83 60 594.311 91 590.811 80.5C587.311 70 601.811 59 592.311 63.5C582.811 68 580.811 84.5 581.811 73C582.811 61.5 603.811 47 589.811 54.5C579.165 60.203 571.139 70.7246 568.224 75.7596Z" fill="#FFEEE7"/>
<path d="M566.811 77.5C569.311 72.8333 577.611 61.5 588.811 55.5C602.811 48 581.811 62.5 580.811 74C579.811 85.5 581.811 69 591.311 64.5C600.811 60 586.311 71 589.811 81.5" stroke="#AD8A70" stroke-width="2" stroke-linecap="round"/>
<path d="M404.83 77.5C394.83 59.5 371.23 22 356.83 16" stroke="#AD8A70" stroke-width="3" stroke-linecap="round"/>
<path d="M639.83 591C635.83 690 612.33 714 583.83 734.5C612.33 730.167 667.33 711.5 690.33 661.5C676.997 650 653.83 628 639.83 591Z" fill="#DED2C7"/>
<path d="M343.33 569.5C347.33 677.5 364.83 714 400.33 734.5C371.83 730.167 309.83 715 286.83 665C300.163 653.5 329.33 606.5 343.33 569.5Z" fill="#DED2C7"/>
<path d="M464.33 740.763C476.041 744.814 504.543 742.451 517.33 740.763C512.787 724.846 504.33 712.5 501.83 621.5C498.128 624.635 488.83 629 477.33 621.5C476.926 705.425 474.83 738 464.33 740.763Z" fill="#DED2C7"/>
<path d="M623.19 386.539C620.669 362.852 594.855 302.175 583.331 274C588.252 276.81 601.341 279.398 611.829 276.5C625.328 303.998 628.933 353.891 623.19 386.539Z" fill="#DED2C7"/>
<path d="M548.83 94.5C611.83 117 615.83 142.5 623.33 171.87C632.33 169.537 651.73 164.2 655.33 161C652.163 149.5 645.33 125 639.33 119C640.33 80.8333 640.03 3.3 628.83 0.5L628.33 1.5L623.83 4.5C628.63 10.9 627.83 66.1667 628.33 92C625.83 104.5 628.83 121.8 610.83 103C592.83 84.2 573.83 94.5 548.83 94.5Z" fill="#E6B895"/>
<path d="M384.83 111.5C361.83 126 363.83 142.13 356.33 171.5C347.33 169.167 326.43 163.2 322.83 160C325.997 148.5 331.33 125 337.33 119C337.33 81 340.33 11 347.33 3L347.83 3.5V7C343.03 13.4 342.33 72.6667 341.83 98.5C347.83 101.7 374.83 109.833 384.83 111.5Z" fill="#E6B895"/>
<path d="M357.83 0C382.23 4.8 427.663 57.3333 447.33 83C443.497 83.3333 432.73 85 422.33 89C409.33 94 422.33 82.5 417.33 66.5C412.33 50.5 377.83 10.5 357.83 0Z" fill="#E6B895"/>
<path d="M616.83 3C592.43 7.8 547.497 57.3333 527.83 83C531.663 83.3333 536.93 83.5 547.33 87.5C557.73 91.5 542.33 84.5 547.33 68.5C552.33 52.5 596.83 13.5 616.83 3Z" fill="#E6B895"/>
<ellipse cx="47.5" cy="40.5" rx="47.5" ry="40.5" transform="matrix(-1 0 0 1 391.33 178)" fill="#F1B09E"/>
<ellipse cx="47.5" cy="40.5" rx="47.5" ry="40.5" transform="matrix(-1 0 0 1 685.33 178)" fill="#F1B09E"/>
<path d="M265.368 145.607C316.873 140.647 361.448 159.448 398.237 182.644C400.492 184.879 401.677 192.984 395.168 187.99C386.407 181.268 338.022 144.19 267.756 146.329C262.774 145.908 270.24 145.484 265.368 145.607Z" fill="#FEFDFB"/>
<path d="M245.814 195.797C298.509 175.392 350.166 180.248 394.811 191.744C397.761 193.241 401.127 200.786 392.995 197.884C382.049 193.978 321.61 172.453 248.506 195.779C243.174 196.874 250.889 194.205 245.814 195.797Z" fill="#FEFDFB"/>
<path d="M282.064 265.369C312.531 228.735 353.095 211.535 391.292 202.163C394.134 202.099 399.888 206.418 392.582 207.518C382.749 208.997 328.471 217.197 284.061 264.269C280.561 267.246 285.159 262.121 282.064 265.369Z" fill="#FEFDFB"/>
<path d="M715.739 145.607C664.235 140.647 619.659 159.448 582.871 182.644C580.615 184.879 579.43 192.984 585.939 187.99C594.7 181.268 643.085 144.19 713.352 146.329C718.333 145.908 710.868 145.484 715.739 145.607Z" fill="#FEFDFB"/>
<path d="M735.293 195.797C682.598 175.392 630.941 180.248 586.297 191.744C583.346 193.241 579.98 200.786 588.113 197.884C599.059 193.978 659.498 172.453 732.601 195.779C737.934 196.874 730.218 194.205 735.293 195.797Z" fill="#FEFDFB"/>
<path d="M699.043 265.369C668.577 228.735 628.013 211.535 589.815 202.163C586.973 202.099 581.22 206.418 588.525 207.518C598.359 208.997 652.636 217.197 697.046 264.269C700.546 267.246 695.949 262.121 699.043 265.369Z" fill="#FEFDFB"/>
<path d="M456.83 748.5C475.425 742.628 481.33 681 481.33 552C444.33 544 364.73 522.9 342.33 502.5C347.83 662.5 351.19 706.231 413.33 741.5C431.83 752 447.33 751.5 456.83 748.5Z" fill="#F3EFEA"/>
<path d="M526.83 748.5C508.235 742.628 502.33 681 502.33 552C548.663 537.667 641.33 507.7 641.33 502.5C635.83 662.5 632.47 706.231 570.33 741.5C551.83 752 536.33 751.5 526.83 748.5Z" fill="#F3EFEA"/>
<path d="M644.33 497L500.83 550.5L505.33 645L633.83 618L644.33 497Z" fill="#F3EFEA"/>
<path d="M339.83 497.5L483.33 547L477.83 642L348.33 600L339.83 497.5Z" fill="#F3EFEA"/>
<path d="M626.829 588.5C636.264 582.347 635.83 596 634.83 607.5C630.44 658 626.829 714 560.83 744.5C533.26 757.241 521.33 745.5 517.33 736.5C628.83 726.5 592.329 611 626.829 588.5Z" fill="#E5DDD8"/>
<path d="M452.331 748.001C476.288 741.156 476.33 631.5 478.831 569.5C479.456 554.008 459.83 573 459.83 584.5C459.83 632.961 444.794 709.375 427.332 721.501C420.832 727.001 403.03 733.3 379.83 716.5C412.33 749.5 439.83 752.5 452.331 748.001Z" fill="#E5DDD8"/>
<path d="M285.829 664.5C237.829 586.5 301.83 403 358.83 289C356.663 294.5 341.63 361.1 360.83 437.5C380.03 513.9 321.83 640.5 285.829 664.5Z" fill="#EAC8AD"/>
<path d="M687.33 663.5C736.371 586.15 678.831 416 617.831 290.5C619.923 296.029 634.898 358.773 614.676 434.909C594.454 511.045 651.655 639.02 687.33 663.5Z" fill="#EAC8AD"/>
<path d="M646.831 607.5C661.231 561.5 637.33 438.667 623.83 385C629.83 362.2 620.83 308.333 615.83 282C659.496 365.5 742.83 559 689.329 664.5C676.662 654.167 652.831 627.1 646.831 607.5Z" fill="#E6B895"/>
<path d="M315.33 621.5C300.93 575.5 308.83 483 349.83 360.5C349.83 338 350.329 319.333 355.329 293C314.329 380.5 233.329 566 284.83 664C297.497 653.667 309.33 641.1 315.33 621.5Z" fill="#E6B895"/>
</svg>
