<svg width="1258" height="994" viewBox="0 0 1258 994" fill="none" xmlns="http://www.w3.org/2000/svg">
<path d="M403.572 923.141C539.991 938.903 692.317 938.937 830.969 923.236C969.622 907.536 1084.7 877.222 1153.87 838.18C1223.04 799.139 1241.35 754.157 1205.25 711.969C1169.16 669.781 1081.23 633.399 958.539 609.887C835.85 586.375 687.16 577.411 541.342 584.737C395.524 592.062 262.985 615.154 169.463 649.528C75.941 683.902 28.1108 727.105 35.2605 770.747C42.4101 814.389 104.029 855.355 208.152 885.691L628.953 758.617L403.572 923.141Z" fill="#6C8C42"/>
<path d="M476.054 825.684L208.689 884.191L636.732 755.354L404.917 922.642L476.054 825.684Z" fill="#678D4A" stroke="#678D4A"/>
<path d="M996.487 552.5C981.465 494.486 922.987 521.833 903.487 542.5C822.987 613.5 796.349 709.114 849.487 720.5C870.487 725 1025.49 664.5 996.487 552.5Z" fill="#A7C192"/>
<path d="M762.986 727C762.986 742.464 805.967 755 858.986 755C906.575 755 934.395 749.764 950.079 725.913C953.706 720.399 954.889 712.971 950.722 707.853C938.383 692.701 904.628 699 858.986 699C805.967 699 762.986 711.536 762.986 727Z" fill="#A7C192"/>
<path fill-rule="evenodd" clip-rule="evenodd" d="M955.391 517.698C1024.34 567.905 952.009 651.534 865.986 698.5C874.191 698.713 896.631 698.49 916.456 696.839C963.485 669.895 1014.16 620.763 996.487 552.5C989.47 525.4 972.97 516.927 955.391 517.698Z" fill="#93AF7D"/>
<path fill-rule="evenodd" clip-rule="evenodd" d="M804.301 703.984C883.288 717.936 921.326 712.368 935.939 699.656C942.346 701.157 947.339 703.699 950.722 707.853C954.889 712.971 953.706 720.399 950.079 725.913C934.395 749.764 906.575 755 858.986 755C805.967 755 762.986 742.464 762.986 727C762.986 717.463 779.333 709.04 804.301 703.984Z" fill="#93AF7D"/>
<path d="M256.588 552.5C271.61 494.486 330.088 521.833 349.588 542.5C430.088 613.5 456.726 709.114 403.588 720.5C382.588 725 227.588 664.5 256.588 552.5Z" fill="#A7C192"/>
<path d="M490.089 727C490.089 742.464 447.108 755 394.089 755C346.5 755 318.681 749.764 302.996 725.913C299.37 720.399 298.186 712.971 302.353 707.853C314.692 692.701 348.448 699 394.089 699C447.108 699 490.089 711.536 490.089 727Z" fill="#A7C192"/>
<path fill-rule="evenodd" clip-rule="evenodd" d="M297.684 517.698C228.73 567.905 301.066 651.534 387.089 698.5C378.885 698.713 356.444 698.49 336.62 696.839C289.59 669.895 238.913 620.763 256.588 552.5C263.605 525.4 280.105 516.927 297.684 517.698Z" fill="#93AF7D"/>
<path fill-rule="evenodd" clip-rule="evenodd" d="M447.66 704.18C369.429 717.883 331.68 712.308 317.136 699.656C310.729 701.157 305.736 703.699 302.353 707.853C298.186 712.971 299.37 720.399 302.996 725.913C318.681 749.764 346.5 755 394.089 755C447.108 755 483.986 742.464 483.986 727C483.986 717.585 470.318 709.256 447.66 704.18Z" fill="#93AF7D"/>
<path d="M629.486 764C774.423 764 991.185 713 861.246 381C852.44 358.5 831.685 311 812.185 266.5C814.685 260.5 815.479 253.585 815.685 247C815.685 206.131 782.554 173 741.685 173C723.685 171 705.852 180.833 699.185 186C688.019 195.5 667.685 218 654.185 213C628.585 206.2 604.185 210.167 595.185 213C581.685 218 561.352 195.5 550.185 186C545.685 181.167 531.085 171.8 508.685 173C467.816 173 434.685 206.131 434.685 247C434.886 253.43 435.685 257.5 438.685 264.5C422.685 309.5 405.185 361 390.685 392C261.685 717 484.549 764 629.486 764Z" fill="#A7C192"/>
<path fill-rule="evenodd" clip-rule="evenodd" d="M775.986 685C831.652 683.667 913.186 599.1 793.986 271.5C805.652 239.833 806.286 176.5 717.486 176.5C717.456 176.456 717.425 176.411 717.395 176.366C724.676 173.759 733.162 172.053 741.685 173C782.554 173 815.685 206.131 815.685 247C815.479 253.585 814.685 260.5 812.185 266.5C831.685 311 852.44 358.5 861.246 381C975.403 672.676 821.962 747.466 684.725 761.331C682.309 738.994 683.642 717.401 686.486 701L775.986 685Z" fill="#93AF7D"/>
<path fill-rule="evenodd" clip-rule="evenodd" d="M474.621 685C418.954 683.667 337.421 599.1 456.621 271.5C444.954 239.833 444.321 176.5 533.121 176.5C533.151 176.456 533.181 176.411 533.211 176.366C525.931 173.759 517.445 172.053 508.922 173C468.053 173 434.922 206.131 434.922 247C435.128 253.585 435.922 260.5 438.422 266.5C418.922 311 398.167 358.5 389.361 381C275.204 672.676 428.644 747.466 565.882 761.331C568.298 738.994 566.964 717.401 564.121 701L474.621 685Z" fill="#93AF7D"/>
<ellipse cx="513.261" cy="250" rx="22.275" ry="27" fill="#5F4B3D"/>
<ellipse cx="730.162" cy="250" rx="22.275" ry="27" fill="#5F4B3D"/>
<path d="M653.86 300.5C628.494 316.039 608.975 306.696 599.775 300.5C591.325 294.867 595.844 287.961 599.775 290.72C608.975 296.916 626.994 308.323 653.86 290.72C657.79 287.961 662.494 295.211 653.86 300.5Z" fill="#5F4B3D"/>
<ellipse cx="808.986" cy="324.5" rx="48" ry="42.5" fill="#F1B09E"/>
<ellipse cx="445.986" cy="324.5" rx="48" ry="42.5" fill="#F1B09E"/>
<path fill-rule="evenodd" clip-rule="evenodd" d="M769.426 742.155C724.595 760.06 673.782 765.265 629.914 765.265C583.606 765.265 528.903 759.92 481.418 740.375C425.128 652.641 386.263 499.887 495.118 414.075C570.114 354.954 685.276 354.767 759.964 414.274C868.449 500.708 826.509 654.788 769.426 742.155Z" fill="#DAEDB8"/>
<path fill-rule="evenodd" clip-rule="evenodd" d="M629.914 765.265C673.782 765.265 724.595 760.061 769.426 742.155C781.519 723.646 792.933 702.143 802.381 678.923C650.426 741.588 539.215 713.368 450.034 679.146C459.003 701.541 469.842 722.333 481.418 740.375C528.903 759.921 583.606 765.265 629.914 765.265Z" fill="#B7CF8C" fill-opacity="0.5"/>
<path d="M710.581 780.999C745.582 728.5 764.986 681 792.485 614.5L653.877 674.165C649.244 705.536 639.733 770.958 639.76 780.028C639.798 792.953 661.225 796.617 667.66 783.336C669.945 779.014 672.545 778.353 674.611 778.979C676.86 779.661 677.344 782.401 678.324 784.538C682.51 793.67 703.231 792.024 710.581 780.999Z" fill="#DAEDB8"/>
<path fill-rule="evenodd" clip-rule="evenodd" d="M782.703 628.903C758.253 701.831 733.578 764.246 711.987 783.336C702.064 792.109 682.273 793.663 678.289 784.548C678.092 784.097 677.914 783.62 677.737 783.142C677.066 781.339 676.389 779.519 674.61 778.979C672.545 778.353 669.944 779.014 667.66 783.336C661.225 796.617 639.798 792.953 639.759 780.028C639.756 778.776 639.934 776.45 640.256 773.288C652.402 778.314 657.161 771.805 661.981 765.212C665.029 761.043 668.101 756.841 673.081 755.5C678.898 753.934 678.788 756.673 678.647 760.178C678.472 764.505 678.251 770 689.081 770C706.986 770 762.486 664.5 783.486 624.5L782.703 628.903Z" fill="#A7C192"/>
<path d="M544.317 780.999C509.316 728.5 489.913 681 462.413 614.5L601.021 674.165C605.655 705.536 615.166 770.958 615.139 780.028C615.1 792.953 593.673 796.617 587.238 783.336C584.954 779.014 582.354 778.353 580.288 778.979C578.038 779.661 577.554 782.401 576.575 784.538C572.389 793.67 551.668 792.024 544.317 780.999Z" fill="#DAEDB8"/>
<path fill-rule="evenodd" clip-rule="evenodd" d="M472.195 628.903C496.646 701.831 521.321 764.246 542.912 783.336C552.834 792.109 572.626 793.663 576.609 784.548C576.807 784.097 576.984 783.62 577.162 783.142C577.832 781.339 578.51 779.519 580.288 778.979C582.354 778.353 584.954 779.014 587.238 783.336C593.673 796.617 615.101 792.953 615.139 780.028C615.143 778.776 614.965 776.45 614.643 773.288C602.496 778.314 597.737 771.805 592.917 765.212C589.87 761.043 586.797 756.841 581.817 755.5C576 753.934 576.11 756.673 576.252 760.178C576.426 764.505 576.648 770 565.817 770C547.912 770 492.412 664.5 471.412 624.5L472.195 628.903Z" fill="#A7C192"/>
</svg>
