<svg width="798" height="873" viewBox="0 0 798 873" fill="none" xmlns="http://www.w3.org/2000/svg">
<path d="M155.648 312C156.848 342.8 162.148 388 170.148 413.5C162.548 485.1 91.6482 437.5 70.6479 435C9.61681 415.166 -4.35373 367 2.64727 302C43.6484 182.5 253.179 51.3345 273.179 40.3345L273.443 40.1895C294.203 28.7689 412.617 -36.3729 514.179 31.3345C616.179 99.3345 817.648 232 795.648 320C773.648 408 707.179 441.835 667.179 424.835C635.179 411.234 626.482 354.167 636.648 327.5C492.648 83.5 154.148 273.5 155.648 312Z" fill="#A36B52" stroke="#A36B52"/>
<path fill-rule="evenodd" clip-rule="evenodd" d="M152.768 124.818C55.1235 218.263 2.22702 338.784 131.149 365.5C140.956 367.532 150.998 369.368 161.233 371.022C158.259 350.811 156.317 329.168 155.648 312C154.148 273.5 492.648 83.5 636.648 327.5C632.818 337.545 631.665 351.905 633.427 366.63C636.952 366.244 640.361 365.867 643.648 365.5C787.398 349.447 764.756 237.818 646.435 123.667C601.481 89.5151 554.719 58.3521 518.938 34.5071C517.329 33.4347 515.742 32.377 514.178 31.3345C460.112 -4.70947 401.27 -3.10454 354.927 8.00223C353.279 9.16668 351.686 10.3359 350.148 11.5C340.595 12.9653 330.695 15.3273 320.566 18.4844C297.188 27.1267 280.177 36.4847 273.442 40.1895L273.179 40.3345C263.567 45.6208 210.184 78.6593 152.768 124.818Z" fill="#BC856D"/>
<path d="M244.561 98.4181C254.061 120.74 232.829 151.15 197.137 166.341C161.445 181.531 123.858 188.664 114.358 166.342C104.857 144.019 127.041 100.695 162.733 85.505C198.425 70.3145 235.061 76.0959 244.561 98.4181Z" fill="#E8D9C6"/>
<path d="M656.361 144.904C646.557 158.345 656.032 181.95 677.525 197.627C699.018 213.303 723.024 223.89 732.829 210.448C742.633 197.007 734.522 164.627 713.029 148.95C691.537 133.273 666.166 131.462 656.361 144.904Z" fill="#E6D2BA"/>
<path d="M667.238 141.997C659.978 151.951 666.995 169.431 682.91 181.039C698.826 192.648 716.603 200.487 723.863 190.533C731.123 180.58 725.117 156.602 709.201 144.993C693.286 133.385 674.498 132.043 667.238 141.997Z" fill="#F6ECE0"/>
<path d="M378.132 118.424C387.141 133.26 344.938 149.483 327.733 150.951C290.667 155.68 286.765 133.529 299.867 119.271C306.98 111.531 334.07 92.7132 346.202 96.4771C365.304 102.404 371.215 105.285 378.132 118.424Z" fill="#E6D2BA"/>
<path d="M375.477 115.183C382.497 126.743 349.612 139.385 336.205 140.528C307.322 144.214 304.281 126.953 314.491 115.843C320.033 109.812 341.142 95.1482 350.596 98.0811C365.481 102.699 370.087 104.944 375.477 115.183Z" fill="#F6ECE0"/>
<ellipse cx="412.648" cy="42.5" rx="22" ry="14.5" fill="#E6D2BA"/>
<ellipse cx="416.148" cy="40.5" rx="17.5" ry="11.5" fill="#F6ECE0"/>
<ellipse cx="503.648" cy="126.5" rx="65" ry="44.5" transform="rotate(10.3122 503.648 126.5)" fill="#E8D9C6"/>
<ellipse cx="503.648" cy="126.5" rx="65" ry="44.5" transform="rotate(10.3122 503.648 126.5)" fill="#E8D9C6"/>
<ellipse cx="503.648" cy="126.5" rx="65" ry="44.5" transform="rotate(10.3122 503.648 126.5)" fill="#E6D2BA"/>
<ellipse cx="512.951" cy="119.236" rx="49.5228" ry="33.9041" transform="rotate(10.3122 512.951 119.236)" fill="#F6ECE0"/>
<path d="M612.873 105.632C606.998 114.326 590.015 113.116 574.941 102.929C559.868 92.7425 552.412 77.4365 558.287 68.7422C569.148 63.5 581.145 61.258 596.219 71.4448C611.292 81.6316 614.648 96 612.873 105.632Z" fill="#E6D2BA"/>
<path d="M611.962 99.5425C607.239 106.531 593.589 105.558 581.474 97.3704C569.358 89.1827 563.365 76.8804 568.088 69.8924C576.818 65.6789 586.46 63.8769 598.576 72.0646C610.691 80.2522 613.388 91.8009 611.962 99.5425Z" fill="#F6ECE0"/>
<path d="M82.3741 266.406C89.6309 273.986 84.8609 290.33 71.7198 302.911C58.5788 315.493 42.043 319.548 34.7862 311.968C31.9566 300.245 32.2994 288.045 45.4404 275.463C58.5815 262.882 73.3346 262.637 82.3741 266.406Z" fill="#E6D2BA"/>
<path d="M82.2597 265.153C87.7965 270.936 84.1571 283.406 74.1307 293.006C64.1044 302.605 51.4879 305.699 45.9511 299.916C43.7922 290.971 44.0537 281.663 54.0801 272.063C64.1064 262.464 75.3627 262.277 82.2597 265.153Z" fill="#F6ECE0"/>
<path d="M244.561 98.4181C254.061 120.74 232.829 151.15 197.137 166.341C161.445 181.531 123.858 188.664 114.358 166.342C104.857 144.019 127.041 100.695 162.733 85.505C198.425 70.3145 235.061 76.0959 244.561 98.4181Z" fill="#E6D2BA"/>
<path d="M236.032 91.876C243.117 108.522 227.283 131.2 200.667 142.528C174.05 153.856 146.02 159.175 138.935 142.529C131.851 125.882 148.394 93.5743 175.011 82.2462C201.627 70.9182 228.948 75.2296 236.032 91.876Z" fill="#F6ECE0"/>
<ellipse cx="740.148" cy="328.5" rx="15.5" ry="18.5" fill="#E8D9C6"/>
<ellipse cx="743.148" cy="325" rx="12.5" ry="15" fill="#F6ECE0"/>
<path d="M159.415 285.757C122.812 361.647 108.382 473.733 105.743 520.29C58.5297 476.756 30.7779 486.837 22.8036 497.32C-5.30355 535.046 57.2924 595.532 92.1038 621.06C101.989 701.291 146.996 749.9 168.264 764.176C109.4 761.264 99.0281 813.169 104.582 834.069C131.956 879.071 274.506 839.39 303.119 809.189L450.094 806.471C488.586 859.768 661.612 886.573 660.613 832.582C658.311 773.015 609.281 770.021 585.053 775.97C653.553 737.496 675.132 654.897 678.145 610.5C732.062 578.497 761.689 503.572 738.406 488.5C719.78 476.443 685.786 499.226 678.145 509.703C662.469 375.969 622.934 291.52 605.126 266.011C471.807 240.972 196.018 209.867 159.415 285.757Z" fill="#D1BC9F"/>
<path d="M604.04 317.831C590.941 283.202 240.362 268.76 180.505 296.834C57.1286 542.739 164.821 662.116 241.647 710C314.647 755.5 464.647 751.5 517.147 718.5C696.319 605.878 649.453 437.878 604.04 317.831Z" fill="#E8D9C6"/>
<ellipse cx="280.648" cy="425" rx="23" ry="33" fill="#564035"/>
<ellipse cx="491.648" cy="425" rx="23" ry="33" fill="#564035"/>
<path d="M350.648 467.641C350.648 463.534 355.252 461.08 358.79 463.165C380.751 476.111 395.117 475.642 414.609 463.453C418.038 461.308 422.648 463.66 422.648 467.704C422.648 469.333 421.843 470.867 420.49 471.773C394.08 489.447 378.612 489.353 352.846 471.825C351.465 470.886 350.648 469.311 350.648 467.641Z" fill="#70554A"/>
<path d="M668.148 324.914C482.148 100.914 213.982 218.914 103.148 305.914C137.148 357.114 188.315 315.247 204.648 287.914C268.248 315.914 305.815 290.247 321.648 273.914C372.048 305.514 423.982 296.414 443.648 287.914C452.448 307.114 520.315 302.914 553.148 298.414C538.148 339.914 688.648 347.914 668.148 324.914Z" fill="#E8D8C8" stroke="#E8D9C6"/>
<path d="M263.148 219.5C295.148 289 439.148 355 524.148 217.5" stroke="#D1BC9F" stroke-width="13"/>
<path d="M444.648 289.5C473.648 314.5 580.148 311.5 591.148 253" stroke="#D1BC9F" stroke-width="13"/>
<path d="M551.151 298.5C549.648 343 680.648 344 669.151 326" stroke="#D1BC9F" stroke-width="13"/>
<path d="M174.148 258.5C201.148 314.5 303.148 301.5 320.649 274.5" stroke="#D1BC9F" stroke-width="13"/>
<path d="M103.148 305C132.148 342.5 192.648 319.5 209.148 290" stroke="#D1BC9F" stroke-width="13"/>
<path d="M96.2124 306.987C94.8244 308.332 94.7899 310.548 96.1353 311.936C97.4807 313.324 99.6966 313.359 101.084 312.013L96.2124 306.987ZM101.084 312.013C165.654 249.423 269.927 205.222 377.767 201.561C485.505 197.903 596.473 234.706 674.905 333.674L680.391 329.326C600.324 228.295 487.042 190.847 377.53 194.565C268.12 198.279 162.143 243.077 96.2124 306.987L101.084 312.013Z" fill="#886653"/>
<path d="M236.148 767.505C236.148 778.274 188.173 808.504 164.148 808.504C140.124 808.504 120.648 799.774 120.648 789.004C120.648 778.235 134.624 760.505 158.648 760.505C184.148 758.505 236.148 756.735 236.148 767.505Z" fill="#E8D9C6"/>
<path d="M533.648 789.111C533.648 799.88 583.124 810.61 607.148 810.61C631.173 810.61 659.148 816.375 659.148 805.606C659.148 794.836 635.673 777.605 611.648 777.605C586.148 775.606 533.648 778.341 533.648 789.111Z" fill="#E8D9C6"/>
<path d="M58.4082 537.194C57.5419 524.311 37.7374 502.354 31.3012 496.802C19.1484 480 100.921 491.35 132.17 498.889C134.333 514.729 136.212 546.451 126.414 546.617C116.616 546.783 109.128 542.489 106.609 540.321C107.459 560.018 103.018 582.01 100.691 590.544C86.958 578.129 59.2745 550.077 58.4082 537.194Z" fill="#E8D9C6" stroke="#E8D9C6"/>
<path d="M674.148 546.5C655.348 533.7 645.815 533.667 639.648 542L641.648 516.604L659.148 507.104C669.482 504.77 694.348 497.4 711.148 489C727.948 480.6 738.148 488.896 741.648 495C746.148 506.396 675.648 568.604 669.648 566.604C664.848 565.004 667.482 560 674.148 546.5Z" fill="#E8D9C6" stroke="#E8D9C6"/>
<ellipse cx="161.648" cy="471.5" rx="79" ry="61.5" fill="#DAAA93"/>
<ellipse cx="639.648" cy="471.5" rx="79" ry="61.5" fill="#DAAA93"/>
<path d="M282.779 240C319.697 261.591 416.987 291.819 500.779 240C465.198 288.296 371.783 355.91 282.779 240Z" fill="#D1BC9F"/>
<path d="M291.953 261.487C253.79 287.74 205.602 279.078 187.073 270.243C197.91 288.976 238.312 317.605 313.224 282.261L291.953 261.487Z" fill="#D1BC9F"/>
<path d="M185.565 280.908C161.046 314.093 120.781 314.85 104.073 309.725C116.865 326.072 155.38 346.465 207.111 297.255L185.565 280.908Z" fill="#D1BC9F"/>
<path d="M569.775 284.986C590.693 320.551 652.127 329.852 669.279 326.5C654.85 341.422 592.947 353.338 546.639 298.993L569.775 284.986Z" fill="#D1BC9F"/>
<path d="M468.106 266.487C506.269 292.74 554.457 284.078 572.986 275.243C562.149 293.976 521.746 322.605 446.835 287.261L468.106 266.487Z" fill="#D1BC9F"/>
</svg>
