<svg width="391" height="448" viewBox="0 0 391 448" fill="none" xmlns="http://www.w3.org/2000/svg">
<path d="M118.118 224.824C115.239 322.846 199.358 380.986 235.915 392.792L240.118 351.115C229.866 329.161 214.862 311.735 208.562 305.865C202.044 298.453 185.208 282.148 170.644 275.439C156.08 268.73 129.558 238.901 118.118 224.824Z" fill="#86A173"/>
<path d="M395.126 289.084C392.168 293.767 371.425 310.359 356.303 324.686L358.709 364.257C381.652 358.523 394.596 321.823 397.165 311.519C399.22 303.275 399.521 293.527 399.414 289.684C400.126 287.35 399.429 286.43 398.991 286.262C398.689 285.641 397.493 285.337 395.126 289.084Z" fill="#5A7639" stroke="#607B40" stroke-width="0.80166"/>
<path d="M286.83 308.494C286.529 343.859 307.696 363.209 318.317 368.464L322.744 357.447C319.665 349.233 315.238 342.527 313.387 340.235C311.464 337.379 306.514 331.03 302.272 328.211C298.03 325.393 290.21 313.892 286.83 308.494Z" fill="#5A7639" stroke="#5A7639" stroke-width="0.80166"/>
<path d="M310.244 259.676C318.007 315.14 288.763 349.886 273.171 360.326L263.948 343.941C267.089 330.409 272.658 318.968 275.092 314.987C277.521 310.107 283.984 299.117 290.064 293.817C296.143 288.518 306.05 268.848 310.244 259.676Z" fill="#5A7639" fill-opacity="0.5"/>
<path d="M393.834 142.369C423.615 159.152 422.351 168.055 421.818 171.69C419.378 188.302 387.253 197.155 372.143 201.318L371.681 201.446C294.661 222.678 144.032 192.922 113.224 187.361C82.4164 181.8 61.6267 172.825 47.7575 165.623C38.7882 160.966 33.0946 153.972 32.41 151.36C31.4686 145.378 33.9966 135.645 47.7575 129.983C67.0638 123.715 81.1328 111.363 85.754 105.97L144.032 49.8562C152.847 42.2732 174.173 25.3884 188.961 18.513C240.923 -6.96585 284.893 7.89683 300.383 18.513C309.796 24.4952 326.366 39.8591 342.465 67.8833C353.505 90.6323 371.755 119.114 393.834 142.369Z" fill="#C16134" stroke="#C16134" stroke-width="0.80166"/>
<path d="M80.9966 146.526C231.545 93.6302 339.527 141.165 374.699 171.544C345.534 194.009 285.014 195.2 258.399 192.988C254.291 210.143 265.074 237.237 270.979 248.64C302.131 314.832 306.274 372.554 295.239 384.304C282.374 398.002 241.978 398.372 222.98 387.65C185.394 367.84 195.072 247.194 201.404 183.032C128.698 174.862 90.838 155.29 80.9966 146.526Z" fill="url(#paint0_linear_789_10515)" stroke="#E8D9C6" stroke-width="0.80166"/>
<path d="M251.793 255.976C265.548 300.341 289.514 385.246 268.639 393.116" stroke="#C5A687" stroke-opacity="0.5" stroke-width="3.20664" stroke-linecap="round"/>
<path d="M215.004 253.673C215.005 292.094 218.22 384.798 236.308 391.812" stroke="#C5A687" stroke-opacity="0.5" stroke-width="3.20664" stroke-linecap="round"/>
<path fill-rule="evenodd" clip-rule="evenodd" d="M218.956 80.1775C173.932 100.461 111.697 107.199 103.67 89.3805C103.601 89.2256 103.535 89.0692 103.473 88.9112L144.034 49.8562C152.848 42.2732 174.174 25.3884 188.962 18.513C229.323 -1.27727 264.862 3.2711 285.978 11.2635C293.888 29.0933 263.917 59.9226 218.956 80.1775Z" fill="#DC7747" fill-opacity="0.7"/>
<path d="M162.403 47.4228C167.573 56.3792 183.375 56.9372 197.695 48.6691C212.016 40.401 224.077 29.4226 218.906 20.4663C213.735 11.5099 193.29 7.96713 178.97 16.2352C164.649 24.5033 157.232 38.4665 162.403 47.4228Z" fill="#E6D2BA"/>
<path d="M165.066 39.539C169.434 47.1051 180.892 48.6679 190.658 43.0295C200.424 37.3911 208.366 29.4141 203.998 21.848C199.629 14.2819 184.605 9.99175 174.839 15.6301C165.073 21.2685 160.698 31.9729 165.066 39.539Z" fill="#F6ECE0"/>
<path d="M337.717 97.4675C333.215 105.265 338.261 116.607 348.987 122.799C359.713 128.992 371.562 132.338 376.064 124.54C380.566 116.742 376.016 100.754 365.29 94.5613C354.564 88.3686 342.219 89.6698 337.717 97.4675Z" fill="#E6D2BA"/>
<path d="M338.556 96.261C335.275 101.944 338.952 110.209 346.769 114.722C354.586 119.235 363.222 121.674 366.503 115.991C369.784 110.308 366.468 98.6561 358.651 94.143C350.834 89.6299 341.837 90.5781 338.556 96.261Z" fill="#F6ECE0"/>
<path d="M248.228 64.1644C248.069 52.5527 259.95 42.9749 274.765 42.772C289.58 42.569 302.639 57.8345 302.798 69.4462C302.958 81.0579 290.156 84.6189 275.341 84.8218C260.526 85.0248 248.387 75.7761 248.228 64.1644Z" fill="#E6D2BA"/>
<path d="M249.967 59.1968C249.857 51.2202 258.151 44.6391 268.492 44.4974C278.832 44.3557 287.945 54.8402 288.054 62.8168C288.163 70.7934 279.228 73.2415 268.887 73.3832C258.547 73.5248 250.076 67.1734 249.967 59.1968Z" fill="#F6ECE0"/>
<path d="M124.062 99.4142C119.817 93.0846 122.923 83.5632 130.998 78.1475C139.074 72.7318 151.722 76.4522 155.967 82.7818C160.212 89.1114 154.446 95.6533 146.37 101.069C138.294 106.485 128.307 105.744 124.062 99.4142Z" fill="#E6D2BA"/>
<path d="M124.511 93.7612C121.543 89.3356 123.715 82.6782 129.361 78.8916C135.008 75.105 143.851 77.7063 146.819 82.1319C149.787 86.5575 145.755 91.1316 140.109 94.9182C134.462 98.7049 127.479 98.1868 124.511 93.7612Z" fill="#F6ECE0"/>
<path d="M315.357 37.4787C318.238 33.6248 325.422 34.125 331.403 38.596C337.383 43.067 338.739 52.0695 335.858 55.9234C332.977 59.7774 326.95 57.0234 320.969 52.5524C314.988 48.0814 312.476 41.3327 315.357 37.4787Z" fill="#E6D2BA"/>
<path d="M315.489 37.4384C317.46 34.8022 322.367 35.1394 326.45 38.1917C330.533 41.2439 331.453 47.3966 329.483 50.0328C327.512 52.669 323.397 50.7904 319.314 47.7382C315.231 44.6859 313.519 40.0746 315.489 37.4384Z" fill="#F6ECE0"/>
<path d="M392.26 143.613C394.855 140.14 401.328 140.591 406.717 144.62C412.106 148.648 413.328 156.76 410.732 160.232C408.136 163.705 402.705 161.224 397.317 157.195C391.928 153.166 389.664 147.086 392.26 143.613Z" fill="#E6D2BA"/>
<path d="M392.011 143.647C393.758 141.31 398.113 141.613 401.739 144.324C405.364 147.034 406.186 152.492 404.439 154.828C402.693 157.165 399.039 155.495 395.414 152.785C391.788 150.074 390.264 145.983 392.011 143.647Z" fill="#F6ECE0"/>
<path d="M90.5295 104.739C87.9336 101.266 81.4606 101.717 76.0717 105.746C70.6828 109.774 69.4614 117.886 72.0574 121.358C74.6534 124.831 80.0837 122.35 85.4725 118.321C90.8614 114.292 93.1255 108.212 90.5295 104.739Z" fill="#E6D2BA"/>
<path d="M85.4373 104.687C83.497 102.092 78.6589 102.428 74.6312 105.439C70.6034 108.451 69.6905 114.513 71.6308 117.109C73.5711 119.704 77.6298 117.85 81.6576 114.839C85.6854 111.828 87.3776 107.283 85.4373 104.687Z" fill="#F6ECE0"/>
<path d="M210.756 81.6603C209.927 77.4047 204.966 74.7908 199.675 75.822C194.385 76.8532 190.9 83.4065 191.73 87.6621C192.559 91.9177 197.389 92.2639 202.679 91.2328C207.969 90.2016 211.586 85.9159 210.756 81.6603Z" fill="#E6D2BA"/>
<path d="M206.93 80.3942C206.252 76.9159 202.197 74.7795 197.873 75.6223C193.549 76.4651 190.7 81.8215 191.378 85.2998C192.056 88.778 196.004 89.0611 200.328 88.2182C204.652 87.3754 207.608 83.8725 206.93 80.3942Z" fill="#F6ECE0"/>
<path d="M275.56 255.581C314.628 350.204 303.135 382.344 290.493 387.641C286.134 390.668 285.886 390.416 288.705 387.641C302.031 373.264 291.518 324.584 278.193 294.821C267.533 271.01 218.115 253.993 195.736 248.529C195.736 232.872 198.498 200.151 200.035 185.606C156.779 183.184 97.0244 161.827 80.759 146.763C85.997 143.08 91.1776 141.113 102.658 144.745C127.463 154.632 136.569 149.201 138.021 145.249C138.534 144.24 139.046 141.365 136.996 137.935C134.946 134.504 135.8 127.104 136.996 126.263C138.448 125.338 142.992 129.157 145.453 132.386C151.398 141.062 166.551 147.435 173.384 149.537C179.876 150.714 193.167 152.665 194.397 151.051C195.627 149.436 194.227 147.519 193.372 146.763C188.589 140.121 180.918 126.181 188.504 123.558C196.089 120.934 198.601 117.717 200.035 131.124C200.718 137.514 206.851 151.858 225.917 158.113C249.749 165.932 268.455 155.843 272.043 153.573C280.448 148.528 287.553 134.71 289.176 130.674C291.653 129.833 300.557 128.753 301.582 132.386C303.017 139.65 292.8 148.949 290.237 150.294C287.418 152.564 282.652 157.306 286.137 158.113C312.531 165.428 333.032 147.267 334.826 146.51C346.306 142.071 345.759 148.36 344.051 152.059L326.369 166.689C330.555 168.286 339.902 171.475 344.051 170.924C355.616 170.924 367.133 164.425 369.952 165.686C372.77 166.947 379.05 171.475 371.47 176.778C333.134 199.176 280.784 197.888 258.576 194.357C262.163 229.669 261.979 226.071 275.56 255.581Z" fill="#B49678"/>
<path d="M222.764 111.961C312.663 113.224 362.497 150.98 376.238 171.776C338.292 136.212 259.767 126.309 222.764 124.289C185.761 122.268 114.57 135.992 79.9683 146.77C135.199 112.215 194.205 111.961 222.764 111.961Z" fill="#9C5C3F"/>
<path d="M266.57 257.676C251.223 266.325 251.874 270.913 252.149 272.786C253.406 281.347 269.961 285.909 277.748 288.054L277.985 288.12C317.676 299.062 395.3 283.728 411.176 280.862C427.052 277.996 437.766 273.371 444.913 269.66C449.535 267.26 452.469 263.655 452.822 262.309C453.307 259.227 452.005 254.211 444.913 251.293C434.964 248.063 427.714 241.698 425.332 238.919L395.3 210.001C390.757 206.094 379.768 197.392 372.147 193.849C345.369 180.719 322.71 188.379 314.728 193.849C309.877 196.932 301.338 204.85 293.041 219.291C287.352 231.015 277.948 245.692 266.57 257.676Z" fill="#BC643A" stroke="#C96F44" stroke-width="0.80166"/>
<path d="M427.784 259.818C350.201 232.56 294.555 257.055 276.43 272.711C291.459 284.288 322.647 284.902 336.363 283.761C338.479 292.602 332.923 306.565 329.88 312.441C312.416 346.251 310.963 376.243 316.65 382.298C323.279 389.356 344.825 389.602 354.615 384.077C373.984 373.868 368.997 311.695 365.734 278.631C403.202 274.421 422.712 264.335 427.784 259.818Z" fill="#E8D9C6" stroke="#E8D9C6" stroke-width="0.80166"/>
<path d="M336.59 284.338C334.706 302.571 334.706 300.617 327.574 315.855C375.718 328.819 356.974 375.831 357.896 380.748C358.352 383.182 376.852 357.46 369.427 311.919C369.427 304.237 367.273 287.42 366.466 279.91C389.182 278.659 414.05 267.971 423.291 263.37C433.094 258.811 421.586 256.212 417.605 258.811C404.578 263.916 399.049 261.893 398.287 259.853C398.018 259.332 397.763 256.308 399.572 255.295C406.811 251.239 399.661 252.213 399.033 251.778C398.271 251.301 396.422 250.763 395.131 252.43C392.008 256.91 384.05 260.2 380.462 261.286C377.053 261.893 370.073 262.901 369.427 262.067C368.781 261.234 369.516 260.244 369.965 259.853C372.477 256.423 378.261 248.048 374.277 246.693C370.294 245.339 368.026 245.699 366.466 251.778C366.107 255.078 362.886 262.484 352.874 265.714C340.358 269.751 330.534 264.542 328.65 263.369C324.236 260.765 322.101 254.513 321.248 252.43C321.921 249.665 315.999 250.554 315.461 252.43C314.707 256.18 317.749 260.982 319.095 261.676C320.576 262.849 323.079 265.297 321.248 265.714C307.387 269.491 296.621 260.114 295.679 259.723C289.65 257.431 289.937 260.678 290.834 262.588L300.12 270.142C297.922 270.967 292.988 273.279 290.834 272.55C285.769 272.55 279.315 268.725 278.184 269.881C277.102 270.987 274.658 272.467 276.676 274.681C296.809 286.246 324.927 286.161 336.59 284.338Z" fill="#C5A687" stroke="#C5A687" stroke-width="0.80166"/>
<path d="M354.731 243.412C308.403 244.063 282.722 262.113 275.641 272.83C295.196 254.503 335.662 249.4 354.731 248.359C373.799 247.317 410.486 254.39 428.318 259.944C399.855 242.137 369.448 243.412 354.731 243.412Z" fill="#A46C53" stroke="#A46C53" stroke-width="0.80166"/>
<path d="M339.765 316.221C332.676 339.084 320.326 382.838 331.084 386.894" stroke="#C5A687" stroke-opacity="0.5" stroke-width="3.20664" stroke-linecap="round"/>
<path d="M358.727 315.035C358.726 334.834 357.069 382.607 347.748 386.222" stroke="#C5A687" stroke-opacity="0.5" stroke-width="3.20664" stroke-linecap="round"/>
<path fill-rule="evenodd" clip-rule="evenodd" d="M365.225 190.267C341.52 181.443 322.013 188.257 314.729 193.25C309.878 196.333 301.339 204.25 293.043 218.692C289.388 226.222 284.2 234.972 277.941 243.444C287.756 247.952 316.491 238.421 335.543 223.937C353.099 210.59 365.42 198.59 365.225 190.267Z" fill="#DC7747" fill-opacity="0.7"/>
<path d="M376.107 199.069C374.694 201.517 370.376 201.669 366.462 199.41C362.548 197.15 359.252 194.15 360.665 191.702C362.078 189.254 367.666 188.286 371.58 190.545C375.494 192.805 377.521 196.621 376.107 199.069Z" fill="#E6D2BA"/>
<path d="M371.463 196.462C370.269 198.53 367.137 198.957 364.468 197.416C361.799 195.875 359.629 193.695 360.823 191.627C362.017 189.56 366.123 188.387 368.792 189.928C371.461 191.469 372.657 194.395 371.463 196.462Z" fill="#F6ECE0"/>
<path d="M353.603 223.373C353.685 217.389 347.562 212.453 339.928 212.348C332.293 212.244 325.563 220.111 325.481 226.095C325.399 232.078 331.996 233.913 339.631 234.018C347.265 234.123 353.521 229.357 353.603 223.373Z" fill="#E6D2BA"/>
<path d="M346.454 221.097C346.511 216.986 342.236 213.595 336.908 213.522C331.579 213.449 326.883 218.852 326.827 222.962C326.77 227.073 331.375 228.334 336.704 228.407C342.033 228.48 346.398 225.207 346.454 221.097Z" fill="#F6ECE0"/>
<path d="M307.014 203.623C305.53 201.637 301.828 201.895 298.746 204.199C295.663 206.503 294.965 211.142 296.45 213.128C297.934 215.114 301.04 213.695 304.122 211.391C307.204 209.087 308.499 205.609 307.014 203.623Z" fill="#E6D2BA"/>
<path d="M304.103 203.602C303.087 202.243 300.558 202.417 298.454 203.99C296.35 205.563 295.876 208.734 296.891 210.092C297.907 211.451 300.028 210.483 302.132 208.91C304.236 207.337 305.118 204.96 304.103 203.602Z" fill="#F6ECE0"/>
<path d="M281.487 242.126C280.149 240.336 276.813 240.569 274.036 242.645C271.259 244.721 270.63 248.901 271.968 250.69C273.305 252.48 276.104 251.201 278.881 249.125C281.658 247.049 282.825 243.915 281.487 242.126Z" fill="#E6D2BA"/>
<path d="M279.621 241.575C278.721 240.371 276.477 240.528 274.608 241.924C272.74 243.321 272.316 246.134 273.216 247.338C274.117 248.542 275.999 247.681 277.868 246.284C279.736 244.888 280.521 242.779 279.621 241.575Z" fill="#F6ECE0"/>
<path d="M320.869 386.449L320.174 392.327L323.252 392.803L323.295 385.815C324.328 369.404 343.45 356.328 352.881 351.841L413.684 317.975C399.973 316.265 370.185 313.801 360.724 317.617C351.263 321.433 340.807 331.69 336.761 336.342C323.459 351.282 320.624 375.972 320.869 386.449Z" fill="#75A142"/>
<path d="M26.2039 411.013C29.2624 429.204 54.1608 441.26 67.9962 441.26C69.7773 441.26 73.1868 438.15 72.5762 425.707C71.9655 413.265 58.6454 413.208 52.0617 414.735C46.0504 412.095 43.4551 404.391 57.8821 386.301C75.9157 363.687 57.9774 334.517 37.1767 331.245C22.4218 328.924 9.21982 335.157 3.49477 343.936C-2.83472 353.641 4.35352 372.465 10.3647 367.885C22.3385 358.762 32.3105 362.733 31.0701 380.957C30.3703 391.238 24.3909 400.231 26.2039 411.013Z" fill="#FFFCF9"/>
<path d="M26.2039 411.013C29.2624 429.204 54.1608 441.26 67.9962 441.26C69.7773 441.26 73.1868 438.15 72.5762 425.707C71.9655 413.265 58.6454 413.208 52.0617 414.735C46.0504 412.095 43.4551 404.391 57.8821 386.301C75.9157 363.687 57.9774 334.517 37.1767 331.245C22.4218 328.924 9.21982 335.157 3.49477 343.936C-2.83472 353.641 4.35352 372.465 10.3647 367.885C22.3385 358.762 32.3105 362.733 31.0701 380.957C30.3703 391.238 24.3909 400.231 26.2039 411.013Z" fill="#DBA478"/>
<path d="M9.97892 368.171C14.5221 366.268 20.6655 359.393 27.6309 365.595C25.9239 362.465 27.7392 356.532 33.1265 358.62C33.1263 355.099 34.2148 352.141 39.2715 351.378C36.0276 346.416 40.487 341.019 46.2555 345.343C43.8515 342.886 46.5086 335.454 52.3438 338.592C26.1997 318.364 5.58977 340.023 2.91811 344.699C-2.62061 354.392 2.91811 371.129 9.97892 368.171Z" fill="#F3EFEA"/>
<path d="M9.79379 368.172C6.97259 370.306 3.52812 364.482 2.92382 361.969C8.39435 354.559 22.0834 342.6 33.457 355.577C33.2662 356.403 32.9418 358.172 33.1708 358.63C33.457 359.202 25.2512 356.626 27.4458 364.927C20.2286 360.274 13.3895 365.45 9.84437 368.133L9.79379 368.172Z" fill="#CBB9A9"/>
<path d="M28.2969 394.984C41.9605 377.656 37.2342 361.397 33.5448 355.672C33.2394 356.207 33.1313 357.931 33.1631 358.63C26.8656 356.436 25.8162 363.019 27.9153 365.405C33.793 373.496 30.746 388.432 28.2969 394.984Z" fill="#CD9163"/>
<path d="M30.9709 421.605C41.6575 435.917 60.9001 441.102 67.5156 441.07C88.8889 434.658 65.9572 421.032 51.7719 414.83C47.4464 413.463 41.8487 405.575 56.3516 388.018C74.1651 366.454 60.1684 346.131 54.7297 341.169C58.165 371.13 47.8596 376.95 42.4209 384.393C36.9821 391.835 29.4442 401.09 32.7838 411.777C34.2637 416.513 33.9606 419.315 30.9709 421.605Z" fill="#CD9163"/>
<path d="M86.0102 319.032C91.5825 318.421 98.9457 318.778 101.681 319.032C108.535 309.204 119.412 300.712 120.939 303.956C122.327 306.906 122.657 319.032 122.657 325.711C125.137 330.768 131.419 346.035 117.79 356.054C125.735 373.419 156.003 435.058 112.684 443.073C108.545 443.932 92.629 446.89 74.3854 443.073C31.0664 435.058 61.9558 373.419 69.9009 356.054C56.2724 346.035 62.5539 330.768 65.0347 325.711C65.0347 319.032 65.3642 306.906 66.7522 303.956C68.2788 300.712 79.1563 309.204 86.0102 319.032Z" fill="#F3EFEA"/>
<path d="M86.0127 319.032C91.5851 318.421 98.9483 318.778 101.684 319.032C108.537 309.204 119.415 300.712 120.942 303.956C122.33 306.906 122.659 319.032 122.659 325.711C123.623 328.001 124.768 330.291 125.531 333.631C119.107 337.066 103.547 340.615 93.853 327.333C84.1587 340.615 68.5041 337.066 62.0794 333.631C62.8427 330.291 64.0734 328.001 65.0372 325.711C65.0372 319.032 65.3668 306.906 66.7547 303.956C68.2813 300.712 79.1588 309.204 86.0127 319.032Z" fill="#DBA478"/>
<ellipse cx="3.14874" cy="3.81665" rx="3.14874" ry="3.81665" transform="matrix(-1 0 0 1 108.352 331.341)" fill="#5F4B3D"/>
<ellipse cx="3.14874" cy="3.81665" rx="3.14874" ry="3.81665" transform="matrix(-1 0 0 1 86.6016 331.341)" fill="#5F4B3D"/>
<path d="M97.356 337.945C99.1522 338.944 96.0671 341.221 94.2187 342.411C92.7247 341.143 89.6503 338.99 90.8697 338.102C92.6635 336.795 95.7114 337.03 97.356 337.945Z" fill="#5F4B3D"/>
<path d="M87.4608 343.173C92.6133 347.753 95.5075 343.936 95.2849 341.646C94.7442 340.787 93.4402 339.705 93.2811 341.455C92.8995 345.653 89.2886 342.508 88.1287 342.218C87.3654 342.028 87.2381 342.886 87.4608 343.173Z" fill="#5F4B3D"/>
<path d="M100.922 343.173C95.7695 347.753 92.8753 343.936 93.0979 341.646C93.6386 340.787 94.9426 339.705 95.1017 341.455C95.4833 345.653 99.0942 342.508 100.254 342.218C101.017 342.028 101.145 342.886 100.922 343.173Z" fill="#5F4B3D"/>
<path d="M117.99 355.863C127.15 350.214 126.832 338.688 125.528 333.631C123.925 334.623 120.917 335.571 119.613 335.921C120.917 340.978 120.853 349.546 111.693 355.195C112.806 356.054 115.242 357.39 117.99 355.863Z" fill="#DED2C7"/>
<path d="M70.2986 355.863C61.1387 350.214 61.4567 338.688 62.7607 333.631C64.3637 334.623 67.3725 335.571 68.6765 335.921C67.3725 340.978 67.4361 349.546 76.596 355.195C75.4829 356.054 73.0466 357.39 70.2986 355.863Z" fill="#DED2C7"/>
<path d="M81.6368 361.015C91.4838 372.16 101.648 365.659 105.369 361.015C111.323 353.382 103.906 354.972 99.4535 356.721C97.7042 357.389 92.1326 358.324 87.5526 356.721C83.0998 354.972 75.6828 353.382 81.6368 361.015Z" fill="#DED2C7"/>
<path d="M108.164 318.651C110.072 315.216 115.721 306.819 118.469 305.674" stroke="#AD8A70" stroke-width="0.498955" stroke-linecap="round"/>
<path d="M77.0814 316.608C77.1067 316.653 77.1316 316.698 77.1562 316.742C77.1338 316.7 77.1088 316.655 77.0814 316.608C75.1468 313.148 71.2813 307.09 68.5687 305.96C68.0598 307.868 66.9657 313.078 67.042 317.505C69.1412 313.593 72.0991 319.509 72.767 317.505C73.4349 315.502 70.6678 313.402 72.4808 314.261C74.2937 315.12 74.6753 318.269 74.4845 316.074C74.2937 313.88 70.2862 311.112 72.9578 312.544C74.9944 313.635 76.5286 315.65 77.0814 316.608Z" fill="#FFEEE7"/>
<path d="M77.3438 316.933C76.8667 316.042 75.2827 313.88 73.1453 312.735C70.4737 311.303 74.4812 314.071 74.672 316.265C74.8628 318.46 74.4812 315.311 72.6683 314.452C70.8553 313.593 73.6224 315.693 72.9545 317.696" stroke="#AD8A70" stroke-width="0.332637" stroke-linecap="round"/>
<path d="M109.098 317.555C109.072 317.603 109.045 317.65 109.02 317.696C109.043 317.652 109.069 317.605 109.098 317.555C111.052 314.074 115.568 307.28 118.279 306.151C118.788 308.059 119.786 314.032 119.71 318.46C117.611 314.548 114.077 320.463 113.409 318.46C112.741 316.456 115.508 314.357 113.695 315.215C111.882 316.074 111.5 319.223 111.691 317.028C111.882 314.834 115.89 312.067 113.218 313.498C111.186 314.586 109.655 316.594 109.098 317.555Z" fill="#FFEEE7"/>
<path d="M108.828 317.887C109.305 316.997 110.889 314.834 113.027 313.689C115.698 312.258 111.691 315.025 111.5 317.219C111.309 319.414 111.691 316.265 113.504 315.406C115.317 314.548 112.549 316.647 113.217 318.65" stroke="#AD8A70" stroke-width="0.332637" stroke-linecap="round"/>
<path d="M77.918 317.887C76.0096 314.452 71.506 307.296 68.758 306.151" stroke="#AD8A70" stroke-width="0.498955" stroke-linecap="round"/>
<path d="M122.765 415.879C122.002 434.772 117.517 439.352 112.079 443.264C117.517 442.437 128.013 438.875 132.402 429.333C129.858 427.139 125.437 422.94 122.765 415.879Z" fill="#DED2C7"/>
<path d="M66.1844 411.777C66.9477 432.387 70.2873 439.352 77.0618 443.264C71.6231 442.437 59.7915 439.543 55.4023 430.001C57.9468 427.807 63.5127 418.838 66.1844 411.777Z" fill="#DED2C7"/>
<path d="M89.2726 444.459C91.5073 445.233 96.9465 444.782 99.3867 444.459C98.5198 441.422 96.9059 439.066 96.4288 421.7C95.7224 422.298 93.948 423.131 91.7534 421.7C91.6764 437.716 91.2763 443.932 89.2726 444.459Z" fill="#DED2C7"/>
<path d="M119.589 376.862C119.108 372.342 114.182 360.762 111.983 355.386C112.922 355.922 115.42 356.416 117.421 355.863C119.997 361.11 120.685 370.632 119.589 376.862Z" fill="#DED2C7"/>
<path d="M105.395 321.132C117.418 325.426 118.181 330.292 119.612 335.897C121.33 335.452 125.032 334.433 125.719 333.822C125.114 331.628 123.81 326.953 122.665 325.808C122.856 318.524 122.799 303.728 120.662 303.194L120.566 303.385L119.708 303.957C120.624 305.179 120.471 315.725 120.566 320.655C120.089 323.04 120.662 326.342 117.227 322.754C113.792 319.167 110.166 321.132 105.395 321.132Z" fill="#CD9163"/>
<path d="M74.1012 324.376C69.712 327.143 70.0937 330.221 68.6624 335.826C66.9449 335.38 62.9565 334.242 62.2695 333.631C62.8738 331.437 63.8916 326.952 65.0366 325.807C65.0366 318.555 65.6091 305.197 66.9449 303.67L67.0403 303.766V304.434C66.1243 305.655 65.9908 316.965 65.8954 321.895C67.0403 322.506 72.1928 324.058 74.1012 324.376Z" fill="#CD9163"/>
<path d="M68.9517 303.098C73.6081 304.014 82.2782 314.039 86.0312 318.937C85.2997 319 83.2451 319.318 81.2604 320.082C78.7796 321.036 81.2604 318.841 80.3063 315.788C79.3521 312.735 72.7684 305.101 68.9517 303.098Z" fill="#CD9163"/>
<path d="M118.375 303.67C113.718 304.586 105.144 314.039 101.391 318.937C102.122 319.001 103.127 319.032 105.112 319.796C107.097 320.559 104.158 319.223 105.112 316.17C106.066 313.117 114.558 305.674 118.375 303.67Z" fill="#CD9163"/>
<ellipse cx="9.06455" cy="7.72872" rx="9.06455" ry="7.72872" transform="matrix(-1 0 0 1 75.3438 337.066)" fill="#F1B09E"/>
<ellipse cx="9.06455" cy="7.72872" rx="9.06455" ry="7.72872" transform="matrix(-1 0 0 1 131.445 337.066)" fill="#F1B09E"/>
<path d="M51.3152 330.884C61.144 329.938 69.6504 333.526 76.6708 337.952C77.1013 338.379 77.3274 339.926 76.0853 338.972C74.4134 337.69 65.1799 330.614 51.7708 331.022C50.8202 330.942 52.2449 330.861 51.3152 330.884Z" fill="#FEFDFB"/>
<path d="M47.5849 340.462C57.6409 336.568 67.4987 337.495 76.0184 339.689C76.5814 339.975 77.2238 341.414 75.6718 340.861C73.583 340.115 62.0492 336.008 48.0986 340.459C47.081 340.668 48.5534 340.159 47.5849 340.462Z" fill="#FEFDFB"/>
<path d="M54.4976 353.739C60.3117 346.748 68.0526 343.466 75.342 341.677C75.8842 341.665 76.9822 342.489 75.5881 342.699C73.7116 342.982 63.3536 344.546 54.8788 353.529C54.2108 354.097 55.0882 353.119 54.4976 353.739Z" fill="#FEFDFB"/>
<path d="M137.251 330.884C127.422 329.938 118.916 333.526 111.896 337.952C111.465 338.379 111.239 339.926 112.481 338.972C114.153 337.69 123.386 330.614 136.796 331.022C137.746 330.942 136.322 330.861 137.251 330.884Z" fill="#FEFDFB"/>
<path d="M140.978 340.462C130.922 336.568 121.064 337.495 112.544 339.689C111.981 339.975 111.339 341.414 112.891 340.861C114.98 340.115 126.513 336.008 140.464 340.459C141.481 340.668 140.009 340.159 140.978 340.462Z" fill="#FEFDFB"/>
<path d="M134.061 353.739C128.247 346.748 120.506 343.466 113.217 341.677C112.674 341.665 111.576 342.489 112.971 342.699C114.847 342.982 125.205 344.546 133.68 353.529C134.348 354.097 133.47 353.119 134.061 353.739Z" fill="#FEFDFB"/>
<path d="M87.8441 445.936C91.3926 444.815 92.5195 433.054 92.5195 408.437C85.4587 406.91 70.2684 402.884 65.9938 398.991C67.0434 429.524 67.6846 437.869 79.5429 444.6C83.0733 446.603 86.0312 446.508 87.8441 445.936Z" fill="#F3EFEA"/>
<path d="M101.195 445.936C97.6464 444.815 96.5196 433.054 96.5195 408.437C105.361 405.702 123.045 399.983 123.045 398.991C121.996 429.524 121.354 437.869 109.496 444.6C105.966 446.603 103.008 446.508 101.195 445.936Z" fill="#F3EFEA"/>
<path d="M123.621 397.941L96.2366 408.151L97.0954 426.185L121.617 421.032L123.621 397.941Z" fill="#F3EFEA"/>
<path d="M65.5195 398.037L92.904 407.483L91.8544 425.612L67.1416 417.597L65.5195 398.037Z" fill="#F3EFEA"/>
<path d="M121.174 415.408C122.975 414.234 122.892 416.839 122.701 419.034C121.863 428.671 121.174 439.357 108.579 445.178C103.318 447.609 101.041 445.369 100.278 443.651C121.556 441.743 114.59 419.702 121.174 415.408Z" fill="#E5DDD8"/>
<path d="M86.9791 445.84C91.5509 444.534 91.559 423.608 92.0363 411.777C92.1555 408.82 88.4102 412.445 88.4102 414.639C88.4102 423.887 85.5409 438.469 82.2085 440.783C80.9681 441.833 77.571 443.035 73.1437 439.829C79.3457 446.127 84.5937 446.699 86.9791 445.84Z" fill="#E5DDD8"/>
<path d="M55.2105 429.906C46.0505 415.021 58.2639 380.003 69.1414 358.249C68.7279 359.298 65.859 372.008 69.523 386.587C73.1869 401.167 62.0805 425.326 55.2105 429.906Z" fill="#DBA478"/>
<path d="M131.829 429.715C141.187 414.954 130.207 382.484 118.566 358.534C118.965 359.589 121.823 371.563 117.964 386.092C114.105 400.621 125.021 425.043 131.829 429.715Z" fill="#DBA478"/>
<path d="M124.099 419.029C126.847 410.25 122.286 386.81 119.71 376.568C120.855 372.217 119.137 361.938 118.183 356.913C126.516 372.847 142.419 409.773 132.209 429.906C129.792 427.934 125.244 422.769 124.099 419.029Z" fill="#CD9163"/>
<path d="M60.8412 421.701C58.0933 412.922 59.6008 395.27 67.425 371.893C67.425 367.6 67.5202 364.037 68.4744 359.012C60.6501 375.71 45.1928 411.11 55.0208 429.811C57.438 427.839 59.6962 425.441 60.8412 421.701Z" fill="#CD9163"/>
<path d="M126.944 380.416C128.407 383.215 139.441 393.605 147.378 402.447L144.106 424.821C131.296 420.498 125.675 399.044 124.705 393.07C123.928 388.29 124.225 382.738 124.47 380.559C124.176 379.199 124.618 378.709 124.876 378.634C125.078 378.295 125.775 378.178 126.944 380.416Z" fill="#5A7639" stroke="#607B40" stroke-width="0.80166"/>
<path d="M282.003 352.5C292.001 387 266.183 405.915 255.563 411.169L251.135 400.152C254.214 391.938 258.642 385.232 260.493 382.94C262.415 380.084 267.365 373.735 271.607 370.916C275.849 368.098 278.623 357.898 282.003 352.5Z" fill="#5A7639"/>
<path d="M290.044 396.2C272.786 391.111 260.873 408.05 257.074 417.156L260.277 423.518C265.74 417.624 271.957 417.156 277.421 418.372C282.885 419.588 290.044 423.518 299.464 424.547C316.797 425.969 328.101 425.139 331.586 424.547C324.929 417.218 307.301 401.289 290.044 396.2Z" fill="#75A142"/>
<path d="M148.405 359.326C189.752 378.792 234.836 367.437 251.404 359.326C249.426 375.76 262.952 408.867 270.09 414.851C275.8 419.637 272.87 424.663 270.692 426.578C265.738 428.173 264.156 429.742 263.984 430.327C258.738 440.14 246.613 446.841 235.089 442.453C225.871 438.943 217.546 439.874 214.536 440.778C197.165 448.118 182.804 444.448 178.332 442.453C173.86 440.459 164.658 433.439 150.469 436.151C136.28 438.863 127.336 429.29 129.486 425.381C131.206 422.254 138.802 410.463 142.385 404.958C148.508 399.917 148.95 372.436 148.405 359.326Z" fill="#53382D"/>
<path d="M148.336 359.964C198.565 374.459 237.014 367.626 249.791 361.081C252.637 379.757 246.589 399.471 245.166 403.143C244.028 406.08 240.72 408.357 239.208 409.129C238.674 409.608 232.716 408.091 229.603 404.979C226.491 401.866 227.914 402.664 218.22 386.222C210.465 373.069 207.4 381.593 206.836 387.499L205.502 410.965C204.761 416.897 202.247 429.801 198.121 433.951C193.994 438.101 192.844 441.853 192.785 443.209C189.05 443.662 180.388 443.593 175.621 439.698C170.854 435.803 160.176 433.871 155.433 433.392C153.743 428.364 154.92 420.41 156.234 418.467C157.551 416.518 159.524 410.246 160.236 406.894C161.16 396.614 160.621 384.307 160.236 379.438C159.643 378.534 158.368 377.603 158.012 381.114C158.083 390.82 153.536 401.44 151.253 405.537C140.937 418.371 138.731 431.033 139.057 435.263C134.403 434.492 126.321 428.722 128.753 425.73C132.381 421.268 137.191 411.468 138.97 409.1C149.961 399.129 148.81 369.781 148.336 359.964Z" fill="#6E4F46"/>
<path d="M233.716 378.611C234.069 378.548 235.688 371.353 236.453 367.763L231.421 368.561C231.509 369.757 231.686 377.893 232.304 378.611C232.798 379.186 233.451 378.851 233.716 378.611Z" fill="#AD7D5E" stroke="#AD7D5E" stroke-width="0.80166"/>
<path d="M183.833 389.459C184.451 389.14 184.922 373.586 185.688 369.996L175.005 369.199C180.125 376.218 181.979 388.821 182.597 389.539C183.092 390.113 183.569 389.699 183.833 389.459Z" fill="#AD7D5E" stroke="#AD7D5E" stroke-width="0.80166"/>
<path d="M148.253 359.069C148.253 365.5 159.377 369.837 200.372 370.555C241.367 371.273 251.577 363.296 251.578 357.952C251.579 352.049 237.019 346.306 208.641 346.306C174.563 345.508 148.253 352.637 148.253 359.069Z" fill="#AD7D5E"/>
<path d="M142.418 434.55L142.523 438.303L140.493 439.147L140.878 434.55C141.174 423.916 129.509 418.595 123.639 417.263L86.0899 405.426C95.1087 401.938 114.628 395.182 120.557 396.066C126.486 396.95 132.681 401.907 135.038 404.275C142.808 411.827 143.196 427.605 142.418 434.55Z" fill="#81B148"/>
<path d="M226.47 302.903C226.339 306.261 225.761 311.188 224.889 313.968C225.717 321.773 233.446 316.584 235.736 316.311C242.389 314.149 243.912 308.899 243.149 301.813C238.679 288.786 215.837 274.487 213.657 273.288L213.628 273.272C211.365 272.027 198.457 264.926 187.385 272.307C176.266 279.72 154.303 294.182 156.701 303.775C159.1 313.368 166.346 317.057 170.706 315.203C174.195 313.721 175.143 307.5 174.034 304.593C189.732 277.994 226.633 298.706 226.47 302.903Z" fill="#A36B52" stroke="#A36B52" stroke-width="0.109013"/>
<path fill-rule="evenodd" clip-rule="evenodd" d="M226.792 282.504C237.432 292.689 243.194 305.823 229.142 308.735C228.073 308.957 226.978 309.157 225.862 309.337C226.186 307.134 226.398 304.774 226.471 302.903C226.634 298.706 189.733 277.994 174.036 304.593C174.453 305.688 174.579 307.253 174.387 308.858C174.003 308.816 173.632 308.775 173.273 308.735C157.602 306.985 160.072 294.814 172.973 282.369C177.872 278.648 182.968 275.251 186.867 272.653C187.043 272.536 187.216 272.42 187.386 272.307C193.281 268.377 199.696 268.553 204.749 269.764C204.928 269.891 205.101 270.018 205.269 270.144C206.307 270.304 207.383 270.56 208.484 270.903C211.037 271.846 212.895 272.868 213.63 273.272L213.658 273.288C214.707 273.864 220.53 277.469 226.792 282.504Z" fill="#BC856D"/>
<path d="M216.776 279.62C215.74 282.053 218.055 285.368 221.945 287.024C225.836 288.68 229.934 289.458 230.969 287.024C232.005 284.591 229.587 279.868 225.696 278.212C221.805 276.556 217.811 277.187 216.776 279.62Z" fill="#F2E4D3"/>
<path d="M171.884 284.688C172.952 286.153 171.92 288.726 169.577 290.435C167.234 292.144 164.617 293.298 163.548 291.833C162.479 290.367 163.363 286.838 165.706 285.129C168.049 283.42 170.815 283.222 171.884 284.688Z" fill="#E6D2BA"/>
<path d="M170.696 284.371C171.488 285.456 170.723 287.361 168.988 288.627C167.253 289.892 165.315 290.747 164.523 289.662C163.732 288.577 164.387 285.963 166.122 284.697C167.857 283.432 169.905 283.285 170.696 284.371Z" fill="#F6ECE0"/>
<path d="M202.215 281.801C201.232 283.418 205.833 285.187 207.709 285.347C211.749 285.862 212.175 283.448 210.746 281.893C209.971 281.05 207.018 278.998 205.695 279.409C203.613 280.055 202.969 280.369 202.215 281.801Z" fill="#E6D2BA"/>
<path d="M202.505 281.447C201.74 282.708 205.325 284.086 206.786 284.21C209.935 284.612 210.266 282.73 209.153 281.519C208.549 280.862 206.248 279.263 205.218 279.583C203.595 280.087 203.093 280.331 202.505 281.447Z" fill="#F6ECE0"/>
<ellipse cx="2.39828" cy="1.58068" rx="2.39828" ry="1.58068" transform="matrix(-1 0 0 1 200.852 271.943)" fill="#E6D2BA"/>
<ellipse cx="1.90772" cy="1.25365" rx="1.90772" ry="1.25365" transform="matrix(-1 0 0 1 199.977 272.052)" fill="#F6ECE0"/>
<ellipse cx="7.08582" cy="4.85106" rx="7.08582" ry="4.85106" transform="matrix(-0.983847 0.179012 0.179012 0.983847 194.637 276.64)" fill="#F2E4D3"/>
<ellipse cx="7.08582" cy="4.85106" rx="7.08582" ry="4.85106" transform="matrix(-0.983847 0.179012 0.179012 0.983847 194.637 276.64)" fill="#F2E4D3"/>
<ellipse cx="7.08582" cy="4.85106" rx="7.08582" ry="4.85106" transform="matrix(-0.983847 0.179012 0.179012 0.983847 194.637 276.64)" fill="#E6D2BA"/>
<ellipse cx="5.39862" cy="3.69598" rx="5.39862" ry="3.69598" transform="matrix(-0.983847 0.179012 0.179012 0.983847 192.168 277.287)" fill="#F6ECE0"/>
<path d="M176.627 280.406C177.268 281.354 179.119 281.222 180.762 280.111C182.405 279.001 183.218 277.332 182.578 276.385C181.394 275.813 180.086 275.569 178.443 276.679C176.799 277.79 176.434 279.356 176.627 280.406Z" fill="#E6D2BA"/>
<path d="M176.727 279.742C177.242 280.504 178.73 280.398 180.051 279.506C181.372 278.613 182.025 277.272 181.51 276.51C180.559 276.051 179.507 275.854 178.187 276.747C176.866 277.64 176.572 278.898 176.727 279.742Z" fill="#F6ECE0"/>
<path d="M234.458 297.933C233.667 298.759 234.187 300.541 235.619 301.912C237.052 303.284 238.855 303.726 239.646 302.899C239.954 301.621 239.917 300.291 238.484 298.92C237.052 297.548 235.443 297.522 234.458 297.933Z" fill="#E6D2BA"/>
<path d="M234.469 297.796C233.865 298.427 234.262 299.786 235.355 300.833C236.448 301.879 237.823 302.216 238.427 301.586C238.662 300.611 238.633 299.596 237.54 298.55C236.447 297.503 235.22 297.483 234.469 297.796Z" fill="#F6ECE0"/>
<path d="M216.776 279.62C215.74 282.053 218.055 285.368 221.945 287.024C225.836 288.68 229.934 289.458 230.969 287.024C232.005 284.591 229.587 279.868 225.696 278.212C221.805 276.556 217.811 277.187 216.776 279.62Z" fill="#E6D2BA"/>
<path d="M217.705 278.907C216.933 280.721 218.659 283.193 221.56 284.428C224.462 285.663 227.518 286.243 228.29 284.428C229.062 282.614 227.259 279.092 224.357 277.857C221.456 276.622 218.477 277.092 217.705 278.907Z" fill="#F6ECE0"/>
<ellipse cx="1.6897" cy="2.01673" rx="1.6897" ry="2.01673" transform="matrix(-1 0 0 1 164.441 302.685)" fill="#F2E4D3"/>
<ellipse cx="1.36266" cy="1.63519" rx="1.36266" ry="1.63519" transform="matrix(-1 0 0 1 163.789 302.685)" fill="#F6ECE0"/>
<path d="M231.904 325.507C231.601 320.371 230.023 308.26 226.059 300.042C222.069 291.769 192.005 295.16 177.471 297.89C175.53 300.67 171.22 309.876 169.511 324.455C168.678 323.313 164.972 320.829 162.942 322.144C160.404 323.787 163.633 331.955 169.511 335.443C169.839 340.283 172.192 349.287 179.659 353.482C177.018 352.833 171.673 353.159 171.422 359.653C171.313 365.539 190.175 362.617 194.371 356.807L210.394 357.103C213.513 360.395 229.053 364.721 232.037 359.815C232.642 357.537 231.511 351.878 225.095 352.196C227.31 350.709 230.646 342.523 231.878 334.168C233.879 333.794 242.222 327.867 242.999 322.144C241.515 319.031 231.804 322.082 231.904 325.507Z" fill="#D1BC9F"/>
<path d="M177.588 303.538C179.016 299.763 217.234 298.189 223.759 301.249C237.209 328.056 225.469 341.07 217.094 346.29C209.136 351.25 192.784 350.814 187.061 347.216C167.529 334.939 172.638 316.625 177.588 303.538Z" fill="#F2E4D3"/>
<ellipse cx="2.50729" cy="3.59742" rx="2.50729" ry="3.59742" transform="matrix(-1 0 0 1 215.348 311.624)" fill="#564035"/>
<ellipse cx="2.50729" cy="3.59742" rx="2.50729" ry="3.59742" transform="matrix(-1 0 0 1 192.348 311.624)" fill="#564035"/>
<path d="M205.211 319.87C205.211 319.422 204.709 319.155 204.323 319.382C201.929 320.793 200.363 320.742 198.238 319.413C197.865 319.18 197.362 319.436 197.362 319.877C197.362 320.054 197.45 320.222 197.597 320.32C200.476 322.247 202.163 322.237 204.971 320.326C205.122 320.224 205.211 320.052 205.211 319.87Z" fill="#70554A"/>
<path d="M170.599 304.311C190.876 279.892 220.109 292.756 232.191 302.24C228.485 307.821 222.907 303.257 221.127 300.278C214.193 303.33 210.098 300.532 208.372 298.751C202.878 302.196 197.217 301.204 195.073 300.278C194.113 302.371 186.715 301.913 183.136 301.422C184.771 305.946 168.365 306.818 170.599 304.311Z" fill="#E8D8C8" stroke="#F2E4D3" stroke-width="0.109013"/>
<path d="M214.75 292.82C211.262 300.396 195.564 307.591 186.298 292.602" stroke="#D1BC9F" stroke-width="1.41716"/>
<path d="M194.961 300.451C191.8 303.176 180.19 302.849 178.991 296.472" stroke="#D1BC9F" stroke-width="1.41716"/>
<path d="M183.354 301.432C183.518 306.283 169.237 306.392 170.491 304.429" stroke="#D1BC9F" stroke-width="1.41716"/>
<path d="M224.449 297.071C221.506 303.176 210.387 301.758 208.479 298.815" stroke="#D1BC9F" stroke-width="1.41716"/>
<path d="M232.191 302.141C229.03 306.229 222.435 303.721 220.636 300.505" stroke="#D1BC9F" stroke-width="1.41716"/>
<path d="M232.678 302.631C218.871 289.248 188.687 283.565 171.125 303.172C170.653 303.703 170.187 304.252 169.727 304.82C170.183 304.252 170.649 303.703 171.125 303.172C191.22 280.575 222.448 290.94 232.678 302.631Z" fill="#886653"/>
<path d="M232.678 302.631L232.504 302.811L232.866 302.467L232.678 302.631ZM169.363 304.873C169.277 304.981 169.295 305.138 169.402 305.224C169.51 305.311 169.668 305.293 169.754 305.185L169.363 304.873ZM232.852 302.452C225.901 295.714 214.845 290.926 203.324 290.281C191.797 289.635 179.78 293.134 170.939 303.005L171.311 303.339C180.032 293.603 191.888 290.141 203.296 290.78C214.709 291.42 225.648 296.165 232.504 302.811L232.852 302.452ZM170.939 303.005C170.46 303.539 169.991 304.092 169.532 304.663L169.922 304.976C170.375 304.412 170.839 303.866 171.311 303.339L170.939 303.005ZM169.532 304.663C169.476 304.733 169.42 304.804 169.364 304.874L169.756 305.185C169.811 305.115 169.866 305.046 169.922 304.976L169.532 304.663ZM169.754 305.185C169.81 305.116 169.865 305.046 169.921 304.977L169.533 304.663C169.476 304.732 169.42 304.803 169.363 304.873L169.754 305.185ZM169.921 304.977C170.378 304.412 170.842 303.866 171.312 303.338L170.938 303.006C170.463 303.54 169.995 304.092 169.533 304.663L169.921 304.977ZM171.312 303.338C181.296 292.11 194.042 289.071 205.575 290.292C217.12 291.514 227.423 297.005 232.49 302.796L232.866 302.467C227.703 296.566 217.277 291.028 205.627 289.795C193.965 288.56 181.049 291.636 170.938 303.006L171.312 303.338Z" fill="#886653"/>
<path d="M217.694 352.558C217.694 353.733 222.924 357.028 225.543 357.028C228.162 357.028 230.285 356.076 230.285 354.902C230.285 353.728 228.762 351.795 226.143 351.795C223.363 351.577 217.694 351.384 217.694 352.558Z" fill="#F2E4D3"/>
<path d="M186.263 353.914C186.263 355.088 180.87 356.258 178.251 356.258C175.632 356.258 172.582 356.886 172.582 355.712C172.582 354.538 175.141 352.66 177.76 352.66C180.54 352.442 186.263 352.74 186.263 353.914Z" fill="#F2E4D3"/>
<path d="M169.946 328.467C171.996 327.071 173.035 327.068 173.707 327.976L173.489 325.208L171.581 324.172C170.455 323.918 167.744 323.114 165.913 322.198C164.081 321.283 162.969 322.187 162.588 322.852C162.097 324.095 169.783 330.876 170.437 330.658C170.96 330.484 170.673 329.938 169.946 328.467Z" fill="#F2E4D3" stroke="#F2E4D3" stroke-width="0.109013"/>
<path d="M233.327 327.466C231.278 326.071 230.239 326.067 229.566 326.976L229.784 324.207L231.692 323.172C232.819 322.917 235.5 321.198 237.361 321.198C239.408 321.198 240.304 321.187 240.686 321.852C241.176 323.095 233.491 329.876 232.837 329.658C232.314 329.484 232.601 328.938 233.327 327.466Z" fill="url(#paint1_linear_789_10515)" stroke="#F2E4D3" stroke-width="0.109013"/>
<path d="M212.609 295.054C208.585 297.407 197.979 300.703 188.845 295.054C192.723 300.319 202.907 307.689 212.609 295.054Z" fill="#D1BC9F"/>
<path d="M211.612 297.396C215.772 300.258 221.025 299.314 223.045 298.351C221.863 300.393 217.459 303.514 209.293 299.661L211.612 297.396Z" fill="#D1BC9F"/>
<path d="M223.208 299.513C225.88 303.13 230.27 303.213 232.091 302.654C230.697 304.436 226.498 306.659 220.859 301.295L223.208 299.513Z" fill="#D1BC9F"/>
<path d="M181.323 299.958C179.042 303.835 172.345 304.849 170.476 304.483C172.048 306.11 178.797 307.409 183.845 301.484L181.323 299.958Z" fill="#D1BC9F"/>
<path d="M192.408 297.941C188.248 300.803 182.995 299.859 180.975 298.895C182.156 300.938 186.56 304.059 194.727 300.206L192.408 297.941Z" fill="#D1BC9F"/>
<ellipse cx="8.612" cy="6.70428" rx="8.612" ry="6.70428" transform="matrix(-1 0 0 1 234.426 313.586)" fill="#DAAA93"/>
<ellipse cx="8.612" cy="6.70428" rx="8.612" ry="6.70428" transform="matrix(-1 0 0 1 182.32 313.586)" fill="#DAAA93"/>
<defs>
<linearGradient id="paint0_linear_789_10515" x1="227.848" y1="122.74" x2="227.848" y2="395.188" gradientUnits="userSpaceOnUse">
<stop stop-color="#E8D9C6"/>
<stop offset="1" stop-color="#E8D9C6"/>
</linearGradient>
<linearGradient id="paint1_linear_789_10515" x1="235.137" y1="321.198" x2="235.137" y2="329.663" gradientUnits="userSpaceOnUse">
<stop stop-color="#FEF8F0"/>
<stop offset="1" stop-color="#F2E4D3"/>
</linearGradient>
</defs>
</svg>
