<svg width="542" height="259" viewBox="0 0 542 259" fill="none" xmlns="http://www.w3.org/2000/svg">
<path d="M511.642 116.008C509.596 114.637 506.431 115.437 505.105 116.008L496.578 133.424C502.073 147.699 513.916 176.822 517.327 179.106C521.59 181.961 526.99 183.674 535.233 180.819C543.475 177.964 544.897 163.117 532.391 144.559C519.885 126 514.2 117.721 511.642 116.008Z" fill="#947A67"/>
<path d="M404.138 116.008C406.196 114.637 409.377 115.437 410.711 116.008L419.285 133.424C413.76 147.699 401.851 176.822 398.422 179.106C394.135 181.961 388.704 183.674 380.416 180.819C372.127 177.964 370.698 163.117 383.274 144.559C395.849 126 401.565 117.721 404.138 116.008Z" fill="#947A67"/>
<path d="M531.007 154.812C527.439 146.801 513.257 124.064 507.588 114.884C507.867 114.513 506.834 114.249 509.064 114.884C511.016 115.441 512.131 115.441 532.483 145.482C551.016 172.837 536.702 181.114 529.695 181.92C522.447 182.755 516.313 178.861 514.64 176.913C511.666 171.721 509.196 167.297 515.673 171.779C530.728 182.198 535.468 164.825 531.007 154.812Z" fill="#846853"/>
<rect width="99.0518" height="49.5259" transform="matrix(-1 0 0 1 507.582 111.499)" fill="#947A67"/>
<path d="M518.713 185.767C513.914 161.51 510.279 153.098 510.65 151.52H405.049C405.42 153.098 400.515 161.292 396.987 185.767C392.491 216.952 405.002 230.039 409.45 236.443C410.305 237.674 427.799 242.847 449.485 237.835C450.82 235.608 453.007 222.15 453.377 219.737C456.269 220.182 461.903 219.922 462.552 219.737C462.923 222.15 466.778 235.608 468.113 237.835C490.91 243.125 504.29 237.484 505.367 236.443C513.43 228.647 524.551 215.282 518.713 185.767Z" fill="#947A67"/>
<path d="M418.537 172.656C418.537 205.958 436.231 215.553 458.057 215.553C479.884 215.553 497.578 207.087 497.578 172.656C497.578 148.964 479.884 129.758 458.057 129.758C436.231 129.758 418.537 148.964 418.537 172.656Z" fill="#BA9B87"/>
<path d="M519.565 191.289C516.17 170.711 510.472 152.297 509.822 145.334C509.451 140.599 507.762 139.764 506.204 139.764C504.255 139.764 505.09 146.727 509.822 174.578C514.554 202.43 503.977 221.368 498.131 226.382C491.311 232.231 475.806 235.489 466.063 231.312L468.347 237.244C490.059 242.536 503.142 237.244 504.533 236.408C505.925 235.573 524.297 219.976 519.565 191.289Z" fill="#846853"/>
<path d="M405.98 141.916C405.312 145.03 405.053 151.833 404.867 154.707L399.276 178.284C393.155 183.011 374.819 185.573 374.263 171.113C377.88 176.396 382.888 177.23 385.948 176.396C389.843 176.396 394.573 164.161 395.686 158.322C396.773 152.618 406.815 138.023 405.98 141.916Z" fill="#846853"/>
<path d="M448.431 237.588C450.45 237.202 451.869 227.7 452.055 225.113L451.497 224.558C449.918 229.733 444.138 238.032 405.78 229.826C406.673 231.378 409.219 235.463 410.241 236.479C429.196 241.747 441.183 238.974 448.431 237.588Z" fill="#846853"/>
<path d="M482.595 212.684C476.247 216.77 467.475 219.011 462.768 219.729C462.995 222.075 464.785 227.825 466.947 233.933C472.725 235.586 475.927 236.751 478.179 236.797C477.805 234.859 477.07 229.956 477.123 225.845C477.189 220.706 490.529 207.576 482.595 212.684Z" fill="#846853"/>
<path d="M430.619 214.718C437.267 218.106 448.347 219.466 453.056 219.722C453.056 222.032 451.754 227.806 450.203 233.965C444.663 236.121 439.483 237.558 437.267 237.815C437.452 235.89 437.71 231.04 437.267 227.036C436.713 222.032 422.309 210.483 430.619 214.718Z" fill="#846853"/>
<path d="M466.779 47.6426C469.579 58.0949 480.323 64.2977 490.775 61.4971C500.13 56.455 507.43 47.9527 504.63 37.5004C501.829 27.0481 491.085 20.8453 480.633 23.646C470.181 26.4467 466.135 36.8278 466.779 47.6426Z" fill="#947A67"/>
<path d="M466.779 47.6426C469.579 58.0949 480.323 64.2977 490.775 61.4971C500.13 56.455 507.43 47.9527 504.63 37.5004C501.829 27.0481 491.085 20.8453 480.633 23.646C470.181 26.4467 466.135 36.8278 466.779 47.6426Z" stroke="#5F4B3D"/>
<path d="M491.97 52.1584C504.291 36.6769 491.455 26.7332 482.567 23.3818C511.379 23.5563 506.85 52.9643 495.099 57.5227C489.543 62.395 479.649 67.6399 491.97 52.1584Z" fill="#846853"/>
<ellipse cx="10.6538" cy="11.2661" rx="10.6538" ry="11.2661" transform="matrix(-0.965926 0.258819 0.258819 0.965926 492.188 28.9172)" fill="#C6A195"/>
<path d="M490.461 32.6934C500.786 37.8746 496.198 50.4404 491.052 53.5633L484.877 47.9926C493.221 41.2723 482.047 28.4704 490.461 32.6934Z" fill="#B59084"/>
<path d="M417.21 60.4177C420.01 70.87 413.754 81.6279 403.237 84.4461C392.552 84.7735 381.923 81.0756 379.122 70.6233C376.321 60.171 382.577 49.4132 393.095 46.595C403.612 43.7768 412.347 50.7334 417.21 60.4177Z" fill="#947A67"/>
<path d="M417.21 60.4177C420.01 70.87 413.754 81.6279 403.237 84.4461C392.552 84.7735 381.923 81.0756 379.122 70.6233C376.321 60.171 382.577 49.4132 393.095 46.595C403.612 43.7768 412.347 50.7334 417.21 60.4177Z" stroke="#5F4B3D"/>
<path d="M403.158 75.6947C415.417 60.2212 402.72 50.513 393.86 47.1501C419.867 43.5672 417.986 76.5181 406.282 81.0648C400.751 85.9326 390.899 91.1682 403.158 75.6947Z" fill="#846853"/>
<ellipse cx="12.0008" cy="11.7559" rx="12.0008" ry="11.7559" transform="matrix(1 0 0 -1 386.344 77.4812)" fill="#C6A195"/>
<path d="M389.707 105.587C392.928 125.307 408.441 134.711 460.582 123.848C505.918 110.57 519.163 91.4827 510.718 73.162C494.241 37.4211 470.677 29.6095 437.699 38.4461C404.721 47.2826 390.562 59.5517 389.707 105.587Z" fill="#947A67"/>
<path d="M389.707 105.587C392.928 125.307 408.441 134.711 460.582 123.848C505.918 110.57 519.163 91.4827 510.718 73.162C494.241 37.4211 470.677 29.6095 437.699 38.4461C404.721 47.2826 390.562 59.5517 389.707 105.587Z" stroke="#7D6655"/>
<path d="M461.815 35.5338C461.879 35.5338 461.944 35.5341 462.01 35.5346C464.747 35.6006 471.114 37.9258 479.047 46.1613C489.206 56.7078 498.6 78.0808 500.109 83.7116C501.52 88.9796 501.616 94.6002 495.537 102.44C489.636 110.051 455.595 128.105 410.437 126.936C440.261 131.931 476.782 118.758 494.266 109.274C511.75 99.7895 513.381 86.9307 512.336 79.8708C511.29 72.8108 502.229 56.8885 491.473 46.2196C482.956 37.7712 468.415 35.5837 462.01 35.5346C461.943 35.533 461.878 35.5327 461.815 35.5338Z" fill="#846853"/>
<ellipse cx="13.9601" cy="12.2457" rx="13.9601" ry="12.2457" transform="matrix(-0.965926 0.258819 0.258819 0.965926 464.633 85.9976)" fill="#C6AA95"/>
<path d="M445.407 98.463C445.838 100.072 449.494 99.5231 453.871 98.3503C458.248 97.1775 461.689 95.8246 461.258 94.2159C460.827 92.6073 457.171 93.1558 452.794 94.3286C448.417 95.5014 444.976 96.8543 445.407 98.463Z" fill="#5F4B3D"/>
<path d="M429.046 89.4477C426.4 88.6261 420.187 88.1478 416.508 92.8073" stroke="#5F4B3D" stroke-width="3" stroke-linecap="round"/>
<path d="M481.8 75.3121C479.154 74.4905 472.941 74.0123 469.262 78.6717" stroke="#5F4B3D" stroke-width="3" stroke-linecap="round"/>
<path d="M449.654 106.746C451.968 106.125 455.568 105.161 453.096 95.9346" stroke="#5F4B3D" stroke-width="3" stroke-linecap="round"/>
<path d="M461.482 103.576C459.075 104.221 455.332 105.224 452.859 95.9981" stroke="#5F4B3D" stroke-width="3" stroke-linecap="round"/>
<ellipse cx="11.7559" cy="10.4089" rx="11.7559" ry="10.4089" transform="matrix(-0.965926 0.258819 0.258819 0.965926 417.441 95.3463)" fill="#CD9F99"/>
<ellipse cx="465.857" cy="71.177" rx="3.05694" ry="4.11574" transform="rotate(50.5568 465.857 71.177)" fill="#C6AA95"/>
<ellipse cx="3.05694" cy="4.11574" rx="3.05694" ry="4.11574" transform="matrix(-0.16407 0.986449 0.986449 0.16407 425.441 77.3617)" fill="#C6AA95"/>
<ellipse cx="11.7559" cy="10.4089" rx="11.7559" ry="10.4089" transform="matrix(-0.965926 0.258819 0.258819 0.965926 503.316 72.3361)" fill="#CD9F99"/>
<path d="M496.58 74.9009C498.262 79.052 501.524 88.6769 500.058 94.2533C512.402 86.1565 503.977 74.8912 496.58 74.9009Z" fill="#C58D85"/>
<path d="M392.621 81.4595C394.691 64.7918 405.255 53.9613 410.279 50.6295L408.063 48.67C397.412 52.6587 391.803 71.7497 390.426 80.6291L392.621 81.4595Z" fill="#927763" fill-opacity="0.3"/>
<path d="M497.717 57.862C487.59 44.4624 473.026 40.3651 467.009 39.9915L467.948 37.1868C479.167 35.3155 493.57 49.0444 499.202 56.0456L497.717 57.862Z" fill="#927763" fill-opacity="0.3"/>
<path d="M498.205 107.257C503.497 106.081 509.352 112.034 511.618 115.157C516.089 121.71 523.23 132.575 516.028 123.609C508.825 114.643 491.591 112.156 483.874 112.034C486.446 110.931 492.914 108.432 498.205 107.257Z" fill="#846853"/>
<path d="M33.3068 201.742C37.2957 225.465 69.7677 241.189 87.8115 241.189C90.1344 241.189 94.5811 237.132 93.7847 220.905C92.9882 204.679 75.6164 204.604 67.03 206.595C59.1903 203.152 55.8055 193.106 74.6209 169.512C98.1401 140.019 74.7453 101.977 47.6174 97.7098C28.3743 94.6828 11.1565 102.812 3.69005 114.26C-4.56475 126.918 4.81001 151.468 12.6497 145.495C28.2656 133.597 41.271 138.775 39.6532 162.543C38.7406 175.952 30.9424 187.68 33.3068 201.742Z" fill="#FFFCF9"/>
<path d="M33.3068 201.742C37.2957 225.465 69.7677 241.189 87.8115 241.189C90.1344 241.189 94.5811 237.132 93.7847 220.905C92.9882 204.679 75.6164 204.604 67.03 206.595C59.1903 203.152 55.8055 193.106 74.6209 169.512C98.1401 140.019 74.7453 101.977 47.6174 97.7098C28.3743 94.6828 11.1565 102.812 3.69005 114.26C-4.56475 126.918 4.81001 151.468 12.6497 145.495C28.2656 133.597 41.271 138.775 39.6532 162.543C38.7406 175.952 30.9424 187.68 33.3068 201.742Z" fill="#EAC8AD"/>
<path d="M12.1529 145.868C18.0781 143.386 26.0902 134.42 35.1743 142.508C32.948 138.426 35.3155 130.688 42.3415 133.412C42.3413 128.82 43.7609 124.962 50.3558 123.967C46.125 117.496 51.941 110.457 59.4641 116.096C56.3289 112.892 59.7942 103.199 67.4043 107.292C33.3077 80.9104 6.42867 109.158 2.94434 115.256C-4.27914 127.897 2.94434 149.726 12.1529 145.868Z" fill="#F3EFEA"/>
<path d="M11.9025 145.868C8.22318 148.653 3.73097 141.056 2.94285 137.78C10.0774 128.115 27.9304 112.518 42.7637 129.442C42.5148 130.521 42.0917 132.827 42.3904 133.424C42.7637 134.171 32.0618 130.811 34.9239 141.637C25.5115 135.569 16.592 142.319 11.9685 145.818L11.9025 145.868Z" fill="#DED2C7"/>
<path d="M36.0443 180.836C53.8641 158.237 47.7001 137.033 42.8884 129.566C42.4902 130.263 42.3492 132.512 42.3907 133.424C34.1776 130.562 32.809 139.148 35.5466 142.259C43.2121 152.812 39.2383 172.291 36.0443 180.836Z" fill="#E6B895"/>
<path d="M39.5292 215.555C53.4665 234.221 78.5623 240.982 87.1901 240.94C115.065 232.578 85.1576 214.808 66.6575 206.719C61.0163 204.936 53.7159 194.649 72.6303 171.752C95.8622 143.628 77.608 117.122 70.515 110.652C74.9952 149.726 61.5551 157.317 54.462 167.023C47.3689 176.729 37.5382 188.8 41.8936 202.737C43.8237 208.914 43.4284 212.568 39.5292 215.555Z" fill="#D2A787"/>
<path d="M111.311 81.7815C118.578 80.9851 128.181 81.4497 131.748 81.7815C140.687 68.9642 154.873 57.889 156.864 62.12C158.674 65.9664 159.104 81.7815 159.104 90.4923C162.34 97.0876 170.532 116.998 152.758 130.064C163.12 152.712 202.594 233.101 146.098 243.554C140.7 244.674 119.943 248.531 96.1499 243.554C39.6542 233.101 79.9395 152.712 90.3013 130.064C72.5272 116.998 80.7194 97.0876 83.9548 90.4923C83.9548 81.7815 84.3847 65.9664 86.1948 62.12C88.1858 57.889 102.372 68.9642 111.311 81.7815Z" fill="#F3EFEA"/>
<path d="M111.31 81.7815C118.578 80.9851 128.181 81.4497 131.748 81.7815C140.687 68.9642 154.873 57.889 156.864 62.12C158.674 65.9664 159.104 81.7815 159.104 90.4923C160.361 93.4789 161.854 96.4654 162.85 100.821C154.471 105.301 134.179 109.93 121.536 92.6078C108.892 109.93 88.4759 105.301 80.097 100.821C81.0925 96.4654 82.6974 93.4789 83.9544 90.4923C83.9544 81.7815 84.3843 65.9664 86.1944 62.12C88.1854 57.889 102.372 68.9642 111.31 81.7815Z" fill="#EAC8AD"/>
<ellipse cx="4.10652" cy="4.9776" rx="4.10652" ry="4.9776" transform="matrix(-1 0 0 1 140.449 97.8342)" fill="#5F4B3D"/>
<ellipse cx="4.10652" cy="4.9776" rx="4.10652" ry="4.9776" transform="matrix(-1 0 0 1 112.076 97.8342)" fill="#5F4B3D"/>
<path d="M126.105 106.447C128.448 107.75 124.424 110.72 122.014 112.272C120.065 110.618 116.056 107.81 117.646 106.651C119.985 104.947 123.96 105.254 126.105 106.447Z" fill="#5F4B3D"/>
<path d="M113.196 113.265C119.916 119.238 123.691 114.26 123.4 111.274C122.695 110.154 120.995 108.743 120.787 111.025C120.289 116.5 115.58 112.399 114.067 112.02C113.072 111.772 112.906 112.892 113.196 113.265Z" fill="#5F4B3D"/>
<path d="M130.755 113.265C124.035 119.238 120.26 114.26 120.551 111.274C121.256 110.154 122.957 108.743 123.164 111.025C123.662 116.5 128.371 112.399 129.884 112.02C130.879 111.772 131.045 112.892 130.755 113.265Z" fill="#5F4B3D"/>
<path d="M153.018 129.815C164.965 122.449 164.55 107.416 162.849 100.821C160.759 102.115 156.835 103.351 155.134 103.807C156.835 110.403 156.752 121.577 144.805 128.944C146.257 130.064 149.435 131.806 153.018 129.815Z" fill="#DED2C7"/>
<path d="M90.8116 129.815C78.8654 122.449 79.2802 107.416 80.9808 100.821C83.0714 102.115 86.9955 103.351 88.6961 103.807C86.9955 110.403 87.0784 121.577 99.0246 128.944C97.5728 130.064 94.3955 131.806 90.8116 129.815Z" fill="#DED2C7"/>
<path d="M105.606 136.535C118.448 151.07 131.704 142.591 136.557 136.535C144.322 126.58 134.649 128.654 128.842 130.935C126.561 131.806 119.294 133.026 113.321 130.935C107.514 128.654 97.8406 126.58 105.606 136.535Z" fill="#DED2C7"/>
<path d="M140.199 81.2837C142.688 76.8039 150.055 65.8532 153.639 64.3599" stroke="#AD8A70" stroke-width="3" stroke-linecap="round"/>
<path d="M99.6622 78.6199C99.6952 78.6788 99.7277 78.7372 99.7598 78.7949C99.7304 78.7402 99.6979 78.6817 99.6622 78.6199C97.139 74.1076 92.0977 66.2072 88.56 64.7332C87.8964 67.222 86.4695 74.0164 86.569 79.7904C89.3067 74.6884 93.1643 82.4037 94.0354 79.7904C94.9065 77.1772 91.2977 74.4395 93.6621 75.5595C96.0264 76.6794 96.5242 80.7859 96.2753 77.9238C96.0264 75.0617 90.8 71.4529 94.2843 73.3195C96.9403 74.7424 98.9412 77.3704 99.6622 78.6199Z" fill="#FFEEE7"/>
<path d="M100.006 79.0438C99.3837 77.8824 97.3178 75.0617 94.5304 73.5685C91.0461 71.7019 96.2725 75.3106 96.5214 78.1727C96.7703 81.0349 96.2725 76.9283 93.9082 75.8084C91.5438 74.6884 95.1526 77.4261 94.2815 80.0393" stroke="#AD8A70" stroke-width="2" stroke-linecap="round"/>
<path d="M141.419 79.8551C141.384 79.9173 141.35 79.9787 141.316 80.0393C141.347 79.9819 141.382 79.9203 141.419 79.8551C143.967 75.3151 149.857 66.4552 153.392 64.9821C154.056 67.4709 155.358 75.2608 155.259 81.0349C152.521 75.9328 147.912 83.6481 147.041 81.0349C146.17 78.4216 149.778 75.6839 147.414 76.8039C145.05 77.9239 144.552 82.0304 144.801 79.1682C145.05 76.3061 150.276 72.6974 146.792 74.564C144.142 75.9833 142.145 78.6019 141.419 79.8551Z" fill="#FFEEE7"/>
<path d="M141.066 80.2882C141.689 79.1268 143.754 76.3061 146.542 74.8128C150.026 72.9462 144.8 76.555 144.551 79.4171C144.302 82.2792 144.8 78.1727 147.164 77.0528C149.528 75.9328 145.92 78.6705 146.791 81.2837" stroke="#AD8A70" stroke-width="2" stroke-linecap="round"/>
<path d="M100.752 80.2882C98.2632 75.8084 92.3896 66.4754 88.8057 64.9821" stroke="#AD8A70" stroke-width="3" stroke-linecap="round"/>
<path d="M159.24 208.088C158.245 232.727 152.396 238.7 145.303 243.802C152.396 242.724 166.084 238.078 171.809 225.634C168.49 222.772 162.724 217.297 159.24 208.088Z" fill="#DED2C7"/>
<path d="M85.4484 202.737C86.444 229.616 90.7994 238.7 99.6346 243.802C92.5415 242.724 77.111 238.949 71.3867 226.505C74.7051 223.643 81.9641 211.946 85.4484 202.737Z" fill="#DED2C7"/>
<path d="M115.563 245.361C118.478 246.37 125.571 245.781 128.754 245.361C127.623 241.4 125.518 238.327 124.896 215.679C123.975 216.459 121.661 217.546 118.799 215.679C118.698 236.566 118.177 244.674 115.563 245.361Z" fill="#DED2C7"/>
<path d="M155.097 157.202C154.47 151.307 148.045 136.205 145.177 129.193C146.402 129.892 149.66 130.537 152.27 129.815C155.629 136.659 156.527 149.076 155.097 157.202Z" fill="#DED2C7"/>
<path d="M136.592 84.5192C152.271 90.119 153.267 96.4654 155.133 103.775C157.373 103.194 162.202 101.866 163.098 101.07C162.31 98.2076 160.609 92.11 159.116 90.6167C159.364 81.1178 159.29 61.8213 156.502 61.1245L156.378 61.3733L155.258 62.12C156.453 63.7128 156.253 77.4676 156.378 83.897C155.756 87.008 156.502 91.3136 152.022 86.6347C147.543 81.9557 142.814 84.5192 136.592 84.5192Z" fill="#E6B895"/>
<path d="M95.7763 88.7501C90.052 92.3589 90.5498 96.3733 88.6832 103.683C86.4433 103.102 81.2417 101.617 80.3457 100.821C81.1338 97.9587 82.4612 92.11 83.9545 90.6167C83.9545 81.1593 84.7011 63.7377 86.4433 61.7466L86.5677 61.8711V62.7422C85.3731 64.335 85.1989 79.0853 85.0744 85.5147C86.5677 86.3111 93.2875 88.3353 95.7763 88.7501Z" fill="#E6B895"/>
<path d="M89.0573 61C95.1299 62.1946 106.437 75.2691 111.332 81.6571C110.378 81.74 107.698 82.1548 105.11 83.1503C101.875 84.3947 105.11 81.5326 103.866 77.5505C102.621 73.5684 94.0349 63.6132 89.0573 61Z" fill="#E6B895"/>
<path d="M153.516 61.7466C147.443 62.9413 136.26 75.2691 131.365 81.6571C132.319 81.74 133.63 81.7815 136.218 82.777C138.807 83.7725 134.974 82.0304 136.218 78.0483C137.463 74.0662 148.538 64.3599 153.516 61.7466Z" fill="#E6B895"/>
<ellipse cx="11.8218" cy="10.0796" rx="11.8218" ry="10.0796" transform="matrix(-1 0 0 1 97.3945 105.301)" fill="#F1B09E"/>
<ellipse cx="11.8218" cy="10.0796" rx="11.8218" ry="10.0796" transform="matrix(-1 0 0 1 170.564 105.301)" fill="#F1B09E"/>
<path d="M66.0446 97.2387C78.8631 96.0043 89.9571 100.684 99.113 106.456C99.6743 107.013 99.9693 109.03 98.3493 107.787C96.1688 106.114 84.1268 96.8861 66.6388 97.4184C65.3991 97.3136 67.2571 97.2082 66.0446 97.2387Z" fill="#FEFDFB"/>
<path d="M61.1782 109.73C74.2931 104.651 87.1494 105.86 98.2606 108.721C98.9948 109.094 99.8326 110.972 97.8085 110.249C95.0843 109.277 80.0422 103.92 61.8482 109.726C60.5211 109.998 62.4413 109.334 61.1782 109.73Z" fill="#FEFDFB"/>
<path d="M70.1998 127.045C77.7824 117.928 87.8779 113.647 97.3846 111.314C98.0917 111.298 99.5238 112.373 97.7055 112.647C95.2582 113.015 81.7496 115.056 70.6969 126.771C69.8257 127.512 70.97 126.237 70.1998 127.045Z" fill="#FEFDFB"/>
<path d="M178.131 97.2387C165.313 96.0043 154.219 100.684 145.063 106.456C144.501 107.013 144.206 109.03 145.827 107.787C148.007 106.114 160.049 96.8861 177.537 97.4184C178.777 97.3136 176.919 97.2082 178.131 97.2387Z" fill="#FEFDFB"/>
<path d="M183 109.73C169.885 104.651 157.028 105.86 145.917 108.721C145.183 109.094 144.345 110.972 146.369 110.249C149.093 109.277 164.136 103.92 182.33 109.726C183.657 109.998 181.736 109.334 183 109.73Z" fill="#FEFDFB"/>
<path d="M173.978 127.045C166.395 117.928 156.3 113.647 146.793 111.314C146.086 111.298 144.654 112.373 146.472 112.647C148.92 113.015 162.428 115.056 173.481 126.771C174.352 127.512 173.208 126.237 173.978 127.045Z" fill="#FEFDFB"/>
<path d="M113.695 247.287C118.323 245.825 119.793 230.487 119.793 198.382C110.584 196.391 90.7735 191.139 85.1986 186.062C86.5674 225.883 87.4037 236.767 102.869 245.545C107.473 248.158 111.331 248.033 113.695 247.287Z" fill="#F3EFEA"/>
<path d="M131.115 247.287C126.487 245.825 125.018 230.487 125.018 198.382C136.549 194.815 159.612 187.356 159.612 186.062C158.243 225.883 157.407 236.767 141.941 245.545C137.337 248.158 133.48 248.033 131.115 247.287Z" fill="#F3EFEA"/>
<path d="M160.359 184.693L124.645 198.009L125.765 221.528L157.746 214.808L160.359 184.693Z" fill="#F3EFEA"/>
<path d="M84.5762 184.818L120.29 197.137L118.922 220.781L86.6917 210.328L84.5762 184.818Z" fill="#F3EFEA"/>
<path d="M156.003 207.466C158.351 205.935 158.243 209.333 157.994 212.195C156.901 224.763 156.003 238.7 139.577 246.291C132.715 249.462 129.746 246.54 128.751 244.3C156.501 241.811 147.416 213.066 156.003 207.466Z" fill="#E5DDD8"/>
<path d="M112.575 247.162C118.537 245.459 118.548 218.168 119.17 202.737C119.326 198.882 114.441 203.608 114.441 206.47C114.441 218.531 110.699 237.549 106.353 240.567C104.735 241.936 100.305 243.504 94.5308 239.323C102.619 247.536 109.464 248.282 112.575 247.162Z" fill="#E5DDD8"/>
<path d="M71.135 226.381C59.1887 206.968 75.1172 161.299 89.3034 132.926C88.7641 134.295 85.0225 150.871 89.801 169.885C94.5795 188.9 80.0948 220.408 71.135 226.381Z" fill="#EAC8AD"/>
<path d="M171.064 226.132C183.269 206.881 168.948 164.534 153.767 133.3C154.288 134.676 158.015 150.292 152.982 169.24C147.949 188.189 162.185 220.039 171.064 226.132Z" fill="#EAC8AD"/>
<path d="M160.982 212.195C164.566 200.746 158.618 170.175 155.258 156.819C156.751 151.144 154.511 137.738 153.267 131.184C164.135 151.966 184.875 200.124 171.559 226.381C168.407 223.809 162.476 217.073 160.982 212.195Z" fill="#E6B895"/>
<path d="M78.4781 215.679C74.8942 204.231 76.8603 181.209 87.0644 150.721C87.0644 145.121 87.1887 140.476 88.4331 133.922C78.2288 155.699 58.0696 201.866 70.8872 226.256C74.0396 223.685 76.9848 220.557 78.4781 215.679Z" fill="#E6B895"/>
<path d="M177.39 147.076C179.628 151.358 196.509 167.254 208.652 180.782L203.646 215.013C184.047 208.399 175.449 175.576 173.964 166.435C172.776 159.123 173.229 150.627 173.604 147.293C173.155 145.214 173.831 144.464 174.225 144.349C174.534 143.831 175.6 143.651 177.39 147.076Z" fill="#678840" stroke="#678840"/>
<path d="M201.076 201.292L205 205.488L203.529 208.512L199.31 202.853C188.873 190.366 170.11 196.089 162.033 200.512L107 225C113.801 211.862 129.327 184.336 137.018 179.341C144.709 174.346 156.834 173.748 161.935 174.073C178.494 174.853 194.929 192.544 201.076 201.292Z" fill="#96BB68"/>
<path d="M417.493 134.581C417.953 188.687 385.569 218.293 369.319 226.332L362.546 209.477C367.257 196.909 374.03 186.65 376.862 183.143C379.804 178.774 387.377 169.059 393.867 164.747C400.357 160.435 412.322 142.839 417.493 134.581Z" fill="#8BAF5D"/>
<path d="M430.442 175.429C404.039 167.643 385.813 193.56 380 207.491L384.9 217.224C393.259 208.207 402.771 207.491 411.13 209.352C419.489 211.213 430.442 217.224 444.855 218.799C471.373 220.974 488.668 219.705 494 218.799C483.815 207.587 456.846 183.216 430.442 175.429Z" fill="#9CC06F"/>
<path d="M203.748 127.014C267.007 156.796 335.983 139.423 361.332 127.014C358.306 152.157 379 202.81 389.92 211.964C398.656 219.287 394.174 226.977 390.841 229.906C383.263 232.347 380.842 234.748 380.579 235.643C372.553 250.655 354.001 260.908 336.371 254.195C322.267 248.825 309.531 250.249 304.926 251.632C278.348 262.861 256.376 257.246 249.535 254.195C242.693 251.144 228.615 240.403 206.906 244.553C185.197 248.703 171.513 234.056 174.803 228.075C177.434 223.291 189.056 205.251 194.538 196.829C203.906 189.116 204.581 147.072 203.748 127.014Z" fill="#53382D"/>
<path d="M203.643 127.991C280.492 150.166 339.317 139.712 358.865 129.699C363.219 158.273 353.967 188.435 351.79 194.052C350.048 198.545 344.987 202.03 342.674 203.21C341.857 203.943 332.741 201.623 327.979 196.86C323.217 192.098 325.394 193.319 310.563 168.164C298.698 148.04 294.008 161.082 293.147 170.118L291.106 206.019C289.972 215.096 286.126 234.837 279.812 241.187C273.499 247.536 271.739 253.276 271.649 255.352C265.934 256.044 252.681 255.938 245.388 249.979C238.095 244.02 221.759 241.065 214.502 240.332C211.917 232.639 213.718 220.469 215.727 217.497C217.742 214.515 220.761 204.92 221.849 199.791C223.264 184.063 222.439 165.233 221.849 157.785C220.942 156.401 218.992 154.976 218.448 160.349C218.557 175.198 211.599 191.447 208.107 197.715C192.324 217.351 188.948 236.722 189.447 243.194C182.327 242.014 169.961 233.187 173.683 228.609C179.233 221.782 186.593 206.788 189.314 203.166C206.13 187.911 204.369 143.01 203.643 127.991Z" fill="#6E4F46"/>
<path d="M334.266 156.519C334.806 156.422 337.282 145.414 338.453 139.922L330.754 141.142C330.889 142.973 331.159 155.421 332.105 156.519C332.861 157.398 333.861 156.885 334.266 156.519Z" fill="#AD7D5E" stroke="#AD7D5E"/>
<path d="M257.949 173.116C258.894 172.628 259.615 148.831 260.785 143.339L244.441 142.119C252.275 152.858 255.112 172.14 256.058 173.238C256.814 174.117 257.543 173.482 257.949 173.116Z" fill="#AD7D5E" stroke="#AD7D5E"/>
<path d="M203.513 126.62C203.513 136.46 220.533 143.095 283.253 144.193C345.972 145.292 361.595 133.088 361.596 124.911C361.597 115.88 339.321 107.094 295.904 107.094C243.766 105.873 203.513 116.78 203.513 126.62Z" fill="#AD7D5E"/>
<path d="M250.644 47.7493C250.828 52.4782 251.638 59.4179 252.861 63.3331C251.699 74.3262 240.859 67.0179 237.649 66.6341C228.317 63.5888 226.181 56.1937 227.252 46.214C233.521 27.8666 265.556 7.7281 268.614 6.03921L268.654 6.01694C271.828 4.2635 289.933 -5.73803 305.46 4.6574C321.055 15.0978 351.858 35.4665 348.495 48.9776C345.131 62.4887 334.968 67.6834 328.853 65.0733C323.96 62.9853 322.631 54.2233 324.185 50.1291C302.169 12.6666 250.415 41.8382 250.644 47.7493Z" fill="#A36B52"/>
<path fill-rule="evenodd" clip-rule="evenodd" d="M282.416 0.781172C289.283 -0.638338 297.704 -0.541425 305.481 4.65996C305.72 4.81994 305.963 4.98225 306.209 5.14685C313.977 10.3406 325.14 17.804 334.079 25.6282C338.69 29.6641 342.713 33.7991 345.374 37.7711C348.033 41.7411 349.34 45.5625 348.493 48.9646C346.809 55.7206 343.423 60.4033 339.685 63.0706C335.949 65.7367 331.857 66.3922 328.772 65.0767C326.296 64.021 324.733 61.2855 323.982 58.3201C323.235 55.3697 323.284 52.1652 324.055 50.1023C318.57 40.7939 311.24 35.6255 303.332 33.1982C295.414 30.7676 286.912 31.0844 279.099 32.7535C271.287 34.4224 264.168 37.4426 259.017 40.4131C256.441 41.8985 254.36 43.3703 252.93 44.653C252.215 45.2946 251.666 45.887 251.299 46.4087C250.93 46.9328 250.754 47.3747 250.767 47.7175C250.95 52.4335 251.759 59.35 252.978 63.2469L252.983 63.2621L252.981 63.2779C252.69 66.0324 251.789 67.6585 250.536 68.5288C249.284 69.3979 247.699 69.5005 246.064 69.2494C244.429 68.9981 242.732 68.3907 241.248 67.8246C241.038 67.7443 240.831 67.6648 240.63 67.5873C240.121 67.3912 239.645 67.2076 239.212 67.0541C238.607 66.8396 238.094 66.6864 237.703 66.6396L237.695 66.6387L237.688 66.6364C233.011 65.1114 230.129 62.4936 228.554 59.0023C226.982 55.5149 226.717 51.1648 227.252 46.1803L227.253 46.1718L227.256 46.1636C228.826 41.5734 232.006 36.8762 235.937 32.3883C239.868 27.8995 244.554 23.6159 249.137 19.853C258.304 12.3278 267.07 6.88032 268.601 6.03534L268.642 6.01297C270.228 5.1372 275.549 2.20051 282.416 0.781172ZM282.447 0.931216C275.603 2.3458 270.299 5.27336 268.715 6.14735L268.675 6.16957C267.152 7.00975 258.394 12.4519 249.234 19.9716C244.654 23.7312 239.976 28.009 236.052 32.4894C232.129 36.9678 228.964 41.6446 227.403 46.2052C226.87 51.1749 227.138 55.49 228.694 58.9391C230.247 62.3845 233.09 64.9745 237.728 66.4884C238.137 66.5384 238.661 66.6962 239.263 66.9097C239.698 67.064 240.177 67.2487 240.687 67.4452C240.888 67.5225 241.093 67.6016 241.302 67.6814C242.786 68.2475 244.47 68.8494 246.087 69.0979C247.705 69.3466 249.244 69.2395 250.449 68.4028C251.65 67.569 252.537 65.9978 252.827 63.2775C251.606 59.3587 250.798 52.4382 250.615 47.7234C250.599 47.329 250.8 46.8523 251.174 46.3203C251.55 45.7859 252.109 45.1847 252.828 44.5389C254.268 43.2469 256.359 41.7691 258.941 40.2803C264.104 37.3026 271.238 34.2762 279.068 32.6036C286.897 30.9311 295.426 30.6112 303.377 33.0517C311.329 35.4928 318.698 40.6945 324.205 50.0561L324.224 50.0878L324.211 50.1223C323.442 52.1459 323.384 55.3359 324.13 58.2824C324.876 61.2304 326.421 63.908 328.831 64.9357C331.854 66.2246 335.89 65.5906 339.596 62.9458C343.301 60.3023 346.669 55.6527 348.344 48.9275C349.176 45.5889 347.898 41.8144 345.247 37.8565C342.597 33.9007 338.586 29.7759 333.979 25.7436C325.047 17.926 313.891 10.4674 306.122 5.27264C305.876 5.10862 305.634 4.94687 305.396 4.78743C297.665 -0.383669 289.29 -0.483273 282.447 0.931216Z" fill="#A36B52"/>
<path fill-rule="evenodd" clip-rule="evenodd" d="M249.795 18.9477C234.84 33.2485 226.738 51.6938 246.482 55.7825C247.984 56.0935 249.522 56.3745 251.089 56.6275C250.634 53.5345 250.336 50.2223 250.234 47.5949C250.004 41.7029 301.844 12.6257 323.896 49.967C323.31 51.5044 323.133 53.702 323.403 55.9555C323.943 55.8965 324.465 55.8387 324.969 55.7825C346.983 53.3258 343.516 36.2426 325.396 18.7732C318.511 13.5465 311.35 8.7772 305.87 5.12789C305.623 4.96375 305.38 4.80188 305.141 4.64234C296.861 -0.87366 287.85 -0.628162 280.753 1.07151C280.5 1.24977 280.256 1.42875 280.021 1.60695C278.557 1.83131 277.04 2.19301 275.488 2.67651C271.909 3.99891 269.305 5.43062 268.273 5.99749L268.233 6.01969C266.761 6.82864 258.587 11.8842 249.795 18.9477Z" fill="#BC856D"/>
<path d="M264.131 15.2416C265.584 18.6557 262.337 23.3069 256.878 25.6302C251.419 27.9536 245.67 29.0445 244.217 25.6304C242.764 22.2162 246.157 15.5899 251.616 13.2665C257.075 10.9432 262.678 11.8274 264.131 15.2416Z" fill="#E8D9C6"/>
<path d="M327.114 22.3514C325.615 24.4074 327.064 28.0177 330.351 30.4154C333.638 32.8131 337.31 34.4323 338.81 32.3764C340.309 30.3205 339.069 25.368 335.781 22.9703C332.494 20.5726 328.614 20.2955 327.114 22.3514Z" fill="#E6D2BA"/>
<path d="M328.776 21.9069C327.666 23.4293 328.739 26.1028 331.173 27.8783C333.608 29.6538 336.327 30.8529 337.437 29.3304C338.548 27.808 337.629 24.1407 335.195 22.3651C332.76 20.5896 329.887 20.3844 328.776 21.9069Z" fill="#F6ECE0"/>
<path d="M284.56 18.3014C285.938 20.5705 279.483 23.0519 276.851 23.2764C271.182 23.9997 270.585 20.6117 272.589 18.431C273.677 17.2471 277.82 14.3689 279.676 14.9446C282.598 15.8511 283.502 16.2917 284.56 18.3014Z" fill="#E6D2BA"/>
<path d="M284.153 17.8057C285.227 19.5739 280.197 21.5073 278.146 21.6823C273.729 22.2459 273.264 19.6059 274.825 17.9066C275.673 16.9842 278.902 14.7414 280.348 15.19C282.624 15.8963 283.329 16.2397 284.153 17.8057Z" fill="#F6ECE0"/>
<path d="M293.537 6.72453C293.537 8.09279 291.953 9.20198 289.998 9.20198C288.044 9.20198 286.459 8.09279 286.459 6.72453C286.459 5.35626 288.044 4.24707 289.998 4.24707C291.953 4.24707 293.537 5.35626 293.537 6.72453Z" fill="#E6D2BA"/>
<path d="M292.83 6.72451C292.83 7.70183 291.721 8.49412 290.352 8.49412C288.984 8.49412 287.875 7.70183 287.875 6.72451C287.875 5.74718 288.984 4.9549 290.352 4.9549C291.721 4.9549 292.83 5.74718 292.83 6.72451Z" fill="#F6ECE0"/>
<path d="M313.539 21.3165C312.866 25.0147 307.942 27.2159 302.54 26.2331C297.138 25.2502 293.304 21.4554 293.977 17.7571C294.65 14.0588 299.574 11.8576 304.976 12.8405C310.378 13.8234 314.212 17.6182 313.539 21.3165Z" fill="#E8D9C6"/>
<path d="M313.539 21.3165C312.866 25.0147 307.942 27.2159 302.54 26.2331C297.138 25.2502 293.304 21.4554 293.977 17.7571C294.65 14.0588 299.574 11.8576 304.976 12.8405C310.378 13.8234 314.212 17.6182 313.539 21.3165Z" fill="#E8D9C6"/>
<path d="M313.539 21.3165C312.866 25.0147 307.942 27.2159 302.54 26.2331C297.138 25.2502 293.304 21.4554 293.977 17.7571C294.65 14.0588 299.574 11.8576 304.976 12.8405C310.378 13.8234 314.212 17.6182 313.539 21.3165Z" fill="#E6D2BA"/>
<path d="M312.632 19.7816C312.12 22.5993 308.367 24.2764 304.252 23.5275C300.136 22.7786 297.215 19.8874 297.728 17.0698C298.241 14.2521 301.993 12.575 306.108 13.3238C310.224 14.0727 313.145 16.9639 312.632 19.7816Z" fill="#F6ECE0"/>
<path d="M320.464 16.3449C319.565 17.6746 316.968 17.4896 314.662 15.9315C312.357 14.3735 311.216 12.0324 312.115 10.7026C313.776 9.90085 315.611 9.55794 317.917 11.116C320.222 12.6741 320.735 14.8717 320.464 16.3449Z" fill="#E6D2BA"/>
<path d="M320.323 15.4136C319.6 16.4824 317.512 16.3336 315.659 15.0813C313.806 13.829 312.89 11.9474 313.612 10.8786C314.947 10.2342 316.422 9.95854 318.275 11.2108C320.128 12.4631 320.541 14.2295 320.323 15.4136Z" fill="#F6ECE0"/>
<path d="M239.325 40.9352C240.435 42.0944 239.706 44.5942 237.696 46.5185C235.686 48.4429 233.157 49.0631 232.047 47.9038C231.614 46.1107 231.666 44.2447 233.676 42.3204C235.686 40.3961 237.943 40.3586 239.325 40.9352Z" fill="#E6D2BA"/>
<path d="M239.305 40.7436C240.152 41.6281 239.596 43.5353 238.062 45.0036C236.529 46.4718 234.599 46.945 233.752 46.0605C233.422 44.6924 233.462 43.2687 234.995 41.8005C236.529 40.3322 238.251 40.3036 239.305 40.7436Z" fill="#F6ECE0"/>
<path d="M264.131 15.2416C265.584 18.6557 262.337 23.3069 256.878 25.6302C251.419 27.9536 245.67 29.0445 244.217 25.6304C242.764 22.2162 246.157 15.5899 251.616 13.2665C257.075 10.9432 262.678 11.8274 264.131 15.2416Z" fill="#E6D2BA"/>
<path d="M262.825 14.241C263.909 16.787 261.487 20.2555 257.416 21.9881C253.345 23.7208 249.058 24.5343 247.974 21.9882C246.891 19.4422 249.421 14.5007 253.492 12.7681C257.563 11.0355 261.741 11.6949 262.825 14.241Z" fill="#F6ECE0"/>
<path d="M342.379 50.2569C342.379 51.8206 341.27 53.0883 339.901 53.0883C338.533 53.0883 337.424 51.8206 337.424 50.2569C337.424 48.6932 338.533 47.4255 339.901 47.4255C341.27 47.4255 342.379 48.6932 342.379 50.2569Z" fill="#E8D9C6"/>
<path d="M342.378 49.903C342.378 51.2713 341.427 52.3804 340.254 52.3804C339.082 52.3804 338.131 51.2713 338.131 49.903C338.131 48.5347 339.082 47.4255 340.254 47.4255C341.427 47.4255 342.378 48.5347 342.378 49.903Z" fill="#F6ECE0"/>
<path d="M251.107 43.8949C245.509 55.5022 243.302 72.6456 242.898 79.7664C235.677 73.1079 231.432 74.6499 230.213 76.2532C225.914 82.0234 235.488 91.2746 240.812 95.179C242.324 107.45 249.208 114.885 252.461 117.068C243.457 116.623 241.871 124.562 242.721 127.759C246.907 134.641 268.71 128.572 273.087 123.953L295.566 123.537C301.454 131.689 327.918 135.789 327.765 127.531C327.413 118.42 319.914 117.962 316.208 118.872C326.685 112.988 329.985 100.354 330.446 93.5639C338.693 88.6692 343.224 77.2094 339.663 74.9042C336.814 73.06 331.615 76.5447 330.446 78.1471C328.049 57.6928 322.002 44.7763 319.278 40.8748C298.887 37.0451 256.705 32.2877 251.107 43.8949Z" fill="#D1BC9F"/>
<path d="M319.026 48.6717C317.015 43.3629 263.199 41.1487 254.011 45.4527C235.072 83.152 251.603 101.454 263.397 108.795C274.603 115.77 297.628 115.157 305.687 110.098C333.191 92.8317 325.997 67.076 319.026 48.6717Z" fill="#E8D9C6"/>
<path d="M273.008 65.1217C273.008 67.8582 271.424 70.0766 269.469 70.0766C267.514 70.0766 265.93 67.8582 265.93 65.1217C265.93 62.3851 267.514 60.1667 269.469 60.1667C271.424 60.1667 273.008 62.3851 273.008 65.1217Z" fill="#564035"/>
<path d="M305.569 65.1217C305.569 67.8582 303.984 70.0766 302.029 70.0766C300.075 70.0766 298.49 67.8582 298.49 65.1217C298.49 62.3851 300.075 60.1667 302.029 60.1667C303.984 60.1667 305.569 62.3851 305.569 65.1217Z" fill="#564035"/>
<path d="M280.088 71.6043C280.088 70.961 280.812 70.5765 281.368 70.9032C284.823 72.9311 287.083 72.8576 290.149 70.9482C290.688 70.6123 291.413 70.9807 291.413 71.6143C291.413 71.8694 291.287 72.1097 291.074 72.2516C286.92 75.0203 284.487 75.0056 280.434 72.2598C280.216 72.1126 280.088 71.866 280.088 71.6043Z" fill="#70554A"/>
<path d="M328.638 49.7719C300.306 16.1763 259.457 33.874 242.574 46.9223C247.753 54.6013 255.547 48.3221 258.035 44.2226C267.723 48.422 273.446 44.5726 275.857 42.1229C283.535 46.8622 291.445 45.4974 294.441 44.2226C295.782 47.1022 306.119 46.4723 311.121 45.7974C308.836 52.0216 331.761 53.2214 328.638 49.7719Z" fill="#E8D8C8"/>
<path fill-rule="evenodd" clip-rule="evenodd" d="M242.78 46.8971C244.065 48.7555 245.504 49.766 246.975 50.18C248.462 50.5985 249.991 50.4103 251.442 49.8574C254.348 48.7503 256.922 46.1869 258.167 44.1622L258.202 44.1057L258.264 44.1322C263.123 46.2113 266.982 46.2955 269.925 45.5617C272.868 44.8276 274.903 43.2729 276.109 42.0635L276.152 42.0203L276.205 42.0523C283.903 46.7427 291.835 45.3904 294.831 44.132L294.9 44.1031L294.931 44.1693C295.253 44.8518 296.125 45.3413 297.365 45.6735C298.6 46.0042 300.177 46.1729 301.874 46.2314C305.266 46.3485 309.119 46.0251 311.633 45.6903L311.758 45.6736L311.715 45.7894C311.436 46.5396 311.542 47.2102 311.934 47.8087C312.328 48.4108 313.016 48.9435 313.905 49.4042C315.683 50.3254 318.242 50.9452 320.781 51.2658C323.32 51.5864 325.829 51.6066 327.503 51.3348C327.922 51.267 328.286 51.1811 328.585 51.0779C328.885 50.9745 329.115 50.8551 329.267 50.7226C329.418 50.5913 329.489 50.4509 329.486 50.3005C329.482 50.1472 329.401 49.9675 329.211 49.7603L329.209 49.7583C314.975 33.1007 297.601 29.1606 281.662 31.0011C265.753 32.838 251.273 40.434 242.78 46.8971ZM329.326 49.6622C315.054 32.9607 297.626 29.0077 281.643 30.8532C265.665 32.6982 251.131 40.338 242.63 46.8225L242.574 46.865L242.613 46.9223C243.924 48.84 245.405 49.893 246.933 50.3231C248.46 50.7529 250.025 50.5576 251.498 49.996C254.415 48.8844 256.993 46.3318 258.264 44.2949C263.122 46.3602 266.996 46.4459 269.963 45.7059C272.906 44.9719 274.951 43.4271 276.176 42.2103C283.853 46.8598 291.75 45.5588 294.824 44.2967C295.199 45.0082 296.115 45.4931 297.325 45.8171C298.576 46.1523 300.167 46.3215 301.868 46.3803C305.217 46.4959 309.011 46.1837 311.531 45.8541C311.287 46.6034 311.408 47.2833 311.805 47.8887C312.219 48.5213 312.932 49.069 313.833 49.5356C315.635 50.469 318.215 51.0919 320.762 51.4135C323.309 51.7352 325.834 51.7568 327.529 51.4817C327.953 51.4129 328.327 51.3252 328.637 51.2183C328.946 51.1116 329.196 50.9842 329.369 50.8336C329.544 50.6818 329.644 50.5025 329.639 50.2971C329.634 50.0948 329.528 49.8828 329.326 49.6622Z" fill="#E8D9C6"/>
<path fill-rule="evenodd" clip-rule="evenodd" d="M283.64 46.4421C275.592 45.2067 268.541 39.9846 265.932 34.4803L267.742 33.6706C270.038 38.5158 276.477 43.3827 283.951 44.5299C291.307 45.6592 299.691 43.1812 305.999 33.2687L307.694 34.2866C300.972 44.8497 291.804 47.6954 283.64 46.4421Z" fill="#D1BC9F"/>
<path fill-rule="evenodd" clip-rule="evenodd" d="M299.879 47.1556C297.623 46.8104 295.559 46.1241 294.246 45.0614L295.546 43.6453C296.454 44.3802 298.094 44.9883 300.199 45.3104C302.274 45.628 304.676 45.6483 306.996 45.3083C311.736 44.6133 315.637 42.5207 316.356 38.9314L318.313 39.2769C317.347 44.1007 312.25 46.4303 307.303 47.1555C304.778 47.5255 302.165 47.5055 299.879 47.1556Z" fill="#D1BC9F"/>
<path fill-rule="evenodd" clip-rule="evenodd" d="M313.399 50.4686C311.425 49.5562 309.742 48.1192 309.821 46.0099L311.846 46.0718C311.807 47.1009 312.589 48.0354 314.32 48.8354C316.022 49.6218 318.362 50.1304 320.726 50.3754C323.086 50.6198 325.365 50.5913 326.907 50.3627C327.706 50.2444 328.182 50.0896 328.384 49.9704C328.406 49.9577 328.419 49.9487 328.425 49.9439C328.412 49.9559 328.375 49.9958 328.348 50.0705C328.279 50.2545 328.354 50.3945 328.367 50.4134L330.075 49.4263C330.312 49.7625 330.438 50.1989 330.267 50.6568C330.113 51.0692 329.776 51.3392 329.487 51.5087C328.917 51.8433 328.094 52.045 327.235 52.1723C325.461 52.4352 322.987 52.4552 320.496 52.1972C318.011 51.9397 315.403 51.3948 313.399 50.4686ZM328.43 49.94C328.43 49.9401 328.429 49.9414 328.425 49.9439C328.428 49.9413 328.43 49.94 328.43 49.94Z" fill="#D1BC9F"/>
<path fill-rule="evenodd" clip-rule="evenodd" d="M265.078 46.7162C260.202 46.6598 254.787 45.0426 252.482 40.464L254.268 39.6393C256.081 43.2408 260.503 44.7642 265.102 44.8173C267.368 44.8436 269.58 44.5061 271.367 43.9369C273.2 43.3525 274.405 42.5822 274.885 41.8724L276.549 42.9052C275.695 44.1674 273.954 45.1135 271.992 45.7387C269.983 46.3792 267.549 46.7447 265.078 46.7162Z" fill="#D1BC9F"/>
<path fill-rule="evenodd" clip-rule="evenodd" d="M251.602 50.6376C248.212 51.4559 244.372 50.8634 241.865 47.4353L243.423 46.161C245.31 48.7415 248.248 49.3107 251.164 48.6068C254.115 47.8944 256.76 45.933 257.843 43.8863L259.561 44.9031C258.144 47.5832 254.957 49.8278 251.602 50.6376Z" fill="#D1BC9F"/>
<path fill-rule="evenodd" clip-rule="evenodd" d="M284.57 30.8336C268.005 31.3914 251.988 38.1267 242.07 47.6642C241.857 47.8692 241.516 47.8639 241.31 47.6524C241.103 47.4409 241.108 47.1033 241.322 46.8983C251.449 37.1598 267.727 30.3335 284.533 29.7675C301.355 29.201 318.756 34.9073 331.054 50.3023L330.212 50.9648C318.164 35.8841 301.119 30.2763 284.57 30.8336Z" fill="#886653"/>
<path d="M263.1 117.424C263.1 119.118 255.75 123.873 252.069 123.873C248.388 123.873 245.404 122.5 245.404 120.806C245.404 119.112 247.546 116.323 251.226 116.323C255.133 116.009 263.1 115.73 263.1 117.424Z" fill="#E8D9C6"/>
<path d="M308.402 120.869C308.402 122.604 315.936 124.332 319.595 124.332C323.253 124.332 327.514 125.261 327.514 123.526C327.514 121.791 323.939 119.015 320.28 119.015C316.397 118.693 308.402 119.134 308.402 120.869Z" fill="#E8D9C6"/>
<path d="M235.658 82.3518C235.525 80.3813 232.496 77.023 231.512 76.1738C229.653 73.604 242.16 75.34 246.94 76.4931C247.271 78.9158 247.558 83.7676 246.059 83.7929C244.561 83.8183 243.415 83.1616 243.03 82.8301C243.16 85.8426 242.481 89.2062 242.125 90.5115C240.024 88.6126 235.79 84.3222 235.658 82.3518Z" fill="#E8D9C6"/>
<path fill-rule="evenodd" clip-rule="evenodd" d="M236.741 74.8611C240.237 75.1183 244.563 75.8412 246.957 76.4187L247.007 76.431L247.014 76.4827C247.18 77.6966 247.335 79.5203 247.261 81.0457C247.224 81.8075 247.129 82.5011 246.947 83.0082C246.766 83.5105 246.485 83.8622 246.06 83.8694C244.683 83.8927 243.599 83.3495 243.112 82.9926C243.211 85.9725 242.548 89.246 242.198 90.5316L242.165 90.6517L242.073 90.5682C241.021 89.6173 239.435 88.0676 238.095 86.5083C237.424 85.7288 236.814 84.9452 236.363 84.2319C235.914 83.5214 235.615 82.8699 235.581 82.3569C235.549 81.8801 235.34 81.3119 235.024 80.7102C234.709 80.1098 234.289 79.4823 233.842 78.8883C232.948 77.6996 231.948 76.652 231.461 76.2318L231.454 76.2259L231.449 76.2187C231.328 76.0516 231.26 75.8943 231.249 75.7468C231.238 75.5965 231.288 75.464 231.387 75.3518C231.484 75.2416 231.628 75.1523 231.806 75.0794C231.984 75.0063 232.202 74.9479 232.451 74.9022C233.448 74.7197 234.995 74.7326 236.741 74.8611ZM231.568 76.1219C231.46 75.9709 231.409 75.8429 231.402 75.7357C231.394 75.6297 231.427 75.5371 231.501 75.4531C231.577 75.3671 231.698 75.289 231.864 75.221C232.029 75.1532 232.236 75.0972 232.479 75.0526C233.454 74.8739 234.984 74.8852 236.73 75.0136C240.193 75.2684 244.474 75.9817 246.87 76.5552C247.032 77.7636 247.181 79.5472 247.108 81.0383C247.071 81.7954 246.977 82.4709 246.803 82.9564C246.626 83.4467 246.38 83.711 246.057 83.7165C244.58 83.7415 243.452 83.0931 243.079 82.7721L242.945 82.6569L242.953 82.8334C243.079 85.7463 242.444 88.9922 242.083 90.3706C241.035 89.417 239.507 87.9167 238.211 86.4086C237.543 85.6319 236.938 84.8547 236.493 84.1501C236.045 83.4426 235.765 82.8189 235.733 82.3466C235.699 81.8383 235.479 81.2477 235.159 80.639C234.839 80.029 234.414 79.3944 233.965 78.7964C233.069 77.6065 232.067 76.5546 231.568 76.1219Z" fill="#E8D9C6"/>
<path d="M270.178 36.8079C275.812 40.1511 290.659 44.8316 303.446 36.8079C298.016 44.2861 283.761 54.7556 270.178 36.8079Z" fill="#D1BC9F"/>
<path d="M271.377 40.1829C265.54 44.1982 258.17 42.8734 255.336 41.5222C256.993 44.3873 263.173 48.7662 274.631 43.3603L271.377 40.1829Z" fill="#D1BC9F"/>
<path d="M255.106 43.1533C251.356 48.229 245.198 48.3447 242.642 47.5608C244.599 50.0612 250.49 53.1802 258.402 45.6535L255.106 43.1533Z" fill="#D1BC9F"/>
<path d="M313.872 43.777C317.071 49.2166 326.467 50.6392 329.091 50.1265C326.884 52.4088 317.416 54.2313 310.333 45.9193L313.872 43.777Z" fill="#D1BC9F"/>
<path d="M298.32 40.9477C304.157 44.9629 311.527 43.6382 314.361 42.2869C312.704 45.152 306.524 49.5309 295.067 44.125L298.32 40.9477Z" fill="#D1BC9F"/>
<path d="M329.938 83.9035C327.074 81.8954 325.621 81.8901 324.682 83.1975L324.986 79.2132L327.653 77.7228C329.227 77.3567 333.016 76.2004 335.576 74.8826C338.135 73.5648 339.689 74.8662 340.223 75.8239C340.908 77.6117 330.167 87.3712 329.253 87.0575C328.521 86.8064 328.922 86.0214 329.938 83.9035Z" fill="#E8D9C6"/>
<path fill-rule="evenodd" clip-rule="evenodd" d="M338.626 74.5022C339.413 74.7862 339.942 75.3582 340.213 75.8446L340.216 75.8495L340.218 75.8547C340.268 75.9863 340.263 76.1458 340.221 76.321C340.178 76.4972 340.095 76.6975 339.98 76.9166C339.749 77.355 339.383 77.8796 338.924 78.4548C338.006 79.6058 336.711 80.9694 335.368 82.2666C334.024 83.564 332.631 84.7969 331.516 85.6865C330.959 86.1311 330.47 86.4912 330.091 86.7307C329.902 86.8503 329.738 86.9413 329.605 86.9976C329.539 87.0257 329.478 87.0461 329.425 87.0566C329.373 87.0669 329.32 87.0693 329.274 87.0536C329.08 86.9869 328.946 86.8789 328.887 86.709C328.83 86.5453 328.848 86.3401 328.917 86.0927C329.046 85.6263 329.368 84.9556 329.823 84.0086C329.842 83.9698 329.86 83.9305 329.88 83.8907C328.493 82.9258 327.455 82.4493 326.655 82.3646C326.252 82.322 325.911 82.379 325.615 82.5223C325.32 82.6658 325.065 82.898 324.838 83.2132L324.682 83.4304L325.007 79.1832L327.689 77.6857L327.699 77.6833C329.253 77.3225 332.994 76.182 335.518 74.884C336.799 74.2252 337.838 74.2173 338.626 74.5022ZM338.576 74.6484C337.832 74.3794 336.836 74.3796 335.585 75.0226C333.052 76.3253 329.309 77.4671 327.743 77.8321L325.151 79.2792L324.872 82.9231C325.072 82.6889 325.296 82.506 325.551 82.3821C325.875 82.2251 326.244 82.1653 326.671 82.2105C327.519 82.3004 328.6 82.807 330.019 83.8004L330.073 83.8383L330.044 83.8988C330.017 83.9549 329.99 84.0101 329.964 84.0643C329.503 85.0242 329.187 85.6829 329.062 86.135C328.996 86.374 328.988 86.5399 329.029 86.6567C329.067 86.7673 329.155 86.8492 329.322 86.9066C329.332 86.9102 329.355 86.9125 329.396 86.9044C329.436 86.8965 329.487 86.8802 329.548 86.8543C329.67 86.8026 329.826 86.7164 330.012 86.5987C330.385 86.3634 330.869 86.0073 331.424 85.5641C332.534 84.678 333.924 83.4484 335.265 82.1536C336.606 80.8586 337.896 79.5002 338.807 78.3566C339.264 77.7844 339.623 77.2685 339.847 76.8428C339.959 76.6299 340.036 76.4423 340.075 76.2834C340.113 76.1265 340.112 76.0053 340.08 75.9166C339.822 75.4581 339.32 74.9172 338.576 74.6484Z" fill="#E8D9C6"/>
<path d="M263.808 72.2001C263.808 77.2822 258.262 81.4021 251.42 81.4021C244.579 81.4021 239.033 77.2822 239.033 72.2001C239.033 67.118 244.579 62.9981 251.42 62.9981C258.262 62.9981 263.808 67.118 263.808 72.2001Z" fill="#DAAA93"/>
<path d="M336.715 72.2001C336.715 77.2822 331.328 81.402 324.682 81.402C318.036 81.402 312.648 77.2822 312.648 72.2001C312.648 67.1179 318.036 62.9981 324.682 62.9981C331.328 62.9981 336.715 67.1179 336.715 72.2001Z" fill="#DAAA93"/>
</svg>
