<svg width="418" height="176" viewBox="0 0 418 176" fill="none" xmlns="http://www.w3.org/2000/svg">
<path fill-rule="evenodd" clip-rule="evenodd" d="M90.3445 36.841C91.1436 36.998 91.8828 36.3872 91.8828 35.5729V10.2181C91.8828 8.90442 92.7806 7.75987 94.0706 7.51133C113.442 3.77903 150.306 5.95033 162.275 41.7011C162.672 42.8848 163.771 43.7258 165.02 43.7258H304.695C304.885 43.7258 305.068 43.6984 305.253 43.6559C305.746 43.5434 306.219 43.326 306.611 43.0079C308.661 41.3448 312.684 40.0409 318.899 40.7535C319.629 40.8372 320.371 40.6643 320.96 40.2243C321.364 39.9215 321.792 39.5967 322.238 39.2586C326.239 36.2229 331.643 32.1224 334.151 33.3765C337.472 35.037 338.96 42.1921 337.971 47.7305C337.746 48.9939 338.2 50.3215 339.197 51.1298C342.579 53.8725 346.397 58.4125 345.441 61.6015C344.446 64.9161 336.08 66.0412 330.884 65.941C329.729 65.9187 328.633 66.5113 328.062 67.5167C326.361 70.5152 323.828 74.258 320.988 76.2313C320.031 76.8964 319.313 77.9317 319.316 79.0973C319.321 80.9174 319.294 82.8246 319.234 84.8228C319.179 86.652 320.835 88.0751 322.665 88.041C327.985 87.9418 334.523 89.9025 334.695 98.5311C334.72 99.7836 335.404 100.952 336.565 101.423C363.982 112.559 416.043 141.533 417.88 163.212C420.232 190.966 266.404 167.445 209.956 150.04C209.12 149.782 206.306 147.851 204.246 146.025C202.805 144.747 199.971 142.984 198.045 142.984H175.611C174.473 142.984 173.447 143.666 173.008 144.715L162.229 170.419C161.789 171.467 160.763 172.15 159.626 172.15H136.642C135.468 172.15 134.416 171.422 134.002 170.324L116.341 123.528C116.044 122.741 115.434 122.135 114.639 121.861C70.9368 106.811 -7.76751 76.3545 0.620236 44.6666C7.02386 20.4744 77.1617 34.2515 90.3445 36.841Z" fill="#7FA751"/>
<g filter="url(#filter0_d_752_1535)">
<path fill-rule="evenodd" clip-rule="evenodd" d="M241.539 139.332L213.106 139.027C308.492 163.624 392.209 171.592 402.932 161.232C408.84 154.597 374.747 130.386 311.033 106.187L310.981 110.993C311.679 111.319 312.372 111.645 313.061 111.971L317.864 112.023C318.339 112.028 318.721 112.418 318.716 112.894L318.697 114.696C338.988 124.716 353.839 134.454 353.316 140.532C352.557 149.365 310.757 153.308 241.539 139.332ZM292.113 102.646L292.149 99.3288C273.128 92.7242 251.946 86.2462 228.818 80.2595C244.82 84.434 269.175 93.0041 292.113 102.646Z" fill="#F4F4F4"/>
<path fill-rule="evenodd" clip-rule="evenodd" d="M121.208 110.343L116.866 103.794C106.218 104.709 103.698 103.839 102.547 102.28C101.993 101.53 105.806 99.393 109.305 97.4318C109.521 97.3108 109.736 97.1905 109.948 97.0712C91.9854 90.1508 63.3237 69.5055 64.6409 60.1877C66.0773 50.0262 102.096 52.4355 138.932 58.578C138.923 58.3205 138.911 58.0494 138.899 57.7653C138.87 57.0773 138.837 56.3126 138.822 55.4786C61.3999 37.8096 11.796 39.7915 13.4038 49.3263C15.2426 67.8437 92.8863 99.6986 121.208 110.343ZM172.317 63.9245L172.304 65.0775C184.628 67.8242 195.698 70.7018 203.924 73.294C193.059 69.8477 182.509 66.7315 172.317 63.9245Z" fill="#F4F4F4"/>
<rect x="106.273" y="16.687" width="2.58498" height="25.8498" transform="rotate(0.614895 106.273 16.687)" fill="white"/>
<path d="M163.62 100.364L143.669 155.797L156.249 155.932L178.701 92.784L163.62 100.364Z" fill="white"/>
<path d="M115.965 77.1104L143.669 155.797M143.669 155.797L163.62 100.364L178.701 92.784L156.249 155.932L143.669 155.797Z" stroke="white" stroke-width="2.90313"/>
<path d="M156.223 53.6144L188.255 53.9582L188.227 56.5577L171.704 56.3804L171.582 67.7918L179.689 67.8788L179.661 70.5224L171.554 70.4354L171.43 81.979L187.952 82.1564L187.924 84.7999L155.892 84.4562L156.223 53.6144ZM212.327 65.2768C215.812 66.2542 218.413 67.5306 220.129 69.106C221.846 70.652 222.691 72.6587 222.664 75.126C222.643 77.094 222.008 78.8498 220.757 80.3933C219.507 81.9369 217.673 83.1363 215.255 83.9916C212.866 84.8473 209.968 85.2568 206.561 85.2203C202.537 85.1771 198.988 84.6249 195.915 83.5638C192.871 82.4735 190.491 81.1701 188.774 79.6535L190.249 77.6864C191.764 78.9071 193.677 79.9558 195.988 80.8325C198.3 81.7093 200.792 82.162 203.465 82.1906C205.198 82.2092 206.507 81.9736 207.394 81.4837C208.31 80.9941 208.773 80.2941 208.782 79.3835C208.8 77.7974 207.241 76.5468 204.108 75.6319L198.398 73.8962C195.295 72.9228 192.9 71.5899 191.214 69.8973C189.558 68.2051 188.742 66.2134 188.767 63.9223C188.787 62.0131 189.408 60.2865 190.629 58.7427C191.85 57.1988 193.611 55.9986 195.911 55.142C198.242 54.2563 201.022 53.8308 204.253 53.8655C207.337 53.8986 210.168 54.2815 212.745 55.0142C215.352 55.7472 217.473 56.6219 219.107 57.6382L217.631 59.6494C216.259 58.8415 214.607 58.1481 212.674 57.5692C210.771 56.9906 208.762 56.69 206.647 56.6673C204.796 56.6474 203.369 56.9259 202.364 57.5026C201.388 58.0503 200.895 58.8235 200.885 59.8221C200.876 60.5858 201.236 61.2654 201.964 61.8607C202.693 62.4267 204.082 62.9997 206.132 63.5799L212.327 65.2768ZM225.11 54.3537L239.473 54.5079L239.142 85.3496L224.779 85.1955L225.11 54.3537ZM241.811 69.9116C241.867 64.7125 243.186 60.8637 245.769 58.365C247.431 56.7378 249.279 55.6707 251.311 55.1637C253.344 54.6567 256.005 54.4209 259.294 54.4562C262.349 54.489 264.8 54.7356 266.645 55.1961C268.521 55.6275 270.053 56.5399 271.243 57.9334C272.229 59.0896 272.993 60.4932 273.533 62.1441C274.103 63.7659 274.424 65.3557 274.495 66.9134L271.984 66.8865C271.881 65.5634 271.572 64.2088 271.058 62.8226C270.574 61.4073 269.794 60.1945 268.718 59.1842C267.642 58.1444 266.267 57.6156 264.593 57.5976C263.036 57.5809 261.736 58.2573 260.693 59.6268C259.799 60.8216 259.15 62.4157 258.747 64.409C258.376 66.1676 258.179 68.0602 258.157 70.087C258.122 73.4062 258.503 76.1863 259.302 78.4275C260.358 81.2884 262.031 82.7311 264.323 82.7557L264.454 70.5511L277.936 70.6958L277.774 85.7642C273.544 85.7188 268.756 85.7262 263.409 85.7863L258.958 85.7826C255.727 85.7479 253.102 85.4113 251.081 84.7727C249.091 84.1051 247.384 83.0439 245.96 81.5892C243.141 78.7094 241.759 74.8169 241.811 69.9116ZM280.571 54.949L293.525 55.088L306.225 70.6469L306.39 55.2261L309.034 55.2544L308.703 86.0962L298.349 85.9851L283.148 65.2878L282.928 85.8196L280.24 85.7907L280.571 54.949Z" fill="white"/>
<path d="M183.333 97.8517L215.364 98.1955L215.336 100.795L198.814 100.618L198.691 112.029L206.798 112.116L206.77 114.76L198.663 114.673L198.539 126.216L215.061 126.394L215.033 129.037L183.002 128.693L183.333 97.8517ZM217.883 98.2225L247.359 98.5389C248.799 98.5543 250.116 98.9357 251.313 99.6829C252.539 100.401 253.498 101.381 254.19 102.622C254.911 103.834 255.264 105.16 255.249 106.599C255.228 108.509 254.622 110.235 253.43 111.779C252.239 113.324 250.745 114.306 248.948 114.728C250.53 115.185 251.813 116.036 252.798 117.281C253.813 118.525 254.312 119.926 254.296 121.483L254.21 129.458L239.45 129.299L239.553 119.738C239.563 118.798 239.394 118.062 239.048 117.53C238.643 116.908 238.178 116.448 237.652 116.149C237.068 115.819 236.41 115.577 235.677 115.422C234.915 115.267 234.196 115.172 233.521 115.135L232.332 115.078L232.18 129.221L217.552 129.064L217.883 98.2225ZM233.902 112.539C234.959 112.551 235.931 112.311 236.818 111.821C237.734 111.302 238.446 110.605 238.955 109.729C239.494 108.824 239.768 107.858 239.779 106.83C239.791 105.772 239.537 104.8 239.017 103.913C238.528 102.997 237.831 102.27 236.926 101.732C236.05 101.194 235.084 100.919 234.026 100.907L232.484 100.891L232.359 112.567L233.902 112.539ZM281 109.96C284.486 110.938 287.086 112.214 288.803 113.789C290.519 115.335 291.364 117.342 291.338 119.809C291.317 121.777 290.681 123.533 289.431 125.077C288.18 126.62 286.346 127.82 283.928 128.675C281.539 129.531 278.641 129.94 275.234 129.904C271.21 129.86 267.661 129.308 264.588 128.247C261.545 127.157 259.165 125.854 257.448 124.337L258.923 122.37C260.437 123.59 262.35 124.639 264.662 125.516C266.973 126.393 269.465 126.845 272.138 126.874C273.871 126.893 275.181 126.657 276.067 126.167C276.983 125.678 277.446 124.977 277.456 124.067C277.473 122.481 275.915 121.23 272.781 120.315L267.071 118.58C263.968 117.606 261.573 116.273 259.888 114.581C258.231 112.888 257.416 110.897 257.44 108.606C257.461 106.696 258.081 104.97 259.302 103.426C260.523 101.882 262.284 100.682 264.585 99.8254C266.915 98.9397 269.696 98.5142 272.927 98.5489C276.011 98.582 278.842 98.9649 281.419 99.6976C284.026 100.431 286.146 101.305 287.78 102.322L286.304 104.333C284.932 103.525 283.28 102.831 281.347 102.253C279.444 101.674 277.435 101.373 275.32 101.351C273.47 101.331 272.042 101.609 271.037 102.186C270.062 102.734 269.569 103.507 269.558 104.506C269.55 105.269 269.91 105.949 270.638 106.544C271.366 107.11 272.755 107.683 274.805 108.263L281 109.96ZM293.783 99.0371L325.814 99.3809L325.786 101.98L309.264 101.803L309.142 113.215L317.249 113.302L317.22 115.945L309.113 115.858L308.989 127.402L325.512 127.579L325.483 130.223L293.452 129.879L293.783 99.0371Z" fill="white"/>
<path d="M155.166 60.2969C154.911 84.0896 135.416 103.17 111.623 102.915C87.8305 102.66 141.858 95.915 142.242 60.1582C142.626 24.4013 88.7552 16.4986 112.548 16.754C136.341 17.0094 155.422 36.5042 155.166 60.2969Z" fill="white"/>
</g>
<path d="M325.206 47.489L316.738 47.0186L321.86 54.9332L320.972 63.4832L327.558 57.8382H337.437L331.321 50.782L331.792 42.3145L325.206 47.489Z" fill="#FAFCF7"/>
<path d="M209.465 28.4609H216.488C219.297 27.4394 218.935 28.8865 218.403 29.7378L209.465 42.507V48.2532H239.473V45.3801C248.666 52.2755 257.988 48.2532 261.499 45.3801V48.2532H293.103V45.3801H295.657V48.2532H315.13V42.8263H320.557V33.2493H315.13V14.4147H301.723L293.742 23.3532C293.742 22.8211 293.167 21.1824 290.869 18.8839C280.973 10.9032 271.396 15.0532 270.438 15.6916C267.884 15.947 265.117 18.9904 264.053 20.4802C253.583 10.2648 241.601 16.6494 236.919 21.1187C236.706 20.0546 235.067 16.9686 231.492 15.6916C215.147 10.8393 210.103 22.3955 209.465 28.4609Z" fill="#7FA751"/>
<path d="M210.314 33.2695L202.375 42.9352C201.848 43.5765 201.772 44.4764 202.184 45.1969L202.924 46.4925C203.28 47.1157 203.943 47.5002 204.661 47.5002H313.298C313.753 47.5002 314.193 47.3457 314.548 47.062L323.249 40.1007C323.724 39.7212 324 39.1465 324 38.539V32.0001C324 30.8955 323.105 30.0001 322 30.0001H320.5C319.395 30.0001 318.5 29.1046 318.5 28.0001V12.5C318.5 11.3954 317.605 10.5 316.5 10.5H301.724C301.256 10.5 300.803 10.664 300.444 10.9636L296.255 14.4547C295.524 15.0632 294.468 15.0668 293.701 14.5048C282.602 6.36807 273.684 9.38766 267.313 14.4085C266.54 15.0174 265.444 15.0283 264.661 14.4324C254.071 6.36964 245.892 9.26467 239.761 14.3905C239.016 15.0136 237.93 15.0576 237.133 14.5032C220.199 2.73032 208.654 16.2335 204.359 27.4681C203.882 28.7164 204.841 30.0001 206.177 30.0001H208.769C210.458 30.0001 211.387 31.9644 210.314 33.2695Z" fill="#7FA751"/>
<path d="M211.908 45.191L220.406 32.3384C223.329 28.0541 224.79 25.082 224.787 23.4221C224.785 22.5663 224.512 21.8924 223.966 21.4005C223.421 20.8828 222.681 20.6246 221.748 20.6262C220.477 20.6284 219.375 20.9804 218.443 21.6822C217.51 22.3841 216.772 23.2282 216.229 24.2147C215.712 25.2011 215.39 26.1224 215.261 26.9785L212.888 26.9825C213.376 24.1288 214.643 21.8702 216.689 20.2069C218.761 18.5435 221.522 17.7089 224.972 17.703C226.813 17.6999 228.564 18.0081 230.225 18.6278C231.886 19.2474 233.223 20.2048 234.237 21.4998C235.277 22.7689 235.798 24.3371 235.801 26.2045C235.803 27.0344 235.713 27.8516 235.533 28.6559C235.353 29.3824 235.043 30.1999 234.603 31.1084C234.164 32.0169 233.699 32.8606 233.207 33.6395L227.232 42.8308L237.074 42.8141L237.078 45.1483L211.908 45.191ZM251.34 17.6583C254.064 17.6537 256.438 18.2332 258.463 19.3969C260.514 20.5605 262.085 22.1918 263.178 24.2907C264.271 26.3637 264.82 28.7489 264.824 31.4462C264.829 34.1694 264.288 36.5823 263.203 38.685C262.117 40.7617 260.551 42.3853 258.504 43.5559C256.483 44.7264 254.111 45.314 251.387 45.3186C248.664 45.3232 246.277 44.7437 244.226 43.5801C242.201 42.4164 240.629 40.7981 239.511 38.7251C238.418 36.6262 237.869 34.2151 237.864 31.4919C237.86 28.7946 238.4 26.4076 239.486 24.3309C240.598 22.2282 242.164 20.5916 244.185 19.4211C246.232 18.2505 248.617 17.6629 251.34 17.6583ZM248.896 21.4361C248.456 22.2149 248.173 23.3955 248.046 24.9777C247.944 25.9635 247.896 28.0254 247.901 31.1636L254.463 23.5274C254.306 22.6718 254.071 21.972 253.759 21.4279C253.238 20.4432 252.434 19.9518 251.344 19.9536C250.255 19.9555 249.439 20.4496 248.896 21.4361ZM253.793 41.5409C254.233 40.7621 254.516 39.5815 254.643 37.9992C254.77 36.7541 254.832 34.718 254.827 31.8911L248.265 39.5662C248.422 40.4477 248.644 41.1087 248.93 41.5491C249.476 42.5337 250.294 43.0251 251.383 43.0233C252.473 43.0214 253.276 42.5273 253.793 41.5409ZM265.362 45.1004L273.86 32.2478C276.783 27.9635 278.244 24.9914 278.241 23.3315C278.239 22.4757 277.966 21.8018 277.42 21.31C276.875 20.7922 276.135 20.5341 275.202 20.5356C273.931 20.5378 272.829 20.8898 271.897 21.5916C270.964 22.2935 270.226 23.1376 269.683 24.1241C269.166 25.1105 268.844 26.0318 268.716 26.8879L266.342 26.8919C266.83 24.0382 268.097 21.7796 270.143 20.1163C272.216 18.4529 274.976 17.6183 278.426 17.6124C280.267 17.6093 282.018 17.9176 283.679 18.5372C285.34 19.1568 286.677 20.1142 287.691 21.4093C288.731 22.6783 289.252 24.2466 289.255 26.1139C289.257 26.9439 289.167 27.761 288.987 28.5653C288.807 29.2918 288.497 30.1093 288.058 31.0178C287.618 31.9263 287.153 32.77 286.661 33.5489L280.686 42.7402L290.528 42.7235L290.532 45.0577L265.362 45.1004ZM298.876 39.5582L286.349 39.5794L302.574 17.8049L311.794 17.7893L311.827 37.202L317.546 37.1924L317.549 39.5266L311.831 39.5362L311.84 45.0216L298.885 45.0436L298.876 39.5582ZM298.872 37.224L298.855 27.1869L291.48 37.2365L298.872 37.224Z" fill="white"/>
<defs>
<filter id="filter0_d_752_1535" x="9.60386" y="16.687" width="397.749" height="156.503" filterUnits="userSpaceOnUse" color-interpolation-filters="sRGB">
<feFlood flood-opacity="0" result="BackgroundImageFix"/>
<feColorMatrix in="SourceAlpha" type="matrix" values="0 0 0 0 0 0 0 0 0 0 0 0 0 0 0 0 0 0 127 0" result="hardAlpha"/>
<feOffset dy="3.76333"/>
<feGaussianBlur stdDeviation="1.88167"/>
<feComposite in2="hardAlpha" operator="out"/>
<feColorMatrix type="matrix" values="0 0 0 0 0 0 0 0 0 0 0 0 0 0 0 0 0 0 0.05 0"/>
<feBlend mode="normal" in2="BackgroundImageFix" result="effect1_dropShadow_752_1535"/>
<feBlend mode="normal" in="SourceGraphic" in2="effect1_dropShadow_752_1535" result="shape"/>
</filter>
</defs>
</svg>
