<svg width="210" height="130" viewBox="0 0 210 130" fill="none" xmlns="http://www.w3.org/2000/svg">
<path d="M121.293 50C121.293 77.6142 98.907 100 71.2927 100C43.6784 100 106.293 91.5 106.293 50C106.293 8.5 43.6784 0 71.2927 0C98.907 0 121.293 22.3858 121.293 50Z" fill="white"/>
<rect x="64" width="3" height="30" fill="white"/>
<path d="M135.5 70.5L115.5 128H128.5L151 62.5L135.5 70.5Z" fill="white"/>
<path d="M86 47L115.5 128M115.5 128L135.5 70.5L151 62.5L128.5 128H115.5Z" stroke="white" stroke-width="3"/>
<path d="M66.9804 60.9683C9.35411 45.7188 29.3873 41.6492 62.0517 42.1014C31.1432 39.2835 20.9466 41.8894 11.9205 43.1525C-15.6177 47.006 23.0281 61.4934 43.9438 66.8271C92.2693 79.1508 132.582 83.521 160.801 83.2077C189.019 82.8944 204.626 80.0955 207.44 74.4312C210.253 68.7669 176.928 58.2043 148.209 54.1787C229.14 73.7193 139.422 73.6473 120.11 70.9403C111.198 69.6909 99.1111 69.471 66.9804 60.9683Z" fill="#AFD8F9"/>
<g filter="url(#filter0_d_273_102)">
<path d="M133.623 47.8959L133.365 41.2072L138.69 44.8173L144.73 44.0094L141.187 49.0245L142.36 56.3617L136.12 52.103L129.854 53.0484L133.623 47.8959Z" fill="url(#paint0_linear_273_102)"/>
</g>
<defs>
<filter id="filter0_d_273_102" x="127.672" y="41.2072" width="19.2392" height="19.5168" filterUnits="userSpaceOnUse" color-interpolation-filters="sRGB">
<feFlood flood-opacity="0" result="BackgroundImageFix"/>
<feColorMatrix in="SourceAlpha" type="matrix" values="0 0 0 0 0 0 0 0 0 0 0 0 0 0 0 0 0 0 127 0" result="hardAlpha"/>
<feOffset dy="2.18111"/>
<feGaussianBlur stdDeviation="1.09055"/>
<feComposite in2="hardAlpha" operator="out"/>
<feColorMatrix type="matrix" values="0 0 0 0 0.772549 0 0 0 0 0.65098 0 0 0 0 0.529412 0 0 0 0.5 0"/>
<feBlend mode="normal" in2="BackgroundImageFix" result="effect1_dropShadow_273_102"/>
<feBlend mode="normal" in="SourceGraphic" in2="effect1_dropShadow_273_102" result="shape"/>
</filter>
<linearGradient id="paint0_linear_273_102" x1="133.057" y1="41.3943" x2="142.208" y2="56.4541" gradientUnits="userSpaceOnUse">
<stop stop-color="#809EEE"/>
<stop offset="1" stop-color="white"/>
</linearGradient>
</defs>
</svg>
