<svg width="516" height="589" viewBox="0 0 516 589" fill="none" xmlns="http://www.w3.org/2000/svg">
<path d="M37.2038 522.423C50.1784 522.959 54.3218 537.383 54.7717 544.528L51 553.5C48.6585 548.173 44.6147 541.049 40.6 540.608C36.5853 540.167 30.775 541.194 24.1044 539.699C11.9414 536.625 4.42247 533.413 2.18338 532.191C8.45076 528.712 24.2292 521.886 37.2038 522.423Z" fill="#678D3A" stroke="#678D3A" stroke-width="0.1359"/>
<path fill-rule="evenodd" clip-rule="evenodd" d="M9.53218 528.96C39.2618 525.287 51.0463 535.913 54.507 545.462L55.457 544.528C55.0072 537.383 50.8637 522.959 37.8891 522.422C28.3139 522.027 17.2117 525.64 9.53218 528.96Z" fill="#7CA34F"/>
<path d="M298.488 430.123C300.245 436.589 302.09 446.309 302.092 452.119C308.332 466.474 319.936 451.983 324.129 450.097C335.495 442.008 335.255 431.108 329.569 418.083C313.282 395.969 261.281 382.413 256.416 381.435L256.352 381.422C251.303 380.405 222.5 374.608 205.846 395.266C189.12 416.013 155.977 456.651 166.271 473.469C176.566 490.288 192.556 492.976 199.745 486.844C205.496 481.939 203.582 469.537 199.737 464.668C213.709 404.683 296.291 422.04 298.488 430.123Z" fill="#A36B52" stroke="#A36B52" stroke-width="0.21739"/>
<path fill-rule="evenodd" clip-rule="evenodd" d="M286.894 391.114C313.234 404.134 332.056 425.686 307.057 439.625C305.155 440.685 303.192 441.72 301.177 442.73C300.477 438.344 299.47 433.728 298.491 430.124C296.294 422.041 213.712 404.683 199.74 464.669C201.188 466.503 202.363 469.407 202.957 472.576C202.201 472.725 201.469 472.869 200.764 473.007C169.902 479.041 167.329 454.41 184.437 423.025C191.535 413.016 199.202 403.509 205.069 396.235C205.333 395.907 205.593 395.585 205.849 395.267C214.715 384.269 227.023 380.77 237.358 380.054C237.776 380.189 238.183 380.328 238.578 380.469C240.658 380.15 242.868 379.995 245.177 379.991C250.584 380.261 254.718 381.093 256.355 381.422L256.419 381.435C258.757 381.906 271.98 385.281 286.894 391.114Z" fill="#BC856D"/>
<path d="M266.133 391.617C265.617 396.866 272.001 401.79 280.394 402.616C288.786 403.441 297.046 402.472 297.562 397.224C298.079 391.975 290.656 384.435 282.264 383.609C273.872 382.783 266.65 386.369 266.133 391.617Z" fill="#E8D9C6"/>
<path d="M183.757 428.081C186.666 430.231 186.238 435.744 182.802 440.395C179.365 445.046 175.076 448.806 172.167 446.656C169.258 444.507 168.831 437.263 172.267 432.612C175.704 427.961 180.848 425.932 183.757 428.081Z" fill="#E6D2BA"/>
<path d="M181.31 428.187C183.464 429.778 183.147 433.861 180.602 437.305C178.058 440.749 174.881 443.533 172.727 441.942C170.573 440.35 170.257 434.986 172.802 431.541C175.346 428.097 179.156 426.595 181.31 428.187Z" fill="#F6ECE0"/>
<path d="M239.734 404.467C238.832 408.131 248.641 408.746 252.305 407.93C260.301 406.497 259.667 401.648 256.021 399.545C254.042 398.403 247.198 396.264 244.927 397.835C241.351 400.308 240.312 401.291 239.734 404.467Z" fill="#E6D2BA"/>
<path d="M240.077 403.621C239.374 406.476 247.018 406.956 249.873 406.32C256.103 405.203 255.61 401.425 252.769 399.786C251.226 398.896 245.893 397.23 244.123 398.454C241.337 400.381 240.528 401.147 240.077 403.621Z" fill="#F6ECE0"/>
<ellipse cx="4.78258" cy="3.15216" rx="4.78258" ry="3.15216" transform="matrix(-0.954056 0.299628 0.299628 0.954056 231.25 386.528)" fill="#E6D2BA"/>
<ellipse cx="3.80433" cy="2.49999" rx="3.80433" ry="2.49999" transform="matrix(-0.954056 0.299628 0.299628 0.954056 229.656 387.257)" fill="#F6ECE0"/>
<ellipse cx="14.1304" cy="9.67385" rx="14.1304" ry="9.67385" transform="matrix(-0.885008 0.465576 0.465576 0.885008 222.23 399.178)" fill="#E8D9C6"/>
<ellipse cx="14.1304" cy="9.67385" rx="14.1304" ry="9.67385" transform="matrix(-0.885008 0.465576 0.465576 0.885008 222.23 399.178)" fill="#E8D9C6"/>
<ellipse cx="14.1304" cy="9.67385" rx="14.1304" ry="9.67385" transform="matrix(-0.885008 0.465576 0.465576 0.885008 222.23 399.178)" fill="#E6D2BA"/>
<ellipse cx="10.7658" cy="7.37041" rx="10.7658" ry="7.37041" transform="matrix(-0.885008 0.465576 0.465576 0.885008 217.922 401.882)" fill="#F6ECE0"/>
<path d="M190.216 417.105C192.001 418.525 195.444 417.168 197.907 414.073C200.37 410.979 200.919 407.319 199.134 405.898C196.54 405.518 193.906 405.835 191.443 408.929C188.98 412.024 189.22 415.223 190.216 417.105Z" fill="#E6D2BA"/>
<path d="M190.008 415.782C191.442 416.923 194.21 415.832 196.189 413.345C198.169 410.858 198.61 407.916 197.176 406.774C195.091 406.469 192.973 406.723 190.994 409.211C189.015 411.698 189.207 414.269 190.008 415.782Z" fill="#F6ECE0"/>
<path d="M310.714 415.894C309.703 417.939 311.756 421.018 315.301 422.772C318.846 424.525 322.54 424.289 323.552 422.244C323.375 419.628 322.509 417.121 318.964 415.367C315.419 413.614 312.343 414.524 310.714 415.894Z" fill="#E6D2BA"/>
<path d="M310.656 415.627C309.884 417.187 311.451 419.537 314.156 420.875C316.861 422.212 319.679 422.032 320.45 420.472C320.316 418.476 319.655 416.563 316.95 415.225C314.246 413.887 311.899 414.582 310.656 415.627Z" fill="#F6ECE0"/>
<path d="M266.133 391.617C265.617 396.866 272.001 401.79 280.394 402.616C288.786 403.441 297.046 402.472 297.562 397.224C298.079 391.975 290.656 384.435 282.264 383.609C273.872 382.783 266.65 386.369 266.133 391.617Z" fill="#E6D2BA"/>
<path d="M267.476 389.705C267.09 393.619 271.852 397.291 278.11 397.907C284.368 398.523 290.528 397.8 290.913 393.886C291.298 389.972 285.763 384.349 279.504 383.733C273.246 383.118 267.861 385.791 267.476 389.705Z" fill="#F6ECE0"/>
<ellipse cx="3.36955" cy="4.02172" rx="3.36955" ry="4.02172" transform="matrix(-0.954056 0.299628 0.299628 0.954056 180.348 466.771)" fill="#E8D9C6"/>
<ellipse cx="2.71738" cy="3.26085" rx="2.71738" ry="3.26085" transform="matrix(-0.954056 0.299628 0.299628 0.954056 179.102 467.162)" fill="#F6ECE0"/>
<path d="M295.998 424.926C308.533 438.282 318.826 460.589 322.406 470.073C329.363 457.969 335.775 458.252 338.112 459.907C346.399 465.9 337.356 482.523 331.799 490.084C334.974 507.368 328.806 520.382 325.325 524.728C337.344 520.29 342.876 530.379 343.085 535.076C340.339 546.192 308.189 547.248 300.288 542.848L269.628 551.857C265.116 565.418 230.976 582.248 227.666 570.985C224.264 558.481 234.238 554.666 239.65 554.322C222.937 550.804 213.081 535.079 209.565 526.067C196.297 522.941 185.273 509.331 189.12 504.689C192.197 500.975 200.732 503.486 202.999 505.161C197.539 476.404 200.238 456.313 202.27 449.863C228.29 435.986 283.463 411.571 295.998 424.926Z" fill="#D1BC9F"/>
<path d="M205.871 460.539C206.332 452.504 278.102 426.673 292.346 428.597C333.951 471.562 319.391 503.335 306.577 518.271C294.4 532.463 263.029 541.403 249.991 537.979C205.494 526.291 204.272 488.395 205.871 460.539Z" fill="#E8D9C6"/>
<ellipse cx="4.99997" cy="7.17387" rx="4.99997" ry="7.17387" transform="matrix(-0.954056 0.299628 0.299628 0.954056 282.543 453.358)" fill="#564035"/>
<ellipse cx="4.99997" cy="7.17387" rx="4.99997" ry="7.17387" transform="matrix(-0.954056 0.299628 0.299628 0.954056 238.781 467.102)" fill="#564035"/>
<path d="M268.183 475.105C267.915 474.253 266.801 474.044 266.203 474.707C262.491 478.822 259.481 479.661 254.644 478.403C253.793 478.181 252.99 478.969 253.254 479.808C253.36 480.146 253.627 480.411 253.967 480.511C260.595 482.457 263.797 481.43 267.999 476.116C268.225 475.831 268.291 475.451 268.183 475.105Z" fill="#70554A"/>
<path d="M193.035 466.184C217.021 407.61 280.326 414.616 308.98 425.441C305.263 438.275 291.924 432.924 286.756 428.319C275.389 438.269 265.926 435.393 261.578 433.036C253.183 442.873 241.819 444.368 237.187 443.887C236.612 448.442 222.263 451.991 215.16 453.197C220.974 460.827 190.281 472.289 193.035 466.184Z" fill="#E8D8C8" stroke="#E8D9C6" stroke-width="0.21739"/>
<path d="M270.165 417.941C268.056 434.44 242.489 457.508 215.903 434.527" stroke="#D1BC9F" stroke-width="2.82607"/>
<path d="M237.085 444.281C232.698 451.355 210.414 457.67 204.323 446.253" stroke="#D1BC9F" stroke-width="2.82607"/>
<path d="M215.579 453.085C218.789 462.216 191.685 470.957 192.897 466.474" stroke="#D1BC9F" stroke-width="2.82607"/>
<path d="M291.164 420.232C289.212 433.606 267.21 437.553 261.822 433.093" stroke="#D1BC9F" stroke-width="2.82607"/>
<path d="M308.922 425.252C305.35 434.918 291.304 434.089 285.961 429.045" stroke="#D1BC9F" stroke-width="2.82607"/>
<path d="M310.146 425.892C274.84 408.156 211.339 416.365 191.493 468.169" stroke="#886653" stroke-width="1.52173" stroke-linecap="round"/>
<path d="M311.458 529.84C312.16 532.074 324.079 535.218 329.062 533.653C334.045 532.089 337.515 529.009 336.814 526.776C336.112 524.542 332.059 521.775 327.076 523.34C321.657 524.586 310.757 527.606 311.458 529.84Z" fill="#E8D9C6"/>
<path d="M251.165 553.698C251.867 555.932 242.305 561.38 237.322 562.945C232.339 564.51 226.912 567.528 226.211 565.294C225.509 563.061 229.256 557.958 234.239 556.393C239.397 554.317 250.464 551.465 251.165 553.698Z" fill="#E8D9C6"/>
<path d="M333.324 470.495C332.665 467.767 335.342 461.923 336.315 460.352C337.741 456.076 321.521 463.756 315.531 467.355C316.114 470.781 317.791 477.483 319.833 476.879C321.876 476.275 323.15 474.897 323.531 474.283C324.638 478.424 326.991 482.696 328.03 484.314C330.069 480.845 333.984 473.224 333.324 470.495Z" fill="#E8D9C6" stroke="#E8D9C6" stroke-width="0.21739"/>
<path d="M267.426 423.472C261.175 430.354 242.966 442.961 222.212 437.671C232.738 445.37 256.516 453.309 267.426 423.472Z" fill="#D1BC9F"/>
<path d="M266.927 428.525C276.552 431.484 285.983 426.549 289.25 423.51C288.223 428.101 281.708 436.671 263.869 434.219L266.927 428.525Z" fill="#D1BC9F"/>
<path d="M290.255 425.623C297.502 430.909 305.903 428.443 309.034 426.292C307.446 430.516 300.786 437.254 286.851 430.417L290.255 425.623Z" fill="#D1BC9F"/>
<path d="M210.835 451.495C208.813 460.234 196.678 466.165 192.902 466.587C196.866 468.742 210.481 467.181 216.546 452.893L210.835 451.495Z" fill="#D1BC9F"/>
<path d="M230.716 441.036C224.51 448.967 213.952 450.309 209.533 449.683C213.001 452.863 223.246 456.169 236.48 443.959L230.716 441.036Z" fill="#D1BC9F"/>
<path d="M206.22 512.533C209.286 508.653 211.261 508.026 213.083 509.352L211.014 504.215L206.765 503.385C204.47 503.574 198.833 503.665 194.801 503.017C190.77 502.369 189.195 504.754 188.866 506.248C188.675 508.905 207.349 517.215 208.463 516.409C209.355 515.765 208.482 514.898 206.22 512.533Z" fill="#E8D9C6" stroke="#E8D9C6" stroke-width="0.21739"/>
<ellipse cx="17.1738" cy="13.3695" rx="17.1738" ry="13.3695" transform="matrix(-0.954056 0.299628 0.299628 0.954056 320.008 445.693)" fill="#DAAA93"/>
<ellipse cx="17.1738" cy="13.3695" rx="17.1738" ry="13.3695" transform="matrix(-0.954056 0.299628 0.299628 0.954056 220.871 476.829)" fill="#DAAA93"/>
<path d="M432.829 432.762C447.112 502.803 412.61 549.383 393.573 563.918L380.526 543.776C383.456 526.288 389.644 511.272 392.429 506.008C395.137 499.599 402.5 485.087 409.825 477.854C417.149 470.621 428.213 444.779 432.829 432.762Z" fill="#5A7639" stroke="#5A7639" stroke-width="0.228894"/>
<path d="M437.4 521.545C412.346 514.106 395.051 538.868 389.535 552.179L394.185 561.479C402.117 552.863 411.143 552.179 419.075 553.957C427.007 555.735 437.4 561.479 451.076 562.983C476.24 565.062 492.651 563.85 497.711 562.983C488.047 552.271 462.455 528.985 437.4 521.545Z" fill="#678D3A" stroke="#678D3A" stroke-width="0.273517"/>
<path fill-rule="evenodd" clip-rule="evenodd" d="M476.742 540.125C419.064 527.555 394.021 546.282 385.508 564.397L383.812 562.392C385.984 548.452 396.716 520.894 422.274 522.181C441.136 523.132 462.27 532.226 476.742 540.125Z" fill="#7CA34F"/>
<path d="M53.2839 325.488C63.3676 340.099 129.855 324.545 161.838 314.941C166.468 311.426 181.646 303.52 205.311 300.022C239.524 295.649 242.096 277.128 247.756 271.726C290.766 233.86 333.93 237.256 350.136 243.687C332.129 197.641 291.743 188.895 258.56 183.493C225.376 178.091 190.134 203.043 180.617 206.387C173.002 209.062 164.925 209.217 161.838 208.96C126.082 218.735 125.825 219.249 92.6414 242.658C59.4578 266.066 49.1681 302.08 41.1937 312.626C34.8142 321.064 45.2238 322.659 51.226 322.401L53.2839 325.488Z" fill="#C2DE93" stroke="#C2DE93" stroke-width="0.514475"/>
<path d="M326.728 241.63C248.271 196.098 141.517 326.517 75.9219 307.996C79.0885 315.996 104.2 321.6 179 282C253.8 242.4 282.5 246.667 295.5 251L326.728 241.63Z" fill="#A1C277"/>
<path d="M301.001 328.575C325.902 431.264 311.377 513.529 301.001 541.825L330.069 561.118C338.918 517.079 326.382 387.74 319.008 328.575C320.809 296.935 374.314 310.569 397.723 301.565C416.45 294.363 412.042 281.93 407.498 276.613C399.952 270.525 376.938 255.16 345.246 242.401C305.632 226.452 252.384 267.353 248.782 271.212C245.181 275.07 234.634 295.649 207.367 299.508C181.437 303.829 166.209 311.426 161.836 314.684C205.481 307.653 294.416 300.588 301.001 328.575Z" fill="#769A49" stroke="#769A49" stroke-width="0.514475"/>
<path fill-rule="evenodd" clip-rule="evenodd" d="M374.713 256.259C371.889 269.623 357.2 286.217 313.5 294.5C269.75 302.792 272.495 302.973 283.863 303.722C292.373 304.283 305.715 305.162 308.001 310C320.328 336.08 332.657 501.113 320.251 554.766L330.233 561.391C339.082 517.352 326.546 388.013 319.172 328.849C320.369 307.808 344.431 306.788 367.302 305.819C378.824 305.331 390.045 304.855 397.887 301.839C416.614 294.636 412.206 282.203 407.662 276.887C402.707 272.889 391.083 264.892 374.713 256.259Z" fill="#688C3B"/>
<path d="M346.182 543.964L346.541 550.544L343.021 552.138L343.481 544.05C343.505 525.373 322.805 516.69 312.451 514.682L246.065 496.016C261.715 489.389 295.625 476.44 306.061 477.659C316.497 478.878 327.591 487.229 331.834 491.252C345.808 504.068 347.222 531.733 346.182 543.964Z" fill="#B5D480" stroke="#C2DE93" stroke-width="0.224413"/>
<path fill-rule="evenodd" clip-rule="evenodd" d="M343.5 529C335.5 512.5 312.2 480.3 283 483.5C281.231 483.694 279.663 483.793 278.285 483.806C289.924 479.938 300.881 477.055 306.059 477.659C316.495 478.878 327.589 487.229 331.832 491.252C345.807 504.068 347.22 531.733 346.18 543.964L346.539 550.544L343.5 551.921V529Z" fill="#A3C56A"/>
<path d="M89.8944 157.567C132.617 160.853 182.004 147.799 201.357 140.861C206.396 128.373 245.997 118.404 270.097 114.023C287.076 110.189 294.142 104.328 300.496 95.126C333.14 44.735 383.659 49.6646 404.838 58.4282C369.236 6.39408 340.754 6.94177 300.496 0.916759C260.238 -5.10825 230.66 20.3611 222.171 25.0168C213.681 29.6725 186.568 31.0418 180.269 31.8634C173.971 32.685 151.514 35.9714 119.198 66.6441C73.1887 107.833 64.7902 153.368 66.342 170.986C69.9023 156.745 85.2387 157.567 89.8944 157.567Z" fill="#B2CDAF"/>
<path d="M95.5 140C211.892 44.6951 321 41.5001 361 54.501L351.5 64.0017C317.333 56.335 211.1 59.6 95.5 140Z" fill="#97BC93"/>
<path d="M348.15 156.197C374.222 270.125 353.468 532.844 342.605 560.87H373.652C386.14 534.141 374.441 218.912 365.951 153.732C372.798 138.944 377.454 138.67 381.835 135.657C410.043 121.416 442.907 131.275 451.123 125.798C496.858 98.4117 452.374 65.8224 418.415 65.8224C377.061 24.7428 318.299 68.2867 309.261 81.1584C300.224 94.03 299.676 104.985 269.551 114.022C211.711 126.51 200.355 136.57 201.907 140.039C229.019 130.18 338.017 126.62 348.15 156.197Z" fill="#538B70" stroke="#538B70" stroke-width="1.64318"/>
<path fill-rule="evenodd" clip-rule="evenodd" d="M438.615 70C436.207 80.8579 424.735 100.593 394.436 104.759C354.436 110.259 356.936 159.759 358.936 168.259C360.906 176.632 377.433 286.887 368.846 561.629H373.59C386.078 534.9 374.378 219.671 365.889 154.491C371.509 142.351 375.653 139.992 379.381 137.87C380.195 137.407 380.988 136.956 381.773 136.416C399.216 127.61 418.44 128.019 432.515 128.319C441.2 128.504 447.925 128.647 451.06 126.557C487.903 104.496 466.2 79.0582 438.615 70Z" fill="#478064"/>
<path d="M537.778 422.227C531.835 430.839 492.649 421.671 473.798 416.011C471.069 413.939 462.124 409.28 448.176 407.218C428.011 404.64 426.495 393.724 423.16 390.54C397.81 368.223 372.37 370.224 362.818 374.015C373.431 346.876 397.234 341.721 416.792 338.537C436.35 335.354 457.121 350.06 462.73 352.031C467.218 353.608 471.979 353.699 473.798 353.547C494.872 359.308 495.024 359.611 514.582 373.408C534.14 387.205 540.204 408.43 544.904 414.647C548.664 419.619 542.529 420.559 538.991 420.408L537.778 422.227Z" fill="#C2DE93" stroke="#C2DE93" stroke-width="0.303224"/>
<path d="M386 373.053C434.8 344.668 501.2 425.973 542 414.426C540.03 419.413 524.411 422.907 477.886 398.22C431.361 373.533 413.51 376.193 405.424 378.894L386 373.053Z" fill="#A1C277"/>
<path d="M391.775 424.046C377.099 484.57 385.66 544.426 391.775 561.104H374.643C369.427 535.148 376.816 458.917 381.162 424.046C380.101 405.398 348.565 413.433 334.769 408.127C323.731 403.882 326.329 396.554 329.007 393.421C333.455 389.833 347.019 380.776 365.698 373.256C389.046 363.857 420.429 387.963 422.552 390.237C424.675 392.511 430.891 404.64 446.962 406.914C462.244 409.461 471.219 413.939 473.797 415.859C448.073 411.715 395.656 407.551 391.775 424.046Z" fill="#769A49" stroke="#769A49" stroke-width="0.303224"/>
<path fill-rule="evenodd" clip-rule="evenodd" d="M349.072 382C350.713 389.762 359.244 399.401 384.627 404.212C410.039 409.029 408.444 409.134 401.841 409.569C396.898 409.894 389.149 410.405 387.821 413.215C380.661 428.363 373.5 524.221 380.706 555.385L374.909 559.232C369.769 533.653 377.05 458.528 381.334 424.162C380.638 411.941 366.662 411.349 353.378 410.786C346.685 410.502 340.168 410.226 335.613 408.474C324.736 404.29 327.296 397.069 329.935 393.981C332.813 391.659 339.564 387.014 349.072 382Z" fill="#688C3B"/>
<path d="M187.54 497.944C190.328 511.113 196.358 523.478 199.078 526.374L196.98 527.272C193.627 522.388 188.589 505.985 186.408 498.429C184.548 494.684 178.637 499.17 175.345 499.287C172.712 499.381 172.598 497.645 172.871 496.766C173.465 495.638 175.445 492.586 178.607 489.402C182.559 485.422 191.107 487.633 191.742 487.915C192.377 488.197 194.717 490.148 198.208 489.208C201.561 488.393 203.792 488.528 204.489 488.698C198.858 490.099 186.882 494.21 187.54 497.944Z" fill="#769A49" stroke="#769A49" stroke-width="0.0697351"/>
<path d="M216.517 485.04C216.059 487.333 208.858 488.242 204.501 488.729C203.76 488.542 201.518 488.367 198.481 489.165C194.126 490.401 192.854 488.288 191.891 487.925C184.736 485.553 179.704 488.194 178.082 489.811C177.865 483.296 182.284 480.15 186.008 477.782C189.731 475.413 195.279 476.619 196.601 476.533C197.658 476.465 198.641 476.066 199 475.876C203.822 475.215 203.88 475.264 209.099 476.39C214.318 477.515 214.566 479.975 216.076 480.842C217.283 481.536 217.817 483.613 217.08 483.892L216.517 485.04Z" fill="#C2DE93" stroke="#C2DE93" stroke-width="0.0697351"/>
<path d="M214.441 483.37C214.486 483.333 214.552 483.34 214.588 483.385C214.625 483.43 214.618 483.496 214.573 483.532L214.441 483.37ZM214.573 483.532C212.805 484.965 210.241 485.376 207.305 485.352C204.367 485.328 201.028 484.866 197.699 484.529C194.364 484.191 191.037 483.978 188.102 484.444C185.169 484.909 182.638 486.051 180.883 488.416L180.715 488.291C182.513 485.869 185.102 484.708 188.069 484.237C191.033 483.767 194.385 483.983 197.72 484.321C201.061 484.659 204.382 485.119 207.306 485.143C210.233 485.167 212.733 484.754 214.441 483.37L214.573 483.532Z" fill="#769A49"/>
<path d="M52.8025 194.007C52.031 203.708 57.0707 205.662 63.4434 206.169C69.8161 206.676 75.7005 205.091 76.472 195.389C77.2434 185.688 72.6098 171.543 66.2371 171.036C59.8645 170.53 53.574 184.305 52.8025 194.007Z" fill="#69C1B1"/>
<path fill-rule="evenodd" clip-rule="evenodd" d="M61.3415 176.235C61.392 176.237 61.4426 176.24 61.4931 176.244C66.9856 176.681 70.953 189.203 70.2694 197.799C70.0401 200.683 69.3166 202.758 68.249 204.227C71.9057 203.545 74.7682 201.102 75.2694 194.799C75.953 186.203 71.9856 173.681 66.4931 173.244C64.7183 173.103 62.9479 174.283 61.3415 176.235Z" fill="#59AF9F"/>
<path d="M71 196.646C71 201.26 67.4183 205 63 205C58.5817 205 55 201.26 55 196.646C55 192.032 58.5817 194.855 63 194.855C67.4183 194.855 71 192.032 71 196.646Z" fill="#91CEBC"/>
<path d="M55.0701 194.659C54.4463 189.415 58.1315 181.65 60.3403 177.376C60.6635 176.751 61.0587 176.164 61.5105 175.625C63.8095 172.878 62.8855 174.08 62.4041 175.813C61.8805 177.697 58.7389 185.864 59.786 189.005C63.7233 200.815 55.5932 199.056 55.0701 194.659Z" fill="#CEE1CC"/>
<path d="M369.612 557.86C368.662 566.148 351.23 565.162 342.633 563.634C328.442 563.634 327.039 564.659 318.46 561.206C309.88 557.752 323.046 525.108 343.658 528.453C364.27 531.798 370.799 547.5 369.612 557.86Z" fill="#A5663D" stroke="#A5663D" stroke-width="0.323747"/>
<path d="M356.178 570.108C355.574 568.813 355.315 565.935 355.261 564.658C349.994 562.716 336.735 563.166 330.764 563.633C328.408 568.417 325.109 578.892 330.764 582.518C337.832 587.051 349.002 585.702 354.128 582.518C359.253 579.335 356.933 571.727 356.178 570.108Z" fill="#D1BC9F" stroke="#D1BC9F" stroke-width="0.323747"/>
<ellipse cx="5.5037" cy="12.1526" rx="5.5037" ry="12.1526" transform="matrix(-0.801468 -0.598037 -0.598037 0.801468 338.855 533.471)" fill="#BC856D"/>
<path fill-rule="evenodd" clip-rule="evenodd" d="M329.999 565.5C337.166 565.667 351.599 566.3 351.999 567.5C352.497 568.995 353.492 580.916 351.025 583.968C352.202 583.552 353.253 583.062 354.128 582.518C359.253 579.335 356.933 571.727 356.178 570.108C355.574 568.813 355.315 565.935 355.261 564.658C349.994 562.716 336.735 563.166 330.764 563.633C330.506 564.157 330.236 564.749 329.969 565.393C329.978 565.429 329.989 565.464 329.999 565.5Z" fill="#BFA27A"/>
<path fill-rule="evenodd" clip-rule="evenodd" d="M358.778 563.896C364.231 563.274 368.714 561.442 369.182 557.353C370.205 548.428 365.501 535.538 351 530C351.329 530.504 351.998 531.162 353.072 531.992C359.077 536.632 358.594 545.415 356.517 552.751C355.39 556.731 356.039 561.301 358.778 563.896Z" fill="#815131"/>
<path d="M497.508 529.623C496.101 541.901 470.276 540.441 457.539 538.176C436.515 538.176 434.437 539.695 421.726 534.579C409.016 529.463 428.521 481.1 459.058 486.056C489.594 491.012 499.267 514.274 497.508 529.623Z" fill="#D1BC9F" stroke="#D1BC9F" stroke-width="0.479631"/>
<path d="M477.605 547.768C476.71 545.85 476.326 541.586 476.246 539.694C468.444 536.817 448.801 537.483 439.954 538.176C436.464 545.264 431.577 560.782 439.954 566.154C450.426 572.869 466.973 570.87 474.567 566.154C482.162 561.438 478.724 550.166 477.605 547.768Z" fill="#E8D9C6" stroke="#E8D9C6" stroke-width="0.479631"/>
<ellipse cx="8.15372" cy="18.0041" rx="8.15372" ry="18.0041" transform="matrix(-0.801468 -0.598037 -0.598037 0.801468 451.945 493.49)" fill="#E8D9C6"/>
<path fill-rule="evenodd" clip-rule="evenodd" d="M452.966 485.112C477.693 491.513 497.392 530.01 466.999 533.5C455.132 534.863 450.925 536.264 451.486 537.527C453.508 537.497 455.749 537.476 458.261 537.476C470.998 539.741 496.823 541.201 498.23 528.922C499.989 513.574 490.316 490.312 459.78 485.356C457.441 484.976 455.166 484.909 452.966 485.112Z" fill="#C2A782"/>
<path fill-rule="evenodd" clip-rule="evenodd" d="M439.045 540.429C449.773 540.681 471.377 541.637 471.976 543.449C472.722 545.706 474.211 563.704 470.518 568.312C472.28 567.683 473.853 566.944 475.162 566.123C482.835 561.317 479.362 549.831 478.232 547.387C477.327 545.431 476.939 541.087 476.858 539.159C468.976 536.226 449.129 536.905 440.191 537.611C439.804 538.402 439.401 539.296 439 540.269C439.015 540.322 439.03 540.376 439.045 540.429Z" fill="#D0B898"/>
<path d="M103.504 515.498C102.231 526.603 78.8746 525.282 67.3553 523.234C48.3414 523.234 46.4615 524.607 34.9663 519.98C23.4711 515.353 41.1116 471.614 68.729 476.096C96.3464 480.579 105.094 501.617 103.504 515.498Z" fill="#D1BC9F" stroke="#D1BC9F" stroke-width="0.479631"/>
<path d="M85.5029 531.909C84.6932 530.174 84.3462 526.318 84.2739 524.607C77.2176 522.005 59.452 522.607 51.4512 523.234C48.2943 529.644 43.8745 543.679 51.4512 548.537C60.9221 554.61 75.8874 552.803 82.7556 548.537C89.6238 544.272 86.5151 534.078 85.5029 531.909Z" fill="#E8D9C6" stroke="#E8D9C6" stroke-width="0.479631"/>
<ellipse cx="7.37428" cy="16.283" rx="7.37428" ry="16.283" transform="matrix(-0.801468 -0.598037 -0.598037 0.801468 62.2969 482.82)" fill="#E8D9C6"/>
<path fill-rule="evenodd" clip-rule="evenodd" d="M63.2147 475.243C85.5782 481.032 103.393 515.849 75.9063 519.005C65.1732 520.238 61.3688 521.506 61.8763 522.647C63.7047 522.621 65.732 522.601 68.0041 522.601C79.5234 524.649 102.88 525.97 104.152 514.865C105.743 500.984 96.9951 479.946 69.3777 475.463C67.2619 475.12 65.2048 475.06 63.2147 475.243Z" fill="#C2A782"/>
<path fill-rule="evenodd" clip-rule="evenodd" d="M50.6299 525.272C60.3318 525.5 79.871 526.365 80.4125 528.003C81.0869 530.044 82.4335 546.321 79.0946 550.489C80.6867 549.921 82.1088 549.252 83.2928 548.51C90.2321 544.163 87.0912 533.775 86.0685 531.565C85.2504 529.796 84.8998 525.867 84.8268 524.123C77.6974 521.471 59.7478 522.085 51.6642 522.723C51.3151 523.438 50.9507 524.246 50.5887 525.125C50.6019 525.174 50.6157 525.223 50.6299 525.272Z" fill="#D0B898"/>
<path d="M139.612 537.86C138.662 546.148 121.23 545.162 112.633 543.634C98.4421 543.634 97.0391 544.659 88.4598 541.206C79.8805 537.752 93.0463 505.108 113.658 508.453C134.27 511.798 140.799 527.5 139.612 537.86Z" fill="#A5663D" stroke="#A5663D" stroke-width="0.323747"/>
<path d="M126.178 550.108C125.574 548.813 125.315 545.935 125.261 544.658C119.994 542.716 106.735 543.166 100.764 543.633C98.4077 548.417 95.1091 558.892 100.764 562.518C107.832 567.051 119.002 565.702 124.128 562.518C129.253 559.335 126.933 551.727 126.178 550.108Z" fill="#D1BC9F" stroke="#D1BC9F" stroke-width="0.323747"/>
<ellipse cx="5.5037" cy="12.1526" rx="5.5037" ry="12.1526" transform="matrix(-0.801468 -0.598037 -0.598037 0.801468 108.855 513.471)" fill="#BC856D"/>
<path fill-rule="evenodd" clip-rule="evenodd" d="M99.9989 545.5C107.166 545.667 121.599 546.3 121.999 547.5C122.497 548.995 123.492 560.916 121.025 563.968C122.202 563.552 123.253 563.062 124.128 562.518C129.253 559.335 126.933 551.727 126.178 550.108C125.574 548.813 125.315 545.935 125.261 544.658C119.994 542.716 106.735 543.166 100.764 543.633C100.506 544.157 100.236 544.749 99.9688 545.393C99.9785 545.429 99.9885 545.464 99.9989 545.5Z" fill="#BFA27A"/>
<path fill-rule="evenodd" clip-rule="evenodd" d="M128.778 543.896C134.231 543.274 138.714 541.442 139.182 537.353C140.205 528.428 135.501 515.538 121 510C121.329 510.504 121.998 511.162 123.072 511.992C129.077 516.632 128.594 525.415 126.517 532.751C125.39 536.731 126.039 541.301 128.778 543.896Z" fill="#815131"/>
</svg>
