<svg width="544" height="540" viewBox="0 0 544 540" fill="none" xmlns="http://www.w3.org/2000/svg">
<path d="M456.247 286.246C450.236 385.253 387.264 435.294 356.529 447.939L346.276 416.256C356.483 393.869 370.169 375.966 375.793 369.91C381.725 362.292 396.805 345.486 409.22 338.422C421.635 331.358 445.744 300.694 456.247 286.246Z" fill="#5A7639" fill-opacity="0.5"/>
<path d="M39.3975 194.084C-1.20146 216.964 0.521617 229.101 1.24849 234.056C4.574 256.703 48.3688 268.771 68.9677 274.447L69.5971 274.62C174.594 303.566 379.939 263.001 421.938 255.42C463.937 247.839 492.279 235.604 511.186 225.786C523.413 219.437 531.175 209.902 532.109 206.341C533.392 198.186 529.946 184.918 511.186 177.2C484.867 168.654 465.687 151.815 459.387 144.464L379.939 67.9664C367.923 57.6288 338.85 34.6106 318.691 25.2378C247.853 -9.49628 187.911 10.7653 166.795 25.2378C153.962 33.393 131.373 54.3378 109.426 92.5418C94.3761 123.554 69.497 162.382 39.3975 194.084Z" fill="#BD7350" stroke="#BD7350"/>
<path d="M465.874 199.751C260.639 127.641 113.433 192.442 65.4844 233.856C105.243 264.482 187.748 266.106 224.03 263.09C229.63 286.477 214.931 323.413 206.881 338.958C164.413 429.194 158.766 507.884 173.809 523.902C191.346 542.575 246.416 543.08 272.315 528.464C323.554 501.457 310.362 336.986 301.728 249.517C400.846 238.381 452.458 211.699 465.874 199.751Z" fill="#E8D9C6" stroke="#E8D9C6"/>
<path d="M233.032 348.959C214.281 409.44 181.609 525.186 210.067 535.915" stroke="#C5A687" stroke-opacity="0.5" stroke-width="4" stroke-linecap="round"/>
<path d="M283.186 345.82C283.184 398.196 278.801 524.575 254.143 534.138" stroke="#C5A687" stroke-opacity="0.5" stroke-width="4" stroke-linecap="round"/>
<path fill-rule="evenodd" clip-rule="evenodd" d="M277.799 109.302C339.178 136.953 424.019 146.138 434.962 121.847C435.058 121.636 435.148 121.422 435.232 121.206L379.939 67.9664C367.923 57.6288 338.85 34.6106 318.691 25.2378C263.666 -1.74237 215.216 4.45973 186.43 15.3562C175.65 39.6629 216.507 81.6897 277.799 109.302Z" fill="#D28F72"/>
<path d="M354.897 64.6491C347.847 76.8589 326.306 77.6196 306.784 66.3481C287.261 55.0766 270.819 40.1104 277.868 27.9006C284.917 15.6909 312.789 10.8612 332.311 22.1326C351.834 33.4041 361.946 52.4394 354.897 64.6491Z" fill="#E6D2BA"/>
<path d="M351.269 53.9019C345.313 64.2165 329.693 66.3469 316.38 58.6603C303.066 50.9738 292.24 40.0992 298.195 29.7847C304.15 19.4702 324.632 13.6217 337.945 21.3082C351.259 28.9947 357.224 43.5874 351.269 53.9019Z" fill="#F6ECE0"/>
<path d="M115.896 132.873C122.034 143.503 115.156 158.965 100.533 167.407C85.9111 175.849 69.7576 180.41 63.6203 169.779C57.4829 159.149 63.6857 137.353 78.3079 128.911C92.9301 120.469 109.759 122.243 115.896 132.873Z" fill="#E6D2BA"/>
<path d="M114.756 131.228C119.229 138.975 114.216 150.243 103.56 156.396C92.9035 162.548 81.1311 165.872 76.6583 158.125C72.1855 150.378 76.706 134.493 87.3624 128.341C98.0188 122.188 110.283 123.481 114.756 131.228Z" fill="#F6ECE0"/>
<path d="M237.896 87.4724C238.113 71.6427 221.916 58.5859 201.72 58.3093C181.523 58.0326 163.72 78.8431 163.503 94.6729C163.286 110.503 180.738 115.357 200.935 115.634C221.131 115.91 237.679 103.302 237.896 87.4724Z" fill="#E6D2BA"/>
<path d="M235.521 80.6998C235.67 69.8258 224.364 60.854 210.267 60.6609C196.171 60.4678 183.748 74.7608 183.599 85.6349C183.45 96.5089 195.631 99.8463 209.728 100.039C223.824 100.233 235.372 91.5739 235.521 80.6998Z" fill="#F6ECE0"/>
<path d="M407.16 135.526C412.946 126.897 408.713 113.917 397.703 106.534C386.694 99.1515 369.451 104.223 363.665 112.852C357.878 121.481 365.739 130.399 376.748 137.782C387.757 145.165 401.373 144.155 407.16 135.526Z" fill="#E6D2BA"/>
<path d="M406.555 127.82C410.601 121.787 407.641 112.711 399.943 107.549C392.245 102.387 380.189 105.933 376.143 111.966C372.097 117.999 377.594 124.235 385.291 129.397C392.989 134.559 402.509 133.853 406.555 127.82Z" fill="#F6ECE0"/>
<path d="M146.385 51.0926C142.457 45.8386 132.664 46.5205 124.511 52.6156C116.357 58.7107 114.51 70.9834 118.437 76.2373C122.365 81.4912 130.581 77.7368 138.734 71.6417C146.887 65.5466 150.313 56.3465 146.385 51.0926Z" fill="#E6D2BA"/>
<path d="M146.206 51.0375C143.52 47.4437 136.83 47.9035 131.264 52.0645C125.698 56.2254 124.443 64.6131 127.13 68.2069C129.816 71.8007 135.427 69.2397 140.993 65.0788C146.559 60.9178 148.893 54.6313 146.206 51.0375Z" fill="#F6ECE0"/>
<path d="M41.5471 195.78C38.0081 191.046 29.1838 191.661 21.8374 197.153C14.491 202.645 12.826 213.703 16.3649 218.437C19.9039 223.171 27.3067 219.788 34.6531 214.296C41.9995 208.804 45.086 200.514 41.5471 195.78Z" fill="#E6D2BA"/>
<path d="M41.8852 195.827C39.5042 192.641 33.5671 193.055 28.6243 196.75C23.6816 200.445 22.5614 207.885 24.9424 211.07C27.3235 214.255 32.3042 211.979 37.2469 208.284C42.1896 204.589 44.2663 199.012 41.8852 195.827Z" fill="#F6ECE0"/>
<path d="M452.877 142.785C456.416 138.051 465.24 138.665 472.586 144.157C479.933 149.649 481.598 160.707 478.059 165.441C474.52 170.175 467.117 166.792 459.771 161.3C452.424 155.808 449.338 147.519 452.877 142.785Z" fill="#E6D2BA"/>
<path d="M459.819 142.715C462.464 139.177 469.06 139.636 474.551 143.741C480.041 147.845 481.286 156.111 478.641 159.649C475.996 163.187 470.463 160.659 464.972 156.554C459.481 152.449 457.174 146.253 459.819 142.715Z" fill="#F6ECE0"/>
<path d="M288.979 111.323C290.11 105.521 296.873 101.958 304.085 103.364C311.297 104.77 316.048 113.703 314.917 119.505C313.787 125.306 307.202 125.778 299.99 124.373C292.778 122.967 287.849 117.124 288.979 111.323Z" fill="#E6D2BA"/>
<path d="M294.198 109.597C295.123 104.855 300.65 101.943 306.545 103.092C312.44 104.241 316.323 111.543 315.399 116.284C314.475 121.026 309.093 121.412 303.198 120.263C297.303 119.114 293.274 114.339 294.198 109.597Z" fill="#F6ECE0"/>
<path d="M202.643 347.93C149.383 476.924 163.051 521.231 180.285 528.452C186.227 532.578 186.565 532.234 182.722 528.452C164.557 508.852 178.887 442.489 197.053 401.915C211.586 369.455 277.867 346.887 308.376 339.437C308.376 318.093 305.698 272.856 303.602 253.027C362.571 249.726 444.031 220.61 466.205 200.074C459.064 195.054 452.002 192.372 436.351 197.324C402.535 210.803 390.122 203.398 388.142 198.011C387.444 196.636 386.745 192.716 389.54 188.04C392.335 183.363 391.17 173.275 389.54 172.129C387.56 170.868 381.365 176.074 378.012 180.475C369.907 192.303 349.249 200.991 339.933 203.857C331.083 205.461 312.964 208.121 311.287 205.92C309.611 203.719 311.52 201.106 312.685 200.074C319.206 191.02 329.663 172.016 319.322 168.44C308.982 164.864 305.557 160.478 303.602 178.756C302.67 187.467 294.309 207.02 268.318 215.548C235.83 226.207 210.328 212.453 205.437 209.358C193.979 202.481 184.293 183.644 182.08 178.142C178.703 176.996 166.565 175.523 165.168 180.475C163.212 190.378 177.141 203.055 180.634 204.888C184.477 207.983 190.974 214.447 186.223 215.548C150.241 225.519 122.294 200.762 119.849 199.731C104.198 193.679 104.943 202.252 107.272 207.295L131.377 227.239C125.671 229.416 112.928 233.764 107.272 233.013C91.5059 233.013 75.8061 224.153 71.9633 225.872C68.1206 227.591 59.5604 233.764 69.8927 240.993C122.154 271.527 193.52 269.772 223.797 264.958C218.906 313.097 221.157 307.7 202.643 347.93Z" fill="#C5A687" stroke="#C5A687"/>
<path d="M272.614 156.351C150.059 158.073 82.1237 205.823 63.3906 234.174C115.121 185.69 222.171 172.191 272.614 169.436C323.058 166.682 420.109 185.392 467.281 200.084C391.987 152.977 311.548 156.351 272.614 156.351Z" fill="#A46C53" stroke="#A46C53"/>
<path d="M470.828 209.005C319.853 279.698 280.655 409.074 279.928 464.926L335.781 461.329C364.439 431.519 383.939 399.05 389.92 386.514C398.149 372.529 415.071 338.561 418.422 314.789C421.772 291.017 454.756 234.361 470.828 209.005Z" fill="#5A7639"/>
<path d="M443.992 447.777L443.722 456.541L439.108 456.564L440.577 446.315C442.659 422.046 417.509 398.697 404.674 390.057L323.012 327.116C343.475 327.616 387.657 330.532 400.682 338.196C413.708 345.86 426.78 363.18 431.688 370.882C447.903 395.686 446.647 432.48 443.992 447.777Z" fill="#77974D"/>
<path d="M443.747 398.446C417.169 405.612 415.181 437.234 417.509 452.149L426.775 457.884C429.186 445.827 436.92 440.244 445.019 437.46C453.117 434.676 465.597 434.075 478.706 427.882C502.449 415.873 516.529 405.75 520.6 402.189C506.057 397.956 470.325 391.28 443.747 398.446Z" fill="#8CAE62"/>
</svg>
