<svg width="330" height="295" viewBox="0 0 330 295" fill="none" xmlns="http://www.w3.org/2000/svg">
<path d="M183.546 192.452C172.924 198.438 173.375 201.613 173.565 202.91C174.435 208.835 185.893 211.992 191.282 213.477L191.447 213.522C218.917 221.095 272.64 210.482 283.628 208.499C294.616 206.516 302.031 203.315 306.978 200.746C310.177 199.085 312.208 196.59 312.452 195.659C312.788 193.525 311.886 190.054 306.978 188.035C300.092 185.799 295.074 181.393 293.426 179.47L272.64 159.456C269.497 156.752 261.89 150.73 256.616 148.277C238.083 139.19 222.401 144.491 216.876 148.277C213.519 150.411 207.609 155.891 201.867 165.886C197.93 174 191.421 184.158 183.546 192.452Z" fill="#BD7350" stroke="#BD7350" stroke-width="0.196652"/>
<path d="M292.996 181.198C288.612 186.827 266.009 179.95 251.509 168.926C237.009 157.903 227.668 148.207 232.052 142.578C236.436 136.95 259.803 135.929 271.565 148.829C282.503 156.642 292.996 175.25 292.996 181.198Z" fill="#D28F72"/>
<path d="M295.124 193.935C241.429 175.069 202.916 192.023 190.371 202.858C200.773 210.87 222.358 211.295 231.851 210.506C233.316 216.625 229.47 226.288 227.364 230.355C215.277 253.755 214.272 274.512 218.207 278.703C222.796 283.589 237.708 283.759 244.484 279.935C257.889 272.869 254.437 229.839 252.179 206.955C278.11 204.041 291.614 197.061 295.124 193.935Z" fill="#E8D9C6" stroke="#E8D9C6" stroke-width="0.196652"/>
<path d="M232.004 210.905C230.7 223.524 230.7 222.172 225.764 232.718C259.085 241.691 246.112 274.228 246.75 277.631C247.066 279.316 259.87 261.513 254.731 229.994C254.731 224.677 253.24 213.038 252.681 207.84C268.404 206.975 285.125 200.389 291.521 197.204C292.111 195.341 292.247 191.94 288.075 193.238C279.059 196.771 275.749 194.83 275.221 193.418C275.035 193.058 274.849 192.03 275.594 190.804C276.339 189.578 275.656 188.671 275.221 188.371C274.694 188.04 273.415 187.668 272.52 188.821C270.36 191.922 264.852 194.199 262.368 194.951C260.009 195.371 255.178 196.068 254.731 195.491C254.284 194.915 254.793 194.23 255.103 193.959C256.842 191.586 259.63 186.604 256.873 185.666C254.116 184.729 252.93 187.079 252.681 188.371C252.433 190.654 250.204 195.78 243.274 198.015C234.612 200.81 227.813 197.204 226.509 196.393C223.454 194.59 221.511 191.255 220.921 189.813C220.02 189.512 218.126 189.236 217.754 190.534C217.232 193.13 218.965 194.74 219.896 195.221C220.921 196.032 222.653 197.727 221.386 198.015C211.793 200.629 204.342 194.139 203.69 193.869C199.517 192.283 199.716 194.53 200.337 195.852L206.763 201.08C205.242 201.651 201.827 202.666 200.337 202.162C196.797 200.9 192.606 200.449 191.581 200.9C190.557 201.35 188.973 203.153 190.371 204.685C204.304 212.69 223.932 212.167 232.004 210.905Z" fill="#C5A687" stroke="#C5A687" stroke-width="0.196652"/>
<path d="M244.559 182.58C212.495 183.031 194.721 195.523 189.82 202.941C203.354 190.256 231.361 186.724 244.559 186.004C257.756 185.283 283.147 190.178 295.488 194.022C275.79 181.698 254.745 182.58 244.559 182.58Z" fill="#A46C53" stroke="#A46C53" stroke-width="0.196652"/>
<path d="M234.205 232.971C229.299 248.794 220.752 279.076 228.197 281.883" stroke="#C5A687" stroke-opacity="0.5" stroke-width="0.786608" stroke-linecap="round"/>
<path d="M247.328 232.15C247.328 245.854 246.181 278.918 239.73 281.419" stroke="#C5A687" stroke-opacity="0.5" stroke-width="0.786608" stroke-linecap="round"/>
<path d="M-7.80357 128.596C-13.7384 162.562 15.213 173.184 30.4306 174.249L182.226 176.76C185.308 177.978 196.287 177.08 215.553 163.749C242.214 144.118 235.868 110.297 229.363 95.8406L182.226 39.9159C176.52 30.0245 157.254 9.23727 125.845 5.21983C83.6618 -0.258502 47.8548 21.1222 35.2242 32.4974C23.3545 50.378 -1.86871 94.6308 -7.80357 128.596Z" fill="#BD7350" stroke="#BD7350" stroke-width="0.913056" stroke-linecap="round"/>
<path d="M9.46244 120.594C-18.2944 152.46 11.9733 169.329 30.5769 173.78L38.9085 159.97C40.1259 154.035 43.7934 141.549 48.7239 139.084C87.9853 108.04 165.138 126.187 165.481 139.084C165.755 149.401 176.224 167.356 181.55 175.536L195.93 171.313L212.023 161.611C217.539 158.035 229.76 139.312 217.982 113.29C206.203 87.2679 162.932 89.132 142.769 93.3169L66.3002 104.388C52.0337 104.578 20.693 108.086 9.46244 120.594Z" fill="#E8D9C6" stroke="#BD7350" stroke-width="0.913056" stroke-linecap="round"/>
<ellipse cx="167.034" cy="74.1081" rx="8.12227" ry="14.6971" transform="rotate(104.085 167.034 74.1081)" fill="#E6D2BA"/>
<ellipse cx="164.353" cy="74.5314" rx="6.43696" ry="11.6475" transform="rotate(103.791 164.353 74.5314)" fill="#FCEADC"/>
<ellipse cx="99.6342" cy="75.2266" rx="10.9635" ry="15.097" transform="rotate(-17.3874 99.6342 75.2266)" fill="#E6D2BA"/>
<ellipse cx="97.7971" cy="74.5314" rx="9.35537" ry="12.8826" transform="rotate(-17.3874 97.7971 74.5314)" fill="#FCEADC"/>
<ellipse cx="72.4729" cy="43.2709" rx="8.33132" ry="13.5937" transform="rotate(40.41 72.4729 43.2709)" fill="#E6D2BA"/>
<ellipse cx="70.8047" cy="42.5572" rx="6.78956" ry="11.0781" transform="rotate(40.41 70.8047 42.5572)" fill="#FCEADC"/>
<path d="M149.003 35.4658C136.388 25.3847 113.461 16.5303 95.5195 11.568C117.98 9.51796 140.314 10.2481 151.224 18.0638C169.999 31.5148 217.288 83.7308 228.373 101.175C232.771 120.392 232.007 130.184 229.937 134.455C228.471 122.904 227.8 111.117 218.14 101.175C210.685 93.5025 189.147 75.1726 179.666 65.6058C171.329 57.1924 156.904 41.7801 149.003 35.4658Z" fill="#D28F72" stroke="#D28F72" stroke-width="0.913056" stroke-linecap="round"/>
<path d="M168.347 136.338C126.287 104.845 68.5865 122.037 44.9937 134.57L35.7723 163.919C34.0933 168.302 26.1675 181.575 17.9279 208.354C2.98186 260.498 51.86 285.792 78.1673 291.921C101.241 295.104 153.041 297.013 175.652 279.192C216.49 247.368 194.059 191.972 187.748 183.249C181.707 174.899 171.66 150.286 168.347 136.338Z" fill="#E8D9C6" stroke="#E8D9C6" stroke-width="0.913056" stroke-linecap="round"/>
<path d="M174.806 192.503C169.714 184.264 163.919 155.981 162.078 141.662C189.094 205.87 182.596 180.879 190.655 199.815C204.776 232.993 188.814 259.301 179.489 269.621C192.576 217.181 180.541 201.784 174.806 192.503Z" fill="#FDF6F1" stroke="#E8D9C6" stroke-width="0.913056" stroke-linecap="round"/>
<path d="M144.23 172.314C144.23 186.938 134.073 200.277 117.98 198.793C100.86 199.592 91.8438 186.938 91.8438 172.314C91.8438 157.691 100.974 143.211 117.98 144.58C135.955 146.028 144.23 160.102 144.23 172.314Z" fill="#C5A687"/>
<path d="M134.732 170.258C135.38 183.668 128.687 195.409 117.852 196.638C107.017 197.867 97.0066 188.049 95.4935 174.708C93.9805 161.367 102.785 149.415 113.62 148.186C124.456 146.957 133.793 150.837 134.732 170.258Z" fill="#C7D4EE"/>
<path d="M117.272 147.913L118.777 196.305" stroke="#C5A687" stroke-width="1.59785" stroke-linecap="round"/>
<path d="M127.972 213.003C88.1153 214.211 85.9782 260.698 90.3585 285.9C127.972 290.123 160.999 280.881 167.169 276.313C167.169 267.071 177.793 211.493 127.972 213.003Z" fill="#C5A687" stroke="#C5A687" stroke-width="1.59785" stroke-linecap="round"/>
<path d="M128.366 213.426C97.3223 218.754 95.6625 261.633 100.338 286.77C116.421 289.542 144.75 284.836 156.711 281.832C159.984 256.841 157.447 208.436 128.366 213.426Z" fill="#E8D9C6" stroke="#E8D9C6" stroke-width="1.59785" stroke-linecap="round"/>
<path d="M141.836 253.371C141.745 254.284 143.168 254.589 143.891 254.627H144.347C144.195 255.692 143.845 258.119 143.662 259.306C143.48 260.493 144.043 261.17 144.347 261.36C145.108 261.931 146.972 262.89 148.342 262.159C150.054 261.246 149.141 258.621 149.141 258.051V254.627C149.826 254.436 151.195 253.828 151.195 252.915C150.647 250.906 148.304 250.099 147.2 249.947C143.731 250.86 142.179 252.61 141.836 253.371Z" fill="#C5A687" stroke="#C5A687" stroke-width="0.684792" stroke-linecap="round"/>
<path d="M98.6914 286.586C112.349 287.194 143.819 287.293 158.154 280.08" stroke="#C5A687" stroke-width="1.82611" stroke-linecap="round"/>
<path d="M94.8086 178.274L135.211 170.057" stroke="#C5A687" stroke-width="1.59785" stroke-linecap="round"/>
<ellipse cx="63.7644" cy="227.464" rx="13.4676" ry="14.4948" fill="#C5A687"/>
<ellipse cx="172.682" cy="40.7169" rx="6.81109" ry="12.3245" transform="rotate(145.774 172.682 40.7169)" fill="#E6D2BA"/>
<ellipse cx="171.345" cy="40.6956" rx="5.69801" ry="10.3104" transform="rotate(145.774 171.345 40.6956)" fill="#FCEADC"/>
<ellipse cx="145.438" cy="11.8761" rx="7.5367" ry="10.1975" transform="rotate(110.494 145.438 11.8761)" fill="#E6D2BA"/>
<ellipse cx="143.571" cy="11.8495" rx="6.38248" ry="8.63581" transform="rotate(110.494 143.571 11.8495)" fill="#FCEADC"/>
<ellipse cx="2.60467" cy="109.058" rx="5.4996" ry="9.95138" transform="rotate(-161.668 2.60467 109.058)" fill="#E6D2BA"/>
<ellipse cx="1.41138" cy="109.062" rx="4.71331" ry="8.52862" transform="rotate(-161.668 1.41138 109.062)" fill="#FCEADC"/>
<ellipse cx="217.469" cy="83.6895" rx="12.3692" ry="17.2961" transform="rotate(140.893 217.469 83.6895)" fill="#E6D2BA"/>
<ellipse cx="214.424" cy="81.0756" rx="10.5348" ry="14.731" transform="rotate(140.893 214.424 81.0756)" fill="#FCEADC"/>
<path d="M47.3101 168.002L51.3302 141.129L70.959 133.654L60.1232 169.426C45.2018 219.435 63.1986 276.893 65.5411 277.809C-0.701651 252.751 25.7859 194.164 47.3101 168.002Z" fill="#C5A687" stroke="#C5A687" stroke-width="1.42375" stroke-linecap="round"/>
<path d="M73.8027 228.091C73.8027 234.482 69.4957 240.759 64.7862 240.759C55.3133 240.759 52.5 235.166 51.7752 228.776C51.0504 222.385 56.1334 215.219 62.3895 214.509C68.6456 213.8 73.8027 218.373 73.8027 228.091Z" fill="#C7D4EE"/>
<path d="M61.1055 111.107C92.2307 128.109 127.489 129.884 160.649 103.042C146.014 124.256 105.616 155.57 61.1055 111.107Z" fill="#C5A687"/>
<path d="M79.4408 122.944C61.5741 132.859 38.1099 130.714 28.9683 127.958C34.6083 134.328 54.7435 143.621 90.1648 129.836L79.4408 122.944Z" fill="#C5A687"/>
<path d="M52.0622 132.271C39.2359 144.538 19.238 147.176 11.0477 146.5C17.0716 151.065 35.7818 155.419 62.4312 136.316L52.0622 132.271Z" fill="#C5A687"/>
<path d="M165.085 128.746C175.741 138.809 199.993 139.342 206.324 137.677C201.895 142.769 179.034 148.724 157.248 133.885L165.085 128.746Z" fill="#C5A687"/>
<path d="M135.971 122.025C152.753 130.401 173.349 126.211 181.19 122.655C176.798 129.526 159.834 140.586 127.121 129.861L135.971 122.025Z" fill="#C5A687"/>
<ellipse cx="123.524" cy="38.1315" rx="19.6596" ry="34.8163" transform="rotate(-46.955 123.524 38.1315)" fill="#E6D2BA"/>
<ellipse cx="119.454" cy="38.3968" rx="16.7905" ry="29.7353" transform="rotate(-46.955 119.454 38.3968)" fill="#FCEADC"/>
<ellipse cx="30.7549" cy="38.7367" rx="12.6978" ry="23.6698" transform="rotate(47.2648 30.7549 38.7367)" fill="#E6D2BA"/>
<ellipse cx="28.9047" cy="38.7252" rx="11.4456" ry="21.3357" transform="rotate(47.2648 28.9047 38.7252)" fill="#FCEADC"/>
<ellipse cx="46.8067" cy="82.2715" rx="16.3906" ry="25.1896" transform="rotate(61.6402 46.8067 82.2715)" fill="#E6D2BA"/>
<ellipse cx="42.8442" cy="81.7115" rx="13.8325" ry="21.2582" transform="rotate(61.6402 42.8442 81.7115)" fill="#FCEADC"/>
<path d="M10.7124 205.094C1.74421 249.073 23.4079 278.32 35.3607 287.446L43.5529 274.799C41.7133 263.818 37.828 254.39 36.0794 251.085C34.3787 247.06 29.7557 237.949 25.1566 233.407C20.5575 228.865 13.6109 212.639 10.7124 205.094Z" fill="#5A7639" stroke="#5A7639" stroke-width="0.143722"/>
<path d="M281.05 207.088C285.838 244.209 266.045 267.218 255.549 274.083L249.504 263.066C251.701 254.046 255.505 246.441 257.16 243.798C258.819 240.554 263.217 233.256 267.318 229.759C271.419 226.261 278.182 213.187 281.05 207.088Z" fill="#5A7639" stroke="#5A7639" stroke-width="0.11985"/>
<path d="M13.6906 265.655C26.8556 261.746 35.9436 274.758 38.8419 281.752L36.3987 286.639C32.2308 282.111 27.4879 281.752 23.32 282.686C19.1521 283.62 13.6906 286.639 6.50456 287.429C-6.71784 288.521 -15.3411 287.884 -18 287.429C-12.9218 281.8 0.525734 269.564 13.6906 265.655Z" fill="#678D3A" stroke="#678D3A" stroke-width="0.143722"/>
<path d="M266.91 252.262C253.18 252.581 248.523 267.753 247.911 275.3L251.735 279.201C254.313 273.613 258.717 271.816 262.97 271.426C267.224 271.037 273.348 272.233 280.43 270.781C293.35 267.763 301.362 264.511 303.753 263.262C297.192 259.463 280.639 251.943 266.91 252.262Z" fill="#97C65F" stroke="#97C65F" stroke-width="0.143722"/>
<path d="M204.254 227.344C203.585 230.687 195.295 244.794 189.746 256.36L199.908 278.556C211.875 270.199 211.207 246.265 210.404 239.78C209.763 234.592 207.775 228.927 206.861 226.743C206.754 225.245 206.148 224.871 205.858 224.871C205.546 224.581 204.789 224.67 204.254 227.344Z" fill="#5A7639" fill-opacity="0.5" stroke="#607B40" stroke-opacity="0.5" stroke-width="0.133711"/>
<path d="M184.729 269.962L182.055 272.837L183.058 274.91L185.932 271.032C193.046 262.475 205.833 266.397 211.337 269.428L248.843 286.208C244.208 277.205 233.627 258.343 228.386 254.92C223.144 251.497 214.881 251.087 211.404 251.31C200.119 251.844 188.919 263.968 184.729 269.962Z" fill="#678D3A" stroke="#678D3A" stroke-width="0.133711"/>
<path d="M286.039 249.498C285.997 251.554 286.172 254.586 286.604 256.316C285.816 261.054 281.282 257.605 279.893 257.355C275.906 255.794 275.166 252.531 275.888 248.229C279.09 240.432 293.562 232.522 294.937 231.868L294.955 231.86C296.383 231.181 304.526 227.309 311.024 232.219C317.549 237.15 330.444 246.78 328.632 252.554C326.82 258.328 322.26 260.32 319.663 259.03C317.585 257.998 317.231 254.163 318.013 252.427C309.384 235.608 286.091 246.928 286.039 249.498Z" fill="#A36B52" stroke="#A36B52" stroke-width="0.0667179"/>
<path fill-rule="evenodd" clip-rule="evenodd" d="M286.586 237.021C279.714 242.86 275.716 250.678 284.197 252.966C284.842 253.14 285.504 253.302 286.179 253.452C286.061 252.095 286.017 250.645 286.04 249.499C286.092 246.929 309.385 235.609 318.014 252.428C317.719 253.082 317.586 254.033 317.645 255.021C317.881 255.009 318.11 254.998 318.33 254.986C327.968 254.484 326.899 246.96 319.469 238.89C316.609 236.439 313.618 234.179 311.329 232.45C311.226 232.372 311.125 232.295 311.025 232.22C307.566 229.606 303.641 229.481 300.51 230.038C300.396 230.109 300.285 230.181 300.178 230.252C299.536 230.312 298.867 230.431 298.18 230.601C296.589 231.084 295.419 231.641 294.956 231.861L294.938 231.869C294.277 232.184 290.592 234.173 286.586 237.021Z" fill="#BC856D"/>
<path d="M292.801 235.625C293.346 237.149 291.812 239.09 289.375 239.961C286.938 240.832 284.407 241.159 283.862 239.635C283.317 238.111 284.965 235.313 287.402 234.442C289.84 233.571 292.257 234.1 292.801 235.625Z" fill="#E8D9C6"/>
<path d="M320.045 240.343C319.339 241.2 319.877 242.809 321.246 243.938C322.616 245.067 324.173 245.867 324.879 245.01C325.585 244.154 325.172 241.965 323.803 240.836C322.433 239.707 320.75 239.487 320.045 240.343Z" fill="#E6D2BA"/>
<path d="M320.78 240.193C320.257 240.827 320.656 242.019 321.67 242.855C322.684 243.691 323.837 244.283 324.36 243.649C324.883 243.014 324.577 241.394 323.563 240.558C322.549 239.722 321.303 239.559 320.78 240.193Z" fill="#F6ECE0"/>
<path d="M301.618 237.484C302.159 238.507 299.285 239.422 298.133 239.452C295.646 239.62 295.473 238.13 296.402 237.232C296.906 236.744 298.785 235.598 299.578 235.896C300.827 236.366 301.209 236.581 301.618 237.484Z" fill="#E6D2BA"/>
<path d="M301.457 237.257C301.879 238.054 299.639 238.767 298.741 238.79C296.803 238.922 296.669 237.76 297.392 237.06C297.785 236.68 299.249 235.787 299.867 236.02C300.84 236.386 301.138 236.554 301.457 237.257Z" fill="#F6ECE0"/>
<ellipse cx="304.217" cy="232.562" rx="1.46779" ry="0.967409" transform="rotate(3.38706 304.217 232.562)" fill="#E6D2BA"/>
<ellipse cx="304.456" cy="232.442" rx="1.16756" ry="0.767256" transform="rotate(3.38706 304.456 232.442)" fill="#F6ECE0"/>
<ellipse cx="309.948" cy="238.517" rx="4.33666" ry="2.96895" transform="rotate(13.6993 309.948 238.517)" fill="#E8D9C6"/>
<ellipse cx="309.948" cy="238.517" rx="4.33666" ry="2.96895" transform="rotate(13.6993 309.948 238.517)" fill="#E8D9C6"/>
<ellipse cx="309.948" cy="238.517" rx="4.33666" ry="2.96895" transform="rotate(13.6993 309.948 238.517)" fill="#E6D2BA"/>
<ellipse cx="310.592" cy="238.068" rx="3.30406" ry="2.26201" transform="rotate(13.6993 310.592 238.068)" fill="#F6ECE0"/>
<path d="M317.305 237.556C316.88 238.111 315.754 237.964 314.79 237.226C313.826 236.488 313.39 235.439 313.815 234.883C314.559 234.577 315.367 234.475 316.331 235.213C317.295 235.951 317.462 236.921 317.305 237.556Z" fill="#E6D2BA"/>
<path d="M317.268 237.148C316.926 237.595 316.021 237.476 315.246 236.883C314.471 236.29 314.121 235.447 314.463 235C315.061 234.754 315.71 234.672 316.485 235.265C317.259 235.858 317.393 236.638 317.268 237.148Z" fill="#F6ECE0"/>
<path d="M281.338 246.174C281.791 246.707 281.409 247.777 280.485 248.563C279.56 249.349 278.442 249.554 277.989 249.021C277.847 248.229 277.918 247.417 278.842 246.631C279.767 245.845 280.751 245.887 281.338 246.174Z" fill="#E6D2BA"/>
<path d="M281.334 246.088C281.68 246.495 281.388 247.311 280.683 247.911C279.977 248.511 279.125 248.667 278.779 248.26C278.67 247.656 278.724 247.037 279.43 246.437C280.136 245.838 280.886 245.869 281.334 246.088Z" fill="#F6ECE0"/>
<path d="M292.801 235.625C293.346 237.149 291.812 239.09 289.375 239.961C286.938 240.832 284.407 241.159 283.862 239.635C283.317 238.111 284.965 235.313 287.402 234.442C289.84 233.571 292.257 234.1 292.801 235.625Z" fill="#E6D2BA"/>
<path d="M292.259 235.155C292.665 236.292 291.521 237.74 289.704 238.389C287.886 239.039 285.999 239.283 285.592 238.146C285.186 237.009 286.415 234.923 288.233 234.273C290.05 233.624 291.853 234.019 292.259 235.155Z" fill="#F6ECE0"/>
<ellipse cx="324.901" cy="252.901" rx="1.03413" ry="1.23428" transform="rotate(3.38706 324.901 252.901)" fill="#E8D9C6"/>
<ellipse cx="325.117" cy="252.681" rx="0.833974" ry="1.00077" transform="rotate(3.38706 325.117 252.681)" fill="#F6ECE0"/>
<path d="M286.395 247.766C283.658 252.676 282.255 260.084 281.896 263.175C278.923 260.089 277.035 260.651 276.462 261.318C274.442 263.72 278.372 267.995 280.59 269.832C280.932 275.215 283.738 278.63 285.098 279.664C281.189 279.238 280.294 282.654 280.581 284.068C282.227 287.173 291.878 285.092 293.902 283.194L303.702 283.592C306.055 287.293 317.473 289.761 317.62 286.161C317.701 282.185 314.447 281.792 312.81 282.093C317.524 279.8 319.287 274.384 319.663 271.439C323.38 269.52 325.648 264.647 324.157 263.551C322.964 262.675 320.61 264.058 320.06 264.726C319.543 255.757 317.243 249.977 316.157 248.208C307.377 246.015 289.132 242.856 286.395 247.766Z" fill="#D1BC9F"/>
<path d="M315.879 251.654C315.143 249.296 291.851 246.952 287.754 248.586C278.567 264.477 285.269 272.852 290.197 276.344C294.88 279.662 304.886 279.987 308.513 277.996C320.89 271.202 318.43 259.828 315.879 251.654Z" fill="#E8D9C6"/>
<ellipse cx="293.917" cy="257.517" rx="1.53451" ry="2.20169" transform="rotate(3.38706 293.917 257.517)" fill="#564035"/>
<ellipse cx="307.972" cy="258.349" rx="1.53451" ry="2.20169" transform="rotate(3.38706 307.972 258.349)" fill="#564035"/>
<path d="M298.411 260.632C298.427 260.359 298.744 260.213 298.971 260.366C300.383 261.315 301.341 261.34 302.688 260.606C302.924 260.476 303.222 260.651 303.206 260.92C303.2 261.029 303.14 261.128 303.046 261.183C301.218 262.256 300.188 262.189 298.541 260.92C298.453 260.852 298.405 260.744 298.411 260.632Z" fill="#70554A"/>
<path d="M320.122 252.379C308.617 236.727 290.291 243.529 282.567 248.887C284.629 252.431 288.202 249.844 289.398 248.088C293.523 250.204 296.126 248.642 297.245 247.617C300.477 249.92 303.972 249.519 305.315 249.03C305.826 250.344 310.362 250.331 312.567 250.161C311.404 252.866 321.396 253.992 320.122 252.379Z" fill="#E8D8C8" stroke="#E8D9C6" stroke-width="0.0667179"/>
<path d="M293.562 243.762C295.42 248.517 304.75 253.48 310.953 244.658" stroke="#D1BC9F" stroke-width="0.867333"/>
<path d="M305.376 249.14C307.209 250.919 314.313 251.139 315.277 247.286" stroke="#D1BC9F" stroke-width="0.867333"/>
<path d="M312.431 250.16C312.155 253.118 320.876 253.701 320.181 252.457" stroke="#D1BC9F" stroke-width="0.867333"/>
<path d="M287.48 246.01C289.058 249.846 295.903 249.382 297.175 247.653" stroke="#D1BC9F" stroke-width="0.867333"/>
<path d="M282.57 248.825C284.353 251.437 288.473 250.144 289.689 248.244" stroke="#D1BC9F" stroke-width="0.867333"/>
<path d="M282.099 248.931C282.001 249.015 281.99 249.163 282.074 249.261C282.158 249.358 282.306 249.369 282.404 249.285L282.099 248.931ZM282.404 249.285C286.951 245.371 294.07 242.838 301.266 243.02C308.456 243.201 315.702 246.089 320.535 252.99L320.918 252.722C315.984 245.677 308.586 242.737 301.278 242.553C293.977 242.369 286.742 244.935 282.099 248.931L282.404 249.285Z" fill="#886653"/>
<path d="M289.604 280.153C289.562 280.87 286.247 282.694 284.647 282.599C283.047 282.505 281.785 281.846 281.827 281.129C281.869 280.412 282.87 279.286 284.47 279.381C286.176 279.348 289.647 279.435 289.604 280.153Z" fill="#E8D9C6"/>
<path d="M309.332 282.765C309.29 283.482 312.542 284.392 314.143 284.487C315.743 284.581 317.583 285.076 317.626 284.358C317.668 283.641 316.172 282.401 314.572 282.306C312.882 282.073 309.375 282.048 309.332 282.765Z" fill="#E8D9C6"/>
<path d="M278.675 264.113C278.668 263.252 277.436 261.711 277.029 261.316C276.286 260.149 281.687 261.227 283.739 261.853C283.82 262.916 283.82 265.036 283.167 265.009C282.514 264.981 282.032 264.666 281.873 264.511C281.852 265.826 281.47 267.274 281.281 267.833C280.415 266.952 278.682 264.974 278.675 264.113Z" fill="#E8D9C6" stroke="#E8D9C6" stroke-width="0.0667179"/>
<path d="M319.647 267.16C318.445 266.233 317.81 266.193 317.367 266.724L317.6 265.041L318.803 264.477C319.501 264.362 321.186 263.969 322.338 263.476C323.49 262.983 324.136 263.576 324.345 263.996C324.6 264.773 319.66 268.638 319.268 268.481C318.955 268.356 319.15 268.033 319.647 267.16Z" fill="#E8D9C6" stroke="#E8D9C6" stroke-width="0.0667179"/>
<ellipse cx="285.812" cy="260.146" rx="5.27071" ry="4.10315" transform="rotate(3.38706 285.812 260.146)" fill="#DAAA93"/>
<ellipse cx="317.648" cy="262.03" rx="5.27071" ry="4.10315" transform="rotate(3.38706 317.648 262.03)" fill="#DAAA93"/>
<path d="M294.789 245.203C297.163 246.787 303.523 249.183 309.308 246.062C306.748 249.139 300.26 253.274 294.789 245.203Z" fill="#D1BC9F"/>
<path d="M295.316 246.672C292.67 248.27 289.495 247.503 288.296 246.842C288.944 248.132 291.522 250.198 296.65 248.14L295.316 246.672Z" fill="#D1BC9F"/>
<path d="M288.154 247.545C286.39 249.658 283.705 249.55 282.613 249.143C283.4 250.282 285.885 251.792 289.524 248.718L288.154 247.545Z" fill="#D1BC9F"/>
<path d="M313.726 249.331C314.979 251.782 319.034 252.644 320.19 252.488C319.17 253.425 315 253.974 312.13 250.172L313.726 249.331Z" fill="#D1BC9F"/>
<path d="M307.026 247.698C309.464 249.597 312.708 249.21 313.977 248.695C313.181 249.9 310.377 251.647 305.527 248.998L307.026 247.698Z" fill="#D1BC9F"/>
</svg>
