<svg width="262" height="263" viewBox="0 0 262 263" fill="none" xmlns="http://www.w3.org/2000/svg">
<path d="M231.095 187.111C235.984 225.016 215.773 248.51 205.056 255.519L198.883 244.27C201.126 235.06 205.011 227.294 206.701 224.595C208.394 221.283 212.886 213.831 217.073 210.26C221.26 206.688 228.166 193.339 231.095 187.111Z" fill="#5A7639" stroke="#5A7639" stroke-width="0.122379"/>
<path d="M57.5935 205.036C66.7373 212.769 61.5923 225.616 57.8768 231.073L53.1453 231.627C54.4546 226.423 52.4496 222.793 49.776 220.2C47.1024 217.607 42.2908 215.066 38.2794 210.204C31.1625 201.083 27.5052 194.49 26.5662 192.333C33.0987 193.346 48.4498 197.304 57.5935 205.036Z" fill="#5A7639"/>
<path d="M227.273 233.821C213.831 229.829 204.551 243.115 201.591 250.257L204.086 255.247C208.342 250.624 213.185 250.257 217.441 251.211C221.697 252.165 227.273 255.247 234.611 256.054C248.113 257.169 256.918 256.519 259.633 256.054C254.447 250.306 240.716 237.812 227.273 233.821Z" fill="#678D3A" stroke="#678D3A" stroke-width="0.146755"/>
<path d="M276.411 93.9241C296.057 104.996 295.224 110.869 294.872 113.267C293.263 124.226 272.07 130.066 262.102 132.812L261.798 132.896C210.989 146.903 111.621 127.273 91.297 123.605C70.9734 119.937 57.2587 114.016 48.1094 109.265C42.1925 106.192 38.4365 101.578 37.9848 99.8553C37.3638 95.9089 39.0315 89.4887 48.1094 85.7535C60.8455 81.6182 70.1266 73.4698 73.1752 69.9126L111.621 32.8948C117.435 27.8924 131.504 16.7537 141.259 12.2181C175.538 -4.58997 204.545 5.21474 214.763 12.2181C220.973 16.1645 231.904 26.2998 242.524 44.787C249.807 59.7942 261.846 78.5834 276.411 93.9241Z" fill="#C16134" stroke="#C16134" stroke-width="0.444922"/>
<path d="M70.0374 96.6658C169.352 61.7714 240.586 93.1292 263.789 113.17C244.549 127.99 204.625 128.776 187.067 127.316C184.358 138.633 191.471 156.507 195.366 164.029C215.917 207.695 218.65 245.774 211.37 253.525C202.884 262.561 176.235 262.806 163.702 255.732C138.907 242.664 145.291 163.075 149.469 120.748C101.505 115.359 76.5296 102.448 70.0374 96.6658Z" fill="url(#paint0_linear_1_3)" stroke="#E8D9C6" stroke-width="0.444922"/>
<path d="M182.71 168.869C191.784 198.136 207.594 254.147 193.823 259.338" stroke="#C5A687" stroke-opacity="0.5" stroke-width="1.77969" stroke-linecap="round"/>
<path d="M158.438 167.35C158.438 192.695 160.559 253.851 172.492 258.478" stroke="#C5A687" stroke-opacity="0.5" stroke-width="1.77969" stroke-linecap="round"/>
<path fill-rule="evenodd" clip-rule="evenodd" d="M161.046 52.8974C131.344 66.2779 90.2892 70.7229 84.9939 58.9684C84.9478 58.8661 84.9043 58.7628 84.8633 58.6585L111.621 32.8948C117.435 27.8924 131.504 16.7537 141.259 12.2181C167.885 -0.837482 191.33 2.1633 205.26 7.43593C210.478 19.198 190.706 39.5356 161.046 52.8974Z" fill="#DC7747" fill-opacity="0.7"/>
<path d="M123.739 31.2901C127.15 37.1985 137.574 37.5665 147.021 32.1122C156.469 26.6579 164.425 19.4156 161.014 13.5072C157.603 7.59878 144.115 5.26167 134.668 10.716C125.221 16.1704 120.328 25.3817 123.739 31.2901Z" fill="#E6D2BA"/>
<path d="M125.496 26.0898C128.378 31.0811 135.936 32.112 142.379 28.3924C148.821 24.6728 154.06 19.4105 151.179 14.4193C148.297 9.42799 138.386 6.59785 131.943 10.3174C125.501 14.037 122.614 21.0985 125.496 26.0898Z" fill="#F6ECE0"/>
<path d="M239.393 64.3037C236.423 69.4477 239.752 76.9295 246.827 81.0147C253.903 85.1 261.72 87.307 264.69 82.1629C267.66 77.0189 264.658 66.4717 257.583 62.3865C250.507 58.3013 242.363 59.1596 239.393 64.3037Z" fill="#E6D2BA"/>
<path d="M239.946 63.5082C237.782 67.2571 240.208 72.7096 245.364 75.6869C250.521 78.6641 256.218 80.2725 258.382 76.5236C260.547 72.7748 258.359 65.0882 253.202 62.1109C248.046 59.1337 242.111 59.7593 239.946 63.5082Z" fill="#F6ECE0"/>
<path d="M180.357 42.3335C180.252 34.6734 188.09 28.3551 197.863 28.2212C207.636 28.0873 216.252 38.1577 216.357 45.8178C216.462 53.4779 208.016 55.8271 198.243 55.9609C188.47 56.0948 180.462 49.9936 180.357 42.3335Z" fill="#E6D2BA"/>
<path d="M181.504 39.0581C181.432 33.7961 186.903 29.4546 193.724 29.3611C200.546 29.2677 206.557 36.1842 206.63 41.4462C206.702 46.7083 200.807 48.3232 193.985 48.4167C187.164 48.5101 181.576 44.3202 181.504 39.0581Z" fill="#F6ECE0"/>
<path d="M98.4494 65.5891C95.6492 61.4136 97.6979 55.1324 103.025 51.5598C108.353 47.9871 116.697 50.4415 119.497 54.617C122.297 58.7926 118.493 63.1081 113.166 66.6808C107.838 70.2534 101.25 69.7647 98.4494 65.5891Z" fill="#E6D2BA"/>
<path d="M98.7394 61.8581C96.7815 58.9386 98.214 54.5468 101.939 52.0488C105.664 49.5508 111.498 51.2669 113.456 54.1864C115.414 57.106 112.754 60.1234 109.029 62.6214C105.304 65.1194 100.697 64.7776 98.7394 61.8581Z" fill="#F6ECE0"/>
<path d="M224.641 24.7304C226.542 22.188 231.281 22.5179 235.227 25.4674C239.172 28.4169 240.066 34.3557 238.166 36.8981C236.265 39.4405 232.289 37.6237 228.344 34.6743C224.398 31.7248 222.741 27.2728 224.641 24.7304Z" fill="#E6D2BA"/>
<path d="M224.725 24.7034C226.025 22.9643 229.263 23.1868 231.956 25.2003C234.649 27.2139 235.256 31.2727 233.956 33.0118C232.656 34.7509 229.941 33.5116 227.248 31.4981C224.555 29.4845 223.425 26.4425 224.725 24.7034Z" fill="#F6ECE0"/>
<path d="M76.3217 69.1012C74.6092 66.8104 70.339 67.1077 66.7841 69.7653C63.2291 72.4229 62.4234 77.774 64.1359 80.0648C65.8484 82.3556 69.4307 80.7187 72.9857 78.0611C76.5407 75.4035 78.0343 71.392 76.3217 69.1012Z" fill="#E6D2BA"/>
<path d="M72.9666 69.0668C71.6866 67.3546 68.495 67.5769 65.8379 69.5632C63.1808 71.5495 62.5786 75.5491 63.8586 77.2613C65.1386 78.9735 67.8161 77.75 70.4731 75.7637C73.1302 73.7773 74.2466 70.7791 72.9666 69.0668Z" fill="#F6ECE0"/>
<path d="M155.638 53.8759C155.091 51.0686 151.818 49.3442 148.328 50.0245C144.838 50.7047 142.539 55.0279 143.086 57.8352C143.633 60.6426 146.82 60.871 150.31 60.1908C153.799 59.5105 156.185 56.6833 155.638 53.8759Z" fill="#E6D2BA"/>
<path d="M153.111 53.0406C152.664 50.7461 149.989 49.3367 147.136 49.8927C144.284 50.4487 142.405 53.9822 142.852 56.2768C143.299 58.5713 145.904 58.7581 148.756 58.2021C151.608 57.6461 153.558 55.3352 153.111 53.0406Z" fill="#F6ECE0"/>
<path d="M198.381 168.61C224.153 231.031 216.572 252.234 208.232 255.728C205.356 257.725 205.193 257.558 207.052 255.728C215.843 246.243 208.908 214.13 200.118 194.496C193.085 178.788 160.485 167.562 145.721 163.957C145.721 153.629 147.543 132.043 148.558 122.448C120.022 120.851 80.6029 106.761 69.8728 96.8236C73.3283 94.3942 76.7458 93.0964 84.3192 95.4924C100.683 102.015 106.69 98.432 107.648 95.8252C107.986 95.1596 108.324 93.2628 106.972 90.9998C105.619 88.7369 106.183 83.8551 106.972 83.3004C107.93 82.6903 110.927 85.2094 112.55 87.3392C116.472 93.0631 126.469 97.2673 130.977 98.6539C135.259 99.4304 144.027 100.717 144.839 99.6522C145.65 98.5873 144.726 97.3227 144.162 96.8236C141.007 92.4419 135.947 83.246 140.95 81.5155C145.954 79.7851 147.612 77.6626 148.558 86.5073C149.008 90.7225 153.054 100.185 165.632 104.311C181.353 109.469 193.694 102.814 196.06 101.316C201.605 97.9883 206.292 88.8726 207.363 86.2103C208.997 85.6556 214.871 84.9432 215.547 87.3392C216.494 92.1313 209.753 98.2656 208.063 99.1531C206.203 100.651 203.059 103.779 205.358 104.311C222.77 109.137 236.294 97.1564 237.477 96.6571C245.051 93.7286 244.69 97.8773 243.563 100.318L231.899 109.968C234.66 111.022 240.826 113.126 243.563 112.763C251.192 112.763 258.79 108.475 260.649 109.307C262.509 110.139 266.651 113.126 261.651 116.624C236.362 131.4 201.827 130.551 187.176 128.221C189.543 151.516 189.421 149.142 198.381 168.61Z" fill="#B49678"/>
<path d="M163.552 73.8652C222.857 74.6984 255.732 99.6051 264.797 113.324C239.764 89.8627 187.962 83.3304 163.552 81.9973C139.142 80.6643 92.178 89.7182 69.3515 96.8278C105.787 74.0326 144.712 73.8651 163.552 73.8652Z" fill="#9C5C3F"/>
<path d="M15.2271 223.014C15.7114 225.057 16.6587 228.009 17.5281 229.609C17.9594 234.495 12.5952 232.243 11.1585 232.351C6.81827 231.826 5.25243 228.79 4.86768 224.352C6.04087 215.826 18.3273 204.308 19.52 203.311L19.5358 203.297C20.7738 202.262 27.8353 196.353 35.513 199.547C43.2239 202.755 58.4328 208.98 58.1166 215.152C57.8004 221.324 53.8008 224.457 50.9037 223.846C48.586 223.356 47.256 219.655 47.5858 217.739C34.7581 203.317 14.6217 220.46 15.2271 223.014Z" fill="#A36B52" stroke="#A36B52" stroke-width="0.068126"/>
<path fill-rule="evenodd" clip-rule="evenodd" d="M12.571 210.549C7.27465 218.074 5.32537 226.817 14.2904 226.912C14.9733 226.919 15.6693 226.91 16.3758 226.886C15.9118 225.574 15.498 224.153 15.228 223.014C14.6226 220.46 34.759 203.317 47.5866 217.739C47.4624 218.461 47.5737 219.436 47.8846 220.397C48.1146 220.326 48.337 220.256 48.5515 220.188C57.9531 217.228 54.9709 210.06 45.5574 203.98C42.1071 202.289 38.5761 200.82 35.8737 199.697C35.7521 199.646 35.6321 199.596 35.5139 199.547C31.4255 197.847 27.5119 198.727 24.5593 200.078C24.4646 200.177 24.3737 200.276 24.2864 200.374C23.6701 200.596 23.0426 200.882 22.4102 201.223C20.9564 202.11 19.939 202.961 19.5366 203.298L19.5209 203.311C18.9472 203.791 15.8068 206.704 12.571 210.549Z" fill="#BC856D"/>
<path d="M18.3672 207.57C19.2951 208.937 18.2747 211.249 16.0879 212.732C13.9012 214.216 11.482 215.186 10.5541 213.819C9.62612 212.451 10.5407 209.264 12.7275 207.78C14.9142 206.296 17.4392 206.202 18.3672 207.57Z" fill="#E8D9C6"/>
<path d="M46.5077 205.273C46.0286 206.301 46.9717 207.754 48.6142 208.52C50.2566 209.286 52.0004 209.679 52.4795 208.652C52.9586 207.625 51.9915 205.567 50.3491 204.801C48.7066 204.035 46.9867 204.246 46.5077 205.273Z" fill="#E6D2BA"/>
<path d="M47.1968 204.938C46.8421 205.698 47.5405 206.775 48.7567 207.342C49.973 207.909 51.2643 208.2 51.619 207.439C51.9738 206.679 51.2577 205.155 50.0414 204.587C48.8252 204.02 47.5516 204.177 47.1968 204.938Z" fill="#F6ECE0"/>
<path d="M27.5609 207.153C28.3577 208.027 25.7493 209.665 24.6184 209.989C22.2025 210.792 21.651 209.362 22.3399 208.237C22.7138 207.626 24.2779 206.013 25.1383 206.105C26.4931 206.251 26.9261 206.366 27.5609 207.153Z" fill="#E6D2BA"/>
<path d="M27.3425 206.973C27.9635 207.653 25.9309 208.93 25.0497 209.182C23.1672 209.808 22.7374 208.694 23.2742 207.817C23.5656 207.341 24.7844 206.084 25.4548 206.156C26.5105 206.269 26.8479 206.359 27.3425 206.973Z" fill="#F6ECE0"/>
<ellipse cx="28.8719" cy="201.626" rx="1.49877" ry="0.987828" transform="rotate(-11.1032 28.8719 201.626)" fill="#E6D2BA"/>
<ellipse cx="29.0786" cy="201.445" rx="1.19221" ry="0.78345" transform="rotate(-11.1032 29.0786 201.445)" fill="#F6ECE0"/>
<ellipse cx="36.0556" cy="206.048" rx="4.42819" ry="3.03161" transform="rotate(-0.790974 36.0556 206.048)" fill="#E8D9C6"/>
<ellipse cx="36.0556" cy="206.048" rx="4.42819" ry="3.03161" transform="rotate(-0.790974 36.0556 206.048)" fill="#E8D9C6"/>
<ellipse cx="36.0556" cy="206.048" rx="4.42819" ry="3.03161" transform="rotate(-0.790974 36.0556 206.048)" fill="#E6D2BA"/>
<ellipse cx="36.585" cy="205.441" rx="3.3738" ry="2.30975" transform="rotate(-0.790974 36.585 205.441)" fill="#F6ECE0"/>
<path d="M43.0855 203.219C42.8067 203.878 41.6556 204.019 40.5142 203.536C39.3729 203.053 38.6736 202.128 38.9524 201.469C39.6097 200.976 40.3823 200.669 41.5236 201.152C42.6649 201.636 43.0778 202.552 43.0855 203.219Z" fill="#E6D2BA"/>
<path d="M42.9437 202.824C42.7197 203.353 41.7944 203.467 40.8771 203.078C39.9597 202.69 39.3977 201.946 39.6217 201.417C40.15 201.021 40.771 200.774 41.6883 201.162C42.6057 201.551 42.9375 202.287 42.9437 202.824Z" fill="#F6ECE0"/>
<path d="M9.73184 220.926C10.3164 221.338 10.2119 222.493 9.49852 223.507C8.78509 224.52 7.73286 225.008 7.1483 224.597C6.80533 223.85 6.66819 223.03 7.38162 222.016C8.09504 221.003 9.07808 220.793 9.73184 220.926Z" fill="#E6D2BA"/>
<path d="M9.70455 220.844C10.1506 221.158 10.0709 222.04 9.52653 222.813C8.9822 223.586 8.17937 223.959 7.73336 223.645C7.47168 223.075 7.36705 222.449 7.91138 221.676C8.45571 220.903 9.20575 220.743 9.70455 220.844Z" fill="#F6ECE0"/>
<path d="M18.3672 207.57C19.2951 208.937 18.2747 211.249 16.0879 212.732C13.9012 214.216 11.482 215.186 10.5541 213.819C9.62612 212.451 10.5407 209.264 12.7275 207.78C14.9142 206.296 17.4392 206.202 18.3672 207.57Z" fill="#E6D2BA"/>
<path d="M17.7125 207.245C18.4045 208.265 17.6435 209.988 16.0128 211.095C14.382 212.201 12.578 212.925 11.886 211.905C11.194 210.885 11.8761 208.508 13.5068 207.402C15.1375 206.295 17.0205 206.225 17.7125 207.245Z" fill="#F6ECE0"/>
<ellipse cx="54.5172" cy="216.447" rx="1.05595" ry="1.26033" transform="rotate(-11.1032 54.5172 216.447)" fill="#E8D9C6"/>
<ellipse cx="54.6731" cy="216.175" rx="0.851576" ry="1.02189" transform="rotate(-11.1032 54.6731 216.175)" fill="#F6ECE0"/>
<path d="M15.1336 221.209C13.6823 226.763 14.1882 234.445 14.6225 237.592C10.8951 235.301 9.17215 236.339 8.77659 237.144C7.39256 240.035 12.3707 243.258 15.0328 244.507C16.7462 249.741 20.3927 252.4 22.0017 253.076C18.0284 253.653 18.016 257.259 18.6616 258.584C21.0819 261.233 30.0909 256.71 31.6075 254.316L41.3972 252.206C44.6697 255.264 56.5883 254.786 55.8132 251.189C54.8778 247.237 51.5608 247.68 50.0192 248.396C54.0938 244.925 54.4527 239.12 54.0716 236.113C57.2562 233.266 58.2537 227.869 56.4995 227.167C55.0962 226.605 53.1225 228.574 52.7492 229.375C49.9467 220.64 46.1958 215.513 44.6707 214.042C35.4297 214.117 16.5849 215.656 15.1336 221.209Z" fill="#D1BC9F"/>
<path d="M45.278 217.521C43.948 215.378 20.3221 219.012 16.6889 221.674C11.6672 239.732 20.4327 246.299 26.1968 248.492C31.6739 250.576 41.649 248.341 44.7257 245.446C55.226 235.567 49.8889 224.951 45.278 217.521Z" fill="#E8D9C6"/>
<ellipse cx="25.0643" cy="228.928" rx="1.5669" ry="2.24816" transform="rotate(-11.1032 25.0643 228.928)" fill="#564035"/>
<ellipse cx="39.1697" cy="226.16" rx="1.5669" ry="2.24816" transform="rotate(-11.1032 39.1697 226.16)" fill="#564035"/>
<path d="M30.3062 230.859C30.2523 230.585 30.5278 230.36 30.7917 230.453C32.4297 231.031 33.3839 230.811 34.527 229.74C34.7281 229.552 35.0672 229.649 35.1203 229.919C35.1416 230.028 35.1079 230.141 35.0293 230.219C33.4957 231.747 32.4604 231.944 30.508 231.11C30.4034 231.066 30.3281 230.971 30.3062 230.859Z" fill="#70554A"/>
<path d="M49.6573 217.153C34.2843 204.618 17.9052 216.025 11.6373 223.295C14.582 226.272 17.4532 222.802 18.1865 220.76C22.8056 221.798 24.9802 219.589 25.8244 218.289C29.6083 219.741 32.9607 218.451 34.1639 217.625C35.0041 218.793 39.4859 217.622 41.6218 216.89C41.1635 219.861 51.3295 218.421 49.6573 217.153Z" fill="#E8D8C8" stroke="#E8D9C6" stroke-width="0.068126"/>
<path d="M21.202 215.419C24.2531 219.645 34.7455 222.168 38.6239 211.861" stroke="#D1BC9F" stroke-width="0.885639"/>
<path d="M34.2523 217.717C36.519 219.008 43.5992 217.41 43.5671 213.355" stroke="#D1BC9F" stroke-width="0.885639"/>
<path d="M41.4891 216.922C41.9725 219.916 50.7431 218.264 49.7383 217.212" stroke="#D1BC9F" stroke-width="0.885639"/>
<path d="M15.7617 219.193C18.3014 222.583 24.9496 220.376 25.7653 218.341" stroke="#D1BC9F" stroke-width="0.885639"/>
<path d="M11.6265 223.233C14.0571 225.36 17.7999 223.028 18.5159 220.84" stroke="#D1BC9F" stroke-width="0.885639"/>
<path d="M11.1874 223.457C11.1123 223.565 11.139 223.714 11.2472 223.789C11.3553 223.864 11.5039 223.837 11.579 223.729L11.1874 223.457ZM11.579 223.729C15.0744 218.698 21.4653 214.375 28.6264 212.715C35.7808 211.058 43.6819 212.062 50.2236 217.649L50.5334 217.286C43.8553 211.583 35.791 210.566 28.5188 212.251C21.2534 213.935 14.7565 218.32 11.1874 223.457L11.579 223.729Z" fill="#886653"/>
<path d="M26.5868 252.409C26.7281 253.129 23.9174 255.779 22.3114 256.094C20.7053 256.409 19.2888 256.081 19.1475 255.361C19.0063 254.641 19.7079 253.273 21.314 252.958C22.9924 252.489 26.4455 251.689 26.5868 252.409Z" fill="#E8D9C6"/>
<path d="M46.7574 249.95C46.8987 250.67 50.3469 250.738 51.953 250.423C53.559 250.108 55.5049 250.126 55.3636 249.406C55.2223 248.686 53.4269 247.843 51.8208 248.158C50.0899 248.359 46.6161 249.23 46.7574 249.95Z" fill="#E8D9C6"/>
<path d="M11.6807 239.344C11.4538 238.494 9.8418 237.286 9.33869 236.999C8.30583 236.035 13.9213 235.721 16.1092 235.815C16.4617 236.846 17.0034 238.942 16.3506 239.081C15.6978 239.221 15.1409 239.032 14.9441 238.92C15.2593 240.226 15.2509 241.754 15.2073 242.355C14.1264 241.706 11.9077 240.194 11.6807 239.344Z" fill="#E8D9C6" stroke="#E8D9C6" stroke-width="0.068126"/>
<path d="M52.9668 231.887C51.5421 231.278 50.9044 231.401 50.6014 232.039L50.402 230.315L51.4472 229.45C52.1074 229.159 53.6731 228.34 54.686 227.558C55.6988 226.776 56.4896 227.197 56.8036 227.559C57.254 228.262 53.3571 233.345 52.9298 233.29C52.5879 233.246 52.6983 232.877 52.9668 231.887Z" fill="#E8D9C6" stroke="#E8D9C6" stroke-width="0.068126"/>
<ellipse cx="17.7209" cy="233.598" rx="5.38196" ry="4.18975" transform="rotate(-11.1032 17.7209 233.598)" fill="#DAAA93"/>
<ellipse cx="49.6779" cy="227.327" rx="5.38196" ry="4.18975" transform="rotate(-11.1032 49.6779 227.327)" fill="#DAAA93"/>
<path d="M22.7812 216.533C25.5325 217.492 32.433 218.237 37.3547 213.673C35.6097 217.369 30.2519 223.114 22.7812 216.533Z" fill="#D1BC9F"/>
<path d="M23.675 217.848C21.4682 220.104 18.1332 220.157 16.7785 219.81C17.7488 220.92 20.8253 222.304 25.3695 218.958L23.675 217.848Z" fill="#D1BC9F"/>
<path d="M16.82 220.542C15.6163 223.083 12.9345 223.661 11.7503 223.538C12.8199 224.463 15.6622 225.321 18.4749 221.353L16.82 220.542Z" fill="#D1BC9F"/>
<path d="M42.5574 215.774C44.4223 217.877 48.6513 217.693 49.7539 217.244C48.9851 218.431 45.0031 220.04 41.1945 217.014L42.5574 215.774Z" fill="#D1BC9F"/>
<path d="M35.5168 215.872C38.4124 217.126 41.5202 215.915 42.643 215.081C42.1643 216.476 39.8389 218.92 34.3673 217.54L35.5168 215.872Z" fill="#D1BC9F"/>
<path d="M104.994 211.101C103.767 213.578 94.3096 222.883 87.5326 230.774L90.8249 250.293C101.954 246.264 106.461 227.38 107.196 222.132C107.784 217.934 107.418 213.08 107.162 211.178C107.393 209.982 106.997 209.562 106.77 209.501C106.587 209.208 105.975 209.119 104.994 211.101Z" fill="#5A7639" stroke="#607B40" stroke-width="0.108421"/>
<path d="M96.6586 240.613C86.6992 237.656 79.824 247.499 77.6314 252.791L79.4797 256.487C82.6328 253.062 86.2208 252.791 89.3739 253.497C92.5269 254.204 96.6586 256.487 102.095 257.085C112.098 257.912 118.621 257.43 120.633 257.085C116.791 252.827 106.618 243.571 96.6586 240.613Z" fill="#97C65F" stroke="#97C65F" stroke-width="0.108727"/>
<path d="M19.0117 160.197C7.30671 166.794 7.80348 170.293 8.01305 171.722C8.97182 178.251 21.5983 181.73 27.5371 183.367L27.7185 183.417C57.9901 191.762 117.193 180.067 129.301 177.881C141.41 175.695 149.581 172.168 155.032 169.337C158.557 167.507 160.795 164.758 161.064 163.731C161.434 161.38 160.441 157.555 155.032 155.329C147.444 152.866 141.915 148.011 140.098 145.892L117.193 123.837C113.728 120.856 105.346 114.22 99.5343 111.518C79.111 101.503 61.8293 107.345 55.7413 111.518C52.0415 113.869 45.5289 119.907 39.2014 130.922C34.8625 139.863 27.6896 151.057 19.0117 160.197Z" fill="#BD7350" stroke="#BD7350" stroke-width="0.216708"/>
<path d="M25.8934 148.446C30.7242 154.648 55.6327 147.07 71.6115 134.922C87.5903 122.774 97.8834 112.09 93.0526 105.887C88.2218 99.684 62.4715 98.5589 49.5098 112.775C37.4557 121.385 25.8934 141.891 25.8934 148.446Z" fill="#D28F72"/>
<path d="M141.971 161.831C82.8 141.041 40.3592 159.724 26.5352 171.664C37.998 180.494 61.7848 180.962 72.2453 180.092C73.8598 186.835 69.6217 197.484 67.3009 201.966C53.9814 227.752 52.8732 250.627 57.2104 255.245C62.2665 260.628 78.6993 260.816 86.1662 256.602C100.939 248.816 97.1353 201.397 94.6463 176.179C123.223 172.968 138.103 165.276 141.971 161.831Z" fill="#E8D9C6" stroke="#E8D9C6" stroke-width="0.216708"/>
<path d="M72.4158 180.532C70.9789 194.438 70.9789 192.948 65.5391 204.57C102.258 214.457 87.9624 250.313 88.6655 254.063C89.0137 255.92 103.123 236.301 97.4598 201.568C97.4598 195.709 95.8176 182.883 95.2018 177.155C112.527 176.201 130.954 168.944 138.002 165.434C138.652 163.381 138.803 159.633 134.205 161.063C124.269 164.957 120.622 162.818 120.04 161.262C119.835 160.865 119.63 159.732 120.451 158.382C121.272 157.031 120.519 156.031 120.04 155.7C119.459 155.335 118.049 154.925 117.064 156.196C114.683 159.613 108.613 162.123 105.876 162.951C103.276 163.414 97.9525 164.182 97.4598 163.547C96.9672 162.911 97.5283 162.156 97.8704 161.858C99.7863 159.242 102.859 153.753 99.8206 152.72C96.7824 151.687 95.4755 154.276 95.2018 155.7C94.9281 158.216 92.4716 163.865 84.8352 166.328C75.2898 169.407 67.7971 165.434 66.3601 164.54C62.9936 162.553 60.8518 158.878 60.2018 157.289C59.2096 156.958 57.1226 156.653 56.7121 158.084C56.1373 160.944 58.0464 162.719 59.0728 163.249C60.2018 164.143 62.1109 166.01 60.715 166.328C50.1431 169.208 41.932 162.057 41.2135 161.759C36.6153 160.01 36.8342 162.487 37.5185 163.944L44.6006 169.705C42.9242 170.334 39.1607 171.453 37.5185 170.897C33.6182 169.506 28.9994 169.01 27.8704 169.506C26.7413 170.003 24.9965 171.99 26.5361 173.678C41.8909 182.499 63.5204 181.923 72.4158 180.532Z" fill="#C5A687" stroke="#C5A687" stroke-width="0.216708"/>
<path d="M86.2506 149.318C50.917 149.814 31.3306 163.581 25.9297 171.755C40.844 157.777 71.7072 153.885 86.2506 153.091C100.794 152.296 128.775 157.691 142.374 161.927C120.667 148.345 97.4754 149.318 86.2506 149.318Z" fill="#A46C53" stroke="#A46C53" stroke-width="0.216708"/>
<path d="M74.835 204.848C69.4288 222.285 60.0093 255.655 68.2139 258.749" stroke="#C5A687" stroke-opacity="0.5" stroke-width="0.866831" stroke-linecap="round"/>
<path d="M89.2969 203.943C89.2965 219.044 88.0328 255.48 80.9236 258.237" stroke="#C5A687" stroke-opacity="0.5" stroke-width="0.866831" stroke-linecap="round"/>
<defs>
<linearGradient id="paint0_linear_1_3" x1="166.913" y1="80.9746" x2="166.913" y2="260.705" gradientUnits="userSpaceOnUse">
<stop stop-color="#E8D9C6"/>
<stop offset="1" stop-color="#E8D9C6"/>
</linearGradient>
</defs>
</svg>
