<svg width="446" height="244" viewBox="0 0 446 244" fill="none" xmlns="http://www.w3.org/2000/svg">
<path d="M167.491 147.366C157.691 152.889 158.107 155.818 158.283 157.014C159.085 162.481 169.657 165.394 174.629 166.764L174.781 166.806C200.125 173.792 249.691 164.001 259.829 162.171C269.966 160.341 276.807 157.388 281.371 155.018C284.323 153.485 286.196 151.184 286.421 150.324C286.731 148.356 285.899 145.153 281.371 143.29C275.018 141.227 270.389 137.163 268.868 135.389L249.691 116.924C246.79 114.428 239.773 108.872 234.907 106.61C217.808 98.2257 203.339 103.116 198.242 106.61C195.144 108.578 189.692 113.634 184.394 122.856C180.762 130.341 174.756 139.714 167.491 147.366Z" fill="#C16134" stroke="#C16134" stroke-width="0.369228"/>
<path d="M270.431 148.733C220.892 131.327 185.359 146.969 173.785 156.966C183.382 164.358 203.297 164.75 212.055 164.022C213.407 169.667 209.858 178.583 207.915 182.335C197.665 204.116 196.301 223.11 199.933 226.977C204.166 231.484 217.458 231.606 223.71 228.078C236.078 221.559 232.894 181.859 230.81 160.746C254.735 158.058 267.193 151.617 270.431 148.733Z" fill="url(#paint0_linear_906_76)" stroke="#E8D9C6" stroke-width="0.369228"/>
<path d="M214.231 184.75C209.705 199.349 201.818 227.288 208.688 229.877" stroke="#C5A687" stroke-opacity="0.5" stroke-width="1.47691" stroke-linecap="round"/>
<path d="M226.336 183.992C226.336 196.635 225.278 227.14 219.326 229.448" stroke="#C5A687" stroke-opacity="0.5" stroke-width="1.47691" stroke-linecap="round"/>
<path fill-rule="evenodd" clip-rule="evenodd" d="M225.038 126.9C239.854 133.575 260.333 135.792 262.974 129.929C262.997 129.878 263.019 129.826 263.039 129.775L249.692 116.924C246.792 114.428 239.774 108.872 234.908 106.61C221.626 100.097 209.932 101.594 202.983 104.225C200.382 110.092 210.244 120.236 225.038 126.9Z" fill="#DC7747" fill-opacity="0.7"/>
<path d="M243.646 116.121C241.945 119.068 236.745 119.251 232.033 116.531C227.32 113.81 223.352 110.197 225.053 107.25C226.755 104.303 233.482 103.137 238.195 105.858C242.907 108.579 245.348 113.173 243.646 116.121Z" fill="#E6D2BA"/>
<path d="M242.77 113.526C241.333 116.016 237.563 116.53 234.349 114.675C231.135 112.82 228.522 110.195 229.959 107.705C231.397 105.215 236.341 103.803 239.554 105.659C242.768 107.514 244.208 111.037 242.77 113.526Z" fill="#F6ECE0"/>
<path d="M185.957 132.588C187.438 135.154 185.778 138.886 182.248 140.923C178.719 142.961 174.82 144.062 173.338 141.496C171.857 138.93 173.354 133.669 176.884 131.631C180.413 129.594 184.475 130.022 185.957 132.588Z" fill="#E6D2BA"/>
<path d="M185.681 132.191C186.76 134.061 185.55 136.781 182.978 138.266C180.406 139.751 177.564 140.553 176.485 138.683C175.405 136.813 176.496 132.979 179.068 131.494C181.641 130.009 184.601 130.321 185.681 132.191Z" fill="#F6ECE0"/>
<path d="M215.406 121.632C215.458 117.811 211.548 114.659 206.673 114.592C201.798 114.526 197.501 119.549 197.448 123.37C197.396 127.191 201.609 128.363 206.484 128.429C211.359 128.496 215.353 125.453 215.406 121.632Z" fill="#E6D2BA"/>
<path d="M214.835 119.993C214.871 117.368 212.142 115.203 208.74 115.156C205.337 115.109 202.338 118.56 202.302 121.184C202.266 123.809 205.207 124.615 208.609 124.661C212.012 124.708 214.799 122.618 214.835 119.993Z" fill="#F6ECE0"/>
<path d="M256.262 133.228C257.658 131.146 256.637 128.012 253.979 126.23C251.322 124.448 247.16 125.673 245.763 127.755C244.366 129.838 246.264 131.991 248.921 133.773C251.578 135.555 254.865 135.311 256.262 133.228Z" fill="#E6D2BA"/>
<path d="M256.116 131.368C257.092 129.911 256.378 127.721 254.52 126.475C252.662 125.229 249.752 126.085 248.775 127.541C247.798 128.997 249.125 130.502 250.983 131.749C252.841 132.995 255.139 132.824 256.116 131.368Z" fill="#F6ECE0"/>
<path d="M193.317 112.847C192.368 111.579 190.005 111.744 188.037 113.215C186.068 114.686 185.622 117.649 186.571 118.917C187.519 120.185 189.502 119.279 191.47 117.808C193.438 116.336 194.265 114.116 193.317 112.847Z" fill="#E6D2BA"/>
<path d="M193.273 112.833C192.625 111.965 191.01 112.076 189.666 113.081C188.323 114.085 188.02 116.11 188.668 116.977C189.317 117.845 190.671 117.227 192.015 116.222C193.358 115.218 193.922 113.7 193.273 112.833Z" fill="#F6ECE0"/>
<path d="M168.01 147.77C167.156 146.628 165.026 146.776 163.253 148.102C161.48 149.427 161.078 152.096 161.932 153.239C162.786 154.382 164.573 153.565 166.346 152.24C168.12 150.914 168.865 148.913 168.01 147.77Z" fill="#E6D2BA"/>
<path d="M168.093 147.785C167.519 147.016 166.086 147.116 164.893 148.008C163.699 148.899 163.429 150.695 164.004 151.464C164.579 152.233 165.781 151.684 166.974 150.792C168.167 149.9 168.668 148.553 168.093 147.785Z" fill="#F6ECE0"/>
<path d="M267.298 134.981C268.152 133.839 270.282 133.987 272.056 135.312C273.829 136.638 274.231 139.307 273.377 140.45C272.522 141.593 270.736 140.776 268.962 139.45C267.189 138.125 266.444 136.124 267.298 134.981Z" fill="#E6D2BA"/>
<path d="M268.973 134.966C269.611 134.112 271.203 134.222 272.529 135.213C273.854 136.204 274.154 138.199 273.516 139.053C272.878 139.907 271.542 139.297 270.217 138.306C268.891 137.315 268.334 135.82 268.973 134.966Z" fill="#F6ECE0"/>
<path d="M227.736 127.388C228.009 125.988 229.642 125.128 231.382 125.467C233.123 125.807 234.27 127.963 233.997 129.363C233.724 130.764 232.135 130.878 230.394 130.538C228.653 130.199 227.463 128.789 227.736 127.388Z" fill="#E6D2BA"/>
<path d="M228.997 126.97C229.22 125.825 230.554 125.122 231.977 125.4C233.4 125.677 234.337 127.44 234.114 128.584C233.891 129.729 232.592 129.822 231.169 129.545C229.746 129.267 228.774 128.115 228.997 126.97Z" fill="#F6ECE0"/>
<path d="M206.411 184.618C193.556 215.754 197.338 226.33 201.498 228.073C202.932 229.069 203.014 228.986 202.086 228.073C197.701 223.342 201.16 207.324 205.545 197.53C209.053 189.695 225.314 184.095 232.679 182.297C232.679 177.145 231.77 166.378 231.264 161.592C245.498 160.795 265.161 153.767 270.513 148.81C268.789 147.598 267.085 146.951 263.307 148.146C255.144 151.399 252.148 149.612 251.67 148.312C251.502 147.98 251.333 147.034 252.008 145.905C252.682 144.776 252.401 142.341 252.008 142.064C251.53 141.76 250.034 143.016 249.225 144.079C247.269 146.934 242.282 149.031 240.034 149.723C237.897 150.11 233.524 150.752 233.119 150.221C232.714 149.69 233.175 149.059 233.456 148.81C235.03 146.624 237.554 142.037 235.058 141.174C232.562 140.311 231.736 139.252 231.264 143.664C231.039 145.766 229.021 150.486 222.747 152.545C214.905 155.118 208.749 151.798 207.569 151.051C204.803 149.391 202.465 144.844 201.931 143.516C201.116 143.239 198.186 142.884 197.849 144.079C197.377 146.469 200.739 149.529 201.582 149.972C202.509 150.719 204.078 152.279 202.931 152.545C194.246 154.952 187.5 148.976 186.91 148.727C183.132 147.266 183.312 149.335 183.874 150.553L189.692 155.367C188.315 155.892 185.239 156.942 183.874 156.76C180.068 156.76 176.279 154.622 175.351 155.037C174.423 155.452 172.357 156.942 174.851 158.687C187.466 166.057 204.692 165.633 212 164.471C210.82 176.091 210.881 174.907 206.411 184.618Z" fill="#B49678"/>
<path d="M223.788 137.355C194.205 137.771 177.807 150.195 173.285 157.038C185.772 145.335 211.611 142.077 223.788 141.412C235.964 140.747 259.39 145.263 270.776 148.81C252.602 137.439 233.185 137.355 223.788 137.355Z" fill="#9C5C3F"/>
<path d="M246.23 170.299C250.204 201.104 227.512 231.337 218.803 237.033L220.051 216.753C221.874 209.268 225.031 202.956 226.405 200.763C227.781 198.071 231.431 192.015 234.834 189.112C238.237 186.209 243.85 175.36 246.23 170.299Z" fill="#5A7639" stroke="#5A7639" stroke-width="0.0994596"/>
<path d="M234.496 207.785C223.102 208.049 219.237 220.64 218.729 226.903L217.973 237.442C220.113 232.805 227.697 224.012 231.227 223.688C234.757 223.365 239.839 224.358 245.716 223.153C256.438 220.649 263.087 217.95 265.071 216.913C259.626 213.76 245.89 207.52 234.496 207.785Z" fill="#97C65F" stroke="#97C65F" stroke-width="0.11927"/>
<path d="M175.234 196.645C173.603 198.956 166.475 201.94 160.711 210.891L150.754 238.276C159.051 218.774 178.416 212.707 180.171 207.577C181.619 203.345 182.07 198.537 181.543 196.645C181.61 195.401 179.034 189.221 178.795 189.191C178.568 188.921 176.894 194.293 175.234 196.645Z" fill="#5A7639" fill-opacity="0.5" stroke="#607B40" stroke-opacity="0.5" stroke-width="0.110963"/>
<path d="M157.995 222.474L155.776 224.86L153.242 227.899L158.993 223.362C164.897 216.26 175.508 219.515 180.076 222.03L211.202 235.956C207.355 228.484 198.574 212.831 194.224 209.99C189.874 207.15 183.017 206.81 180.132 206.994C170.767 207.438 161.472 217.499 157.995 222.474Z" fill="#678D3A" stroke="#678D3A" stroke-width="0.110963"/>
<path d="M170.715 59.5045C172.595 56.7005 171.219 52.4826 167.642 50.0835C164.064 47.6843 158.461 49.3325 156.581 52.1364C154.7 54.9404 157.255 57.8384 160.832 60.2376C164.41 62.6367 168.834 62.3085 170.715 59.5045Z" fill="#F6ECE0"/>
<path d="M-5.93019 105.158C-10.8554 133.345 13.1706 142.159 25.7992 143.043L151.77 145.127C154.327 146.137 163.439 145.392 179.427 134.33C201.552 118.039 196.286 89.9716 190.887 77.9744L151.77 31.5642C147.034 23.3556 131.046 6.10491 104.981 2.77096C69.9742 -1.77535 40.2591 15.9679 29.7773 25.4078C19.927 40.2464 -1.00503 76.9705 -5.93019 105.158Z" fill="#C16134" stroke="#BD7350" stroke-width="0.757718" stroke-linecap="round"/>
<path d="M8.39734 98.5164C-14.6373 124.961 10.4811 138.96 25.9196 142.653L32.8338 131.193C33.844 126.268 36.8875 115.906 40.9792 113.86C73.9899 95.95 137.588 103.157 137.872 113.86C138.1 122.422 146.788 137.322 151.208 144.11L163.142 140.606L176.496 132.555C181.074 129.587 191.216 114.05 181.441 92.4546C171.667 70.8597 135.757 72.4067 119.024 75.8795L55.5653 85.0669C43.7259 85.2247 17.7173 88.1356 8.39734 98.5164Z" fill="url(#paint1_linear_906_76)" stroke="#BD7350" stroke-width="0.757718" stroke-linecap="round"/>
<path d="M107.6 32.8804C97.1312 24.5144 95.5177 6.70894 80.6289 2.59084C99.2685 0.889594 119.744 4.8566 129.591 10.0589C151.583 21.6767 164.031 47.8181 191.832 78.522C195.481 94.4698 200.545 112.132 181.573 132.879C190.065 112.962 189.589 90.6523 181.573 82.4017C175.386 76.0345 157.512 60.8231 149.645 52.8839C142.726 45.9018 114.157 38.1205 107.6 32.8804Z" fill="#D28F72" stroke="#D28F72" stroke-width="0.757718" stroke-linecap="round"/>
<path d="M140.251 111.58C104.281 96.3659 57.47 103.805 37.8911 114.206L30.2316 134.468C28.8383 138.106 22.2609 149.121 15.4231 171.344C3.01984 214.617 43.5823 235.607 65.414 240.694C84.5622 243.335 127.55 244.919 146.314 230.13C180.204 203.72 161.589 157.749 156.352 150.51C151.338 143.581 143.001 123.155 140.251 111.58Z" fill="#E8D9C6" stroke="#E8D9C6" stroke-width="0.757718" stroke-linecap="round"/>
<path d="M148.931 157.363C144.706 150.526 139.897 127.055 138.369 115.172C160.789 168.456 155.396 147.717 162.084 163.431C173.803 190.965 160.557 212.797 152.818 221.362C163.679 177.843 153.691 165.065 148.931 157.363Z" fill="#FDF6F1" fill-opacity="0.7" stroke="#E8D9C6" stroke-width="0.757718" stroke-linecap="round"/>
<path d="M76.2329 146.233C77.9858 158.242 87.9258 167.977 100.963 164.83C115.117 163.434 121.004 151.962 119.251 139.954C117.498 127.945 108.265 117.149 94.4646 120.312C79.8779 123.655 74.7691 136.205 76.2329 146.233Z" fill="#C5A687"/>
<path d="M83.7857 143.404C84.8606 154.494 91.7637 163.333 100.809 163.044C109.853 162.754 116.897 153.492 116.54 142.355C116.184 131.219 107.521 122.46 98.4759 122.749C89.431 123.039 82.229 127.344 83.7857 143.404Z" fill="#E4FAEB"/>
<path d="M106.744 181.017C73.6679 182.02 71.8945 220.598 75.5295 241.513C106.744 245.017 134.152 237.347 139.273 233.556C139.273 225.887 148.089 179.764 106.744 181.017Z" fill="#C5A687" stroke="#C5A687" stroke-width="1.32601" stroke-linecap="round"/>
<path d="M107.071 181.367C81.3087 185.788 79.9313 221.372 83.811 242.233C97.1583 244.534 120.667 240.628 130.593 238.135C133.309 217.396 131.205 177.226 107.071 181.367Z" fill="#E8D9C6" stroke="#E8D9C6" stroke-width="1.32601" stroke-linecap="round"/>
<path d="M118.252 208.705C118.176 209.462 119.357 209.715 119.956 209.747H120.335C120.209 210.631 119.919 212.645 119.767 213.63C119.615 214.615 120.083 215.177 120.335 215.335C120.967 215.808 122.514 216.604 123.65 215.998C125.071 215.24 124.313 213.062 124.313 212.588V209.747C124.882 209.589 126.018 209.084 126.018 208.326C125.564 206.659 123.619 205.99 122.703 205.863C119.824 206.621 118.536 208.073 118.252 208.705Z" fill="#C5A687" stroke="#C5A687" stroke-width="0.568288" stroke-linecap="round"/>
<path d="M117.53 145.205L83.3675 143.3" stroke="#C5A687" stroke-width="1.32601" stroke-linecap="round"/>
<path d="M27.5179 138.688L34.8419 118.047L51.1313 111.844L42.139 141.53C29.7561 183.031 49.1875 235.438 51.1314 236.198C-3.84146 215.403 9.65568 160.399 27.5179 138.688Z" fill="#B49678"/>
<path d="M137.542 105.286C146.386 113.636 166.512 114.079 171.766 112.697C168.09 116.922 149.118 121.864 131.039 109.551L137.542 105.286Z" fill="#C5A687"/>
<path d="M113.382 99.7072C127.31 106.659 144.402 103.181 150.909 100.231C147.263 105.933 133.185 115.111 106.038 106.21L113.382 99.7072Z" fill="url(#paint2_linear_906_76)"/>
<path d="M175.234 83.0869C174.94 82.6848 174.619 82.28 174.272 81.8741C167.368 75.8614 130.737 71.6487 122.952 74.3734C114.653 77.2779 73.5749 83.0869 52.4132 84.7468C30.0409 86.5016 8.43004 95.1201 1.37622 106.323C-4.26684 115.286 -0.975054 126.379 1.37622 130.805C2.62103 131.911 3.20193 132.63 -4.43287 126.655C-13.9764 119.186 -1.6894 89.6937 1.37622 80.1825C17.5586 29.976 32.9116 63.1701 58.6376 67.7369C83.9709 72.2339 109.26 71.8845 131.667 67.7352C148.765 64.5689 167.095 73.4825 174.272 81.8741C174.728 82.271 175.054 82.6757 175.234 83.0869Z" fill="#9C5C3F"/>
<path d="M134.26 30.1476C130.984 35.8221 120.973 36.1757 111.899 30.9372C102.826 25.6987 95.1846 18.7431 98.4608 13.0685C101.737 7.39397 114.69 5.14936 123.764 10.3878C132.837 15.6263 137.536 24.473 134.26 30.1476Z" fill="#E6D2BA"/>
<path d="M132.57 25.1511C129.803 29.9448 122.543 30.9349 116.356 27.3626C110.168 23.7902 105.136 18.7362 107.904 13.9425C110.672 9.14873 120.191 6.43061 126.378 10.003C132.566 13.5753 135.338 20.3574 132.57 25.1511Z" fill="#F6ECE0"/>
<path d="M23.1808 61.8519C26.0332 66.7924 22.8364 73.9781 16.0407 77.9016C9.24495 81.8251 1.73755 83.9448 -1.11483 79.0043C-3.9672 74.0639 -1.08442 63.9341 5.71133 60.0106C12.5071 56.0871 20.3284 56.9115 23.1808 61.8519Z" fill="#E6D2BA"/>
<path d="M22.6517 61.0905C24.7304 64.691 22.4007 69.9278 17.4481 72.7872C12.4955 75.6466 7.02425 77.1914 4.9455 73.5908C2.86674 69.9903 4.96766 62.608 9.92027 59.7486C14.8729 56.8892 20.5729 57.49 22.6517 61.0905Z" fill="#F6ECE0"/>
<path d="M79.8826 40.7536C79.9834 33.3966 72.4559 27.3284 63.0695 27.1998C53.6831 27.0713 45.4087 36.7431 45.3079 44.1C45.2071 51.4569 53.3181 53.7131 62.7045 53.8417C72.0909 53.9703 79.7818 48.1105 79.8826 40.7536Z" fill="#E6D2BA"/>
<path d="M78.7813 37.6091C78.8506 32.5553 73.5958 28.3857 67.0443 28.2959C60.4929 28.2062 54.7192 34.8489 54.65 39.9027C54.5807 44.9565 60.2422 46.5075 66.7936 46.5973C73.345 46.687 78.7121 42.6629 78.7813 37.6091Z" fill="#F6ECE0"/>
<path d="M158.549 63.089C161.238 59.0787 159.271 53.0462 154.154 49.6149C149.038 46.1837 141.024 48.5409 138.335 52.5512C135.645 56.5614 139.299 60.7062 144.415 64.1375C149.532 67.5687 155.86 67.0993 158.549 63.089Z" fill="#E6D2BA"/>
<path d="M37.3521 23.8478C35.5267 21.406 30.9751 21.7229 27.1859 24.5556C23.3966 27.3883 22.5378 33.0921 24.3632 35.5339C26.1886 37.9757 30.0069 36.2308 33.7962 33.3981C37.5855 30.5654 39.1775 26.2896 37.3521 23.8478Z" fill="#E6D2BA"/>
<path d="M37.267 23.8203C36.0184 22.1501 32.9092 22.3638 30.3223 24.2976C27.7355 26.2315 27.1525 30.1297 28.4011 31.7999C29.6497 33.4701 32.2571 32.2799 34.8439 30.3461C37.4308 28.4122 38.5156 25.4906 37.267 23.8203Z" fill="#F6ECE0"/>
<path d="M179.798 66.4608C181.442 64.2607 185.544 64.5463 188.958 67.0986C192.372 69.651 193.146 74.7904 191.501 76.9905C189.856 79.1907 186.416 77.6185 183.002 75.0661C179.587 72.5137 178.153 68.661 179.798 66.4608Z" fill="#E6D2BA"/>
<path d="M183.024 66.4279C184.253 64.7835 187.318 64.9969 189.87 66.9046C192.422 68.8123 193.001 72.6536 191.771 74.2981C190.542 75.9425 187.97 74.7674 185.419 72.8597C182.867 70.952 181.794 68.0724 183.024 66.4279Z" fill="#F6ECE0"/>
<path d="M103.624 51.8402C104.149 49.144 107.293 47.4879 110.644 48.1412C113.996 48.7945 116.204 52.9466 115.679 55.6428C115.153 58.339 112.093 58.5584 108.741 57.9051C105.39 57.2518 103.098 54.5364 103.624 51.8402Z" fill="#E6D2BA"/>
<path d="M106.049 51.038C106.479 48.8342 109.048 47.4806 111.788 48.0146C114.527 48.5486 116.332 51.9423 115.902 54.146C115.473 56.3498 112.972 56.5291 110.232 55.9951C107.493 55.4611 105.62 53.2417 106.049 51.038Z" fill="#F6ECE0"/>
<path d="M8.01559 99.2695C-3.27064 126.489 17.8357 133.018 29.5922 132.879C28.7624 135.507 26.3557 141.427 25.0279 142.423C-14.4739 131.8 -2.77272 109.228 8.01559 99.2695Z" fill="#B49678"/>
<path d="M152.827 142.841C150.503 140.185 143.56 122.924 140.379 114.625C147.294 122.509 166.188 135.289 183.117 121.679C180.213 135.372 155.732 146.16 152.827 142.841Z" fill="#C5A687"/>
<path d="M99.3008 122.922V163.171" stroke="#C5A687" stroke-width="1.65974" stroke-linecap="round"/>
<path d="M129.177 109.232C134.157 154.458 166.107 190.56 139.136 233.711" stroke="#C5A687" stroke-opacity="0.2" stroke-width="2.48961" stroke-linecap="round"/>
<path d="M110.088 105.497C115.068 150.724 132.911 161.929 130.005 194.294" stroke="#C5A687" stroke-opacity="0.2" stroke-width="2.48961" stroke-linecap="round"/>
<path d="M58.2227 107.984C50.3543 140.7 35.9949 229.089 67.1552 241.542" stroke="#C5A687" stroke-opacity="0.4" stroke-width="2.48961" stroke-linecap="round"/>
<path d="M58.2227 107.984C50.3543 140.7 35.9949 229.089 67.1552 241.542" stroke="#C5A687" stroke-opacity="0.2" stroke-width="2.48961" stroke-linecap="round"/>
<path d="M74.4043 104.664C81.0433 139.104 44.114 217.941 83.7518 241.541" stroke="#C5A687" stroke-opacity="0.2" stroke-width="2.48961" stroke-linecap="round"/>
<path d="M39.5498 113.794C46.1888 148.234 -0.284719 178.523 39.5498 228.731" stroke="#A88A6C" stroke-opacity="0.5" stroke-width="2.48961" stroke-linecap="round"/>
<ellipse cx="11.1763" cy="12.0288" rx="11.1763" ry="12.0288" transform="matrix(-1 0 0 1 64.6387 175.18)" fill="#C5A687"/>
<path d="M45.1351 187.724C45.1351 193.028 48.7094 198.237 52.6176 198.237C60.4789 198.237 62.8135 193.596 63.4151 188.292C64.0166 182.989 59.7983 177.042 54.6066 176.453C49.4148 175.864 45.1351 179.659 45.1351 187.724Z" fill="#E4FAEB"/>
<path d="M51.2559 90.6484C77.0858 104.758 106.345 106.231 133.864 83.955C121.719 101.56 88.1938 127.547 51.2559 90.6484Z" fill="#B49678"/>
<path d="M66.4697 100.466C51.6426 108.694 32.1704 106.914 24.5841 104.627C29.2645 109.913 45.9741 117.625 75.3693 106.186L66.4697 100.466Z" fill="#B49678"/>
<path d="M43.7496 108.208C33.1054 118.388 16.5097 120.578 9.7129 120.016C14.712 123.804 30.2389 127.418 52.3545 111.565L43.7496 108.208Z" fill="url(#paint3_linear_906_76)"/>
<path d="M16.7192 171.046C15.0525 208.257 36.5917 229.432 47.5696 235.368L49.0946 223.336C49.0946 214.623 45.3192 207.952 43.4585 205.468C41.5442 202.389 36.5767 195.517 32.2195 192.389C27.8624 189.26 20.0705 176.857 16.7192 171.046Z" fill="#5A7639" stroke="#5A7639" stroke-width="0.11927"/>
<path d="M24.3558 218.9C35.2809 215.656 42.8228 226.454 45.2281 232.259L49.0937 238.688C45.6348 234.931 35.8057 232.259 32.3469 233.034C28.888 233.809 24.3558 236.314 18.3922 236.97C7.41937 237.876 0.263143 237.347 -1.94336 236.97C2.27086 232.298 13.4306 222.144 24.3558 218.9Z" fill="#678D3A" stroke="#678D3A" stroke-width="0.11927"/>
<path d="M356.301 212.548C356.882 217.619 367.549 217.016 372.81 216.081C381.493 216.081 382.352 216.708 387.602 214.595C392.851 212.482 384.795 192.506 372.182 194.553C359.57 196.6 355.574 206.208 356.301 212.548Z" fill="#A5663D" stroke="#A5663D" stroke-width="0.268668"/>
<path d="M364.52 220.046C364.89 219.253 365.048 217.492 365.081 216.711C368.304 215.522 376.417 215.797 380.071 216.084C381.513 219.011 383.531 225.421 380.071 227.64C375.746 230.413 368.911 229.588 365.775 227.64C362.638 225.692 364.058 221.036 364.52 220.046Z" fill="#D1BC9F" stroke="#D1BC9F" stroke-width="0.268668"/>
<ellipse cx="382.267" cy="201.571" rx="3.36779" ry="7.43634" transform="rotate(-36.7295 382.267 201.571)" fill="#BC856D"/>
<path fill-rule="evenodd" clip-rule="evenodd" d="M380.543 217.227C376.158 217.329 367.326 217.717 367.081 218.451C366.776 219.365 366.168 226.656 367.676 228.526C366.956 228.272 366.313 227.972 365.778 227.64C362.642 225.692 364.061 221.036 364.524 220.046C364.894 219.253 365.052 217.492 365.085 216.711C368.308 215.522 376.421 215.797 380.075 216.084C380.233 216.404 380.398 216.767 380.562 217.161C380.556 217.183 380.55 217.205 380.543 217.227Z" fill="#BFA27A"/>
<path fill-rule="evenodd" clip-rule="evenodd" d="M362.179 216.141C359.189 215.682 356.828 214.549 356.563 212.237C355.937 206.776 358.815 198.889 367.687 195.5C367.485 195.808 367.076 196.21 366.421 196.716C363.278 199.145 363.039 203.428 363.832 207.425C364.442 210.505 364.04 214.078 362.179 216.141Z" fill="#905A37"/>
<g opacity="0.5">
<path d="M407.972 192.249C408.185 194.109 412.098 193.888 414.027 193.545C417.213 193.545 417.528 193.775 419.454 193C421.379 192.224 418.424 184.897 413.797 185.648C409.171 186.399 407.705 189.923 407.972 192.249Z" fill="#A5663D" stroke="#A5663D" stroke-width="0.268668"/>
<path d="M410.986 195.001C411.122 194.711 411.18 194.065 411.192 193.778C412.374 193.342 415.35 193.443 416.691 193.548C417.219 194.622 417.96 196.973 416.691 197.787C415.104 198.804 412.597 198.502 411.446 197.787C410.296 197.072 410.816 195.365 410.986 195.001Z" fill="#D1BC9F" stroke="#D1BC9F" stroke-width="0.268668"/>
<ellipse cx="417.497" cy="188.221" rx="1.23542" ry="2.7279" transform="rotate(-36.7295 417.497 188.221)" fill="#BC856D"/>
<path fill-rule="evenodd" clip-rule="evenodd" d="M416.864 193.966C415.256 194.003 412.016 194.145 411.926 194.415C411.814 194.75 411.59 197.43 412.146 198.113C411.881 198.019 411.645 197.909 411.448 197.787C410.297 197.072 410.818 195.365 410.988 195.001C411.124 194.711 411.182 194.065 411.194 193.778C412.376 193.342 415.352 193.443 416.693 193.548C416.75 193.665 416.811 193.798 416.871 193.943C416.869 193.95 416.867 193.958 416.864 193.966Z" fill="#BFA27A"/>
<path fill-rule="evenodd" clip-rule="evenodd" d="M412.149 185.996C409.24 187.107 408.087 189.536 408.039 191.47C408.146 191.287 408.257 191.094 408.371 190.895C409.238 189.386 410.324 187.494 411.684 186.443C411.925 186.257 412.075 186.109 412.149 185.996Z" fill="#905A37"/>
</g>
<path d="M266.595 201.568C267.353 208.177 281.254 207.391 288.11 206.172C299.426 206.172 300.545 206.99 307.386 204.236C314.228 201.482 303.729 175.45 287.292 178.117C270.855 180.785 265.649 193.306 266.595 201.568Z" fill="#D1BC9F" stroke="#D1BC9F" stroke-width="0.398031"/>
<path d="M277.309 211.334C277.791 210.301 277.998 208.006 278.041 206.988C282.24 205.439 292.814 205.797 297.576 206.17C299.455 209.986 302.085 218.339 297.576 221.23C291.939 224.845 283.032 223.769 278.944 221.23C274.857 218.692 276.707 212.625 277.309 211.334Z" fill="#E8D9C6" stroke="#E8D9C6" stroke-width="0.398031"/>
<ellipse cx="300.434" cy="187.26" rx="4.38892" ry="9.69109" transform="rotate(-36.7295 300.434 187.26)" fill="#E8D9C6"/>
<path fill-rule="evenodd" clip-rule="evenodd" d="M290.569 177.607C277.261 181.056 266.662 201.773 283.02 203.651C289.413 204.386 291.676 205.141 291.369 205.821C290.282 205.805 289.077 205.793 287.726 205.793C280.87 207.012 266.969 207.798 266.212 201.189C265.265 192.928 270.471 180.406 286.908 177.738C288.165 177.534 289.387 177.498 290.569 177.607Z" fill="#C2A782"/>
<path fill-rule="evenodd" clip-rule="evenodd" d="M298.063 207.381C292.289 207.516 280.66 208.031 280.338 209.006C279.936 210.221 279.135 219.909 281.122 222.389C280.175 222.051 279.328 221.653 278.623 221.211C274.493 218.624 276.363 212.441 276.971 211.126C277.458 210.074 277.667 207.735 277.711 206.697C281.954 205.119 292.637 205.484 297.448 205.864C297.655 206.289 297.872 206.77 298.088 207.293C298.08 207.322 298.072 207.351 298.063 207.381Z" fill="#D0B898"/>
<path d="M316.44 198.068C316.803 201.237 323.469 200.86 326.757 200.276C332.184 200.276 332.72 200.668 336.001 199.347C339.282 198.026 334.247 185.543 326.365 186.822C318.483 188.102 315.986 194.106 316.44 198.068Z" fill="#D1BC9F" stroke="#D1BC9F" stroke-width="0.398031"/>
<path d="M321.579 202.752C321.81 202.257 321.909 201.156 321.93 200.668C323.943 199.925 329.014 200.097 331.297 200.276C332.198 202.105 333.46 206.111 331.297 207.498C328.594 209.231 324.323 208.715 322.363 207.498C320.403 206.28 321.29 203.371 321.579 202.752Z" fill="#E8D9C6" stroke="#E8D9C6" stroke-width="0.398031"/>
<ellipse cx="332.665" cy="191.208" rx="2.10464" ry="4.64722" transform="rotate(-36.7295 332.665 191.208)" fill="#E8D9C6"/>
<path fill-rule="evenodd" clip-rule="evenodd" d="M327.934 186.579C321.553 188.234 316.472 198.167 324.315 199.068C327.383 199.42 328.467 199.783 328.319 200.109C327.798 200.101 327.22 200.096 326.573 200.096C323.286 200.68 316.619 201.057 316.256 197.888C315.802 193.926 318.299 187.922 326.181 186.643C326.783 186.545 327.368 186.528 327.934 186.579Z" fill="#C2A782"/>
<path fill-rule="evenodd" clip-rule="evenodd" d="M331.529 200.863C328.76 200.928 323.184 201.175 323.029 201.643C322.837 202.225 322.453 206.864 323.403 208.058C322.95 207.896 322.545 207.705 322.208 207.494C320.227 206.253 321.124 203.288 321.415 202.658C321.649 202.153 321.749 201.031 321.77 200.534C323.805 199.777 328.927 199.952 331.235 200.134C331.334 200.338 331.438 200.569 331.542 200.82C331.538 200.834 331.533 200.849 331.529 200.863Z" fill="#D0B898"/>
<g opacity="0.7">
<path d="M424.323 198.068C424.686 201.237 431.352 200.86 434.64 200.276C440.066 200.276 440.603 200.668 443.884 199.347C447.164 198.026 442.13 185.543 434.248 186.822C426.366 188.102 423.869 194.106 424.323 198.068Z" fill="#D1BC9F" stroke="#D1BC9F" stroke-width="0.398031"/>
<path d="M429.462 202.752C429.693 202.257 429.792 201.156 429.812 200.668C431.826 199.925 436.897 200.097 439.18 200.276C440.081 202.105 441.342 206.111 439.18 207.498C436.477 209.231 432.206 208.715 430.246 207.498C428.285 206.28 429.173 203.371 429.462 202.752Z" fill="#E8D9C6" stroke="#E8D9C6" stroke-width="0.398031"/>
<ellipse cx="440.548" cy="191.208" rx="2.10464" ry="4.64722" transform="rotate(-36.7295 440.548 191.208)" fill="#E8D9C6"/>
<path fill-rule="evenodd" clip-rule="evenodd" d="M435.817 186.579C429.436 188.234 424.355 198.167 432.198 199.068C435.266 199.42 436.35 199.783 436.202 200.109C435.681 200.101 435.103 200.096 434.456 200.096C431.168 200.68 424.502 201.057 424.139 197.888C423.685 193.926 426.182 187.922 434.064 186.643C434.666 186.545 435.251 186.528 435.817 186.579Z" fill="#C2A782"/>
<path fill-rule="evenodd" clip-rule="evenodd" d="M439.412 200.863C436.643 200.928 431.067 201.175 430.912 201.643C430.72 202.225 430.336 206.864 431.286 208.058C430.833 207.896 430.428 207.705 430.09 207.494C428.11 206.253 429.006 203.288 429.298 202.658C429.532 202.153 429.632 201.031 429.653 200.534C431.687 199.777 436.81 199.952 439.117 200.134C439.217 200.338 439.321 200.569 439.424 200.82C439.42 200.834 439.416 200.849 439.412 200.863Z" fill="#D0B898"/>
</g>
<defs>
<linearGradient id="paint0_linear_906_76" x1="222.108" y1="140.906" x2="222.108" y2="230.558" gradientUnits="userSpaceOnUse">
<stop stop-color="#E8D9C6"/>
<stop offset="1" stop-color="#E8D9C6"/>
</linearGradient>
<linearGradient id="paint1_linear_906_76" x1="17.1438" y1="120.016" x2="115.898" y2="73.9584" gradientUnits="userSpaceOnUse">
<stop stop-color="#BFA182"/>
<stop offset="1" stop-color="#E8D9C6"/>
</linearGradient>
<linearGradient id="paint2_linear_906_76" x1="128.074" y1="98.4721" x2="129.036" y2="109.917" gradientUnits="userSpaceOnUse">
<stop stop-color="#B49678"/>
<stop offset="1" stop-color="#C5A687"/>
</linearGradient>
<linearGradient id="paint3_linear_906_76" x1="27.932" y1="121.261" x2="37.8905" y2="116.282" gradientUnits="userSpaceOnUse">
<stop stop-color="#A98868"/>
<stop offset="1" stop-color="#B49678"/>
</linearGradient>
</defs>
</svg>
