<svg width="1440" height="3499" viewBox="0 0 1440 3499" fill="none" xmlns="http://www.w3.org/2000/svg">
<path d="M1122 244C597.99 125.265 1165.5 66.3308 1746.68 75.9973V93.2761V138.997C1567.48 105.608 1201.77 117.72 1129.5 149.499C1045.26 186.542 2031 252.499 1813.5 623.846C1531.5 894.346 535.5 1021 317.5 1081.5C99.5 1142 -18.4834 1327.87 207 1438.5C367 1517 1662.54 1673.54 1727.5 2116.5L1536.27 2888.35H-2329.11C-2317.15 2625.55 -1735.31 1688.11 -1563.75 1430.29C-1216.38 908.239 -765.815 867.008 -276.861 802.775C224.904 736.859 748.856 689.729 1153.23 623.846C1318 597.001 1703.32 375.722 1122 244Z" fill="url(#paint0_linear_1701_346)"/>
<path d="M1767 139.498C1613.96 133.765 1453.82 128.814 1315.61 127.472C1208.35 137.186 1118.45 151.611 1088 165C1003.76 202.043 2031 242.496 1813.5 613.844C1531.5 884.344 535.5 1011 317.5 1071.5C99.5 1132 -17.4834 1319.87 208 1430.5C368 1509 1713 1653.5 1727.5 2106.5L1536.27 2878.34H-2329.11C-2317.15 2615.55 -1735.31 1678.11 -1563.75 1420.29C-1216.38 898.237 -765.815 857.005 -276.861 792.772C224.904 726.856 771.629 679.726 1176 613.844C1340.77 586.998 1719 359.497 1137.68 227.775C763.983 143.1 972.014 124.135 1315.61 127.472C1462.92 114.129 1642.98 109.673 1746.68 128.995V83.2734L1767 139.498Z" fill="url(#paint1_linear_1701_346)"/>
<g filter="url(#filter0_i_1701_346)">
<path d="M1119.79 253.902C595.775 135.166 1147.61 82.4553 1728.79 92.1218V109.401V155.122C1549.59 121.733 1183.88 133.844 1111.61 165.623C1027.36 202.666 2013.11 268.623 1795.61 639.971C1513.61 910.471 517.609 1037.12 299.609 1097.62C81.6094 1158.12 -36.374 1344 189.109 1454.62C349.109 1533.12 1644.65 1689.67 1709.61 2132.62L1518.38 2904.47H-2347C-2335.04 2641.67 -1753.2 1704.24 -1581.64 1446.42C-1234.27 924.364 -783.706 883.132 -294.752 818.899C207.014 752.983 730.966 705.854 1135.34 639.971C1300.11 613.125 1701.11 385.624 1119.79 253.902Z" fill="#57C0AC"/>
</g>
<path d="M390.779 1023.33L400.118 1021.84L246.324 1077.21L152.824 1125.71L96.8242 1170.21L57.3243 1217.71L41.8243 1249.21L35.8242 1283.21L35.8243 1314.21L45.3242 1340.21C-4.17581 1335.21 -258.882 1367.69 126.162 1522.73C242.899 1569.73 775.309 1683.44 553.569 1861.12C498.529 1989.63 -171.859 2059.38 -271.65 2136.48C-371.441 2213.58 -365.262 2293.79 -271.65 2340.24C203.36 2575.94 1267.17 2187.13 1349.91 3281.75L-1751.15 3173.81C-1699.38 2052.56 -1684.09 2579.53 -1602.3 2459.19C-1258.68 1953.64 -803.069 1827.04 -584.616 1817.06C-356.446 1806.64 83.4631 1771.56 232.543 1705.82C412.356 1626.52 -309.718 1557.13 -496.119 1400.72C-732.373 1202.49 -24.8211 1089.62 390.779 1023.33Z" fill="url(#paint2_linear_1701_346)" fill-opacity="0.3"/>
<path d="M988.316 669.293L875.284 696.201C823.135 715.407 735.011 727.658 785.019 786.802C835.028 845.945 1130.71 859.188 1233.27 849.331L1388.18 800.897C1322.95 735.527 1184.38 762.507 1006.64 747.722C864.438 735.893 929.066 686.154 988.316 669.293Z" fill="#78D2C1" fill-opacity="0.5"/>
<path d="M649.396 801.11C627.929 830.151 683.292 874.903 900.214 874.903H1111.18C1036.38 903.031 667.918 996.622 649.395 927.168C623.614 830.494 552.08 833.453 563.375 770.319C567.708 746.101 696.273 717.392 738.908 703.082L748.799 699.293C719.53 722.67 609.495 764.4 649.396 801.11Z" fill="#78D2C1" fill-opacity="0.3"/>
<path d="M1144.04 708.028C1064.23 714.885 1085.93 678.361 1110.21 664.319C1101.82 665.7 1055.87 674.467 1031.03 683.474C972.534 704.685 1051.06 728.445 1077.73 728.894C1110.87 729.453 1142.78 719.202 1159.86 716.329C1181.8 710.364 1285.5 722.035 1344.35 728.894C1330.33 725.926 1228.36 710.787 1215.8 708.028C1194.71 703.391 1189.51 701.697 1144.04 708.028Z" fill="#78D2C1" fill-opacity="0.4"/>
<path d="M1378.34 1C1358.82 96.7372 1405.98 160.406 1432 180.273L1449.83 152.74C1445.83 128.837 1437.37 108.313 1433.56 101.117C1429.86 92.3571 1419.8 72.5213 1409.79 62.6347C1399.77 52.7481 1384.65 17.4255 1378.34 1Z" fill="#4D7B37" stroke="#5A7639" stroke-width="0.312867"/>
<path d="M1429.33 132.94L1436.5 136.617L1436.01 141.315L1427.76 135.843C1408.06 124.305 1386.14 140.799 1377.64 150.489L1317.02 209.044C1319.67 188.443 1326.91 144.674 1334.63 134.412C1342.34 124.15 1358 117.588 1364.86 115.591C1387 108.742 1417.06 124.303 1429.33 132.94Z" fill="#97C65F" stroke="#97C65F" stroke-width="0.274274"/>
<path d="M1397.27 136.638C1413.38 178.731 1426.66 232.391 1399.46 315.642C1370.29 404.937 1383.66 457.105 1406.65 494.515" stroke="#61934A" stroke-width="3" stroke-linecap="round"/>
<path d="M1390.11 453.121L1388.48 449.188C1392.78 449.075 1397 451.632 1398.58 452.924C1391.73 452.228 1389.9 452.551 1390.11 453.121L1390.12 453.146C1390.11 453.138 1390.11 453.129 1390.11 453.121Z" fill="#61934A"/>
<path d="M1388.48 449.188L1390.12 453.146C1389.85 452.56 1391.63 452.217 1398.58 452.924C1397 451.632 1392.78 449.075 1388.48 449.188Z" stroke="#61934A" stroke-width="1.15385" stroke-linecap="round"/>
<path d="M1388.92 356.865L1390.11 352.778C1393.54 355.389 1395.22 360.028 1395.64 362.021C1390.74 357.189 1389.11 356.291 1388.92 356.865L1388.91 356.892C1388.91 356.882 1388.91 356.874 1388.92 356.865Z" fill="#61934A"/>
<path d="M1390.11 352.778L1388.91 356.892C1389.06 356.265 1390.67 357.117 1395.64 362.021C1395.22 360.028 1393.54 355.389 1390.11 352.778Z" stroke="#61934A" stroke-width="1.15385" stroke-linecap="round"/>
<path d="M1405.81 494.395C1408.96 493.251 1415.83 493.403 1418.09 503.158C1420.27 512.577 1422.5 515.181 1423.44 515.352C1423.47 515.355 1423.51 515.358 1423.54 515.361C1423.51 515.361 1423.48 515.358 1423.44 515.352C1413.44 514.375 1396.05 508.84 1405.81 494.395Z" fill="#61934A" stroke="#61934A" stroke-width="0.337854"/>
<path d="M1417.61 512.233C1413.59 511.338 1405.58 507.247 1405.74 498.04C1404.34 502.077 1404.77 510.569 1417.61 512.233Z" fill="#7AB55E"/>
<path d="M1397.43 451.256C1396.04 453.77 1395.26 459.601 1403.21 462.817C1410.89 465.923 1412.8 468.163 1412.82 468.981C1412.82 469.009 1412.82 469.036 1412.81 469.063C1412.82 469.038 1412.82 469.011 1412.82 468.981C1413.33 460.38 1410.97 444.919 1397.43 451.256Z" fill="#61934A" stroke="#61934A" stroke-width="0.289558"/>
<path d="M1410.96 463.634C1410.74 460.107 1408.35 452.779 1400.53 451.683C1404.13 451.042 1411.27 452.535 1410.96 463.634Z" fill="#7AB55E"/>
<path d="M1383.07 411.151L1382.26 406.971C1378.61 409.255 1376.5 413.718 1375.91 415.665C1381.23 411.305 1382.93 410.561 1383.07 411.151L1383.08 411.178C1383.08 411.168 1383.08 411.159 1383.07 411.151Z" fill="#61934A"/>
<path d="M1382.26 406.971L1383.08 411.178C1382.98 410.539 1381.3 411.24 1375.91 415.665C1376.5 413.718 1378.61 409.255 1382.26 406.971Z" stroke="#61934A" stroke-width="1.15385" stroke-linecap="round"/>
<path d="M1375.94 413.644C1378.48 414.972 1382.36 419.397 1377.51 426.472C1372.82 433.304 1372.47 436.224 1372.9 436.917C1372.92 436.939 1372.93 436.961 1372.95 436.983C1372.93 436.964 1372.92 436.942 1372.9 436.917C1367.73 430.028 1361.16 415.835 1375.94 413.644Z" fill="#61934A" stroke="#61934A" stroke-width="0.289558"/>
<path d="M1371.5 431.433C1369.73 428.372 1367.68 420.941 1373.59 415.711C1370.23 417.167 1365.11 422.351 1371.5 431.433Z" fill="#7AB55E"/>
<path d="M1403.97 299.738L1404.33 296.069C1400.13 297.591 1396.85 301.158 1395.73 302.751C1402.12 299.652 1404 299.217 1403.97 299.738L1403.97 299.762C1403.97 299.754 1403.97 299.746 1403.97 299.738Z" fill="#61934A"/>
<path d="M1404.33 296.069L1403.97 299.762C1404.05 299.205 1402.22 299.606 1395.73 302.751C1396.85 301.158 1400.13 297.591 1404.33 296.069Z" stroke="#61934A" stroke-width="1.15385" stroke-linecap="round"/>
<path d="M1397.34 300.336C1399.34 302.394 1401.64 307.809 1394.81 313.012C1388.22 318.035 1386.98 320.699 1387.17 321.493C1387.18 321.519 1387.19 321.545 1387.2 321.571C1387.19 321.548 1387.18 321.522 1387.17 321.493C1384.41 313.331 1382.61 297.795 1397.34 300.336Z" fill="#61934A" stroke="#61934A" stroke-width="0.289558"/>
<path d="M1387.56 315.846C1386.84 312.386 1387.21 304.686 1394.46 301.566C1390.81 301.899 1384.33 305.222 1387.56 315.846Z" fill="#7AB55E"/>
<path d="M1413.81 241.703L1414.31 238.25C1409.95 239.832 1406.45 243.297 1405.24 244.833C1411.92 241.69 1413.85 241.214 1413.81 241.703L1413.81 241.726C1413.81 241.718 1413.81 241.711 1413.81 241.703Z" fill="#61934A"/>
<path d="M1414.31 238.25L1413.81 241.726C1413.91 241.2 1412.02 241.644 1405.24 244.833C1406.45 243.297 1409.95 239.832 1414.31 238.25Z" stroke="#61934A" stroke-width="1.15385" stroke-linecap="round"/>
<path d="M1407.11 242.582C1409.06 244.69 1411.22 250.163 1404.27 255.19C1397.55 260.043 1396.24 262.674 1396.41 263.473C1396.42 263.5 1396.43 263.526 1396.44 263.552C1396.43 263.528 1396.42 263.502 1396.41 263.473C1393.86 255.244 1392.45 239.667 1407.11 242.582Z" fill="#61934A" stroke="#61934A" stroke-width="0.289558"/>
<path d="M1396.94 257.836C1396.31 254.359 1396.88 246.671 1404.2 243.737C1400.55 243.977 1393.98 247.133 1396.94 257.836Z" fill="#7AB55E"/>
<path d="M1403.38 156.067L1401.98 152.798C1398.98 156.834 1397.74 161.959 1397.49 164.016C1401.7 157.22 1403.16 155.621 1403.38 156.067L1403.39 156.088C1403.39 156.081 1403.39 156.074 1403.38 156.067Z" fill="#61934A"/>
<path d="M1401.98 152.798L1403.39 156.088C1403.2 155.574 1401.77 157.119 1397.49 164.016C1397.74 161.959 1398.98 156.834 1401.98 152.798Z" stroke="#61934A" stroke-width="1.15385" stroke-linecap="round"/>
<path d="M1398.47 160.613C1401.13 161.692 1405.41 165.726 1401.25 173.233C1397.24 180.482 1397.17 183.423 1397.67 184.071C1397.69 184.091 1397.71 184.111 1397.73 184.131C1397.71 184.114 1397.69 184.094 1397.67 184.071C1391.86 177.709 1383.96 164.209 1398.47 160.613Z" fill="#61934A" stroke="#61934A" stroke-width="0.289558"/>
<path d="M1395.75 178.745C1393.7 175.866 1390.94 168.666 1396.33 162.894C1393.12 164.665 1388.52 170.315 1395.75 178.745Z" fill="#7AB55E"/>
<path d="M1394.45 358.333C1392.21 360.128 1389.26 365.22 1395.4 371.223C1401.32 377.018 1402.23 379.815 1401.93 380.579C1401.92 380.604 1401.91 380.629 1401.9 380.653C1401.91 380.631 1401.92 380.606 1401.93 380.579C1405.68 372.819 1409.38 357.623 1394.45 358.333Z" fill="#61934A" stroke="#61934A" stroke-width="0.289558"/>
<path d="M1402.25 374.923C1403.39 371.578 1403.96 363.891 1397.15 359.903C1400.73 360.682 1406.76 364.777 1402.25 374.923Z" fill="#7AB55E"/>
<path d="M1411.35 271.072L1411.91 267.439C1415.86 270.45 1418.36 275.075 1419.11 277.011C1413.28 271.676 1411.46 270.565 1411.35 271.072L1411.35 271.095C1411.35 271.087 1411.35 271.079 1411.35 271.072Z" fill="#61934A"/>
<path d="M1411.91 267.439L1411.35 271.095C1411.41 270.533 1413.2 271.597 1419.11 277.011C1418.36 275.075 1415.86 270.45 1411.91 267.439Z" stroke="#61934A" stroke-width="1.15385" stroke-linecap="round"/>
<path d="M1417.19 274.532C1414.95 276.329 1412 281.421 1418.14 287.422C1424.06 293.216 1424.97 296.013 1424.68 296.777C1424.67 296.802 1424.66 296.826 1424.64 296.851C1424.66 296.829 1424.67 296.804 1424.68 296.777C1428.42 289.016 1432.12 273.819 1417.19 274.532Z" fill="#61934A" stroke="#61934A" stroke-width="0.289558"/>
<path d="M1424.99 291.124C1426.13 287.778 1426.71 280.091 1419.89 276.105C1423.47 276.883 1429.5 280.976 1424.99 291.124Z" fill="#7AB55E"/>
<path d="M1412.37 188.177L1412.98 184.236C1417.67 188.891 1420.68 194.917 1421.59 197.348C1414.66 189.47 1412.49 187.637 1412.37 188.177L1412.37 188.203C1412.37 188.194 1412.37 188.185 1412.37 188.177Z" fill="#61934A"/>
<path d="M1412.98 184.236L1412.37 188.203C1412.43 187.584 1414.55 189.353 1421.59 197.348C1420.68 194.917 1417.67 188.891 1412.98 184.236Z" stroke="#61934A" stroke-width="1.15385" stroke-linecap="round"/>
<path d="M1421.33 195.397C1419.12 197.234 1416.27 202.38 1422.52 208.267C1428.55 213.951 1429.51 216.73 1429.23 217.5C1429.22 217.525 1429.21 217.549 1429.19 217.574C1429.21 217.552 1429.22 217.527 1429.23 217.5C1432.83 209.671 1436.24 194.408 1421.33 195.397Z" fill="#61934A" stroke="#61934A" stroke-width="0.289558"/>
<path d="M1429.44 211.84C1430.52 208.474 1430.95 200.778 1424.06 196.918C1427.66 197.63 1433.76 201.611 1429.44 211.84Z" fill="#7AB55E"/>
<path d="M1397.42 135.329C1396.39 137.843 1396.3 143.403 1404.13 145.538C1411.68 147.598 1413.72 149.489 1413.83 150.255C1413.83 150.281 1413.83 150.307 1413.83 150.333C1413.83 150.308 1413.83 150.282 1413.83 150.255C1413.35 142.125 1409.41 127.877 1397.42 135.329Z" fill="#61934A" stroke="#61934A" stroke-width="0.27367"/>
<path d="M1411.49 145.441C1410.89 142.155 1407.83 135.544 1400.37 135.384C1403.68 134.382 1410.54 134.99 1411.49 145.441Z" fill="#7AB55E"/>
<path d="M1091.28 626.93C1103.79 623.375 1112.42 635.207 1115.18 641.567L1112.85 646.01C1108.9 641.894 1104.39 641.567 1100.43 642.416C1096.47 643.266 1091.28 646.01 1084.46 646.729C1071.89 647.722 1063.7 647.143 1061.18 646.729C1066 641.61 1078.78 630.485 1091.28 626.93Z" fill="#5D8133" stroke="#678D3A" stroke-width="0.186695"/>
<path d="M1102.33 594.277C1097.45 619.377 1109.23 636.069 1115.72 641.277L1120.18 634.059C1119.18 627.793 1117.06 622.412 1116.11 620.525C1115.19 618.228 1112.68 613.028 1110.18 610.436C1107.68 607.844 1103.9 598.584 1102.33 594.277Z" fill="#80A157" stroke="#80A157" stroke-width="0.112712"/>
<path fill-rule="evenodd" clip-rule="evenodd" d="M1419.71 664.688L1135.55 616.792C1135.52 616.787 1135.49 616.781 1135.46 616.776C1135.43 616.771 1135.4 616.767 1135.37 616.762L1135.21 616.735L1135.21 616.738C1126.38 615.458 1117.41 625.38 1115.11 639.064C1112.8 652.748 1118.02 665.06 1126.78 666.746L1126.77 666.82L1411.94 714.885L1411.96 714.803C1420.72 715.895 1429.56 706.023 1431.85 692.448C1434.14 678.874 1429.02 666.649 1420.38 664.808L1420.38 664.801L1420.14 664.76C1420.07 664.746 1420 664.734 1419.93 664.722C1419.86 664.71 1419.78 664.699 1419.71 664.688Z" fill="#5B4739"/>
<path fill-rule="evenodd" clip-rule="evenodd" d="M1115 639.661L1431.73 693.046C1431.77 692.847 1431.81 692.648 1431.84 692.448C1434.13 678.874 1429.01 666.649 1420.37 664.808L1420.37 664.801L1420.13 664.76C1420.06 664.746 1419.99 664.734 1419.92 664.722C1419.85 664.71 1419.78 664.699 1419.71 664.688L1135.54 616.792C1135.51 616.787 1135.48 616.781 1135.45 616.776C1135.42 616.771 1135.39 616.767 1135.36 616.762L1135.2 616.735L1135.2 616.738C1126.37 615.458 1117.41 625.38 1115.1 639.064C1115.07 639.263 1115.03 639.462 1115 639.661Z" fill="#695546"/>
<ellipse cx="14.5452" cy="22.7222" rx="14.5452" ry="22.7222" transform="matrix(-0.986091 -0.166205 -0.166205 0.986091 1431.41 669.535)" fill="#876A55"/>
<path d="M1161.76 612.033C1162.39 617.033 1164.41 620.635 1165.34 621.811L1148.9 619.041C1153.92 619.887 1153.39 613.68 1152.5 610.472C1155.32 608.909 1161.13 607.033 1161.76 612.033Z" fill="#695546"/>
<path d="M1231.87 601.482C1226.5 605.206 1234.37 621.527 1238.97 629.222L1244.76 606.334C1241.61 603.896 1234.63 599.511 1231.87 601.482Z" fill="#ECE285" stroke="#ECE285" stroke-width="0.420245" stroke-linecap="round"/>
<path d="M1321.62 630.463C1325.85 625.962 1311.01 608.824 1304.57 601.847L1299.04 623.15C1302.71 625.112 1319.47 632.831 1321.62 630.463Z" fill="#ECE285" stroke="#ECE285" stroke-width="0.420245" stroke-linecap="round"/>
<path d="M1272.89 578.814C1249.62 582.659 1249.62 599.009 1244.39 609.01L1238.15 621.358L1238.15 631.229C1236.73 634.633 1233.22 642.347 1235.7 645.07C1246.54 654.373 1269.12 653.012 1280.38 653.012C1290.71 653.012 1294.54 651.325 1302.75 649.419C1307.3 647.282 1316.75 633.41 1313.69 621.358C1311.87 614.161 1310.28 611.108 1302.75 597.305C1300.71 593.559 1294.21 579.179 1272.89 578.814Z" fill="#ECE285" stroke="#ECE285" stroke-width="0.420245"/>
<path d="M1276.77 609.374C1273.94 612.263 1270.28 612.525 1266.74 609.565C1265.72 608.715 1266.49 607.306 1267.88 607.294L1275.5 607.231C1276.82 607.22 1277.64 608.49 1276.77 609.374Z" fill="#D6A443"/>
<path d="M1230.27 602.79C1229.04 608.918 1236.65 624.776 1238.96 628.032L1240.65 621.823C1237.64 617.087 1230.21 603.084 1230.27 602.79Z" fill="#F3ECA8" stroke="#FDFCE1" stroke-width="0.0744645" stroke-linecap="round"/>
<path d="M1277.23 605.991C1273.83 602.85 1269.73 602.816 1266.09 606.534C1265.18 607.467 1266.07 608.814 1267.45 608.734L1276.13 608.226C1277.44 608.15 1278.15 606.835 1277.23 605.991Z" fill="#F2C162" stroke="#F2C162" stroke-width="0.420245" stroke-linecap="round"/>
<path d="M1266.17 602.202C1265.13 601.595 1262.55 600.783 1260.54 602.393" stroke="#5B4739" stroke-width="1.45973" stroke-linecap="round"/>
<path d="M1283.69 601.589C1282.65 600.981 1280.07 600.17 1278.06 601.78" stroke="#5B4739" stroke-width="1.45973" stroke-linecap="round"/>
<ellipse cx="5.10445" cy="4.51957" rx="5.10445" ry="4.51957" transform="matrix(-0.999425 0.033909 0.033909 0.999425 1296.33 602.441)" fill="#EAAF9C"/>
<path fill-rule="evenodd" clip-rule="evenodd" d="M1296.79 651.856C1296.52 650.628 1296.25 649.381 1295.98 648.125C1292.78 633.385 1289.33 617.434 1270.1 618.557C1253 619.556 1250.6 638.831 1250.66 651.164C1261.13 653.677 1273.26 653.388 1280.13 652.569C1284.05 653.112 1290.45 652.674 1296.79 651.856Z" fill="#F1EFB5"/>
<path fill-rule="evenodd" clip-rule="evenodd" d="M1276.76 579.568C1296.88 582.432 1304.57 600.155 1302.16 620.575C1301.74 624.091 1303.05 622.348 1305.81 618.641C1307.48 616.416 1309.67 613.483 1312.33 610.556C1310.38 608.213 1308.75 606.698 1307.85 605.854C1307.51 605.538 1307.27 605.317 1307.15 605.181C1306.79 604.762 1306.29 603.698 1305.59 602.229C1302.32 595.331 1294.8 579.494 1278.23 579.495C1277.74 579.512 1277.24 579.537 1276.76 579.568Z" fill="#E8D072"/>
<path fill-rule="evenodd" clip-rule="evenodd" d="M1235.45 644.43C1235.58 644.799 1235.76 645.126 1235.99 645.402C1245.02 653.731 1262.79 653.512 1273.92 653.375C1275.23 653.359 1276.44 653.344 1277.53 653.344C1287.14 653.344 1294.4 651.847 1302.03 649.94C1305.36 648.259 1314.59 637.916 1312.77 628.719C1310.62 628.603 1308.53 628.226 1307.2 626.697C1306.96 626.415 1306.97 626.798 1307 627.641C1307.2 633.334 1308.15 660.007 1235.45 644.43Z" fill="#CCAD3D" fill-opacity="0.4"/>
<path d="M1235.82 636.224C1231.07 636.182 1238.69 647.188 1243.09 652.696C1250.93 659.791 1255.15 640.213 1255.34 637.891C1255.52 635.568 1252.77 634.544 1251.04 634.048C1249.31 633.553 1247.85 637.43 1245.97 635.448C1244.09 633.466 1243.51 632.963 1241.72 633.242C1239.93 633.521 1241.74 636.278 1235.82 636.224Z" fill="#F2C162"/>
<path fill-rule="evenodd" clip-rule="evenodd" d="M1241.61 650.794C1237.22 644.994 1231.57 636.186 1235.82 636.224C1239.7 636.259 1240.26 635.09 1240.69 634.2C1240.91 633.73 1241.1 633.338 1241.72 633.242C1243.51 632.963 1244.09 633.466 1245.97 635.448C1247.05 636.587 1247.99 635.792 1248.92 635.003C1249.62 634.418 1250.3 633.837 1251.04 634.048C1252.59 634.491 1254.95 635.358 1255.3 637.197C1254.42 636.601 1253.32 636.227 1252.47 635.982C1251.73 635.771 1251.04 636.352 1250.35 636.936C1249.42 637.725 1248.47 638.52 1247.4 637.382C1245.52 635.399 1244.94 634.897 1243.15 635.176C1242.53 635.272 1242.34 635.664 1242.11 636.134C1241.68 637.024 1241.12 638.193 1237.24 638.158C1233.45 638.124 1237.56 645.158 1241.61 650.794Z" fill="#D6A443"/>
<path d="M1302.99 638.045C1307.73 638.002 1300.12 649.008 1295.72 654.516C1287.88 661.611 1283.66 642.033 1283.47 639.711C1283.29 637.389 1286.04 636.364 1287.77 635.869C1289.5 635.373 1290.96 639.251 1292.84 637.268C1294.72 635.286 1295.3 634.784 1297.09 635.062C1298.88 635.341 1297.07 638.098 1302.99 638.045Z" fill="#F2C162"/>
<path fill-rule="evenodd" clip-rule="evenodd" d="M1297.28 652.515C1301.65 646.714 1307.21 638.011 1302.99 638.049C1299.11 638.083 1298.55 636.915 1298.12 636.024C1297.9 635.555 1297.71 635.163 1297.09 635.066C1295.3 634.787 1294.72 635.29 1292.84 637.272C1291.76 638.411 1290.82 637.616 1289.88 636.827C1289.19 636.243 1288.51 635.662 1287.77 635.872C1286.22 636.316 1283.85 637.183 1283.51 639.024C1284.38 638.426 1285.49 638.051 1286.35 637.806C1287.08 637.595 1287.77 638.176 1288.46 638.761C1289.4 639.55 1290.34 640.345 1291.42 639.206C1293.29 637.223 1293.87 636.721 1295.67 637C1296.29 637.096 1296.47 637.488 1296.7 637.958C1297.13 638.848 1297.69 640.017 1301.57 639.982C1305.34 639.948 1301.3 646.897 1297.28 652.515Z" fill="#D6A443"/>
<path fill-rule="evenodd" clip-rule="evenodd" d="M1245.87 607.755L1248.56 611.615C1248.21 604.949 1250.14 592.671 1258.75 585.328C1248.57 591.098 1245.87 600.499 1245.87 607.755Z" fill="#F3ECA8"/>
<ellipse cx="5.10445" cy="4.51957" rx="5.10445" ry="4.51957" transform="matrix(-0.999425 0.033909 0.033909 0.999425 1256.58 603.352)" fill="#EAAF9C"/>
<path fill-rule="evenodd" clip-rule="evenodd" d="M1309.74 607.495C1316.61 615.564 1324.92 626.766 1321.62 630.278C1321.28 630.655 1320.56 630.776 1319.59 630.706C1314.78 615.088 1306.07 613.003 1302.26 613.948L1309.74 607.495Z" fill="#E8D072"/>
<path d="M1280.59 727.64C1269.49 728.764 1257.11 728.592 1245.87 727.158C1234.62 725.723 1225.31 723.129 1219.74 719.878C1214.16 716.627 1212.73 712.952 1215.71 709.567C1218.69 706.181 1225.87 703.327 1235.87 701.557C1245.86 699.788 1257.95 699.231 1269.79 699.993C1281.62 700.755 1292.36 702.783 1299.92 705.683C1307.48 708.582 1311.31 712.147 1310.68 715.684C1310.05 719.22 1305 722.478 1296.51 724.822L1262.47 714.017L1280.59 727.64Z" fill="#55833F"/>
<path d="M1271.64 717.611L1293.29 722.67L1258.67 711.713L1277.31 725.568L1271.64 717.611Z" fill="#55833F" stroke="#55833F" stroke-width="0.0978581"/>
<path d="M346.309 1037.7C320.624 1041.12 291.887 1041.62 265.679 1039.11C239.47 1036.6 217.661 1031.25 204.485 1024.11C191.31 1016.97 187.709 1008.54 194.382 1000.47C201.055 992.391 217.525 985.242 240.595 980.408C263.664 975.574 291.686 973.4 319.22 974.309C346.753 975.217 371.832 979.143 389.587 985.324C407.342 991.505 416.506 999.501 415.299 1007.76C414.092 1016.01 402.6 1023.94 383.055 1030L303.256 1007.4L346.309 1037.7Z" fill="#4D7B37"/>
<path d="M324.812 1015.07L375.441 1025.24L294.27 1002.32L338.547 1033.13L324.812 1015.07Z" fill="#4D7B37" stroke="#55833F" stroke-width="0.167995"/>
<path d="M1186.44 693.206C1191.44 692.384 1197.05 692.112 1202.18 692.443C1207.31 692.775 1211.61 693.687 1214.22 695.002C1216.84 696.316 1217.59 697.94 1216.34 699.558C1215.08 701.176 1211.91 702.672 1207.43 703.755C1202.96 704.839 1197.5 705.433 1192.12 705.423C1186.73 705.412 1181.81 704.797 1178.31 703.698C1174.8 702.598 1172.96 701.092 1173.15 699.473C1173.34 697.853 1175.53 696.235 1179.31 694.933L1195.03 698.864L1186.44 693.206Z" fill="#5EA77C"/>
<path d="M1190.78 697.495L1180.83 695.816L1196.82 699.799L1187.99 694.051L1190.78 697.495Z" fill="#5EA77C"/>
<path d="M1136.58 1819.8C1151.67 1821.66 1168.54 1821.79 1183.91 1820.17C1199.27 1818.55 1212.04 1815.28 1219.73 1811.02C1227.42 1806.75 1229.49 1801.79 1225.53 1797.09C1221.57 1792.38 1211.86 1788.28 1198.29 1785.58C1184.73 1782.87 1168.27 1781.75 1152.12 1782.45C1135.96 1783.14 1121.27 1785.58 1110.88 1789.31C1100.5 1793.04 1095.16 1797.78 1095.92 1802.62C1096.68 1807.46 1103.47 1812.05 1114.97 1815.49L1161.67 1801.77L1136.58 1819.8Z" fill="#55833F"/>
<path d="M1149.07 1806.4L1119.41 1812.65L1166.92 1798.74L1141.11 1817.07L1149.07 1806.4Z" fill="#55833F" stroke="#55833F" stroke-width="0.28168"/>
<path d="M413.227 972.131C429.61 974.148 447.92 974.29 464.6 972.527C481.28 970.765 495.14 967.225 503.489 962.595C511.838 957.964 514.08 952.574 509.779 947.47C505.478 942.367 494.942 937.915 480.216 934.978C465.49 932.041 447.626 930.83 430.092 931.579C412.558 932.328 396.606 934.984 385.334 939.032C374.062 943.079 368.274 948.229 369.094 953.481C369.914 958.733 377.283 963.713 389.772 967.453L440.466 952.558L413.227 972.131Z" fill="#5EA77C"/>
<path d="M426.78 957.578L394.59 964.369L446.157 949.269L418.142 969.168L426.78 957.578Z" fill="#5EA77C"/>
<path d="M1168.56 1772.14C1170.41 1784.21 1168.94 1791.08 1166.7 1802.46C1156.79 1799.85 1129.75 1787.98 1133.51 1767.88C1136.41 1752.31 1135.79 1754.63 1143.1 1743.21C1149.44 1754.11 1167.15 1762.93 1168.56 1772.14Z" fill="url(#paint3_linear_1701_346)"/>
<path d="M1155.52 1773.05C1153.67 1785.12 1155.14 1791.99 1157.38 1803.38C1167.29 1800.76 1194.33 1788.9 1190.58 1768.79C1187.67 1753.22 1188.29 1755.54 1180.98 1744.13C1174.64 1755.02 1156.94 1763.85 1155.52 1773.05Z" fill="url(#paint4_linear_1701_346)"/>
<path d="M1204.32 1774.57C1204.32 1787.18 1185.29 1804.03 1172.67 1804.03C1160.06 1804.03 1159.79 1806.82 1159.79 1794.21C1159.79 1781.6 1168.87 1778.45 1181.48 1778.45C1204.32 1772.43 1201.91 1759.95 1204.32 1774.57Z" fill="url(#paint5_linear_1701_346)"/>
<path d="M1204.32 1774.57C1204.32 1787.18 1185.29 1804.03 1172.67 1804.03C1160.06 1804.03 1159.79 1806.82 1159.79 1794.21C1159.79 1781.6 1168.87 1778.45 1181.48 1778.45C1204.32 1772.43 1201.91 1759.95 1204.32 1774.57Z" fill="url(#paint6_linear_1701_346)"/>
<path d="M1138.9 1776.99C1138.9 1789.61 1151.92 1783.16 1161.74 1803.49C1172.24 1777.68 1184.57 1789.61 1184.57 1776.99C1184.57 1764.38 1171.33 1750.05 1161.74 1742.28C1151.46 1748.22 1138.9 1764.38 1138.9 1776.99Z" fill="url(#paint7_radial_1701_346)"/>
<path d="M1138.65 1774.94C1137.28 1789.78 1153.29 1788.58 1158.31 1797.55C1152.4 1783.62 1140.96 1790.06 1140.96 1777.45C1140.96 1764.84 1148.7 1756.67 1154.86 1747.08C1145.73 1756.44 1141.62 1761.92 1138.65 1774.94Z" fill="#EEC1A9"/>
<path d="M1119.72 1774.69C1119.72 1787.3 1138.75 1804.15 1151.36 1804.15C1163.97 1804.15 1164.25 1806.94 1164.25 1794.33C1164.25 1781.71 1155.17 1778.57 1142.55 1778.57C1119.72 1772.55 1122.13 1760.07 1119.72 1774.69Z" fill="url(#paint8_linear_1701_346)"/>
<path d="M1119.72 1774.69C1119.72 1787.3 1138.75 1804.15 1151.36 1804.15C1163.97 1804.15 1164.25 1806.94 1164.25 1794.33C1164.25 1781.71 1155.17 1778.57 1142.55 1778.57C1119.72 1772.55 1122.13 1760.07 1119.72 1774.69Z" fill="url(#paint9_linear_1701_346)"/>
<path d="M1135.71 1773.61C1132.93 1784.15 1147.92 1798.59 1156.71 1800.9C1165.49 1803.22 1165.07 1805.6 1167.84 1795.06C1170.62 1784.52 1161.22 1773.25 1152.44 1770.93C1130.13 1768.98 1140.61 1761.84 1135.71 1773.61Z" fill="url(#paint10_radial_1701_346)"/>
<path d="M1191.2 1775.16C1195.65 1772.88 1201.7 1767.86 1201.7 1767.86C1201.7 1767.86 1199.58 1770.46 1198.05 1771.97C1195.02 1774.96 1194.86 1776.41 1191.2 1778.59C1188.15 1780.41 1185.78 1781.98 1182.52 1783.38C1179.35 1784.74 1177.18 1784.92 1174.3 1786.81C1170.38 1789.38 1168.46 1790.88 1166.31 1795.03C1165.12 1797.31 1163.34 1803.48 1163.34 1803.48C1163.34 1803.48 1162.01 1795.57 1162.88 1792.29C1164.09 1787.72 1166.16 1785.28 1169.96 1782.47C1174.09 1779.42 1177.69 1780.32 1182.52 1778.59C1185.95 1777.36 1187.96 1776.83 1191.2 1775.16Z" fill="#EAB29F" fill-opacity="0.84"/>
<path d="M1187.35 1769.49C1192.06 1778.5 1180.05 1795.46 1171.87 1799.74C1163.68 1804.02 1164.54 1806.1 1159.83 1797.09C1155.12 1788.07 1162.23 1775.4 1170.41 1771.12C1191.95 1763.86 1180.32 1759.86 1187.35 1769.49Z" fill="url(#paint11_radial_1701_346)"/>
<path d="M1187.27 1769.54C1188.43 1771.76 1188.56 1774.49 1187.97 1777.4C1187.39 1780.31 1186.08 1783.4 1184.36 1786.34C1180.93 1792.23 1175.9 1797.52 1171.82 1799.65C1170.34 1800.43 1169.16 1801.13 1168.18 1801.71C1167.81 1801.93 1167.46 1802.13 1167.15 1802.31C1166.58 1802.64 1166.09 1802.9 1165.67 1803.07C1165.24 1803.24 1164.88 1803.32 1164.55 1803.3C1163.9 1803.27 1163.33 1802.85 1162.62 1801.85C1161.92 1800.86 1161.09 1799.3 1159.91 1797.05C1157.58 1792.57 1158.17 1787.18 1160.37 1782.37C1162.57 1777.56 1166.38 1773.34 1170.45 1771.21C1181 1767.65 1183.61 1764.87 1184.34 1764.08C1184.36 1764.06 1184.38 1764.05 1184.39 1764.03C1184.43 1763.99 1184.46 1763.96 1184.49 1763.93C1184.49 1763.93 1184.5 1763.92 1184.5 1763.92C1184.51 1763.96 1184.52 1764.02 1184.54 1764.11C1184.54 1764.12 1184.55 1764.14 1184.55 1764.16C1184.58 1764.29 1184.61 1764.46 1184.67 1764.68C1184.91 1765.56 1185.51 1767.13 1187.27 1769.54Z" stroke="#C88181" stroke-opacity="0.02" stroke-width="0.187789"/>
<path d="M1176.81 1768.77L1184.35 1764.43C1184.35 1764.43 1180.15 1768.47 1176.81 1769.91C1175.52 1770.47 1174.67 1770.48 1173.39 1771.06C1171.11 1772.09 1169.97 1773.02 1168.13 1774.71C1165.31 1777.3 1164.22 1779.31 1162.42 1782.7C1161.38 1784.68 1160.57 1785.76 1160.14 1787.96C1159.57 1790.86 1160.02 1792.65 1160.83 1795.49C1161.38 1797.45 1162.15 1798.39 1162.88 1800.29C1163.46 1801.79 1164.25 1804.17 1164.25 1804.17C1164.25 1804.17 1160.86 1800.01 1159.68 1796.86C1158.6 1793.98 1158.13 1792.17 1158.31 1789.1C1158.45 1786.81 1158.84 1785.52 1159.68 1783.39C1160.59 1781.08 1161.39 1779.89 1162.88 1777.91C1165.08 1774.98 1166.59 1773.39 1169.73 1771.51C1172.27 1769.99 1176.81 1768.77 1176.81 1768.77Z" fill="url(#paint12_linear_1701_346)"/>
<path d="M1136.84 1769.69C1137 1768.63 1137.3 1767.18 1137.3 1767.18C1137.3 1767.18 1137.45 1768.93 1137.3 1770.37C1137.14 1771.92 1136.68 1772.95 1136.39 1774.48C1136.01 1776.42 1136.38 1777.59 1136.84 1779.51C1137.64 1782.85 1138.96 1784.48 1140.95 1787.27C1143.63 1791.02 1145.69 1792.77 1149.4 1795.49C1153.46 1798.46 1157.52 1797.64 1160.82 1801.43C1161.62 1802.35 1162.65 1803.94 1162.65 1803.94C1162.65 1803.94 1161 1802.8 1159.91 1802.12C1155.74 1799.53 1152.52 1799.66 1148.49 1796.86C1144.34 1793.99 1142.15 1791.93 1139.35 1787.73C1137.43 1784.84 1136.06 1783.16 1135.47 1779.74C1135.11 1777.63 1135.02 1776.35 1135.47 1774.26C1135.86 1772.46 1136.57 1771.51 1136.84 1769.69Z" fill="url(#paint13_linear_1701_346)"/>
<path d="M1169.7 1799.63C1166.8 1802.31 1161.34 1805.32 1161.34 1805.32C1161.34 1805.32 1166.14 1801.46 1168.85 1798.61C1171.5 1795.81 1172.84 1794.09 1175.05 1790.94C1177.38 1787.62 1178.95 1785.82 1180.37 1782.03C1180.96 1780.46 1181.58 1777.91 1181.58 1777.91C1181.58 1777.91 1181.38 1780.83 1180.93 1782.63C1179.89 1786.77 1178.11 1788.7 1175.71 1792.22C1173.62 1795.31 1172.43 1797.1 1169.7 1799.63Z" fill="url(#paint14_linear_1701_346)"/>
<path d="M214.336 767.706C215.033 772.253 214.479 774.843 213.637 779.132C209.901 778.146 199.715 773.676 201.13 766.101C202.225 760.234 201.99 761.11 204.743 756.808C207.133 760.914 213.804 764.238 214.336 767.706Z" fill="url(#paint15_linear_1701_346)"/>
<path d="M209.422 768.05C208.724 772.597 209.279 775.187 210.121 779.476C213.857 778.49 224.043 774.02 222.628 766.444C221.533 760.578 221.768 761.454 219.014 757.152C216.625 761.258 209.954 764.582 209.422 768.05Z" fill="url(#paint16_linear_1701_346)"/>
<path d="M227.806 768.621C227.806 773.373 220.636 779.721 215.884 779.721C211.132 779.721 211.027 780.773 211.027 776.021C211.027 771.269 214.449 770.084 219.202 770.084C227.806 767.814 226.897 763.114 227.806 768.621Z" fill="url(#paint17_linear_1701_346)"/>
<path d="M227.806 768.621C227.806 773.373 220.636 779.721 215.884 779.721C211.132 779.721 211.027 780.773 211.027 776.021C211.027 771.269 214.449 770.084 219.202 770.084C227.806 767.814 226.897 763.114 227.806 768.621Z" fill="url(#paint18_linear_1701_346)"/>
<path d="M203.154 769.536C203.154 774.288 208.059 771.859 211.759 779.517C215.717 769.794 220.363 774.288 220.363 769.536C220.363 764.784 215.373 759.383 211.759 756.457C207.887 758.694 203.154 764.784 203.154 769.536Z" fill="url(#paint19_radial_1701_346)"/>
<path d="M203.067 768.759C202.551 774.352 208.584 773.897 210.477 777.278C208.249 772.029 203.937 774.458 203.937 769.706C203.937 764.954 206.853 761.876 209.177 758.262C205.735 761.79 204.186 763.855 203.067 768.759Z" fill="#EEC1A9"/>
<path d="M195.932 768.668C195.932 773.42 203.102 779.768 207.855 779.768C212.607 779.768 212.711 780.82 212.711 776.068C212.711 771.316 209.289 770.131 204.537 770.131C195.932 767.861 196.841 763.161 195.932 768.668Z" fill="url(#paint20_linear_1701_346)"/>
<path d="M195.932 768.668C195.932 773.42 203.102 779.768 207.855 779.768C212.607 779.768 212.711 780.82 212.711 776.068C212.711 771.316 209.289 770.131 204.537 770.131C195.932 767.861 196.841 763.161 195.932 768.668Z" fill="url(#paint21_linear_1701_346)"/>
<path d="M201.956 768.263C200.91 772.235 206.559 777.674 209.867 778.546C213.176 779.417 213.017 780.316 214.063 776.344C215.109 772.372 211.568 768.126 208.259 767.254C199.855 766.516 203.801 763.828 201.956 768.263Z" fill="url(#paint22_radial_1701_346)"/>
<path d="M222.862 768.847C224.538 767.988 226.82 766.094 226.82 766.094C226.82 766.094 226.019 767.074 225.444 767.643C224.301 768.772 224.243 769.316 222.862 770.138C221.713 770.822 220.822 771.417 219.593 771.945C218.4 772.457 217.58 772.524 216.495 773.236C215.019 774.202 214.295 774.767 213.483 776.333C213.038 777.192 212.365 779.517 212.365 779.517C212.365 779.517 211.865 776.535 212.193 775.301C212.649 773.579 213.428 772.66 214.86 771.601C216.415 770.45 217.772 770.791 219.593 770.138C220.885 769.674 221.641 769.473 222.862 768.847Z" fill="#EAB29F" fill-opacity="0.84"/>
<path d="M221.41 766.707C223.186 770.103 218.664 776.49 215.579 778.103C212.494 779.715 212.819 780.503 211.044 777.106C209.268 773.709 211.946 768.935 215.031 767.322C223.145 764.584 218.763 763.079 221.41 766.707Z" fill="url(#paint23_radial_1701_346)"/>
<path d="M220.244 764.943C220.34 765.296 220.574 765.899 221.238 766.813C221.647 767.605 221.7 768.584 221.484 769.654C221.268 770.727 220.783 771.874 220.143 772.972C218.86 775.176 216.982 777.142 215.485 777.924C214.923 778.218 214.469 778.487 214.101 778.705C213.962 778.788 213.834 778.863 213.718 778.93C213.504 779.053 213.33 779.145 213.181 779.205C213.033 779.264 212.921 779.286 212.83 779.282C212.665 779.273 212.491 779.172 212.232 778.805C211.974 778.44 211.669 777.867 211.222 777.013C210.373 775.388 210.58 773.415 211.398 771.629C212.213 769.849 213.619 768.293 215.11 767.508C218.583 766.335 219.792 765.38 220.244 764.943Z" stroke="#C88181" stroke-opacity="0.02" stroke-width="0.40308"/>
<path d="M217.446 766.44L220.285 764.805C220.285 764.805 218.705 766.327 217.446 766.87C216.958 767.08 216.639 767.081 216.155 767.3C215.297 767.688 214.87 768.04 214.176 768.677C213.111 769.654 212.702 770.411 212.025 771.688C211.63 772.433 211.328 772.841 211.164 773.667C210.948 774.76 211.118 775.436 211.423 776.507C211.632 777.245 211.921 777.598 212.197 778.314C212.415 778.879 212.713 779.777 212.713 779.777C212.713 779.777 211.437 778.211 210.992 777.023C210.586 775.937 210.405 775.256 210.476 774.098C210.529 773.235 210.675 772.75 210.992 771.946C211.335 771.078 211.635 770.627 212.197 769.881C213.027 768.78 213.595 768.181 214.778 767.472C215.736 766.898 217.446 766.44 217.446 766.44Z" fill="url(#paint24_linear_1701_346)"/>
<path d="M202.386 766.782C202.445 766.383 202.558 765.836 202.558 765.836C202.558 765.836 202.614 766.496 202.558 767.041C202.498 767.624 202.326 768.013 202.214 768.589C202.073 769.318 202.214 769.76 202.386 770.482C202.687 771.74 203.184 772.356 203.935 773.408C204.943 774.82 205.719 775.481 207.119 776.506C208.647 777.624 210.176 777.315 211.421 778.743C211.721 779.087 212.109 779.689 212.109 779.689C212.109 779.689 211.489 779.256 211.077 779.001C209.506 778.026 208.295 778.075 206.775 777.022C205.212 775.939 204.387 775.162 203.333 773.58C202.608 772.492 202.093 771.857 201.87 770.568C201.732 769.774 201.698 769.291 201.87 768.503C202.018 767.826 202.286 767.468 202.386 766.782Z" fill="url(#paint25_linear_1701_346)"/>
<path d="M214.765 778.066C213.673 779.077 211.614 780.209 211.614 780.209C211.614 780.209 213.422 778.754 214.444 777.68C215.444 776.629 215.949 775.981 216.782 774.792C217.658 773.541 218.249 772.864 218.786 771.434C219.008 770.843 219.242 769.883 219.242 769.883C219.242 769.883 219.167 770.982 218.996 771.663C218.604 773.22 217.933 773.947 217.031 775.276C216.243 776.437 215.794 777.112 214.765 778.066Z" fill="url(#paint26_linear_1701_346)"/>
<path d="M35.307 755.513C26.2408 767.033 33.1161 780.852 37.687 786.322L42.8482 785.738C40.899 779.938 42.6875 775.127 45.3041 771.367C47.9207 767.607 52.8492 763.349 56.6749 756.559C63.4114 743.931 66.6765 735.191 67.467 732.399C60.5246 735.304 44.3732 743.993 35.307 755.513Z" fill="#97C65F" stroke="#97C65F" stroke-width="0.159179"/>
<path d="M96.2685 816.075C115.502 818.444 136.997 818.609 156.579 816.541C176.161 814.472 192.432 810.316 202.234 804.88C212.035 799.444 214.667 793.116 209.618 787.124C204.569 781.133 192.2 775.906 174.912 772.459C157.624 769.011 136.652 767.589 116.067 768.468C95.483 769.348 76.7559 772.466 63.5226 777.218C50.2893 781.969 43.4942 788.015 44.457 794.181C45.4197 800.347 54.0715 806.193 68.7323 810.584L128.246 793.097L96.2685 816.075Z" fill="#4D7B37"/>
<path d="M180.109 765.861C178.007 757.743 169.823 761.57 167.095 764.462C155.829 774.398 152.102 787.778 159.538 789.372C162.476 790.001 184.168 781.535 180.109 765.861Z" fill="#9FC482"/>
<path d="M147.428 790.284C147.428 792.448 153.443 794.202 160.862 794.202C167.355 794.202 171.219 793.505 173.442 790.377C174.089 789.467 174.297 788.166 173.499 787.384C171.627 785.547 167.017 786.365 160.862 786.365C153.443 786.365 147.428 788.12 147.428 790.284Z" fill="#9FC482"/>
<path fill-rule="evenodd" clip-rule="evenodd" d="M174.357 760.991C184.004 768.017 173.881 779.719 161.844 786.292C162.992 786.322 166.133 786.29 168.908 786.059C175.488 782.288 182.578 775.413 180.105 765.861C179.124 762.07 176.816 760.884 174.357 760.991Z" fill="#8DB36F"/>
<path fill-rule="evenodd" clip-rule="evenodd" d="M153.206 787.06C164.272 789.015 169.598 788.234 171.641 786.453C172.417 786.635 173.044 786.927 173.505 787.379C174.302 788.161 174.095 789.462 173.448 790.372C171.224 793.501 167.361 794.197 160.868 794.197C153.448 794.197 147.434 792.443 147.434 790.279C147.434 788.945 149.717 787.767 153.206 787.06Z" fill="#8DB36F"/>
<path d="M76.5627 765.861C78.6648 757.743 86.8484 761.57 89.5773 764.462C100.843 774.398 104.57 787.778 97.1342 789.372C94.1954 790.001 72.5044 781.535 76.5627 765.861Z" fill="#9FC482"/>
<path d="M109.236 790.284C109.236 792.448 103.221 794.202 95.8016 794.202C89.3086 794.202 85.4454 793.505 83.2219 790.377C82.5746 789.467 82.3673 788.166 83.1648 787.384C85.0374 785.547 89.6474 786.365 95.8016 786.365C103.221 786.365 109.236 788.12 109.236 790.284Z" fill="#9FC482"/>
<path fill-rule="evenodd" clip-rule="evenodd" d="M82.315 760.991C72.6683 768.017 82.7906 779.72 94.8281 786.292C93.6792 786.322 90.5353 786.29 87.7596 786.059C81.179 782.288 74.0895 775.413 76.5627 765.861C77.5448 762.068 79.8544 760.883 82.315 760.991Z" fill="#8DB36F"/>
<path fill-rule="evenodd" clip-rule="evenodd" d="M103.309 787.088C92.3496 789.009 87.0651 788.226 85.0321 786.453C84.2554 786.635 83.6272 786.927 83.1655 787.38C82.368 788.162 82.5754 789.462 83.2226 790.373C85.4462 793.501 89.3094 794.198 95.8024 794.198C103.222 794.198 108.383 792.443 108.383 790.279C108.383 788.963 106.474 787.799 103.309 787.088Z" fill="#8DB36F"/>
<path d="M128.744 795.462C149.027 795.462 179.361 788.324 161.177 741.864C159.945 738.715 157.04 732.068 154.311 725.84C154.661 725.001 154.772 724.033 154.801 723.111C154.801 717.392 150.165 712.756 144.445 712.756C141.926 712.476 139.431 713.852 138.498 714.575C136.935 715.904 134.09 719.053 132.201 718.353C128.618 717.402 125.203 717.957 123.944 718.353C122.055 719.053 119.209 715.904 117.647 714.575C117.017 713.899 114.974 712.588 111.839 712.756C106.12 712.756 101.483 717.392 101.483 723.111C101.511 724.011 101.623 724.581 102.043 725.56C99.8039 731.858 97.3549 739.065 95.3257 743.403C77.2732 788.884 108.461 795.462 128.744 795.462Z" fill="#9FC482"/>
<path fill-rule="evenodd" clip-rule="evenodd" d="M149.244 784.406C157.034 784.219 168.444 772.384 151.763 726.539C153.396 722.108 153.484 713.245 141.057 713.245C141.053 713.239 141.049 713.232 141.045 713.226C142.063 712.862 143.25 712.623 144.442 712.756C150.161 712.756 154.797 717.392 154.797 723.111C154.768 724.033 154.657 725.001 154.307 725.84C157.036 732.068 159.941 738.715 161.173 741.864C177.148 782.68 155.677 793.147 136.473 795.088C136.135 791.962 136.321 788.94 136.719 786.645L149.244 784.406Z" fill="#8DB36F"/>
<path fill-rule="evenodd" clip-rule="evenodd" d="M107.076 784.406C99.2863 784.219 87.8764 772.384 104.557 726.539C102.925 722.108 102.836 713.245 115.263 713.245C115.267 713.239 115.271 713.233 115.275 713.227C114.256 712.862 113.068 712.623 111.875 712.756C106.156 712.756 101.519 717.392 101.519 723.111C101.548 724.033 101.659 725.001 102.009 725.84C99.2801 732.068 96.3756 738.715 95.1432 741.864C79.1674 782.683 100.642 793.148 119.848 795.088C120.186 791.962 119.999 788.94 119.601 786.645L107.076 784.406Z" fill="#8DB36F"/>
<ellipse cx="112.48" cy="723.528" rx="3.11721" ry="3.77844" fill="#5F4B3D"/>
<ellipse cx="142.832" cy="723.528" rx="3.11721" ry="3.77844" fill="#5F4B3D"/>
<path d="M132.153 730.6C128.603 732.774 125.872 731.467 124.584 730.6C123.402 729.812 124.034 728.845 124.584 729.231C125.872 730.098 128.393 731.695 132.153 729.231C132.703 728.845 133.361 729.86 132.153 730.6Z" fill="#5F4B3D"/>
<ellipse cx="153.866" cy="733.959" rx="6.71722" ry="5.94754" fill="#DBB396"/>
<ellipse cx="103.069" cy="733.959" rx="6.71722" ry="5.94754" fill="#DBB396"/>
<path fill-rule="evenodd" clip-rule="evenodd" d="M148.333 792.401C142.059 794.908 134.947 795.636 128.807 795.636C122.326 795.636 114.671 794.888 108.025 792.153C100.744 780.802 95.5469 761.677 106.838 749.365C117.765 737.452 139.263 737.413 150.094 749.414C161.289 761.817 155.717 781.097 148.333 792.401Z" fill="#DAEDB8"/>
<path fill-rule="evenodd" clip-rule="evenodd" d="M128.799 795.637C134.939 795.637 142.051 794.909 148.326 792.402C150.017 789.812 151.614 786.803 152.936 783.555C131.672 792.326 116.109 788.381 103.629 783.593C104.883 786.724 106.399 789.631 108.017 792.154C114.663 794.889 122.318 795.637 128.799 795.637Z" fill="#B7CF8C" fill-opacity="0.5"/>
<path d="M140.093 797.843C144.991 790.496 147.706 783.849 151.555 774.543L132.158 782.893C131.509 787.283 130.178 796.438 130.182 797.707C130.187 799.516 133.186 800.029 134.086 798.17C134.369 797.636 134.686 797.502 134.955 797.538C135.349 797.591 135.427 798.089 135.628 798.433C136.311 799.604 139.09 799.347 140.093 797.843Z" fill="#DAEDB8"/>
<path fill-rule="evenodd" clip-rule="evenodd" d="M150.188 776.553C146.766 786.761 143.312 795.498 140.29 798.17C138.937 799.366 136.273 799.604 135.622 798.435C135.571 798.344 135.528 798.243 135.485 798.142C135.365 797.858 135.246 797.577 134.955 797.538C134.686 797.502 134.369 797.636 134.087 798.17C133.186 800.029 130.188 799.516 130.182 797.707C130.182 797.532 130.207 797.206 130.252 796.763C131.952 797.467 132.619 796.556 133.293 795.633C133.72 795.05 134.15 794.461 134.847 794.274C135.661 794.055 135.645 794.438 135.625 794.928C135.601 795.534 135.57 796.303 137.086 796.303C139.591 796.303 147.358 781.539 150.297 775.941L150.188 776.553Z" fill="#9FC482"/>
<path d="M116.829 797.843C111.931 790.496 109.216 783.849 105.367 774.543L124.764 782.893C125.413 787.283 126.744 796.438 126.74 797.707C126.735 799.516 123.736 800.029 122.835 798.17C122.553 797.636 122.236 797.502 121.967 797.538C121.573 797.591 121.495 798.089 121.294 798.433C120.611 799.604 117.831 799.347 116.829 797.843Z" fill="#DAEDB8"/>
<path fill-rule="evenodd" clip-rule="evenodd" d="M106.738 776.577C110.158 786.775 113.608 795.5 116.628 798.17C117.981 799.366 120.645 799.604 121.297 798.435C121.347 798.344 121.39 798.243 121.433 798.142C121.553 797.858 121.672 797.577 121.963 797.538C122.232 797.502 122.549 797.636 122.831 798.17C123.732 800.029 126.73 799.516 126.736 797.707C126.736 797.532 126.711 797.207 126.666 796.764C124.968 797.466 124.303 796.555 123.629 795.633C123.202 795.05 122.772 794.461 122.075 794.274C121.261 794.055 121.277 794.438 121.296 794.928C121.321 795.534 121.352 796.303 119.836 796.303C117.331 796.303 109.564 781.539 106.625 775.941L106.738 776.577Z" fill="#9FC482"/>
<path d="M172.504 665.544C167.026 673.481 130.911 665.032 113.538 659.815C111.023 657.906 102.779 653.611 89.9242 651.711C71.3403 649.336 69.9431 639.275 66.869 636.341C43.5065 615.773 20.0602 617.617 11.2573 621.111C21.0383 596.099 42.9755 591.349 61.0005 588.414C79.0254 585.48 98.1681 599.034 103.338 600.85C107.474 602.303 111.862 602.387 113.538 602.247C132.961 607.557 133.1 607.836 151.125 620.552C169.15 633.267 174.739 652.829 179.071 658.558C182.536 663.141 176.882 664.007 173.621 663.867L172.504 665.544Z" fill="#9EBD78"/>
<path d="M25.1167 619.993C67.7338 595.26 125.721 666.102 161.352 656.042C159.631 660.387 145.991 663.431 105.361 641.921C64.7305 620.411 49.141 622.728 42.0796 625.082L25.1167 619.993Z" fill="#83A658"/>
<path d="M39.0868 667.219C25.5612 722.998 33.0247 771.265 38.6604 786.635L23.2976 793.533C18.4909 769.611 25.3003 699.356 29.3059 667.219C28.3278 650.032 -0.735649 657.438 -13.4509 652.547C-23.6231 648.635 -21.2291 641.881 -18.7606 638.994C-14.6619 635.687 -2.16087 627.34 15.0536 620.41C36.5717 611.747 65.4954 633.964 67.4516 636.059C69.4078 638.155 75.1367 649.334 89.9478 651.43C104.032 653.777 112.304 657.904 114.68 659.673C90.9725 655.854 42.6639 652.016 39.0868 667.219Z" fill="#698C3D"/>
<path fill-rule="evenodd" clip-rule="evenodd" d="M-0.948822 627.938C0.584606 635.197 8.56253 644.211 32.3016 648.711C56.0661 653.215 54.5747 653.314 48.3997 653.72C43.7773 654.025 36.5304 654.502 35.2883 657.13C28.5926 671.296 21.8956 760.938 28.634 790.083L23.2116 793.682C18.405 769.76 25.2144 699.505 29.2199 667.368C28.5695 655.939 15.4996 655.385 3.07629 654.858C-3.18245 654.593 -9.27705 654.334 -13.5368 652.696C-23.709 648.784 -21.315 642.03 -18.8465 639.142C-16.1552 636.971 -9.8412 632.627 -0.948822 627.938Z" fill="#4D7B37"/>
<path d="M26.5351 788.62C29.3275 777.992 32.331 752.746 20.108 742.274C19.1522 741.158 10.0448 754.564 9.01042 758.66C8.97548 758.685 8.97071 758.702 8.99881 758.707C9.00256 758.691 9.00643 758.676 9.01042 758.66C9.62344 758.218 19.5235 755.336 24.094 775.761C24.3678 779.703 24.3127 790.672 23.4812 795.361L26.5351 788.62Z" fill="#4D7B37"/>
<path d="M13.0344 744.45C14.296 742.879 19.0944 742.327 20.3867 742.566C13.7953 753.098 10.6241 763.872 7.76388 774.226C-0.56732 756.891 7.40649 745.43 9.0221 743.817L13.0344 744.45Z" fill="#678D3A"/>
<path d="M35.0797 804.125C36.5672 813.825 35.3841 819.35 33.5876 828.498C25.6191 826.396 3.89027 816.86 6.90794 800.7C9.24485 788.186 8.74339 790.055 14.617 780.877C19.7138 789.636 33.9451 796.727 35.0797 804.125Z" fill="url(#paint27_linear_1701_346)"/>
<path d="M24.6039 804.86C23.1164 814.559 24.2995 820.084 26.096 829.233C34.0645 827.13 55.7933 817.595 52.7756 801.435C50.4387 788.921 50.9402 790.789 45.0666 781.611C39.9698 790.371 25.7385 797.461 24.6039 804.86Z" fill="url(#paint28_linear_1701_346)"/>
<path d="M63.8156 806.081C63.8156 816.218 48.52 829.759 38.3828 829.759C28.2456 829.759 28.0234 832.003 28.0234 821.866C28.0234 811.729 35.3235 809.201 45.4607 809.201C63.8156 804.359 61.8771 794.334 63.8156 806.081Z" fill="url(#paint29_linear_1701_346)"/>
<path d="M63.8156 806.081C63.8156 816.218 48.52 829.759 38.3828 829.759C28.2456 829.759 28.0234 832.003 28.0234 821.866C28.0234 811.729 35.3235 809.201 45.4607 809.201C63.8156 804.359 61.8771 794.334 63.8156 806.081Z" fill="url(#paint30_linear_1701_346)"/>
<path d="M11.2393 808.028C11.2393 818.166 21.7016 812.984 29.5943 829.32C38.0375 808.579 47.9492 818.166 47.9492 808.028C47.9492 797.891 37.3033 786.37 29.5943 780.129C21.3345 784.901 11.2393 797.891 11.2393 808.028Z" fill="url(#paint31_radial_1701_346)"/>
<path d="M11.0427 806.374C9.94147 818.304 22.8096 817.333 26.8477 824.545C22.0951 813.348 12.8979 818.53 12.8979 808.393C12.8979 798.255 19.1189 791.69 24.0747 783.98C16.7327 791.506 13.4288 795.911 11.0427 806.374Z" fill="#EEC1A9"/>
<path d="M-4.1789 806.175C-4.1789 816.312 11.1168 829.853 21.2539 829.853C31.3911 829.853 31.6133 832.097 31.6133 821.96C31.6133 811.823 24.3132 809.295 14.1761 809.295C-4.1789 804.453 -2.24043 794.428 -4.1789 806.175Z" fill="url(#paint32_linear_1701_346)"/>
<path d="M-4.1789 806.175C-4.1789 816.312 11.1168 829.853 21.2539 829.853C31.3911 829.853 31.6133 832.097 31.6133 821.96C31.6133 811.823 24.3132 809.295 14.1761 809.295C-4.1789 804.453 -2.24043 794.428 -4.1789 806.175Z" fill="url(#paint33_linear_1701_346)"/>
<path d="M8.67342 805.307C6.44173 813.779 18.4909 825.381 25.5491 827.241C32.6074 829.1 32.2679 831.016 34.4996 822.544C36.7313 814.072 29.1766 805.012 22.1183 803.153C4.18984 801.579 12.6093 795.844 8.67342 805.307Z" fill="url(#paint34_radial_1701_346)"/>
<path d="M53.2755 806.557C56.85 804.725 61.7188 800.684 61.7188 800.684C61.7188 800.684 60.0094 802.774 58.782 803.987C56.3456 806.397 56.2198 807.558 53.2755 809.31C50.8232 810.77 48.9229 812.039 46.3006 813.165C43.7564 814.257 42.0086 814.401 39.6928 815.918C36.5454 817.981 35 819.185 33.2686 822.526C32.319 824.358 30.8824 829.317 30.8824 829.317C30.8824 829.317 29.8174 822.956 30.5153 820.323C31.4889 816.651 33.1503 814.69 36.2054 812.431C39.5231 809.977 42.4164 810.703 46.3006 809.31C49.0571 808.322 50.6694 807.893 53.2755 806.557Z" fill="#EAB29F" fill-opacity="0.84"/>
<path d="M50.1808 801.994C53.9682 809.24 44.3216 822.864 37.7407 826.304C31.1598 829.744 31.8541 831.423 28.0668 824.177C24.2794 816.931 29.9916 806.747 36.5725 803.307C53.8816 797.467 44.5335 794.254 50.1808 801.994Z" fill="url(#paint35_radial_1701_346)"/>
<path d="M47.7975 797.857C47.8168 797.947 47.8414 798.053 47.8745 798.175C48.071 798.902 48.5581 800.174 49.9763 802.12C50.8813 803.864 50.9918 806.006 50.525 808.318C50.0571 810.635 49.013 813.1 47.6414 815.455C44.894 820.174 40.8661 824.4 37.6295 826.091C36.4351 826.716 35.4748 827.285 34.6905 827.75C34.3911 827.927 34.1173 828.089 33.8659 828.234C33.4077 828.497 33.0279 828.698 32.6972 828.83C32.3668 828.963 32.1008 829.02 31.8681 829.008C31.4231 828.986 31.0074 828.706 30.4467 827.912C29.8878 827.12 29.2292 825.883 28.2795 824.066C26.432 820.532 26.8909 816.257 28.6497 812.415C30.4054 808.58 33.4372 805.223 36.6671 803.529C44.7835 800.788 47.0752 798.615 47.7975 797.857Z" stroke="#C88181" stroke-opacity="0.02" stroke-width="0.480003"/>
<path d="M41.7124 801.421L47.7695 797.934C47.7695 797.934 44.3983 801.181 41.7124 802.339C40.6716 802.788 39.9918 802.79 38.9591 803.257C37.1292 804.084 36.217 804.835 34.7375 806.193C32.4663 808.278 31.5927 809.894 30.1488 812.618C29.3068 814.206 28.6618 815.076 28.3133 816.839C27.8528 819.169 28.2146 820.612 28.8639 822.896C29.3116 824.472 29.9264 825.223 30.5159 826.751C30.981 827.957 31.6172 829.871 31.6172 829.871C31.6172 829.871 28.894 826.531 27.9462 823.998C27.079 821.68 26.6943 820.227 26.8449 817.757C26.957 815.917 27.2693 814.882 27.9462 813.168C28.6777 811.316 29.3174 810.354 30.5159 808.763C32.2859 806.414 33.4992 805.136 36.0224 803.624C38.0662 802.399 41.7124 801.421 41.7124 801.421Z" fill="url(#paint36_linear_1701_346)"/>
<path d="M9.58702 802.152C9.71213 801.301 9.95411 800.133 9.95411 800.133C9.95411 800.133 10.0738 801.542 9.95411 802.703C9.82577 803.948 9.45747 804.777 9.21992 806.006C8.91943 807.561 9.21903 808.504 9.58702 810.044C10.2279 812.727 11.2886 814.041 12.8909 816.285C15.0411 819.297 16.6967 820.707 19.6822 822.893C22.9415 825.28 26.2048 824.621 28.8597 827.665C29.5005 828.4 30.3281 829.684 30.3281 829.684C30.3281 829.684 29.0039 828.761 28.1255 828.216C24.7737 826.135 22.191 826.241 18.948 823.994C15.6148 821.685 13.8542 820.027 11.6061 816.652C10.0597 814.331 8.96203 812.976 8.48572 810.228C8.19193 808.533 8.1194 807.504 8.48572 805.823C8.80038 804.379 9.37208 803.614 9.58702 802.152Z" fill="url(#paint37_linear_1701_346)"/>
<path d="M35.9955 826.217C33.6669 828.375 29.2749 830.789 29.2749 830.789C29.2749 830.789 33.1324 827.686 35.3107 825.395C37.4438 823.152 38.5226 821.77 40.2989 819.235C42.1685 816.566 43.4281 815.12 44.5742 812.07C45.0479 810.81 45.5469 808.762 45.5469 808.762C45.5469 808.762 45.3865 811.107 45.0213 812.558C44.1853 815.881 42.7549 817.432 40.8305 820.267C39.1488 822.744 38.1922 824.183 35.9955 826.217Z" fill="url(#paint38_linear_1701_346)"/>
<path d="M132.302 1622.59C143.96 1624.03 156.989 1624.13 168.858 1622.87C180.728 1621.62 190.59 1619.1 196.531 1615.81C202.472 1612.51 204.067 1608.68 201.007 1605.04C197.947 1601.41 190.449 1598.24 179.97 1596.15C169.492 1594.07 156.78 1593.2 144.303 1593.74C131.826 1594.27 120.475 1596.16 112.454 1599.04C104.433 1601.92 100.314 1605.58 100.897 1609.32C101.481 1613.06 106.725 1616.6 115.612 1619.26L151.685 1608.66L132.302 1622.59Z" fill="#55833F"/>
<path d="M141.947 1612.23L119.042 1617.07L155.736 1606.32L135.801 1620.48L141.947 1612.23Z" fill="#55833F" stroke="#55833F" stroke-width="0.28168"/>
<path d="M156.447 1584.28C157.828 1593.28 156.729 1598.41 155.061 1606.91C147.663 1604.95 127.49 1596.1 130.292 1581.1C132.462 1569.48 131.996 1571.21 137.449 1562.69C142.181 1570.83 155.393 1577.41 156.447 1584.28Z" fill="url(#paint39_linear_1701_346)"/>
<path d="M146.721 1584.96C145.34 1593.97 146.439 1599.1 148.106 1607.59C155.505 1605.64 175.678 1596.78 172.876 1581.78C170.706 1570.16 171.172 1571.9 165.719 1563.38C160.987 1571.51 147.775 1578.09 146.721 1584.96Z" fill="url(#paint40_linear_1701_346)"/>
<path d="M183.128 1586.09C183.128 1595.51 168.927 1608.08 159.516 1608.08C150.105 1608.08 149.898 1610.16 149.898 1600.75C149.898 1591.34 156.676 1588.99 166.087 1588.99C183.128 1584.5 181.328 1575.19 183.128 1586.09Z" fill="url(#paint41_linear_1701_346)"/>
<path d="M183.128 1586.09C183.128 1595.51 168.927 1608.08 159.516 1608.08C150.105 1608.08 149.898 1610.16 149.898 1600.75C149.898 1591.34 156.676 1588.99 166.087 1588.99C183.128 1584.5 181.328 1575.19 183.128 1586.09Z" fill="url(#paint42_linear_1701_346)"/>
<path d="M134.313 1587.9C134.313 1597.31 144.026 1592.5 151.354 1607.67C159.193 1588.41 168.395 1597.31 168.395 1587.9C168.395 1578.49 158.511 1567.79 151.354 1562C143.685 1566.43 134.313 1578.49 134.313 1587.9Z" fill="url(#paint43_radial_1701_346)"/>
<path d="M134.127 1586.37C133.105 1597.44 145.052 1596.54 148.801 1603.24C144.388 1592.84 135.85 1597.65 135.85 1588.24C135.85 1578.83 141.625 1572.74 146.226 1565.58C139.41 1572.56 136.343 1576.65 134.127 1586.37Z" fill="#EEC1A9"/>
<path d="M120.001 1586.18C120.001 1595.59 134.201 1608.16 143.613 1608.16C153.024 1608.16 153.23 1610.25 153.23 1600.83C153.23 1591.42 146.453 1589.08 137.042 1589.08C120.001 1584.58 121.801 1575.27 120.001 1586.18Z" fill="url(#paint44_linear_1701_346)"/>
<path d="M120.001 1586.18C120.001 1595.59 134.201 1608.16 143.613 1608.16C153.024 1608.16 153.23 1610.25 153.23 1600.83C153.23 1591.42 146.453 1589.08 137.042 1589.08C120.001 1584.58 121.801 1575.27 120.001 1586.18Z" fill="url(#paint45_linear_1701_346)"/>
<path d="M131.936 1585.38C129.864 1593.24 141.05 1604.02 147.603 1605.74C154.156 1607.47 153.841 1609.25 155.913 1601.38C157.985 1593.52 150.971 1585.11 144.418 1583.38C127.773 1581.92 135.59 1576.59 131.936 1585.38Z" fill="url(#paint46_radial_1701_346)"/>
<path d="M173.337 1586.54C176.656 1584.83 181.176 1581.08 181.176 1581.08C181.176 1581.08 179.589 1583.02 178.449 1584.15C176.187 1586.39 176.071 1587.46 173.337 1589.09C171.06 1590.45 169.296 1591.62 166.862 1592.67C164.499 1593.68 162.877 1593.82 160.727 1595.23C157.805 1597.14 156.37 1598.26 154.763 1601.36C153.881 1603.06 152.547 1607.67 152.547 1607.67C152.547 1607.67 151.559 1601.76 152.206 1599.32C153.11 1595.91 154.653 1594.09 157.489 1591.99C160.569 1589.71 163.255 1590.38 166.862 1589.09C169.421 1588.17 170.918 1587.78 173.337 1586.54Z" fill="#EAB29F" fill-opacity="0.84"/>
<path d="M170.462 1582.3C173.979 1589.03 165.023 1601.68 158.913 1604.87C152.803 1608.07 153.448 1609.63 149.932 1602.9C146.415 1596.17 151.719 1586.72 157.828 1583.52C173.898 1578.1 165.219 1575.12 170.462 1582.3Z" fill="url(#paint47_radial_1701_346)"/>
<path d="M170.382 1582.35C171.245 1584.01 171.346 1586.03 170.908 1588.2C170.47 1590.37 169.494 1592.67 168.216 1594.87C165.658 1599.26 161.903 1603.2 158.869 1604.79C157.764 1605.37 156.877 1605.89 156.15 1606.32C155.871 1606.49 155.615 1606.64 155.38 1606.78C154.954 1607.02 154.594 1607.21 154.278 1607.34C153.963 1607.46 153.696 1607.52 153.454 1607.51C152.979 1607.49 152.562 1607.18 152.036 1606.44C151.511 1605.7 150.895 1604.54 150.015 1602.85C148.275 1599.53 148.713 1595.51 150.356 1591.92C151.997 1588.34 154.834 1585.2 157.865 1583.61C165.743 1580.95 167.689 1578.87 168.241 1578.28C168.253 1578.27 168.264 1578.26 168.274 1578.25C168.294 1578.23 168.311 1578.21 168.326 1578.19C168.332 1578.22 168.339 1578.25 168.347 1578.29C168.349 1578.3 168.351 1578.32 168.354 1578.33C168.374 1578.43 168.401 1578.56 168.446 1578.72C168.624 1579.38 169.069 1580.55 170.382 1582.35Z" stroke="#C88181" stroke-opacity="0.02" stroke-width="0.187789"/>
<path d="M162.603 1581.77L168.227 1578.53C168.227 1578.53 165.097 1581.55 162.603 1582.62C161.637 1583.04 161.006 1583.04 160.047 1583.47C158.348 1584.24 157.501 1584.94 156.128 1586.2C154.019 1588.14 153.208 1589.63 151.867 1592.16C151.086 1593.64 150.487 1594.45 150.163 1596.08C149.736 1598.25 150.072 1599.59 150.675 1601.71C151.09 1603.17 151.661 1603.87 152.208 1605.29C152.64 1606.4 153.231 1608.18 153.231 1608.18C153.231 1608.18 150.702 1605.08 149.823 1602.73C149.017 1600.58 148.66 1599.23 148.8 1596.94C148.904 1595.23 149.194 1594.27 149.823 1592.68C150.502 1590.96 151.096 1590.06 152.208 1588.59C153.852 1586.4 154.978 1585.22 157.32 1583.81C159.218 1582.68 162.603 1581.77 162.603 1581.77Z" fill="url(#paint48_linear_1701_346)"/>
<path d="M132.779 1582.45C132.895 1581.66 133.12 1580.57 133.12 1580.57C133.12 1580.57 133.231 1581.88 133.12 1582.96C133.001 1584.12 132.659 1584.89 132.438 1586.03C132.159 1587.47 132.437 1588.35 132.779 1589.78C133.374 1592.27 134.359 1593.49 135.846 1595.57C137.843 1598.37 139.38 1599.68 142.152 1601.7C145.177 1603.92 148.207 1603.31 150.672 1606.14C151.267 1606.82 152.035 1608.01 152.035 1608.01C152.035 1608.01 150.806 1607.15 149.99 1606.65C146.878 1604.72 144.481 1604.81 141.47 1602.73C138.375 1600.58 136.741 1599.04 134.654 1595.91C133.218 1593.76 132.199 1592.5 131.757 1589.95C131.484 1588.37 131.417 1587.42 131.757 1585.86C132.049 1584.52 132.58 1583.81 132.779 1582.45Z" fill="url(#paint49_linear_1701_346)"/>
<path d="M157.297 1604.79C155.135 1606.79 151.057 1609.04 151.057 1609.04C151.057 1609.04 154.638 1606.16 156.661 1604.03C158.641 1601.95 159.643 1600.66 161.292 1598.31C163.028 1595.83 164.197 1594.49 165.261 1591.66C165.701 1590.49 166.164 1588.59 166.164 1588.59C166.164 1588.59 166.015 1590.76 165.676 1592.11C164.9 1595.2 163.572 1596.64 161.785 1599.27C160.224 1601.57 159.336 1602.9 157.297 1604.79Z" fill="url(#paint50_linear_1701_346)"/>
<path d="M41.4894 1029C61.0123 1124.74 13.8528 1188.41 -12.1672 1208.27L-30.0008 1180.74C-25.9961 1156.84 -17.5383 1136.31 -13.7317 1129.12C-10.0295 1120.36 0.0343857 1100.52 10.0461 1090.63C20.0579 1080.75 35.1799 1045.43 41.4894 1029Z" fill="#4D7B37" stroke="#5A7639" stroke-width="0.312867"/>
<path d="M-9.49572 1160.94L-16.661 1164.62L-16.1741 1169.31L-7.92166 1163.84C11.7739 1152.31 33.6981 1168.8 42.1984 1178.49L102.819 1237.04C100.166 1216.44 92.9294 1172.67 85.2102 1162.41C77.4911 1152.15 61.8397 1145.59 54.9788 1143.59C32.8392 1136.74 2.77097 1152.3 -9.49572 1160.94Z" fill="#97C65F" stroke="#97C65F" stroke-width="0.274274"/>
<path d="M22.5625 1164.64C6.45449 1206.73 -6.82351 1260.39 20.3727 1343.64C49.5431 1432.94 36.1719 1485.1 13.1839 1522.52" stroke="#61934A" stroke-width="3" stroke-linecap="round"/>
<path d="M29.7238 1481.12L31.3559 1477.19C27.0497 1477.07 22.8274 1479.63 21.2546 1480.92C28.0972 1480.23 29.9318 1480.55 29.7238 1481.12L29.7132 1481.15C29.7172 1481.14 29.7207 1481.13 29.7238 1481.12Z" fill="#61934A"/>
<path d="M31.3559 1477.19L29.7132 1481.15C29.9851 1480.56 28.1986 1480.22 21.2546 1480.92C22.8274 1479.63 27.0497 1477.07 31.3559 1477.19Z" stroke="#61934A" stroke-width="1.15385" stroke-linecap="round"/>
<path d="M30.9161 1384.87L29.7225 1380.78C26.2966 1383.39 24.6096 1388.03 24.1944 1390.02C29.0889 1385.19 30.7209 1384.29 30.9161 1384.87L30.9239 1384.89C30.9216 1384.88 30.919 1384.87 30.9161 1384.87Z" fill="#61934A"/>
<path d="M29.7225 1380.78L30.9239 1384.89C30.7685 1384.26 29.1615 1385.12 24.1944 1390.02C24.6096 1388.03 26.2966 1383.39 29.7225 1380.78Z" stroke="#61934A" stroke-width="1.15385" stroke-linecap="round"/>
<path d="M14.0191 1522.4C10.8696 1521.25 4.00573 1521.4 1.7465 1531.16C-0.434895 1540.58 -2.66979 1543.18 -3.60965 1543.35C-3.64159 1543.36 -3.67345 1543.36 -3.70524 1543.36C-3.67507 1543.36 -3.64318 1543.36 -3.60965 1543.35C6.3966 1542.37 23.7858 1536.84 14.0191 1522.4Z" fill="#61934A" stroke="#61934A" stroke-width="0.337854"/>
<path d="M2.2178 1540.23C6.24262 1539.34 14.2526 1535.25 14.0937 1526.04C15.4884 1530.08 15.0658 1538.57 2.2178 1540.23Z" fill="#7AB55E"/>
<path d="M22.3983 1479.26C23.7875 1481.77 24.5766 1487.6 16.6203 1490.82C8.93808 1493.92 7.03238 1496.16 7.0132 1496.98C7.01483 1497.01 7.01649 1497.04 7.01817 1497.06C7.01423 1497.04 7.01252 1497.01 7.0132 1496.98C6.50286 1488.38 8.86474 1472.92 22.3983 1479.26Z" fill="#61934A" stroke="#61934A" stroke-width="0.289558"/>
<path d="M8.87356 1491.63C9.09318 1488.11 11.4864 1480.78 19.3022 1479.68C15.6974 1479.04 8.56502 1480.53 8.87356 1491.63Z" fill="#7AB55E"/>
<path d="M36.7571 1439.15L37.5686 1434.97C41.2208 1437.25 43.3285 1441.72 43.9258 1443.66C38.6064 1439.3 36.8985 1438.56 36.7571 1439.15L36.7519 1439.18C36.7533 1439.17 36.755 1439.16 36.7571 1439.15Z" fill="#61934A"/>
<path d="M37.5686 1434.97L36.7519 1439.18C36.8487 1438.54 38.5276 1439.24 43.9258 1443.66C43.3285 1441.72 41.2208 1437.25 37.5686 1434.97Z" stroke="#61934A" stroke-width="1.15385" stroke-linecap="round"/>
<path d="M43.8942 1441.64C41.348 1442.97 37.4697 1447.4 42.326 1454.47C47.0149 1461.3 47.3664 1464.22 46.9304 1464.92C46.9138 1464.94 46.8973 1464.96 46.8808 1464.98C46.8982 1464.96 46.9148 1464.94 46.9304 1464.92C52.1065 1458.03 58.6766 1443.83 43.8942 1441.64Z" fill="#61934A" stroke="#61934A" stroke-width="0.289558"/>
<path d="M48.3342 1459.43C50.099 1456.37 52.1511 1448.94 46.2409 1443.71C49.6 1445.17 54.7215 1450.35 48.3342 1459.43Z" fill="#7AB55E"/>
<path d="M15.8584 1327.74L15.504 1324.07C19.7006 1325.59 22.9859 1329.16 24.104 1330.75C17.708 1327.65 15.8346 1327.22 15.8584 1327.74L15.8607 1327.76C15.8595 1327.75 15.8587 1327.75 15.8584 1327.74Z" fill="#61934A"/>
<path d="M15.504 1324.07L15.8607 1327.76C15.7801 1327.21 17.6132 1327.61 24.104 1330.75C22.9859 1329.16 19.7006 1325.59 15.504 1324.07Z" stroke="#61934A" stroke-width="1.15385" stroke-linecap="round"/>
<path d="M22.4966 1328.34C20.4934 1330.39 18.1931 1335.81 25.0183 1341.01C31.6084 1346.04 32.8553 1348.7 32.6577 1349.49C32.6489 1349.52 32.6401 1349.55 32.6312 1349.57C32.6418 1349.55 32.6507 1349.52 32.6577 1349.49C35.4203 1341.33 37.2231 1325.8 22.4966 1328.34Z" fill="#61934A" stroke="#61934A" stroke-width="0.289558"/>
<path d="M32.2765 1343.85C32.9956 1340.39 32.6214 1332.69 25.3721 1329.57C29.0182 1329.9 35.5037 1333.22 32.2765 1343.85Z" fill="#7AB55E"/>
<path d="M6.02122 1269.7L5.52201 1266.25C9.88416 1267.83 13.3869 1271.3 14.593 1272.83C7.91589 1269.69 5.97759 1269.21 6.02122 1269.7L6.02446 1269.73C6.02295 1269.72 6.02187 1269.71 6.02122 1269.7Z" fill="#61934A"/>
<path d="M5.52201 1266.25L6.02446 1269.73C5.92117 1269.2 7.81692 1269.64 14.593 1272.83C13.3869 1271.3 9.88416 1267.83 5.52201 1266.25Z" stroke="#61934A" stroke-width="1.15385" stroke-linecap="round"/>
<path d="M12.7175 1270.58C10.7674 1272.69 8.60601 1278.16 15.5617 1283.19C22.2777 1288.04 23.5921 1290.67 23.4149 1291.47C23.4068 1291.5 23.3986 1291.53 23.3904 1291.55C23.4004 1291.53 23.4086 1291.5 23.4149 1291.47C25.9684 1283.24 27.3743 1267.67 12.7175 1270.58Z" fill="#61934A" stroke="#61934A" stroke-width="0.289558"/>
<path d="M22.8912 1285.84C23.5218 1282.36 22.9514 1274.67 15.6248 1271.74C19.2783 1271.98 25.8463 1275.13 22.8912 1285.84Z" fill="#7AB55E"/>
<path d="M16.4493 1184.07L17.8513 1180.8C20.855 1184.83 22.0955 1189.96 22.3403 1192.02C18.1274 1185.22 16.6719 1183.62 16.4493 1184.07L16.4402 1184.09C16.4429 1184.08 16.446 1184.07 16.4493 1184.07Z" fill="#61934A"/>
<path d="M17.8513 1180.8L16.4402 1184.09C16.6294 1183.57 18.0649 1185.12 22.3403 1192.02C22.0955 1189.96 20.855 1184.83 17.8513 1180.8Z" stroke="#61934A" stroke-width="1.15385" stroke-linecap="round"/>
<path d="M21.3628 1188.61C18.7012 1189.69 14.4174 1193.73 18.5745 1201.23C22.5885 1208.48 22.659 1211.42 22.1587 1212.07C22.1401 1212.09 22.1216 1212.11 22.1031 1212.13C22.1222 1212.11 22.1408 1212.09 22.1587 1212.07C27.97 1205.71 35.8678 1192.21 21.3628 1188.61Z" fill="#61934A" stroke="#61934A" stroke-width="0.289558"/>
<path d="M24.0807 1206.74C26.1303 1203.87 28.8838 1196.67 23.5011 1190.89C26.7054 1192.67 31.3075 1198.32 24.0807 1206.74Z" fill="#7AB55E"/>
<path d="M25.3793 1386.33C27.6205 1388.13 30.5695 1393.22 24.4361 1399.22C18.514 1405.02 17.6042 1407.81 17.898 1408.58C17.91 1408.6 17.9219 1408.63 17.9339 1408.65C17.9205 1408.63 17.9085 1408.61 17.898 1408.58C14.1524 1400.82 10.4522 1385.62 25.3793 1386.33Z" fill="#61934A" stroke="#61934A" stroke-width="0.289558"/>
<path d="M17.5827 1402.92C16.4434 1399.58 15.8676 1391.89 22.678 1387.9C19.1006 1388.68 13.0731 1392.78 17.5827 1402.92Z" fill="#7AB55E"/>
<path d="M8.47809 1299.07L7.92542 1295.44C3.97461 1298.45 1.47642 1303.07 0.721169 1305.01C6.54716 1299.68 8.37218 1298.57 8.47809 1299.07L8.48168 1299.1C8.48086 1299.09 8.47966 1299.08 8.47809 1299.07Z" fill="#61934A"/>
<path d="M7.92542 1295.44L8.48168 1299.1C8.4254 1298.53 6.63351 1299.6 0.721169 1305.01C1.47642 1303.07 3.97461 1298.45 7.92542 1295.44Z" stroke="#61934A" stroke-width="1.15385" stroke-linecap="round"/>
<path d="M2.63957 1302.53C4.88026 1304.33 7.82789 1309.42 1.69289 1315.42C-4.23076 1321.22 -5.14124 1324.01 -4.84767 1324.78C-4.83572 1324.8 -4.82377 1324.83 -4.81182 1324.85C-4.82519 1324.83 -4.83719 1324.8 -4.84767 1324.78C-8.59121 1317.02 -12.2873 1301.82 2.63957 1302.53Z" fill="#61934A" stroke="#61934A" stroke-width="0.289558"/>
<path d="M-5.16134 1319.12C-6.29966 1315.78 -6.87343 1308.09 -0.0619411 1304.1C-3.63959 1304.88 -9.66818 1308.98 -5.16134 1319.12Z" fill="#7AB55E"/>
<path d="M7.45832 1216.18L6.8547 1212.24C2.15864 1216.89 -0.846579 1222.92 -1.76218 1225.35C5.17454 1217.47 7.34014 1215.64 7.45832 1216.18L7.46223 1216.2C7.46137 1216.19 7.46007 1216.19 7.45832 1216.18Z" fill="#61934A"/>
<path d="M6.8547 1212.24L7.46223 1216.2C7.40329 1215.58 5.27736 1217.35 -1.76218 1225.35C-0.846579 1222.92 2.15864 1216.89 6.8547 1212.24Z" stroke="#61934A" stroke-width="1.15385" stroke-linecap="round"/>
<path d="M-1.49987 1223.4C0.707275 1225.23 3.56039 1230.38 -2.68435 1236.27C-8.71396 1241.95 -9.67592 1244.73 -9.3965 1245.5C-9.38501 1245.52 -9.37352 1245.55 -9.36203 1245.57C-9.37498 1245.55 -9.38653 1245.53 -9.3965 1245.5C-12.9961 1237.67 -16.4111 1222.41 -1.49987 1223.4Z" fill="#61934A" stroke="#61934A" stroke-width="0.289558"/>
<path d="M-9.60815 1239.84C-10.6845 1236.47 -11.1163 1228.78 -4.23235 1224.92C-7.82376 1225.63 -13.9269 1229.61 -9.60815 1239.84Z" fill="#7AB55E"/>
<path d="M22.4152 1163.33C23.4395 1165.84 23.532 1171.4 15.7068 1173.54C8.15122 1175.6 6.11356 1177.49 6.00455 1178.26C6.00303 1178.28 6.00154 1178.31 6.00009 1178.33C5.99923 1178.31 6.00066 1178.28 6.00455 1178.26C6.48185 1170.13 10.4175 1155.88 22.4152 1163.33Z" fill="#61934A" stroke="#61934A" stroke-width="0.27367"/>
<path d="M8.34575 1173.44C8.94399 1170.16 12.0048 1163.54 19.4624 1163.38C16.1503 1162.38 9.29012 1162.99 8.34575 1173.44Z" fill="#7AB55E"/>
<path d="M1065.19 1893.9C1039.02 1897.12 1009.77 1897.35 983.129 1894.53C956.487 1891.72 934.348 1886.06 921.013 1878.67C907.677 1871.27 904.096 1862.66 910.966 1854.51C917.835 1846.36 934.665 1839.25 958.186 1834.56C981.707 1829.87 1010.24 1827.93 1038.25 1829.13C1066.25 1830.32 1091.73 1834.57 1109.74 1841.03C1127.74 1847.5 1136.99 1855.72 1135.68 1864.11C1134.37 1872.5 1122.6 1880.45 1102.65 1886.43L1021.68 1862.64L1065.19 1893.9Z" fill="#4D7B37"/>
<path d="M1043.53 1870.66L1094.94 1881.51L1012.58 1857.39L1057.32 1889.17L1043.53 1870.66Z" fill="#4D7B37" stroke="#4D7B37" stroke-width="0.28168"/>
<path d="M965.634 1837.75C968.39 1854.15 990.826 1865.01 1003.29 1865.01C1004.9 1865.01 1007.97 1862.21 1007.42 1850.99C1006.87 1839.78 994.867 1839.73 988.934 1841.11C983.518 1838.73 981.179 1831.79 994.179 1815.49C1010.43 1795.11 994.265 1768.83 975.522 1765.88C962.226 1763.79 950.331 1769.4 945.172 1777.31C939.469 1786.06 945.946 1803.02 951.362 1798.89C962.151 1790.67 971.137 1794.25 970.019 1810.67C969.389 1819.94 964.001 1828.04 965.634 1837.75Z" fill="#FFFCF9"/>
<path d="M965.634 1837.75C968.39 1854.15 990.826 1865.01 1003.29 1865.01C1004.9 1865.01 1007.97 1862.21 1007.42 1850.99C1006.87 1839.78 994.867 1839.73 988.934 1841.11C983.518 1838.73 981.179 1831.79 994.179 1815.49C1010.43 1795.11 994.265 1768.83 975.522 1765.88C962.226 1763.79 950.331 1769.4 945.172 1777.31C939.469 1786.06 945.946 1803.02 951.362 1798.89C962.151 1790.67 971.137 1794.25 970.019 1810.67C969.389 1819.94 964.001 1828.04 965.634 1837.75Z" fill="#DBA478"/>
<path d="M951.014 1799.15C955.107 1797.44 960.643 1791.24 966.919 1796.83C965.381 1794.01 967.017 1788.66 971.871 1790.54C971.871 1787.37 972.852 1784.71 977.408 1784.02C974.485 1779.55 978.504 1774.68 983.702 1778.58C981.535 1776.37 983.93 1769.67 989.188 1772.5C965.63 1754.27 947.059 1773.79 944.651 1778C939.661 1786.73 944.651 1801.82 951.014 1799.15Z" fill="#F3EFEA"/>
<path d="M950.842 1799.15C948.3 1801.08 945.196 1795.83 944.651 1793.56C949.581 1786.89 961.916 1776.11 972.164 1787.8C971.992 1788.55 971.7 1790.14 971.906 1790.55C972.164 1791.07 964.77 1788.75 966.748 1796.23C960.244 1792.04 954.082 1796.7 950.887 1799.12L950.842 1799.15Z" fill="#CBB9A9"/>
<path d="M967.521 1823.31C979.833 1807.7 975.574 1793.05 972.249 1787.89C971.974 1788.37 971.877 1789.93 971.905 1790.56C966.231 1788.58 965.285 1794.51 967.177 1796.66C972.473 1803.95 969.727 1817.41 967.521 1823.31Z" fill="#CD9163"/>
<path d="M969.932 1847.3C979.562 1860.2 996.901 1864.87 1002.86 1864.84C1022.12 1859.06 1001.46 1846.78 988.676 1841.19C984.778 1839.96 979.734 1832.85 992.802 1817.04C1008.85 1797.6 996.241 1779.29 991.341 1774.82C994.436 1801.82 985.15 1807.06 980.25 1813.77C975.349 1820.47 968.557 1828.81 971.566 1838.44C972.899 1842.71 972.626 1845.24 969.932 1847.3Z" fill="#CD9163"/>
<path d="M1019.52 1754.87C1024.54 1754.32 1031.18 1754.64 1033.64 1754.87C1039.82 1746.02 1049.62 1738.37 1051 1741.29C1052.25 1743.95 1052.54 1754.87 1052.54 1760.89C1054.78 1765.45 1060.44 1779.21 1048.16 1788.23C1055.32 1803.88 1082.59 1859.42 1043.56 1866.64C1039.83 1867.42 1025.49 1870.08 1009.05 1866.64C970.013 1859.42 997.847 1803.88 1005.01 1788.23C992.726 1779.21 998.386 1765.45 1000.62 1760.89C1000.62 1754.87 1000.92 1743.95 1002.17 1741.29C1003.54 1738.37 1013.35 1746.02 1019.52 1754.87Z" fill="#F3EFEA"/>
<path d="M1019.53 1754.87C1024.55 1754.32 1031.18 1754.64 1033.65 1754.87C1039.82 1746.02 1049.63 1738.37 1051 1741.29C1052.25 1743.95 1052.55 1754.87 1052.55 1760.89C1053.42 1762.96 1054.45 1765.02 1055.14 1768.03C1049.35 1771.12 1035.33 1774.32 1026.59 1762.35C1017.86 1774.32 1003.75 1771.12 997.962 1768.03C998.65 1765.02 999.759 1762.96 1000.63 1760.89C1000.63 1754.87 1000.92 1743.95 1002.17 1741.29C1003.55 1738.37 1013.35 1746.02 1019.53 1754.87Z" fill="#DBA478"/>
<ellipse cx="2.83724" cy="3.43908" rx="2.83724" ry="3.43908" transform="matrix(-1 0 0 1 1039.65 1765.96)" fill="#5F4B3D"/>
<ellipse cx="2.83724" cy="3.43908" rx="2.83724" ry="3.43908" transform="matrix(-1 0 0 1 1020.05 1765.96)" fill="#5F4B3D"/>
<path d="M1029.75 1771.92C1031.36 1772.82 1028.58 1774.87 1026.92 1775.94C1025.57 1774.8 1022.8 1772.86 1023.9 1772.06C1025.52 1770.88 1028.26 1771.09 1029.75 1771.92Z" fill="#5F4B3D"/>
<path d="M1020.83 1776.63C1025.47 1780.75 1028.08 1777.31 1027.88 1775.25C1027.39 1774.48 1026.21 1773.5 1026.07 1775.08C1025.73 1778.86 1022.47 1776.03 1021.43 1775.77C1020.74 1775.59 1020.63 1776.37 1020.83 1776.63Z" fill="#5F4B3D"/>
<path d="M1032.96 1776.63C1028.32 1780.75 1025.71 1777.31 1025.91 1775.25C1026.4 1774.48 1027.57 1773.5 1027.71 1775.08C1028.06 1778.86 1031.31 1776.03 1032.36 1775.77C1033.05 1775.59 1033.16 1776.37 1032.96 1776.63Z" fill="#5F4B3D"/>
<path d="M1048.34 1788.06C1056.6 1782.97 1056.31 1772.58 1055.13 1768.03C1053.69 1768.92 1050.98 1769.78 1049.8 1770.09C1050.98 1774.65 1050.92 1782.37 1042.67 1787.46C1043.67 1788.23 1045.87 1789.44 1048.34 1788.06Z" fill="#DED2C7"/>
<path d="M1005.36 1788.06C997.107 1782.97 997.394 1772.58 998.569 1768.03C1000.01 1768.92 1002.72 1769.78 1003.9 1770.09C1002.72 1774.65 1002.78 1782.37 1011.04 1787.46C1010.03 1788.23 1007.84 1789.44 1005.36 1788.06Z" fill="#DED2C7"/>
<path d="M1015.58 1792.71C1024.46 1802.75 1033.61 1796.89 1036.97 1792.71C1042.33 1785.83 1035.65 1787.26 1031.64 1788.84C1030.06 1789.44 1025.04 1790.28 1020.91 1788.84C1016.9 1787.26 1010.22 1785.83 1015.58 1792.71Z" fill="#DED2C7"/>
<path d="M1039.48 1754.53C1041.2 1751.43 1046.29 1743.87 1048.77 1742.84" stroke="#AD8A70" stroke-width="0.498955" stroke-linecap="round"/>
<path d="M1011.48 1752.69C1011.5 1752.73 1011.52 1752.77 1011.54 1752.81C1011.52 1752.77 1011.5 1752.73 1011.48 1752.69C1009.73 1749.57 1006.25 1744.11 1003.8 1743.09C1003.35 1744.81 1002.36 1749.51 1002.43 1753.5C1004.32 1749.97 1006.99 1755.3 1007.59 1753.5C1008.19 1751.69 1005.7 1749.8 1007.33 1750.57C1008.96 1751.35 1009.31 1754.18 1009.14 1752.21C1008.96 1750.23 1005.35 1747.74 1007.76 1749.03C1009.59 1750.01 1010.98 1751.82 1011.48 1752.69Z" fill="#FFEEE7"/>
<path d="M1011.71 1752.98C1011.28 1752.18 1009.86 1750.23 1007.93 1749.2C1005.52 1747.91 1009.14 1750.4 1009.31 1752.38C1009.48 1754.36 1009.14 1751.52 1007.5 1750.75C1005.87 1749.97 1008.36 1751.86 1007.76 1753.67" stroke="#AD8A70" stroke-width="0.332637" stroke-linecap="round"/>
<path d="M1040.33 1753.54C1040.3 1753.58 1040.28 1753.63 1040.26 1753.67C1040.28 1753.63 1040.3 1753.59 1040.33 1753.54C1042.09 1750.4 1046.16 1744.28 1048.6 1743.27C1049.06 1744.99 1049.96 1750.37 1049.89 1754.36C1048 1750.83 1044.81 1756.16 1044.21 1754.36C1043.61 1752.55 1046.1 1750.66 1044.47 1751.43C1042.84 1752.21 1042.49 1755.04 1042.67 1753.07C1042.84 1751.09 1046.45 1748.6 1044.04 1749.89C1042.21 1750.87 1040.83 1752.68 1040.33 1753.54Z" fill="#FFEEE7"/>
<path d="M1040.09 1753.84C1040.52 1753.04 1041.94 1751.09 1043.87 1750.06C1046.28 1748.77 1042.67 1751.26 1042.49 1753.24C1042.32 1755.22 1042.67 1752.38 1044.3 1751.61C1045.93 1750.83 1043.44 1752.72 1044.04 1754.53" stroke="#AD8A70" stroke-width="0.332637" stroke-linecap="round"/>
<path d="M1012.23 1753.84C1010.51 1750.75 1006.45 1744.3 1003.98 1743.27" stroke="#AD8A70" stroke-width="0.498955" stroke-linecap="round"/>
<path d="M1052.64 1842.14C1051.95 1859.16 1047.91 1863.29 1043.01 1866.82C1047.91 1866.07 1057.37 1862.86 1061.32 1854.26C1059.03 1852.29 1055.05 1848.5 1052.64 1842.14Z" fill="#CBB9A9"/>
<path d="M1001.66 1838.45C1002.34 1857.02 1005.35 1863.29 1011.46 1866.82C1006.56 1866.07 995.896 1863.46 991.941 1854.87C994.234 1852.89 999.249 1844.81 1001.66 1838.45Z" fill="#CBB9A9"/>
<path d="M1022.46 1867.89C1024.48 1868.59 1029.38 1868.18 1031.58 1867.89C1030.8 1865.16 1029.34 1863.03 1028.91 1847.39C1028.28 1847.93 1026.68 1848.68 1024.7 1847.39C1024.63 1861.82 1024.27 1867.42 1022.46 1867.89Z" fill="#DED2C7"/>
<path d="M1049.78 1806.98C1049.35 1802.91 1044.91 1792.48 1042.93 1787.63C1043.77 1788.12 1046.02 1788.56 1047.83 1788.06C1050.15 1792.79 1050.77 1801.37 1049.78 1806.98Z" fill="#DED2C7"/>
<path d="M1036.99 1756.77C1047.82 1760.63 1048.51 1765.02 1049.8 1770.07C1051.35 1769.67 1054.69 1768.75 1055.3 1768.2C1054.76 1766.22 1053.59 1762.01 1052.55 1760.98C1052.73 1754.42 1052.67 1741.08 1050.75 1740.6L1050.66 1740.77L1049.89 1741.29C1050.71 1742.39 1050.58 1751.89 1050.66 1756.34C1050.23 1758.48 1050.75 1761.46 1047.65 1758.23C1044.56 1754.99 1041.29 1756.77 1036.99 1756.77Z" fill="#CD9163"/>
<path d="M1008.79 1759.69C1004.84 1762.18 1005.18 1764.96 1003.89 1770.01C1002.35 1769.6 998.752 1768.58 998.133 1768.03C998.677 1766.05 999.594 1762.01 1000.63 1760.98C1000.63 1754.44 1001.14 1742.41 1002.35 1741.03L1002.43 1741.12V1741.72C1001.61 1742.82 1001.49 1753.01 1001.4 1757.45C1002.43 1758 1007.07 1759.4 1008.79 1759.69Z" fill="#CD9163"/>
<path d="M1004.16 1740.52C1008.35 1741.34 1016.17 1750.37 1019.55 1754.79C1018.89 1754.85 1017.04 1755.13 1015.25 1755.82C1013.01 1756.68 1015.25 1754.7 1014.39 1751.95C1013.53 1749.2 1007.6 1742.32 1004.16 1740.52Z" fill="#CD9163"/>
<path d="M1048.69 1741.03C1044.49 1741.86 1036.76 1750.37 1033.38 1754.79C1034.04 1754.84 1034.95 1754.87 1036.74 1755.56C1038.52 1756.25 1035.88 1755.05 1036.74 1752.29C1037.6 1749.54 1045.25 1742.84 1048.69 1741.03Z" fill="#CD9163"/>
<ellipse cx="8.16782" cy="6.96414" rx="8.16782" ry="6.96414" transform="matrix(-1 0 0 1 1009.91 1771.12)" fill="#F1B09E"/>
<ellipse cx="8.16782" cy="6.96414" rx="8.16782" ry="6.96414" transform="matrix(-1 0 0 1 1060.46 1771.12)" fill="#F1B09E"/>
<path d="M988.305 1765.55C997.161 1764.7 1004.83 1767.93 1011.15 1771.92C1011.54 1772.31 1011.74 1773.7 1010.62 1772.84C1009.12 1771.68 1000.8 1765.31 988.715 1765.68C987.859 1765.6 989.142 1765.53 988.305 1765.55Z" fill="#FEFDFB"/>
<path d="M984.934 1774.19C993.996 1770.68 1002.88 1771.51 1010.56 1773.49C1011.06 1773.75 1011.64 1775.04 1010.24 1774.54C1008.36 1773.87 997.968 1770.17 985.397 1774.18C984.48 1774.37 985.807 1773.91 984.934 1774.19Z" fill="#FEFDFB"/>
<path d="M991.169 1786.14C996.408 1779.84 1003.38 1776.89 1009.95 1775.28C1010.44 1775.26 1011.43 1776.01 1010.17 1776.2C1008.48 1776.45 999.149 1777.86 991.513 1785.96C990.911 1786.47 991.702 1785.59 991.169 1786.14Z" fill="#FEFDFB"/>
<path d="M1065.69 1765.55C1056.83 1764.7 1049.17 1767.93 1042.84 1771.92C1042.46 1772.31 1042.25 1773.7 1043.37 1772.84C1044.88 1771.68 1053.2 1765.31 1065.28 1765.68C1066.14 1765.6 1064.85 1765.53 1065.69 1765.55Z" fill="#FEFDFB"/>
<path d="M1069.05 1774.19C1059.99 1770.68 1051.11 1771.51 1043.43 1773.49C1042.93 1773.75 1042.35 1775.04 1043.75 1774.54C1045.63 1773.87 1056.02 1770.17 1068.59 1774.18C1069.51 1774.37 1068.18 1773.91 1069.05 1774.19Z" fill="#FEFDFB"/>
<path d="M1062.82 1786.15C1057.58 1779.85 1050.6 1776.89 1044.04 1775.28C1043.55 1775.27 1042.56 1776.01 1043.81 1776.2C1045.51 1776.45 1054.84 1777.86 1062.48 1785.96C1063.08 1786.47 1062.29 1785.59 1062.82 1786.15Z" fill="#FEFDFB"/>
<path d="M1021.17 1869.22C1024.37 1868.21 1025.39 1857.62 1025.39 1835.43C1019.02 1834.06 1005.34 1830.43 1001.49 1826.92C1002.43 1854.43 1003.01 1861.95 1013.69 1868.02C1016.87 1869.82 1019.54 1869.74 1021.17 1869.22Z" fill="#F3EFEA"/>
<path d="M1033.21 1869.22C1030.01 1868.21 1029 1857.62 1029 1835.43C1036.96 1832.97 1052.9 1827.82 1052.9 1826.92C1051.95 1854.43 1051.37 1861.95 1040.69 1868.02C1037.51 1869.82 1034.84 1869.74 1033.21 1869.22Z" fill="#F3EFEA"/>
<path d="M1053.41 1825.98L1028.74 1835.18L1029.51 1851.43L1051.61 1846.78L1053.41 1825.98Z" fill="#F3EFEA"/>
<path d="M1001.05 1826.06L1025.73 1834.57L1024.78 1850.91L1002.52 1843.69L1001.05 1826.06Z" fill="#F3EFEA"/>
<path d="M1051.21 1841.72C1052.83 1840.66 1052.76 1843.01 1052.59 1844.98C1051.83 1853.67 1051.21 1863.3 1039.86 1868.54C1035.12 1870.73 1033.07 1868.71 1032.38 1867.17C1051.55 1865.45 1045.28 1845.59 1051.21 1841.72Z" fill="#E5DDD8"/>
<path d="M1020.4 1869.14C1024.52 1867.96 1024.52 1849.11 1024.95 1838.44C1025.06 1835.78 1021.69 1839.05 1021.69 1841.02C1021.69 1849.36 1019.1 1862.5 1016.1 1864.58C1014.98 1865.53 1011.92 1866.61 1007.93 1863.72C1013.52 1869.4 1018.25 1869.91 1020.4 1869.14Z" fill="#E5DDD8"/>
<path d="M991.772 1854.78C983.518 1841.37 994.523 1809.81 1004.32 1790.21C1003.95 1791.16 1001.37 1802.61 1004.67 1815.75C1007.97 1828.88 997.963 1850.65 991.772 1854.78Z" fill="#DBA478"/>
<path d="M1060.81 1854.61C1069.24 1841.31 1059.35 1812.05 1048.86 1790.47C1049.22 1791.42 1051.79 1802.21 1048.32 1815.3C1044.84 1828.39 1054.68 1850.4 1060.81 1854.61Z" fill="#DBA478"/>
<path d="M1053.84 1844.98C1056.32 1837.07 1052.21 1815.95 1049.89 1806.72C1050.92 1802.8 1049.37 1793.54 1048.51 1789.01C1056.02 1803.37 1070.35 1836.64 1061.15 1854.78C1058.97 1853 1054.87 1848.35 1053.84 1844.98Z" fill="#CD9163"/>
<path d="M996.846 1847.39C994.37 1839.48 995.729 1823.57 1002.78 1802.51C1002.78 1798.64 1002.86 1795.43 1003.72 1790.9C996.674 1805.94 982.746 1837.84 991.602 1854.69C993.78 1852.92 995.815 1850.76 996.846 1847.39Z" fill="#CD9163"/>
<defs>
<filter id="filter0_i_1701_346" x="-2347" y="91" width="4174.04" height="2818.47" filterUnits="userSpaceOnUse" color-interpolation-filters="sRGB">
<feFlood flood-opacity="0" result="BackgroundImageFix"/>
<feBlend mode="normal" in="SourceGraphic" in2="BackgroundImageFix" result="shape"/>
<feColorMatrix in="SourceAlpha" type="matrix" values="0 0 0 0 0 0 0 0 0 0 0 0 0 0 0 0 0 0 127 0" result="hardAlpha"/>
<feOffset dy="5"/>
<feGaussianBlur stdDeviation="2.5"/>
<feComposite in2="hardAlpha" operator="arithmetic" k2="-1" k3="1"/>
<feColorMatrix type="matrix" values="0 0 0 0 0.349642 0 0 0 0 0.699094 0 0 0 0 0.632698 0 0 0 1 0"/>
<feBlend mode="normal" in2="shape" result="effect1_innerShadow_1701_346"/>
</filter>
<linearGradient id="paint0_linear_1701_346" x1="-242.092" y1="74.875" x2="1597.5" y2="75" gradientUnits="userSpaceOnUse">
<stop stop-color="#967D5C"/>
<stop offset="0.51" stop-color="#B49A78"/>
<stop offset="1" stop-color="#967D5C"/>
</linearGradient>
<linearGradient id="paint1_linear_1701_346" x1="-242.092" y1="64.8749" x2="1597.5" y2="64.9999" gradientUnits="userSpaceOnUse">
<stop stop-color="#967D5C"/>
<stop offset="0.51" stop-color="#B49A78"/>
<stop offset="1" stop-color="#967D5C"/>
</linearGradient>
<linearGradient id="paint2_linear_1701_346" x1="106.575" y1="1381.76" x2="111.605" y2="1859.2" gradientUnits="userSpaceOnUse">
<stop offset="0.234375" stop-color="#78D2C1"/>
<stop offset="1" stop-color="#78D2C1" stop-opacity="0"/>
</linearGradient>
<linearGradient id="paint3_linear_1701_346" x1="1143.24" y1="1745.71" x2="1146.44" y2="1765.8" gradientUnits="userSpaceOnUse">
<stop stop-color="#F1B09E"/>
<stop offset="1" stop-color="#FAE6CE"/>
</linearGradient>
<linearGradient id="paint4_linear_1701_346" x1="1180.84" y1="1746.62" x2="1177.64" y2="1766.72" gradientUnits="userSpaceOnUse">
<stop stop-color="#F1B09E"/>
<stop offset="1" stop-color="#FAE6CE"/>
</linearGradient>
<linearGradient id="paint5_linear_1701_346" x1="1190.72" y1="1783.62" x2="1161.71" y2="1801.89" gradientUnits="userSpaceOnUse">
<stop stop-color="#EFB7A4"/>
<stop offset="0.942708" stop-color="#F7E7D8"/>
</linearGradient>
<linearGradient id="paint6_linear_1701_346" x1="1190.72" y1="1783.62" x2="1161.71" y2="1801.89" gradientUnits="userSpaceOnUse">
<stop stop-color="#EFB7A4"/>
<stop offset="0.942708" stop-color="#F7E7D8"/>
</linearGradient>
<radialGradient id="paint7_radial_1701_346" cx="0" cy="0" r="1" gradientUnits="userSpaceOnUse" gradientTransform="translate(1161.51 1754.84) rotate(89.731) scale(48.6444 36.3018)">
<stop stop-color="#FADFCC"/>
<stop offset="1" stop-color="#F1BEAB"/>
</radialGradient>
<linearGradient id="paint8_linear_1701_346" x1="1133.32" y1="1783.74" x2="1162.32" y2="1802.01" gradientUnits="userSpaceOnUse">
<stop stop-color="#EFB7A4"/>
<stop offset="0.942708" stop-color="#F7E7D8"/>
</linearGradient>
<linearGradient id="paint9_linear_1701_346" x1="1133.32" y1="1783.74" x2="1162.32" y2="1802.01" gradientUnits="userSpaceOnUse">
<stop stop-color="#EFB7A4"/>
<stop offset="0.942708" stop-color="#F7E7D8"/>
</linearGradient>
<radialGradient id="paint10_radial_1701_346" cx="0" cy="0" r="1" gradientUnits="userSpaceOnUse" gradientTransform="translate(1163.29 1798.93) rotate(-139.07) scale(37.2212 51.1887)">
<stop stop-color="#FCE5D0"/>
<stop offset="1" stop-color="#EFB7A4"/>
</radialGradient>
<radialGradient id="paint11_radial_1701_346" cx="0" cy="0" r="1" gradientUnits="userSpaceOnUse" gradientTransform="translate(1165.03 1799.53) rotate(-51.8626) scale(37.2782 48.5241)">
<stop stop-color="#FCE5D0"/>
<stop offset="1" stop-color="#EFB7A4"/>
</radialGradient>
<linearGradient id="paint12_linear_1701_346" x1="1171.31" y1="1764.43" x2="1171.31" y2="1804.17" gradientUnits="userSpaceOnUse">
<stop stop-color="#F0BFAF"/>
<stop offset="1" stop-color="#F0BFAF" stop-opacity="0"/>
</linearGradient>
<linearGradient id="paint13_linear_1701_346" x1="1148.91" y1="1767.18" x2="1148.91" y2="1803.94" gradientUnits="userSpaceOnUse">
<stop stop-color="#F4B59C"/>
<stop offset="1" stop-color="#F1C4B2" stop-opacity="0"/>
</linearGradient>
<linearGradient id="paint14_linear_1701_346" x1="1169.62" y1="1779.77" x2="1173.3" y2="1803.46" gradientUnits="userSpaceOnUse">
<stop stop-color="#F1BCA9"/>
<stop offset="1" stop-color="#F1BCA9" stop-opacity="0"/>
</linearGradient>
<linearGradient id="paint15_linear_1701_346" x1="204.797" y1="757.748" x2="206.002" y2="765.32" gradientUnits="userSpaceOnUse">
<stop stop-color="#F1B09E"/>
<stop offset="1" stop-color="#FAE6CE"/>
</linearGradient>
<linearGradient id="paint16_linear_1701_346" x1="218.961" y1="758.091" x2="217.756" y2="765.663" gradientUnits="userSpaceOnUse">
<stop stop-color="#F1B09E"/>
<stop offset="1" stop-color="#FAE6CE"/>
</linearGradient>
<linearGradient id="paint17_linear_1701_346" x1="222.681" y1="772.03" x2="211.753" y2="778.914" gradientUnits="userSpaceOnUse">
<stop stop-color="#EFB7A4"/>
<stop offset="0.942708" stop-color="#F7E7D8"/>
</linearGradient>
<linearGradient id="paint18_linear_1701_346" x1="222.681" y1="772.03" x2="211.753" y2="778.914" gradientUnits="userSpaceOnUse">
<stop stop-color="#EFB7A4"/>
<stop offset="0.942708" stop-color="#F7E7D8"/>
</linearGradient>
<radialGradient id="paint19_radial_1701_346" cx="0" cy="0" r="1" gradientUnits="userSpaceOnUse" gradientTransform="translate(211.673 761.19) rotate(89.731) scale(18.3278 13.6775)">
<stop stop-color="#FADFCC"/>
<stop offset="1" stop-color="#F1BEAB"/>
</radialGradient>
<linearGradient id="paint20_linear_1701_346" x1="201.057" y1="772.077" x2="211.985" y2="778.961" gradientUnits="userSpaceOnUse">
<stop stop-color="#EFB7A4"/>
<stop offset="0.942708" stop-color="#F7E7D8"/>
</linearGradient>
<linearGradient id="paint21_linear_1701_346" x1="201.057" y1="772.077" x2="211.985" y2="778.961" gradientUnits="userSpaceOnUse">
<stop stop-color="#EFB7A4"/>
<stop offset="0.942708" stop-color="#F7E7D8"/>
</linearGradient>
<radialGradient id="paint22_radial_1701_346" cx="0" cy="0" r="1" gradientUnits="userSpaceOnUse" gradientTransform="translate(212.347 777.803) rotate(-139.07) scale(14.0239 19.2864)">
<stop stop-color="#FCE5D0"/>
<stop offset="1" stop-color="#EFB7A4"/>
</radialGradient>
<radialGradient id="paint23_radial_1701_346" cx="0" cy="0" r="1" gradientUnits="userSpaceOnUse" gradientTransform="translate(213.004 778.027) rotate(-51.8626) scale(14.0454 18.2825)">
<stop stop-color="#FCE5D0"/>
<stop offset="1" stop-color="#EFB7A4"/>
</radialGradient>
<linearGradient id="paint24_linear_1701_346" x1="215.373" y1="764.805" x2="215.373" y2="779.777" gradientUnits="userSpaceOnUse">
<stop stop-color="#F0BFAF"/>
<stop offset="1" stop-color="#F0BFAF" stop-opacity="0"/>
</linearGradient>
<linearGradient id="paint25_linear_1701_346" x1="206.931" y1="765.836" x2="206.931" y2="779.689" gradientUnits="userSpaceOnUse">
<stop stop-color="#F4B59C"/>
<stop offset="1" stop-color="#F1C4B2" stop-opacity="0"/>
</linearGradient>
<linearGradient id="paint26_linear_1701_346" x1="214.736" y1="770.582" x2="216.121" y2="779.51" gradientUnits="userSpaceOnUse">
<stop stop-color="#F1BCA9"/>
<stop offset="1" stop-color="#F1BCA9" stop-opacity="0"/>
</linearGradient>
<linearGradient id="paint27_linear_1701_346" x1="14.7318" y1="782.882" x2="17.3015" y2="799.035" gradientUnits="userSpaceOnUse">
<stop stop-color="#F1B09E"/>
<stop offset="1" stop-color="#FAE6CE"/>
</linearGradient>
<linearGradient id="paint28_linear_1701_346" x1="44.9518" y1="783.617" x2="42.3821" y2="799.769" gradientUnits="userSpaceOnUse">
<stop stop-color="#F1B09E"/>
<stop offset="1" stop-color="#FAE6CE"/>
</linearGradient>
<linearGradient id="paint29_linear_1701_346" x1="52.8832" y1="813.353" x2="29.5724" y2="828.037" gradientUnits="userSpaceOnUse">
<stop stop-color="#EFB7A4"/>
<stop offset="0.942708" stop-color="#F7E7D8"/>
</linearGradient>
<linearGradient id="paint30_linear_1701_346" x1="52.8832" y1="813.353" x2="29.5724" y2="828.037" gradientUnits="userSpaceOnUse">
<stop stop-color="#EFB7A4"/>
<stop offset="0.942708" stop-color="#F7E7D8"/>
</linearGradient>
<radialGradient id="paint31_radial_1701_346" cx="0" cy="0" r="1" gradientUnits="userSpaceOnUse" gradientTransform="translate(29.4107 790.224) rotate(89.731) scale(39.0965 29.1765)">
<stop stop-color="#FADFCC"/>
<stop offset="1" stop-color="#F1BEAB"/>
</radialGradient>
<linearGradient id="paint32_linear_1701_346" x1="6.75351" y1="813.447" x2="30.0643" y2="828.131" gradientUnits="userSpaceOnUse">
<stop stop-color="#EFB7A4"/>
<stop offset="0.942708" stop-color="#F7E7D8"/>
</linearGradient>
<linearGradient id="paint33_linear_1701_346" x1="6.75351" y1="813.447" x2="30.0643" y2="828.131" gradientUnits="userSpaceOnUse">
<stop stop-color="#EFB7A4"/>
<stop offset="0.942708" stop-color="#F7E7D8"/>
</linearGradient>
<radialGradient id="paint34_radial_1701_346" cx="0" cy="0" r="1" gradientUnits="userSpaceOnUse" gradientTransform="translate(30.838 825.656) rotate(-139.07) scale(29.9155 41.1414)">
<stop stop-color="#FCE5D0"/>
<stop offset="1" stop-color="#EFB7A4"/>
</radialGradient>
<radialGradient id="paint35_radial_1701_346" cx="0" cy="0" r="1" gradientUnits="userSpaceOnUse" gradientTransform="translate(32.2485 826.142) rotate(-51.8626) scale(29.9612 38.9998)">
<stop stop-color="#FCE5D0"/>
<stop offset="1" stop-color="#EFB7A4"/>
</radialGradient>
<linearGradient id="paint36_linear_1701_346" x1="37.2912" y1="797.934" x2="37.2912" y2="829.871" gradientUnits="userSpaceOnUse">
<stop stop-color="#F0BFAF"/>
<stop offset="1" stop-color="#F0BFAF" stop-opacity="0"/>
</linearGradient>
<linearGradient id="paint37_linear_1701_346" x1="19.2828" y1="800.133" x2="19.2828" y2="829.684" gradientUnits="userSpaceOnUse">
<stop stop-color="#F4B59C"/>
<stop offset="1" stop-color="#F1C4B2" stop-opacity="0"/>
</linearGradient>
<linearGradient id="paint38_linear_1701_346" x1="35.9337" y1="810.253" x2="38.8881" y2="829.298" gradientUnits="userSpaceOnUse">
<stop stop-color="#F1BCA9"/>
<stop offset="1" stop-color="#F1BCA9" stop-opacity="0"/>
</linearGradient>
<linearGradient id="paint39_linear_1701_346" x1="137.556" y1="1564.56" x2="139.941" y2="1579.55" gradientUnits="userSpaceOnUse">
<stop stop-color="#F1B09E"/>
<stop offset="1" stop-color="#FAE6CE"/>
</linearGradient>
<linearGradient id="paint40_linear_1701_346" x1="165.612" y1="1565.24" x2="163.227" y2="1580.24" gradientUnits="userSpaceOnUse">
<stop stop-color="#F1B09E"/>
<stop offset="1" stop-color="#FAE6CE"/>
</linearGradient>
<linearGradient id="paint41_linear_1701_346" x1="172.978" y1="1592.85" x2="151.337" y2="1606.48" gradientUnits="userSpaceOnUse">
<stop stop-color="#EFB7A4"/>
<stop offset="0.942708" stop-color="#F7E7D8"/>
</linearGradient>
<linearGradient id="paint42_linear_1701_346" x1="172.978" y1="1592.85" x2="151.337" y2="1606.48" gradientUnits="userSpaceOnUse">
<stop stop-color="#EFB7A4"/>
<stop offset="0.942708" stop-color="#F7E7D8"/>
</linearGradient>
<radialGradient id="paint43_radial_1701_346" cx="0" cy="0" r="1" gradientUnits="userSpaceOnUse" gradientTransform="translate(151.183 1571.37) rotate(89.731) scale(36.2972 27.0875)">
<stop stop-color="#FADFCC"/>
<stop offset="1" stop-color="#F1BEAB"/>
</radialGradient>
<linearGradient id="paint44_linear_1701_346" x1="130.151" y1="1592.93" x2="151.792" y2="1606.56" gradientUnits="userSpaceOnUse">
<stop stop-color="#EFB7A4"/>
<stop offset="0.942708" stop-color="#F7E7D8"/>
</linearGradient>
<linearGradient id="paint45_linear_1701_346" x1="130.151" y1="1592.93" x2="151.792" y2="1606.56" gradientUnits="userSpaceOnUse">
<stop stop-color="#EFB7A4"/>
<stop offset="0.942708" stop-color="#F7E7D8"/>
</linearGradient>
<radialGradient id="paint46_radial_1701_346" cx="0" cy="0" r="1" gradientUnits="userSpaceOnUse" gradientTransform="translate(152.514 1604.27) rotate(-139.07) scale(27.7736 38.1957)">
<stop stop-color="#FCE5D0"/>
<stop offset="1" stop-color="#EFB7A4"/>
</radialGradient>
<radialGradient id="paint47_radial_1701_346" cx="0" cy="0" r="1" gradientUnits="userSpaceOnUse" gradientTransform="translate(153.814 1604.72) rotate(-51.8626) scale(27.816 36.2075)">
<stop stop-color="#FCE5D0"/>
<stop offset="1" stop-color="#EFB7A4"/>
</radialGradient>
<linearGradient id="paint48_linear_1701_346" x1="158.499" y1="1578.53" x2="158.499" y2="1608.18" gradientUnits="userSpaceOnUse">
<stop stop-color="#F0BFAF"/>
<stop offset="1" stop-color="#F0BFAF" stop-opacity="0"/>
</linearGradient>
<linearGradient id="paint49_linear_1701_346" x1="141.781" y1="1580.57" x2="141.781" y2="1608.01" gradientUnits="userSpaceOnUse">
<stop stop-color="#F4B59C"/>
<stop offset="1" stop-color="#F1C4B2" stop-opacity="0"/>
</linearGradient>
<linearGradient id="paint50_linear_1701_346" x1="157.239" y1="1589.97" x2="159.982" y2="1607.65" gradientUnits="userSpaceOnUse">
<stop stop-color="#F1BCA9"/>
<stop offset="1" stop-color="#F1BCA9" stop-opacity="0"/>
</linearGradient>
</defs>
</svg>
