<svg width="1440" height="1014" viewBox="0 0 1430 1000" fill="none" xmlns="http://www.w3.org/2000/svg">
<g clip-path="url(#clip0_2657_1215)">
<rect y="884" width="1440" height="2117" fill="url(#paint0_linear_2657_1215)"/>
<rect x="0.0820312" y="254.594" width="1440" height="574" fill="#244B11"/>
<path fill-rule="evenodd" clip-rule="evenodd" d="M1440.08 54.5587C1348.64 29.2234 1277.41 22.5938 1121.08 22.5938C1057.31 22.5938 996.955 39.1404 928.92 57.7939C775.433 99.8761 582.838 152.681 223.582 50.408C164.859 33.6907 88.4438 28.4862 0.0820312 33.0759V306.594H1440.08V54.5587Z" fill="#9AC8A3"/>
<path fill-rule="evenodd" clip-rule="evenodd" d="M1440.08 96.118C1206.7 59.3379 902.139 50.2788 779.582 78.3209C401.758 164.77 198.65 107.321 63.1382 68.9906C40.3825 62.554 19.5328 56.6566 0.0820312 52.0703V335.592H1440.08V96.118Z" fill="#84B462"/>
<path fill-rule="evenodd" clip-rule="evenodd" d="M1440.08 0C1142.8 4.87002 965.249 63.9806 872.582 96.6326C618.959 185.998 452.553 148.046 251.893 102.281L251.878 102.278C243.673 100.406 235.41 98.5219 227.082 96.6326C162.235 81.9213 83.9452 64.765 0.0820312 47.8803V312.593H1440.08V0Z" fill="#336C18"/>
<path fill-rule="evenodd" clip-rule="evenodd" d="M1440.08 73.8789C1312.7 75.3133 1204.49 77.9499 1143.58 81.8021C956.631 93.6261 884.568 115.026 801.787 139.609C737.559 158.682 666.879 179.672 531.082 199.591C341.068 227.464 254.999 204.004 155.037 176.757C109.852 164.441 61.8282 151.351 0.0820312 141.878V337.593H1440.08V73.8789Z" fill="#244B11"/>
<g filter="url(#filter0_i_2657_1215)">
<path fill-rule="evenodd" clip-rule="evenodd" d="M1439.99 128.605C1158.09 133.621 880.464 159.251 1242.58 215.166C1568.17 265.44 1352.75 305.841 1302.37 315.291L1302.36 315.291L1302.35 315.294C1299.28 315.87 1296.82 316.331 1295.14 316.672C1159.92 344.071 996.322 357.398 826.33 371.247C730.141 379.083 631.905 387.086 535.604 397.899C526.49 398.922 517.4 399.933 508.338 400.941L508.324 400.942L508.31 400.944L508.296 400.945C323.653 421.474 150.055 440.774 0.0859375 542.477V884.672H1440.09V857.421C1297.97 769.884 1080.01 722.75 949.092 697.931C858.594 680.775 784.597 614.544 936.592 544.723C1017.87 507.385 1238.87 460.719 1439.99 421.588V191.687C1407.48 188.026 1376.46 184.997 1348.71 182.289C1284.97 176.066 1238.51 171.531 1231.08 164.894C1217.64 152.884 1329.58 144.49 1439.99 143.314V128.605Z" fill="url(#paint1_linear_2657_1215)"/>
</g>
<path fill-rule="evenodd" clip-rule="evenodd" d="M1440.08 122.332C1219.94 125.806 997.059 141.772 1074.1 174.834C1036.59 146.341 1237.36 132.1 1440.08 128.516V122.332ZM1440.08 186.942C1403.35 182.673 1368.2 179.242 1337.15 176.211C1287.04 171.319 1247.61 167.47 1229.43 162.822C1229.41 163.475 1229.77 164.14 1230.53 164.816C1237.96 171.453 1284.41 175.989 1348.15 182.211C1376.09 184.938 1407.34 187.989 1440.08 191.682V186.942ZM1189.15 334.594H1177.66C1197.5 329.235 1228.16 321.824 1283.58 310.594C1285.26 310.253 1287.72 309.791 1290.8 309.214L1290.8 309.213C1325.99 302.615 1441.65 280.924 1397.37 251.317C1468.37 283.977 1339.33 308.176 1301.81 315.213L1301.81 315.214C1298.73 315.791 1296.27 316.253 1294.58 316.594C1261.07 323.385 1225.82 329.311 1189.15 334.594Z" fill="url(#paint2_linear_2657_1215)"/>
<path fill-rule="evenodd" clip-rule="evenodd" d="M927.636 667.477C1059.46 692.4 1297.49 737.402 1440.08 824.185V857.679C1297.98 769.926 1079.63 722.703 948.537 697.851C905.764 689.743 866.677 670.671 853.395 645.439C869.782 654.006 891.422 660.616 915.037 665.093C919.107 665.864 923.297 666.657 927.601 667.47L927.636 667.477ZM1417.88 267.781C1400.96 281.128 1349.63 289.981 1325.14 294.203L1325.14 294.203L1325.14 294.204L1325.13 294.205C1320.53 294.998 1316.88 295.628 1314.58 296.093C1181.07 323.145 1002.02 337.185 821.127 351.369C715.146 359.679 608.534 368.038 510.082 379.093C489.655 381.387 469.114 383.558 448.532 385.733L448.532 385.733C289.846 402.504 128.806 419.524 0.0820312 494.912V542.025C149.926 440.648 323.324 421.369 507.741 400.866C516.818 399.857 525.921 398.845 535.049 397.82C631.35 387.006 729.586 379.004 825.774 371.168L825.775 371.167C995.767 357.319 1159.36 343.991 1294.58 316.593C1296.27 316.251 1298.73 315.789 1301.81 315.212C1332.7 309.418 1425.64 291.988 1417.88 267.781Z" fill="url(#paint3_linear_2657_1215)"/>
<path d="M61.2102 427.72C50.2436 441.655 58.56 458.371 64.0891 464.987L70.3322 464.281C67.9744 457.265 70.1377 451.446 73.3029 446.898C76.468 442.349 82.4296 437.199 87.0572 428.986C95.2058 413.71 99.1555 403.138 100.112 399.761C91.7139 403.275 72.1768 413.786 61.2102 427.72Z" fill="#97C65F" stroke="#97C65F" stroke-width="0.159179"/>
<path d="M310.698 280.867C301.113 294.755 237.916 279.97 207.515 270.842C203.113 267.5 188.687 259.986 166.192 256.66C133.672 252.504 131.227 234.899 125.848 229.764C84.9658 193.772 43.9369 197 28.5327 203.112C45.6484 159.345 84.0366 151.031 115.579 145.897C147.12 140.762 180.618 164.48 189.665 167.658C196.903 170.201 204.581 170.348 207.515 170.103C241.502 179.395 241.746 179.884 273.288 202.134C304.83 224.385 314.61 258.616 322.19 268.641C328.254 276.661 318.36 278.177 312.654 277.933L310.698 280.867Z" fill="#9EBD78"/>
<path d="M52.7817 201.159C127.357 157.879 228.829 281.846 291.18 264.241C288.17 271.845 264.301 277.172 193.201 239.531C122.102 201.89 94.8219 205.946 82.4651 210.065L52.7817 201.159Z" fill="#83A658"/>
<path fill-rule="evenodd" clip-rule="evenodd" d="M0.0820312 218.756V261.076C4.61179 261.498 9.46236 261.704 14.3706 261.912C36.1102 262.833 58.9814 263.803 60.1196 283.802C53.1102 340.039 41.1944 462.979 49.6056 504.84L76.4891 492.77C66.6272 465.874 53.5667 381.411 77.2353 283.802C83.4948 257.199 168.03 263.915 209.516 270.598C205.359 267.501 190.884 260.28 166.237 256.172C144.281 253.065 133.73 238.552 128.936 231.958C128.072 230.769 127.394 229.837 126.871 229.276C123.448 225.609 72.8341 186.731 35.1794 201.891C21.61 207.354 9.71417 213.32 0.0820312 218.756Z" fill="#698C3D"/>
<path fill-rule="evenodd" clip-rule="evenodd" d="M0.0820312 218.927V261.348C4.56812 261.76 9.36501 261.963 14.2183 262.169C35.9579 263.091 58.829 264.06 59.9672 284.059C52.9579 340.297 41.042 463.237 49.4532 505.097L58.9387 498.802C47.146 447.804 58.8653 290.934 70.5822 266.145C72.7559 261.546 85.4373 260.71 93.5261 260.177C104.332 259.466 106.941 259.294 65.3559 251.411C23.8176 243.538 9.85603 227.765 7.17133 215.062C4.69112 216.37 2.32556 217.663 0.0820312 218.927Z" fill="#4D7B37"/>
<path d="M55.2721 496.24C60.1585 477.643 65.4144 433.464 44.0252 415.138C42.3528 413.185 26.4157 436.645 24.6056 443.812C24.5444 443.857 24.5361 443.887 24.5853 443.895C24.5918 443.867 24.5986 443.84 24.6056 443.812C25.6783 443.04 43.0025 437.996 51.0005 473.737C51.4795 480.636 51.3831 499.83 49.9281 508.037L55.2721 496.24Z" fill="#4D7B37"/>
<path d="M31.6381 418.945C33.8458 416.196 42.2425 415.23 44.5039 415.648C32.9696 434.078 27.4202 452.932 22.4151 471.049C7.83632 440.715 21.7897 420.66 24.6169 417.836L31.6381 418.945Z" fill="#678D3A"/>
<path d="M1175.86 338.594L1115.87 351.974C1088.19 361.525 1041.42 367.617 1067.96 397.027C1094.5 426.437 1251.44 433.022 1305.87 428.121L1388.08 404.036C1353.46 371.53 1279.92 384.946 1185.58 377.594C1110.11 371.712 1144.41 346.978 1175.86 338.594Z" fill="#78D2C1" fill-opacity="0.2"/>
<path d="M1001.78 402.701C990.374 417.42 1019.78 440.103 1135.02 440.103H1247.08C1207.35 454.36 1011.62 501.797 1001.78 466.594C988.082 417.594 950.082 419.094 956.083 387.094C958.384 374.819 1026.68 360.267 1049.33 353.014L1054.58 351.094C1039.03 362.943 980.582 384.094 1001.78 402.701Z" fill="#78D2C1" fill-opacity="0.1"/>
<path d="M1172.35 375.523C1177.35 374.7 1182.96 374.428 1188.09 374.76C1193.22 375.092 1197.52 376.003 1200.13 377.318C1202.75 378.633 1203.5 380.257 1202.25 381.874C1200.99 383.492 1197.82 384.988 1193.34 386.072C1188.87 387.156 1183.41 387.75 1178.03 387.739C1172.64 387.729 1167.72 387.114 1164.22 386.014C1160.71 384.915 1158.87 383.409 1159.06 381.789C1159.25 380.169 1161.44 378.551 1165.22 377.249L1180.94 381.181L1172.35 375.523Z" fill="#326A16" fill-opacity="0.8"/>
<path d="M1176.69 379.811L1166.74 378.132L1182.73 382.116L1173.9 376.367L1176.69 379.811Z" fill="#326A16" fill-opacity="0.8"/>
<path d="M1272.58 405.933C1261.48 407.057 1249.11 406.885 1237.86 405.451C1226.62 404.016 1217.3 401.422 1211.73 398.171C1206.16 394.92 1204.72 391.245 1207.7 387.86C1210.68 384.474 1217.87 381.62 1227.86 379.85C1237.85 378.081 1249.94 377.524 1261.78 378.286C1273.61 379.048 1284.35 381.076 1291.91 383.976C1299.47 386.875 1303.3 390.44 1302.67 393.977C1302.04 397.513 1296.99 400.771 1288.5 403.115L1254.46 392.31L1272.58 405.933Z" fill="#326A16"/>
<path d="M1263.64 395.904L1285.29 400.963L1250.66 390.006L1269.3 403.861L1263.64 395.904Z" fill="#326A16"/>
<path d="M1369.98 730.431C1369.28 736.542 1356.43 735.815 1350.09 734.688C1339.63 734.688 1338.59 735.444 1332.27 732.898C1325.94 730.351 1335.65 706.281 1350.85 708.747C1366.04 711.214 1370.86 722.792 1369.98 730.431Z" fill="#A5663D" stroke="#A5663D" stroke-width="0.323747"/>
<path d="M1360.08 739.463C1359.63 738.508 1359.44 736.387 1359.4 735.445C1355.52 734.013 1345.74 734.344 1341.34 734.689C1339.6 738.217 1337.17 745.941 1341.34 748.614C1346.55 751.956 1354.79 750.962 1358.57 748.614C1362.35 746.267 1360.64 740.657 1360.08 739.463Z" fill="#D1BC9F" stroke="#D1BC9F" stroke-width="0.323747"/>
<ellipse cx="4.05821" cy="8.96085" rx="4.05821" ry="8.96085" transform="matrix(-0.801468 -0.598037 -0.598037 0.801468 1347.3 712.449)" fill="#BC856D"/>
<path fill-rule="evenodd" clip-rule="evenodd" d="M1340.77 736.067C1346.06 736.19 1356.7 736.657 1356.99 737.542C1357.36 738.644 1358.1 747.431 1356.28 749.684C1357.15 749.376 1357.92 749.015 1358.57 748.614C1362.35 746.267 1360.64 740.657 1360.08 739.463C1359.63 738.508 1359.44 736.387 1359.4 735.445C1355.52 734.013 1345.74 734.344 1341.34 734.689C1341.15 735.076 1340.95 735.514 1340.75 735.991C1340.76 736.016 1340.77 736.042 1340.77 736.067Z" fill="#BFA27A"/>
<path fill-rule="evenodd" clip-rule="evenodd" d="M1362.9 734.759C1366.5 734.206 1369.35 732.841 1369.67 730.055C1370.42 723.474 1366.95 713.971 1356.26 709.887C1356.51 710.258 1357 710.742 1357.79 711.352C1361.57 714.279 1361.86 719.44 1360.91 724.257C1360.17 727.967 1360.66 732.273 1362.9 734.759Z" fill="#905A37"/>
<path d="M1427.62 745.958C1426.5 755.689 1406.03 754.531 1395.94 752.736C1379.28 752.736 1377.63 753.94 1367.56 749.885C1357.48 745.831 1372.94 707.503 1397.14 711.43C1421.34 715.358 1429.01 733.794 1427.62 745.958Z" fill="#C1A884" stroke="#D1BC9F" stroke-width="0.479631"/>
<path d="M1411.84 760.339C1411.13 758.819 1410.83 755.44 1410.77 753.941C1404.58 751.66 1389.02 752.188 1382 752.737C1379.24 758.354 1375.37 770.653 1382 774.91C1390.3 780.232 1403.42 778.648 1409.44 774.91C1415.45 771.172 1412.73 762.24 1411.84 760.339Z" fill="#E8D9C6" stroke="#E8D9C6" stroke-width="0.479631"/>
<ellipse cx="6.46196" cy="14.2685" rx="6.46196" ry="14.2685" transform="matrix(-0.801468 -0.598037 -0.598037 0.801468 1391.51 717.324)" fill="#E8D9C6"/>
<path fill-rule="evenodd" clip-rule="evenodd" d="M1392.31 710.682C1411.91 715.756 1427.52 746.264 1403.43 749.03C1394.02 750.11 1390.69 751.221 1391.14 752.222C1392.74 752.199 1394.51 752.182 1396.5 752.182C1406.59 753.977 1427.06 755.134 1428.18 745.403C1429.57 733.239 1421.91 714.804 1397.7 710.876C1395.85 710.575 1394.05 710.522 1392.31 710.682Z" fill="#A98C65"/>
<path fill-rule="evenodd" clip-rule="evenodd" d="M1381.29 754.522C1389.79 754.722 1406.91 755.48 1407.38 756.915C1407.97 758.704 1409.15 772.963 1406.23 776.618C1407.62 776.12 1408.87 775.535 1409.9 774.885C1415.99 771.076 1413.23 761.973 1412.34 760.036C1411.62 758.487 1411.31 755.043 1411.25 753.516C1405 751.191 1389.27 751.729 1382.19 752.289C1381.88 752.914 1381.56 753.621 1381.25 754.389C1381.26 754.433 1381.27 754.478 1381.29 754.522Z" fill="#D0B898"/>
<path d="M1120.19 302.246C1132.69 298.692 1141.33 310.523 1144.08 316.883L1141.76 321.327C1137.8 317.21 1133.3 316.883 1129.34 317.733C1125.38 318.582 1120.19 321.327 1113.36 322.045C1100.8 323.039 1092.61 322.459 1090.08 322.045C1094.91 316.927 1107.68 305.801 1120.19 302.246Z" fill="#5D8133" stroke="#678D3A" stroke-width="0.186695"/>
<path d="M1129.23 269.594C1124.36 294.693 1136.13 311.385 1142.63 316.594L1147.08 309.376C1146.08 303.109 1143.97 297.728 1143.02 295.842C1142.1 293.545 1139.58 288.345 1137.08 285.753C1134.58 283.161 1130.81 273.9 1129.23 269.594Z" fill="#80A157" stroke="#80A157" stroke-width="0.112712"/>
<path fill-rule="evenodd" clip-rule="evenodd" d="M96.0156 1014H742.904C743.131 1013.85 743.358 1013.71 743.587 1013.56C766.269 999.088 825.018 979.2 890.302 957.1C977.561 927.56 1076.49 894.069 1116.58 864.272C1189.32 789.506 1032.65 751.53 939.277 728.899C918.505 723.864 900.867 719.589 889.584 715.837C719.047 659.125 795.388 649.371 841.397 643.493C846.059 642.897 850.409 642.342 854.16 641.781C838.02 614.379 854.554 579.208 936.038 543.039C968.05 528.831 1021.73 513.224 1087.33 497.215C1074.68 498.871 1061.36 500.592 1047.51 502.383C817.591 532.091 441.321 580.712 559.085 662.321C606.756 695.357 720.395 719.543 814.754 739.625C916.352 761.248 995.598 778.114 946.084 796.148C866.906 824.986 687.306 852.197 521.087 864.272C352.828 876.495 227.337 903.069 96.0156 1014Z" fill="url(#paint4_linear_2657_1215)" fill-opacity="0.1"/>
<path d="M237.45 542.912C213.139 545.906 185.97 546.116 161.218 543.501C136.467 540.886 115.9 535.633 103.511 528.762C91.1221 521.891 87.7956 513.892 94.1775 506.319C100.559 498.746 116.194 492.139 138.046 487.781C159.897 483.424 186.406 481.626 212.425 482.738C238.443 483.849 262.114 487.791 278.841 493.797C295.567 499.803 304.156 507.445 302.939 515.238C301.723 523.032 290.787 530.421 272.256 535.971L197.03 513.869L237.45 542.912Z" fill="#2A5C12"/>
<path d="M224.392 525.628L272.158 535.705L195.639 513.298L237.21 542.826L224.392 525.628Z" fill="#2A5C12"/>
<path d="M83.5026 513.831C85.302 525.564 83.8709 532.247 81.6978 543.313C72.0588 540.77 45.7752 529.236 49.4255 509.688C52.2522 494.551 51.6456 496.811 58.7505 485.71C64.9157 496.305 82.1302 504.882 83.5026 513.831Z" fill="url(#paint5_linear_2657_1215)"/>
<path d="M70.8294 514.722C69.03 526.455 70.4611 533.137 72.6342 544.204C82.2732 541.661 108.557 530.126 104.907 510.579C102.08 495.442 102.686 497.702 95.5815 486.6C89.4163 497.195 72.2018 505.773 70.8294 514.722Z" fill="url(#paint6_linear_2657_1215)"/>
<path d="M118.264 516.197C118.264 528.459 99.7618 544.838 87.4996 544.838C75.2375 544.838 74.9688 547.553 74.9688 535.291C74.9688 523.029 83.799 519.971 96.0612 519.971C118.264 514.114 115.919 501.987 118.264 516.197Z" fill="url(#paint7_linear_2657_1215)"/>
<path d="M118.264 516.197C118.264 528.459 99.7618 544.838 87.4996 544.838C75.2375 544.838 74.9688 547.553 74.9688 535.291C74.9688 523.029 83.799 519.971 96.0612 519.971C118.264 514.114 115.919 501.987 118.264 516.197Z" fill="url(#paint8_linear_2657_1215)"/>
<path d="M54.6652 518.553C54.6652 530.815 67.3206 524.547 76.8678 544.308C87.0809 519.219 99.0703 530.815 99.0703 518.553C99.0703 506.29 86.1928 492.354 76.8678 484.805C66.8766 490.577 54.6652 506.29 54.6652 518.553Z" fill="url(#paint9_radial_2657_1215)"/>
<path d="M54.4288 516.552C53.0968 530.984 68.6623 529.809 73.5469 538.533C67.798 524.989 56.6729 531.256 56.6729 518.994C56.6729 506.732 64.198 498.79 70.1927 489.465C61.3116 498.568 57.3152 503.897 54.4288 516.552Z" fill="#EEC1A9"/>
<path d="M36.0175 516.31C36.0175 528.572 54.5195 544.951 66.7816 544.951C79.0437 544.951 79.3125 547.666 79.3125 535.404C79.3125 523.142 70.4822 520.085 58.2201 520.085C36.0175 514.227 38.3623 502.1 36.0175 516.31Z" fill="url(#paint10_linear_2657_1215)"/>
<path d="M36.0175 516.31C36.0175 528.572 54.5195 544.951 66.7816 544.951C79.0437 544.951 79.3125 547.666 79.3125 535.404C79.3125 523.142 70.4822 520.085 58.2201 520.085C36.0175 514.227 38.3623 502.1 36.0175 516.31Z" fill="url(#paint11_linear_2657_1215)"/>
<path d="M51.5597 515.261C48.8602 525.509 63.4351 539.544 71.9729 541.793C80.5107 544.042 80.1001 546.36 82.7996 536.112C85.4991 525.864 76.3607 514.905 67.8229 512.656C46.1362 510.753 56.3205 503.815 51.5597 515.261Z" fill="url(#paint12_radial_2657_1215)"/>
<path d="M105.513 516.773C109.837 514.557 115.727 509.668 115.727 509.668C115.727 509.668 113.659 512.196 112.174 513.664C109.227 516.579 109.075 517.983 105.513 520.103C102.547 521.869 100.248 523.404 97.0764 524.766C93.9989 526.087 91.8847 526.26 89.0835 528.096C85.2763 530.591 83.407 532.048 81.3126 536.089C80.1639 538.306 78.4263 544.304 78.4263 544.304C78.4263 544.304 77.138 536.61 77.9822 533.425C79.1599 528.982 81.1695 526.611 84.865 523.878C88.8782 520.91 92.378 521.788 97.0764 520.103C100.411 518.907 102.361 518.389 105.513 516.773Z" fill="#EAB29F" fill-opacity="0.84"/>
<path d="M101.769 511.255C106.35 520.02 94.6814 536.5 86.721 540.661C78.7606 544.822 79.6005 546.853 75.0192 538.088C70.4379 529.323 77.3475 517.004 85.3079 512.844C106.245 505.779 94.9377 501.893 101.769 511.255Z" fill="url(#paint13_radial_2657_1215)"/>
<path d="M98.9155 506.147C98.9411 506.272 98.9756 506.43 99.0276 506.623C99.2636 507.495 99.8502 509.029 101.564 511.381C102.668 513.504 102.801 516.11 102.235 518.914C101.667 521.724 100.402 524.711 98.7406 527.564C95.4145 533.276 90.5361 538.396 86.6098 540.448C85.1663 541.203 84.0066 541.89 83.0582 542.452C82.6956 542.667 82.3639 542.864 82.059 543.039C81.5045 543.357 81.0425 543.602 80.639 543.764C80.2358 543.925 79.9064 543.997 79.6148 543.982C79.0523 543.954 78.5372 543.598 77.8569 542.635C77.1784 541.674 76.3802 540.174 75.2319 537.977C72.9875 533.683 73.5472 528.495 75.6787 523.839C77.8069 519.191 81.4829 515.12 85.4025 513.065C95.477 509.664 98.1245 506.988 98.9155 506.147Z" stroke="#C88181" stroke-opacity="0.02" stroke-width="0.480003"/>
<path d="M91.5247 510.562L98.8516 506.344C98.8516 506.344 94.7736 510.272 91.5247 511.672C90.2658 512.215 89.4435 512.218 88.1943 512.782C85.9808 513.783 84.8774 514.692 83.0877 516.335C80.3404 518.857 79.2838 520.811 77.5371 524.106C76.5186 526.027 75.7384 527.079 75.3168 529.212C74.7598 532.031 75.1975 533.776 75.9829 536.539C76.5244 538.445 77.2681 539.354 77.9812 541.202C78.5438 542.66 79.3133 544.976 79.3133 544.976C79.3133 544.976 76.0193 540.936 74.8728 537.871C73.8238 535.068 73.3585 533.311 73.5406 530.323C73.6763 528.097 74.054 526.845 74.8728 524.772C75.7576 522.531 76.5315 521.367 77.9812 519.443C80.1222 516.601 81.5898 515.055 84.6419 513.227C87.1143 511.745 91.5247 510.562 91.5247 510.562Z" fill="url(#paint14_linear_2657_1215)"/>
<path d="M52.6689 511.446C52.8202 510.417 53.113 509.004 53.113 509.004C53.113 509.004 53.2577 510.708 53.113 512.112C52.9577 513.619 52.5122 514.622 52.2249 516.109C51.8614 517.989 52.2238 519.13 52.6689 520.993C53.4441 524.238 54.7272 525.827 56.6654 528.542C59.2662 532.185 61.2689 533.891 64.8803 536.535C68.8228 539.422 72.7702 538.625 75.9816 542.308C76.7567 543.197 77.7578 544.75 77.7578 544.75C77.7578 544.75 76.156 543.633 75.0935 542.974C71.039 540.457 67.915 540.585 63.9922 537.867C59.9602 535.074 57.8306 533.068 55.1112 528.986C53.2407 526.178 51.9129 524.54 51.3368 521.215C50.9814 519.165 50.8936 517.92 51.3368 515.887C51.7174 514.14 52.4089 513.215 52.6689 511.446Z" fill="url(#paint15_linear_2657_1215)"/>
<path d="M84.6105 540.556C81.7938 543.166 76.4811 546.086 76.4811 546.086C76.4811 546.086 81.1472 542.332 83.7822 539.561C86.3624 536.848 87.6674 535.176 89.816 532.11C92.0775 528.882 93.6012 527.133 94.9874 523.444C95.5605 521.919 96.1641 519.441 96.1641 519.441C96.1641 519.441 95.9701 522.278 95.5283 524.034C94.5171 528.053 92.7868 529.929 90.459 533.358C88.4248 536.355 87.2676 538.095 84.6105 540.556Z" fill="url(#paint16_linear_2657_1215)"/>
<path d="M258.929 472.88C256.387 463.059 246.487 467.689 243.187 471.187C229.56 483.206 225.051 499.391 234.046 501.318C237.6 502.08 263.838 491.839 258.929 472.88Z" fill="#9CCA77"/>
<path d="M219.401 502.42C219.401 505.038 226.677 507.16 235.652 507.16C243.707 507.16 248.417 506.274 251.072 502.236C251.686 501.303 251.886 500.046 251.18 499.179C249.092 496.614 243.378 497.681 235.652 497.681C226.677 497.681 219.401 499.803 219.401 502.42Z" fill="#9CCA77"/>
<path fill-rule="evenodd" clip-rule="evenodd" d="M251.974 466.988C263.646 475.487 251.402 489.644 236.84 497.594C238.228 497.63 242.026 497.592 245.382 497.313C253.343 492.752 261.921 484.435 258.929 472.88C257.742 468.293 254.949 466.858 251.974 466.988Z" fill="#88B465"/>
<path fill-rule="evenodd" clip-rule="evenodd" d="M226.403 498.521C239.77 500.882 246.209 499.94 248.683 497.789C249.768 498.043 250.613 498.473 251.186 499.177C251.891 500.043 251.691 501.3 251.077 502.234C248.422 506.271 243.713 507.158 235.657 507.158C226.682 507.158 219.406 505.036 219.406 502.418C219.406 500.803 222.175 499.377 226.403 498.521Z" fill="#88B465"/>
<path d="M133.68 472.88C136.223 463.059 146.122 467.689 149.423 471.187C163.05 483.206 167.559 499.391 158.564 501.318C155.009 502.08 128.771 491.839 133.68 472.88Z" fill="#9CCA77"/>
<path d="M173.204 502.42C173.204 505.038 165.929 507.16 156.954 507.16C148.898 507.16 144.189 506.274 141.534 502.236C140.92 501.303 140.72 500.046 141.425 499.179C143.514 496.614 149.228 497.681 156.954 497.681C165.929 497.681 173.204 499.803 173.204 502.42Z" fill="#9CCA77"/>
<path fill-rule="evenodd" clip-rule="evenodd" d="M140.639 466.989C128.967 475.487 141.212 489.644 155.773 497.594C154.384 497.63 150.583 497.592 147.227 497.313C139.266 492.751 130.688 484.435 133.68 472.88C134.868 468.291 137.662 466.857 140.639 466.989Z" fill="#88B465"/>
<path fill-rule="evenodd" clip-rule="evenodd" d="M166.022 498.555C152.782 500.874 146.393 499.93 143.931 497.789C142.845 498.043 141.999 498.474 141.426 499.177C140.72 500.044 140.921 501.301 141.534 502.234C144.189 506.272 148.899 507.158 156.954 507.158C165.929 507.158 172.172 505.036 172.172 502.419C172.172 500.825 169.858 499.415 166.022 498.555Z" fill="#88B465"/>
<path d="M196.802 508.681C221.337 508.681 258.03 500.048 236.034 443.848C234.543 440.039 231.03 431.999 227.729 424.466C228.152 423.45 228.287 422.28 228.322 421.165C228.322 414.247 222.713 408.639 215.795 408.639C212.748 408.3 209.729 409.965 208.601 410.839C206.711 412.447 203.269 416.256 200.983 415.41C196.65 414.259 192.52 414.93 190.996 415.41C188.711 416.256 185.269 412.447 183.379 410.839C182.617 410.021 180.145 408.435 176.354 408.639C169.435 408.639 163.827 414.247 163.827 421.165C163.861 422.253 163.996 422.942 164.504 424.127C161.796 431.745 158.833 440.463 156.379 445.71C134.542 500.725 172.268 508.681 196.802 508.681Z" fill="#9CCA77"/>
<path fill-rule="evenodd" clip-rule="evenodd" d="M221.602 495.309C231.026 495.083 244.827 480.768 224.649 425.313C226.624 419.952 226.732 409.231 211.7 409.231C211.694 409.224 211.689 409.216 211.684 409.208C212.916 408.767 214.353 408.478 215.795 408.639C222.713 408.639 228.322 414.247 228.322 421.165C228.287 422.28 228.152 423.45 227.729 424.466C231.03 431.999 234.543 440.039 236.034 443.848C255.358 493.222 229.385 505.882 206.154 508.229C205.745 504.448 205.971 500.793 206.452 498.017L221.602 495.309Z" fill="#88B465"/>
<path fill-rule="evenodd" clip-rule="evenodd" d="M170.589 495.309C161.166 495.083 147.364 480.768 167.542 425.313C165.567 419.952 165.46 409.231 180.492 409.231C180.497 409.224 180.502 409.217 180.507 409.209C179.274 408.767 177.836 408.478 176.392 408.639C169.474 408.639 163.866 414.247 163.866 421.165C163.901 422.28 164.035 423.45 164.458 424.466C161.157 431.999 157.644 440.039 156.153 443.848C136.828 493.224 162.805 505.884 186.037 508.23C186.446 504.449 186.221 500.794 185.739 498.017L170.589 495.309Z" fill="#88B465"/>
<ellipse cx="177.126" cy="421.672" rx="3.77065" ry="4.57048" fill="#5F4B3D"/>
<ellipse cx="213.841" cy="421.672" rx="3.77065" ry="4.57048" fill="#5F4B3D"/>
<path d="M200.927 430.222C196.633 432.852 193.329 431.27 191.772 430.222C190.341 429.268 191.106 428.099 191.771 428.566C193.329 429.615 196.379 431.546 200.927 428.566C201.592 428.099 202.388 429.326 200.927 430.222Z" fill="#5F4B3D"/>
<ellipse cx="227.188" cy="434.284" rx="8.1253" ry="7.19427" fill="#DBB396"/>
<ellipse cx="165.742" cy="434.284" rx="8.1253" ry="7.19427" fill="#DBB396"/>
<path fill-rule="evenodd" clip-rule="evenodd" d="M220.491 504.985C212.902 508.016 204.301 508.896 196.875 508.896C189.037 508.896 179.778 507.992 171.74 504.684C162.211 489.833 155.631 463.974 174.058 449.447C186.753 439.439 206.247 439.408 218.89 449.481C237.255 464.112 230.154 490.196 220.491 504.985Z" fill="#CFE8A4"/>
<path fill-rule="evenodd" clip-rule="evenodd" d="M196.881 508.893C204.307 508.893 212.908 508.012 220.497 504.981C222.544 501.848 224.476 498.208 226.076 494.277C200.355 504.885 181.53 500.11 166.434 494.318C167.952 498.108 169.786 501.627 171.746 504.68C179.783 507.989 189.043 508.893 196.881 508.893Z" fill="#B7CF8C" fill-opacity="0.5"/>
<path d="M210.53 511.559C216.455 502.673 219.739 494.632 224.395 483.375L200.931 493.475C200.147 498.785 198.537 509.86 198.542 511.395C198.548 513.583 202.175 514.203 203.265 511.955C203.651 511.223 204.091 511.112 204.441 511.218C204.822 511.333 204.904 511.797 205.07 512.159C205.778 513.704 209.286 513.426 210.53 511.559Z" fill="#CFE8A4"/>
<path fill-rule="evenodd" clip-rule="evenodd" d="M222.741 485.802C218.601 498.152 214.422 508.723 210.766 511.955C209.087 513.44 205.737 513.703 205.062 512.16C205.029 512.084 204.999 512.003 204.969 511.922C204.855 511.617 204.741 511.309 204.44 511.218C204.09 511.112 203.65 511.223 203.263 511.955C202.174 514.203 198.547 513.583 198.54 511.395C198.539 511.183 198.569 510.79 198.624 510.256C200.681 511.108 201.487 510.006 202.303 508.89C202.819 508.184 203.339 507.473 204.182 507.246C205.167 506.98 205.148 507.444 205.124 508.037C205.095 508.77 205.057 509.7 206.89 509.7C209.921 509.7 219.316 491.841 222.871 485.07L222.741 485.802Z" fill="#9CCA77"/>
<path d="M182.388 511.559C176.463 502.673 173.179 494.632 168.523 483.375L191.987 493.475C192.771 498.785 194.381 509.86 194.376 511.395C194.37 513.583 190.743 514.203 189.653 511.955C189.267 511.223 188.827 511.112 188.477 511.218C188.096 511.333 188.014 511.797 187.848 512.159C187.14 513.704 183.632 513.426 182.388 511.559Z" fill="#CFE8A4"/>
<path fill-rule="evenodd" clip-rule="evenodd" d="M170.181 485.826C174.319 498.166 178.494 508.725 182.148 511.955C183.827 513.44 187.177 513.703 187.852 512.16C187.885 512.084 187.915 512.003 187.945 511.922C188.059 511.617 188.173 511.309 188.475 511.218C188.824 511.112 189.264 511.223 189.651 511.955C190.74 514.203 194.367 513.583 194.374 511.395C194.375 511.184 194.345 510.791 194.29 510.258C192.236 511.107 191.431 510.005 190.615 508.89C190.099 508.184 189.579 507.473 188.736 507.246C187.751 506.98 187.77 507.444 187.794 508.037C187.823 508.77 187.861 509.7 186.028 509.7C182.997 509.7 173.602 491.841 170.047 485.07L170.181 485.826Z" fill="#9CCA77"/>
<path fill-rule="evenodd" clip-rule="evenodd" d="M1406.07 348.189L1143.53 303.939L1143.53 303.944C1135.38 302.766 1127.11 311.917 1124.99 324.539C1122.86 337.16 1127.67 348.517 1135.76 350.074L1135.74 350.14L1398.8 394.478L1398.82 394.404C1406.9 395.412 1415.06 386.305 1417.17 373.783C1419.28 361.26 1414.56 349.983 1406.59 348.286L1406.59 348.277L1406.27 348.224C1406.24 348.218 1406.2 348.212 1406.17 348.206C1406.14 348.2 1406.1 348.195 1406.07 348.189Z" fill="#5B4739"/>
<path fill-rule="evenodd" clip-rule="evenodd" d="M1416.96 373.859L1124.79 324.614C1124.82 324.431 1124.85 324.248 1124.88 324.064C1127.01 311.443 1135.28 302.291 1143.42 303.469L1143.43 303.465L1405.96 347.715C1406 347.72 1406.03 347.726 1406.06 347.732C1406.1 347.737 1406.13 347.743 1406.17 347.749L1406.48 347.803L1406.48 347.812C1414.45 349.509 1419.17 360.786 1417.06 373.308C1417.03 373.493 1417 373.677 1416.96 373.859Z" fill="#695546"/>
<ellipse cx="13.4174" cy="20.9604" rx="13.4174" ry="20.9604" transform="matrix(-0.986091 -0.166205 -0.166205 0.986091 1416.76 352.648)" fill="#876A55"/>
<path d="M1168.02 299.603C1168.61 304.215 1170.46 307.537 1171.32 308.622L1156.16 306.067C1160.79 306.848 1160.3 301.122 1159.48 298.162C1162.08 296.721 1167.44 294.99 1168.02 299.603Z" fill="#695546"/>
<path d="M1232.69 289.866C1227.74 293.302 1234.99 308.358 1239.24 315.456L1244.58 294.343C1241.68 292.093 1235.24 288.049 1232.69 289.866Z" fill="#EBDF6F" stroke="#EBDF6F" stroke-width="0.420245" stroke-linecap="round"/>
<path d="M1315.49 316.599C1319.39 312.447 1305.7 296.637 1299.76 290.202L1294.66 309.853C1298.04 311.662 1313.5 318.783 1315.49 316.599Z" fill="#EBDF6F" stroke="#EBDF6F" stroke-width="0.420245" stroke-linecap="round"/>
<path d="M1270.53 268.957C1249.06 272.504 1249.06 287.585 1244.25 296.812L1238.49 308.202L1238.49 317.308C1237.18 320.447 1233.94 327.564 1236.22 330.075C1246.23 338.657 1267.06 337.401 1277.44 337.401C1286.97 337.401 1290.51 335.846 1298.08 334.087C1302.28 332.116 1311 319.32 1308.17 308.202C1306.49 301.563 1305.02 298.747 1298.08 286.014C1296.19 282.558 1290.2 269.293 1270.53 268.957Z" fill="#EBDF6F" stroke="#EBDF6F" stroke-width="0.420245"/>
<path d="M1273.96 297.298C1271.42 299.771 1268.2 299.992 1265.05 297.476C1264.01 296.647 1264.78 295.237 1266.17 295.226L1272.72 295.171C1274.03 295.16 1274.85 296.433 1273.96 297.298Z" fill="#D39724"/>
<path d="M1231.21 291.073C1230.08 296.726 1237.1 311.354 1239.24 314.358L1240.79 308.63C1238.02 304.261 1231.17 291.344 1231.21 291.073Z" fill="#F3ECA8" stroke="#FDFCE1" stroke-width="0.0744645" stroke-linecap="round"/>
<path d="M1274.38 293.88C1271.33 291.174 1267.69 291.154 1264.43 294.354C1263.5 295.272 1264.39 296.62 1265.77 296.539L1273.3 296.099C1274.6 296.023 1275.32 294.707 1274.38 293.88Z" fill="#E3AE47" stroke="#E3AE47" stroke-width="0.420245" stroke-linecap="round"/>
<path d="M1264.34 290.53C1263.38 289.97 1261 289.222 1259.14 290.707" stroke="#5B4739" stroke-width="1.45973" stroke-linecap="round"/>
<path d="M1280.5 289.964C1279.54 289.404 1277.16 288.655 1275.3 290.14" stroke="#5B4739" stroke-width="1.45973" stroke-linecap="round"/>
<ellipse cx="4.70866" cy="4.16913" rx="4.70866" ry="4.16913" transform="matrix(-0.999425 0.033909 0.033909 0.999425 1292.16 290.754)" fill="#EDA58D"/>
<path fill-rule="evenodd" clip-rule="evenodd" d="M1292.6 336.334C1292.35 335.201 1292.1 334.051 1291.85 332.892C1288.9 319.294 1285.71 304.58 1267.98 305.616C1252.2 306.538 1249.99 324.319 1250.05 335.696C1259.71 338.013 1270.89 337.747 1277.22 336.992C1280.85 337.493 1286.75 337.089 1292.6 336.334Z" fill="#F1EFB5"/>
<path fill-rule="evenodd" clip-rule="evenodd" d="M1274.09 269.651C1292.66 272.289 1299.75 288.64 1297.53 307.479C1297.15 310.723 1298.35 309.114 1300.9 305.695C1302.43 303.642 1304.46 300.936 1306.92 298.235C1305.11 296.074 1303.61 294.676 1302.78 293.898C1302.46 293.607 1302.25 293.402 1302.14 293.277C1301.81 292.891 1301.34 291.909 1300.7 290.554C1297.68 284.191 1290.74 269.582 1275.46 269.582C1275 269.599 1274.54 269.622 1274.09 269.651Z" fill="#D9BA3F"/>
<path fill-rule="evenodd" clip-rule="evenodd" d="M1236 329.486C1236.12 329.827 1236.28 330.129 1236.5 330.384C1244.83 338.067 1261.22 337.865 1271.49 337.739C1272.69 337.724 1273.81 337.71 1274.82 337.71C1283.68 337.71 1290.37 336.329 1297.41 334.57C1300.48 333.019 1309.01 323.477 1307.32 314.993C1305.34 314.886 1303.41 314.538 1302.19 313.127C1301.96 312.868 1301.97 313.221 1302 313.998C1302.19 319.249 1303.06 343.855 1236 329.486Z" fill="#BE9C20" fill-opacity="0.4"/>
<path d="M1236.33 321.917C1231.96 321.878 1238.98 332.03 1243.04 337.111C1250.28 343.656 1254.17 325.596 1254.34 323.454C1254.51 321.312 1251.97 320.366 1250.38 319.909C1248.78 319.452 1247.43 323.029 1245.7 321.201C1243.97 319.372 1243.43 318.908 1241.78 319.166C1240.12 319.423 1241.8 321.966 1236.33 321.917Z" fill="#E3AE47"/>
<path fill-rule="evenodd" clip-rule="evenodd" d="M1241.68 335.359C1237.63 330.009 1232.42 321.882 1236.33 321.917C1239.91 321.949 1240.43 320.871 1240.82 320.05C1241.03 319.616 1241.21 319.254 1241.78 319.166C1243.43 318.908 1243.97 319.372 1245.7 321.201C1246.69 322.251 1247.56 321.518 1248.42 320.79C1249.06 320.251 1249.7 319.715 1250.38 319.909C1251.8 320.318 1253.98 321.117 1254.31 322.814C1253.5 322.265 1252.48 321.92 1251.69 321.694C1251.01 321.5 1250.38 322.036 1249.74 322.575C1248.88 323.303 1248.01 324.036 1247.02 322.986C1245.28 321.157 1244.75 320.694 1243.1 320.951C1242.52 321.04 1242.35 321.401 1242.14 321.835C1241.75 322.656 1241.23 323.734 1237.65 323.702C1234.15 323.671 1237.94 330.16 1241.68 335.359Z" fill="#D39724"/>
<path d="M1298.3 323.596C1302.67 323.557 1295.65 333.71 1291.59 338.791C1284.36 345.335 1280.46 327.276 1280.29 325.133C1280.12 322.991 1282.66 322.046 1284.26 321.589C1285.85 321.132 1287.2 324.709 1288.93 322.88C1290.67 321.052 1291.2 320.588 1292.85 320.845C1294.51 321.102 1292.83 323.645 1298.3 323.596Z" fill="#E3AE47"/>
<path fill-rule="evenodd" clip-rule="evenodd" d="M1293.03 336.94C1297.07 331.589 1302.19 323.565 1298.3 323.6C1294.72 323.632 1294.2 322.554 1293.81 321.733C1293.6 321.3 1293.43 320.938 1292.85 320.849C1291.2 320.592 1290.67 321.055 1288.93 322.884C1287.94 323.935 1287.07 323.201 1286.21 322.473C1285.57 321.934 1284.94 321.398 1284.26 321.593C1282.83 322.002 1280.65 322.802 1280.33 324.501C1281.13 323.95 1282.15 323.604 1282.94 323.378C1283.62 323.184 1284.26 323.72 1284.9 324.259C1285.76 324.986 1286.63 325.72 1287.62 324.669C1289.35 322.841 1289.89 322.377 1291.54 322.634C1292.11 322.723 1292.29 323.085 1292.5 323.518C1292.89 324.339 1293.41 325.418 1296.99 325.385C1300.46 325.354 1296.74 331.759 1293.03 336.94Z" fill="#D39724"/>
<path fill-rule="evenodd" clip-rule="evenodd" d="M1245.59 295.65L1248.07 299.212C1247.75 293.065 1249.53 281.743 1257.47 274.969C1248.08 280.29 1245.59 288.958 1245.59 295.65Z" fill="#F3ECA8"/>
<ellipse cx="4.70866" cy="4.16913" rx="4.70866" ry="4.16913" transform="matrix(-0.999425 0.033909 0.033909 0.999425 1255.49 291.594)" fill="#EDA58D"/>
<path fill-rule="evenodd" clip-rule="evenodd" d="M1304.53 295.395C1310.87 302.838 1318.53 313.173 1315.48 316.412C1315.17 316.76 1314.51 316.872 1313.61 316.807C1309.17 302.399 1301.14 300.476 1297.62 301.349L1304.53 295.395Z" fill="#D9BA3F"/>
<path fill-rule="evenodd" clip-rule="evenodd" d="M0 664.216C6.94874 667.041 14.9504 669.634 23.8394 671.947L100.5 645L70.1441 680.415C89.3452 682.725 110.408 684 132.5 684C222.246 684 295 662.957 295 637C295 611.043 222.246 590 132.5 590C77.823 590 29.4532 597.81 0 609.784V664.216Z" fill="#2A5C12"/>
</g>
<defs>
<filter id="filter0_i_2657_1215" x="0.0859375" y="128.605" width="1440" height="761.066" filterUnits="userSpaceOnUse" color-interpolation-filters="sRGB">
<feFlood flood-opacity="0" result="BackgroundImageFix"/>
<feBlend mode="normal" in="SourceGraphic" in2="BackgroundImageFix" result="shape"/>
<feColorMatrix in="SourceAlpha" type="matrix" values="0 0 0 0 0 0 0 0 0 0 0 0 0 0 0 0 0 0 127 0" result="hardAlpha"/>
<feOffset dy="5"/>
<feGaussianBlur stdDeviation="2.5"/>
<feComposite in2="hardAlpha" operator="arithmetic" k2="-1" k3="1"/>
<feColorMatrix type="matrix" values="0 0 0 0 0.0125 0 0 0 0 0.304084 0 0 0 0 0.4 0 0 0 0.4 0"/>
<feBlend mode="normal" in2="shape" result="effect1_innerShadow_2657_1215"/>
</filter>
<linearGradient id="paint0_linear_2657_1215" x1="720" y1="884" x2="720" y2="3001" gradientUnits="userSpaceOnUse">
<stop stop-color="#0D6F73"/>
<stop offset="0.344" stop-color="#0D6F73"/>
</linearGradient>
<linearGradient id="paint1_linear_2657_1215" x1="630.264" y1="127.672" x2="638.137" y2="1492.67" gradientUnits="userSpaceOnUse">
<stop stop-color="#19A5AE"/>
<stop offset="1" stop-color="#034444"/>
</linearGradient>
<linearGradient id="paint2_linear_2657_1215" x1="1249.68" y1="1137.15" x2="197.487" y2="429.534" gradientUnits="userSpaceOnUse">
<stop stop-color="#6A5445"/>
<stop offset="0.520833" stop-color="#B59B79"/>
<stop offset="1" stop-color="#6A5445"/>
</linearGradient>
<linearGradient id="paint3_linear_2657_1215" x1="1351.58" y1="832.594" x2="113.081" y2="388.595" gradientUnits="userSpaceOnUse">
<stop stop-color="#6A5445"/>
<stop offset="0.520833" stop-color="#B59B79"/>
<stop offset="1" stop-color="#6A5445"/>
</linearGradient>
<linearGradient id="paint4_linear_2657_1215" x1="712.876" y1="659.479" x2="697.631" y2="959.931" gradientUnits="userSpaceOnUse">
<stop stop-color="#78D2C1"/>
<stop offset="1" stop-color="#78D2C1" stop-opacity="0"/>
</linearGradient>
<linearGradient id="paint5_linear_2657_1215" x1="58.8893" y1="488.135" x2="61.9977" y2="507.673" gradientUnits="userSpaceOnUse">
<stop stop-color="#F1B09E"/>
<stop offset="1" stop-color="#FAE6CE"/>
</linearGradient>
<linearGradient id="paint6_linear_2657_1215" x1="95.4427" y1="489.026" x2="92.3344" y2="508.564" gradientUnits="userSpaceOnUse">
<stop stop-color="#F1B09E"/>
<stop offset="1" stop-color="#FAE6CE"/>
</linearGradient>
<linearGradient id="paint7_linear_2657_1215" x1="105.04" y1="524.993" x2="76.8424" y2="542.755" gradientUnits="userSpaceOnUse">
<stop stop-color="#EFB7A4"/>
<stop offset="0.942708" stop-color="#F7E7D8"/>
</linearGradient>
<linearGradient id="paint8_linear_2657_1215" x1="105.04" y1="524.993" x2="76.8424" y2="542.755" gradientUnits="userSpaceOnUse">
<stop stop-color="#EFB7A4"/>
<stop offset="0.942708" stop-color="#F7E7D8"/>
</linearGradient>
<radialGradient id="paint9_radial_2657_1215" cx="0" cy="0" r="1" gradientUnits="userSpaceOnUse" gradientTransform="translate(76.6457 497.016) rotate(89.731) scale(47.292 35.2925)">
<stop stop-color="#FADFCC"/>
<stop offset="1" stop-color="#F1BEAB"/>
</radialGradient>
<linearGradient id="paint10_linear_2657_1215" x1="49.2416" y1="525.107" x2="77.4388" y2="542.869" gradientUnits="userSpaceOnUse">
<stop stop-color="#EFB7A4"/>
<stop offset="0.942708" stop-color="#F7E7D8"/>
</linearGradient>
<linearGradient id="paint11_linear_2657_1215" x1="49.2416" y1="525.107" x2="77.4388" y2="542.869" gradientUnits="userSpaceOnUse">
<stop stop-color="#EFB7A4"/>
<stop offset="0.942708" stop-color="#F7E7D8"/>
</linearGradient>
<radialGradient id="paint12_radial_2657_1215" cx="0" cy="0" r="1" gradientUnits="userSpaceOnUse" gradientTransform="translate(78.3705 539.876) rotate(-139.07) scale(36.1864 49.7655)">
<stop stop-color="#FCE5D0"/>
<stop offset="1" stop-color="#EFB7A4"/>
</radialGradient>
<radialGradient id="paint13_radial_2657_1215" cx="0" cy="0" r="1" gradientUnits="userSpaceOnUse" gradientTransform="translate(80.0775 540.465) rotate(-51.8626) scale(36.2418 47.175)">
<stop stop-color="#FCE5D0"/>
<stop offset="1" stop-color="#EFB7A4"/>
</radialGradient>
<linearGradient id="paint14_linear_2657_1215" x1="86.1768" y1="506.344" x2="86.1768" y2="544.976" gradientUnits="userSpaceOnUse">
<stop stop-color="#F0BFAF"/>
<stop offset="1" stop-color="#F0BFAF" stop-opacity="0"/>
</linearGradient>
<linearGradient id="paint15_linear_2657_1215" x1="64.3971" y1="509.004" x2="64.3971" y2="544.75" gradientUnits="userSpaceOnUse">
<stop stop-color="#F4B59C"/>
<stop offset="1" stop-color="#F1C4B2" stop-opacity="0"/>
</linearGradient>
<linearGradient id="paint16_linear_2657_1215" x1="84.5358" y1="521.245" x2="88.1094" y2="544.282" gradientUnits="userSpaceOnUse">
<stop stop-color="#F1BCA9"/>
<stop offset="1" stop-color="#F1BCA9" stop-opacity="0"/>
</linearGradient>
<clipPath id="clip0_2657_1215">
<rect width="1440" height="1014" fill="white"/>
</clipPath>
</defs>
</svg>
