<svg xmlns="http://www.w3.org/2000/svg" fill="none" viewBox="0 0 1440 1312"><g clip-path="url(#a)"><path d="M245.5 71.66C141 36.16 3.5 51.975 3.5 51.975V300.66l1439-14.5V83.66S1282-8.84 1158 2.16c-342.233 30.36-429.132 233.71-912.5 69.5Z" fill="#9AC8A3"/><path d="M782.5 79.89c240.27-93.547 660 17.718 660 17.718V337.16L1 337.161V56.967S489 194.16 782.5 79.889Z" fill="#84B462"/><path d="M872.552 98.15C1164.57-20.33 1441 1.6 1441 1.6V314H-5V49.321s162.869 47.55 228.184 62.282c213.105 48.07 383.991 79.522 649.368-13.453Z" fill="#336C18"/><path d="M1144.86 82.92C1205.94 79.075 1442 75 1442 75v864.5H-5V143.065s256.514 98.295 533.952 57.778c312.551-45.645 282.059-96.901 615.908-117.922Z" fill="#244B11"/><path d="m1626.6 109.373 2.48-6.103-6.59-.093c-154.37-2.195-359.46 2.487-470.8 16.291-27.79 3.445-50.07 7.495-64.3 12.258-6.97 2.333-12.73 5.061-16.08 8.496-1.76 1.804-3.16 4.114-3.32 6.908-.17 2.818.96 5.309 2.62 7.359 3.12 3.871 9.01 7.306 16.92 10.583 8.1 3.36 19.03 6.831 32.99 10.433 27.93 7.209 68.45 15.059 123.74 23.597 86.41 13.342 134.07 25.91 156.78 37.12 5.63 2.78 9.51 5.372 12.02 7.711 2.51 2.341 3.4 4.187 3.63 5.493.4 2.302-1.04 5.667-7.47 10.043-6.09 4.148-15.16 8.115-25.85 11.777-10.62 3.639-22.56 6.883-34.2 9.678-17.9 4.297-34.84 7.476-45.16 9.41-3.13.588-5.65 1.061-7.4 1.416-105.59 21.395-228.63 34.204-358.727 45.407-36.027 3.102-72.599 6.082-109.483 9.087-96.215 7.838-194.559 15.849-290.935 26.671-9.26 1.04-18.496 2.067-27.709 3.09-248.821 27.652-479.624 53.302-658.819 283.488-45.623 58.606-145.727 194.354-235.238 330.396-44.752 68.021-86.906 136.181-118.286 194.861-15.689 29.33-28.722 56.36-38.043 79.86-9.287 23.41-15.03 43.66-15.864 59.31l-.252 4.74H1504.47l.84-3.43 78.06-320 .22-.91-.15-.92c-8.87-51.699-40.9-95.794-86.41-133.335-45.51-37.537-104.83-68.791-168.99-94.815-128.33-52.048-276.96-83.526-375.747-102.253-22.251-4.218-43.361-11.434-60.14-20.86-16.876-9.481-28.834-20.89-33.696-33.223-4.705-11.936-3.102-25.621 9.117-40.912 12.386-15.497 35.526-32.368 73.259-49.702 37.542-17.245 105.657-36.652 188.467-56.471 82.67-19.788 179.59-39.9 274.48-58.614 70.55-13.913 139.95-27.048 201.52-38.701 21.24-4.02 41.55-7.864 60.65-11.503 74.32-14.156 130.67-25.255 152.3-31.529l2.97-.86.26-3.076c1.88-21.8-6.11-40.707-21.09-56.933-14.89-16.118-36.74-29.675-62.96-41.207-52.45-23.068-123.72-38.586-195.89-49.743-66.94-10.349-134.98-16.992-190.01-22.363-4.36-.425-8.63-.842-12.81-1.253-28.58-2.802-52.95-5.283-71.05-7.83-9.05-1.275-16.42-2.551-21.9-3.867-2.69-.646-4.84-1.281-6.47-1.898a36.32 36.32 0 0 1 1.82-.638c6.15-1.976 16.49-3.87 30.22-5.591 27.31-3.422 66.87-6.022 110.2-7.541 86.76-3.042 187.75-1.722 234.86 5.781l5.21.83v-13.664l4.99-12.256Z" fill="url(#b)" stroke="url(#c)" stroke-width="9"/><path d="m1033.04 476.333 4.96-.676c-227.501 78.504-197.501 124.504-190 147.002-27.501 7.5-160.001 10 44.5 80.381 61.999 21.338 344.77 72.96 227 153.62-13.95 27.842-616.508 141.934-438.282 217.5 252.282 107 812.842 52.59 856.782 549.5-373.02 24.52-2214.771 323.51-1563.5-495.5 182.499-229.5 424.476-286.97 540.499-291.5 121.183-4.73 354.823-20.66 434-50.5C1044.5 750.158 661 718.658 562 647.656c-125.476-89.991 250.311-141.228 471.04-171.323Z" fill="url(#d)" fill-opacity=".1"/><path d="M73.25 443.847c-4.923-14.649 10.435-24.131 16.725-35.295 8.149-15.276 12.098-25.848 13.055-29.224-14.728 6.161-69.53 23.832-29.78 64.519Z" fill="#97C65F" stroke="#97C65F" stroke-width=".159"/><path d="M313.616 256.433c-9.585 13.888-72.782-.897-103.183-10.025C99 224.16 68.584 172.07 23 190.16c17.116-43.768 63.955-63.562 95.496-68.697 45.562-7.418 68.798 43.158 116.504 51.197 47.706 8.04 82.528 61.522 90.108 71.547 7.195 9.516-8.163 7.233-11.492 12.226Z" fill="#9EBD78"/><path d="M55.7 176.725c74.575-43.28 176.047 80.687 238.398 63.082-3.01 7.604-26.879 12.931-97.979-24.71-71.099-37.641-98.379-33.585-110.736-29.466L55.7 176.725Z" fill="#83A658"/><path d="M80.153 259.368c-23.668 97.609-10.608 182.072-.746 208.968l-26.883 12.07c-8.412-41.86 3.504-164.8 10.514-221.038-2.34-41.123-169.589-23.675-24.94-81.911 61.954-24.942 82.84 47.458 131.057 54.282 24.647 4.107 39.122 11.329 43.279 14.426-41.486-6.684-126.021-13.4-132.28 13.203Z" fill="#698C3D"/><path d="M10.09 190.629c2.684 12.702 16.645 28.475 58.184 36.349 41.585 7.882 38.976 8.054 28.17 8.766-8.089.533-20.77 1.368-22.944 5.967C61.783 266.5 50.064 423.37 61.856 474.368l-9.485 6.295c-8.411-41.86 3.505-164.8 10.514-221.037-1.917-33.689-142.726-21.573-52.796-68.997Z" fill="#4D7B37" fill-rule="evenodd" clip-rule="evenodd"/><path d="M46.943 390.705c-1.672-1.953-17.61 21.507-19.42 28.674-.06.044-.07.074-.02.082l.02-.082c23.923-17.237 27.39 52.569 25.323 64.224 12-26.489 18.743-71.783-5.903-92.898Z" fill="#4D7B37"/><path d="M34.556 394.512c2.208-2.75 10.604-3.715 12.866-3.297-11.534 18.429-17.084 37.284-22.089 55.401-14.579-30.334-.625-50.39 2.202-53.214l7.021 1.11Z" fill="#678D3A"/><path d="m1178.78 318.16-59.99 13.38c-27.68 9.551-74.45 15.643-47.91 45.053 26.54 29.41 183.47 35.996 237.9 31.094l82.22-24.085c-202 2.558-328.07-34.558-212.22-65.442Z" fill="#269092"/><path d="M1137.93 418.669H1250c-39.73 14.257-235.46 61.694-245.3 26.491-13.7-49-51.7-47.5-45.699-79.5 3.954-21.096 79.959-29.218 98.499-36-94.382 71.919-29.54 89.009 80.43 89.009Z" fill="#1B8589"/><path d="M1276.49 381.5c-125.99 0-64.63-27.34-20.49-27.34 61 0 66 23 36.41 24.522l-27.91-8.522 11.99 11.34Zm-112.35-35.34c56.94 0 29.21 13 9.26 13-27.57 0-29.83-10.936-16.46-11.66l12.62 4.052-5.42-5.392Z" fill="#326A16"/><path d="M1335.18 712.464c-6.32-2.546 3.39-26.617 18.58-24.15C1385 697 1380 726 1335.18 712.464Z" fill="#A5663D" stroke="#A5663D" stroke-width=".324"/><path d="M1362.32 715.011c-3.88-1.432-13.66-1.101-18.06-.756-1.74 3.528-4.17 11.252 0 13.925 5.21 3.343 13.44 2.348 17.22 0 4.73-2.935 1.02-8.969.84-13.169Z" fill="#D1BC9F" stroke="#D1BC9F" stroke-width=".324"/><path d="M1337.25 704.79c-1.79-1.34-.85-5.642 2.11-9.609 2.96-3.966 6.81-6.095 8.61-4.754 1.8 1.34.85 5.642-2.11 9.608-2.96 3.967-6.81 6.096-8.61 4.755Z" fill="#BC856D"/><path d="M1343.69 715.633c5.28.123 15.93.59 16.22 1.475.37 1.102 1.1 9.889-.71 12.142.86-.307 1.64-.669 2.28-1.07 3.78-2.347 2.07-7.957 1.52-9.15-.45-.955-.64-3.077-.68-4.019-3.88-1.432-13.66-1.101-18.06-.756-.19.388-.39.826-.59 1.302.01.025.01.051.02.076Z" fill="#BFA27A" fill-rule="evenodd" clip-rule="evenodd"/><path d="M1366.64 714.873c15.43-2.375 1.81-21.646-6.64-24.873 3.32 5.129 6.04 7.344 4.65 14.37-.74 3.711-.26 8.016 1.99 10.503Z" fill="#905A37" fill-rule="evenodd" clip-rule="evenodd"/><path d="M1430.84 725.785c-1.63 14.533-50.39 8.254-60.68 4.038-10.19-4.169 5.44-43.571 29.89-39.533 24.45 4.038 32.2 22.99 30.79 35.495Z" fill="#C1A884"/><path d="M1413.68 733.507c-6.18-2.281-21.75-1.753-28.76-1.204-2.76 5.617-6.64 17.916 0 22.177 8.3 5.32 21.42 3.73 27.43 0 7.51-4.667 1.64-14.29 1.33-20.973Z" fill="#E8D9C6" stroke="#E8D9C6" stroke-width=".48"/><path d="M1372.18 715.898c-2.86-2.135-1.35-8.985 3.36-15.301 4.71-6.315 10.85-9.705 13.71-7.571 2.86 2.134 1.36 8.985-3.35 15.3-4.72 6.316-10.85 9.706-13.72 7.572Z" fill="#E8D9C6"/><path d="M1395.23 690.248c19.59 5.074 35.2 35.582 11.12 38.348-9.41 1.081-12.74 2.192-12.3 3.192 9.1-.13 35.53 6.412 37.04-6.819 2.21-19.182-17.12-36.445-35.86-34.721Z" fill="#A98C65" fill-rule="evenodd" clip-rule="evenodd"/><path d="M1384.2 734.089c8.5.199 25.63.957 26.1 2.393.59 1.788 1.77 16.048-1.15 19.698 11.29-3.981 5.37-14.205 5.02-23.098-6.25-2.324-21.98-1.786-29.06-1.227-.31.625-.63 1.332-.94 2.1l.03.134Z" fill="#D0B898" fill-rule="evenodd" clip-rule="evenodd"/><path d="M1140.68 306.894c-8.18-8.508-19-.271-28.4.719-12.56.993-20.75.413-23.28 0 9.84-10.448 41-36.453 51.68-.719Z" fill="#5D8133" stroke="#678D3A" stroke-width=".187"/><path d="M1131.15 262.16c-4.87 25.099 6.9 41.791 13.4 47l4.45-7.218c-1-6.267-3.11-11.648-4.06-13.534-3.75-9.274-10.27-16.648-13.79-26.248Z" fill="#80A157" stroke="#80A157" stroke-width=".113"/><path d="m1420.98 326.756-262.53-44.251-.01.005c-8.14-1.178-16.41 7.973-18.54 20.595-2.13 12.621 2.69 23.978 10.77 25.535l-.01.066 263.06 44.339.01-.075c8.08 1.008 16.24-8.099 18.35-20.621 2.11-12.522-2.61-23.8-10.58-25.497v-.008l-.31-.054-.11-.018c-.03-.005-.06-.011-.1-.016Z" fill="#5B4739" fill-rule="evenodd" clip-rule="evenodd"/><path d="m1139.81 303.659 292.17 49.245c.03-.183.07-.367.1-.551 2.11-12.523-2.61-23.8-10.58-25.497v-.008l-.32-.054-.1-.018c-.03-.006-.07-.011-.1-.016l-262.54-44.251v.005c-8.15-1.178-16.42 7.973-18.54 20.595l-.09.55Z" fill="#695546" fill-rule="evenodd" clip-rule="evenodd"/><path d="M1411.47 370.323c-7.31-1.232-11.67-11.484-9.75-22.899 1.93-11.415 9.41-19.671 16.72-18.439 7.31 1.231 11.67 11.484 9.75 22.899-1.93 11.415-9.41 19.67-16.72 18.439Z" fill="#876A55"/><path d="M1182.94 278.169c.58 4.612 2.44 7.935 3.3 9.02l-15.16-2.556c4.63.781 4.14-4.944 3.31-7.904 2.61-1.442 7.96-3.173 8.55 1.44Z" fill="#695546"/><path d="M1247.61 268.433c-4.96 3.436 2.3 18.491 6.55 25.589l7.84-17.862c-2.9-2.249-11.85-9.545-14.39-7.727Z" fill="#EBDF6F"/><path d="M1330.4 295.166c3.9-4.152-9.79-19.961-15.73-26.397l-5.1 19.651c3.39 1.809 18.84 8.931 20.83 6.746Z" fill="#EBDF6F" stroke="#EBDF6F" stroke-linecap="round" stroke-width=".42"/><path d="M1285.44 247.523c-19.98.956-21.46 18.629-26.28 27.855l-5.76 11.39v9.106c-1.31 3.139-4.55 10.256-2.26 12.768 10 8.581 30.83 7.326 41.22 7.326 9.53 0 13.06-1.556 20.63-3.314 4.2-1.972 12.92-14.768 10.1-25.886-1.69-6.639-3.15-9.455-10.1-22.187-1.88-3.457-9.49-17.921-27.55-17.058Z" fill="#EBDF6F" stroke="#EBDF6F" stroke-width=".42"/><path d="M1288.88 275.865c-2.55 2.472-5.77 2.693-8.92.178-1.04-.83-.27-2.239 1.12-2.251l6.55-.055c1.31-.01 2.14 1.262 1.25 2.128Z" fill="#D39724"/><path d="M1246 271.16c-1.14 5.652 5.37 18.996 7.5 22l2.21-5.963c-2.78-4.368-9.76-15.766-9.71-16.037Z" fill="#F3ECA8"/><path d="M1289.3 272.446c-3.06-2.706-6.7-2.726-9.95.474-.94.918-.05 2.266 1.33 2.185l7.53-.439c1.31-.077 2.02-1.393 1.09-2.22Z" fill="#E3AE47" stroke="#E3AE47" stroke-linecap="round" stroke-width=".42"/><path d="M1279.25 269.098c-.96-.56-3.34-1.31-5.19.175m21.35-.743c-.95-.56-3.34-1.309-5.19.177" stroke="#5B4739" stroke-linecap="round" stroke-width="1.46"/><path d="M1302.65 277.813c-2.6.089-4.77-1.705-4.85-4.007-.08-2.301 1.96-4.238 4.56-4.326 2.6-.088 4.77 1.706 4.85 4.007.08 2.301-1.96 4.238-4.56 4.326Z" fill="#EDA58D"/><path d="M1307.51 314.9c-3.23-14.07-6.25-31.791-24.63-30.718-15.78.922-17.98 18.704-17.93 30.08 13.29 3.188 28.99 2.387 42.56.638Z" fill="#F1EFB5" fill-rule="evenodd" clip-rule="evenodd"/><path d="M1287 247.16c18.57 2.638 27.66 20.047 25.44 38.887-.61 5.187 2.83-2.04 9.39-9.245-2.23-2.672-3.33-3.642-5.33-7.142-3.17-12.46-16.12-23.362-29.5-22.5Zm-36.08 60.892c.11.341.28.643.49.898 14.47 13.345 80.86 16.811 72.09-14.29-1.82-.099-6.65-3.787-6.58-2.096.18 5.252 1.05 29.857-66 15.488Z" fill="#D9BA3F" fill-rule="evenodd" clip-rule="evenodd"/><path d="M1251.25 300.483c-4.38-.039 2.65 10.114 6.7 15.195 7.24 6.545 11.13-11.516 11.3-13.658.49-6.218-7.53-1.083-8.64-2.253-1.73-1.829-2.26-2.291-3.92-2.034-1.65.257.02 2.799-5.44 2.75Z" fill="#E3AE47"/><path d="M1256.59 313.925c-4.04-5.35-9.26-13.477-5.34-13.442 5.75 1.785 3.07-7.323 9.36-.716 1.54 1.621 7.53-4.131 8.61 1.614-.81-.55-1.83-.895-2.61-1.12-1.6-.458-2.95 3.122-4.68 1.291-3.97-4.198-4.88.756-9.37.716-3.5-.031.3 6.458 4.03 11.657Z" fill="#D39724" fill-rule="evenodd" clip-rule="evenodd"/><path d="M1313.02 302.316c4.38-.039-2.65 10.113-6.7 15.194-7.24 6.545-11.13-11.516-11.3-13.658-.49-6.218 7.53-1.083 8.64-2.252 1.73-1.829 2.26-2.292 3.92-2.035 1.65.257-.02 2.8 5.44 2.751Z" fill="#E3AE47"/><path d="M1307.68 315.757c4.04-5.35 9.26-13.477 5.34-13.442-5.75 1.785-3.07-7.323-9.36-.716-1.54 1.621-7.52-4.131-8.61 1.614.81-.55 1.83-.895 2.61-1.12 1.6-.458 2.96 3.123 4.68 1.291 3.97-4.198 4.88.756 9.37.716 3.5-.031-.3 6.458-4.03 11.657Z" fill="#D39724" fill-rule="evenodd" clip-rule="evenodd"/><path d="m1259.5 274.16 3.49 3.618c-.32-6.147 1.07-18.344 9.01-25.118-9.38 5.322-12.5 14.808-12.5 21.5Z" fill="#F3ECA8" fill-rule="evenodd" clip-rule="evenodd"/><path d="M1265.99 278.653c-2.6.088-4.77-1.706-4.85-4.007-.08-2.301 1.97-4.238 4.56-4.326 2.6-.088 4.77 1.706 4.85 4.007.08 2.301-1.96 4.238-4.56 4.326Z" fill="#EDA58D"/><path d="M1319.44 273.969c1.34 1.577 19.56 23.191 9.09 21.412-4.44-14.407-12.48-16.331-16-15.458l6.91-5.954Z" fill="#D9BA3F" fill-rule="evenodd" clip-rule="evenodd"/><path d="M1404.75 347.446c-.76 4.547-.25 8.843 1.17 12.108 1.42 3.271 3.72 5.45 6.51 5.918 2.79.468 5.68-.843 8.08-3.472 2.41-2.625 4.29-6.521 5.05-11.068.77-4.547.26-8.844-1.16-12.109-1.42-3.27-3.72-5.449-6.51-5.917-2.8-.468-5.68.843-8.09 3.472-2.4 2.625-4.28 6.52-5.05 11.068Z" stroke="#5B4739" stroke-opacity=".5" stroke-width=".924"/><path d="M1409.12 348.6c-.48 2.902-.16 5.644.75 7.728.9 2.087 2.37 3.478 4.15 3.777 1.78.299 3.62-.538 5.16-2.216 1.54-1.675 2.74-4.161 3.22-7.063.49-2.903.16-5.645-.74-7.728-.91-2.088-2.37-3.479-4.16-3.777-1.78-.299-3.62.538-5.16 2.216-1.53 1.675-2.73 4.161-3.22 7.063Z" stroke="#5B4739" stroke-opacity=".5" stroke-width=".59"/><path d="M284 455.926c-1.148 7.491-.235 11.757 1.153 18.822 6.153-1.624 22.933-8.987 20.603-21.467-1.805-9.663-1.418-8.221-5.954-15.308-3.936 6.764-14.926 12.24-15.802 17.953Z" fill="url(#e)"/><path d="M292.086 456.492c1.148 7.49.235 11.756-1.153 18.821-6.153-1.623-22.933-8.987-20.603-21.466 1.805-9.664 1.418-8.221 5.954-15.308 3.936 6.764 14.926 12.239 15.802 17.953Z" fill="url(#f)"/><path d="M261.805 457.432c0 7.828 11.812 18.285 19.64 18.285 7.829 0 8 1.733 8-6.095 0-7.829-5.637-9.781-13.465-9.781-14.175-3.739-12.678-11.481-14.175-2.409Z" fill="url(#g)"/><path d="M261.805 457.432c0 7.828 11.812 18.285 19.64 18.285 7.829 0 8 1.733 8-6.095 0-7.829-5.637-9.781-13.465-9.781-14.175-3.739-12.678-11.481-14.175-2.409Z" fill="url(#h)"/><path d="M302.403 458.94c0 7.829-8.079 3.827-14.174 16.443-6.52-16.017-14.174-8.614-14.174-16.443 0-7.828 8.221-16.725 14.174-21.545 6.379 3.686 14.174 13.717 14.174 21.545Z" fill="url(#i)"/><path d="M302.561 457.664c.85 9.213-9.087 8.463-12.206 14.032 3.671-8.646 10.773-4.645 10.773-12.473 0-7.828-4.804-12.899-8.631-18.852 5.67 5.811 8.221 9.213 10.064 17.293Z" fill="#EEC1A9"/><path d="M314.312 457.51c0 7.828-11.812 18.285-19.64 18.285-7.829 0-8 1.733-8-6.095 0-7.829 5.637-9.781 13.466-9.781 14.174-3.739 12.677-11.481 14.174-2.409Z" fill="url(#j)"/><path d="M314.312 457.51c0 7.828-11.812 18.285-19.64 18.285-7.829 0-8 1.733-8-6.095 0-7.829 5.637-9.781 13.466-9.781 14.174-3.739 12.677-11.481 14.174-2.409Z" fill="url(#k)"/><path d="M304.391 456.84c1.723 6.543-7.581 15.502-13.032 16.938-5.451 1.436-5.189 2.916-6.912-3.627-1.723-6.542 4.111-13.538 9.561-14.974 13.845-1.215 7.344-5.644 10.383 1.663Z" fill="url(#l)"/><path d="M263.426 453.27c7.44 9.097 20.195 9.629 23.813 22.112 2.714-16.216-14.511-14.391-23.813-22.112Z" fill="#EAB29F"/><path d="M272.337 454.28c-2.925 5.595 4.525 16.117 9.607 18.773 5.082 2.656 4.546 3.954 7.47-1.642 2.925-5.596-1.486-13.46-6.568-16.117-13.367-4.51-6.148-6.991-10.509-1.014Z" fill="url(#m)"/><path d="M274.243 451.32a.515.515 0 0 0-.011.042c-.156.576-.539 1.569-1.637 3.078-.678 1.312-.765 2.934-.409 4.7.359 1.773 1.159 3.665 2.214 5.476 2.115 3.633 5.211 6.876 7.684 8.169.925.483 1.672.926 2.278 1.285.23.136.44.261.633.371.353.203.64.355.887.454.247.099.435.137.591.129.287-.014.579-.19 1.007-.797.426-.603.931-1.55 1.666-2.956 1.404-2.687 1.06-5.948-.289-8.895-1.345-2.938-3.666-5.506-6.131-6.802-5.811-1.963-7.771-3.554-8.483-4.254Z" stroke="#C88181" stroke-opacity=".02" stroke-width=".606"/><path d="M274.199 451.145c8.301 6.015 17.911 10.358 13.324 22.253-.359.931-.85 2.411-.85 2.411 3.995-4.902 4.846-10.998.85-16.301-3.414-4.531-8.599-5.643-13.324-8.363Z" fill="url(#n)"/><path d="M303.398 452.844c-.229 2.682.926 4.962.283 7.654-1.932 8.081-10.681 10.662-16.017 15.166 5.836-3.004 15.43-6.73 16.868-15.025.478-2.769-.583-5.123-1.134-7.795Z" fill="url(#o)"/><path d="M288.476 476.518c-5.438-4.374-10.866-10.049-12.566-17.01.507 7.406 6.357 13.596 12.566 17.01Z" fill="url(#p)"/><path d="M237.368 522.479C196.001 527.572 56 518.161 100.5 486.66c44.5-31.5 290-14.5 171.674 28.878L225 505.16l12.368 17.319Z" fill="#2A5C12"/><path d="M86.428 493.397c1.8 11.733.369 18.416-1.804 29.483-9.64-2.543-35.923-14.078-32.273-33.625 2.827-15.138 2.22-12.878 9.325-23.979 6.165 10.595 23.38 19.172 24.752 28.121Z" fill="url(#q)"/><path d="M73.755 494.288c-1.8 11.733-.368 18.416 1.805 29.482 9.639-2.543 35.923-14.078 32.272-33.625-2.826-15.137-2.22-12.877-9.325-23.978-6.165 10.595-23.38 19.172-24.752 28.121Z" fill="url(#r)"/><path d="M121.19 495.763c0 12.262-18.502 28.641-30.765 28.641-12.262 0-12.53 2.715-12.53-9.547s8.83-15.32 21.092-15.32c22.203-5.857 19.858-17.984 22.203-3.774Z" fill="url(#s)"/><path d="M121.19 495.763c0 12.262-18.502 28.641-30.765 28.641-12.262 0-12.53 2.715-12.53-9.547s8.83-15.32 21.092-15.32c22.203-5.857 19.858-17.984 22.203-3.774Z" fill="url(#t)"/><path d="M57.591 498.119c0 12.262 12.655 5.995 22.203 25.755 10.213-25.089 22.202-13.493 22.202-25.755 0-12.262-12.877-26.199-22.202-33.748-9.992 5.773-22.203 21.486-22.203 33.748Z" fill="url(#u)"/><path d="M66.5 514.66c-10.244-24.134-12.726-15.538 6.618-45.629-25.081 25.709-18.573 24.28-6.618 45.629Z" fill="#EEC1A9"/><path d="M38.943 495.876c0 12.263 18.502 28.642 30.764 28.642 12.263 0 12.531 2.715 12.531-9.547 0-12.263-8.83-15.32-21.092-15.32-22.203-5.858-19.858-17.984-22.203-3.775Z" fill="url(#v)"/><path d="M38.943 495.876c0 12.263 18.502 28.642 30.764 28.642 12.263 0 12.531 2.715 12.531-9.547 0-12.263-8.83-15.32-21.092-15.32-22.203-5.858-19.858-17.984-22.203-3.775Z" fill="url(#w)"/><path d="M54.486 494.827c-2.7 10.249 11.875 24.283 20.413 26.532 8.538 2.249 8.127 4.568 10.826-5.681 2.7-10.248-6.438-21.207-14.976-23.455-21.687-1.904-11.503-8.842-16.263 2.604Z" fill="url(#x)"/><path d="M118.652 489.234c-10.746 13.143-32.218 17.093-37.3 34.636-3.762-22.469 23.831-23.453 37.3-34.636Z" fill="#EAB29F"/><path d="M104.695 490.821c4.581 8.765-7.088 25.245-15.048 29.406-7.96 4.161-7.12 6.193-11.702-2.572-4.581-8.765 2.328-21.084 10.289-25.245 20.937-7.065 9.63-10.951 16.461-1.589Z" fill="url(#y)"/><path d="M101.841 485.713c.026.125.06.284.112.476.236.872.823 2.407 2.537 4.759 1.104 2.122 1.237 4.729.67 7.533-.567 2.809-1.833 5.796-3.494 8.649-3.326 5.713-8.204 10.832-12.13 12.884a73.025 73.025 0 0 0-3.552 2.004c-.362.215-.694.412-1 .587-.554.318-1.016.563-1.42.725-.402.161-.732.233-1.023.218-.563-.028-1.078-.384-1.758-1.347-.679-.961-1.477-2.461-2.625-4.657-2.245-4.295-1.685-9.483.447-14.138 2.128-4.649 5.804-8.72 9.723-10.775 10.075-3.401 12.722-6.077 13.513-6.918Z" stroke="#C88181" stroke-opacity=".02" stroke-width=".48"/><path d="M101.777 485.91c-7.652 7.371-21.198 11.044-23.534 22.869-1.078 5.453 2.324 10.729 3.996 15.763-4.798-5.885-7.3-12.959-4.44-20.204 4.108-10.406 15.094-13.313 23.978-18.428Z" fill="url(#z)"/><path d="M56.039 488.57c.357 4.201-1.452 7.774-.444 11.99 3.196 13.375 18.41 13.397 25.088 23.756 0 0-1.601-1.116-2.664-1.776-9.442-5.859-21.464-8.534-23.757-21.758-.75-4.335.91-8.027 1.777-12.212Z" fill="url(#A)"/><path d="M79.407 525.652c8.652-6.959 16.983-15.567 19.683-26.644-.809 11.823-9.688 21.15-19.683 26.644Z" fill="url(#B)"/><path d="M58.131 653.995c37.432 4.609 79.264 4.932 117.373.906 38.11-4.027 69.777-12.115 88.852-22.694 19.075-10.579 24.196-22.895 14.37-34.555-9.826-11.66-33.899-21.832-67.543-28.542-33.645-6.709-74.46-9.477-114.52-7.765-40.06 1.711-76.506 7.78-102.26 17.027-25.754 9.248-38.978 21.013-37.105 33.013 1.874 12 18.712 23.377 47.244 31.923l92.12-22.148-38.53 32.835Z" fill="#244B11"/><path d="M258.847 452.446c-5.829-22.508-44.363 24.265-24.883 28.438 3.554.762 29.792-9.479 24.883-28.438Z" fill="#9CCA77"/><path d="M251.098 478.746c-2.088-2.565-7.802-1.499-15.528-1.499-46.246 0 14.43 14.913 15.528 1.499Z" fill="#9CCA77"/><path d="M251.892 446.555c11.672 8.499-.573 22.655-15.134 30.605 17.742 6 33.742-30.605 15.134-30.605Z" fill="#88B465" fill-rule="evenodd" clip-rule="evenodd"/><path d="M226 479.16c13.367 2.361 20.127.346 22.601-1.805 2.145.503 3.833 2.259 2.394 4.445-8.055 12.249-44.606 1.331-24.995-2.64Z" fill="#88B465" fill-rule="evenodd" clip-rule="evenodd"/><path d="M133.598 452.446c5.829-22.508 44.365 24.265 24.884 28.438-3.555.762-29.793-9.479-24.884-28.438Z" fill="#9CCA77"/><path d="M141.452 481.803c-4.277-6.507 13.437-4.556 15.42-4.556 31.886 0-5.87 19.076-15.42 4.556Z" fill="#9CCA77"/><path d="M140.557 446.555c-11.557 7.605.573 22.655 15.134 30.605-19.691 5.001-34.169-31.928-15.134-30.605Z" fill="#88B465" fill-rule="evenodd" clip-rule="evenodd"/><path d="M165.94 478.122c-13.24 2.318-19.629 1.375-22.091-.767-2.146.502-3.835 2.259-2.397 4.446 7.048 12.359 50.548.859 24.488-3.679Z" fill="#88B465" fill-rule="evenodd" clip-rule="evenodd"/><path d="M227.647 404.032c4.317-10.358-10.533-20.287-19.128-13.627-1.89 1.609-5.332 5.417-7.618 4.571-4.333-1.151-8.463-.48-9.987 0-2.285.846-5.727-2.962-7.617-4.571-7.405-7.949-23.039 3.577-18.875 13.289C113 517.66 281.5 515.16 227.647 404.032Z" fill="#9CCA77"/><path d="M224.567 404.88c1.975-5.36 2.082-16.081-12.949-16.081a.333.333 0 0 1-.016-.024c8.584-3.073 19.823 6.191 16.045 15.258 14.146 32.281 31.853 81.127-21.575 83.764-.409-3.781-.183-7.436.298-10.213 38.473-6.877 30.485-38.934 18.197-72.704Zm-57.107-.001c-1.975-5.36-2.082-16.081 12.95-16.081a.42.42 0 0 1 .015-.022c-8.583-3.077-19.828 6.188-16.049 15.256-14.146 32.283-32.876 78.628 21.579 83.764.409-3.781.184-7.436-.298-10.213-38.473-6.877-30.485-38.934-18.197-72.704Z" fill="#88B465" fill-rule="evenodd" clip-rule="evenodd"/><path d="M177.044 405.809c2.083 0 3.771-2.046 3.771-4.571 0-2.524-1.688-4.57-3.771-4.57-2.082 0-3.771 2.046-3.771 4.57 0 2.525 1.689 4.571 3.771 4.571Zm36.715 0c2.082 0 3.771-2.046 3.771-4.571 0-2.524-1.689-4.57-3.771-4.57-2.083 0-3.771 2.046-3.771 4.57 0 2.525 1.688 4.571 3.771 4.571Zm-12.914 3.98c-4.294 2.63-7.598 1.049-9.156 0-1.43-.954-.665-2.123 0-1.656 1.558 1.049 4.608 2.98 9.156 0 .665-.467 1.461.761 0 1.656Z" fill="#5F4B3D"/><path d="M227.106 421.045c4.487 0 8.125-3.221 8.125-7.194 0-3.974-3.638-7.195-8.125-7.195s-8.125 3.221-8.125 7.195c0 3.973 3.638 7.194 8.125 7.194Zm-61.446 0c4.487 0 8.125-3.221 8.125-7.194 0-3.974-3.638-7.195-8.125-7.195-4.488 0-8.125 3.221-8.125 7.195 0 3.973 3.637 7.194 8.125 7.194Z" fill="#DBB396"/><path d="M220.409 484.551c-14.563 5.817-34.272 5.658-48.751-.3-48.501-75.589 99.53-77.416 48.751.3Z" fill="#CFE8A4" fill-rule="evenodd" clip-rule="evenodd"/><path d="M220.415 484.547c2.047-3.133 3.979-6.773 5.579-10.703-25.721 10.608-44.546 5.833-59.642.04 1.518 3.79 3.352 7.309 5.312 10.363 14.477 5.959 34.189 6.116 48.751.3Z" fill="#B7CF8C" fill-opacity=".5" fill-rule="evenodd" clip-rule="evenodd"/><path d="m182 489.66-13.559-26.719 23.464 10.1 2.595 17.619-12.5-1Zm28.5 0 13.559-26.719-23.464 10.1L198 490.66l12.5-1Z" fill="#CFE8A4"/><path d="M187.77 491.726c.399-.919 1.209-1.319 1.799-.205 1.455 3.004 6.223 1.976 4.931-1.361-3.354 1.386-3.671-2.763-5.846-3.348-2.199-.592.613 2.454-2.709 2.454-3.03 0-12.425-17.858-15.98-24.629.837 4.722 11.035 34.523 17.805 27.089Zm22.914-.205c-1.312 1.16-4.966 2.21-5.797-.033-.367-.981-1.223-.88-1.706.033-1.456 3.007-6.181 1.139-4.639-1.699 2.057.852 2.863-.25 3.679-1.366.516-.706 1.036-1.417 1.879-1.644 2.199-.592-.613 2.454 2.708 2.454 3.031 0 12.426-17.858 15.981-24.629-1.386 7.794-5.91 21.407-12.105 26.884Z" fill="#9CCA77" fill-rule="evenodd" clip-rule="evenodd"/></g><defs><linearGradient id="b" x1="632.627" x2="632.627" y1="107.16" y2="1324.16" gradientUnits="userSpaceOnUse"><stop stop-color="#15929A"/><stop offset="1" stop-color="#034444"/></linearGradient><linearGradient id="c" x1="1371.5" x2="103.5" y1="770.16" y2="767.66" gradientUnits="userSpaceOnUse"><stop stop-color="#6A5445"/><stop offset=".521" stop-color="#B59B79"/><stop offset="1" stop-color="#6A5445"/></linearGradient><linearGradient id="d" x1="882.097" x2="882.5" y1="639.046" y2="1636.16" gradientUnits="userSpaceOnUse"><stop stop-color="#78D2C1"/><stop offset="1" stop-color="#78D2C1" stop-opacity="0"/></linearGradient><linearGradient id="e" x1="299.714" x2="297.729" y1="439.522" y2="451.995" gradientUnits="userSpaceOnUse"><stop stop-color="#E09277"/><stop offset="1" stop-color="#FAE6CE"/></linearGradient><linearGradient id="f" x1="276.372" x2="278.357" y1="440.087" y2="452.56" gradientUnits="userSpaceOnUse"><stop stop-color="#E09277"/><stop offset="1" stop-color="#FAE6CE"/></linearGradient><linearGradient id="g" x1="270.248" x2="288.249" y1="463.047" y2="474.387" gradientUnits="userSpaceOnUse"><stop offset=".04" stop-color="#E09277"/><stop offset=".943" stop-color="#F7E7D8"/></linearGradient><linearGradient id="h" x1="270.248" x2="288.249" y1="463.047" y2="474.387" gradientUnits="userSpaceOnUse"><stop offset=".04" stop-color="#E09277"/><stop offset=".943" stop-color="#F7E7D8"/></linearGradient><linearGradient id="j" x1="305.869" x2="287.868" y1="463.126" y2="474.465" gradientUnits="userSpaceOnUse"><stop offset=".04" stop-color="#E09277"/><stop offset=".943" stop-color="#F7E7D8"/></linearGradient><linearGradient id="k" x1="305.869" x2="287.868" y1="463.126" y2="474.465" gradientUnits="userSpaceOnUse"><stop offset=".04" stop-color="#E09277"/><stop offset=".943" stop-color="#F7E7D8"/></linearGradient><linearGradient id="n" x1="282.291" x2="282.291" y1="451.145" y2="475.809" gradientUnits="userSpaceOnUse"><stop stop-color="#E09277"/><stop offset="1" stop-color="#F0BFAF" stop-opacity="0"/></linearGradient><linearGradient id="o" x1="296.158" x2="296.158" y1="452.844" y2="475.664" gradientUnits="userSpaceOnUse"><stop stop-color="#E09277"/><stop offset="1" stop-color="#F2D1BF"/></linearGradient><linearGradient id="p" x1="283.334" x2="281.052" y1="460.659" y2="475.366" gradientUnits="userSpaceOnUse"><stop stop-color="#E09277"/><stop offset="1" stop-color="#F1BCA9" stop-opacity="0"/></linearGradient><linearGradient id="q" x1="61.815" x2="64.923" y1="467.701" y2="487.24" gradientUnits="userSpaceOnUse"><stop stop-color="#F1B09E"/><stop offset="1" stop-color="#FAE6CE"/></linearGradient><linearGradient id="r" x1="98.368" x2="95.26" y1="468.592" y2="488.13" gradientUnits="userSpaceOnUse"><stop stop-color="#F1B09E"/><stop offset="1" stop-color="#FAE6CE"/></linearGradient><linearGradient id="s" x1="107.965" x2="79.768" y1="504.559" y2="522.322" gradientUnits="userSpaceOnUse"><stop stop-color="#EFB7A4"/><stop offset=".943" stop-color="#F7E7D8"/></linearGradient><linearGradient id="t" x1="107.965" x2="79.768" y1="504.559" y2="522.322" gradientUnits="userSpaceOnUse"><stop stop-color="#EFB7A4"/><stop offset=".943" stop-color="#F7E7D8"/></linearGradient><linearGradient id="v" x1="52.167" x2="80.365" y1="504.673" y2="522.435" gradientUnits="userSpaceOnUse"><stop stop-color="#EFB7A4"/><stop offset=".943" stop-color="#F7E7D8"/></linearGradient><linearGradient id="w" x1="52.167" x2="80.365" y1="504.673" y2="522.435" gradientUnits="userSpaceOnUse"><stop stop-color="#EFB7A4"/><stop offset=".943" stop-color="#F7E7D8"/></linearGradient><linearGradient id="z" x1="89.103" x2="89.103" y1="485.91" y2="524.542" gradientUnits="userSpaceOnUse"><stop stop-color="#F0BFAF"/><stop offset="1" stop-color="#F0BFAF" stop-opacity="0"/></linearGradient><linearGradient id="A" x1="67.323" x2="67.323" y1="488.57" y2="524.316" gradientUnits="userSpaceOnUse"><stop stop-color="#F4B59C"/><stop offset="1" stop-color="#F1C4B2" stop-opacity="0"/></linearGradient><linearGradient id="B" x1="87.462" x2="91.035" y1="500.811" y2="523.849" gradientUnits="userSpaceOnUse"><stop stop-color="#F1BCA9"/><stop offset="1" stop-color="#F1BCA9" stop-opacity="0"/></linearGradient><radialGradient id="i" cx="0" cy="0" r="1" gradientTransform="matrix(-.14175 30.19137 -22.53085 -.10578 288.371 445.191)" gradientUnits="userSpaceOnUse"><stop stop-color="#E09277"/><stop offset=".4" stop-color="#F1BEAB"/></radialGradient><radialGradient id="l" cx="0" cy="0" r="1" gradientTransform="matrix(17.45365 -15.13483 20.81428 24.00325 287.272 472.552)" gradientUnits="userSpaceOnUse"><stop stop-color="#FCE5D0"/><stop offset="1" stop-color="#EFB7A4"/></radialGradient><radialGradient id="m" cx="0" cy="0" r="1" gradientTransform="rotate(-128.137 258.074 166.885) scale(23.1371 30.117)" gradientUnits="userSpaceOnUse"><stop stop-color="#FCE5D0"/><stop offset="1" stop-color="#EFB7A4"/></radialGradient><radialGradient id="u" cx="0" cy="0" r="1" gradientTransform="rotate(89.731 -199.627 278.264) scale(47.292 35.2925)" gradientUnits="userSpaceOnUse"><stop stop-color="#FADFCC"/><stop offset="1" stop-color="#F1BEAB"/></radialGradient><radialGradient id="x" cx="0" cy="0" r="1" gradientTransform="rotate(-139.07 137.573 244.552) scale(36.1864 49.7655)" gradientUnits="userSpaceOnUse"><stop stop-color="#FCE5D0"/><stop offset="1" stop-color="#EFB7A4"/></radialGradient><radialGradient id="y" cx="0" cy="0" r="1" gradientTransform="matrix(22.3811 -28.50534 37.10465 29.1329 83.003 520.031)" gradientUnits="userSpaceOnUse"><stop stop-color="#FCE5D0"/><stop offset="1" stop-color="#EFB7A4"/></radialGradient><clipPath id="a"><path d="M0 0h1440v1312H0z" fill="#fff"/></clipPath></defs></svg>