<svg width="1440" height="1897" viewBox="0 0 1440 1897" fill="none" xmlns="http://www.w3.org/2000/svg">
<g clip-path="url(#clip0_72_2796)">
<rect width="1440" height="1897" fill="#B2CDAF"/>
<path d="M1122 243C597.99 124.265 1165.5 65.3308 1746.68 74.9973V92.2761V137.997C1567.48 104.608 1201.77 116.72 1129.5 148.499C1045.26 185.542 2031 251.499 1813.5 622.846C1531.5 893.346 535.5 1020 317.5 1080.5C99.5 1141 -18.4834 1326.87 207 1437.5C367 1516 1662.54 1672.54 1727.5 2115.5L1536.27 2887.35H-2329.11C-2317.15 2624.55 -1735.31 1687.11 -1563.75 1429.29C-1216.38 907.239 -765.815 866.008 -276.861 801.775C224.904 735.859 748.856 688.729 1153.23 622.846C1318 596.001 1703.32 374.722 1122 243Z" fill="url(#paint0_linear_72_2796)"/>
<path d="M1767 138.498C1613.96 132.765 1453.82 127.814 1315.61 126.472C1208.35 136.186 1118.45 150.611 1088 164C1003.76 201.043 2031 241.496 1813.5 612.844C1531.5 883.344 535.5 1010 317.5 1070.5C99.5 1131 -17.4834 1318.87 208 1429.5C368 1508 1713 1652.5 1727.5 2105.5L1536.27 2877.34H-2329.11C-2317.15 2614.55 -1735.31 1677.11 -1563.75 1419.29C-1216.38 897.237 -765.815 856.005 -276.861 791.772C224.904 725.856 771.629 678.726 1176 612.844C1340.77 585.998 1719 358.497 1137.68 226.775C763.983 142.1 972.014 123.135 1315.61 126.472C1462.92 113.129 1642.98 108.673 1746.68 127.995V82.2734L1767 138.498Z" fill="url(#paint1_linear_72_2796)"/>
<g filter="url(#filter0_i_72_2796)">
<path d="M1119.79 252.902C595.775 134.166 1147.61 81.4553 1728.79 91.1218V108.401V154.122C1549.59 120.733 1183.88 132.844 1111.61 164.623C1027.36 201.666 2013.11 267.623 1795.61 638.971C1513.61 909.471 517.609 1036.12 299.609 1096.62C81.6094 1157.12 -36.374 1343 189.109 1453.62C349.109 1532.12 1644.65 1688.67 1709.61 2131.62L1518.38 2903.47H-2347C-2335.04 2640.67 -1753.2 1703.24 -1581.64 1445.42C-1234.27 923.364 -783.706 882.132 -294.752 817.899C207.014 751.983 730.966 704.854 1135.34 638.971C1300.11 612.125 1701.11 384.624 1119.79 252.902Z" fill="#57C0AC"/>
</g>
<path d="M390.779 1022.33L400.118 1020.84L246.324 1076.21L152.824 1124.71L96.8242 1169.21L57.3243 1216.71L41.8243 1248.21L35.8242 1282.21L35.8243 1313.21L45.3242 1339.21C-4.17581 1334.21 -258.882 1366.69 126.162 1521.73C242.899 1568.73 775.309 1682.44 553.569 1860.12C498.529 1988.63 -171.859 2058.38 -271.65 2135.48C-371.441 2212.58 -365.262 2292.79 -271.65 2339.24C203.36 2574.94 1267.17 2186.13 1349.91 3280.75L-1751.15 3172.81C-1699.38 2051.56 -1684.09 2578.53 -1602.3 2458.19C-1258.68 1952.64 -803.069 1826.04 -584.616 1816.06C-356.446 1805.64 83.4631 1770.56 232.543 1704.82C412.356 1625.52 -309.718 1556.13 -496.119 1399.72C-732.373 1201.49 -24.8211 1088.62 390.779 1022.33Z" fill="url(#paint2_linear_72_2796)" fill-opacity="0.3"/>
<path d="M988.316 668.293L875.284 695.201C823.135 714.407 735.011 726.658 785.019 785.802C835.028 844.945 1130.71 858.188 1233.27 848.331L1388.18 799.897C1322.95 734.527 1184.38 761.507 1006.64 746.722C864.438 734.893 929.066 685.154 988.316 668.293Z" fill="#78D2C1" fill-opacity="0.5"/>
<path d="M649.396 800.11C627.929 829.151 683.292 873.903 900.214 873.903H1111.18C1036.38 902.031 667.918 995.622 649.395 926.168C623.614 829.494 552.08 832.453 563.375 769.319C567.708 745.101 696.273 716.392 738.908 702.082L748.799 698.293C719.53 721.67 609.495 763.4 649.396 800.11Z" fill="#78D2C1" fill-opacity="0.3"/>
<path d="M1144.04 707.028C1064.23 713.885 1085.93 677.361 1110.21 663.319C1101.82 664.7 1055.87 673.467 1031.03 682.474C972.534 703.685 1051.06 727.445 1077.73 727.894C1110.87 728.453 1142.78 718.202 1159.86 715.329C1181.8 709.364 1285.5 721.035 1344.35 727.894C1330.33 724.926 1228.36 709.787 1215.8 707.028C1194.71 702.391 1189.51 700.697 1144.04 707.028Z" fill="#78D2C1" fill-opacity="0.4"/>
<path d="M1378.34 0C1358.82 95.7372 1405.98 159.406 1432 179.273L1449.83 151.74C1445.83 127.837 1437.37 107.313 1433.56 100.117C1429.86 91.3571 1419.8 71.5213 1409.79 61.6347C1399.77 51.7481 1384.65 16.4255 1378.34 0Z" fill="#4D7B37" stroke="#5A7639" stroke-width="0.312867"/>
<path d="M1429.33 131.94L1436.5 135.617L1436.01 140.315L1427.76 134.843C1408.06 123.305 1386.14 139.799 1377.64 149.489L1317.02 208.044C1319.67 187.443 1326.91 143.674 1334.63 133.412C1342.34 123.15 1358 116.588 1364.86 114.591C1387 107.742 1417.06 123.303 1429.33 131.94Z" fill="#97C65F" stroke="#97C65F" stroke-width="0.274274"/>
<path d="M1397.27 135.638C1413.38 177.731 1426.66 231.391 1399.46 314.642C1370.29 403.937 1383.66 456.105 1406.65 493.515" stroke="#61934A" stroke-width="3" stroke-linecap="round"/>
<path d="M1390.11 452.121L1388.48 448.188C1392.78 448.075 1397 450.632 1398.58 451.924C1391.73 451.228 1389.9 451.551 1390.11 452.121L1390.12 452.146C1390.11 452.138 1390.11 452.129 1390.11 452.121Z" fill="#61934A"/>
<path d="M1388.48 448.188L1390.12 452.146C1389.85 451.56 1391.63 451.217 1398.58 451.924C1397 450.632 1392.78 448.075 1388.48 448.188Z" stroke="#61934A" stroke-width="1.15385" stroke-linecap="round"/>
<path d="M1388.92 355.865L1390.11 351.778C1393.54 354.389 1395.22 359.028 1395.64 361.021C1390.74 356.189 1389.11 355.291 1388.92 355.865L1388.91 355.892C1388.91 355.882 1388.91 355.874 1388.92 355.865Z" fill="#61934A"/>
<path d="M1390.11 351.778L1388.91 355.892C1389.06 355.265 1390.67 356.117 1395.64 361.021C1395.22 359.028 1393.54 354.389 1390.11 351.778Z" stroke="#61934A" stroke-width="1.15385" stroke-linecap="round"/>
<path d="M1405.81 493.395C1408.96 492.251 1415.83 492.403 1418.09 502.158C1420.27 511.577 1422.5 514.181 1423.44 514.352C1423.47 514.355 1423.51 514.358 1423.54 514.361C1423.51 514.361 1423.48 514.358 1423.44 514.352C1413.44 513.375 1396.05 507.84 1405.81 493.395Z" fill="#61934A"/>
<path d="M1405.81 493.395C1408.96 492.251 1415.83 492.403 1418.09 502.158C1420.34 511.913 1422.66 514.358 1423.54 514.361C1413.55 513.41 1396.02 507.886 1405.81 493.395Z" stroke="#61934A" stroke-width="0.337854"/>
<path d="M1417.61 511.233C1413.59 510.338 1405.58 506.247 1405.74 497.04C1404.34 501.077 1404.77 509.569 1417.61 511.233Z" fill="#7AB55E"/>
<path d="M1397.43 450.256C1396.04 452.77 1395.26 458.601 1403.21 461.817C1410.89 464.923 1412.8 467.163 1412.82 467.981C1412.82 468.009 1412.82 468.036 1412.81 468.063C1412.82 468.038 1412.82 468.011 1412.82 467.981C1413.33 459.38 1410.97 443.919 1397.43 450.256Z" fill="#61934A"/>
<path d="M1397.43 450.256C1396.04 452.77 1395.26 458.601 1403.21 461.817C1411.17 465.034 1412.93 467.322 1412.81 468.063C1413.34 459.479 1411.01 443.899 1397.43 450.256Z" stroke="#61934A" stroke-width="0.289558"/>
<path d="M1410.96 462.634C1410.74 459.107 1408.35 451.779 1400.53 450.683C1404.13 450.042 1411.27 451.535 1410.96 462.634Z" fill="#7AB55E"/>
<path d="M1383.07 410.151L1382.26 405.971C1378.61 408.255 1376.5 412.718 1375.91 414.665C1381.23 410.305 1382.93 409.561 1383.07 410.151L1383.08 410.178C1383.08 410.168 1383.08 410.159 1383.07 410.151Z" fill="#61934A"/>
<path d="M1382.26 405.971L1383.08 410.178C1382.98 409.539 1381.3 410.24 1375.91 414.665C1376.5 412.718 1378.61 408.255 1382.26 405.971Z" stroke="#61934A" stroke-width="1.15385" stroke-linecap="round"/>
<path d="M1375.94 412.644C1378.48 413.972 1382.36 418.397 1377.51 425.472C1372.82 432.304 1372.47 435.224 1372.9 435.917C1372.92 435.939 1372.93 435.961 1372.95 435.983C1372.93 435.964 1372.92 435.942 1372.9 435.917C1367.73 429.028 1361.16 414.835 1375.94 412.644Z" fill="#61934A"/>
<path d="M1375.94 412.644C1378.48 413.972 1382.36 418.397 1377.51 425.472C1372.65 432.548 1372.45 435.427 1372.95 435.983C1367.77 429.119 1361.11 414.842 1375.94 412.644Z" stroke="#61934A" stroke-width="0.289558"/>
<path d="M1371.5 430.433C1369.73 427.372 1367.68 419.941 1373.59 414.711C1370.23 416.167 1365.11 421.351 1371.5 430.433Z" fill="#7AB55E"/>
<path d="M1403.97 298.738L1404.33 295.069C1400.13 296.591 1396.85 300.158 1395.73 301.751C1402.12 298.652 1404 298.217 1403.97 298.738L1403.97 298.762C1403.97 298.754 1403.97 298.746 1403.97 298.738Z" fill="#61934A"/>
<path d="M1404.33 295.069L1403.97 298.762C1404.05 298.205 1402.22 298.606 1395.73 301.751C1396.85 300.158 1400.13 296.591 1404.33 295.069Z" stroke="#61934A" stroke-width="1.15385" stroke-linecap="round"/>
<path d="M1397.34 299.336C1399.34 301.394 1401.64 306.809 1394.81 312.012C1388.22 317.035 1386.98 319.699 1387.17 320.493C1387.18 320.519 1387.19 320.545 1387.2 320.571C1387.19 320.548 1387.18 320.522 1387.17 320.493C1384.41 312.331 1382.61 296.795 1397.34 299.336Z" fill="#61934A"/>
<path d="M1397.34 299.336C1399.34 301.394 1401.64 306.809 1394.81 312.012C1387.99 317.214 1386.89 319.886 1387.2 320.571C1384.42 312.431 1382.56 296.787 1397.34 299.336Z" stroke="#61934A" stroke-width="0.289558"/>
<path d="M1387.56 314.846C1386.84 311.386 1387.21 303.686 1394.46 300.566C1390.81 300.899 1384.33 304.222 1387.56 314.846Z" fill="#7AB55E"/>
<path d="M1413.81 240.703L1414.31 237.25C1409.95 238.832 1406.45 242.297 1405.24 243.833C1411.92 240.69 1413.85 240.214 1413.81 240.703L1413.81 240.726C1413.81 240.718 1413.81 240.711 1413.81 240.703Z" fill="#61934A"/>
<path d="M1414.31 237.25L1413.81 240.726C1413.91 240.2 1412.02 240.644 1405.24 243.833C1406.45 242.297 1409.95 238.832 1414.31 237.25Z" stroke="#61934A" stroke-width="1.15385" stroke-linecap="round"/>
<path d="M1407.11 241.583C1409.06 243.691 1411.22 249.164 1404.27 254.191C1397.55 259.044 1396.24 261.675 1396.41 262.474C1396.42 262.501 1396.43 262.527 1396.44 262.553C1396.43 262.529 1396.42 262.503 1396.41 262.474C1393.86 254.245 1392.45 238.668 1407.11 241.583Z" fill="#61934A"/>
<path d="M1407.11 241.583C1409.06 243.691 1411.22 249.164 1404.27 254.191C1397.31 259.217 1396.15 261.86 1396.44 262.553C1393.87 254.344 1392.41 238.659 1407.11 241.583Z" stroke="#61934A" stroke-width="0.289558"/>
<path d="M1396.94 256.837C1396.31 253.36 1396.88 245.672 1404.2 242.738C1400.55 242.978 1393.98 246.134 1396.94 256.837Z" fill="#7AB55E"/>
<path d="M1403.38 155.067L1401.98 151.798C1398.98 155.834 1397.74 160.959 1397.49 163.016C1401.7 156.22 1403.16 154.621 1403.38 155.067L1403.39 155.088C1403.39 155.081 1403.39 155.074 1403.38 155.067Z" fill="#61934A"/>
<path d="M1401.98 151.798L1403.39 155.088C1403.2 154.574 1401.77 156.119 1397.49 163.016C1397.74 160.959 1398.98 155.834 1401.98 151.798Z" stroke="#61934A" stroke-width="1.15385" stroke-linecap="round"/>
<path d="M1398.47 159.613C1401.13 160.692 1405.41 164.726 1401.25 172.233C1397.24 179.482 1397.17 182.423 1397.67 183.071C1397.69 183.091 1397.71 183.111 1397.73 183.131C1397.71 183.114 1397.69 183.094 1397.67 183.071C1391.86 176.709 1383.96 163.209 1398.47 159.613Z" fill="#61934A"/>
<path d="M1398.47 159.613C1401.13 160.692 1405.41 164.726 1401.25 172.233C1397.1 179.741 1397.17 182.627 1397.73 183.131C1391.91 176.795 1383.91 163.22 1398.47 159.613Z" stroke="#61934A" stroke-width="0.289558"/>
<path d="M1395.75 177.745C1393.7 174.866 1390.94 167.666 1396.33 161.894C1393.12 163.665 1388.52 169.315 1395.75 177.745Z" fill="#7AB55E"/>
<path d="M1394.45 357.333C1392.21 359.128 1389.26 364.22 1395.4 370.223C1401.32 376.018 1402.23 378.815 1401.93 379.579C1401.92 379.604 1401.91 379.629 1401.9 379.653C1401.91 379.631 1401.92 379.606 1401.93 379.579C1405.68 371.819 1409.38 356.623 1394.45 357.333Z" fill="#61934A"/>
<path d="M1394.45 357.333C1392.21 359.128 1389.26 364.22 1395.4 370.223C1401.53 376.225 1402.29 379.011 1401.9 379.653C1405.66 371.916 1409.43 356.621 1394.45 357.333Z" stroke="#61934A" stroke-width="0.289558"/>
<path d="M1402.25 373.923C1403.39 370.578 1403.96 362.891 1397.15 358.903C1400.73 359.682 1406.76 363.777 1402.25 373.923Z" fill="#7AB55E"/>
<path d="M1411.35 270.072L1411.91 266.439C1415.86 269.45 1418.36 274.075 1419.11 276.011C1413.28 270.676 1411.46 269.565 1411.35 270.072L1411.35 270.095C1411.35 270.087 1411.35 270.079 1411.35 270.072Z" fill="#61934A"/>
<path d="M1411.91 266.439L1411.35 270.095C1411.41 269.533 1413.2 270.597 1419.11 276.011C1418.36 274.075 1415.86 269.45 1411.91 266.439Z" stroke="#61934A" stroke-width="1.15385" stroke-linecap="round"/>
<path d="M1417.19 273.532C1414.95 275.329 1412 280.421 1418.14 286.422C1424.06 292.216 1424.97 295.013 1424.68 295.777C1424.67 295.802 1424.66 295.826 1424.64 295.851C1424.66 295.829 1424.67 295.804 1424.68 295.777C1428.42 288.016 1432.12 272.819 1417.19 273.532Z" fill="#61934A"/>
<path d="M1417.19 273.532C1414.95 275.329 1412 280.421 1418.14 286.422C1424.27 292.423 1425.03 295.208 1424.64 295.851C1428.4 288.113 1432.17 272.816 1417.19 273.532Z" stroke="#61934A" stroke-width="0.289558"/>
<path d="M1424.99 290.124C1426.13 286.778 1426.71 279.091 1419.89 275.105C1423.47 275.883 1429.5 279.976 1424.99 290.124Z" fill="#7AB55E"/>
<path d="M1412.37 187.177L1412.98 183.236C1417.67 187.891 1420.68 193.917 1421.59 196.348C1414.66 188.47 1412.49 186.637 1412.37 187.177L1412.37 187.203C1412.37 187.194 1412.37 187.185 1412.37 187.177Z" fill="#61934A"/>
<path d="M1412.98 183.236L1412.37 187.203C1412.43 186.584 1414.55 188.353 1421.59 196.348C1420.68 193.917 1417.67 187.891 1412.98 183.236Z" stroke="#61934A" stroke-width="1.15385" stroke-linecap="round"/>
<path d="M1421.33 194.397C1419.12 196.234 1416.27 201.38 1422.52 207.267C1428.55 212.951 1429.51 215.73 1429.23 216.5C1429.22 216.525 1429.21 216.549 1429.19 216.574C1429.21 216.552 1429.22 216.527 1429.23 216.5C1432.83 208.671 1436.24 193.408 1421.33 194.397Z" fill="#61934A"/>
<path d="M1421.33 194.397C1419.12 196.234 1416.27 201.38 1422.52 207.267C1428.76 213.154 1429.57 215.925 1429.19 216.574C1432.81 208.768 1436.29 193.405 1421.33 194.397Z" stroke="#61934A" stroke-width="0.289558"/>
<path d="M1429.44 210.84C1430.52 207.474 1430.95 199.778 1424.06 195.918C1427.66 196.63 1433.76 200.611 1429.44 210.84Z" fill="#7AB55E"/>
<path d="M1397.42 134.329C1396.39 136.843 1396.3 142.403 1404.13 144.538C1411.68 146.598 1413.72 148.489 1413.83 149.255C1413.83 149.281 1413.83 149.307 1413.83 149.333C1413.83 149.308 1413.83 149.282 1413.83 149.255C1413.35 141.125 1409.41 126.877 1397.42 134.329Z" fill="#61934A"/>
<path d="M1397.42 134.329C1396.39 136.843 1396.3 142.403 1404.13 144.538C1411.95 146.672 1413.86 148.624 1413.83 149.333C1413.38 141.216 1409.45 126.853 1397.42 134.329Z" stroke="#61934A" stroke-width="0.27367"/>
<path d="M1411.49 144.441C1410.89 141.155 1407.83 134.544 1400.37 134.384C1403.68 133.382 1410.54 133.99 1411.49 144.441Z" fill="#7AB55E"/>
<path d="M1091.28 625.93C1103.79 622.375 1112.42 634.207 1115.18 640.567L1112.85 645.01C1108.9 640.894 1104.39 640.567 1100.43 641.416C1096.47 642.266 1091.28 645.01 1084.46 645.729C1071.89 646.722 1063.7 646.143 1061.18 645.729C1066 640.61 1078.78 629.485 1091.28 625.93Z" fill="#5D8133" stroke="#678D3A" stroke-width="0.186695"/>
<path d="M1102.33 593.277C1097.45 618.377 1109.23 635.069 1115.72 640.277L1120.18 633.059C1119.18 626.793 1117.06 621.412 1116.11 619.525C1115.19 617.228 1112.68 612.028 1110.18 609.436C1107.68 606.844 1103.9 597.584 1102.33 593.277Z" fill="#80A157" stroke="#80A157" stroke-width="0.112712"/>
<path fill-rule="evenodd" clip-rule="evenodd" d="M1419.71 663.687L1135.55 615.791C1135.52 615.786 1135.49 615.78 1135.46 615.775C1135.43 615.77 1135.4 615.766 1135.37 615.761L1135.21 615.734L1135.21 615.737C1126.38 614.457 1117.41 624.379 1115.11 638.063C1112.8 651.747 1118.02 664.059 1126.78 665.745L1126.77 665.819L1411.94 713.884L1411.96 713.802C1420.72 714.894 1429.56 705.022 1431.85 691.447C1434.14 677.873 1429.02 665.648 1420.38 663.807L1420.38 663.8L1420.14 663.759C1420.07 663.745 1420 663.733 1419.93 663.721C1419.86 663.709 1419.78 663.698 1419.71 663.687Z" fill="#5B4739"/>
<path fill-rule="evenodd" clip-rule="evenodd" d="M1115 638.66L1431.73 692.045C1431.77 691.846 1431.81 691.647 1431.84 691.447C1434.13 677.873 1429.01 665.648 1420.37 663.807L1420.37 663.8L1420.13 663.759C1420.06 663.745 1419.99 663.733 1419.92 663.721C1419.85 663.709 1419.78 663.698 1419.71 663.687L1135.54 615.791C1135.51 615.786 1135.48 615.78 1135.45 615.775C1135.42 615.77 1135.39 615.766 1135.36 615.761L1135.2 615.734L1135.2 615.737C1126.37 614.457 1117.41 624.379 1115.1 638.063C1115.07 638.262 1115.03 638.461 1115 638.66Z" fill="#695546"/>
<ellipse cx="14.5452" cy="22.7222" rx="14.5452" ry="22.7222" transform="matrix(-0.986091 -0.166205 -0.166205 0.986091 1431.41 668.534)" fill="#876A55"/>
<path d="M1161.76 611.032C1162.39 616.032 1164.41 619.634 1165.34 620.81L1148.9 618.04C1153.92 618.886 1153.39 612.679 1152.5 609.471C1155.32 607.908 1161.13 606.032 1161.76 611.032Z" fill="#695546"/>
<path d="M1231.87 600.481C1226.5 604.205 1234.37 620.526 1238.97 628.221L1244.76 605.333C1241.61 602.895 1234.63 598.51 1231.87 600.481Z" fill="#ECE285" stroke="#ECE285" stroke-width="0.420245" stroke-linecap="round"/>
<path d="M1321.62 629.462C1325.85 624.961 1311.01 607.823 1304.57 600.846L1299.04 622.149C1302.71 624.111 1319.47 631.83 1321.62 629.462Z" fill="#ECE285" stroke="#ECE285" stroke-width="0.420245" stroke-linecap="round"/>
<path d="M1272.89 577.813C1249.62 581.658 1249.62 598.008 1244.39 608.009L1238.15 620.357L1238.15 630.228C1236.73 633.632 1233.22 641.346 1235.7 644.069C1246.54 653.372 1269.12 652.011 1280.38 652.011C1290.71 652.011 1294.54 650.324 1302.75 648.418C1307.3 646.281 1316.75 632.409 1313.69 620.357C1311.87 613.16 1310.28 610.107 1302.75 596.304C1300.71 592.558 1294.21 578.178 1272.89 577.813Z" fill="#ECE285" stroke="#ECE285" stroke-width="0.420245"/>
<path d="M1276.77 608.373C1273.94 611.262 1270.28 611.524 1266.74 608.564C1265.72 607.714 1266.49 606.305 1267.88 606.293L1275.5 606.23C1276.82 606.219 1277.64 607.489 1276.77 608.373Z" fill="#D6A443"/>
<path d="M1230.27 601.789C1229.04 607.917 1236.65 623.775 1238.96 627.031L1240.65 620.822C1237.64 616.086 1230.21 602.083 1230.27 601.789Z" fill="#F3ECA8" stroke="#FDFCE1" stroke-width="0.0744645" stroke-linecap="round"/>
<path d="M1277.23 604.99C1273.83 601.849 1269.73 601.815 1266.09 605.533C1265.18 606.466 1266.07 607.813 1267.45 607.733L1276.13 607.225C1277.44 607.149 1278.15 605.834 1277.23 604.99Z" fill="#F2C162" stroke="#F2C162" stroke-width="0.420245" stroke-linecap="round"/>
<path d="M1266.17 601.201C1265.13 600.594 1262.55 599.782 1260.54 601.392" stroke="#5B4739" stroke-width="1.45973" stroke-linecap="round"/>
<path d="M1283.69 600.588C1282.65 599.98 1280.07 599.169 1278.06 600.779" stroke="#5B4739" stroke-width="1.45973" stroke-linecap="round"/>
<ellipse cx="5.10445" cy="4.51957" rx="5.10445" ry="4.51957" transform="matrix(-0.999425 0.033909 0.033909 0.999425 1296.33 601.44)" fill="#EAAF9C"/>
<path fill-rule="evenodd" clip-rule="evenodd" d="M1296.79 650.855C1296.52 649.628 1296.25 648.38 1295.98 647.124C1292.78 632.384 1289.33 616.433 1270.1 617.556C1253 618.555 1250.6 637.83 1250.66 650.163C1261.13 652.676 1273.26 652.387 1280.13 651.568C1284.05 652.111 1290.45 651.673 1296.79 650.855Z" fill="#F1EFB5"/>
<path fill-rule="evenodd" clip-rule="evenodd" d="M1276.76 578.568C1296.88 581.432 1304.57 599.155 1302.16 619.575C1301.74 623.091 1303.05 621.348 1305.81 617.641C1307.48 615.416 1309.67 612.483 1312.33 609.556C1310.38 607.213 1308.75 605.698 1307.85 604.854C1307.51 604.538 1307.27 604.317 1307.15 604.181C1306.79 603.762 1306.29 602.698 1305.59 601.229C1302.32 594.331 1294.8 578.494 1278.23 578.495C1277.74 578.512 1277.24 578.537 1276.76 578.568Z" fill="#E8D072"/>
<path fill-rule="evenodd" clip-rule="evenodd" d="M1235.45 643.429C1235.58 643.798 1235.76 644.125 1235.99 644.401C1245.02 652.73 1262.79 652.511 1273.92 652.374C1275.23 652.358 1276.44 652.343 1277.53 652.343C1287.14 652.343 1294.4 650.846 1302.03 648.94C1305.36 647.258 1314.59 636.915 1312.77 627.718C1310.62 627.602 1308.53 627.225 1307.2 625.696C1306.96 625.414 1306.97 625.797 1307 626.64C1307.2 632.333 1308.15 659.006 1235.45 643.429Z" fill="#CCAD3D" fill-opacity="0.4"/>
<path d="M1235.82 635.223C1231.07 635.181 1238.69 646.187 1243.09 651.695C1250.93 658.79 1255.15 639.212 1255.34 636.89C1255.52 634.567 1252.77 633.543 1251.04 633.047C1249.31 632.552 1247.85 636.429 1245.97 634.447C1244.09 632.465 1243.51 631.962 1241.72 632.241C1239.93 632.52 1241.74 635.277 1235.82 635.223Z" fill="#F2C162"/>
<path fill-rule="evenodd" clip-rule="evenodd" d="M1241.61 649.793C1237.22 643.993 1231.57 635.185 1235.82 635.223C1239.7 635.258 1240.26 634.089 1240.69 633.199C1240.91 632.729 1241.1 632.337 1241.72 632.241C1243.51 631.962 1244.09 632.465 1245.97 634.447C1247.05 635.586 1247.99 634.791 1248.92 634.002C1249.62 633.417 1250.3 632.837 1251.04 633.047C1252.59 633.49 1254.95 634.357 1255.3 636.196C1254.42 635.6 1253.32 635.226 1252.47 634.981C1251.73 634.77 1251.04 635.351 1250.35 635.935C1249.42 636.724 1248.47 637.519 1247.4 636.381C1245.52 634.398 1244.94 633.896 1243.15 634.175C1242.53 634.271 1242.34 634.663 1242.11 635.133C1241.68 636.023 1241.12 637.192 1237.24 637.157C1233.45 637.123 1237.56 644.157 1241.61 649.793Z" fill="#D6A443"/>
<path d="M1302.99 637.044C1307.73 637.001 1300.12 648.007 1295.72 653.515C1287.88 660.61 1283.66 641.032 1283.47 638.71C1283.29 636.388 1286.04 635.363 1287.77 634.868C1289.5 634.372 1290.96 638.25 1292.84 636.267C1294.72 634.285 1295.3 633.783 1297.09 634.061C1298.88 634.34 1297.07 637.097 1302.99 637.044Z" fill="#F2C162"/>
<path fill-rule="evenodd" clip-rule="evenodd" d="M1297.28 651.514C1301.65 645.714 1307.21 637.01 1302.99 637.048C1299.11 637.082 1298.55 635.914 1298.12 635.024C1297.9 634.554 1297.71 634.162 1297.09 634.065C1295.3 633.787 1294.72 634.289 1292.84 636.271C1291.76 637.41 1290.82 636.615 1289.88 635.826C1289.19 635.242 1288.51 634.661 1287.77 634.872C1286.22 635.315 1283.85 636.182 1283.51 638.023C1284.38 637.425 1285.49 637.05 1286.35 636.805C1287.08 636.594 1287.77 637.175 1288.46 637.76C1289.4 638.549 1290.34 639.344 1291.42 638.205C1293.29 636.222 1293.87 635.72 1295.67 635.999C1296.29 636.095 1296.47 636.487 1296.7 636.957C1297.13 637.847 1297.69 639.016 1301.57 638.981C1305.34 638.947 1301.3 645.896 1297.28 651.514Z" fill="#D6A443"/>
<path fill-rule="evenodd" clip-rule="evenodd" d="M1245.87 606.753L1248.56 610.613C1248.21 603.947 1250.14 591.669 1258.75 584.326C1248.57 590.096 1245.87 599.497 1245.87 606.753Z" fill="#F3ECA8"/>
<ellipse cx="5.10445" cy="4.51957" rx="5.10445" ry="4.51957" transform="matrix(-0.999425 0.033909 0.033909 0.999425 1256.58 602.351)" fill="#EAAF9C"/>
<path fill-rule="evenodd" clip-rule="evenodd" d="M1309.74 606.496C1316.61 614.564 1324.92 625.767 1321.62 629.279C1321.28 629.656 1320.56 629.777 1319.59 629.707C1314.78 614.089 1306.07 612.004 1302.26 612.949L1309.74 606.496Z" fill="#E8D072"/>
<path d="M1280.59 726.64C1269.49 727.764 1257.11 727.592 1245.87 726.158C1234.62 724.723 1225.31 722.129 1219.74 718.878C1214.16 715.627 1212.73 711.952 1215.71 708.567C1218.69 705.181 1225.87 702.327 1235.87 700.557C1245.86 698.788 1257.95 698.231 1269.79 698.993C1281.62 699.755 1292.36 701.783 1299.92 704.683C1307.48 707.582 1311.31 711.147 1310.68 714.684C1310.05 718.22 1305 721.478 1296.51 723.822L1262.47 713.017L1280.59 726.64Z" fill="#55833F"/>
<path d="M1271.64 716.611L1293.29 721.67L1258.67 710.713L1277.31 724.568L1271.64 716.611Z" fill="#55833F" stroke="#55833F" stroke-width="0.0978581"/>
<path d="M346.309 1036.7C320.624 1040.12 291.887 1040.62 265.679 1038.11C239.47 1035.6 217.661 1030.25 204.485 1023.11C191.31 1015.97 187.709 1007.54 194.382 999.466C201.055 991.389 217.525 984.24 240.595 979.406C263.664 974.572 291.686 972.398 319.22 973.307C346.753 974.215 371.832 978.141 389.587 984.322C407.342 990.504 416.506 998.499 415.299 1006.76C414.092 1015.01 402.6 1022.94 383.055 1029L303.256 1006.39L346.309 1036.7Z" fill="#4D7B37"/>
<path d="M324.812 1014.07L375.441 1024.24L294.27 1001.32L338.547 1032.13L324.812 1014.07Z" fill="#4D7B37" stroke="#55833F" stroke-width="0.167995"/>
<path d="M1186.44 692.204C1191.44 691.382 1197.05 691.11 1202.18 691.441C1207.31 691.773 1211.61 692.685 1214.22 694C1216.84 695.314 1217.59 696.938 1216.34 698.556C1215.08 700.174 1211.91 701.67 1207.43 702.753C1202.96 703.837 1197.5 704.432 1192.12 704.421C1186.73 704.41 1181.81 703.795 1178.31 702.696C1174.8 701.596 1172.96 700.09 1173.15 698.471C1173.34 696.851 1175.53 695.233 1179.31 693.931L1195.03 697.862L1186.44 692.204Z" fill="#5EA77C"/>
<path d="M1190.78 696.493L1180.83 694.814L1196.82 698.797L1187.99 693.049L1190.78 696.493Z" fill="#5EA77C"/>
<path d="M1136.58 1818.8C1151.67 1820.66 1168.54 1820.79 1183.91 1819.17C1199.27 1817.55 1212.04 1814.28 1219.73 1810.02C1227.42 1805.75 1229.49 1800.79 1225.53 1796.09C1221.57 1791.38 1211.86 1787.28 1198.29 1784.58C1184.73 1781.87 1168.27 1780.75 1152.12 1781.45C1135.96 1782.14 1121.27 1784.58 1110.88 1788.31C1100.5 1792.04 1095.16 1796.78 1095.92 1801.62C1096.68 1806.46 1103.47 1811.05 1114.97 1814.49L1161.67 1800.77L1136.58 1818.8Z" fill="#55833F"/>
<path d="M1149.07 1805.4L1119.41 1811.65L1166.92 1797.74L1141.11 1816.07L1149.07 1805.4Z" fill="#55833F" stroke="#55833F" stroke-width="0.28168"/>
<path d="M413.227 971.13C429.61 973.147 447.92 973.289 464.6 971.526C481.28 969.764 495.14 966.224 503.489 961.594C511.838 956.963 514.08 951.573 509.779 946.47C505.478 941.366 494.942 936.914 480.216 933.977C465.49 931.04 447.626 929.829 430.092 930.578C412.558 931.327 396.606 933.983 385.334 938.031C374.062 942.078 368.274 947.228 369.094 952.48C369.914 957.732 377.283 962.712 389.772 966.452L440.466 951.557L413.227 971.13Z" fill="#5EA77C"/>
<path d="M426.78 956.577L394.59 963.368L446.157 948.268L418.142 968.167L426.78 956.577Z" fill="#5EA77C"/>
<path d="M1168.56 1771.14C1170.41 1783.21 1168.94 1790.08 1166.7 1801.46C1156.79 1798.85 1129.75 1786.98 1133.51 1766.88C1136.41 1751.31 1135.79 1753.63 1143.1 1742.21C1149.44 1753.11 1167.15 1761.93 1168.56 1771.14Z" fill="url(#paint3_linear_72_2796)"/>
<path d="M1155.52 1772.05C1153.67 1784.12 1155.14 1790.99 1157.38 1802.38C1167.29 1799.76 1194.33 1787.9 1190.58 1767.79C1187.67 1752.22 1188.29 1754.54 1180.98 1743.13C1174.64 1754.02 1156.94 1762.85 1155.52 1772.05Z" fill="url(#paint4_linear_72_2796)"/>
<path d="M1204.32 1773.57C1204.32 1786.18 1185.29 1803.03 1172.67 1803.03C1160.06 1803.03 1159.79 1805.82 1159.79 1793.21C1159.79 1780.6 1168.87 1777.45 1181.48 1777.45C1204.32 1771.43 1201.91 1758.95 1204.32 1773.57Z" fill="url(#paint5_linear_72_2796)"/>
<path d="M1204.32 1773.57C1204.32 1786.18 1185.29 1803.03 1172.67 1803.03C1160.06 1803.03 1159.79 1805.82 1159.79 1793.21C1159.79 1780.6 1168.87 1777.45 1181.48 1777.45C1204.32 1771.43 1201.91 1758.95 1204.32 1773.57Z" fill="url(#paint6_linear_72_2796)"/>
<path d="M1138.9 1775.99C1138.9 1788.61 1151.92 1782.16 1161.74 1802.49C1172.24 1776.68 1184.57 1788.61 1184.57 1775.99C1184.57 1763.38 1171.33 1749.05 1161.74 1741.28C1151.46 1747.22 1138.9 1763.38 1138.9 1775.99Z" fill="url(#paint7_radial_72_2796)"/>
<path d="M1138.65 1773.94C1137.28 1788.78 1153.29 1787.58 1158.31 1796.55C1152.4 1782.62 1140.96 1789.06 1140.96 1776.45C1140.96 1763.84 1148.7 1755.67 1154.86 1746.08C1145.73 1755.44 1141.62 1760.92 1138.65 1773.94Z" fill="#EEC1A9"/>
<path d="M1119.72 1773.69C1119.72 1786.3 1138.75 1803.15 1151.36 1803.15C1163.97 1803.15 1164.25 1805.94 1164.25 1793.33C1164.25 1780.71 1155.17 1777.57 1142.55 1777.57C1119.72 1771.55 1122.13 1759.07 1119.72 1773.69Z" fill="url(#paint8_linear_72_2796)"/>
<path d="M1119.72 1773.69C1119.72 1786.3 1138.75 1803.15 1151.36 1803.15C1163.97 1803.15 1164.25 1805.94 1164.25 1793.33C1164.25 1780.71 1155.17 1777.57 1142.55 1777.57C1119.72 1771.55 1122.13 1759.07 1119.72 1773.69Z" fill="url(#paint9_linear_72_2796)"/>
<path d="M1135.71 1772.61C1132.93 1783.15 1147.92 1797.59 1156.71 1799.9C1165.49 1802.22 1165.07 1804.6 1167.84 1794.06C1170.62 1783.52 1161.22 1772.25 1152.44 1769.93C1130.13 1767.98 1140.61 1760.84 1135.71 1772.61Z" fill="url(#paint10_radial_72_2796)"/>
<path d="M1191.2 1774.16C1195.65 1771.88 1201.7 1766.86 1201.7 1766.86C1201.7 1766.86 1199.58 1769.46 1198.05 1770.97C1195.02 1773.96 1194.86 1775.41 1191.2 1777.59C1188.15 1779.41 1185.78 1780.98 1182.52 1782.38C1179.35 1783.74 1177.18 1783.92 1174.3 1785.81C1170.38 1788.38 1168.46 1789.88 1166.31 1794.03C1165.12 1796.31 1163.34 1802.48 1163.34 1802.48C1163.34 1802.48 1162.01 1794.57 1162.88 1791.29C1164.09 1786.72 1166.16 1784.28 1169.96 1781.47C1174.09 1778.42 1177.69 1779.32 1182.52 1777.59C1185.95 1776.36 1187.96 1775.83 1191.2 1774.16Z" fill="#EAB29F" fill-opacity="0.84"/>
<path d="M1187.35 1768.49C1192.06 1777.5 1180.05 1794.46 1171.87 1798.74C1163.68 1803.02 1164.54 1805.1 1159.83 1796.09C1155.12 1787.07 1162.23 1774.4 1170.41 1770.12C1191.95 1762.86 1180.32 1758.86 1187.35 1768.49Z" fill="url(#paint11_radial_72_2796)"/>
<path d="M1187.27 1768.54C1188.43 1770.76 1188.56 1773.49 1187.97 1776.4C1187.39 1779.31 1186.08 1782.4 1184.36 1785.34C1180.93 1791.23 1175.9 1796.52 1171.82 1798.65C1170.34 1799.43 1169.16 1800.13 1168.18 1800.71C1167.81 1800.93 1167.46 1801.13 1167.15 1801.31C1166.58 1801.64 1166.09 1801.9 1165.67 1802.07C1165.24 1802.24 1164.88 1802.32 1164.55 1802.3C1163.9 1802.27 1163.33 1801.85 1162.62 1800.85C1161.92 1799.86 1161.09 1798.3 1159.91 1796.05C1157.58 1791.57 1158.17 1786.18 1160.37 1781.37C1162.57 1776.56 1166.38 1772.34 1170.45 1770.21C1181 1766.65 1183.61 1763.87 1184.34 1763.08C1184.36 1763.06 1184.38 1763.05 1184.39 1763.03C1184.43 1762.99 1184.46 1762.96 1184.49 1762.93C1184.49 1762.93 1184.5 1762.92 1184.5 1762.92C1184.51 1762.96 1184.52 1763.02 1184.54 1763.11C1184.54 1763.12 1184.55 1763.14 1184.55 1763.16C1184.58 1763.29 1184.61 1763.46 1184.67 1763.68C1184.91 1764.56 1185.51 1766.13 1187.27 1768.54Z" stroke="#C88181" stroke-opacity="0.02" stroke-width="0.187789"/>
<path d="M1176.81 1767.77L1184.35 1763.43C1184.35 1763.43 1180.15 1767.47 1176.81 1768.91C1175.52 1769.47 1174.67 1769.48 1173.39 1770.06C1171.11 1771.09 1169.97 1772.02 1168.13 1773.71C1165.31 1776.3 1164.22 1778.31 1162.42 1781.7C1161.38 1783.68 1160.57 1784.76 1160.14 1786.96C1159.57 1789.86 1160.02 1791.65 1160.83 1794.49C1161.38 1796.45 1162.15 1797.39 1162.88 1799.29C1163.46 1800.79 1164.25 1803.17 1164.25 1803.17C1164.25 1803.17 1160.86 1799.01 1159.68 1795.86C1158.6 1792.98 1158.13 1791.17 1158.31 1788.1C1158.45 1785.81 1158.84 1784.52 1159.68 1782.39C1160.59 1780.08 1161.39 1778.89 1162.88 1776.91C1165.08 1773.98 1166.59 1772.39 1169.73 1770.51C1172.27 1768.99 1176.81 1767.77 1176.81 1767.77Z" fill="url(#paint12_linear_72_2796)"/>
<path d="M1136.84 1768.69C1137 1767.63 1137.3 1766.18 1137.3 1766.18C1137.3 1766.18 1137.45 1767.93 1137.3 1769.37C1137.14 1770.92 1136.68 1771.95 1136.39 1773.48C1136.01 1775.42 1136.38 1776.59 1136.84 1778.51C1137.64 1781.85 1138.96 1783.48 1140.95 1786.27C1143.63 1790.02 1145.69 1791.77 1149.4 1794.49C1153.46 1797.46 1157.52 1796.64 1160.82 1800.43C1161.62 1801.35 1162.65 1802.94 1162.65 1802.94C1162.65 1802.94 1161 1801.8 1159.91 1801.12C1155.74 1798.53 1152.52 1798.66 1148.49 1795.86C1144.34 1792.99 1142.15 1790.93 1139.35 1786.73C1137.43 1783.84 1136.06 1782.16 1135.47 1778.74C1135.11 1776.63 1135.02 1775.35 1135.47 1773.26C1135.86 1771.46 1136.57 1770.51 1136.84 1768.69Z" fill="url(#paint13_linear_72_2796)"/>
<path d="M1169.7 1798.63C1166.8 1801.31 1161.34 1804.32 1161.34 1804.32C1161.34 1804.32 1166.14 1800.46 1168.85 1797.61C1171.5 1794.81 1172.84 1793.09 1175.05 1789.94C1177.38 1786.62 1178.95 1784.82 1180.37 1781.03C1180.96 1779.46 1181.58 1776.91 1181.58 1776.91C1181.58 1776.91 1181.38 1779.83 1180.93 1781.63C1179.89 1785.77 1178.11 1787.7 1175.71 1791.22C1173.62 1794.31 1172.43 1796.1 1169.7 1798.63Z" fill="url(#paint14_linear_72_2796)"/>
<path d="M214.336 766.706C215.033 771.253 214.479 773.843 213.637 778.132C209.901 777.146 199.715 772.676 201.13 765.101C202.225 759.234 201.99 760.11 204.743 755.808C207.133 759.914 213.804 763.238 214.336 766.706Z" fill="url(#paint15_linear_72_2796)"/>
<path d="M209.422 767.05C208.724 771.597 209.279 774.187 210.121 778.476C213.857 777.49 224.043 773.02 222.628 765.444C221.533 759.578 221.768 760.454 219.014 756.152C216.625 760.258 209.954 763.582 209.422 767.05Z" fill="url(#paint16_linear_72_2796)"/>
<path d="M227.806 767.621C227.806 772.373 220.636 778.721 215.884 778.721C211.132 778.721 211.027 779.773 211.027 775.021C211.027 770.269 214.449 769.084 219.202 769.084C227.806 766.814 226.897 762.114 227.806 767.621Z" fill="url(#paint17_linear_72_2796)"/>
<path d="M227.806 767.621C227.806 772.373 220.636 778.721 215.884 778.721C211.132 778.721 211.027 779.773 211.027 775.021C211.027 770.269 214.449 769.084 219.202 769.084C227.806 766.814 226.897 762.114 227.806 767.621Z" fill="url(#paint18_linear_72_2796)"/>
<path d="M203.154 768.536C203.154 773.288 208.059 770.859 211.759 778.517C215.717 768.794 220.363 773.288 220.363 768.536C220.363 763.784 215.373 758.383 211.759 755.457C207.887 757.694 203.154 763.784 203.154 768.536Z" fill="url(#paint19_radial_72_2796)"/>
<path d="M203.067 767.759C202.551 773.352 208.584 772.897 210.477 776.278C208.249 771.029 203.937 773.458 203.937 768.706C203.937 763.954 206.853 760.876 209.177 757.262C205.735 760.79 204.186 762.855 203.067 767.759Z" fill="#EEC1A9"/>
<path d="M195.932 767.668C195.932 772.42 203.102 778.768 207.855 778.768C212.607 778.768 212.711 779.82 212.711 775.068C212.711 770.316 209.289 769.131 204.537 769.131C195.932 766.861 196.841 762.161 195.932 767.668Z" fill="url(#paint20_linear_72_2796)"/>
<path d="M195.932 767.668C195.932 772.42 203.102 778.768 207.855 778.768C212.607 778.768 212.711 779.82 212.711 775.068C212.711 770.316 209.289 769.131 204.537 769.131C195.932 766.861 196.841 762.161 195.932 767.668Z" fill="url(#paint21_linear_72_2796)"/>
<path d="M201.956 767.263C200.91 771.235 206.559 776.674 209.867 777.546C213.176 778.417 213.017 779.316 214.063 775.344C215.109 771.372 211.568 767.126 208.259 766.254C199.855 765.516 203.801 762.828 201.956 767.263Z" fill="url(#paint22_radial_72_2796)"/>
<path d="M222.862 767.847C224.538 766.988 226.82 765.094 226.82 765.094C226.82 765.094 226.019 766.074 225.444 766.643C224.301 767.772 224.243 768.316 222.862 769.138C221.713 769.822 220.822 770.417 219.593 770.945C218.4 771.457 217.58 771.524 216.495 772.236C215.019 773.202 214.295 773.767 213.483 775.333C213.038 776.192 212.365 778.517 212.365 778.517C212.365 778.517 211.865 775.535 212.193 774.301C212.649 772.579 213.428 771.66 214.86 770.601C216.415 769.45 217.772 769.791 219.593 769.138C220.885 768.674 221.641 768.473 222.862 767.847Z" fill="#EAB29F" fill-opacity="0.84"/>
<path d="M221.41 765.707C223.186 769.103 218.664 775.49 215.579 777.103C212.494 778.715 212.819 779.503 211.044 776.106C209.268 772.709 211.946 767.935 215.031 766.322C223.145 763.584 218.763 762.079 221.41 765.707Z" fill="url(#paint23_radial_72_2796)"/>
<path d="M220.244 763.943C220.34 764.296 220.574 764.899 221.238 765.813C221.647 766.605 221.7 767.584 221.484 768.654C221.268 769.727 220.783 770.874 220.143 771.972C218.86 774.176 216.982 776.142 215.485 776.924C214.923 777.218 214.469 777.487 214.101 777.705C213.962 777.788 213.834 777.863 213.718 777.93C213.504 778.053 213.33 778.145 213.181 778.205C213.033 778.264 212.921 778.286 212.83 778.282C212.665 778.273 212.491 778.172 212.232 777.805C211.974 777.44 211.669 776.867 211.222 776.013C210.373 774.388 210.58 772.415 211.398 770.629C212.213 768.849 213.619 767.293 215.11 766.508C218.583 765.335 219.792 764.38 220.244 763.943Z" stroke="#C88181" stroke-opacity="0.02" stroke-width="0.40308"/>
<path d="M217.446 765.44L220.285 763.805C220.285 763.805 218.705 765.327 217.446 765.87C216.958 766.08 216.639 766.081 216.155 766.3C215.297 766.688 214.87 767.04 214.176 767.677C213.111 768.654 212.702 769.411 212.025 770.688C211.63 771.433 211.328 771.841 211.164 772.667C210.948 773.76 211.118 774.436 211.423 775.507C211.632 776.245 211.921 776.598 212.197 777.314C212.415 777.879 212.713 778.777 212.713 778.777C212.713 778.777 211.437 777.211 210.992 776.023C210.586 774.937 210.405 774.256 210.476 773.098C210.529 772.235 210.675 771.75 210.992 770.946C211.335 770.078 211.635 769.627 212.197 768.881C213.027 767.78 213.595 767.181 214.778 766.472C215.736 765.898 217.446 765.44 217.446 765.44Z" fill="url(#paint24_linear_72_2796)"/>
<path d="M202.386 765.782C202.445 765.383 202.558 764.836 202.558 764.836C202.558 764.836 202.614 765.496 202.558 766.041C202.498 766.624 202.326 767.013 202.214 767.589C202.073 768.318 202.214 768.76 202.386 769.482C202.687 770.74 203.184 771.356 203.935 772.408C204.943 773.82 205.719 774.481 207.119 775.506C208.647 776.624 210.176 776.315 211.421 777.743C211.721 778.087 212.109 778.689 212.109 778.689C212.109 778.689 211.489 778.256 211.077 778.001C209.506 777.026 208.295 777.075 206.775 776.022C205.212 774.939 204.387 774.162 203.333 772.58C202.608 771.492 202.093 770.857 201.87 769.568C201.732 768.774 201.698 768.291 201.87 767.503C202.018 766.826 202.286 766.468 202.386 765.782Z" fill="url(#paint25_linear_72_2796)"/>
<path d="M214.765 777.066C213.673 778.077 211.614 779.209 211.614 779.209C211.614 779.209 213.422 777.754 214.444 776.68C215.444 775.629 215.949 774.981 216.782 773.792C217.658 772.541 218.249 771.864 218.786 770.434C219.008 769.843 219.242 768.883 219.242 768.883C219.242 768.883 219.167 769.982 218.996 770.663C218.604 772.22 217.933 772.947 217.031 774.276C216.243 775.437 215.794 776.112 214.765 777.066Z" fill="url(#paint26_linear_72_2796)"/>
<path d="M35.307 754.513C26.2408 766.033 33.1161 779.852 37.687 785.322L42.8482 784.738C40.899 778.938 42.6875 774.127 45.3041 770.367C47.9207 766.607 52.8492 762.349 56.6749 755.559C63.4114 742.931 66.6765 734.191 67.467 731.399C60.5246 734.304 44.3732 742.993 35.307 754.513Z" fill="#97C65F" stroke="#97C65F" stroke-width="0.159179"/>
<path d="M96.2685 815.075C115.502 817.444 136.997 817.609 156.579 815.541C176.161 813.472 192.432 809.316 202.234 803.88C212.035 798.444 214.667 792.116 209.618 786.124C204.569 780.133 192.2 774.906 174.912 771.459C157.624 768.011 136.652 766.589 116.067 767.468C95.483 768.348 76.7559 771.466 63.5226 776.218C50.2893 780.969 43.4942 787.015 44.457 793.181C45.4197 799.347 54.0715 805.193 68.7323 809.584L128.246 792.097L96.2685 815.075Z" fill="#4D7B37"/>
<path d="M180.109 764.861C178.007 756.743 169.823 760.57 167.095 763.462C155.829 773.398 152.102 786.778 159.538 788.372C162.476 789.001 184.168 780.535 180.109 764.861Z" fill="#9FC482"/>
<path d="M147.428 789.284C147.428 791.448 153.443 793.202 160.862 793.202C167.355 793.202 171.219 792.505 173.442 789.377C174.089 788.467 174.297 787.166 173.499 786.384C171.627 784.547 167.017 785.365 160.862 785.365C153.443 785.365 147.428 787.12 147.428 789.284Z" fill="#9FC482"/>
<path fill-rule="evenodd" clip-rule="evenodd" d="M174.357 759.991C184.004 767.017 173.881 778.719 161.844 785.292C162.992 785.322 166.133 785.29 168.908 785.059C175.488 781.288 182.578 774.413 180.105 764.861C179.124 761.07 176.816 759.884 174.357 759.991Z" fill="#8DB36F"/>
<path fill-rule="evenodd" clip-rule="evenodd" d="M153.206 786.061C164.272 788.016 169.598 787.235 171.641 785.454C172.417 785.636 173.044 785.928 173.505 786.38C174.302 787.162 174.095 788.463 173.448 789.373C171.224 792.501 167.361 793.198 160.868 793.198C153.448 793.198 147.434 791.444 147.434 789.28C147.434 787.946 149.717 786.768 153.206 786.061Z" fill="#8DB36F"/>
<path d="M76.5627 764.861C78.6648 756.743 86.8484 760.57 89.5773 763.462C100.843 773.398 104.57 786.778 97.1342 788.372C94.1954 789.001 72.5044 780.535 76.5627 764.861Z" fill="#9FC482"/>
<path d="M109.236 789.284C109.236 791.448 103.221 793.202 95.8016 793.202C89.3086 793.202 85.4454 792.505 83.2219 789.377C82.5746 788.467 82.3673 787.166 83.1648 786.384C85.0374 784.547 89.6474 785.365 95.8016 785.365C103.221 785.365 109.236 787.12 109.236 789.284Z" fill="#9FC482"/>
<path fill-rule="evenodd" clip-rule="evenodd" d="M82.315 759.991C72.6683 767.017 82.7906 778.72 94.8281 785.292C93.6792 785.322 90.5353 785.29 87.7596 785.059C81.179 781.288 74.0895 774.413 76.5627 764.861C77.5448 761.068 79.8544 759.883 82.315 759.991Z" fill="#8DB36F"/>
<path fill-rule="evenodd" clip-rule="evenodd" d="M103.309 786.088C92.3496 788.009 87.0651 787.226 85.0321 785.453C84.2554 785.635 83.6272 785.927 83.1655 786.38C82.368 787.162 82.5754 788.462 83.2226 789.373C85.4462 792.501 89.3094 793.198 95.8024 793.198C103.222 793.198 108.383 791.443 108.383 789.279C108.383 787.963 106.474 786.799 103.309 786.088Z" fill="#8DB36F"/>
<path d="M128.744 794.462C149.027 794.462 179.361 787.324 161.177 740.864C159.945 737.715 157.04 731.068 154.311 724.84C154.661 724.001 154.772 723.033 154.801 722.111C154.801 716.392 150.165 711.756 144.445 711.756C141.926 711.476 139.431 712.852 138.498 713.575C136.935 714.904 134.09 718.053 132.201 717.353C128.618 716.402 125.203 716.957 123.944 717.353C122.055 718.053 119.209 714.904 117.647 713.575C117.017 712.899 114.974 711.588 111.839 711.756C106.12 711.756 101.483 716.392 101.483 722.111C101.511 723.011 101.623 723.581 102.043 724.56C99.8039 730.858 97.3549 738.065 95.3257 742.403C77.2732 787.884 108.461 794.462 128.744 794.462Z" fill="#9FC482"/>
<path fill-rule="evenodd" clip-rule="evenodd" d="M149.244 783.406C157.034 783.219 168.444 771.384 151.763 725.539C153.396 721.108 153.484 712.245 141.057 712.245C141.053 712.239 141.049 712.232 141.045 712.226C142.063 711.862 143.25 711.623 144.442 711.756C150.161 711.756 154.797 716.392 154.797 722.111C154.768 723.033 154.657 724.001 154.307 724.84C157.036 731.068 159.941 737.715 161.173 740.864C177.148 781.68 155.677 792.147 136.473 794.088C136.135 790.962 136.321 787.94 136.719 785.645L149.244 783.406Z" fill="#8DB36F"/>
<path fill-rule="evenodd" clip-rule="evenodd" d="M107.076 783.406C99.2863 783.219 87.8764 771.384 104.557 725.539C102.925 721.108 102.836 712.245 115.263 712.245C115.267 712.239 115.271 712.233 115.275 712.227C114.256 711.862 113.068 711.623 111.875 711.756C106.156 711.756 101.519 716.392 101.519 722.111C101.548 723.033 101.659 724.001 102.009 724.84C99.2801 731.068 96.3756 737.715 95.1432 740.864C79.1674 781.683 100.642 792.148 119.848 794.088C120.186 790.962 119.999 787.94 119.601 785.645L107.076 783.406Z" fill="#8DB36F"/>
<ellipse cx="112.48" cy="722.528" rx="3.11721" ry="3.77844" fill="#5F4B3D"/>
<ellipse cx="142.832" cy="722.528" rx="3.11721" ry="3.77844" fill="#5F4B3D"/>
<path d="M132.153 729.6C128.603 731.774 125.872 730.467 124.584 729.6C123.402 728.812 124.034 727.845 124.584 728.231C125.872 729.098 128.393 730.695 132.153 728.231C132.703 727.845 133.361 728.86 132.153 729.6Z" fill="#5F4B3D"/>
<ellipse cx="153.866" cy="732.959" rx="6.71722" ry="5.94754" fill="#DBB396"/>
<ellipse cx="103.069" cy="732.959" rx="6.71722" ry="5.94754" fill="#DBB396"/>
<path fill-rule="evenodd" clip-rule="evenodd" d="M148.333 791.402C142.059 793.909 134.947 794.637 128.807 794.637C122.326 794.637 114.671 793.889 108.025 791.154C100.744 779.803 95.5469 760.678 106.838 748.366C117.765 736.453 139.263 736.414 150.094 748.415C161.289 760.818 155.717 780.098 148.333 791.402Z" fill="#DAEDB8"/>
<path fill-rule="evenodd" clip-rule="evenodd" d="M128.799 794.637C134.939 794.637 142.051 793.909 148.326 791.402C150.017 788.812 151.614 785.803 152.936 782.555C131.672 791.326 116.109 787.381 103.629 782.593C104.883 785.724 106.399 788.631 108.017 791.154C114.663 793.889 122.318 794.637 128.799 794.637Z" fill="#B7CF8C" fill-opacity="0.5"/>
<path d="M140.093 796.843C144.991 789.496 147.706 782.849 151.555 773.543L132.158 781.893C131.509 786.283 130.178 795.438 130.182 796.707C130.187 798.516 133.186 799.029 134.086 797.17C134.369 796.636 134.686 796.502 134.955 796.538C135.349 796.591 135.427 797.089 135.628 797.433C136.311 798.604 139.09 798.347 140.093 796.843Z" fill="#DAEDB8"/>
<path fill-rule="evenodd" clip-rule="evenodd" d="M150.188 775.553C146.766 785.761 143.312 794.498 140.29 797.17C138.937 798.366 136.273 798.604 135.622 797.435C135.571 797.344 135.528 797.243 135.485 797.142C135.365 796.858 135.246 796.577 134.955 796.538C134.686 796.502 134.369 796.636 134.087 797.17C133.186 799.029 130.188 798.516 130.182 796.707C130.182 796.532 130.207 796.206 130.252 795.763C131.952 796.467 132.619 795.556 133.293 794.633C133.72 794.05 134.15 793.461 134.847 793.274C135.661 793.055 135.645 793.438 135.625 793.928C135.601 794.534 135.57 795.303 137.086 795.303C139.591 795.303 147.358 780.539 150.297 774.941L150.188 775.553Z" fill="#9FC482"/>
<path d="M116.829 796.843C111.931 789.496 109.216 782.849 105.367 773.543L124.764 781.893C125.413 786.283 126.744 795.438 126.74 796.707C126.735 798.516 123.736 799.029 122.835 797.17C122.553 796.636 122.236 796.502 121.967 796.538C121.573 796.591 121.495 797.089 121.294 797.433C120.611 798.604 117.831 798.347 116.829 796.843Z" fill="#DAEDB8"/>
<path fill-rule="evenodd" clip-rule="evenodd" d="M106.738 775.577C110.158 785.775 113.608 794.5 116.628 797.17C117.981 798.366 120.645 798.604 121.297 797.435C121.347 797.344 121.39 797.243 121.433 797.142C121.553 796.858 121.672 796.577 121.963 796.538C122.232 796.502 122.549 796.636 122.831 797.17C123.732 799.029 126.73 798.516 126.736 796.707C126.736 796.532 126.711 796.207 126.666 795.764C124.968 796.466 124.303 795.555 123.629 794.633C123.202 794.05 122.772 793.461 122.075 793.274C121.261 793.055 121.277 793.438 121.296 793.928C121.321 794.534 121.352 795.303 119.836 795.303C117.331 795.303 109.564 780.539 106.625 774.941L106.738 775.577Z" fill="#9FC482"/>
<path d="M172.504 664.544C167.026 672.481 130.911 664.032 113.538 658.815C111.023 656.906 102.779 652.611 89.9242 650.711C71.3403 648.336 69.9431 638.275 66.869 635.341C43.5065 614.773 20.0602 616.617 11.2573 620.111C21.0383 595.099 42.9755 590.349 61.0005 587.414C79.0254 584.48 98.1681 598.034 103.338 599.85C107.474 601.303 111.862 601.387 113.538 601.247C132.961 606.557 133.1 606.836 151.125 619.552C169.15 632.267 174.739 651.829 179.071 657.558C182.536 662.141 176.882 663.007 173.621 662.867L172.504 664.544Z" fill="#9EBD78"/>
<path d="M25.1167 618.993C67.7338 594.26 125.721 665.102 161.352 655.042C159.631 659.387 145.991 662.431 105.361 640.921C64.7305 619.411 49.141 621.728 42.0796 624.082L25.1167 618.993Z" fill="#83A658"/>
<path d="M39.0868 666.219C25.5612 721.998 33.0247 770.265 38.6604 785.635L23.2976 792.533C18.4909 768.611 25.3003 698.356 29.3059 666.219C28.3278 649.032 -0.735649 656.438 -13.4509 651.547C-23.6231 647.635 -21.2291 640.881 -18.7606 637.994C-14.6619 634.687 -2.16087 626.34 15.0536 619.41C36.5717 610.747 65.4954 632.964 67.4516 635.059C69.4078 637.155 75.1367 648.334 89.9478 650.43C104.032 652.777 112.304 656.904 114.68 658.673C90.9725 654.854 42.6639 651.016 39.0868 666.219Z" fill="#698C3D"/>
<path fill-rule="evenodd" clip-rule="evenodd" d="M-0.948823 626.938C0.584605 634.197 8.56253 643.211 32.3016 647.711C56.0661 652.215 54.5747 652.314 48.3997 652.72C43.7773 653.025 36.5304 653.502 35.2883 656.13C28.5926 670.296 21.8956 759.938 28.634 789.083L23.2116 792.682C18.405 768.76 25.2144 698.505 29.2199 666.368C28.5695 654.939 15.4996 654.385 3.07629 653.858C-3.18245 653.593 -9.27705 653.334 -13.5368 651.696C-23.709 647.784 -21.315 641.03 -18.8465 638.142C-16.1552 635.971 -9.8412 631.627 -0.948823 626.938Z" fill="#4D7B37"/>
<path d="M26.5351 787.62C29.3275 776.992 32.331 751.746 20.108 741.274C19.1522 740.158 10.0448 753.564 9.01042 757.66C8.97548 757.685 8.97071 757.702 8.99881 757.707C9.00256 757.691 9.00643 757.676 9.01042 757.66C9.62344 757.218 19.5235 754.336 24.094 774.761C24.3678 778.703 24.3127 789.672 23.4812 794.361L26.5351 787.62Z" fill="#4D7B37"/>
<path d="M13.0344 743.45C14.296 741.879 19.0944 741.327 20.3867 741.566C13.7953 752.098 10.6241 762.872 7.76388 773.226C-0.56732 755.891 7.40649 744.43 9.0221 742.817L13.0344 743.45Z" fill="#678D3A"/>
<path d="M35.0797 803.125C36.5672 812.825 35.3841 818.35 33.5876 827.498C25.6191 825.396 3.89027 815.86 6.90794 799.7C9.24485 787.186 8.74339 789.055 14.617 779.877C19.7138 788.636 33.9451 795.727 35.0797 803.125Z" fill="url(#paint27_linear_72_2796)"/>
<path d="M24.6039 803.86C23.1164 813.559 24.2995 819.084 26.096 828.233C34.0645 826.13 55.7933 816.595 52.7756 800.435C50.4387 787.921 50.9402 789.789 45.0666 780.611C39.9698 789.371 25.7385 796.461 24.6039 803.86Z" fill="url(#paint28_linear_72_2796)"/>
<path d="M63.8156 805.081C63.8156 815.218 48.52 828.759 38.3828 828.759C28.2456 828.759 28.0234 831.003 28.0234 820.866C28.0234 810.729 35.3235 808.201 45.4607 808.201C63.8156 803.359 61.8771 793.334 63.8156 805.081Z" fill="url(#paint29_linear_72_2796)"/>
<path d="M63.8156 805.081C63.8156 815.218 48.52 828.759 38.3828 828.759C28.2456 828.759 28.0234 831.003 28.0234 820.866C28.0234 810.729 35.3235 808.201 45.4607 808.201C63.8156 803.359 61.8771 793.334 63.8156 805.081Z" fill="url(#paint30_linear_72_2796)"/>
<path d="M11.2393 807.028C11.2393 817.166 21.7016 811.984 29.5943 828.32C38.0375 807.579 47.9492 817.166 47.9492 807.028C47.9492 796.891 37.3033 785.37 29.5943 779.129C21.3345 783.901 11.2393 796.891 11.2393 807.028Z" fill="url(#paint31_radial_72_2796)"/>
<path d="M11.0427 805.374C9.94147 817.304 22.8096 816.333 26.8477 823.545C22.0951 812.348 12.8979 817.53 12.8979 807.393C12.8979 797.255 19.1189 790.69 24.0747 782.98C16.7327 790.506 13.4288 794.911 11.0427 805.374Z" fill="#EEC1A9"/>
<path d="M-4.1789 805.175C-4.1789 815.312 11.1168 828.853 21.2539 828.853C31.3911 828.853 31.6133 831.097 31.6133 820.96C31.6133 810.823 24.3132 808.295 14.1761 808.295C-4.1789 803.453 -2.24042 793.428 -4.1789 805.175Z" fill="url(#paint32_linear_72_2796)"/>
<path d="M-4.1789 805.175C-4.1789 815.312 11.1168 828.853 21.2539 828.853C31.3911 828.853 31.6133 831.097 31.6133 820.96C31.6133 810.823 24.3132 808.295 14.1761 808.295C-4.1789 803.453 -2.24042 793.428 -4.1789 805.175Z" fill="url(#paint33_linear_72_2796)"/>
<path d="M8.67342 804.307C6.44173 812.779 18.4909 824.381 25.5491 826.241C32.6074 828.1 32.2679 830.016 34.4996 821.544C36.7313 813.072 29.1766 804.012 22.1183 802.153C4.18984 800.579 12.6093 794.844 8.67342 804.307Z" fill="url(#paint34_radial_72_2796)"/>
<path d="M53.2755 805.557C56.85 803.725 61.7188 799.684 61.7188 799.684C61.7188 799.684 60.0094 801.774 58.782 802.987C56.3456 805.397 56.2198 806.558 53.2755 808.31C50.8232 809.77 48.9229 811.039 46.3006 812.165C43.7564 813.257 42.0086 813.401 39.6928 814.918C36.5454 816.981 35 818.185 33.2686 821.526C32.319 823.358 30.8824 828.317 30.8824 828.317C30.8824 828.317 29.8174 821.956 30.5153 819.323C31.4889 815.651 33.1503 813.69 36.2054 811.431C39.5231 808.977 42.4164 809.703 46.3006 808.31C49.0571 807.322 50.6694 806.893 53.2755 805.557Z" fill="#EAB29F" fill-opacity="0.84"/>
<path d="M50.1808 800.994C53.9682 808.24 44.3216 821.864 37.7407 825.304C31.1598 828.744 31.8541 830.423 28.0668 823.177C24.2794 815.931 29.9916 805.747 36.5725 802.307C53.8816 796.467 44.5335 793.254 50.1808 800.994Z" fill="url(#paint35_radial_72_2796)"/>
<path d="M47.7975 796.857C47.8168 796.947 47.8414 797.053 47.8745 797.175C48.071 797.902 48.5581 799.174 49.9763 801.12C50.8813 802.864 50.9918 805.006 50.525 807.318C50.0571 809.635 49.013 812.1 47.6414 814.455C44.894 819.174 40.8661 823.4 37.6295 825.091C36.4351 825.716 35.4748 826.285 34.6905 826.75C34.391 826.927 34.1173 827.089 33.8659 827.234C33.4077 827.497 33.0279 827.698 32.6972 827.83C32.3668 827.963 32.1008 828.02 31.8681 828.008C31.4231 827.986 31.0074 827.706 30.4467 826.912C29.8878 826.12 29.2292 824.883 28.2795 823.066C26.432 819.532 26.8909 815.257 28.6497 811.415C30.4054 807.58 33.4372 804.223 36.6671 802.529C44.7835 799.788 47.0752 797.615 47.7975 796.857Z" stroke="#C88181" stroke-opacity="0.02" stroke-width="0.480003"/>
<path d="M41.7124 800.421L47.7695 796.934C47.7695 796.934 44.3983 800.181 41.7124 801.339C40.6716 801.788 39.9918 801.79 38.9591 802.257C37.1292 803.084 36.217 803.835 34.7375 805.193C32.4663 807.278 31.5927 808.894 30.1488 811.618C29.3068 813.206 28.6618 814.076 28.3133 815.839C27.8528 818.169 28.2146 819.612 28.8639 821.896C29.3116 823.472 29.9264 824.223 30.5159 825.751C30.981 826.957 31.6172 828.871 31.6172 828.871C31.6172 828.871 28.894 825.531 27.9462 822.998C27.079 820.68 26.6943 819.227 26.8449 816.757C26.957 814.917 27.2693 813.882 27.9462 812.168C28.6777 810.316 29.3174 809.354 30.5159 807.763C32.2859 805.414 33.4992 804.136 36.0224 802.624C38.0662 801.399 41.7124 800.421 41.7124 800.421Z" fill="url(#paint36_linear_72_2796)"/>
<path d="M9.58702 801.152C9.71213 800.301 9.95411 799.133 9.95411 799.133C9.95411 799.133 10.0738 800.542 9.95411 801.703C9.82577 802.948 9.45747 803.777 9.21992 805.006C8.91943 806.561 9.21903 807.504 9.58702 809.044C10.2279 811.727 11.2886 813.041 12.8909 815.285C15.0411 818.297 16.6967 819.707 19.6822 821.893C22.9415 824.28 26.2048 823.621 28.8597 826.665C29.5005 827.4 30.3281 828.684 30.3281 828.684C30.3281 828.684 29.0039 827.761 28.1255 827.216C24.7737 825.135 22.191 825.241 18.948 822.994C15.6148 820.685 13.8542 819.027 11.6061 815.652C10.0597 813.331 8.96203 811.976 8.48572 809.228C8.19193 807.533 8.1194 806.504 8.48572 804.823C8.80038 803.379 9.37208 802.614 9.58702 801.152Z" fill="url(#paint37_linear_72_2796)"/>
<path d="M35.9955 825.217C33.6669 827.375 29.2749 829.789 29.2749 829.789C29.2749 829.789 33.1324 826.686 35.3107 824.395C37.4438 822.152 38.5226 820.77 40.2989 818.235C42.1685 815.566 43.4281 814.12 44.5742 811.07C45.0479 809.81 45.5469 807.762 45.5469 807.762C45.5469 807.762 45.3865 810.107 45.0213 811.558C44.1853 814.881 42.7549 816.432 40.8305 819.267C39.1488 821.744 38.1922 823.183 35.9955 825.217Z" fill="url(#paint38_linear_72_2796)"/>
<path d="M132.302 1621.59C143.96 1623.03 156.989 1623.13 168.858 1621.87C180.728 1620.62 190.59 1618.1 196.531 1614.8C202.472 1611.51 204.067 1607.67 201.007 1604.04C197.947 1600.41 190.449 1597.24 179.97 1595.15C169.492 1593.06 156.78 1592.2 144.303 1592.73C131.826 1593.27 120.475 1595.16 112.454 1598.04C104.433 1600.92 100.314 1604.58 100.897 1608.32C101.481 1612.06 106.725 1615.6 115.612 1618.26L151.685 1607.66L132.302 1621.59Z" fill="#55833F"/>
<path d="M141.947 1611.23L119.042 1616.06L155.736 1605.32L135.801 1619.48L141.947 1611.23Z" fill="#55833F" stroke="#55833F" stroke-width="0.28168"/>
<path d="M156.447 1583.28C157.828 1592.28 156.729 1597.41 155.061 1605.91C147.663 1603.95 127.49 1595.1 130.292 1580.1C132.462 1568.48 131.996 1570.21 137.449 1561.69C142.181 1569.83 155.393 1576.41 156.447 1583.28Z" fill="url(#paint39_linear_72_2796)"/>
<path d="M146.721 1583.96C145.34 1592.97 146.439 1598.1 148.106 1606.59C155.505 1604.64 175.678 1595.78 172.876 1580.78C170.706 1569.16 171.172 1570.9 165.719 1562.38C160.987 1570.51 147.775 1577.09 146.721 1583.96Z" fill="url(#paint40_linear_72_2796)"/>
<path d="M183.128 1585.09C183.128 1594.51 168.927 1607.08 159.516 1607.08C150.105 1607.08 149.898 1609.16 149.898 1599.75C149.898 1590.34 156.676 1587.99 166.087 1587.99C183.128 1583.5 181.328 1574.19 183.128 1585.09Z" fill="url(#paint41_linear_72_2796)"/>
<path d="M183.128 1585.09C183.128 1594.51 168.927 1607.08 159.516 1607.08C150.105 1607.08 149.898 1609.16 149.898 1599.75C149.898 1590.34 156.676 1587.99 166.087 1587.99C183.128 1583.5 181.328 1574.19 183.128 1585.09Z" fill="url(#paint42_linear_72_2796)"/>
<path d="M134.313 1586.9C134.313 1596.31 144.026 1591.5 151.354 1606.67C159.193 1587.41 168.395 1596.31 168.395 1586.9C168.395 1577.49 158.511 1566.79 151.354 1561C143.685 1565.43 134.313 1577.49 134.313 1586.9Z" fill="url(#paint43_radial_72_2796)"/>
<path d="M134.127 1585.37C133.105 1596.44 145.052 1595.54 148.801 1602.24C144.388 1591.84 135.85 1596.65 135.85 1587.24C135.85 1577.83 141.625 1571.74 146.226 1564.58C139.41 1571.56 136.343 1575.65 134.127 1585.37Z" fill="#EEC1A9"/>
<path d="M120.001 1585.18C120.001 1594.59 134.201 1607.16 143.613 1607.16C153.024 1607.16 153.23 1609.25 153.23 1599.83C153.23 1590.42 146.453 1588.08 137.042 1588.08C120.001 1583.58 121.801 1574.27 120.001 1585.18Z" fill="url(#paint44_linear_72_2796)"/>
<path d="M120.001 1585.18C120.001 1594.59 134.201 1607.16 143.613 1607.16C153.024 1607.16 153.23 1609.25 153.23 1599.83C153.23 1590.42 146.453 1588.08 137.042 1588.08C120.001 1583.58 121.801 1574.27 120.001 1585.18Z" fill="url(#paint45_linear_72_2796)"/>
<path d="M131.936 1584.38C129.864 1592.24 141.05 1603.02 147.603 1604.74C154.156 1606.47 153.841 1608.25 155.913 1600.38C157.985 1592.52 150.971 1584.11 144.418 1582.38C127.773 1580.92 135.59 1575.59 131.936 1584.38Z" fill="url(#paint46_radial_72_2796)"/>
<path d="M173.337 1585.54C176.656 1583.83 181.176 1580.08 181.176 1580.08C181.176 1580.08 179.589 1582.02 178.449 1583.15C176.187 1585.39 176.071 1586.46 173.337 1588.09C171.06 1589.45 169.296 1590.62 166.862 1591.67C164.499 1592.68 162.877 1592.82 160.727 1594.23C157.805 1596.14 156.37 1597.26 154.763 1600.36C153.881 1602.06 152.547 1606.67 152.547 1606.67C152.547 1606.67 151.559 1600.76 152.206 1598.32C153.11 1594.91 154.653 1593.09 157.489 1590.99C160.569 1588.71 163.255 1589.38 166.862 1588.09C169.421 1587.17 170.918 1586.78 173.337 1585.54Z" fill="#EAB29F" fill-opacity="0.84"/>
<path d="M170.462 1581.3C173.979 1588.03 165.023 1600.68 158.913 1603.87C152.803 1607.07 153.448 1608.63 149.932 1601.9C146.415 1595.17 151.719 1585.72 157.828 1582.52C173.898 1577.1 165.219 1574.12 170.462 1581.3Z" fill="url(#paint47_radial_72_2796)"/>
<path d="M170.382 1581.35C171.245 1583.01 171.346 1585.03 170.908 1587.2C170.47 1589.37 169.494 1591.67 168.216 1593.87C165.658 1598.26 161.903 1602.2 158.869 1603.79C157.764 1604.37 156.877 1604.89 156.15 1605.32C155.871 1605.49 155.615 1605.64 155.38 1605.78C154.954 1606.02 154.594 1606.21 154.278 1606.34C153.963 1606.46 153.696 1606.52 153.454 1606.51C152.979 1606.49 152.562 1606.18 152.036 1605.44C151.511 1604.7 150.895 1603.54 150.015 1601.85C148.275 1598.53 148.713 1594.51 150.356 1590.92C151.997 1587.34 154.834 1584.2 157.865 1582.61C165.743 1579.95 167.689 1577.87 168.241 1577.28C168.253 1577.27 168.264 1577.26 168.274 1577.25C168.294 1577.23 168.311 1577.21 168.326 1577.19C168.332 1577.22 168.339 1577.25 168.347 1577.29C168.349 1577.3 168.351 1577.32 168.354 1577.33C168.374 1577.43 168.401 1577.56 168.446 1577.72C168.624 1578.38 169.069 1579.55 170.382 1581.35Z" stroke="#C88181" stroke-opacity="0.02" stroke-width="0.187789"/>
<path d="M162.603 1580.77L168.227 1577.53C168.227 1577.53 165.097 1580.55 162.603 1581.62C161.637 1582.04 161.006 1582.04 160.047 1582.47C158.348 1583.24 157.501 1583.94 156.128 1585.2C154.019 1587.14 153.208 1588.63 151.867 1591.16C151.086 1592.64 150.487 1593.45 150.163 1595.08C149.736 1597.25 150.072 1598.59 150.675 1600.71C151.09 1602.17 151.661 1602.87 152.208 1604.29C152.64 1605.4 153.231 1607.18 153.231 1607.18C153.231 1607.18 150.702 1604.08 149.823 1601.73C149.017 1599.58 148.66 1598.23 148.8 1595.94C148.904 1594.23 149.194 1593.27 149.823 1591.68C150.502 1589.96 151.096 1589.06 152.208 1587.59C153.852 1585.4 154.978 1584.22 157.32 1582.81C159.218 1581.68 162.603 1580.77 162.603 1580.77Z" fill="url(#paint48_linear_72_2796)"/>
<path d="M132.779 1581.45C132.895 1580.66 133.12 1579.57 133.12 1579.57C133.12 1579.57 133.231 1580.88 133.12 1581.96C133.001 1583.12 132.659 1583.89 132.438 1585.03C132.159 1586.47 132.437 1587.35 132.779 1588.78C133.374 1591.27 134.359 1592.49 135.846 1594.57C137.843 1597.37 139.38 1598.68 142.152 1600.7C145.177 1602.92 148.207 1602.31 150.672 1605.14C151.267 1605.82 152.035 1607.01 152.035 1607.01C152.035 1607.01 150.806 1606.15 149.99 1605.65C146.878 1603.72 144.481 1603.81 141.47 1601.73C138.375 1599.58 136.741 1598.04 134.654 1594.91C133.218 1592.76 132.199 1591.5 131.757 1588.95C131.484 1587.37 131.417 1586.42 131.757 1584.86C132.049 1583.52 132.58 1582.81 132.779 1581.45Z" fill="url(#paint49_linear_72_2796)"/>
<path d="M157.297 1603.79C155.135 1605.79 151.057 1608.04 151.057 1608.04C151.057 1608.04 154.638 1605.16 156.661 1603.03C158.641 1600.95 159.643 1599.66 161.292 1597.31C163.028 1594.83 164.197 1593.49 165.261 1590.66C165.701 1589.49 166.164 1587.59 166.164 1587.59C166.164 1587.59 166.015 1589.76 165.676 1591.11C164.9 1594.2 163.572 1595.64 161.785 1598.27C160.224 1600.57 159.336 1601.9 157.297 1603.79Z" fill="url(#paint50_linear_72_2796)"/>
<path d="M41.4894 1028C61.0123 1123.74 13.8528 1187.41 -12.1672 1207.27L-30.0008 1179.74C-25.9961 1155.84 -17.5383 1135.31 -13.7317 1128.12C-10.0295 1119.36 0.0343857 1099.52 10.0461 1089.63C20.0579 1079.75 35.1799 1044.43 41.4894 1028Z" fill="#4D7B37" stroke="#5A7639" stroke-width="0.312867"/>
<path d="M-9.49572 1159.94L-16.661 1163.62L-16.1741 1168.31L-7.92166 1162.84C11.7739 1151.31 33.6981 1167.8 42.1984 1177.49L102.819 1236.04C100.166 1215.44 92.9294 1171.67 85.2102 1161.41C77.4911 1151.15 61.8397 1144.59 54.9788 1142.59C32.8392 1135.74 2.77097 1151.3 -9.49572 1159.94Z" fill="#97C65F" stroke="#97C65F" stroke-width="0.274274"/>
<path d="M22.5625 1163.64C6.45449 1205.73 -6.82351 1259.39 20.3727 1342.64C49.5431 1431.94 36.1719 1484.1 13.1839 1521.52" stroke="#61934A" stroke-width="3" stroke-linecap="round"/>
<path d="M29.7238 1480.12L31.3559 1476.19C27.0497 1476.07 22.8274 1478.63 21.2546 1479.92C28.0972 1479.23 29.9318 1479.55 29.7238 1480.12L29.7132 1480.15C29.7172 1480.14 29.7207 1480.13 29.7238 1480.12Z" fill="#61934A"/>
<path d="M31.3559 1476.19L29.7132 1480.15C29.9851 1479.56 28.1986 1479.22 21.2546 1479.92C22.8274 1478.63 27.0497 1476.07 31.3559 1476.19Z" stroke="#61934A" stroke-width="1.15385" stroke-linecap="round"/>
<path d="M30.9161 1383.87L29.7225 1379.78C26.2966 1382.39 24.6096 1387.03 24.1944 1389.02C29.0889 1384.19 30.7209 1383.29 30.9161 1383.87L30.9239 1383.89C30.9216 1383.88 30.919 1383.87 30.9161 1383.87Z" fill="#61934A"/>
<path d="M29.7225 1379.78L30.9239 1383.89C30.7685 1383.26 29.1615 1384.12 24.1944 1389.02C24.6096 1387.03 26.2966 1382.39 29.7225 1379.78Z" stroke="#61934A" stroke-width="1.15385" stroke-linecap="round"/>
<path d="M14.0191 1521.4C10.8696 1520.25 4.00573 1520.4 1.7465 1530.16C-0.434895 1539.58 -2.66979 1542.18 -3.60965 1542.35C-3.64159 1542.36 -3.67345 1542.36 -3.70524 1542.36C-3.67507 1542.36 -3.64318 1542.36 -3.60965 1542.35C6.3966 1541.37 23.7858 1535.84 14.0191 1521.4Z" fill="#61934A"/>
<path d="M14.0191 1521.4C10.8696 1520.25 4.00573 1520.4 1.7465 1530.16C-0.512725 1539.91 -2.82934 1542.36 -3.70524 1542.36C6.28531 1541.41 23.817 1535.89 14.0191 1521.4Z" stroke="#61934A" stroke-width="0.337854"/>
<path d="M2.2178 1539.23C6.24262 1538.34 14.2526 1534.25 14.0937 1525.04C15.4884 1529.08 15.0658 1537.57 2.2178 1539.23Z" fill="#7AB55E"/>
<path d="M22.3983 1478.26C23.7875 1480.77 24.5766 1486.6 16.6203 1489.82C8.93808 1492.92 7.03238 1495.16 7.0132 1495.98C7.01483 1496.01 7.01649 1496.04 7.01817 1496.06C7.01423 1496.04 7.01252 1496.01 7.0132 1495.98C6.50286 1487.38 8.86474 1471.92 22.3983 1478.26Z" fill="#61934A"/>
<path d="M22.3983 1478.26C23.7875 1480.77 24.5766 1486.6 16.6203 1489.82C8.66398 1493.03 6.90375 1495.32 7.01817 1496.06C6.4879 1487.48 8.82154 1471.9 22.3983 1478.26Z" stroke="#61934A" stroke-width="0.289558"/>
<path d="M8.87356 1490.63C9.09318 1487.11 11.4864 1479.78 19.3022 1478.68C15.6974 1478.04 8.56502 1479.53 8.87356 1490.63Z" fill="#7AB55E"/>
<path d="M36.7571 1438.15L37.5686 1433.97C41.2208 1436.25 43.3285 1440.72 43.9258 1442.66C38.6064 1438.3 36.8985 1437.56 36.7571 1438.15L36.7519 1438.18C36.7533 1438.17 36.755 1438.16 36.7571 1438.15Z" fill="#61934A"/>
<path d="M37.5686 1433.97L36.7519 1438.18C36.8487 1437.54 38.5276 1438.24 43.9258 1442.66C43.3285 1440.72 41.2208 1436.25 37.5686 1433.97Z" stroke="#61934A" stroke-width="1.15385" stroke-linecap="round"/>
<path d="M43.8942 1440.64C41.348 1441.97 37.4697 1446.4 42.326 1453.47C47.0149 1460.3 47.3664 1463.22 46.9304 1463.92C46.9138 1463.94 46.8973 1463.96 46.8808 1463.98C46.8982 1463.96 46.9148 1463.94 46.9304 1463.92C52.1065 1457.03 58.6766 1442.83 43.8942 1440.64Z" fill="#61934A"/>
<path d="M43.8942 1440.64C41.348 1441.97 37.4697 1446.4 42.326 1453.47C47.1822 1460.55 47.386 1463.43 46.8808 1463.98C52.0643 1457.12 58.7238 1442.84 43.8942 1440.64Z" stroke="#61934A" stroke-width="0.289558"/>
<path d="M48.3342 1458.43C50.099 1455.37 52.1511 1447.94 46.2409 1442.71C49.6 1444.17 54.7215 1449.35 48.3342 1458.43Z" fill="#7AB55E"/>
<path d="M15.8584 1326.74L15.504 1323.07C19.7006 1324.59 22.9859 1328.16 24.104 1329.75C17.708 1326.65 15.8346 1326.22 15.8584 1326.74L15.8607 1326.76C15.8595 1326.75 15.8587 1326.75 15.8584 1326.74Z" fill="#61934A"/>
<path d="M15.504 1323.07L15.8607 1326.76C15.7801 1326.21 17.6132 1326.61 24.104 1329.75C22.9859 1328.16 19.7006 1324.59 15.504 1323.07Z" stroke="#61934A" stroke-width="1.15385" stroke-linecap="round"/>
<path d="M22.4966 1327.34C20.4934 1329.39 18.1931 1334.81 25.0183 1340.01C31.6084 1345.04 32.8553 1347.7 32.6577 1348.49C32.6489 1348.52 32.6401 1348.55 32.6312 1348.57C32.6418 1348.55 32.6507 1348.52 32.6577 1348.49C35.4203 1340.33 37.2231 1324.8 22.4966 1327.34Z" fill="#61934A"/>
<path d="M22.4966 1327.34C20.4934 1329.39 18.1931 1334.81 25.0183 1340.01C31.8435 1345.21 32.9374 1347.89 32.6312 1348.57C35.4086 1340.43 37.2701 1324.79 22.4966 1327.34Z" stroke="#61934A" stroke-width="0.289558"/>
<path d="M32.2765 1342.85C32.9956 1339.39 32.6214 1331.69 25.3721 1328.57C29.0182 1328.9 35.5037 1332.22 32.2765 1342.85Z" fill="#7AB55E"/>
<path d="M6.02122 1268.7L5.52201 1265.25C9.88416 1266.83 13.3869 1270.3 14.593 1271.83C7.91589 1268.69 5.97759 1268.21 6.02122 1268.7L6.02446 1268.73C6.02295 1268.72 6.02187 1268.71 6.02122 1268.7Z" fill="#61934A"/>
<path d="M5.52201 1265.25L6.02446 1268.73C5.92117 1268.2 7.81692 1268.64 14.593 1271.83C13.3869 1270.3 9.88416 1266.83 5.52201 1265.25Z" stroke="#61934A" stroke-width="1.15385" stroke-linecap="round"/>
<path d="M12.7175 1269.58C10.7674 1271.69 8.60601 1277.16 15.5617 1282.19C22.2777 1287.04 23.5921 1289.68 23.4149 1290.47C23.4068 1290.5 23.3986 1290.53 23.3904 1290.55C23.4004 1290.53 23.4086 1290.5 23.4149 1290.47C25.9684 1282.24 27.3743 1266.67 12.7175 1269.58Z" fill="#61934A"/>
<path d="M12.7175 1269.58C10.7674 1271.69 8.60601 1277.16 15.5617 1282.19C22.5173 1287.22 23.679 1289.86 23.3904 1290.55C25.9593 1282.34 27.4211 1266.66 12.7175 1269.58Z" stroke="#61934A" stroke-width="0.289558"/>
<path d="M22.8912 1284.84C23.5218 1281.36 22.9514 1273.67 15.6248 1270.74C19.2783 1270.98 25.8463 1274.13 22.8912 1284.84Z" fill="#7AB55E"/>
<path d="M16.4493 1183.07L17.8513 1179.8C20.855 1183.83 22.0955 1188.96 22.3403 1191.02C18.1274 1184.22 16.6719 1182.62 16.4493 1183.07L16.4402 1183.09C16.4429 1183.08 16.446 1183.07 16.4493 1183.07Z" fill="#61934A"/>
<path d="M17.8513 1179.8L16.4402 1183.09C16.6294 1182.57 18.0649 1184.12 22.3403 1191.02C22.0955 1188.96 20.855 1183.83 17.8513 1179.8Z" stroke="#61934A" stroke-width="1.15385" stroke-linecap="round"/>
<path d="M21.3628 1187.61C18.7012 1188.69 14.4174 1192.73 18.5745 1200.23C22.5885 1207.48 22.659 1210.42 22.1587 1211.07C22.1401 1211.09 22.1216 1211.11 22.1031 1211.13C22.1222 1211.11 22.1408 1211.09 22.1587 1211.07C27.97 1204.71 35.8678 1191.21 21.3628 1187.61Z" fill="#61934A"/>
<path d="M21.3628 1187.61C18.7012 1188.69 14.4174 1192.73 18.5745 1200.23C22.7317 1207.74 22.659 1210.63 22.1031 1211.13C27.9194 1204.79 35.9141 1191.22 21.3628 1187.61Z" stroke="#61934A" stroke-width="0.289558"/>
<path d="M24.0807 1205.74C26.1303 1202.87 28.8838 1195.67 23.5011 1189.89C26.7054 1191.67 31.3075 1197.32 24.0807 1205.74Z" fill="#7AB55E"/>
<path d="M25.3793 1385.33C27.6205 1387.13 30.5695 1392.22 24.4361 1398.22C18.514 1404.02 17.6042 1406.81 17.898 1407.58C17.91 1407.6 17.9219 1407.63 17.9339 1407.65C17.9205 1407.63 17.9085 1407.61 17.898 1407.58C14.1524 1399.82 10.4522 1384.62 25.3793 1385.33Z" fill="#61934A"/>
<path d="M25.3793 1385.33C27.6205 1387.13 30.5695 1392.22 24.4361 1398.22C18.3027 1404.23 17.5457 1407.01 17.9339 1407.65C14.1762 1399.92 10.4045 1384.62 25.3793 1385.33Z" stroke="#61934A" stroke-width="0.289558"/>
<path d="M17.5827 1401.92C16.4434 1398.58 15.8676 1390.89 22.678 1386.9C19.1006 1387.68 13.0731 1391.78 17.5827 1401.92Z" fill="#7AB55E"/>
<path d="M8.47809 1298.07L7.92542 1294.44C3.97461 1297.45 1.47642 1302.07 0.721169 1304.01C6.54716 1298.68 8.37218 1297.57 8.47809 1298.07L8.48168 1298.1C8.48086 1298.09 8.47966 1298.08 8.47809 1298.07Z" fill="#61934A"/>
<path d="M7.92542 1294.44L8.48168 1298.1C8.4254 1297.53 6.63351 1298.6 0.721169 1304.01C1.47642 1302.07 3.97461 1297.45 7.92542 1294.44Z" stroke="#61934A" stroke-width="1.15385" stroke-linecap="round"/>
<path d="M2.63957 1301.53C4.88026 1303.33 7.82789 1308.42 1.69289 1314.42C-4.23076 1320.22 -5.14124 1323.01 -4.84767 1323.78C-4.83572 1323.8 -4.82377 1323.83 -4.81182 1323.85C-4.82519 1323.83 -4.83719 1323.8 -4.84767 1323.78C-8.59121 1316.02 -12.2873 1300.82 2.63957 1301.53Z" fill="#61934A"/>
<path d="M2.63957 1301.53C4.88026 1303.33 7.82789 1308.42 1.69289 1314.42C-4.44211 1320.42 -5.19983 1323.21 -4.81182 1323.85C-8.56742 1316.11 -12.335 1300.82 2.63957 1301.53Z" stroke="#61934A" stroke-width="0.289558"/>
<path d="M-5.16134 1318.12C-6.29966 1314.78 -6.87343 1307.09 -0.0619411 1303.1C-3.63959 1303.88 -9.66818 1307.98 -5.16134 1318.12Z" fill="#7AB55E"/>
<path d="M7.45832 1215.18L6.8547 1211.24C2.15864 1215.89 -0.846579 1221.92 -1.76218 1224.35C5.17454 1216.47 7.34014 1214.64 7.45832 1215.18L7.46223 1215.2C7.46137 1215.19 7.46007 1215.19 7.45832 1215.18Z" fill="#61934A"/>
<path d="M6.8547 1211.24L7.46223 1215.2C7.40329 1214.58 5.27736 1216.35 -1.76218 1224.35C-0.846579 1221.92 2.15864 1215.89 6.8547 1211.24Z" stroke="#61934A" stroke-width="1.15385" stroke-linecap="round"/>
<path d="M-1.49987 1222.4C0.707275 1224.23 3.56039 1229.38 -2.68435 1235.27C-8.71396 1240.95 -9.67592 1243.73 -9.3965 1244.5C-9.38501 1244.52 -9.37352 1244.55 -9.36203 1244.57C-9.37498 1244.55 -9.38653 1244.53 -9.3965 1244.5C-12.9961 1236.67 -16.4111 1221.41 -1.49987 1222.4Z" fill="#61934A"/>
<path d="M-1.49987 1222.4C0.707275 1224.23 3.56039 1229.38 -2.68435 1235.27C-8.92909 1241.15 -9.73811 1243.92 -9.36203 1244.57C-12.9741 1236.77 -16.4587 1221.4 -1.49987 1222.4Z" stroke="#61934A" stroke-width="0.289558"/>
<path d="M-9.60815 1238.84C-10.6845 1235.47 -11.1163 1227.78 -4.23235 1223.92C-7.82376 1224.63 -13.9269 1228.61 -9.60815 1238.84Z" fill="#7AB55E"/>
<path d="M22.4152 1162.33C23.4395 1164.84 23.532 1170.4 15.7068 1172.54C8.15122 1174.6 6.11356 1176.49 6.00455 1177.26C6.00303 1177.28 6.00154 1177.31 6.00009 1177.33C5.99923 1177.31 6.00066 1177.28 6.00455 1177.26C6.48185 1169.13 10.4175 1154.88 22.4152 1162.33Z" fill="#61934A"/>
<path d="M22.4152 1162.33C23.4395 1164.84 23.532 1170.4 15.7068 1172.54C7.88165 1174.67 5.97518 1176.62 6.00009 1177.33C6.45681 1169.22 10.3792 1154.85 22.4152 1162.33Z" stroke="#61934A" stroke-width="0.27367"/>
<path d="M8.34575 1172.44C8.94399 1169.16 12.0048 1162.54 19.4624 1162.38C16.1503 1161.38 9.29012 1161.99 8.34575 1172.44Z" fill="#7AB55E"/>
<path d="M1065.19 1892.9C1039.02 1896.12 1009.77 1896.35 983.129 1893.53C956.487 1890.72 934.348 1885.06 921.013 1877.67C907.677 1870.27 904.096 1861.66 910.966 1853.51C917.835 1845.36 934.665 1838.25 958.186 1833.56C981.707 1828.87 1010.24 1826.93 1038.25 1828.13C1066.25 1829.32 1091.73 1833.57 1109.74 1840.03C1127.74 1846.5 1136.99 1854.72 1135.68 1863.11C1134.37 1871.5 1122.6 1879.45 1102.65 1885.43L1021.68 1861.64L1065.19 1892.9Z" fill="#4D7B37"/>
<path d="M1043.53 1869.66L1094.94 1880.51L1012.58 1856.39L1057.32 1888.17L1043.53 1869.66Z" fill="#4D7B37" stroke="#4D7B37" stroke-width="0.28168"/>
<path d="M965.634 1836.75C968.39 1853.15 990.826 1864.01 1003.29 1864.01C1004.9 1864.01 1007.97 1861.21 1007.42 1849.99C1006.87 1838.78 994.867 1838.73 988.934 1840.11C983.518 1837.73 981.179 1830.79 994.179 1814.49C1010.43 1794.11 994.265 1767.83 975.522 1764.88C962.226 1762.79 950.331 1768.4 945.172 1776.31C939.469 1785.06 945.946 1802.02 951.362 1797.89C962.151 1789.67 971.137 1793.25 970.019 1809.67C969.389 1818.94 964.001 1827.04 965.634 1836.75Z" fill="#FFFCF9"/>
<path d="M965.634 1836.75C968.39 1853.15 990.826 1864.01 1003.29 1864.01C1004.9 1864.01 1007.97 1861.21 1007.42 1849.99C1006.87 1838.78 994.867 1838.73 988.934 1840.11C983.518 1837.73 981.179 1830.79 994.179 1814.49C1010.43 1794.11 994.265 1767.83 975.522 1764.88C962.226 1762.79 950.331 1768.4 945.172 1776.31C939.469 1785.06 945.946 1802.02 951.362 1797.89C962.151 1789.67 971.137 1793.25 970.019 1809.67C969.389 1818.94 964.001 1827.04 965.634 1836.75Z" fill="#DBA478"/>
<path d="M951.014 1798.15C955.107 1796.44 960.643 1790.24 966.919 1795.83C965.381 1793.01 967.017 1787.66 971.871 1789.54C971.871 1786.37 972.852 1783.71 977.408 1783.02C974.485 1778.55 978.504 1773.68 983.702 1777.58C981.535 1775.37 983.93 1768.67 989.188 1771.5C965.63 1753.27 947.059 1772.79 944.651 1777C939.661 1785.73 944.651 1800.82 951.014 1798.15Z" fill="#F3EFEA"/>
<path d="M950.842 1798.15C948.3 1800.08 945.196 1794.83 944.651 1792.56C949.581 1785.89 961.916 1775.11 972.164 1786.8C971.992 1787.55 971.7 1789.14 971.906 1789.55C972.164 1790.07 964.77 1787.75 966.748 1795.23C960.244 1791.04 954.082 1795.7 950.887 1798.12L950.842 1798.15Z" fill="#CBB9A9"/>
<path d="M967.521 1822.31C979.833 1806.7 975.574 1792.05 972.249 1786.89C971.974 1787.37 971.877 1788.93 971.905 1789.56C966.231 1787.58 965.285 1793.51 967.177 1795.66C972.473 1802.95 969.727 1816.41 967.521 1822.31Z" fill="#CD9163"/>
<path d="M969.932 1846.3C979.562 1859.2 996.901 1863.87 1002.86 1863.84C1022.12 1858.06 1001.46 1845.78 988.676 1840.19C984.778 1838.96 979.734 1831.85 992.802 1816.04C1008.85 1796.6 996.241 1778.29 991.341 1773.82C994.436 1800.82 985.15 1806.06 980.25 1812.77C975.349 1819.47 968.557 1827.81 971.566 1837.44C972.899 1841.71 972.626 1844.24 969.932 1846.3Z" fill="#CD9163"/>
<path d="M1019.52 1753.87C1024.54 1753.32 1031.18 1753.64 1033.64 1753.87C1039.82 1745.02 1049.62 1737.37 1051 1740.29C1052.25 1742.95 1052.54 1753.87 1052.54 1759.89C1054.78 1764.45 1060.44 1778.21 1048.16 1787.23C1055.32 1802.88 1082.59 1858.42 1043.56 1865.64C1039.83 1866.42 1025.49 1869.08 1009.05 1865.64C970.013 1858.42 997.847 1802.88 1005.01 1787.23C992.726 1778.21 998.386 1764.45 1000.62 1759.89C1000.62 1753.87 1000.92 1742.95 1002.17 1740.29C1003.54 1737.37 1013.35 1745.02 1019.52 1753.87Z" fill="#F3EFEA"/>
<path d="M1019.53 1753.87C1024.55 1753.32 1031.18 1753.64 1033.65 1753.87C1039.82 1745.02 1049.63 1737.37 1051 1740.29C1052.25 1742.95 1052.55 1753.87 1052.55 1759.89C1053.42 1761.96 1054.45 1764.02 1055.14 1767.03C1049.35 1770.12 1035.33 1773.32 1026.59 1761.35C1017.86 1773.32 1003.75 1770.12 997.962 1767.03C998.65 1764.02 999.759 1761.96 1000.63 1759.89C1000.63 1753.87 1000.92 1742.95 1002.17 1740.29C1003.55 1737.37 1013.35 1745.02 1019.53 1753.87Z" fill="#DBA478"/>
<ellipse cx="2.83724" cy="3.43908" rx="2.83724" ry="3.43908" transform="matrix(-1 0 0 1 1039.65 1764.96)" fill="#5F4B3D"/>
<ellipse cx="2.83724" cy="3.43908" rx="2.83724" ry="3.43908" transform="matrix(-1 0 0 1 1020.05 1764.96)" fill="#5F4B3D"/>
<path d="M1029.75 1770.92C1031.36 1771.82 1028.58 1773.87 1026.92 1774.94C1025.57 1773.8 1022.8 1771.86 1023.9 1771.06C1025.52 1769.88 1028.26 1770.09 1029.75 1770.92Z" fill="#5F4B3D"/>
<path d="M1020.83 1775.63C1025.47 1779.75 1028.08 1776.31 1027.88 1774.25C1027.39 1773.48 1026.21 1772.5 1026.07 1774.08C1025.73 1777.86 1022.47 1775.03 1021.43 1774.77C1020.74 1774.59 1020.63 1775.37 1020.83 1775.63Z" fill="#5F4B3D"/>
<path d="M1032.96 1775.63C1028.32 1779.75 1025.71 1776.31 1025.91 1774.25C1026.4 1773.48 1027.57 1772.5 1027.71 1774.08C1028.06 1777.86 1031.31 1775.03 1032.36 1774.77C1033.05 1774.59 1033.16 1775.37 1032.96 1775.63Z" fill="#5F4B3D"/>
<path d="M1048.34 1787.06C1056.6 1781.97 1056.31 1771.58 1055.13 1767.03C1053.69 1767.92 1050.98 1768.78 1049.8 1769.09C1050.98 1773.65 1050.92 1781.37 1042.67 1786.46C1043.67 1787.23 1045.87 1788.44 1048.34 1787.06Z" fill="#DED2C7"/>
<path d="M1005.36 1787.06C997.107 1781.97 997.394 1771.58 998.569 1767.03C1000.01 1767.92 1002.72 1768.78 1003.9 1769.09C1002.72 1773.65 1002.78 1781.37 1011.04 1786.46C1010.03 1787.23 1007.84 1788.44 1005.36 1787.06Z" fill="#DED2C7"/>
<path d="M1015.58 1791.71C1024.46 1801.75 1033.61 1795.89 1036.97 1791.71C1042.33 1784.83 1035.65 1786.26 1031.64 1787.84C1030.06 1788.44 1025.04 1789.28 1020.91 1787.84C1016.9 1786.26 1010.22 1784.83 1015.58 1791.71Z" fill="#DED2C7"/>
<path d="M1039.48 1753.53C1041.2 1750.43 1046.29 1742.87 1048.77 1741.84" stroke="#AD8A70" stroke-width="0.498955" stroke-linecap="round"/>
<path d="M1011.48 1751.69C1011.5 1751.73 1011.52 1751.77 1011.54 1751.81C1011.52 1751.77 1011.5 1751.73 1011.48 1751.69C1009.73 1748.57 1006.25 1743.11 1003.8 1742.09C1003.35 1743.81 1002.36 1748.51 1002.43 1752.5C1004.32 1748.97 1006.99 1754.3 1007.59 1752.5C1008.19 1750.69 1005.7 1748.8 1007.33 1749.57C1008.96 1750.35 1009.31 1753.18 1009.14 1751.21C1008.96 1749.23 1005.35 1746.74 1007.76 1748.03C1009.59 1749.01 1010.98 1750.82 1011.48 1751.69Z" fill="#FFEEE7"/>
<path d="M1011.71 1751.98C1011.28 1751.18 1009.86 1749.23 1007.93 1748.2C1005.52 1746.91 1009.14 1749.4 1009.31 1751.38C1009.48 1753.36 1009.14 1750.52 1007.5 1749.75C1005.87 1748.97 1008.36 1750.86 1007.76 1752.67" stroke="#AD8A70" stroke-width="0.332637" stroke-linecap="round"/>
<path d="M1040.33 1752.54C1040.3 1752.58 1040.28 1752.63 1040.26 1752.67C1040.28 1752.63 1040.3 1752.59 1040.33 1752.54C1042.09 1749.4 1046.16 1743.28 1048.6 1742.27C1049.06 1743.99 1049.96 1749.37 1049.89 1753.36C1048 1749.83 1044.81 1755.16 1044.21 1753.36C1043.61 1751.55 1046.1 1749.66 1044.47 1750.43C1042.84 1751.21 1042.49 1754.04 1042.67 1752.07C1042.84 1750.09 1046.45 1747.6 1044.04 1748.89C1042.21 1749.87 1040.83 1751.68 1040.33 1752.54Z" fill="#FFEEE7"/>
<path d="M1040.09 1752.84C1040.52 1752.04 1041.94 1750.09 1043.87 1749.06C1046.28 1747.77 1042.67 1750.26 1042.49 1752.24C1042.32 1754.22 1042.67 1751.38 1044.3 1750.61C1045.93 1749.83 1043.44 1751.72 1044.04 1753.53" stroke="#AD8A70" stroke-width="0.332637" stroke-linecap="round"/>
<path d="M1012.23 1752.84C1010.51 1749.75 1006.45 1743.3 1003.98 1742.27" stroke="#AD8A70" stroke-width="0.498955" stroke-linecap="round"/>
<path d="M1052.64 1841.14C1051.95 1858.16 1047.91 1862.29 1043.01 1865.82C1047.91 1865.07 1057.37 1861.86 1061.32 1853.26C1059.03 1851.29 1055.05 1847.5 1052.64 1841.14Z" fill="#CBB9A9"/>
<path d="M1001.66 1837.45C1002.34 1856.02 1005.35 1862.29 1011.46 1865.82C1006.56 1865.07 995.896 1862.46 991.941 1853.87C994.234 1851.89 999.249 1843.81 1001.66 1837.45Z" fill="#CBB9A9"/>
<path d="M1022.46 1866.89C1024.48 1867.59 1029.38 1867.18 1031.58 1866.89C1030.8 1864.16 1029.34 1862.03 1028.91 1846.39C1028.28 1846.93 1026.68 1847.68 1024.7 1846.39C1024.63 1860.82 1024.27 1866.42 1022.46 1866.89Z" fill="#DED2C7"/>
<path d="M1049.78 1805.98C1049.35 1801.91 1044.91 1791.48 1042.93 1786.63C1043.77 1787.12 1046.02 1787.56 1047.83 1787.06C1050.15 1791.79 1050.77 1800.37 1049.78 1805.98Z" fill="#DED2C7"/>
<path d="M1036.99 1755.77C1047.82 1759.63 1048.51 1764.02 1049.8 1769.07C1051.35 1768.67 1054.69 1767.75 1055.3 1767.2C1054.76 1765.22 1053.59 1761.01 1052.55 1759.98C1052.73 1753.42 1052.67 1740.08 1050.75 1739.6L1050.66 1739.77L1049.89 1740.29C1050.71 1741.39 1050.58 1750.89 1050.66 1755.34C1050.23 1757.48 1050.75 1760.46 1047.65 1757.23C1044.56 1753.99 1041.29 1755.77 1036.99 1755.77Z" fill="#CD9163"/>
<path d="M1008.79 1758.69C1004.84 1761.18 1005.18 1763.96 1003.89 1769.01C1002.35 1768.6 998.752 1767.58 998.133 1767.03C998.677 1765.05 999.594 1761.01 1000.63 1759.98C1000.63 1753.44 1001.14 1741.41 1002.35 1740.03L1002.43 1740.12V1740.72C1001.61 1741.82 1001.49 1752.01 1001.4 1756.45C1002.43 1757 1007.07 1758.4 1008.79 1758.69Z" fill="#CD9163"/>
<path d="M1004.16 1739.52C1008.35 1740.34 1016.17 1749.37 1019.55 1753.79C1018.89 1753.85 1017.04 1754.13 1015.25 1754.82C1013.01 1755.68 1015.25 1753.7 1014.39 1750.95C1013.53 1748.2 1007.6 1741.32 1004.16 1739.52Z" fill="#CD9163"/>
<path d="M1048.69 1740.03C1044.49 1740.86 1036.76 1749.37 1033.38 1753.79C1034.04 1753.84 1034.95 1753.87 1036.74 1754.56C1038.52 1755.25 1035.88 1754.05 1036.74 1751.29C1037.6 1748.54 1045.25 1741.84 1048.69 1740.03Z" fill="#CD9163"/>
<ellipse cx="8.16782" cy="6.96414" rx="8.16782" ry="6.96414" transform="matrix(-1 0 0 1 1009.91 1770.12)" fill="#F1B09E"/>
<ellipse cx="8.16782" cy="6.96414" rx="8.16782" ry="6.96414" transform="matrix(-1 0 0 1 1060.46 1770.12)" fill="#F1B09E"/>
<path d="M988.305 1764.55C997.161 1763.7 1004.83 1766.93 1011.15 1770.92C1011.54 1771.31 1011.74 1772.7 1010.62 1771.84C1009.12 1770.68 1000.8 1764.31 988.715 1764.68C987.859 1764.6 989.142 1764.53 988.305 1764.55Z" fill="#FEFDFB"/>
<path d="M984.934 1773.19C993.996 1769.68 1002.88 1770.51 1010.56 1772.49C1011.06 1772.75 1011.64 1774.04 1010.24 1773.54C1008.36 1772.87 997.968 1769.17 985.397 1773.18C984.48 1773.37 985.807 1772.91 984.934 1773.19Z" fill="#FEFDFB"/>
<path d="M991.169 1785.14C996.408 1778.84 1003.38 1775.89 1009.95 1774.28C1010.44 1774.26 1011.43 1775.01 1010.17 1775.2C1008.48 1775.45 999.149 1776.86 991.513 1784.96C990.911 1785.47 991.702 1784.59 991.169 1785.14Z" fill="#FEFDFB"/>
<path d="M1065.69 1764.55C1056.83 1763.7 1049.17 1766.93 1042.84 1770.92C1042.46 1771.31 1042.25 1772.7 1043.37 1771.84C1044.88 1770.68 1053.2 1764.31 1065.28 1764.68C1066.14 1764.6 1064.85 1764.53 1065.69 1764.55Z" fill="#FEFDFB"/>
<path d="M1069.05 1773.19C1059.99 1769.68 1051.11 1770.51 1043.43 1772.49C1042.93 1772.75 1042.35 1774.04 1043.75 1773.54C1045.63 1772.87 1056.02 1769.17 1068.59 1773.18C1069.51 1773.37 1068.18 1772.91 1069.05 1773.19Z" fill="#FEFDFB"/>
<path d="M1062.82 1785.15C1057.58 1778.85 1050.6 1775.89 1044.04 1774.28C1043.55 1774.27 1042.56 1775.01 1043.81 1775.2C1045.51 1775.45 1054.84 1776.86 1062.48 1784.96C1063.08 1785.47 1062.29 1784.59 1062.82 1785.15Z" fill="#FEFDFB"/>
<path d="M1021.17 1868.22C1024.37 1867.21 1025.39 1856.62 1025.39 1834.43C1019.02 1833.06 1005.34 1829.43 1001.49 1825.92C1002.43 1853.43 1003.01 1860.95 1013.69 1867.02C1016.87 1868.82 1019.54 1868.74 1021.17 1868.22Z" fill="#F3EFEA"/>
<path d="M1033.21 1868.22C1030.01 1867.21 1029 1856.62 1029 1834.43C1036.96 1831.97 1052.9 1826.82 1052.9 1825.92C1051.95 1853.43 1051.37 1860.95 1040.69 1867.02C1037.51 1868.82 1034.84 1868.74 1033.21 1868.22Z" fill="#F3EFEA"/>
<path d="M1053.41 1824.98L1028.74 1834.18L1029.51 1850.43L1051.61 1845.78L1053.41 1824.98Z" fill="#F3EFEA"/>
<path d="M1001.05 1825.06L1025.73 1833.57L1024.78 1849.91L1002.52 1842.69L1001.05 1825.06Z" fill="#F3EFEA"/>
<path d="M1051.21 1840.72C1052.83 1839.66 1052.76 1842.01 1052.59 1843.98C1051.83 1852.67 1051.21 1862.3 1039.86 1867.54C1035.12 1869.73 1033.07 1867.71 1032.38 1866.17C1051.55 1864.45 1045.28 1844.59 1051.21 1840.72Z" fill="#E5DDD8"/>
<path d="M1020.4 1868.14C1024.52 1866.96 1024.52 1848.11 1024.95 1837.44C1025.06 1834.78 1021.69 1838.05 1021.69 1840.02C1021.69 1848.36 1019.1 1861.5 1016.1 1863.58C1014.98 1864.53 1011.92 1865.61 1007.93 1862.72C1013.52 1868.4 1018.25 1868.91 1020.4 1868.14Z" fill="#E5DDD8"/>
<path d="M991.772 1853.78C983.518 1840.37 994.523 1808.81 1004.32 1789.21C1003.95 1790.16 1001.37 1801.61 1004.67 1814.75C1007.97 1827.88 997.963 1849.65 991.772 1853.78Z" fill="#DBA478"/>
<path d="M1060.81 1853.61C1069.24 1840.31 1059.35 1811.05 1048.86 1789.47C1049.22 1790.42 1051.79 1801.21 1048.32 1814.3C1044.84 1827.39 1054.68 1849.4 1060.81 1853.61Z" fill="#DBA478"/>
<path d="M1053.84 1843.98C1056.32 1836.07 1052.21 1814.95 1049.89 1805.72C1050.92 1801.8 1049.37 1792.54 1048.51 1788.01C1056.02 1802.37 1070.35 1835.64 1061.15 1853.78C1058.97 1852 1054.87 1847.35 1053.84 1843.98Z" fill="#CD9163"/>
<path d="M996.846 1846.39C994.37 1838.48 995.729 1822.57 1002.78 1801.51C1002.78 1797.64 1002.86 1794.43 1003.72 1789.9C996.674 1804.94 982.746 1836.84 991.602 1853.69C993.78 1851.92 995.815 1849.76 996.846 1846.39Z" fill="#CD9163"/>
</g>
<defs>
<filter id="filter0_i_72_2796" x="-2347" y="90" width="4174.04" height="2818.47" filterUnits="userSpaceOnUse" color-interpolation-filters="sRGB">
<feFlood flood-opacity="0" result="BackgroundImageFix"/>
<feBlend mode="normal" in="SourceGraphic" in2="BackgroundImageFix" result="shape"/>
<feColorMatrix in="SourceAlpha" type="matrix" values="0 0 0 0 0 0 0 0 0 0 0 0 0 0 0 0 0 0 127 0" result="hardAlpha"/>
<feOffset dy="5"/>
<feGaussianBlur stdDeviation="2.5"/>
<feComposite in2="hardAlpha" operator="arithmetic" k2="-1" k3="1"/>
<feColorMatrix type="matrix" values="0 0 0 0 0.349642 0 0 0 0 0.699094 0 0 0 0 0.632698 0 0 0 1 0"/>
<feBlend mode="normal" in2="shape" result="effect1_innerShadow_72_2796"/>
</filter>
<linearGradient id="paint0_linear_72_2796" x1="-242.092" y1="73.875" x2="1597.5" y2="74" gradientUnits="userSpaceOnUse">
<stop stop-color="#967D5C"/>
<stop offset="0.51" stop-color="#B49A78"/>
<stop offset="1" stop-color="#967D5C"/>
</linearGradient>
<linearGradient id="paint1_linear_72_2796" x1="-242.092" y1="63.8749" x2="1597.5" y2="63.9999" gradientUnits="userSpaceOnUse">
<stop stop-color="#967D5C"/>
<stop offset="0.51" stop-color="#B49A78"/>
<stop offset="1" stop-color="#967D5C"/>
</linearGradient>
<linearGradient id="paint2_linear_72_2796" x1="106.575" y1="1380.76" x2="111.605" y2="1858.2" gradientUnits="userSpaceOnUse">
<stop offset="0.234375" stop-color="#78D2C1"/>
<stop offset="1" stop-color="#78D2C1" stop-opacity="0"/>
</linearGradient>
<linearGradient id="paint3_linear_72_2796" x1="1143.24" y1="1744.71" x2="1146.44" y2="1764.8" gradientUnits="userSpaceOnUse">
<stop stop-color="#F1B09E"/>
<stop offset="1" stop-color="#FAE6CE"/>
</linearGradient>
<linearGradient id="paint4_linear_72_2796" x1="1180.84" y1="1745.62" x2="1177.64" y2="1765.72" gradientUnits="userSpaceOnUse">
<stop stop-color="#F1B09E"/>
<stop offset="1" stop-color="#FAE6CE"/>
</linearGradient>
<linearGradient id="paint5_linear_72_2796" x1="1190.72" y1="1782.62" x2="1161.71" y2="1800.89" gradientUnits="userSpaceOnUse">
<stop stop-color="#EFB7A4"/>
<stop offset="0.942708" stop-color="#F7E7D8"/>
</linearGradient>
<linearGradient id="paint6_linear_72_2796" x1="1190.72" y1="1782.62" x2="1161.71" y2="1800.89" gradientUnits="userSpaceOnUse">
<stop stop-color="#EFB7A4"/>
<stop offset="0.942708" stop-color="#F7E7D8"/>
</linearGradient>
<radialGradient id="paint7_radial_72_2796" cx="0" cy="0" r="1" gradientUnits="userSpaceOnUse" gradientTransform="translate(1161.51 1753.84) rotate(89.731) scale(48.6444 36.3018)">
<stop stop-color="#FADFCC"/>
<stop offset="1" stop-color="#F1BEAB"/>
</radialGradient>
<linearGradient id="paint8_linear_72_2796" x1="1133.32" y1="1782.74" x2="1162.32" y2="1801.01" gradientUnits="userSpaceOnUse">
<stop stop-color="#EFB7A4"/>
<stop offset="0.942708" stop-color="#F7E7D8"/>
</linearGradient>
<linearGradient id="paint9_linear_72_2796" x1="1133.32" y1="1782.74" x2="1162.32" y2="1801.01" gradientUnits="userSpaceOnUse">
<stop stop-color="#EFB7A4"/>
<stop offset="0.942708" stop-color="#F7E7D8"/>
</linearGradient>
<radialGradient id="paint10_radial_72_2796" cx="0" cy="0" r="1" gradientUnits="userSpaceOnUse" gradientTransform="translate(1163.29 1797.93) rotate(-139.07) scale(37.2212 51.1887)">
<stop stop-color="#FCE5D0"/>
<stop offset="1" stop-color="#EFB7A4"/>
</radialGradient>
<radialGradient id="paint11_radial_72_2796" cx="0" cy="0" r="1" gradientUnits="userSpaceOnUse" gradientTransform="translate(1165.03 1798.53) rotate(-51.8626) scale(37.2782 48.5241)">
<stop stop-color="#FCE5D0"/>
<stop offset="1" stop-color="#EFB7A4"/>
</radialGradient>
<linearGradient id="paint12_linear_72_2796" x1="1171.31" y1="1763.43" x2="1171.31" y2="1803.17" gradientUnits="userSpaceOnUse">
<stop stop-color="#F0BFAF"/>
<stop offset="1" stop-color="#F0BFAF" stop-opacity="0"/>
</linearGradient>
<linearGradient id="paint13_linear_72_2796" x1="1148.91" y1="1766.18" x2="1148.91" y2="1802.94" gradientUnits="userSpaceOnUse">
<stop stop-color="#F4B59C"/>
<stop offset="1" stop-color="#F1C4B2" stop-opacity="0"/>
</linearGradient>
<linearGradient id="paint14_linear_72_2796" x1="1169.62" y1="1778.77" x2="1173.3" y2="1802.46" gradientUnits="userSpaceOnUse">
<stop stop-color="#F1BCA9"/>
<stop offset="1" stop-color="#F1BCA9" stop-opacity="0"/>
</linearGradient>
<linearGradient id="paint15_linear_72_2796" x1="204.797" y1="756.748" x2="206.002" y2="764.32" gradientUnits="userSpaceOnUse">
<stop stop-color="#F1B09E"/>
<stop offset="1" stop-color="#FAE6CE"/>
</linearGradient>
<linearGradient id="paint16_linear_72_2796" x1="218.961" y1="757.091" x2="217.756" y2="764.663" gradientUnits="userSpaceOnUse">
<stop stop-color="#F1B09E"/>
<stop offset="1" stop-color="#FAE6CE"/>
</linearGradient>
<linearGradient id="paint17_linear_72_2796" x1="222.681" y1="771.03" x2="211.753" y2="777.914" gradientUnits="userSpaceOnUse">
<stop stop-color="#EFB7A4"/>
<stop offset="0.942708" stop-color="#F7E7D8"/>
</linearGradient>
<linearGradient id="paint18_linear_72_2796" x1="222.681" y1="771.03" x2="211.753" y2="777.914" gradientUnits="userSpaceOnUse">
<stop stop-color="#EFB7A4"/>
<stop offset="0.942708" stop-color="#F7E7D8"/>
</linearGradient>
<radialGradient id="paint19_radial_72_2796" cx="0" cy="0" r="1" gradientUnits="userSpaceOnUse" gradientTransform="translate(211.673 760.19) rotate(89.731) scale(18.3278 13.6775)">
<stop stop-color="#FADFCC"/>
<stop offset="1" stop-color="#F1BEAB"/>
</radialGradient>
<linearGradient id="paint20_linear_72_2796" x1="201.057" y1="771.077" x2="211.985" y2="777.961" gradientUnits="userSpaceOnUse">
<stop stop-color="#EFB7A4"/>
<stop offset="0.942708" stop-color="#F7E7D8"/>
</linearGradient>
<linearGradient id="paint21_linear_72_2796" x1="201.057" y1="771.077" x2="211.985" y2="777.961" gradientUnits="userSpaceOnUse">
<stop stop-color="#EFB7A4"/>
<stop offset="0.942708" stop-color="#F7E7D8"/>
</linearGradient>
<radialGradient id="paint22_radial_72_2796" cx="0" cy="0" r="1" gradientUnits="userSpaceOnUse" gradientTransform="translate(212.347 776.803) rotate(-139.07) scale(14.0239 19.2864)">
<stop stop-color="#FCE5D0"/>
<stop offset="1" stop-color="#EFB7A4"/>
</radialGradient>
<radialGradient id="paint23_radial_72_2796" cx="0" cy="0" r="1" gradientUnits="userSpaceOnUse" gradientTransform="translate(213.004 777.027) rotate(-51.8626) scale(14.0454 18.2825)">
<stop stop-color="#FCE5D0"/>
<stop offset="1" stop-color="#EFB7A4"/>
</radialGradient>
<linearGradient id="paint24_linear_72_2796" x1="215.373" y1="763.805" x2="215.373" y2="778.777" gradientUnits="userSpaceOnUse">
<stop stop-color="#F0BFAF"/>
<stop offset="1" stop-color="#F0BFAF" stop-opacity="0"/>
</linearGradient>
<linearGradient id="paint25_linear_72_2796" x1="206.931" y1="764.836" x2="206.931" y2="778.689" gradientUnits="userSpaceOnUse">
<stop stop-color="#F4B59C"/>
<stop offset="1" stop-color="#F1C4B2" stop-opacity="0"/>
</linearGradient>
<linearGradient id="paint26_linear_72_2796" x1="214.736" y1="769.582" x2="216.121" y2="778.51" gradientUnits="userSpaceOnUse">
<stop stop-color="#F1BCA9"/>
<stop offset="1" stop-color="#F1BCA9" stop-opacity="0"/>
</linearGradient>
<linearGradient id="paint27_linear_72_2796" x1="14.7318" y1="781.882" x2="17.3015" y2="798.035" gradientUnits="userSpaceOnUse">
<stop stop-color="#F1B09E"/>
<stop offset="1" stop-color="#FAE6CE"/>
</linearGradient>
<linearGradient id="paint28_linear_72_2796" x1="44.9518" y1="782.617" x2="42.3821" y2="798.769" gradientUnits="userSpaceOnUse">
<stop stop-color="#F1B09E"/>
<stop offset="1" stop-color="#FAE6CE"/>
</linearGradient>
<linearGradient id="paint29_linear_72_2796" x1="52.8832" y1="812.353" x2="29.5724" y2="827.037" gradientUnits="userSpaceOnUse">
<stop stop-color="#EFB7A4"/>
<stop offset="0.942708" stop-color="#F7E7D8"/>
</linearGradient>
<linearGradient id="paint30_linear_72_2796" x1="52.8832" y1="812.353" x2="29.5724" y2="827.037" gradientUnits="userSpaceOnUse">
<stop stop-color="#EFB7A4"/>
<stop offset="0.942708" stop-color="#F7E7D8"/>
</linearGradient>
<radialGradient id="paint31_radial_72_2796" cx="0" cy="0" r="1" gradientUnits="userSpaceOnUse" gradientTransform="translate(29.4107 789.224) rotate(89.731) scale(39.0965 29.1765)">
<stop stop-color="#FADFCC"/>
<stop offset="1" stop-color="#F1BEAB"/>
</radialGradient>
<linearGradient id="paint32_linear_72_2796" x1="6.75351" y1="812.447" x2="30.0643" y2="827.131" gradientUnits="userSpaceOnUse">
<stop stop-color="#EFB7A4"/>
<stop offset="0.942708" stop-color="#F7E7D8"/>
</linearGradient>
<linearGradient id="paint33_linear_72_2796" x1="6.75351" y1="812.447" x2="30.0643" y2="827.131" gradientUnits="userSpaceOnUse">
<stop stop-color="#EFB7A4"/>
<stop offset="0.942708" stop-color="#F7E7D8"/>
</linearGradient>
<radialGradient id="paint34_radial_72_2796" cx="0" cy="0" r="1" gradientUnits="userSpaceOnUse" gradientTransform="translate(30.838 824.656) rotate(-139.07) scale(29.9155 41.1414)">
<stop stop-color="#FCE5D0"/>
<stop offset="1" stop-color="#EFB7A4"/>
</radialGradient>
<radialGradient id="paint35_radial_72_2796" cx="0" cy="0" r="1" gradientUnits="userSpaceOnUse" gradientTransform="translate(32.2485 825.142) rotate(-51.8626) scale(29.9612 38.9998)">
<stop stop-color="#FCE5D0"/>
<stop offset="1" stop-color="#EFB7A4"/>
</radialGradient>
<linearGradient id="paint36_linear_72_2796" x1="37.2912" y1="796.934" x2="37.2912" y2="828.871" gradientUnits="userSpaceOnUse">
<stop stop-color="#F0BFAF"/>
<stop offset="1" stop-color="#F0BFAF" stop-opacity="0"/>
</linearGradient>
<linearGradient id="paint37_linear_72_2796" x1="19.2828" y1="799.133" x2="19.2828" y2="828.684" gradientUnits="userSpaceOnUse">
<stop stop-color="#F4B59C"/>
<stop offset="1" stop-color="#F1C4B2" stop-opacity="0"/>
</linearGradient>
<linearGradient id="paint38_linear_72_2796" x1="35.9337" y1="809.253" x2="38.8881" y2="828.298" gradientUnits="userSpaceOnUse">
<stop stop-color="#F1BCA9"/>
<stop offset="1" stop-color="#F1BCA9" stop-opacity="0"/>
</linearGradient>
<linearGradient id="paint39_linear_72_2796" x1="137.556" y1="1563.56" x2="139.941" y2="1578.55" gradientUnits="userSpaceOnUse">
<stop stop-color="#F1B09E"/>
<stop offset="1" stop-color="#FAE6CE"/>
</linearGradient>
<linearGradient id="paint40_linear_72_2796" x1="165.612" y1="1564.24" x2="163.227" y2="1579.24" gradientUnits="userSpaceOnUse">
<stop stop-color="#F1B09E"/>
<stop offset="1" stop-color="#FAE6CE"/>
</linearGradient>
<linearGradient id="paint41_linear_72_2796" x1="172.978" y1="1591.85" x2="151.337" y2="1605.48" gradientUnits="userSpaceOnUse">
<stop stop-color="#EFB7A4"/>
<stop offset="0.942708" stop-color="#F7E7D8"/>
</linearGradient>
<linearGradient id="paint42_linear_72_2796" x1="172.978" y1="1591.85" x2="151.337" y2="1605.48" gradientUnits="userSpaceOnUse">
<stop stop-color="#EFB7A4"/>
<stop offset="0.942708" stop-color="#F7E7D8"/>
</linearGradient>
<radialGradient id="paint43_radial_72_2796" cx="0" cy="0" r="1" gradientUnits="userSpaceOnUse" gradientTransform="translate(151.183 1570.37) rotate(89.731) scale(36.2972 27.0875)">
<stop stop-color="#FADFCC"/>
<stop offset="1" stop-color="#F1BEAB"/>
</radialGradient>
<linearGradient id="paint44_linear_72_2796" x1="130.151" y1="1591.93" x2="151.792" y2="1605.56" gradientUnits="userSpaceOnUse">
<stop stop-color="#EFB7A4"/>
<stop offset="0.942708" stop-color="#F7E7D8"/>
</linearGradient>
<linearGradient id="paint45_linear_72_2796" x1="130.151" y1="1591.93" x2="151.792" y2="1605.56" gradientUnits="userSpaceOnUse">
<stop stop-color="#EFB7A4"/>
<stop offset="0.942708" stop-color="#F7E7D8"/>
</linearGradient>
<radialGradient id="paint46_radial_72_2796" cx="0" cy="0" r="1" gradientUnits="userSpaceOnUse" gradientTransform="translate(152.514 1603.27) rotate(-139.07) scale(27.7736 38.1957)">
<stop stop-color="#FCE5D0"/>
<stop offset="1" stop-color="#EFB7A4"/>
</radialGradient>
<radialGradient id="paint47_radial_72_2796" cx="0" cy="0" r="1" gradientUnits="userSpaceOnUse" gradientTransform="translate(153.814 1603.72) rotate(-51.8626) scale(27.816 36.2075)">
<stop stop-color="#FCE5D0"/>
<stop offset="1" stop-color="#EFB7A4"/>
</radialGradient>
<linearGradient id="paint48_linear_72_2796" x1="158.499" y1="1577.53" x2="158.499" y2="1607.18" gradientUnits="userSpaceOnUse">
<stop stop-color="#F0BFAF"/>
<stop offset="1" stop-color="#F0BFAF" stop-opacity="0"/>
</linearGradient>
<linearGradient id="paint49_linear_72_2796" x1="141.781" y1="1579.57" x2="141.781" y2="1607.01" gradientUnits="userSpaceOnUse">
<stop stop-color="#F4B59C"/>
<stop offset="1" stop-color="#F1C4B2" stop-opacity="0"/>
</linearGradient>
<linearGradient id="paint50_linear_72_2796" x1="157.239" y1="1588.97" x2="159.982" y2="1606.65" gradientUnits="userSpaceOnUse">
<stop stop-color="#F1BCA9"/>
<stop offset="1" stop-color="#F1BCA9" stop-opacity="0"/>
</linearGradient>
<clipPath id="clip0_72_2796">
<rect width="1440" height="1897" fill="white"/>
</clipPath>
</defs>
</svg>
