<svg width="1455" height="1345" viewBox="0 0 1455 1345" fill="none" xmlns="http://www.w3.org/2000/svg">
<rect x="3.09375" y="254.594" width="1440" height="574" fill="#244B11"/>
<path fill-rule="evenodd" clip-rule="evenodd" d="M1443.09 54.5587C1351.66 29.2234 1280.42 22.5938 1124.09 22.5938C1060.32 22.5938 999.967 39.1404 931.932 57.7939C778.445 99.8761 585.849 152.681 226.594 50.408C167.871 33.6907 91.4555 28.4862 3.09375 33.0759V306.594H1443.09V54.5587Z" fill="#9AC8A3"/>
<path fill-rule="evenodd" clip-rule="evenodd" d="M1443.09 96.118C1209.71 59.3379 905.151 50.2788 782.594 78.3209C404.77 164.77 201.662 107.321 66.1499 68.9906C43.3942 62.554 22.5446 56.6566 3.09375 52.0703V335.592H1443.09V96.118Z" fill="#84B462"/>
<path fill-rule="evenodd" clip-rule="evenodd" d="M1443.09 0C1145.81 4.87002 968.261 63.9806 875.594 96.6326C621.971 185.998 455.565 148.046 254.905 102.281L254.89 102.278C246.684 100.406 238.422 98.5219 230.094 96.6326C165.247 81.9213 86.9569 64.765 3.09375 47.8803V312.593H1443.09V0Z" fill="#336C18"/>
<path fill-rule="evenodd" clip-rule="evenodd" d="M1443.09 73.8789C1315.71 75.3133 1207.5 77.9499 1146.59 81.8021C959.643 93.6261 887.58 115.026 804.798 139.609C740.571 158.682 669.891 179.672 534.094 199.591C344.08 227.464 258.011 204.004 158.049 176.757C112.864 164.441 64.8399 151.351 3.09375 141.878V337.593H1443.09V73.8789Z" fill="#244B11"/>
<g filter="url(#filter0_i_2596_1204)">
<path fill-rule="evenodd" clip-rule="evenodd" d="M1443.65 128.594C1161.53 133.581 883.198 159.208 1245.59 215.166C1571.19 265.44 1355.76 305.841 1305.38 315.291L1305.38 315.291L1305.36 315.294C1302.29 315.87 1299.83 316.331 1298.15 316.672C1162.93 344.07 999.334 357.398 829.341 371.247C733.153 379.083 634.917 387.086 538.616 397.899C529.501 398.922 520.412 399.933 511.35 400.94L511.336 400.942L511.321 400.943L511.307 400.945C326.665 421.474 153.067 440.774 3.09766 542.477V884.672H1443.1V857.42C1300.99 769.884 1083.03 722.75 952.103 697.93C861.606 680.774 787.608 614.544 939.604 544.723C1020.97 507.344 1242.36 460.618 1443.65 421.462V191.76C1410.91 188.066 1379.66 185.015 1351.72 182.288C1287.98 176.066 1241.52 171.531 1234.09 164.894C1220.63 152.86 1333.03 144.457 1443.65 143.307V128.594Z" fill="url(#paint0_linear_2596_1204)"/>
</g>
<path fill-rule="evenodd" clip-rule="evenodd" d="M1443.1 122.332C1222.95 125.806 1000.07 141.772 1077.12 174.834C1039.61 146.341 1240.37 132.1 1443.1 128.516V122.332ZM1443.1 186.942C1406.36 182.673 1371.21 179.242 1340.16 176.211C1290.05 171.319 1250.62 167.47 1232.44 162.822C1232.43 163.475 1232.79 164.14 1233.54 164.816C1240.97 171.453 1287.43 175.989 1351.17 182.211C1379.1 184.938 1410.36 187.989 1443.1 191.682V186.942ZM1192.17 334.594H1180.68C1200.52 329.235 1231.17 321.824 1286.59 310.594C1288.28 310.253 1290.74 309.791 1293.82 309.214L1293.82 309.213C1329 302.615 1444.66 280.924 1400.39 251.317C1471.38 283.977 1342.35 308.176 1304.82 315.213L1304.82 315.214C1301.74 315.791 1299.28 316.253 1297.6 316.594C1264.09 323.385 1228.83 329.311 1192.17 334.594Z" fill="url(#paint1_linear_2596_1204)"/>
<path fill-rule="evenodd" clip-rule="evenodd" d="M930.647 667.477C1062.47 692.4 1300.5 737.402 1443.09 824.185V857.679C1300.99 769.926 1082.64 722.703 951.549 697.851C908.776 689.743 869.689 670.671 856.407 645.439C872.794 654.006 894.434 660.616 918.049 665.093C922.119 665.864 926.309 666.657 930.613 667.47L930.647 667.477ZM1420.89 267.781C1403.98 281.128 1352.64 289.981 1328.15 294.203L1328.15 294.203L1328.15 294.204L1328.14 294.205C1323.54 294.998 1319.89 295.628 1317.59 296.093C1184.09 323.145 1005.03 337.185 824.139 351.369C718.157 359.679 611.546 368.038 513.094 379.093C492.667 381.387 472.125 383.558 451.544 385.733L451.543 385.733C292.857 402.504 131.818 419.524 3.09375 494.912V542.025C152.937 440.648 326.336 421.369 510.753 400.866C519.829 399.857 528.933 398.845 538.061 397.82C634.362 387.006 732.597 379.004 828.786 371.168L828.787 371.167C998.779 357.319 1162.38 343.991 1297.59 316.593C1299.28 316.251 1301.74 315.789 1304.82 315.212C1335.72 309.418 1428.65 291.988 1420.89 267.781Z" fill="url(#paint2_linear_2596_1204)"/>
<path d="M64.2219 427.72C53.2553 441.655 61.5717 458.371 67.1008 464.987L73.3439 464.281C70.9862 457.265 73.1495 451.446 76.3146 446.898C79.4797 442.349 85.4413 437.199 90.0689 428.986C98.2176 413.71 102.167 403.138 103.123 399.761C94.7257 403.275 75.1885 413.786 64.2219 427.72Z" fill="#97C65F" stroke="#97C65F" stroke-width="0.159179"/>
<path d="M313.71 276.867C304.125 290.755 240.927 275.97 210.526 266.842C206.125 263.5 191.699 255.986 169.204 252.66C136.684 248.504 134.239 230.899 128.86 225.764C87.9775 189.772 46.9486 193 31.5444 199.112C48.6602 155.345 87.0484 147.031 118.59 141.897C150.132 136.762 183.63 160.48 192.677 163.658C199.915 166.201 207.592 166.348 210.526 166.103C244.514 175.395 244.758 175.884 276.3 198.134C307.842 220.385 317.622 254.616 325.202 264.641C331.266 272.661 321.371 274.177 315.666 273.933L313.71 276.867Z" fill="#9EBD78"/>
<path d="M55.7934 197.159C130.369 153.879 231.841 277.846 294.191 260.241C291.181 267.845 267.312 273.172 196.213 235.531C125.114 197.89 97.8336 201.946 85.4768 206.065L55.7934 197.159Z" fill="#83A658"/>
<path fill-rule="evenodd" clip-rule="evenodd" d="M3.09375 214.756V257.076C7.6235 257.498 12.4741 257.704 17.3823 257.912C39.1219 258.833 61.9931 259.803 63.1313 279.802C56.122 336.039 44.2061 458.979 52.6173 500.84L79.5008 488.77C69.6389 461.874 56.5784 377.411 80.247 279.802C86.5065 253.199 171.042 259.915 212.527 266.598C208.371 263.501 193.896 256.28 169.249 252.172C147.292 249.065 136.742 234.552 131.948 227.958C131.083 226.769 130.406 225.837 129.883 225.276C126.46 221.609 75.8458 182.731 38.1912 197.891C24.6217 203.354 12.7259 209.32 3.09375 214.756Z" fill="#698C3D"/>
<path fill-rule="evenodd" clip-rule="evenodd" d="M3.09375 214.927V257.348C7.57984 257.76 12.3767 257.963 17.23 258.169C38.9696 259.091 61.8407 260.06 62.9789 280.059C55.9696 336.297 44.0538 459.237 52.4649 501.097L61.9504 494.802C50.1577 443.804 61.877 286.934 73.594 262.145C75.7676 257.546 88.449 256.71 96.5378 256.177C107.343 255.466 109.953 255.294 68.3676 247.411C26.8293 239.538 12.8677 223.765 10.183 211.062C7.70284 212.37 5.33728 213.663 3.09375 214.927Z" fill="#4D7B37"/>
<path d="M58.2838 492.24C63.1703 473.643 68.4261 429.464 47.0369 411.138C45.3645 409.185 29.4274 432.645 27.6173 439.812C27.5561 439.857 27.5478 439.887 27.597 439.895C27.6035 439.867 27.6103 439.84 27.6173 439.812C28.69 439.04 46.0143 433.996 54.0122 469.737C54.4912 476.636 54.3948 495.83 52.9398 504.037L58.2838 492.24Z" fill="#4D7B37"/>
<path d="M34.6498 414.945C36.8575 412.196 45.2542 411.23 47.5156 411.648C35.9813 430.078 30.4319 448.932 25.4269 467.049C10.848 436.715 24.8014 416.66 27.6286 413.836L34.6498 414.945Z" fill="#678D3A"/>
<path d="M1178.87 338.594L1118.88 351.974C1091.21 361.525 1044.43 367.617 1070.98 397.027C1097.52 426.437 1254.45 433.022 1308.88 428.121L1391.1 404.036C1356.48 371.53 1282.94 384.946 1188.6 377.594C1113.13 371.712 1147.43 346.978 1178.87 338.594Z" fill="#78D2C1" fill-opacity="0.2"/>
<path d="M1004.79 402.701C993.39 417.42 1022.8 440.103 1138.03 440.103H1250.1C1210.36 454.36 1014.63 501.797 1004.79 466.594C991.098 417.594 953.098 419.094 959.098 387.094C961.4 374.819 1029.7 360.267 1052.34 353.014L1057.6 351.094C1042.05 362.943 983.598 384.094 1004.79 402.701Z" fill="#78D2C1" fill-opacity="0.1"/>
<path d="M1176.36 371.523C1181.36 370.7 1186.97 370.428 1192.1 370.76C1197.24 371.092 1201.53 372.003 1204.14 373.318C1206.76 374.633 1207.51 376.257 1206.26 377.874C1205.01 379.492 1201.83 380.988 1197.36 382.072C1192.88 383.156 1187.42 383.75 1182.04 383.739C1176.66 383.729 1171.73 383.114 1168.23 382.014C1164.72 380.915 1162.89 379.409 1163.07 377.789C1163.26 376.169 1165.45 374.551 1169.23 373.249L1184.96 377.181L1176.36 371.523Z" fill="#326A16" fill-opacity="0.8"/>
<path d="M1180.7 375.811L1170.75 374.132L1186.74 378.116L1177.91 372.367L1180.7 375.811Z" fill="#326A16" fill-opacity="0.8"/>
<path d="M1276.59 401.933C1265.49 403.057 1253.12 402.885 1241.87 401.451C1230.63 400.016 1221.32 397.422 1215.74 394.171C1210.17 390.92 1208.73 387.245 1211.71 383.86C1214.69 380.474 1221.88 377.62 1231.87 375.85C1241.86 374.081 1253.95 373.524 1265.79 374.286C1277.63 375.048 1288.37 377.076 1295.92 379.976C1303.48 382.875 1307.32 386.44 1306.69 389.977C1306.05 393.513 1301 396.771 1292.51 399.115L1258.47 388.31L1276.59 401.933Z" fill="#326A16"/>
<path d="M1267.65 391.904L1289.3 396.963L1254.68 386.006L1273.31 399.861L1267.65 391.904Z" fill="#326A16"/>
<path d="M1373 730.431C1372.3 736.542 1359.44 735.815 1353.11 734.688C1342.64 734.688 1341.61 735.444 1335.28 732.898C1328.96 730.351 1338.66 706.281 1353.86 708.747C1369.06 711.214 1373.87 722.792 1373 730.431Z" fill="#A5663D" stroke="#A5663D" stroke-width="0.323747"/>
<path d="M1363.09 739.463C1362.65 738.508 1362.46 736.387 1362.42 735.445C1358.53 734.013 1348.76 734.344 1344.35 734.689C1342.62 738.217 1340.18 745.941 1344.35 748.614C1349.57 751.956 1357.8 750.962 1361.58 748.614C1365.36 746.267 1363.65 740.657 1363.09 739.463Z" fill="#D1BC9F" stroke="#D1BC9F" stroke-width="0.323747"/>
<ellipse cx="4.05821" cy="8.96085" rx="4.05821" ry="8.96085" transform="matrix(-0.801468 -0.598037 -0.598037 0.801468 1350.32 712.449)" fill="#BC856D"/>
<path fill-rule="evenodd" clip-rule="evenodd" d="M1343.79 736.067C1349.07 736.19 1359.72 736.657 1360.01 737.542C1360.38 738.644 1361.11 747.431 1359.29 749.684C1360.16 749.376 1360.94 749.015 1361.58 748.614C1365.36 746.267 1363.65 740.657 1363.09 739.463C1362.65 738.508 1362.46 736.387 1362.42 735.445C1358.53 734.013 1348.76 734.344 1344.35 734.689C1344.16 735.076 1343.96 735.514 1343.77 735.991C1343.77 736.016 1343.78 736.042 1343.79 736.067Z" fill="#BFA27A"/>
<path fill-rule="evenodd" clip-rule="evenodd" d="M1365.91 734.759C1369.52 734.206 1372.36 732.841 1372.68 730.055C1373.44 723.474 1369.97 713.971 1359.28 709.887C1359.52 710.258 1360.01 710.742 1360.8 711.352C1364.59 714.279 1364.88 719.44 1363.92 724.257C1363.19 727.967 1363.67 732.273 1365.91 734.759Z" fill="#905A37"/>
<path d="M1430.63 745.958C1429.52 755.689 1409.05 754.531 1398.96 752.736C1382.29 752.736 1380.65 753.94 1370.57 749.885C1360.5 745.831 1375.96 707.503 1400.16 711.43C1424.36 715.358 1432.03 733.794 1430.63 745.958Z" fill="#C1A884" stroke="#D1BC9F" stroke-width="0.479631"/>
<path d="M1414.86 760.339C1414.15 758.819 1413.85 755.44 1413.78 753.941C1407.6 751.66 1392.03 752.188 1385.02 752.737C1382.25 758.354 1378.38 770.653 1385.02 774.91C1393.32 780.232 1406.43 778.648 1412.45 774.91C1418.47 771.172 1415.75 762.24 1414.86 760.339Z" fill="#E8D9C6" stroke="#E8D9C6" stroke-width="0.479631"/>
<ellipse cx="6.46196" cy="14.2685" rx="6.46196" ry="14.2685" transform="matrix(-0.801468 -0.598037 -0.598037 0.801468 1394.52 717.324)" fill="#E8D9C6"/>
<path fill-rule="evenodd" clip-rule="evenodd" d="M1395.33 710.682C1414.92 715.756 1430.53 746.264 1406.45 749.03C1397.04 750.11 1393.71 751.221 1394.15 752.222C1395.75 752.199 1397.53 752.182 1399.52 752.182C1409.61 753.977 1430.08 755.134 1431.19 745.403C1432.59 733.239 1424.92 714.804 1400.72 710.876C1398.87 710.575 1397.07 710.522 1395.33 710.682Z" fill="#A98C65"/>
<path fill-rule="evenodd" clip-rule="evenodd" d="M1384.3 754.522C1392.8 754.722 1409.92 755.48 1410.4 756.915C1410.99 758.704 1412.17 772.963 1409.25 776.618C1410.64 776.12 1411.88 775.535 1412.92 774.885C1419 771.076 1416.25 761.973 1415.35 760.036C1414.64 758.487 1414.33 755.043 1414.26 753.516C1408.02 751.191 1392.29 751.729 1385.2 752.289C1384.9 752.914 1384.58 753.621 1384.26 754.389C1384.28 754.433 1384.29 754.478 1384.3 754.522Z" fill="#D0B898"/>
<path d="M1123.2 302.246C1135.71 298.692 1144.34 310.523 1147.1 316.883L1144.78 321.327C1140.82 317.21 1136.31 316.883 1132.35 317.733C1128.39 318.582 1123.2 321.327 1116.38 322.045C1103.82 323.039 1095.62 322.459 1093.1 322.045C1097.92 316.927 1110.7 305.801 1123.2 302.246Z" fill="#5D8133" stroke="#678D3A" stroke-width="0.186695"/>
<path d="M1132.25 269.594C1127.37 294.693 1139.15 311.385 1145.65 316.594L1150.1 309.376C1149.1 303.109 1146.99 297.728 1146.04 295.842C1145.11 293.545 1142.6 288.345 1140.1 285.753C1137.6 283.161 1133.82 273.9 1132.25 269.594Z" fill="#80A157" stroke="#80A157" stroke-width="0.112712"/>
<path fill-rule="evenodd" clip-rule="evenodd" d="M3.10156 1344.59H1141.8C1068.74 1203.77 1025.84 1193.74 934.89 1172.48C890.174 1162.02 833.841 1148.86 756.597 1116.09C706.879 1095.01 693.597 1066.59 746.597 1031.59C766.704 1018.32 821.032 1001.27 882.318 982.045C982.575 950.592 1101.45 913.298 1119.59 877.092C1217 810.378 1040.4 763.531 941.343 737.252L941.342 737.251C920.633 731.758 903.313 727.163 892.594 723.474C722.056 664.781 798.398 654.687 844.407 648.604C849.069 647.987 853.42 647.412 857.171 646.831C841.033 618.472 857.568 582.074 939.051 544.643C971.065 529.937 1024.75 513.784 1090.36 497.215C1077.71 498.929 1064.38 500.712 1050.52 502.565C820.6 533.312 444.331 583.63 562.094 668.089C609.766 702.279 723.405 727.309 817.764 748.093C919.361 770.471 998.607 787.925 949.093 806.589C869.916 836.435 690.316 864.596 524.097 877.092C315.582 892.768 172.747 931.255 3.10156 1130.43V1344.59Z" fill="url(#paint3_linear_2596_1204)" fill-opacity="0.1"/>
<path d="M237.462 542.912C213.151 545.906 185.982 546.116 161.23 543.501C136.479 540.886 115.912 535.633 103.523 528.762C91.1338 521.891 87.8073 513.892 94.1892 506.319C100.571 498.746 116.206 492.139 138.058 487.781C159.909 483.424 186.418 481.626 212.436 482.738C238.455 483.849 262.126 487.791 278.852 493.797C295.579 499.803 304.168 507.445 302.951 515.238C301.734 523.032 290.799 530.421 272.267 535.971L197.042 513.869L237.462 542.912Z" fill="#2A5C12"/>
<path d="M224.404 525.628L272.17 535.705L195.651 513.298L237.222 542.826L224.404 525.628Z" fill="#2A5C12"/>
<path d="M86.5143 513.831C88.3137 525.564 86.8826 532.247 84.7095 543.313C75.0705 540.77 48.7869 529.236 52.4372 509.688C55.2639 494.551 54.6574 496.811 61.7623 485.71C67.9274 496.305 85.142 504.882 86.5143 513.831Z" fill="url(#paint4_linear_2596_1204)"/>
<path d="M73.8411 514.722C72.0418 526.455 73.4729 533.137 75.646 544.204C85.2849 541.661 111.569 530.126 107.918 510.579C105.092 495.442 105.698 497.702 98.5932 486.6C92.428 497.195 75.2135 505.773 73.8411 514.722Z" fill="url(#paint5_linear_2596_1204)"/>
<path d="M121.275 516.197C121.275 528.459 102.774 544.838 90.5114 544.838C78.2492 544.838 77.9805 547.553 77.9805 535.291C77.9805 523.029 86.8108 519.971 99.0729 519.971C121.275 514.114 118.931 501.987 121.275 516.197Z" fill="url(#paint6_linear_2596_1204)"/>
<path d="M121.275 516.197C121.275 528.459 102.774 544.838 90.5114 544.838C78.2492 544.838 77.9805 547.553 77.9805 535.291C77.9805 523.029 86.8108 519.971 99.0729 519.971C121.275 514.114 118.931 501.987 121.275 516.197Z" fill="url(#paint7_linear_2596_1204)"/>
<path d="M57.6769 518.553C57.6769 530.815 70.3324 524.547 79.8795 544.308C90.0926 519.219 102.082 530.815 102.082 518.553C102.082 506.29 89.2045 492.354 79.8795 484.805C69.8883 490.577 57.6769 506.29 57.6769 518.553Z" fill="url(#paint8_radial_2596_1204)"/>
<path d="M57.4405 516.552C56.1085 530.984 71.674 529.809 76.5586 538.533C70.8098 524.989 59.6846 531.256 59.6846 518.994C59.6846 506.732 67.2097 498.79 73.2044 489.465C64.3233 498.568 60.3269 503.897 57.4405 516.552Z" fill="#EEC1A9"/>
<path d="M39.0292 516.31C39.0292 528.572 57.5312 544.951 69.7933 544.951C82.0555 544.951 82.3242 547.666 82.3242 535.404C82.3242 523.142 73.4939 520.085 61.2318 520.085C39.0292 514.227 41.374 502.1 39.0292 516.31Z" fill="url(#paint9_linear_2596_1204)"/>
<path d="M39.0292 516.31C39.0292 528.572 57.5312 544.951 69.7933 544.951C82.0555 544.951 82.3242 547.666 82.3242 535.404C82.3242 523.142 73.4939 520.085 61.2318 520.085C39.0292 514.227 41.374 502.1 39.0292 516.31Z" fill="url(#paint10_linear_2596_1204)"/>
<path d="M54.5714 515.261C51.8719 525.509 66.4468 539.544 74.9846 541.793C83.5224 544.042 83.1118 546.36 85.8113 536.112C88.5108 525.864 79.3724 514.905 70.8346 512.656C49.1479 510.753 59.3323 503.815 54.5714 515.261Z" fill="url(#paint11_radial_2596_1204)"/>
<path d="M108.525 516.773C112.849 514.557 118.738 509.668 118.738 509.668C118.738 509.668 116.671 512.196 115.186 513.664C112.239 516.579 112.087 517.983 108.525 520.103C105.559 521.869 103.26 523.404 100.088 524.766C97.0106 526.087 94.8964 526.26 92.0952 528.096C88.288 530.591 86.4187 532.048 84.3243 536.089C83.1757 538.306 81.438 544.304 81.438 544.304C81.438 544.304 80.1497 536.61 80.9939 533.425C82.1716 528.982 84.1812 526.611 87.8767 523.878C91.8899 520.91 95.3897 521.788 100.088 520.103C103.422 518.907 105.373 518.389 108.525 516.773Z" fill="#EAB29F" fill-opacity="0.84"/>
<path d="M104.781 511.255C109.362 520.02 97.6931 536.5 89.7327 540.661C81.7723 544.822 82.6122 546.853 78.0309 538.088C73.4496 529.323 80.3593 517.004 88.3196 512.844C109.257 505.779 97.9495 501.893 104.781 511.255Z" fill="url(#paint12_radial_2596_1204)"/>
<path d="M101.927 506.147C101.953 506.272 101.987 506.43 102.039 506.623C102.275 507.495 102.862 509.029 104.576 511.381C105.68 513.504 105.813 516.11 105.246 518.914C104.679 521.724 103.413 524.711 101.752 527.564C98.4262 533.276 93.5478 538.396 89.6215 540.448C88.1781 541.203 87.0184 541.89 86.0699 542.452C85.7074 542.667 85.3756 542.864 85.0707 543.039C84.5162 543.357 84.0542 543.602 83.6507 543.764C83.2475 543.925 82.9181 543.997 82.6266 543.982C82.064 543.954 81.5489 543.598 80.8687 542.635C80.1902 541.674 79.3919 540.174 78.2436 537.977C75.9992 533.683 76.5589 528.495 78.6904 523.839C80.8186 519.191 84.4946 515.12 88.4143 513.065C98.4887 509.664 101.136 506.988 101.927 506.147Z" stroke="#C88181" stroke-opacity="0.02" stroke-width="0.480003"/>
<path d="M94.5364 510.562L101.863 506.344C101.863 506.344 97.7853 510.272 94.5364 511.672C93.2775 512.215 92.4552 512.218 91.2061 512.782C88.9925 513.783 87.8891 514.692 86.0995 516.335C83.3521 518.857 82.2955 520.811 80.5488 524.106C79.5303 526.027 78.7502 527.079 78.3286 529.212C77.7715 532.031 78.2093 533.776 78.9946 536.539C79.5362 538.445 80.2798 539.354 80.9929 541.202C81.5555 542.66 82.325 544.976 82.325 544.976C82.325 544.976 79.031 540.936 77.8845 537.871C76.8356 535.068 76.3702 533.311 76.5524 530.323C76.688 528.097 77.0657 526.845 77.8845 524.772C78.7694 522.531 79.5432 521.367 80.9929 519.443C83.134 516.601 84.6016 515.055 87.6536 513.227C90.126 511.745 94.5364 510.562 94.5364 510.562Z" fill="url(#paint13_linear_2596_1204)"/>
<path d="M55.6806 511.446C55.832 510.417 56.1247 509.004 56.1247 509.004C56.1247 509.004 56.2694 510.708 56.1247 512.112C55.9694 513.619 55.5239 514.622 55.2366 516.109C54.8731 517.989 55.2355 519.13 55.6806 520.993C56.4558 524.238 57.7389 525.827 59.6771 528.542C62.278 532.185 64.2807 533.891 67.892 536.535C71.8345 539.422 75.7819 538.625 78.9933 542.308C79.7684 543.197 80.7695 544.75 80.7695 544.75C80.7695 544.75 79.1677 543.633 78.1052 542.974C74.0507 540.457 70.9267 540.585 67.0039 537.867C62.9719 535.074 60.8423 533.068 58.1229 528.986C56.2524 526.178 54.9246 524.54 54.3485 521.215C53.9931 519.165 53.9054 517.92 54.3485 515.887C54.7291 514.14 55.4206 513.215 55.6806 511.446Z" fill="url(#paint14_linear_2596_1204)"/>
<path d="M87.6223 540.556C84.8055 543.166 79.4929 546.086 79.4929 546.086C79.4929 546.086 84.1589 542.332 86.7939 539.561C89.3741 536.848 90.6791 535.176 92.8277 532.11C95.0892 528.882 96.6129 527.133 97.9992 523.444C98.5722 521.919 99.1758 519.441 99.1758 519.441C99.1758 519.441 98.9818 522.278 98.5401 524.034C97.5288 528.053 95.7985 529.929 93.4707 533.358C91.4365 536.355 90.2794 538.095 87.6223 540.556Z" fill="url(#paint15_linear_2596_1204)"/>
<path d="M78.3261 647.812L4.78118 663.329L122.597 628.828L58.5905 674.292L78.3261 647.812Z" fill="#2B6011"/>
<path fill-rule="evenodd" clip-rule="evenodd" d="M3.09868 663.274C3.60685 663.43 4.11885 663.585 4.63468 663.74L120.458 629.709L58.2244 674.427C95.6557 679.036 137.488 679.359 175.597 675.333C213.707 671.307 245.373 663.219 264.449 652.639C283.524 642.06 288.645 629.745 278.819 618.085C268.993 606.425 244.92 596.252 211.276 589.543C177.631 582.833 136.816 580.066 96.7557 581.777C60.9712 583.306 28.0706 588.312 3.09868 595.954L3.09868 663.274Z" fill="#2B6011"/>
<path d="M258.941 472.88C256.398 463.059 246.499 467.689 243.198 471.187C229.571 483.206 225.062 499.391 234.057 501.318C237.612 502.08 263.85 491.839 258.941 472.88Z" fill="#9CCA77"/>
<path d="M219.413 502.42C219.413 505.038 226.689 507.16 235.663 507.16C243.719 507.16 248.428 506.274 251.083 502.236C251.697 501.303 251.898 500.046 251.192 499.179C249.104 496.614 243.389 497.681 235.663 497.681C226.689 497.681 219.413 499.803 219.413 502.42Z" fill="#9CCA77"/>
<path fill-rule="evenodd" clip-rule="evenodd" d="M251.986 466.988C263.658 475.487 251.413 489.644 236.852 497.594C238.24 497.63 242.038 497.592 245.394 497.313C253.355 492.752 261.933 484.435 258.941 472.88C257.753 468.293 254.961 466.858 251.986 466.988Z" fill="#88B465"/>
<path fill-rule="evenodd" clip-rule="evenodd" d="M226.414 498.521C239.782 500.882 246.221 499.94 248.695 497.789C249.779 498.043 250.625 498.473 251.197 499.177C251.903 500.043 251.702 501.3 251.089 502.234C248.433 506.271 243.724 507.158 235.669 507.158C226.694 507.158 219.418 505.036 219.418 502.418C219.418 500.803 222.186 499.377 226.414 498.521Z" fill="#88B465"/>
<path d="M133.692 472.88C136.235 463.059 146.134 467.689 149.435 471.187C163.061 483.206 167.57 499.391 158.575 501.318C155.021 502.08 128.783 491.839 133.692 472.88Z" fill="#9CCA77"/>
<path d="M173.216 502.42C173.216 505.038 165.94 507.16 156.965 507.16C148.91 507.16 144.201 506.274 141.545 502.236C140.932 501.303 140.731 500.046 141.437 499.179C143.525 496.614 149.239 497.681 156.965 497.681C165.94 497.681 173.216 499.803 173.216 502.42Z" fill="#9CCA77"/>
<path fill-rule="evenodd" clip-rule="evenodd" d="M140.651 466.989C128.979 475.487 141.224 489.644 155.785 497.594C154.396 497.63 150.595 497.592 147.239 497.313C139.278 492.751 130.7 484.435 133.692 472.88C134.88 468.291 137.674 466.857 140.651 466.989Z" fill="#88B465"/>
<path fill-rule="evenodd" clip-rule="evenodd" d="M166.033 498.555C152.794 500.874 146.405 499.93 143.943 497.789C142.857 498.043 142.011 498.474 141.437 499.177C140.732 500.044 140.932 501.301 141.546 502.234C144.201 506.272 148.91 507.158 156.966 507.158C165.941 507.158 172.184 505.036 172.184 502.419C172.184 500.825 169.869 499.415 166.033 498.555Z" fill="#88B465"/>
<path d="M196.814 508.681C221.349 508.681 258.042 500.048 236.046 443.848C234.555 440.039 231.042 431.999 227.741 424.466C228.164 423.45 228.299 422.28 228.333 421.165C228.333 414.247 222.725 408.639 215.807 408.639C212.76 408.3 209.741 409.965 208.613 410.839C206.722 412.447 203.28 416.256 200.995 415.41C196.662 414.259 192.531 414.93 191.008 415.41C188.723 416.256 185.281 412.447 183.39 410.839C182.629 410.021 180.157 408.435 176.365 408.639C169.447 408.639 163.839 414.247 163.839 421.165C163.873 422.253 164.008 422.942 164.516 424.127C161.808 431.745 158.845 440.463 156.391 445.71C134.554 500.725 172.28 508.681 196.814 508.681Z" fill="#9CCA77"/>
<path fill-rule="evenodd" clip-rule="evenodd" d="M221.614 495.309C231.037 495.083 244.839 480.768 224.661 425.313C226.636 419.952 226.743 409.231 211.711 409.231C211.706 409.224 211.701 409.216 211.696 409.208C212.928 408.767 214.364 408.478 215.807 408.639C222.725 408.639 228.333 414.247 228.333 421.165C228.299 422.28 228.164 423.45 227.741 424.466C231.042 431.999 234.555 440.039 236.046 443.848C255.37 493.222 229.397 505.882 206.166 508.229C205.757 504.448 205.983 500.793 206.464 498.017L221.614 495.309Z" fill="#88B465"/>
<path fill-rule="evenodd" clip-rule="evenodd" d="M170.601 495.309C161.178 495.083 147.376 480.768 167.554 425.313C165.579 419.952 165.472 409.231 180.503 409.231C180.508 409.224 180.513 409.217 180.518 409.209C179.285 408.767 177.848 408.478 176.404 408.639C169.486 408.639 163.878 414.247 163.878 421.165C163.912 422.28 164.047 423.45 164.47 424.466C161.169 431.999 157.656 440.039 156.165 443.848C136.84 493.224 162.817 505.884 186.049 508.23C186.458 504.449 186.232 500.794 185.751 498.017L170.601 495.309Z" fill="#88B465"/>
<ellipse cx="177.138" cy="421.672" rx="3.77065" ry="4.57048" fill="#5F4B3D"/>
<ellipse cx="213.853" cy="421.672" rx="3.77065" ry="4.57048" fill="#5F4B3D"/>
<path d="M200.939 430.222C196.645 432.852 193.341 431.27 191.783 430.222C190.353 429.268 191.118 428.099 191.783 428.566C193.341 429.615 196.391 431.546 200.939 428.566C201.604 428.099 202.4 429.326 200.939 430.222Z" fill="#5F4B3D"/>
<ellipse cx="227.2" cy="434.284" rx="8.1253" ry="7.19427" fill="#DBB396"/>
<ellipse cx="165.754" cy="434.284" rx="8.1253" ry="7.19427" fill="#DBB396"/>
<path fill-rule="evenodd" clip-rule="evenodd" d="M220.503 504.985C212.914 508.016 204.313 508.896 196.887 508.896C189.049 508.896 179.789 507.992 171.752 504.684C162.222 489.833 155.642 463.974 174.07 449.447C186.765 439.439 206.259 439.408 218.902 449.481C237.267 464.112 230.166 490.196 220.503 504.985Z" fill="#CFE8A4"/>
<path fill-rule="evenodd" clip-rule="evenodd" d="M196.893 508.893C204.319 508.893 212.92 508.012 220.509 504.981C222.556 501.848 224.488 498.208 226.088 494.277C200.366 504.885 181.541 500.11 166.445 494.318C167.964 498.108 169.798 501.627 171.757 504.68C179.795 507.989 189.055 508.893 196.893 508.893Z" fill="#B7CF8C" fill-opacity="0.5"/>
<path d="M210.542 511.559C216.467 502.673 219.751 494.632 224.406 483.375L200.943 493.475C200.159 498.785 198.549 509.86 198.553 511.395C198.56 513.583 202.187 514.203 203.276 511.955C203.663 511.223 204.103 511.112 204.453 511.218C204.834 511.333 204.915 511.797 205.081 512.159C205.79 513.704 209.298 513.426 210.542 511.559Z" fill="#CFE8A4"/>
<path fill-rule="evenodd" clip-rule="evenodd" d="M222.753 485.802C218.613 498.152 214.434 508.723 210.778 511.955C209.099 513.44 205.748 513.703 205.074 512.16C205.041 512.084 205.011 512.003 204.98 511.922C204.867 511.617 204.752 511.309 204.451 511.218C204.102 511.112 203.661 511.223 203.275 511.955C202.185 514.203 198.558 513.583 198.552 511.395C198.551 511.183 198.581 510.79 198.636 510.256C200.693 511.108 201.499 510.006 202.315 508.89C202.831 508.184 203.351 507.473 204.194 507.246C205.178 506.98 205.16 507.444 205.136 508.037C205.106 508.77 205.069 509.7 206.902 509.7C209.933 509.7 219.328 491.841 222.883 485.07L222.753 485.802Z" fill="#9CCA77"/>
<path d="M182.4 511.559C176.475 502.673 173.19 494.632 168.535 483.375L191.998 493.475C192.783 498.785 194.393 509.86 194.388 511.395C194.382 513.583 190.754 514.203 189.665 511.955C189.279 511.223 188.838 511.112 188.489 511.218C188.108 511.333 188.026 511.797 187.86 512.159C187.152 513.704 183.644 513.426 182.4 511.559Z" fill="#CFE8A4"/>
<path fill-rule="evenodd" clip-rule="evenodd" d="M170.193 485.826C174.33 498.166 178.506 508.725 182.159 511.955C183.839 513.44 187.189 513.703 187.864 512.16C187.897 512.084 187.927 512.003 187.957 511.922C188.071 511.617 188.185 511.309 188.486 511.218C188.836 511.112 189.276 511.223 189.663 511.955C190.752 514.203 194.379 513.583 194.386 511.395C194.386 511.184 194.356 510.791 194.302 510.258C192.248 511.107 191.442 510.005 190.627 508.89C190.111 508.184 189.591 507.473 188.748 507.246C187.763 506.98 187.782 507.444 187.806 508.037C187.835 508.77 187.873 509.7 186.039 509.7C183.008 509.7 173.613 491.841 170.059 485.07L170.193 485.826Z" fill="#9CCA77"/>
<path fill-rule="evenodd" clip-rule="evenodd" d="M1421.08 347.189L1158.54 302.939L1158.54 302.944C1150.4 301.766 1142.13 310.917 1140 323.539C1137.87 336.16 1142.68 347.517 1150.77 349.074L1150.76 349.14L1413.81 393.478L1413.83 393.404C1421.91 394.412 1430.07 385.305 1432.18 372.783C1434.29 360.26 1429.57 348.983 1421.6 347.286L1421.6 347.277L1421.28 347.224C1421.25 347.218 1421.22 347.212 1421.18 347.206C1421.15 347.2 1421.11 347.195 1421.08 347.189Z" fill="#5B4739"/>
<path fill-rule="evenodd" clip-rule="evenodd" d="M1139.91 324.092L1432.08 373.338C1432.11 373.155 1432.14 372.971 1432.17 372.787C1434.29 360.264 1429.56 348.987 1421.6 347.29L1421.6 347.281L1421.28 347.228C1421.25 347.222 1421.21 347.216 1421.18 347.21C1421.14 347.204 1421.11 347.199 1421.08 347.193L1158.54 302.943L1158.54 302.947C1150.39 301.769 1142.12 310.921 1140 323.543C1139.96 323.726 1139.93 323.909 1139.91 324.092Z" fill="#695546"/>
<ellipse cx="13.4174" cy="20.9604" rx="13.4174" ry="20.9604" transform="matrix(-0.986091 -0.166205 -0.166205 0.986091 1431.77 351.648)" fill="#876A55"/>
<path d="M1183.03 298.603C1183.62 303.215 1185.48 306.537 1186.33 307.622L1171.17 305.067C1175.8 305.848 1175.31 300.122 1174.49 297.162C1177.09 295.721 1182.45 293.99 1183.03 298.603Z" fill="#695546"/>
<path d="M1247.71 288.866C1242.75 292.302 1250.01 307.358 1254.25 314.456L1259.59 293.343C1256.69 291.093 1250.25 287.049 1247.71 288.866Z" fill="#EBDF6F" stroke="#EBDF6F" stroke-width="0.420245" stroke-linecap="round"/>
<path d="M1330.5 315.599C1334.4 311.447 1320.71 295.637 1314.77 289.202L1309.67 308.853C1313.05 310.662 1328.51 317.783 1330.5 315.599Z" fill="#EBDF6F" stroke="#EBDF6F" stroke-width="0.420245" stroke-linecap="round"/>
<path d="M1285.54 267.957C1264.07 271.504 1264.07 286.585 1259.26 295.812L1253.5 307.202L1253.5 316.308C1252.19 319.447 1248.95 326.564 1251.23 329.075C1261.24 337.657 1282.07 336.401 1292.45 336.401C1301.98 336.401 1305.52 334.846 1313.09 333.087C1317.29 331.116 1326.01 318.32 1323.19 307.202C1321.5 300.563 1320.04 297.747 1313.09 285.014C1311.21 281.558 1305.21 268.293 1285.54 267.957Z" fill="#EBDF6F" stroke="#EBDF6F" stroke-width="0.420245"/>
<path d="M1288.97 296.298C1286.43 298.771 1283.21 298.992 1280.06 296.476C1279.02 295.647 1279.79 294.237 1281.18 294.226L1287.73 294.171C1289.04 294.16 1289.86 295.433 1288.97 296.298Z" fill="#D39724"/>
<path d="M1246.23 290.073C1245.09 295.726 1252.11 310.354 1254.25 313.358L1255.8 307.63C1253.03 303.261 1246.18 290.344 1246.23 290.073Z" fill="#F3ECA8" stroke="#FDFCE1" stroke-width="0.0744645" stroke-linecap="round"/>
<path d="M1289.39 292.88C1286.34 290.174 1282.7 290.154 1279.44 293.354C1278.51 294.272 1279.4 295.62 1280.78 295.539L1288.31 295.099C1289.61 295.023 1290.33 293.707 1289.39 292.88Z" fill="#E3AE47" stroke="#E3AE47" stroke-width="0.420245" stroke-linecap="round"/>
<path d="M1279.35 289.53C1278.39 288.97 1276.01 288.222 1274.15 289.707" stroke="#5B4739" stroke-width="1.45973" stroke-linecap="round"/>
<path d="M1295.51 288.964C1294.55 288.404 1292.17 287.655 1290.31 289.14" stroke="#5B4739" stroke-width="1.45973" stroke-linecap="round"/>
<ellipse cx="4.70866" cy="4.16913" rx="4.70866" ry="4.16913" transform="matrix(-0.999425 0.033909 0.033909 0.999425 1307.17 289.754)" fill="#EDA58D"/>
<path fill-rule="evenodd" clip-rule="evenodd" d="M1307.61 335.334C1307.36 334.201 1307.11 333.051 1306.86 331.892C1303.91 318.294 1300.73 303.58 1282.99 304.616C1267.21 305.538 1265 323.319 1265.06 334.696C1274.72 337.013 1285.9 336.747 1292.24 335.992C1295.86 336.493 1301.76 336.089 1307.61 335.334Z" fill="#F1EFB5"/>
<path fill-rule="evenodd" clip-rule="evenodd" d="M1289.1 268.651C1307.67 271.289 1314.76 287.64 1312.54 306.479C1312.16 309.723 1313.36 308.114 1315.91 304.695C1317.45 302.642 1319.47 299.936 1321.93 297.235C1320.12 295.074 1318.62 293.676 1317.79 292.898C1317.48 292.607 1317.26 292.402 1317.15 292.277C1316.82 291.891 1316.35 290.909 1315.71 289.554C1312.69 283.191 1305.75 268.582 1290.47 268.582C1290.01 268.599 1289.55 268.622 1289.1 268.651Z" fill="#D9BA3F"/>
<path fill-rule="evenodd" clip-rule="evenodd" d="M1251.01 328.486C1251.13 328.827 1251.29 329.129 1251.51 329.384C1259.84 337.067 1276.23 336.865 1286.5 336.739C1287.7 336.724 1288.82 336.71 1289.83 336.71C1298.69 336.71 1305.39 335.329 1312.42 333.57C1315.5 332.019 1324.02 322.477 1322.33 313.993C1320.36 313.886 1318.42 313.538 1317.2 312.127C1316.97 311.868 1316.99 312.221 1317.01 312.998C1317.2 318.249 1318.07 342.855 1251.01 328.486Z" fill="#BE9C20" fill-opacity="0.4"/>
<path d="M1251.34 320.917C1246.97 320.878 1253.99 331.03 1258.05 336.111C1265.29 342.656 1269.18 324.596 1269.35 322.454C1269.52 320.312 1266.98 319.366 1265.39 318.909C1263.79 318.452 1262.44 322.029 1260.71 320.201C1258.98 318.372 1258.44 317.908 1256.79 318.166C1255.14 318.423 1256.81 320.966 1251.34 320.917Z" fill="#E3AE47"/>
<path fill-rule="evenodd" clip-rule="evenodd" d="M1256.69 334.359C1252.64 329.009 1247.43 320.882 1251.34 320.917C1254.92 320.949 1255.44 319.871 1255.84 319.05C1256.05 318.616 1256.22 318.254 1256.79 318.166C1258.44 317.908 1258.98 318.372 1260.71 320.201C1261.71 321.251 1262.57 320.518 1263.44 319.79C1264.07 319.251 1264.71 318.715 1265.39 318.909C1266.82 319.318 1269 320.117 1269.32 321.814C1268.51 321.265 1267.49 320.92 1266.7 320.694C1266.02 320.5 1265.39 321.036 1264.75 321.575C1263.89 322.303 1263.02 323.036 1262.03 321.986C1260.3 320.157 1259.76 319.694 1258.11 319.951C1257.54 320.04 1257.36 320.401 1257.15 320.835C1256.76 321.656 1256.24 322.734 1252.66 322.702C1249.16 322.671 1252.96 329.16 1256.69 334.359Z" fill="#D39724"/>
<path d="M1313.31 322.596C1317.69 322.557 1310.66 332.71 1306.61 337.791C1299.37 344.335 1295.48 326.276 1295.31 324.133C1295.13 321.991 1297.67 321.046 1299.27 320.589C1300.87 320.132 1302.21 323.709 1303.95 321.88C1305.68 320.052 1306.21 319.588 1307.87 319.845C1309.52 320.102 1307.84 322.645 1313.31 322.596Z" fill="#E3AE47"/>
<path fill-rule="evenodd" clip-rule="evenodd" d="M1308.04 335.94C1312.08 330.589 1317.2 322.565 1313.31 322.6C1309.73 322.632 1309.21 321.554 1308.82 320.733C1308.61 320.3 1308.44 319.938 1307.87 319.849C1306.21 319.592 1305.68 320.055 1303.95 321.884C1302.95 322.935 1302.08 322.201 1301.22 321.473C1300.58 320.934 1299.95 320.398 1299.27 320.593C1297.84 321.002 1295.66 321.802 1295.34 323.501C1296.15 322.95 1297.17 322.604 1297.96 322.378C1298.64 322.184 1299.27 322.72 1299.91 323.259C1300.77 323.986 1301.64 324.72 1302.63 323.669C1304.36 321.841 1304.9 321.377 1306.55 321.634C1307.12 321.723 1307.3 322.085 1307.51 322.518C1307.9 323.339 1308.42 324.418 1312 324.385C1315.48 324.354 1311.75 330.759 1308.04 335.94Z" fill="#D39724"/>
<path fill-rule="evenodd" clip-rule="evenodd" d="M1260.6 294.65L1263.08 298.212C1262.76 292.065 1264.54 280.743 1272.48 273.969C1263.1 279.29 1260.6 287.958 1260.6 294.65Z" fill="#F3ECA8"/>
<ellipse cx="4.70866" cy="4.16913" rx="4.70866" ry="4.16913" transform="matrix(-0.999425 0.033909 0.033909 0.999425 1270.5 290.594)" fill="#EDA58D"/>
<path fill-rule="evenodd" clip-rule="evenodd" d="M1319.54 294.395C1325.88 301.838 1333.54 312.173 1330.5 315.412C1330.18 315.76 1329.52 315.872 1328.62 315.807C1324.18 301.399 1316.15 299.476 1312.63 300.349L1319.54 294.395Z" fill="#D9BA3F"/>
<defs>
<filter id="filter0_i_2596_1204" x="3.09766" y="128.594" width="1440.55" height="761.078" filterUnits="userSpaceOnUse" color-interpolation-filters="sRGB">
<feFlood flood-opacity="0" result="BackgroundImageFix"/>
<feBlend mode="normal" in="SourceGraphic" in2="BackgroundImageFix" result="shape"/>
<feColorMatrix in="SourceAlpha" type="matrix" values="0 0 0 0 0 0 0 0 0 0 0 0 0 0 0 0 0 0 127 0" result="hardAlpha"/>
<feOffset dy="5"/>
<feGaussianBlur stdDeviation="2.5"/>
<feComposite in2="hardAlpha" operator="arithmetic" k2="-1" k3="1"/>
<feColorMatrix type="matrix" values="0 0 0 0 0.0125 0 0 0 0 0.304084 0 0 0 0 0.4 0 0 0 0.4 0"/>
<feBlend mode="normal" in2="shape" result="effect1_innerShadow_2596_1204"/>
</filter>
<linearGradient id="paint0_linear_2596_1204" x1="633.276" y1="127.672" x2="641.149" y2="1492.67" gradientUnits="userSpaceOnUse">
<stop stop-color="#19A5AE"/>
<stop offset="1" stop-color="#034444"/>
</linearGradient>
<linearGradient id="paint1_linear_2596_1204" x1="1252.69" y1="1137.15" x2="200.502" y2="429.534" gradientUnits="userSpaceOnUse">
<stop stop-color="#6A5445"/>
<stop offset="0.520833" stop-color="#B59B79"/>
<stop offset="1" stop-color="#6A5445"/>
</linearGradient>
<linearGradient id="paint2_linear_2596_1204" x1="1354.59" y1="832.594" x2="116.092" y2="388.595" gradientUnits="userSpaceOnUse">
<stop stop-color="#6A5445"/>
<stop offset="0.520833" stop-color="#B59B79"/>
<stop offset="1" stop-color="#6A5445"/>
</linearGradient>
<linearGradient id="paint3_linear_2596_1204" x1="719.755" y1="659.479" x2="717.209" y2="1231.09" gradientUnits="userSpaceOnUse">
<stop stop-color="#78D2C1"/>
<stop offset="1" stop-color="#78D2C1" stop-opacity="0"/>
</linearGradient>
<linearGradient id="paint4_linear_2596_1204" x1="61.901" y1="488.135" x2="65.0094" y2="507.673" gradientUnits="userSpaceOnUse">
<stop stop-color="#F1B09E"/>
<stop offset="1" stop-color="#FAE6CE"/>
</linearGradient>
<linearGradient id="paint5_linear_2596_1204" x1="98.4544" y1="489.026" x2="95.3461" y2="508.564" gradientUnits="userSpaceOnUse">
<stop stop-color="#F1B09E"/>
<stop offset="1" stop-color="#FAE6CE"/>
</linearGradient>
<linearGradient id="paint6_linear_2596_1204" x1="108.051" y1="524.993" x2="79.8541" y2="542.755" gradientUnits="userSpaceOnUse">
<stop stop-color="#EFB7A4"/>
<stop offset="0.942708" stop-color="#F7E7D8"/>
</linearGradient>
<linearGradient id="paint7_linear_2596_1204" x1="108.051" y1="524.993" x2="79.8541" y2="542.755" gradientUnits="userSpaceOnUse">
<stop stop-color="#EFB7A4"/>
<stop offset="0.942708" stop-color="#F7E7D8"/>
</linearGradient>
<radialGradient id="paint8_radial_2596_1204" cx="0" cy="0" r="1" gradientUnits="userSpaceOnUse" gradientTransform="translate(79.6574 497.016) rotate(89.731) scale(47.292 35.2925)">
<stop stop-color="#FADFCC"/>
<stop offset="1" stop-color="#F1BEAB"/>
</radialGradient>
<linearGradient id="paint9_linear_2596_1204" x1="52.2533" y1="525.107" x2="80.4506" y2="542.869" gradientUnits="userSpaceOnUse">
<stop stop-color="#EFB7A4"/>
<stop offset="0.942708" stop-color="#F7E7D8"/>
</linearGradient>
<linearGradient id="paint10_linear_2596_1204" x1="52.2533" y1="525.107" x2="80.4506" y2="542.869" gradientUnits="userSpaceOnUse">
<stop stop-color="#EFB7A4"/>
<stop offset="0.942708" stop-color="#F7E7D8"/>
</linearGradient>
<radialGradient id="paint11_radial_2596_1204" cx="0" cy="0" r="1" gradientUnits="userSpaceOnUse" gradientTransform="translate(81.3822 539.876) rotate(-139.07) scale(36.1864 49.7655)">
<stop stop-color="#FCE5D0"/>
<stop offset="1" stop-color="#EFB7A4"/>
</radialGradient>
<radialGradient id="paint12_radial_2596_1204" cx="0" cy="0" r="1" gradientUnits="userSpaceOnUse" gradientTransform="translate(83.0892 540.465) rotate(-51.8626) scale(36.2418 47.175)">
<stop stop-color="#FCE5D0"/>
<stop offset="1" stop-color="#EFB7A4"/>
</radialGradient>
<linearGradient id="paint13_linear_2596_1204" x1="89.1885" y1="506.344" x2="89.1885" y2="544.976" gradientUnits="userSpaceOnUse">
<stop stop-color="#F0BFAF"/>
<stop offset="1" stop-color="#F0BFAF" stop-opacity="0"/>
</linearGradient>
<linearGradient id="paint14_linear_2596_1204" x1="67.4088" y1="509.004" x2="67.4088" y2="544.75" gradientUnits="userSpaceOnUse">
<stop stop-color="#F4B59C"/>
<stop offset="1" stop-color="#F1C4B2" stop-opacity="0"/>
</linearGradient>
<linearGradient id="paint15_linear_2596_1204" x1="87.5475" y1="521.245" x2="91.1211" y2="544.282" gradientUnits="userSpaceOnUse">
<stop stop-color="#F1BCA9"/>
<stop offset="1" stop-color="#F1BCA9" stop-opacity="0"/>
</linearGradient>
</defs>
</svg>
