<svg xmlns="http://www.w3.org/2000/svg" width="1440" height="1897" fill="none"><g clip-path="url(#a)"><path fill="#B2CDAF" d="M0 0h1440v1897H0z"/><path fill="url(#b)" d="M1122 243c-524.01-118.735 43.5-177.67 624.68-168.003v63c-179.2-33.389-544.91-21.277-617.18 10.502-84.24 37.043 901.5 103 684 474.347-282 270.5-1278 397.154-1496 457.654s-335.983 246.37-110.5 357c160 78.5 1455.54 235.04 1520.5 678l-191.23 771.85h-3865.38c11.96-262.8 593.8-1200.24 765.36-1458.06 347.37-522.051 797.935-563.282 1286.889-627.515C224.904 735.859 748.856 688.729 1153.23 622.846 1318 596.001 1703.32 374.722 1122 243Z"/><path fill="url(#c)" d="M1767 138.498c-153.04-5.733-313.18-10.684-451.39-12.026-107.26 9.714-197.16 24.139-227.61 37.528-84.24 37.043 943 77.496 725.5 448.844-282 270.5-1278 397.156-1496 457.656s-334.983 248.37-109.5 359c160 78.5 1505 223 1519.5 676l-191.23 771.84h-3865.38c11.96-262.79 593.8-1200.23 765.36-1458.05 347.37-522.053 797.935-563.285 1286.889-627.518C224.904 725.856 771.629 678.726 1176 612.844c164.77-26.846 543-254.347-38.32-386.069-373.697-84.675-165.666-103.64 177.93-100.303 147.31-13.343 327.37-17.799 431.07 1.523V82.273l20.32 56.225Z"/><g filter="url(#d)"><path fill="#57C0AC" d="M1119.79 252.902c-524.015-118.736 27.82-171.447 609-161.78v63c-179.2-33.389-544.91-21.278-617.18 10.501-84.25 37.043 901.5 103 684 474.348-282 270.5-1278.001 397.149-1496.001 457.649s-335.983 246.38-110.5 357c160 78.5 1455.541 235.05 1520.501 678l-191.23 771.85H-2347c11.96-262.8 593.8-1200.23 765.36-1458.05 347.37-522.056 797.934-563.288 1286.888-627.521C207.014 751.983 730.966 704.854 1135.34 638.971c164.77-26.846 565.77-254.347-15.55-386.069Z"/></g><path fill="url(#e)" fill-opacity=".3" d="m390.779 1022.33 9.339-1.49-153.794 55.37-93.5 48.5-56 44.5-39.5 47.5-15.5 31.5-6 34v31l9.5 26c-49.5-5-304.206 27.48 80.838 182.52 116.737 47 649.147 160.71 427.407 338.39-55.04 128.51-725.428 198.26-825.219 275.36-99.791 77.1-93.612 157.31 0 203.76 475.01 235.7 1538.82-153.11 1621.56 941.51l-3101.06-107.94c51.77-1121.25 67.06-594.28 148.85-714.62 343.62-505.55 799.231-632.15 1017.684-642.13 228.17-10.42 668.08-45.5 817.159-111.24 179.813-79.3-542.261-148.69-728.662-305.1-236.254-198.23 471.298-311.1 886.898-377.39Z"/><path fill="#78D2C1" fill-opacity=".5" d="m988.316 668.293-113.032 26.908c-52.149 19.206-140.273 31.457-90.265 90.601 50.009 59.143 345.691 72.386 448.251 62.529l154.91-48.434c-65.23-65.37-203.8-38.39-381.54-53.175-142.202-11.829-77.574-61.568-18.324-78.429Z"/><path fill="#78D2C1" fill-opacity=".3" d="M649.396 800.11c-21.467 29.041 33.896 73.793 250.818 73.793h210.966c-74.8 28.128-443.262 121.719-461.785 52.265-25.781-96.674-97.315-93.715-86.02-156.849 4.333-24.218 132.898-52.927 175.533-67.237l9.891-3.789C719.53 721.67 609.495 763.4 649.396 800.11Z"/><path fill="#78D2C1" fill-opacity=".4" d="M1144.04 707.028c-79.81 6.857-58.11-29.667-33.83-43.709-8.39 1.381-54.34 10.148-79.18 19.155-58.496 21.211 20.03 44.971 46.7 45.42 33.14.559 65.05-9.692 82.13-12.565 21.94-5.965 125.64 5.706 184.49 12.565-14.02-2.968-115.99-18.107-128.55-20.866-21.09-4.637-26.29-6.331-71.76 0Z"/><path fill="#4D7B37" stroke="#5A7639" stroke-width=".313" d="M1378.34 0c-19.52 95.737 27.64 159.406 53.66 179.273l17.83-27.533c-4-23.903-12.46-44.427-16.27-51.623-3.7-8.76-13.76-28.596-23.77-38.482-10.02-9.887-25.14-45.21-31.45-61.635Z"/><path fill="#97C65F" stroke="#97C65F" stroke-width=".274" d="m1429.33 131.94 7.17 3.677-.49 4.698-8.25-5.472c-19.7-11.538-41.62 4.956-50.12 14.646l-60.62 58.555c2.65-20.601 9.89-64.37 17.61-74.632 7.71-10.262 23.37-16.824 30.23-18.821 22.14-6.849 52.2 8.712 64.47 17.349Z"/><path stroke="#61934A" stroke-linecap="round" stroke-width="3" d="M1397.27 135.638c16.11 42.093 29.39 95.753 2.19 179.004-29.17 89.295-15.8 141.463 7.19 178.873"/><path fill="#61934A" d="m1390.11 452.121-1.63-3.933c4.3-.113 8.52 2.444 10.1 3.736-6.85-.696-8.68-.373-8.47.197l.01.025c-.01-.008-.01-.017-.01-.025Z"/><path stroke="#61934A" stroke-linecap="round" stroke-width="1.154" d="m1388.48 448.188 1.64 3.958c-.27-.586 1.51-.929 8.46-.222-1.58-1.292-5.8-3.849-10.1-3.736Z"/><path fill="#61934A" d="m1388.92 355.865 1.19-4.087c3.43 2.611 5.11 7.25 5.53 9.243-4.9-4.832-6.53-5.73-6.72-5.156l-.01.027c0-.01 0-.018.01-.027Z"/><path stroke="#61934A" stroke-linecap="round" stroke-width="1.154" d="m1390.11 351.778-1.2 4.114c.15-.627 1.76.225 6.73 5.129-.42-1.993-2.1-6.632-5.53-9.243Z"/><path fill="#61934A" d="M1405.81 493.395c3.15-1.144 10.02-.992 12.28 8.763 2.18 9.419 4.41 12.023 5.35 12.194l.1.009a.658.658 0 0 1-.1-.009c-10-.977-27.39-6.512-17.63-20.957Z"/><path stroke="#61934A" stroke-width=".338" d="M1405.81 493.395c3.15-1.144 10.02-.992 12.28 8.763 2.25 9.755 4.57 12.2 5.45 12.203-9.99-.951-27.52-6.475-17.73-20.966Z"/><path fill="#7AB55E" d="M1417.61 511.233c-4.02-.895-12.03-4.986-11.87-14.193-1.4 4.037-.97 12.529 11.87 14.193Z"/><path fill="#61934A" d="M1397.43 450.256c-1.39 2.514-2.17 8.345 5.78 11.561 7.68 3.106 9.59 5.346 9.61 6.164 0 .028 0 .055-.01.082.01-.025.01-.052.01-.082.51-8.601-1.85-24.062-15.39-17.725Z"/><path stroke="#61934A" stroke-width=".29" d="M1397.43 450.256c-1.39 2.514-2.17 8.345 5.78 11.561 7.96 3.217 9.72 5.505 9.6 6.246.53-8.584-1.8-24.164-15.38-17.807Z"/><path fill="#7AB55E" d="M1410.96 462.634c-.22-3.527-2.61-10.855-10.43-11.951 3.6-.641 10.74.852 10.43 11.951Z"/><path fill="#61934A" d="m1383.07 410.151-.81-4.18c-3.65 2.284-5.76 6.747-6.35 8.694 5.32-4.36 7.02-5.104 7.16-4.514l.01.027c0-.01 0-.019-.01-.027Z"/><path stroke="#61934A" stroke-linecap="round" stroke-width="1.154" d="m1382.26 405.971.82 4.207c-.1-.639-1.78.062-7.17 4.487.59-1.947 2.7-6.41 6.35-8.694Z"/><path fill="#61934A" d="M1375.94 412.644c2.54 1.328 6.42 5.753 1.57 12.828-4.69 6.832-5.04 9.752-4.61 10.445.02.022.03.044.05.066-.02-.019-.03-.041-.05-.066-5.17-6.889-11.74-21.082 3.04-23.273Z"/><path stroke="#61934A" stroke-width=".29" d="M1375.94 412.644c2.54 1.328 6.42 5.753 1.57 12.828-4.86 7.076-5.06 9.955-4.56 10.511-5.18-6.864-11.84-21.141 2.99-23.339Z"/><path fill="#7AB55E" d="M1371.5 430.433c-1.77-3.061-3.82-10.492 2.09-15.722-3.36 1.456-8.48 6.64-2.09 15.722Z"/><path fill="#61934A" d="m1403.97 298.738.36-3.669c-4.2 1.522-7.48 5.089-8.6 6.682 6.39-3.099 8.27-3.534 8.24-3.013v.024-.024Z"/><path stroke="#61934A" stroke-linecap="round" stroke-width="1.154" d="m1404.33 295.069-.36 3.693c.08-.557-1.75-.156-8.24 2.989 1.12-1.593 4.4-5.16 8.6-6.682Z"/><path fill="#61934A" d="M1397.34 299.336c2 2.058 4.3 7.473-2.53 12.676-6.59 5.023-7.83 7.687-7.64 8.481l.03.078a1.079 1.079 0 0 1-.03-.078c-2.76-8.162-4.56-23.698 10.17-21.157Z"/><path stroke="#61934A" stroke-width=".29" d="M1397.34 299.336c2 2.058 4.3 7.473-2.53 12.676-6.82 5.202-7.92 7.874-7.61 8.559-2.78-8.14-4.64-23.784 10.14-21.235Z"/><path fill="#7AB55E" d="M1387.56 314.846c-.72-3.46-.35-11.16 6.9-14.28-3.65.333-10.13 3.656-6.9 14.28Z"/><path fill="#61934A" d="m1413.81 240.703.5-3.453c-4.36 1.582-7.86 5.047-9.07 6.583 6.68-3.143 8.61-3.619 8.57-3.13v.023-.023Z"/><path stroke="#61934A" stroke-linecap="round" stroke-width="1.154" d="m1414.31 237.25-.5 3.476c.1-.526-1.79-.082-8.57 3.107 1.21-1.536 4.71-5.001 9.07-6.583Z"/><path fill="#61934A" d="M1407.11 241.583c1.95 2.108 4.11 7.581-2.84 12.608-6.72 4.853-8.03 7.484-7.86 8.283-2.55-8.229-3.96-23.806 10.7-20.891Z"/><path stroke="#61934A" stroke-width=".29" d="M1407.11 241.583c1.95 2.108 4.11 7.581-2.84 12.608-6.96 5.026-8.12 7.669-7.83 8.362-2.57-8.209-4.03-23.894 10.67-20.97Z"/><path fill="#7AB55E" d="M1396.94 256.837c-.63-3.477-.06-11.165 7.26-14.099-3.65.24-10.22 3.396-7.26 14.099Z"/><path fill="#61934A" d="m1403.38 155.067-1.4-3.269c-3 4.036-4.24 9.161-4.49 11.218 4.21-6.796 5.67-8.395 5.89-7.949l.01.021c0-.007 0-.014-.01-.021Z"/><path stroke="#61934A" stroke-linecap="round" stroke-width="1.154" d="m1401.98 151.798 1.41 3.29c-.19-.514-1.62 1.031-5.9 7.928.25-2.057 1.49-7.182 4.49-11.218Z"/><path fill="#61934A" d="M1398.47 159.613c2.66 1.079 6.94 5.113 2.78 12.62-4.01 7.249-4.08 10.19-3.58 10.838l.06.06a.566.566 0 0 1-.06-.06c-5.81-6.362-13.71-19.862.8-23.458Z"/><path stroke="#61934A" stroke-width=".29" d="M1398.47 159.613c2.66 1.079 6.94 5.113 2.78 12.62-4.15 7.508-4.08 10.394-3.52 10.898-5.82-6.336-13.82-19.911.74-23.518Z"/><path fill="#7AB55E" d="M1395.75 177.745c-2.05-2.879-4.81-10.079.58-15.851-3.21 1.771-7.81 7.421-.58 15.851Z"/><path fill="#61934A" d="M1394.45 357.333c-2.24 1.795-5.19 6.887.95 12.89 5.92 5.795 6.83 8.592 6.53 9.356l-.03.074c.01-.022.02-.047.03-.074 3.75-7.76 7.45-22.956-7.48-22.246Z"/><path stroke="#61934A" stroke-width=".29" d="M1394.45 357.333c-2.24 1.795-5.19 6.887.95 12.89 6.13 6.002 6.89 8.788 6.5 9.43 3.76-7.737 7.53-23.032-7.45-22.32Z"/><path fill="#7AB55E" d="M1402.25 373.923c1.14-3.345 1.71-11.032-5.1-15.02 3.58.779 9.61 4.874 5.1 15.02Z"/><path fill="#61934A" d="m1411.35 270.072.56-3.633c3.95 3.011 6.45 7.636 7.2 9.572-5.83-5.335-7.65-6.446-7.76-5.939v.023-.023Z"/><path stroke="#61934A" stroke-linecap="round" stroke-width="1.154" d="m1411.91 266.439-.56 3.656c.06-.562 1.85.502 7.76 5.916-.75-1.936-3.25-6.561-7.2-9.572Z"/><path fill="#61934A" d="M1417.19 273.532c-2.24 1.797-5.19 6.889.95 12.89 5.92 5.794 6.83 8.591 6.54 9.355 3.74-7.761 7.44-22.958-7.49-22.245Z"/><path stroke="#61934A" stroke-width=".29" d="M1417.19 273.532c-2.24 1.797-5.19 6.889.95 12.89 6.13 6.001 6.89 8.786 6.5 9.429 3.76-7.738 7.53-23.035-7.45-22.319Z"/><path fill="#7AB55E" d="M1424.99 290.124c1.14-3.346 1.72-11.033-5.1-15.019 3.58.778 9.61 4.871 5.1 15.019Z"/><path fill="#61934A" d="m1412.37 187.177.61-3.941c4.69 4.655 7.7 10.681 8.61 13.112-6.93-7.878-9.1-9.711-9.22-9.171v.026-.026Z"/><path stroke="#61934A" stroke-linecap="round" stroke-width="1.154" d="m1412.98 183.236-.61 3.967c.06-.619 2.18 1.15 9.22 9.145-.91-2.431-3.92-8.457-8.61-13.112Z"/><path fill="#61934A" d="M1421.33 194.397c-2.21 1.837-5.06 6.983 1.19 12.87 6.03 5.684 6.99 8.463 6.71 9.233 3.6-7.829 7.01-23.092-7.9-22.103Z"/><path stroke="#61934A" stroke-width=".29" d="M1421.33 194.397c-2.21 1.837-5.06 6.983 1.19 12.87 6.24 5.887 7.05 8.658 6.67 9.307 3.62-7.806 7.1-23.169-7.86-22.177Z"/><path fill="#7AB55E" d="M1429.44 210.84c1.08-3.366 1.51-11.062-5.38-14.922 3.6.712 9.7 4.693 5.38 14.922Z"/><path fill="#61934A" d="M1397.42 134.329c-1.03 2.514-1.12 8.074 6.71 10.209 7.55 2.06 9.59 3.951 9.7 4.717v.078-.078c-.48-8.13-4.42-22.378-16.41-14.926Z"/><path stroke="#61934A" stroke-width=".274" d="M1397.42 134.329c-1.03 2.514-1.12 8.074 6.71 10.209 7.82 2.134 9.73 4.086 9.7 4.795-.45-8.117-4.38-22.48-16.41-15.004Z"/><path fill="#7AB55E" d="M1411.49 144.441c-.6-3.286-3.66-9.897-11.12-10.057 3.31-1.002 10.17-.394 11.12 10.057Z"/><path fill="#5D8133" stroke="#678D3A" stroke-width=".187" d="M1091.28 625.93c12.51-3.555 21.14 8.277 23.9 14.637l-2.33 4.443c-3.95-4.116-8.46-4.443-12.42-3.594-3.96.85-9.15 3.594-15.97 4.313-12.57.993-20.76.414-23.28 0 4.82-5.119 17.6-16.244 30.1-19.799Z"/><path fill="#80A157" stroke="#80A157" stroke-width=".113" d="M1102.33 593.277c-4.88 25.1 6.9 41.792 13.39 47l4.46-7.218c-1-6.266-3.12-11.647-4.07-13.534-.92-2.297-3.43-7.497-5.93-10.089-2.5-2.592-6.28-11.852-7.85-16.159Z"/><path fill="#5B4739" fill-rule="evenodd" d="m1419.71 663.687-284.16-47.896-.09-.016-.09-.014-.16-.027v.003c-8.83-1.28-17.8 8.642-20.1 22.326-2.31 13.684 2.91 25.996 11.67 27.682l-.01.074 285.17 48.065.02-.082c8.76 1.092 17.6-8.78 19.89-22.355 2.29-13.574-2.83-25.799-11.47-27.64v-.007l-.24-.041a7.714 7.714 0 0 0-.21-.038c-.07-.012-.15-.023-.22-.034Z" clip-rule="evenodd"/><path fill="#695546" fill-rule="evenodd" d="m1115 638.66 316.73 53.385c.04-.199.08-.398.11-.598 2.29-13.574-2.83-25.799-11.47-27.64v-.007l-.24-.041a7.714 7.714 0 0 0-.21-.038l-.21-.034-284.17-47.896-.09-.016-.09-.014-.16-.027v.003c-8.83-1.28-17.79 8.642-20.1 22.326-.03.199-.07.398-.1.597Z" clip-rule="evenodd"/><ellipse cx="14.545" cy="22.722" fill="#876A55" rx="14.545" ry="22.722" transform="scale(-1 1) rotate(-9.567 3278.668 8886.69)"/><path fill="#695546" d="M1161.76 611.032c.63 5 2.65 8.602 3.58 9.778l-16.44-2.77c5.02.846 4.49-5.361 3.6-8.569 2.82-1.563 8.63-3.439 9.26 1.561Z"/><path fill="#ECE285" stroke="#ECE285" stroke-linecap="round" stroke-width=".42" d="M1231.87 600.481c-5.37 3.724 2.5 20.045 7.1 27.74l5.79-22.888c-3.15-2.438-10.13-6.823-12.89-4.852ZM1321.62 629.462c4.23-4.501-10.61-21.639-17.05-28.616l-5.53 21.303c3.67 1.962 20.43 9.681 22.58 7.313Z"/><path fill="#ECE285" stroke="#ECE285" stroke-width=".42" d="M1272.89 577.813c-23.27 3.845-23.27 20.195-28.5 30.196l-6.24 12.348v9.871c-1.42 3.404-4.93 11.118-2.45 13.841 10.84 9.303 33.42 7.942 44.68 7.942 10.33 0 14.16-1.687 22.37-3.593 4.55-2.137 14-16.009 10.94-28.061-1.82-7.197-3.41-10.25-10.94-24.053-2.04-3.746-8.54-18.126-29.86-18.491Z"/><path fill="#D6A443" d="M1276.77 608.373c-2.83 2.889-6.49 3.151-10.03.191-1.02-.85-.25-2.259 1.14-2.271l7.62-.063c1.32-.011 2.14 1.259 1.27 2.143Z"/><path fill="#F3ECA8" stroke="#FDFCE1" stroke-linecap="round" stroke-width=".074" d="M1230.27 601.789c-1.23 6.128 6.38 21.986 8.69 25.242l1.69-6.209c-3.01-4.736-10.44-18.739-10.38-19.033Z"/><path fill="#F2C162" stroke="#F2C162" stroke-linecap="round" stroke-width=".42" d="M1277.23 604.99c-3.4-3.141-7.5-3.175-11.14.543-.91.933-.02 2.28 1.36 2.2l8.68-.508c1.31-.076 2.02-1.391 1.1-2.235Z"/><path stroke="#5B4739" stroke-linecap="round" stroke-width="1.46" d="M1266.17 601.201c-1.04-.607-3.62-1.419-5.63.191M1283.69 600.588c-1.04-.608-3.62-1.419-5.63.191"/><ellipse cx="5.104" cy="4.52" fill="#EAAF9C" rx="5.104" ry="4.52" transform="scale(-1 1) rotate(1.943 -18379.949 -37917.961)"/><path fill="#F1EFB5" fill-rule="evenodd" d="M1296.79 650.855c-.27-1.227-.54-2.475-.81-3.731-3.2-14.74-6.65-30.691-25.88-29.568-17.1.999-19.5 20.274-19.44 32.607 10.47 2.513 22.6 2.224 29.47 1.405 3.92.543 10.32.105 16.66-.713Z" clip-rule="evenodd"/><path fill="#E8D072" fill-rule="evenodd" d="M1276.76 578.568c20.12 2.864 27.81 20.587 25.4 41.007-.42 3.516.89 1.773 3.65-1.934 1.67-2.225 3.86-5.158 6.52-8.085-1.95-2.343-3.58-3.858-4.48-4.702-.34-.316-.58-.537-.7-.673-.36-.419-.86-1.483-1.56-2.952-3.27-6.898-10.79-22.735-27.36-22.734-.49.017-.99.042-1.47.073Z" clip-rule="evenodd"/><path fill="#CCAD3D" fill-opacity=".4" fill-rule="evenodd" d="M1235.45 643.429c.13.369.31.696.54.972 9.03 8.329 26.8 8.11 37.93 7.973 1.31-.016 2.52-.031 3.61-.031 9.61 0 16.87-1.497 24.5-3.403 3.33-1.682 12.56-12.025 10.74-21.222-2.15-.116-4.24-.493-5.57-2.022-.24-.282-.23.101-.2.944.2 5.693 1.15 32.366-71.55 16.789Z" clip-rule="evenodd"/><path fill="#F2C162" d="M1235.82 635.223c-4.75-.042 2.87 10.964 7.27 16.472 7.84 7.095 12.06-12.483 12.25-14.805.18-2.323-2.57-3.347-4.3-3.843-1.73-.495-3.19 3.382-5.07 1.4-1.88-1.982-2.46-2.485-4.25-2.206-1.79.279.02 3.036-5.9 2.982Z"/><path fill="#D6A443" fill-rule="evenodd" d="M1241.61 649.793c-4.39-5.8-10.04-14.608-5.79-14.57 3.88.035 4.44-1.134 4.87-2.024.22-.47.41-.862 1.03-.958 1.79-.279 2.37.224 4.25 2.206 1.08 1.139 2.02.344 2.95-.445.7-.585 1.38-1.165 2.12-.955 1.55.443 3.91 1.31 4.26 3.149-.88-.596-1.98-.97-2.83-1.215-.74-.211-1.43.37-2.12.954-.93.789-1.88 1.584-2.95.446-1.88-1.983-2.46-2.485-4.25-2.206-.62.096-.81.488-1.04.958-.43.89-.99 2.059-4.87 2.024-3.79-.034.32 7 4.37 12.636Z" clip-rule="evenodd"/><path fill="#F2C162" d="M1302.99 637.044c4.74-.043-2.87 10.963-7.27 16.471-7.84 7.095-12.06-12.483-12.25-14.805-.18-2.322 2.57-3.347 4.3-3.842 1.73-.496 3.19 3.382 5.07 1.399 1.88-1.982 2.46-2.484 4.25-2.206 1.79.279-.02 3.036 5.9 2.983Z"/><path fill="#D6A443" fill-rule="evenodd" d="M1297.28 651.514c4.37-5.8 9.93-14.504 5.71-14.466-3.88.034-4.44-1.134-4.87-2.024-.22-.47-.41-.862-1.03-.959-1.79-.278-2.37.224-4.25 2.206-1.08 1.139-2.02.344-2.96-.445-.69-.584-1.37-1.165-2.11-.954-1.55.443-3.92 1.31-4.26 3.151.87-.598 1.98-.973 2.84-1.218.73-.211 1.42.37 2.11.955.94.789 1.88 1.584 2.96.445 1.87-1.983 2.45-2.485 4.25-2.206.62.096.8.488 1.03.958.43.89.99 2.059 4.87 2.024 3.77-.034-.27 6.915-4.29 12.533Z" clip-rule="evenodd"/><path fill="#F3ECA8" fill-rule="evenodd" d="m1245.87 606.753 2.69 3.86c-.35-6.666 1.58-18.944 10.19-26.287-10.18 5.77-12.88 15.171-12.88 22.427Z" clip-rule="evenodd"/><ellipse cx="5.104" cy="4.52" fill="#EAAF9C" rx="5.104" ry="4.52" transform="scale(-1 1) rotate(1.943 -18386.932 -36745.588)"/><path fill="#E8D072" fill-rule="evenodd" d="M1309.74 606.496c6.87 8.068 15.18 19.271 11.88 22.783-.34.377-1.06.498-2.03.428-4.81-15.618-13.52-17.703-17.33-16.758l7.48-6.453Z" clip-rule="evenodd"/><path fill="#55833F" d="M1280.59 726.64c-11.1 1.124-23.48.952-34.72-.482-11.25-1.435-20.56-4.029-26.13-7.28-5.58-3.251-7.01-6.926-4.03-10.311 2.98-3.386 10.16-6.24 20.16-8.01 9.99-1.769 22.08-2.326 33.92-1.564 11.83.762 22.57 2.79 30.13 5.69 7.56 2.899 11.39 6.464 10.76 10.001-.63 3.536-5.68 6.794-14.17 9.138l-34.04-10.805 18.12 13.623Z"/><path fill="#55833F" stroke="#55833F" stroke-width=".098" d="m1271.64 716.611 21.65 5.059-34.62-10.957 18.64 13.855-5.67-7.957Z"/><path fill="#4D7B37" d="M346.309 1036.7c-25.685 3.42-54.422 3.92-80.63 1.41-26.209-2.51-48.018-7.86-61.194-15-13.175-7.14-16.776-15.57-10.103-23.644 6.673-8.077 23.143-15.226 46.213-20.06 23.069-4.834 51.091-7.008 78.625-6.099 27.533.908 52.612 4.834 70.367 11.015 17.755 6.182 26.919 14.177 25.712 22.438-1.207 8.25-12.699 16.18-32.244 22.24l-79.799-22.61 43.053 30.31Z"/><path fill="#4D7B37" stroke="#55833F" stroke-width=".168" d="m324.812 1014.07 50.629 10.17-81.171-22.92 44.277 30.81-13.735-18.06Z"/><path fill="#5EA77C" d="M1186.44 692.204c5-.822 10.61-1.094 15.74-.763 5.13.332 9.43 1.244 12.04 2.559 2.62 1.314 3.37 2.938 2.12 4.556-1.26 1.618-4.43 3.114-8.91 4.197-4.47 1.084-9.93 1.679-15.31 1.668-5.39-.011-10.31-.626-13.81-1.725-3.51-1.1-5.35-2.606-5.16-4.225.19-1.62 2.38-3.238 6.16-4.54l15.72 3.931-8.59-5.658Z"/><path fill="#5EA77C" d="m1190.78 696.493-9.95-1.679 15.99 3.983-8.83-5.748 2.79 3.444Z"/><path fill="#55833F" d="M1136.58 1818.8c15.09 1.86 31.96 1.99 47.33.37 15.36-1.62 28.13-4.89 35.82-9.15 7.69-4.27 9.76-9.23 5.8-13.93-3.96-4.71-13.67-8.81-27.24-11.51-13.56-2.71-30.02-3.83-46.17-3.13-16.16.69-30.85 3.13-41.24 6.86-10.38 3.73-15.72 8.47-14.96 13.31.76 4.84 7.55 9.43 19.05 12.87l46.7-13.72-25.09 18.03Z"/><path fill="#55833F" stroke="#55833F" stroke-width=".282" d="m1149.07 1805.4-29.66 6.25 47.51-13.91-25.81 18.33 7.96-10.67Z"/><path fill="#5EA77C" d="M413.227 971.13c16.383 2.017 34.693 2.159 51.373.396 16.68-1.762 30.54-5.302 38.889-9.932 8.349-4.631 10.591-10.021 6.29-15.124-4.301-5.104-14.837-9.556-29.563-12.493-14.726-2.937-32.59-4.148-50.124-3.399-17.534.749-33.486 3.405-44.758 7.453-11.272 4.047-17.06 9.197-16.24 14.449.82 5.252 8.189 10.232 20.678 13.972l50.694-14.895-27.239 19.573Z"/><path fill="#5EA77C" d="m426.78 956.577-32.19 6.791 51.567-15.1-28.015 19.899 8.638-11.59Z"/><path fill="url(#f)" d="M1168.56 1771.14c1.85 12.07.38 18.94-1.86 30.32-9.91-2.61-36.95-14.48-33.19-34.58 2.9-15.57 2.28-13.25 9.59-24.67 6.34 10.9 24.05 19.72 25.46 28.93Z"/><path fill="url(#g)" d="M1155.52 1772.05c-1.85 12.07-.38 18.94 1.86 30.33 9.91-2.62 36.95-14.48 33.2-34.59-2.91-15.57-2.29-13.25-9.6-24.66-6.34 10.89-24.04 19.72-25.46 28.92Z"/><path fill="url(#h)" d="M1204.32 1773.57c0 12.61-19.03 29.46-31.65 29.46-12.61 0-12.88 2.79-12.88-9.82s9.08-15.76 21.69-15.76c22.84-6.02 20.43-18.5 22.84-3.88Z"/><path fill="url(#i)" d="M1204.32 1773.57c0 12.61-19.03 29.46-31.65 29.46-12.61 0-12.88 2.79-12.88-9.82s9.08-15.76 21.69-15.76c22.84-6.02 20.43-18.5 22.84-3.88Z"/><path fill="url(#j)" d="M1138.9 1775.99c0 12.62 13.02 6.17 22.84 26.5 10.5-25.81 22.83-13.88 22.83-26.5 0-12.61-13.24-26.94-22.83-34.71-10.28 5.94-22.84 22.1-22.84 34.71Z"/><path fill="#EEC1A9" d="M1138.65 1773.94c-1.37 14.84 14.64 13.64 19.66 22.61-5.91-13.93-17.35-7.49-17.35-20.1 0-12.61 7.74-20.78 13.9-30.37-9.13 9.36-13.24 14.84-16.21 27.86Z"/><path fill="url(#k)" d="M1119.72 1773.69c0 12.61 19.03 29.46 31.64 29.46s12.89 2.79 12.89-9.82c0-12.62-9.08-15.76-21.7-15.76-22.83-6.02-20.42-18.5-22.83-3.88Z"/><path fill="url(#l)" d="M1119.72 1773.69c0 12.61 19.03 29.46 31.64 29.46s12.89 2.79 12.89-9.82c0-12.62-9.08-15.76-21.7-15.76-22.83-6.02-20.42-18.5-22.83-3.88Z"/><path fill="url(#m)" d="M1135.71 1772.61c-2.78 10.54 12.21 24.98 21 27.29 8.78 2.32 8.36 4.7 11.13-5.84 2.78-10.54-6.62-21.81-15.4-24.13-22.31-1.95-11.83-9.09-16.73 2.68Z"/><path fill="#EAB29F" fill-opacity=".84" d="M1191.2 1774.16c4.45-2.28 10.5-7.3 10.5-7.3s-2.12 2.6-3.65 4.11c-3.03 2.99-3.19 4.44-6.85 6.62-3.05 1.82-5.42 3.39-8.68 4.79-3.17 1.36-5.34 1.54-8.22 3.43-3.92 2.57-5.84 4.07-7.99 8.22-1.19 2.28-2.97 8.45-2.97 8.45s-1.33-7.91-.46-11.19c1.21-4.57 3.28-7.01 7.08-9.82 4.13-3.05 7.73-2.15 12.56-3.88 3.43-1.23 5.44-1.76 8.68-3.43Z"/><path fill="url(#n)" d="M1187.35 1768.49c4.71 9.01-7.3 25.97-15.48 30.25-8.19 4.28-7.33 6.36-12.04-2.65-4.71-9.02 2.4-21.69 10.58-25.97 21.54-7.26 9.91-11.26 16.94-1.63Z"/><path stroke="#C88181" stroke-opacity=".02" stroke-width=".188" d="M1187.27 1768.54c1.16 2.22 1.29 4.95.7 7.86-.58 2.91-1.89 6-3.61 8.94-3.43 5.89-8.46 11.18-12.54 13.31-1.48.78-2.66 1.48-3.64 2.06-.37.22-.72.42-1.03.6-.57.33-1.06.59-1.48.76-.43.17-.79.25-1.12.23-.65-.03-1.22-.45-1.93-1.45-.7-.99-1.53-2.55-2.71-4.8-2.33-4.48-1.74-9.87.46-14.68 2.2-4.81 6.01-9.03 10.08-11.16 10.55-3.56 13.16-6.34 13.89-7.13.02-.02.04-.03.05-.05l.1-.1.01-.01c.01.04.02.1.04.19 0 .01.01.03.01.05.03.13.06.3.12.52.24.88.84 2.45 2.6 4.86Z"/><path fill="url(#o)" d="m1176.81 1767.77 7.54-4.34s-4.2 4.04-7.54 5.48c-1.29.56-2.14.57-3.42 1.15-2.28 1.03-3.42 1.96-5.26 3.65-2.82 2.59-3.91 4.6-5.71 7.99-1.04 1.98-1.85 3.06-2.28 5.26-.57 2.9-.12 4.69.69 7.53.55 1.96 1.32 2.9 2.05 4.8.58 1.5 1.37 3.88 1.37 3.88s-3.39-4.16-4.57-7.31c-1.08-2.88-1.55-4.69-1.37-7.76.14-2.29.53-3.58 1.37-5.71.91-2.31 1.71-3.5 3.2-5.48 2.2-2.93 3.71-4.52 6.85-6.4 2.54-1.52 7.08-2.74 7.08-2.74Z"/><path fill="url(#p)" d="M1136.84 1768.69c.16-1.06.46-2.51.46-2.51s.15 1.75 0 3.19c-.16 1.55-.62 2.58-.91 4.11-.38 1.94-.01 3.11.45 5.03.8 3.34 2.12 4.97 4.11 7.76 2.68 3.75 4.74 5.5 8.45 8.22 4.06 2.97 8.12 2.15 11.42 5.94.8.92 1.83 2.51 1.83 2.51s-1.65-1.14-2.74-1.82c-4.17-2.59-7.39-2.46-11.42-5.26-4.15-2.87-6.34-4.93-9.14-9.13-1.92-2.89-3.29-4.57-3.88-7.99-.36-2.11-.45-3.39 0-5.48.39-1.8 1.1-2.75 1.37-4.57Z"/><path fill="url(#q)" d="M1169.7 1798.63c-2.9 2.68-8.36 5.69-8.36 5.69s4.8-3.86 7.51-6.71c2.65-2.8 3.99-4.52 6.2-7.67 2.33-3.32 3.9-5.12 5.32-8.91.59-1.57 1.21-4.12 1.21-4.12s-.2 2.92-.65 4.72c-1.04 4.14-2.82 6.07-5.22 9.59-2.09 3.09-3.28 4.88-6.01 7.41Z"/><path fill="url(#r)" d="M214.336 766.706c.697 4.547.143 7.137-.699 11.426-3.736-.986-13.922-5.456-12.507-13.031 1.095-5.867.86-4.991 3.613-9.293 2.39 4.106 9.061 7.43 9.593 10.898Z"/><path fill="url(#s)" d="M209.422 767.05c-.698 4.547-.143 7.137.699 11.426 3.736-.986 13.922-5.456 12.507-13.032-1.095-5.866-.86-4.99-3.614-9.292-2.389 4.106-9.06 7.43-9.592 10.898Z"/><path fill="url(#t)" d="M227.806 767.621c0 4.752-7.17 11.1-11.922 11.1-4.752 0-4.857 1.052-4.857-3.7 0-4.752 3.422-5.937 8.175-5.937 8.604-2.27 7.695-6.97 8.604-1.463Z"/><path fill="url(#u)" d="M227.806 767.621c0 4.752-7.17 11.1-11.922 11.1-4.752 0-4.857 1.052-4.857-3.7 0-4.752 3.422-5.937 8.175-5.937 8.604-2.27 7.695-6.97 8.604-1.463Z"/><path fill="url(#v)" d="M203.154 768.536c0 4.752 4.905 2.323 8.605 9.981 3.958-9.723 8.604-5.229 8.604-9.981s-4.99-10.153-8.604-13.079c-3.872 2.237-8.605 8.327-8.605 13.079Z"/><path fill="#EEC1A9" d="M203.067 767.759c-.516 5.593 5.517 5.138 7.41 8.519-2.228-5.249-6.54-2.82-6.54-7.572 0-4.752 2.916-7.83 5.24-11.444-3.442 3.528-4.991 5.593-6.11 10.497Z"/><path fill="url(#w)" d="M195.932 767.668c0 4.752 7.17 11.1 11.923 11.1 4.752 0 4.856 1.052 4.856-3.7 0-4.752-3.422-5.937-8.174-5.937-8.605-2.27-7.696-6.97-8.605-1.463Z"/><path fill="url(#x)" d="M195.932 767.668c0 4.752 7.17 11.1 11.923 11.1 4.752 0 4.856 1.052 4.856-3.7 0-4.752-3.422-5.937-8.174-5.937-8.605-2.27-7.696-6.97-8.605-1.463Z"/><path fill="url(#y)" d="M201.956 767.263c-1.046 3.972 4.603 9.411 7.911 10.283 3.309.871 3.15 1.77 4.196-2.202 1.046-3.972-2.495-8.218-5.804-9.09-8.404-.738-4.458-3.426-6.303 1.009Z"/><path fill="#EAB29F" fill-opacity=".84" d="M222.862 767.847c1.676-.859 3.958-2.753 3.958-2.753s-.801.98-1.376 1.549c-1.143 1.129-1.201 1.673-2.582 2.495-1.149.684-2.04 1.279-3.269 1.807-1.193.512-2.013.579-3.098 1.291-1.476.966-2.2 1.531-3.012 3.097-.445.859-1.118 3.184-1.118 3.184s-.5-2.982-.172-4.216c.456-1.722 1.235-2.641 2.667-3.7 1.555-1.151 2.912-.81 4.733-1.463 1.292-.464 2.048-.665 3.269-1.291Z"/><path fill="url(#z)" d="M221.41 765.707c1.776 3.396-2.746 9.783-5.831 11.396-3.085 1.612-2.76 2.4-4.535-.997-1.776-3.397.902-8.171 3.987-9.784 8.114-2.738 3.732-4.243 6.379-.615Z"/><path stroke="#C88181" stroke-opacity=".02" stroke-width=".403" d="M220.244 763.943c.096.353.33.956.994 1.87.409.792.462 1.771.246 2.841-.216 1.073-.701 2.22-1.341 3.318-1.283 2.204-3.161 4.17-4.658 4.952-.562.294-1.016.563-1.384.781-.139.083-.267.158-.383.225a4.54 4.54 0 0 1-.537.275.864.864 0 0 1-.351.077c-.165-.009-.339-.11-.598-.477-.258-.365-.563-.938-1.01-1.792-.849-1.625-.642-3.598.176-5.384.815-1.78 2.221-3.336 3.712-4.121 3.473-1.173 4.682-2.128 5.134-2.565Z"/><path fill="url(#A)" d="m217.446 765.44 2.839-1.635s-1.58 1.522-2.839 2.065c-.488.21-.807.211-1.291.43-.858.388-1.285.74-1.979 1.377-1.065.977-1.474 1.734-2.151 3.011-.395.745-.697 1.153-.861 1.979-.216 1.093-.046 1.769.259 2.84.209.738.498 1.091.774 1.807.218.565.516 1.463.516 1.463s-1.276-1.566-1.721-2.754c-.406-1.086-.587-1.767-.516-2.925.053-.863.199-1.348.516-2.152.343-.868.643-1.319 1.205-2.065.83-1.101 1.398-1.7 2.581-2.409.958-.574 2.668-1.032 2.668-1.032Z"/><path fill="url(#B)" d="M202.386 765.782c.059-.399.172-.946.172-.946s.056.66 0 1.205c-.06.583-.232.972-.344 1.548-.141.729 0 1.171.172 1.893.301 1.258.798 1.874 1.549 2.926 1.008 1.412 1.784 2.073 3.184 3.098 1.528 1.118 3.057.809 4.302 2.237.3.344.688.946.688.946s-.62-.433-1.032-.688c-1.571-.975-2.782-.926-4.302-1.979-1.563-1.083-2.388-1.86-3.442-3.442-.725-1.088-1.24-1.723-1.463-3.012-.138-.794-.172-1.277 0-2.065.148-.677.416-1.035.516-1.721Z"/><path fill="url(#C)" d="M214.765 777.066c-1.092 1.011-3.151 2.143-3.151 2.143s1.808-1.455 2.83-2.529c1-1.051 1.505-1.699 2.338-2.888.876-1.251 1.467-1.928 2.004-3.358.222-.591.456-1.551.456-1.551s-.075 1.099-.246 1.78c-.392 1.557-1.063 2.284-1.965 3.613-.788 1.161-1.237 1.836-2.266 2.79Z"/><path fill="#97C65F" stroke="#97C65F" stroke-width=".159" d="M35.307 754.513c-9.066 11.52-2.19 25.339 2.38 30.809l5.161-.584c-1.949-5.8-.16-10.611 2.456-14.371 2.617-3.76 7.545-8.018 11.37-14.808 6.737-12.628 10.003-21.368 10.793-24.16-6.942 2.905-23.094 11.594-32.16 23.114Z"/><path fill="#4D7B37" d="M96.269 815.075c19.233 2.369 40.728 2.534 60.31.466 19.582-2.069 35.853-6.225 45.655-11.661 9.801-5.436 12.433-11.764 7.384-17.756-5.049-5.991-17.418-11.218-34.706-14.665-17.288-3.448-38.26-4.87-58.845-3.991-20.584.88-39.311 3.998-52.544 8.75-13.234 4.751-20.029 10.797-19.066 16.963.963 6.166 9.614 12.012 24.275 16.403l59.514-17.487-31.978 22.978Z"/><path fill="#9FC482" d="M180.109 764.861c-2.102-8.118-10.286-4.291-13.014-1.399-11.266 9.936-14.993 23.316-7.557 24.91 2.938.629 24.63-7.837 20.571-23.511Z"/><path fill="#9FC482" d="M147.428 789.284c0 2.164 6.015 3.918 13.434 3.918 6.493 0 10.357-.697 12.58-3.825.647-.91.855-2.211.057-2.993-1.872-1.837-6.482-1.019-12.637-1.019-7.419 0-13.434 1.755-13.434 3.919Z"/><path fill="#8DB36F" fill-rule="evenodd" d="M174.357 759.991c9.647 7.026-.476 18.728-12.513 25.301 1.148.03 4.289-.002 7.064-.233 6.58-3.771 13.67-10.646 11.197-20.198-.981-3.791-3.289-4.977-5.748-4.87ZM153.206 786.061c11.066 1.955 16.392 1.174 18.435-.607.776.182 1.403.474 1.864.926.797.782.59 2.083-.057 2.993-2.224 3.128-6.087 3.825-12.58 3.825-7.42 0-13.434-1.754-13.434-3.918 0-1.334 2.283-2.512 5.772-3.219Z" clip-rule="evenodd"/><path fill="#9FC482" d="M76.563 764.861c2.102-8.118 10.285-4.291 13.014-1.399 11.266 9.936 14.993 23.316 7.557 24.91-2.939.629-24.63-7.837-20.571-23.511Z"/><path fill="#9FC482" d="M109.236 789.284c0 2.164-6.015 3.918-13.434 3.918-6.493 0-10.357-.697-12.58-3.825-.647-.91-.855-2.211-.057-2.993 1.872-1.837 6.482-1.019 12.637-1.019 7.419 0 13.434 1.755 13.434 3.919Z"/><path fill="#8DB36F" fill-rule="evenodd" d="M82.315 759.991c-9.647 7.026.476 18.729 12.513 25.301-1.149.03-4.293-.002-7.068-.233-6.581-3.771-13.67-10.646-11.197-20.198.982-3.793 3.291-4.978 5.752-4.87ZM103.309 786.088c-10.96 1.921-16.244 1.138-18.277-.635-.777.182-1.405.474-1.867.927-.797.782-.59 2.082.058 2.993 2.223 3.128 6.086 3.825 12.58 3.825 7.419 0 12.58-1.755 12.58-3.919 0-1.316-1.909-2.48-5.074-3.191Z" clip-rule="evenodd"/><path fill="#9FC482" d="M128.744 794.462c20.283 0 50.617-7.138 32.433-53.598-1.232-3.149-4.137-9.796-6.866-16.024.35-.839.461-1.807.49-2.729 0-5.719-4.636-10.355-10.356-10.355-2.519-.28-5.014 1.096-5.947 1.819-1.563 1.329-4.408 4.478-6.297 3.778-3.583-.951-6.998-.396-8.257 0-1.889.7-4.735-2.449-6.297-3.778-.63-.676-2.673-1.987-5.808-1.819-5.719 0-10.356 4.636-10.356 10.355.028.9.14 1.47.56 2.449-2.24 6.298-4.688 13.505-6.717 17.843-18.053 45.481 13.135 52.059 33.418 52.059Z"/><path fill="#8DB36F" fill-rule="evenodd" d="M149.244 783.406c7.79-.187 19.2-12.022 2.519-57.867 1.633-4.431 1.721-13.294-10.706-13.294l-.012-.019c1.018-.364 2.205-.603 3.397-.47 5.719 0 10.355 4.636 10.355 10.355-.029.922-.14 1.89-.49 2.729 2.729 6.228 5.634 12.875 6.866 16.024 15.975 40.816-5.496 51.283-24.7 53.224-.338-3.126-.152-6.148.246-8.443l12.525-2.239ZM107.076 783.406c-7.79-.187-19.2-12.022-2.519-57.867-1.632-4.431-1.721-13.294 10.706-13.294l.012-.018c-1.019-.365-2.207-.604-3.4-.471-5.719 0-10.356 4.636-10.356 10.355.029.922.14 1.89.49 2.729-2.729 6.228-5.633 12.875-6.866 16.024-15.976 40.819 5.499 51.284 24.705 53.224.338-3.126.151-6.148-.247-8.443l-12.525-2.239Z" clip-rule="evenodd"/><ellipse cx="112.48" cy="722.528" fill="#5F4B3D" rx="3.117" ry="3.778"/><ellipse cx="142.832" cy="722.528" fill="#5F4B3D" rx="3.117" ry="3.778"/><path fill="#5F4B3D" d="M132.153 729.6c-3.55 2.174-6.281.867-7.569 0-1.182-.788-.55-1.755 0-1.369 1.288.867 3.809 2.464 7.569 0 .55-.386 1.208.629 0 1.369Z"/><ellipse cx="153.866" cy="732.959" fill="#DBB396" rx="6.717" ry="5.948"/><ellipse cx="103.069" cy="732.959" fill="#DBB396" rx="6.717" ry="5.948"/><path fill="#DAEDB8" fill-rule="evenodd" d="M148.333 791.402c-6.274 2.507-13.386 3.235-19.526 3.235-6.481 0-14.136-.748-20.782-3.483-7.281-11.351-12.478-30.476-1.187-42.788 10.927-11.913 32.425-11.952 43.256.049 11.195 12.403 5.623 31.683-1.761 42.987Z" clip-rule="evenodd"/><path fill="#B7CF8C" fill-opacity=".5" fill-rule="evenodd" d="M128.799 794.637c6.14 0 13.252-.728 19.527-3.235a52.616 52.616 0 0 0 4.61-8.847c-21.264 8.771-36.827 4.826-49.307.038a51.376 51.376 0 0 0 4.388 8.561c6.646 2.735 14.301 3.483 20.782 3.483Z" clip-rule="evenodd"/><path fill="#DAEDB8" d="M140.093 796.843c4.898-7.347 7.613-13.994 11.462-23.3l-19.397 8.35c-.649 4.39-1.98 13.545-1.976 14.814.005 1.809 3.004 2.322 3.904.463.283-.534.6-.668.869-.632.394.053.472.551.673.895.683 1.171 3.462.914 4.465-.59Z"/><path fill="#9FC482" fill-rule="evenodd" d="M150.188 775.553c-3.422 10.208-6.876 18.945-9.898 21.617-1.353 1.196-4.017 1.434-4.668.265a3.039 3.039 0 0 1-.137-.293c-.12-.284-.239-.565-.53-.604-.269-.036-.586.098-.868.632-.901 1.859-3.899 1.346-3.905-.463 0-.175.025-.501.07-.944 1.7.704 2.367-.207 3.041-1.13.427-.583.857-1.172 1.554-1.359.814-.219.798.164.778.654-.024.606-.055 1.375 1.461 1.375 2.505 0 10.272-14.764 13.211-20.362l-.109.612Z" clip-rule="evenodd"/><path fill="#DAEDB8" d="M116.829 796.843c-4.898-7.347-7.613-13.994-11.462-23.3l19.397 8.35c.649 4.39 1.98 13.545 1.976 14.814-.005 1.809-3.004 2.322-3.905.463-.282-.534-.599-.668-.868-.632-.394.053-.472.551-.673.895-.683 1.171-3.463.914-4.465-.59Z"/><path fill="#9FC482" fill-rule="evenodd" d="M106.738 775.577c3.42 10.198 6.87 18.923 9.89 21.593 1.353 1.196 4.017 1.434 4.669.265.05-.091.093-.192.136-.293.12-.284.239-.565.53-.604.269-.036.586.098.868.632.901 1.859 3.899 1.346 3.905-.463 0-.175-.025-.5-.07-.943-1.698.702-2.363-.209-3.037-1.131-.427-.583-.857-1.172-1.554-1.359-.814-.219-.798.164-.779.654.025.606.056 1.375-1.46 1.375-2.505 0-10.272-14.764-13.211-20.362l.113.636Z" clip-rule="evenodd"/><path fill="#9EBD78" d="M172.504 664.544c-5.478 7.937-41.593-.512-58.966-5.729-2.515-1.909-10.759-6.204-23.614-8.104-18.584-2.375-19.98-12.436-23.055-15.37-23.362-20.568-46.809-18.724-55.612-15.23 9.781-25.012 31.718-29.762 49.744-32.697 18.024-2.934 37.167 10.62 42.337 12.436 4.136 1.453 8.524 1.537 10.2 1.397 19.423 5.31 19.562 5.589 37.587 18.305 18.025 12.715 23.614 32.277 27.946 38.006 3.465 4.583-2.189 5.449-5.45 5.309l-1.117 1.677Z"/><path fill="#83A658" d="M25.117 618.993c42.617-24.733 100.604 46.109 136.235 36.049-1.721 4.345-15.361 7.389-55.991-14.121-40.63-21.51-56.22-19.193-63.281-16.839l-16.963-5.089Z"/><path fill="#698C3D" d="M39.087 666.219c-13.526 55.779-6.062 104.046-.427 119.416l-15.362 6.898c-4.807-23.922 2.002-94.177 6.008-126.314-.978-17.187-30.042-9.781-42.757-14.672-10.172-3.912-7.778-10.666-5.31-13.553 4.1-3.307 16.6-11.654 33.815-18.584 21.518-8.663 50.441 13.554 52.398 15.649 1.956 2.096 7.685 13.275 22.496 15.371 14.084 2.347 22.356 6.474 24.732 8.243-23.708-3.819-72.016-7.657-75.593 7.546Z"/><path fill="#4D7B37" fill-rule="evenodd" d="M-.949 626.938c1.534 7.259 9.512 16.273 33.25 20.773 23.765 4.504 22.274 4.603 16.099 5.009-4.623.305-11.87.782-13.112 3.41-6.695 14.166-13.392 103.808-6.654 132.953l-5.422 3.599c-4.807-23.922 2.002-94.177 6.008-126.314-.65-11.429-13.72-11.983-26.144-12.51-6.258-.265-12.353-.524-16.613-2.162-10.172-3.912-7.778-10.666-5.31-13.554 2.692-2.171 9.006-6.515 17.898-11.204Z" clip-rule="evenodd"/><path fill="#4D7B37" d="M26.535 787.62c2.793-10.628 5.796-35.874-6.427-46.346-.956-1.116-10.063 12.29-11.098 16.386-.035.025-.04.042-.011.047l.011-.047c.613-.442 10.513-3.324 15.084 17.101.274 3.942.219 14.911-.613 19.6l3.054-6.741Z"/><path fill="#678D3A" d="M13.034 743.45c1.262-1.571 6.06-2.123 7.353-1.884-6.592 10.532-9.763 21.306-12.623 31.66-8.331-17.335-.358-28.796 1.258-30.409l4.012.633Z"/><path fill="url(#D)" d="M35.08 803.125c1.487 9.7.304 15.225-1.492 24.373-7.969-2.102-29.698-11.638-26.68-27.798 2.337-12.514 1.835-10.645 7.709-19.823 5.097 8.759 19.328 15.85 20.463 23.248Z"/><path fill="url(#E)" d="M24.604 803.86c-1.488 9.699-.305 15.224 1.492 24.373 7.969-2.103 29.697-11.638 26.68-27.798-2.337-12.514-1.836-10.646-7.71-19.824-5.096 8.76-19.328 15.85-20.462 23.249Z"/><path fill="url(#F)" d="M63.816 805.081c0 10.137-15.296 23.678-25.433 23.678s-10.36 2.244-10.36-7.893 7.3-12.665 17.438-12.665c18.355-4.842 16.416-14.867 18.355-3.12Z"/><path fill="url(#G)" d="M63.816 805.081c0 10.137-15.296 23.678-25.433 23.678s-10.36 2.244-10.36-7.893 7.3-12.665 17.438-12.665c18.355-4.842 16.416-14.867 18.355-3.12Z"/><path fill="url(#H)" d="M11.24 807.028c0 10.138 10.462 4.956 18.354 21.292 8.444-20.741 18.355-11.154 18.355-21.292 0-10.137-10.646-21.658-18.355-27.899-8.26 4.772-18.355 17.762-18.355 27.899Z"/><path fill="#EEC1A9" d="M11.043 805.374c-1.102 11.93 11.767 10.959 15.805 18.171-4.753-11.197-13.95-6.015-13.95-16.152 0-10.138 6.22-16.703 11.177-24.413-7.342 7.526-10.646 11.931-13.032 22.394Z"/><path fill="url(#I)" d="M-4.179 805.175c0 10.137 15.296 23.678 25.433 23.678s10.36 2.244 10.36-7.893-7.3-12.665-17.438-12.665c-18.355-4.842-16.416-14.867-18.355-3.12Z"/><path fill="url(#J)" d="M-4.179 805.175c0 10.137 15.296 23.678 25.433 23.678s10.36 2.244 10.36-7.893-7.3-12.665-17.438-12.665c-18.355-4.842-16.416-14.867-18.355-3.12Z"/><path fill="url(#K)" d="M8.673 804.307c-2.231 8.472 9.818 20.074 16.876 21.934 7.058 1.859 6.719 3.775 8.95-4.697 2.232-8.472-5.322-17.532-12.38-19.391-17.93-1.574-9.51-7.309-13.446 2.154Z"/><path fill="#EAB29F" fill-opacity=".84" d="M53.276 805.557c3.574-1.832 8.443-5.873 8.443-5.873s-1.71 2.09-2.937 3.303c-2.436 2.41-2.562 3.571-5.506 5.323-2.453 1.46-4.353 2.729-6.975 3.855-2.545 1.092-4.292 1.236-6.608 2.753-3.148 2.063-4.693 3.267-6.424 6.608-.95 1.832-2.387 6.791-2.387 6.791s-1.065-6.361-.367-8.994c.974-3.672 2.635-5.633 5.69-7.892 3.318-2.454 6.211-1.728 10.096-3.121 2.756-.988 4.368-1.417 6.974-2.753Z"/><path fill="url(#L)" d="M50.18 800.994c3.788 7.246-5.858 20.87-12.44 24.31-6.58 3.44-5.886 5.119-9.673-2.127-3.788-7.246 1.925-17.43 8.505-20.87 17.31-5.84 7.961-9.053 13.609-1.313Z"/><path stroke="#C88181" stroke-opacity=".02" stroke-width=".48" d="M47.797 796.857c.02.09.044.196.078.318.196.727.683 1.999 2.101 3.945.905 1.744 1.016 3.886.549 6.198-.468 2.317-1.512 4.782-2.884 7.137-2.747 4.719-6.775 8.945-10.011 10.636a60.423 60.423 0 0 0-2.94 1.659c-.299.177-.573.339-.824.484-.458.263-.838.464-1.169.596-.33.133-.596.19-.829.178-.445-.022-.86-.302-1.421-1.096-.56-.792-1.218-2.029-2.168-3.846-1.847-3.534-1.388-7.809.37-11.651 1.756-3.835 4.788-7.192 8.018-8.886 8.116-2.741 10.408-4.914 11.13-5.672Z"/><path fill="url(#M)" d="m41.712 800.421 6.057-3.487s-3.37 3.247-6.057 4.405c-1.04.449-1.72.451-2.753.918-1.83.827-2.742 1.578-4.222 2.936-2.27 2.085-3.144 3.701-4.588 6.425-.842 1.588-1.487 2.458-1.836 4.221-.46 2.33-.098 3.773.55 6.057.449 1.576 1.063 2.327 1.653 3.855a89.789 89.789 0 0 1 1.101 3.12s-2.723-3.34-3.67-5.873c-.868-2.318-1.253-3.771-1.102-6.241.112-1.84.424-2.875 1.101-4.589.732-1.852 1.371-2.814 2.57-4.405 1.77-2.349 2.983-3.627 5.506-5.139 2.044-1.225 5.69-2.203 5.69-2.203Z"/><path fill="url(#N)" d="M9.587 801.152c.125-.851.367-2.019.367-2.019s.12 1.409 0 2.57c-.128 1.245-.497 2.074-.734 3.303-.3 1.555-.001 2.498.367 4.038.64 2.683 1.702 3.997 3.304 6.241 2.15 3.012 3.806 4.422 6.791 6.608 3.26 2.387 6.523 1.728 9.178 4.772.64.735 1.468 2.019 1.468 2.019s-1.324-.923-2.203-1.468c-3.351-2.081-5.934-1.975-9.177-4.222-3.333-2.309-5.094-3.967-7.342-7.342-1.546-2.321-2.644-3.676-3.12-6.424-.294-1.695-.367-2.724 0-4.405.314-1.444.886-2.209 1.101-3.671Z"/><path fill="url(#O)" d="M35.995 825.217c-2.328 2.158-6.72 4.572-6.72 4.572s3.857-3.103 6.036-5.394c2.133-2.243 3.212-3.625 4.988-6.16 1.87-2.669 3.13-4.115 4.275-7.165.474-1.26.973-3.308.973-3.308s-.16 2.345-.526 3.796c-.836 3.323-2.266 4.874-4.19 7.709-1.682 2.477-2.639 3.916-4.836 5.95Z"/><path fill="#55833F" d="M132.302 1621.59c11.658 1.44 24.687 1.54 36.556.28 11.87-1.25 21.732-3.77 27.673-7.07 5.941-3.29 7.536-7.13 4.476-10.76-3.06-3.63-10.558-6.8-21.037-8.89-10.478-2.09-23.19-2.95-35.667-2.42-12.477.54-23.828 2.43-31.849 5.31-8.021 2.88-12.14 6.54-11.557 10.28.584 3.74 5.828 7.28 14.715 9.94l36.073-10.6-19.383 13.93Z"/><path fill="#55833F" stroke="#55833F" stroke-width=".282" d="m141.947 1611.23-22.905 4.83 36.694-10.74-19.935 14.16 6.146-8.25Z"/><path fill="url(#P)" d="M156.447 1583.28c1.381 9 .282 14.13-1.386 22.63-7.398-1.96-27.571-10.81-24.769-25.81 2.17-11.62 1.704-9.89 7.157-18.41 4.732 8.14 17.944 14.72 18.998 21.59Z"/><path fill="url(#Q)" d="M146.721 1583.96c-1.381 9.01-.282 14.14 1.385 22.63 7.399-1.95 27.572-10.81 24.77-25.81-2.17-11.62-1.704-9.88-7.157-18.4-4.732 8.13-17.944 14.71-18.998 21.58Z"/><path fill="url(#R)" d="M183.128 1585.09c0 9.42-14.201 21.99-23.612 21.99-9.411 0-9.618 2.08-9.618-7.33s6.778-11.76 16.189-11.76c17.041-4.49 15.241-13.8 17.041-2.9Z"/><path fill="url(#S)" d="M183.128 1585.09c0 9.42-14.201 21.99-23.612 21.99-9.411 0-9.618 2.08-9.618-7.33s6.778-11.76 16.189-11.76c17.041-4.49 15.241-13.8 17.041-2.9Z"/><path fill="url(#T)" d="M134.313 1586.9c0 9.41 9.713 4.6 17.041 19.77 7.839-19.26 17.041-10.36 17.041-19.77s-9.884-20.11-17.041-25.9c-7.669 4.43-17.041 16.49-17.041 25.9Z"/><path fill="#EEC1A9" d="M134.127 1585.37c-1.022 11.07 10.925 10.17 14.674 16.87-4.413-10.4-12.951-5.59-12.951-15s5.775-15.5 10.376-22.66c-6.816 6.98-9.883 11.07-12.099 20.79Z"/><path fill="url(#U)" d="M120.001 1585.18c0 9.41 14.2 21.98 23.612 21.98 9.411 0 9.617 2.09 9.617-7.33 0-9.41-6.777-11.75-16.188-11.75-17.041-4.5-15.241-13.81-17.041-2.9Z"/><path fill="url(#V)" d="M120.001 1585.18c0 9.41 14.2 21.98 23.612 21.98 9.411 0 9.617 2.09 9.617-7.33 0-9.41-6.777-11.75-16.188-11.75-17.041-4.5-15.241-13.81-17.041-2.9Z"/><path fill="url(#W)" d="M131.936 1584.38c-2.072 7.86 9.114 18.64 15.667 20.36 6.553 1.73 6.238 3.51 8.31-4.36 2.072-7.86-4.942-16.27-11.495-18-16.645-1.46-8.828-6.79-12.482 2Z"/><path fill="#EAB29F" fill-opacity=".84" d="M173.337 1585.54c3.319-1.71 7.839-5.46 7.839-5.46s-1.587 1.94-2.727 3.07c-2.262 2.24-2.378 3.31-5.112 4.94-2.277 1.36-4.041 2.53-6.475 3.58-2.363 1.01-3.985 1.15-6.135 2.56-2.922 1.91-4.357 3.03-5.964 6.13-.882 1.7-2.216 6.31-2.216 6.31s-.988-5.91-.341-8.35c.904-3.41 2.447-5.23 5.283-7.33 3.08-2.28 5.766-1.61 9.373-2.9 2.559-.92 4.056-1.31 6.475-2.55Z"/><path fill="url(#X)" d="M170.462 1581.3c3.517 6.73-5.439 19.38-11.549 22.57-6.11 3.2-5.465 4.76-8.981-1.97-3.517-6.73 1.787-16.18 7.896-19.38 16.07-5.42 7.391-8.4 12.634-1.22Z"/><path stroke="#C88181" stroke-opacity=".02" stroke-width=".188" d="M170.382 1581.35c.863 1.66.964 3.68.526 5.85-.438 2.17-1.414 4.47-2.692 6.67-2.558 4.39-6.313 8.33-9.347 9.92-1.105.58-1.992 1.1-2.719 1.53-.279.17-.535.32-.77.46-.426.24-.786.43-1.102.56-.315.12-.582.18-.824.17-.475-.02-.892-.33-1.418-1.07-.525-.74-1.141-1.9-2.021-3.59-1.74-3.32-1.302-7.34.341-10.93 1.641-3.58 4.478-6.72 7.509-8.31 7.878-2.66 9.824-4.74 10.376-5.33a.493.493 0 0 0 .085-.09l.021.1c.002.01.004.03.007.04.02.1.047.23.092.39.178.66.623 1.83 1.936 3.63Z"/><path fill="url(#Y)" d="m162.603 1580.77 5.624-3.24s-3.13 3.02-5.624 4.09c-.966.42-1.597.42-2.556.85-1.699.77-2.546 1.47-3.919 2.73-2.109 1.94-2.92 3.43-4.261 5.96-.781 1.48-1.38 2.29-1.704 3.92-.427 2.17-.091 3.51.512 5.63.415 1.46.986 2.16 1.533 3.58a77.828 77.828 0 0 1 1.023 2.89s-2.529-3.1-3.408-5.45c-.806-2.15-1.163-3.5-1.023-5.79.104-1.71.394-2.67 1.023-4.26.679-1.72 1.273-2.62 2.385-4.09 1.644-2.19 2.77-3.37 5.112-4.78 1.898-1.13 5.283-2.04 5.283-2.04Z"/><path fill="url(#Z)" d="M132.779 1581.45c.116-.79.341-1.88.341-1.88s.111 1.31 0 2.39c-.119 1.16-.461 1.93-.682 3.07-.279 1.44-.001 2.32.341 3.75.595 2.49 1.58 3.71 3.067 5.79 1.997 2.8 3.534 4.11 6.306 6.13 3.025 2.22 6.055 1.61 8.52 4.44.595.68 1.363 1.87 1.363 1.87s-1.229-.86-2.045-1.36c-3.112-1.93-5.509-1.84-8.52-3.92-3.095-2.15-4.729-3.69-6.816-6.82-1.436-2.15-2.455-3.41-2.897-5.96-.273-1.58-.34-2.53 0-4.09.292-1.34.823-2.05 1.022-3.41Z"/><path fill="url(#aa)" d="M157.297 1603.79c-2.162 2-6.24 4.25-6.24 4.25s3.581-2.88 5.604-5.01c1.98-2.08 2.982-3.37 4.631-5.72 1.736-2.48 2.905-3.82 3.969-6.65.44-1.17.903-3.07.903-3.07s-.149 2.17-.488 3.52c-.776 3.09-2.104 4.53-3.891 7.16-1.561 2.3-2.449 3.63-4.488 5.52Z"/><path fill="#4D7B37" stroke="#5A7639" stroke-width=".313" d="M41.49 1028c19.522 95.74-27.637 159.41-53.657 179.27l-17.834-27.53c4.005-23.9 12.463-44.43 16.27-51.62 3.701-8.76 13.765-28.6 23.777-38.49 10.012-9.88 25.134-45.2 31.443-61.63Z"/><path fill="#97C65F" stroke="#97C65F" stroke-width=".274" d="m-9.496 1159.94-7.165 3.68.487 4.69 8.252-5.47c19.696-11.53 41.62 4.96 50.12 14.65l60.621 58.55c-2.653-20.6-9.89-64.37-17.609-74.63-7.719-10.26-23.37-16.82-30.231-18.82-22.14-6.85-52.208 8.71-64.475 17.35Z"/><path stroke="#61934A" stroke-linecap="round" stroke-width="3" d="M22.563 1163.64c-16.109 42.09-29.387 95.75-2.19 179 29.17 89.3 15.799 141.46-7.19 178.88"/><path fill="#61934A" d="m29.724 1480.12 1.632-3.93c-4.306-.12-8.529 2.44-10.101 3.73 6.842-.69 8.677-.37 8.469.2l-.01.03a.398.398 0 0 0 .01-.03Z"/><path stroke="#61934A" stroke-linecap="round" stroke-width="1.154" d="m31.356 1476.19-1.643 3.96c.272-.59-1.514-.93-8.458-.23 1.572-1.29 5.795-3.85 10.1-3.73Z"/><path fill="#61934A" d="m30.916 1383.87-1.194-4.09c-3.425 2.61-5.112 7.25-5.528 9.24 4.895-4.83 6.527-5.73 6.722-5.15l.008.02c-.002-.01-.005-.02-.008-.02Z"/><path stroke="#61934A" stroke-linecap="round" stroke-width="1.154" d="m29.723 1379.78 1.2 4.11c-.154-.63-1.761.23-6.729 5.13.416-1.99 2.103-6.63 5.529-9.24Z"/><path fill="#61934A" d="M14.02 1521.4c-3.15-1.15-10.014-1-12.274 8.76-2.18 9.42-4.416 12.02-5.356 12.19-.032.01-.063.01-.095.01.03 0 .062 0 .095-.01 10.007-.98 27.396-6.51 17.63-20.95Z"/><path stroke="#61934A" stroke-width=".338" d="M14.02 1521.4c-3.15-1.15-10.014-1-12.274 8.76-2.259 9.75-4.575 12.2-5.451 12.2 9.99-.95 27.522-6.47 17.724-20.96Z"/><path fill="#7AB55E" d="M2.218 1539.23c4.025-.89 12.035-4.98 11.876-14.19 1.394 4.04.972 12.53-11.876 14.19Z"/><path fill="#61934A" d="M22.398 1478.26c1.39 2.51 2.179 8.34-5.778 11.56-7.682 3.1-9.588 5.34-9.607 6.16-.51-8.6 1.852-24.06 15.385-17.72Z"/><path stroke="#61934A" stroke-width=".29" d="M22.398 1478.26c1.39 2.51 2.179 8.34-5.778 11.56-7.956 3.21-9.716 5.5-9.602 6.24-.53-8.58 1.804-24.16 15.38-17.8Z"/><path fill="#7AB55E" d="M8.874 1490.63c.22-3.52 2.612-10.85 10.428-11.95-3.605-.64-10.737.85-10.428 11.95Z"/><path fill="#61934A" d="m36.757 1438.15.812-4.18c3.652 2.28 5.76 6.75 6.357 8.69-5.32-4.36-7.028-5.1-7.169-4.51l-.005.03a.448.448 0 0 1 .005-.03Z"/><path stroke="#61934A" stroke-linecap="round" stroke-width="1.154" d="m37.569 1433.97-.817 4.21c.097-.64 1.776.06 7.174 4.48-.598-1.94-2.705-6.41-6.357-8.69Z"/><path fill="#61934A" d="M43.894 1440.64c-2.546 1.33-6.424 5.76-1.568 12.83 4.689 6.83 5.04 9.75 4.604 10.45 5.176-6.89 11.747-21.09-3.036-23.28Z"/><path stroke="#61934A" stroke-width=".29" d="M43.894 1440.64c-2.546 1.33-6.424 5.76-1.568 12.83 4.856 7.08 5.06 9.96 4.555 10.51 5.183-6.86 11.843-21.14-2.987-23.34Z"/><path fill="#7AB55E" d="M48.334 1458.43c1.765-3.06 3.817-10.49-2.093-15.72 3.359 1.46 8.48 6.64 2.093 15.72Z"/><path fill="#61934A" d="m15.858 1326.74-.354-3.67c4.197 1.52 7.482 5.09 8.6 6.68-6.396-3.1-8.27-3.53-8.246-3.01l.003.02-.003-.02Z"/><path stroke="#61934A" stroke-linecap="round" stroke-width="1.154" d="m15.504 1323.07.357 3.69c-.08-.55 1.752-.15 8.243 2.99-1.118-1.59-4.403-5.16-8.6-6.68Z"/><path fill="#61934A" d="M22.497 1327.34c-2.004 2.05-4.304 7.47 2.521 12.67 6.59 5.03 7.837 7.69 7.64 8.48-.01.03-.018.06-.027.08a.36.36 0 0 0 .027-.08c2.762-8.16 4.565-23.69-10.161-21.15Z"/><path stroke="#61934A" stroke-width=".29" d="M22.497 1327.34c-2.004 2.05-4.304 7.47 2.521 12.67s7.92 7.88 7.613 8.56c2.778-8.14 4.64-23.78-10.134-21.23Z"/><path fill="#7AB55E" d="M32.276 1342.85c.72-3.46.345-11.16-6.904-14.28 3.646.33 10.132 3.65 6.904 14.28Z"/><path fill="#61934A" d="m6.021 1268.7-.499-3.45c4.362 1.58 7.865 5.05 9.071 6.58-6.677-3.14-8.615-3.62-8.572-3.13l.003.03a.355.355 0 0 1-.003-.03Z"/><path stroke="#61934A" stroke-linecap="round" stroke-width="1.154" d="m5.522 1265.25.502 3.48c-.103-.53 1.793-.09 8.569 3.1-1.206-1.53-4.709-5-9.071-6.58Z"/><path fill="#61934A" d="M12.717 1269.58c-1.95 2.11-4.111 7.58 2.845 12.61 6.716 4.85 8.03 7.49 7.853 8.28 2.553-8.23 3.96-23.8-10.697-20.89Z"/><path stroke="#61934A" stroke-width=".29" d="M12.717 1269.58c-1.95 2.11-4.111 7.58 2.845 12.61 6.955 5.03 8.117 7.67 7.828 8.36 2.57-8.21 4.031-23.89-10.673-20.97Z"/><path fill="#7AB55E" d="M22.891 1284.84c.63-3.48.06-11.17-7.266-14.1 3.653.24 10.221 3.39 7.266 14.1Z"/><path fill="#61934A" d="m16.45 1183.07 1.401-3.27c3.004 4.03 4.245 9.16 4.49 11.22-4.214-6.8-5.67-8.4-5.892-7.95l-.009.02c.003-.01.006-.02.01-.02Z"/><path stroke="#61934A" stroke-linecap="round" stroke-width="1.154" d="m17.851 1179.8-1.41 3.29c.188-.52 1.624 1.03 5.9 7.93-.245-2.06-1.486-7.19-4.49-11.22Z"/><path fill="#61934A" d="M21.363 1187.61c-2.662 1.08-6.946 5.12-2.788 12.62 4.014 7.25 4.084 10.19 3.584 10.84 5.811-6.36 13.709-19.86-.796-23.46Z"/><path stroke="#61934A" stroke-width=".29" d="M21.363 1187.61c-2.662 1.08-6.946 5.12-2.788 12.62 4.157 7.51 4.084 10.4 3.528 10.9 5.816-6.34 13.811-19.91-.74-23.52Z"/><path fill="#7AB55E" d="M24.08 1205.74c2.05-2.87 4.804-10.07-.579-15.85 3.204 1.78 7.806 7.43.58 15.85Z"/><path fill="#61934A" d="M25.38 1385.33c2.24 1.8 5.19 6.89-.944 12.89-5.922 5.8-6.832 8.59-6.538 9.36.012.02.024.05.036.07a.289.289 0 0 1-.036-.07c-3.746-7.76-7.446-22.96 7.481-22.25Z"/><path stroke="#61934A" stroke-width=".29" d="M25.38 1385.33c2.24 1.8 5.19 6.89-.944 12.89-6.133 6.01-6.89 8.79-6.502 9.43-3.758-7.73-7.53-23.03 7.445-22.32Z"/><path fill="#7AB55E" d="M17.583 1401.92c-1.14-3.34-1.715-11.03 5.095-15.02-3.577.78-9.605 4.88-5.095 15.02Z"/><path fill="#61934A" d="m8.478 1298.07-.553-3.63c-3.95 3.01-6.449 7.63-7.204 9.57 5.826-5.33 7.651-6.44 7.757-5.94l.004.03-.004-.03Z"/><path stroke="#61934A" stroke-linecap="round" stroke-width="1.154" d="m7.925 1294.44.557 3.66c-.057-.57-1.848.5-7.76 5.91.754-1.94 3.253-6.56 7.203-9.57Z"/><path fill="#61934A" d="M2.64 1301.53c2.24 1.8 5.188 6.89-.947 12.89-5.924 5.8-6.834 8.59-6.54 9.36.011.02.023.05.035.07-.013-.02-.025-.05-.036-.07-3.743-7.76-7.44-22.96 7.488-22.25Z"/><path stroke="#61934A" stroke-width=".29" d="M2.64 1301.53c2.24 1.8 5.188 6.89-.947 12.89-6.135 6-6.893 8.79-6.505 9.43-3.755-7.74-7.523-23.03 7.452-22.32Z"/><path fill="#7AB55E" d="M-5.161 1318.12c-1.139-3.34-1.712-11.03 5.1-15.02-3.579.78-9.607 4.88-5.1 15.02Z"/><path fill="#61934A" d="m7.458 1215.18-.603-3.94c-4.696 4.65-7.702 10.68-8.617 13.11 6.937-7.88 9.102-9.71 9.22-9.17l.004.02c0-.01-.002-.01-.004-.02Z"/><path stroke="#61934A" stroke-linecap="round" stroke-width="1.154" d="m6.855 1211.24.607 3.96c-.059-.62-2.185 1.15-9.224 9.15.915-2.43 3.92-8.46 8.617-13.11Z"/><path fill="#61934A" d="M-1.5 1222.4c2.207 1.83 5.06 6.98-1.184 12.87-6.03 5.68-6.992 8.46-6.712 9.23.011.02.022.05.034.07a.286.286 0 0 1-.034-.07c-3.6-7.83-7.015-23.09 7.896-22.1Z"/><path stroke="#61934A" stroke-width=".29" d="M-1.5 1222.4c2.207 1.83 5.06 6.98-1.184 12.87-6.245 5.88-7.054 8.65-6.678 9.3-3.612-7.8-7.097-23.17 7.862-22.17Z"/><path fill="#7AB55E" d="M-9.608 1238.84c-1.076-3.37-1.508-11.06 5.376-14.92-3.592.71-9.695 4.69-5.376 14.92Z"/><path fill="#61934A" d="M22.415 1162.33c1.024 2.51 1.117 8.07-6.708 10.21-7.556 2.06-9.593 3.95-9.702 4.72l-.005.07c0-.02 0-.05.005-.07.477-8.13 4.413-22.38 16.41-14.93Z"/><path stroke="#61934A" stroke-width=".274" d="M22.415 1162.33c1.024 2.51 1.117 8.07-6.708 10.21-7.825 2.13-9.732 4.08-9.707 4.79.457-8.11 4.38-22.48 16.415-15Z"/><path fill="#7AB55E" d="M8.346 1172.44c.598-3.28 3.659-9.9 11.116-10.06-3.312-1-10.172-.39-11.116 10.06Z"/><path fill="#4D7B37" d="M1065.19 1892.9c-26.17 3.22-55.42 3.45-82.061.63-26.642-2.81-48.781-8.47-62.116-15.86-13.336-7.4-16.917-16.01-10.047-24.16 6.869-8.15 23.699-15.26 47.22-19.95 23.521-4.69 52.054-6.63 80.064-5.43 28 1.19 53.48 5.44 71.49 11.9 18 6.47 27.25 14.69 25.94 23.08-1.31 8.39-13.08 16.34-33.03 22.32l-80.97-23.79 43.51 31.26Z"/><path fill="#4D7B37" stroke="#4D7B37" stroke-width=".282" d="m1043.53 1869.66 51.41 10.85-82.36-24.12 44.74 31.78-13.79-18.51Z"/><path fill="#FFFCF9" d="M965.634 1836.75c2.756 16.4 25.192 27.26 37.656 27.26 1.61 0 4.68-2.8 4.13-14.02-.55-11.21-12.553-11.26-18.486-9.88-5.416-2.38-7.755-9.32 5.245-25.62 16.251-20.38.086-46.66-18.657-49.61-13.296-2.09-25.191 3.52-30.35 11.43-5.703 8.75.774 25.71 6.19 21.58 10.789-8.22 19.775-4.64 18.657 11.78-.63 9.27-6.018 17.37-4.385 27.08Z"/><path fill="#DBA478" d="M965.634 1836.75c2.756 16.4 25.192 27.26 37.656 27.26 1.61 0 4.68-2.8 4.13-14.02-.55-11.21-12.553-11.26-18.486-9.88-5.416-2.38-7.755-9.32 5.245-25.62 16.251-20.38.086-46.66-18.657-49.61-13.296-2.09-25.191 3.52-30.35 11.43-5.703 8.75.774 25.71 6.19 21.58 10.789-8.22 19.775-4.64 18.657 11.78-.63 9.27-6.018 17.37-4.385 27.08Z"/><path fill="#F3EFEA" d="M951.014 1798.15c4.093-1.71 9.629-7.91 15.905-2.32-1.538-2.82.098-8.17 4.952-6.29 0-3.17.981-5.83 5.537-6.52-2.923-4.47 1.096-9.34 6.294-5.44-2.167-2.21.228-8.91 5.486-6.08-23.558-18.23-42.129 1.29-44.537 5.5-4.99 8.73 0 23.82 6.363 21.15Z"/><path fill="#CBB9A9" d="M950.842 1798.15c-2.542 1.93-5.646-3.32-6.191-5.59 4.93-6.67 17.265-17.45 27.513-5.76-.172.75-.464 2.34-.258 2.75.258.52-7.136-1.8-5.158 5.68-6.504-4.19-12.666.47-15.861 2.89l-.045.03Z"/><path fill="#CD9163" d="M967.521 1822.31c12.312-15.61 8.053-30.26 4.728-35.42-.275.48-.372 2.04-.344 2.67-5.674-1.98-6.62 3.95-4.728 6.1 5.296 7.29 2.55 20.75.344 26.65ZM969.932 1846.3c9.63 12.9 26.969 17.57 32.928 17.54 19.26-5.78-1.4-18.06-14.184-23.65-3.898-1.23-8.942-8.34 4.126-24.15 16.048-19.44 3.439-37.75-1.461-42.22 3.095 27-6.191 32.24-11.091 38.95-4.901 6.7-11.693 15.04-8.684 24.67 1.333 4.27 1.06 6.8-1.634 8.86Z"/><path fill="#F3EFEA" d="M1019.52 1753.87c5.02-.55 11.66-.23 14.12 0 6.18-8.85 15.98-16.5 17.36-13.58 1.25 2.66 1.54 13.58 1.54 19.6 2.24 4.56 7.9 18.32-4.38 27.34 7.16 15.65 34.43 71.19-4.6 78.41-3.73.78-18.07 3.44-34.51 0-39.037-7.22-11.203-62.76-4.04-78.41-12.284-9.02-6.624-22.78-4.39-27.34 0-6.02.3-16.94 1.55-19.6 1.37-2.92 11.18 4.73 17.35 13.58Z"/><path fill="#DBA478" d="M1019.53 1753.87c5.02-.55 11.65-.23 14.12 0 6.17-8.85 15.98-16.5 17.35-13.58 1.25 2.66 1.55 13.58 1.55 19.6.87 2.07 1.9 4.13 2.59 7.14-5.79 3.09-19.81 6.29-28.55-5.68-8.73 11.97-22.84 8.77-28.628 5.68.688-3.01 1.797-5.07 2.668-7.14 0-6.02.29-16.94 1.54-19.6 1.38-2.92 11.18 4.73 17.36 13.58Z"/><ellipse cx="2.837" cy="3.439" fill="#5F4B3D" rx="2.837" ry="3.439" transform="matrix(-1 0 0 1 1039.65 1764.96)"/><ellipse cx="2.837" cy="3.439" fill="#5F4B3D" rx="2.837" ry="3.439" transform="matrix(-1 0 0 1 1020.05 1764.96)"/><path fill="#5F4B3D" d="M1029.75 1770.92c1.61.9-1.17 2.95-2.83 4.02-1.35-1.14-4.12-3.08-3.02-3.88 1.62-1.18 4.36-.97 5.85-.14Z"/><path fill="#5F4B3D" d="M1020.83 1775.63c4.64 4.12 7.25.68 7.05-1.38-.49-.77-1.67-1.75-1.81-.17-.34 3.78-3.6.95-4.64.69-.69-.18-.8.6-.6.86Z"/><path fill="#5F4B3D" d="M1032.96 1775.63c-4.64 4.12-7.25.68-7.05-1.38.49-.77 1.66-1.75 1.8-.17.35 3.78 3.6.95 4.65.69.69-.18.8.6.6.86Z"/><path fill="#DED2C7" d="M1048.34 1787.06c8.26-5.09 7.97-15.48 6.79-20.03-1.44.89-4.15 1.75-5.33 2.06 1.18 4.56 1.12 12.28-7.13 17.37 1 .77 3.2 1.98 5.67.6ZM1005.36 1787.06c-8.253-5.09-7.966-15.48-6.791-20.03 1.441.89 4.151 1.75 5.331 2.06-1.18 4.56-1.12 12.28 7.14 17.37-1.01.77-3.2 1.98-5.68.6ZM1015.58 1791.71c8.88 10.04 18.03 4.18 21.39 0 5.36-6.88-1.32-5.45-5.33-3.87-1.58.6-6.6 1.44-10.73 0-4.01-1.58-10.69-3.01-5.33 3.87Z"/><path stroke="#AD8A70" stroke-linecap="round" stroke-width=".499" d="M1039.48 1753.53c1.72-3.1 6.81-10.66 9.29-11.69"/><path fill="#FFEEE7" d="m1011.48 1751.69.06.12-.06-.12c-1.75-3.12-5.23-8.58-7.68-9.6-.45 1.72-1.44 6.42-1.37 10.41 1.89-3.53 4.56 1.8 5.16 0 .6-1.81-1.89-3.7-.26-2.93 1.63.78 1.98 3.61 1.81 1.64-.18-1.98-3.79-4.47-1.38-3.18 1.83.98 3.22 2.79 3.72 3.66Z"/><path stroke="#AD8A70" stroke-linecap="round" stroke-width=".333" d="M1011.71 1751.98c-.43-.8-1.85-2.75-3.78-3.78-2.41-1.29 1.21 1.2 1.38 3.18.17 1.98-.17-.86-1.81-1.63-1.63-.78.86 1.11.26 2.92"/><path fill="#FFEEE7" d="M1040.33 1752.54c-.03.04-.05.09-.07.13.02-.04.04-.08.07-.13 1.76-3.14 5.83-9.26 8.27-10.27.46 1.72 1.36 7.1 1.29 11.09-1.89-3.53-5.08 1.8-5.68 0-.6-1.81 1.89-3.7.26-2.93-1.63.78-1.98 3.61-1.8 1.64.17-1.98 3.78-4.47 1.37-3.18-1.83.98-3.21 2.79-3.71 3.65Z"/><path stroke="#AD8A70" stroke-linecap="round" stroke-width=".333" d="M1040.09 1752.84c.43-.8 1.85-2.75 3.78-3.78 2.41-1.29-1.2 1.2-1.38 3.18-.17 1.98.18-.86 1.81-1.63 1.63-.78-.86 1.11-.26 2.92"/><path stroke="#AD8A70" stroke-linecap="round" stroke-width=".499" d="M1012.23 1752.84c-1.72-3.09-5.78-9.54-8.25-10.57"/><path fill="#CBB9A9" d="M1052.64 1841.14c-.69 17.02-4.73 21.15-9.63 24.68 4.9-.75 14.36-3.96 18.31-12.56-2.29-1.97-6.27-5.76-8.68-12.12ZM1001.66 1837.45c.68 18.57 3.69 24.84 9.8 28.37-4.9-.75-15.564-3.36-19.519-11.95 2.293-1.98 7.308-10.06 9.719-16.42Z"/><path fill="#DED2C7" d="M1022.46 1866.89c2.02.7 6.92.29 9.12 0-.78-2.73-2.24-4.86-2.67-20.5-.63.54-2.23 1.29-4.21 0-.07 14.43-.43 20.03-2.24 20.5ZM1049.78 1805.98c-.43-4.07-4.87-14.5-6.85-19.35.84.49 3.09.93 4.9.43 2.32 4.73 2.94 13.31 1.95 18.92Z"/><path fill="#CD9163" d="M1036.99 1755.77c10.83 3.86 11.52 8.25 12.81 13.3 1.55-.4 4.89-1.32 5.5-1.87-.54-1.98-1.71-6.19-2.75-7.22.18-6.56.12-19.9-1.8-20.38l-.09.17-.77.52c.82 1.1.69 10.6.77 15.05-.43 2.14.09 5.12-3.01 1.89-3.09-3.24-6.36-1.46-10.66-1.46ZM1008.79 1758.69c-3.95 2.49-3.61 5.27-4.9 10.32-1.54-.41-5.138-1.43-5.757-1.98.544-1.98 1.461-6.02 2.497-7.05 0-6.54.51-18.57 1.72-19.95l.08.09v.6c-.82 1.1-.94 11.29-1.03 15.73 1.03.55 5.67 1.95 7.39 2.24ZM1004.16 1739.52c4.19.82 12.01 9.85 15.39 14.27-.66.06-2.51.34-4.3 1.03-2.24.86 0-1.12-.86-3.87s-6.79-9.63-10.23-11.43ZM1048.69 1740.03c-4.2.83-11.93 9.34-15.31 13.76.66.05 1.57.08 3.36.77 1.78.69-.86-.51 0-3.27.86-2.75 8.51-9.45 11.95-11.26Z"/><ellipse cx="8.168" cy="6.964" fill="#F1B09E" rx="8.168" ry="6.964" transform="matrix(-1 0 0 1 1009.91 1770.12)"/><ellipse cx="8.168" cy="6.964" fill="#F1B09E" rx="8.168" ry="6.964" transform="matrix(-1 0 0 1 1060.46 1770.12)"/><path fill="#FEFDFB" d="M988.305 1764.55c8.856-.85 16.525 2.38 22.845 6.37.39.39.59 1.78-.53.92-1.5-1.16-9.82-7.53-21.905-7.16-.856-.08.427-.15-.41-.13ZM984.934 1773.19c9.062-3.51 17.946-2.68 25.626-.7.5.26 1.08 1.55-.32 1.05-1.88-.67-12.272-4.37-24.843-.36-.917.19.41-.27-.463.01ZM991.169 1785.14c5.239-6.3 12.211-9.25 18.781-10.86.49-.02 1.48.73.22.92-1.69.25-11.021 1.66-18.657 9.76-.602.51.189-.37-.344.18ZM1065.69 1764.55c-8.86-.85-16.52 2.38-22.85 6.37-.38.39-.59 1.78.53.92 1.51-1.16 9.83-7.53 21.91-7.16.86-.08-.43-.15.41-.13ZM1069.05 1773.19c-9.06-3.51-17.94-2.68-25.62-.7-.5.26-1.08 1.55.32 1.05 1.88-.67 12.27-4.37 24.84-.36.92.19-.41-.27.46.01ZM1062.82 1785.15c-5.24-6.3-12.22-9.26-18.78-10.87-.49-.01-1.48.73-.23.92 1.7.25 11.03 1.66 18.67 9.76.6.51-.19-.37.34.19Z"/><path fill="#F3EFEA" d="M1021.17 1868.22c3.2-1.01 4.22-11.6 4.22-33.79-6.37-1.37-20.05-5-23.9-8.51.94 27.51 1.52 35.03 12.2 41.1 3.18 1.8 5.85 1.72 7.48 1.2ZM1033.21 1868.22c-3.2-1.01-4.21-11.6-4.21-33.79 7.96-2.46 23.9-7.61 23.9-8.51-.95 27.51-1.53 35.03-12.21 41.1-3.18 1.8-5.85 1.72-7.48 1.2Z"/><path fill="#F3EFEA" d="m1053.41 1824.98-24.67 9.2.77 16.25 22.1-4.65 1.8-20.8ZM1001.05 1825.06l24.68 8.51-.95 16.34-22.26-7.22-1.47-17.63Z"/><path fill="#E5DDD8" d="M1051.21 1840.72c1.62-1.06 1.55 1.29 1.38 3.26-.76 8.69-1.38 18.32-12.73 23.56-4.74 2.19-6.79.17-7.48-1.37 19.17-1.72 12.9-21.58 18.83-25.45ZM1020.4 1868.14c4.12-1.18 4.12-20.03 4.55-30.7.11-2.66-3.26.61-3.26 2.58 0 8.34-2.59 21.48-5.59 23.56-1.12.95-4.18 2.03-8.17-.86 5.59 5.68 10.32 6.19 12.47 5.42Z"/><path fill="#DBA478" d="M991.772 1853.78c-8.254-13.41 2.751-44.97 12.548-64.57-.37.95-2.95 12.4.35 25.54 3.3 13.13-6.707 34.9-12.898 39.03ZM1060.81 1853.61c8.43-13.3-1.46-42.56-11.95-64.14.36.95 2.93 11.74-.54 24.83-3.48 13.09 6.36 35.1 12.49 39.31Z"/><path fill="#CD9163" d="M1053.84 1843.98c2.48-7.91-1.63-29.03-3.95-38.26 1.03-3.92-.52-13.18-1.38-17.71 7.51 14.36 21.84 47.63 12.64 65.77-2.18-1.78-6.28-6.43-7.31-9.8ZM996.846 1846.39c-2.476-7.91-1.117-23.82 5.934-44.88 0-3.87.08-7.08.94-11.61-7.046 15.04-20.974 46.94-12.118 63.79 2.178-1.77 4.213-3.93 5.244-7.3Z"/></g><defs><linearGradient id="b" x1="-242.092" x2="1597.5" y1="73.875" y2="74" gradientUnits="userSpaceOnUse"><stop stop-color="#967D5C"/><stop offset=".51" stop-color="#B49A78"/><stop offset="1" stop-color="#967D5C"/></linearGradient><linearGradient id="B" x1="206.931" x2="206.931" y1="764.836" y2="778.689" gradientUnits="userSpaceOnUse"><stop stop-color="#F4B59C"/><stop offset="1" stop-color="#F1C4B2" stop-opacity="0"/></linearGradient><linearGradient id="e" x1="106.575" x2="111.605" y1="1380.76" y2="1858.2" gradientUnits="userSpaceOnUse"><stop offset=".234" stop-color="#78D2C1"/><stop offset="1" stop-color="#78D2C1" stop-opacity="0"/></linearGradient><linearGradient id="f" x1="1143.24" x2="1146.44" y1="1744.71" y2="1764.8" gradientUnits="userSpaceOnUse"><stop stop-color="#F1B09E"/><stop offset="1" stop-color="#FAE6CE"/></linearGradient><linearGradient id="g" x1="1180.84" x2="1177.64" y1="1745.62" y2="1765.72" gradientUnits="userSpaceOnUse"><stop stop-color="#F1B09E"/><stop offset="1" stop-color="#FAE6CE"/></linearGradient><linearGradient id="h" x1="1190.72" x2="1161.71" y1="1782.62" y2="1800.89" gradientUnits="userSpaceOnUse"><stop stop-color="#EFB7A4"/><stop offset=".943" stop-color="#F7E7D8"/></linearGradient><linearGradient id="i" x1="1190.72" x2="1161.71" y1="1782.62" y2="1800.89" gradientUnits="userSpaceOnUse"><stop stop-color="#EFB7A4"/><stop offset=".943" stop-color="#F7E7D8"/></linearGradient><linearGradient id="Z" x1="141.781" x2="141.781" y1="1579.57" y2="1607.01" gradientUnits="userSpaceOnUse"><stop stop-color="#F4B59C"/><stop offset="1" stop-color="#F1C4B2" stop-opacity="0"/></linearGradient><linearGradient id="k" x1="1133.32" x2="1162.32" y1="1782.74" y2="1801.01" gradientUnits="userSpaceOnUse"><stop stop-color="#EFB7A4"/><stop offset=".943" stop-color="#F7E7D8"/></linearGradient><linearGradient id="l" x1="1133.32" x2="1162.32" y1="1782.74" y2="1801.01" gradientUnits="userSpaceOnUse"><stop stop-color="#EFB7A4"/><stop offset=".943" stop-color="#F7E7D8"/></linearGradient><linearGradient id="Y" x1="158.499" x2="158.499" y1="1577.53" y2="1607.18" gradientUnits="userSpaceOnUse"><stop stop-color="#F0BFAF"/><stop offset="1" stop-color="#F0BFAF" stop-opacity="0"/></linearGradient><linearGradient id="V" x1="130.151" x2="151.792" y1="1591.93" y2="1605.56" gradientUnits="userSpaceOnUse"><stop stop-color="#EFB7A4"/><stop offset=".943" stop-color="#F7E7D8"/></linearGradient><linearGradient id="o" x1="1171.31" x2="1171.31" y1="1763.43" y2="1803.17" gradientUnits="userSpaceOnUse"><stop stop-color="#F0BFAF"/><stop offset="1" stop-color="#F0BFAF" stop-opacity="0"/></linearGradient><linearGradient id="p" x1="1148.91" x2="1148.91" y1="1766.18" y2="1802.94" gradientUnits="userSpaceOnUse"><stop stop-color="#F4B59C"/><stop offset="1" stop-color="#F1C4B2" stop-opacity="0"/></linearGradient><linearGradient id="q" x1="1169.62" x2="1173.3" y1="1778.77" y2="1802.46" gradientUnits="userSpaceOnUse"><stop stop-color="#F1BCA9"/><stop offset="1" stop-color="#F1BCA9" stop-opacity="0"/></linearGradient><linearGradient id="r" x1="204.797" x2="206.002" y1="756.748" y2="764.32" gradientUnits="userSpaceOnUse"><stop stop-color="#F1B09E"/><stop offset="1" stop-color="#FAE6CE"/></linearGradient><linearGradient id="s" x1="218.961" x2="217.756" y1="757.091" y2="764.663" gradientUnits="userSpaceOnUse"><stop stop-color="#F1B09E"/><stop offset="1" stop-color="#FAE6CE"/></linearGradient><linearGradient id="t" x1="222.681" x2="211.753" y1="771.03" y2="777.914" gradientUnits="userSpaceOnUse"><stop stop-color="#EFB7A4"/><stop offset=".943" stop-color="#F7E7D8"/></linearGradient><linearGradient id="u" x1="222.681" x2="211.753" y1="771.03" y2="777.914" gradientUnits="userSpaceOnUse"><stop stop-color="#EFB7A4"/><stop offset=".943" stop-color="#F7E7D8"/></linearGradient><linearGradient id="U" x1="130.151" x2="151.792" y1="1591.93" y2="1605.56" gradientUnits="userSpaceOnUse"><stop stop-color="#EFB7A4"/><stop offset=".943" stop-color="#F7E7D8"/></linearGradient><linearGradient id="w" x1="201.057" x2="211.985" y1="771.077" y2="777.961" gradientUnits="userSpaceOnUse"><stop stop-color="#EFB7A4"/><stop offset=".943" stop-color="#F7E7D8"/></linearGradient><linearGradient id="x" x1="201.057" x2="211.985" y1="771.077" y2="777.961" gradientUnits="userSpaceOnUse"><stop stop-color="#EFB7A4"/><stop offset=".943" stop-color="#F7E7D8"/></linearGradient><linearGradient id="S" x1="172.978" x2="151.337" y1="1591.85" y2="1605.48" gradientUnits="userSpaceOnUse"><stop stop-color="#EFB7A4"/><stop offset=".943" stop-color="#F7E7D8"/></linearGradient><linearGradient id="R" x1="172.978" x2="151.337" y1="1591.85" y2="1605.48" gradientUnits="userSpaceOnUse"><stop stop-color="#EFB7A4"/><stop offset=".943" stop-color="#F7E7D8"/></linearGradient><linearGradient id="A" x1="215.373" x2="215.373" y1="763.805" y2="778.777" gradientUnits="userSpaceOnUse"><stop stop-color="#F0BFAF"/><stop offset="1" stop-color="#F0BFAF" stop-opacity="0"/></linearGradient><linearGradient id="c" x1="-242.092" x2="1597.5" y1="63.875" y2="64" gradientUnits="userSpaceOnUse"><stop stop-color="#967D5C"/><stop offset=".51" stop-color="#B49A78"/><stop offset="1" stop-color="#967D5C"/></linearGradient><linearGradient id="C" x1="214.736" x2="216.121" y1="769.582" y2="778.51" gradientUnits="userSpaceOnUse"><stop stop-color="#F1BCA9"/><stop offset="1" stop-color="#F1BCA9" stop-opacity="0"/></linearGradient><linearGradient id="D" x1="14.732" x2="17.302" y1="781.882" y2="798.035" gradientUnits="userSpaceOnUse"><stop stop-color="#F1B09E"/><stop offset="1" stop-color="#FAE6CE"/></linearGradient><linearGradient id="E" x1="44.952" x2="42.382" y1="782.617" y2="798.769" gradientUnits="userSpaceOnUse"><stop stop-color="#F1B09E"/><stop offset="1" stop-color="#FAE6CE"/></linearGradient><linearGradient id="F" x1="52.883" x2="29.572" y1="812.353" y2="827.037" gradientUnits="userSpaceOnUse"><stop stop-color="#EFB7A4"/><stop offset=".943" stop-color="#F7E7D8"/></linearGradient><linearGradient id="G" x1="52.883" x2="29.572" y1="812.353" y2="827.037" gradientUnits="userSpaceOnUse"><stop stop-color="#EFB7A4"/><stop offset=".943" stop-color="#F7E7D8"/></linearGradient><linearGradient id="Q" x1="165.612" x2="163.227" y1="1564.24" y2="1579.24" gradientUnits="userSpaceOnUse"><stop stop-color="#F1B09E"/><stop offset="1" stop-color="#FAE6CE"/></linearGradient><linearGradient id="I" x1="6.754" x2="30.064" y1="812.447" y2="827.131" gradientUnits="userSpaceOnUse"><stop stop-color="#EFB7A4"/><stop offset=".943" stop-color="#F7E7D8"/></linearGradient><linearGradient id="J" x1="6.754" x2="30.064" y1="812.447" y2="827.131" gradientUnits="userSpaceOnUse"><stop stop-color="#EFB7A4"/><stop offset=".943" stop-color="#F7E7D8"/></linearGradient><linearGradient id="P" x1="137.556" x2="139.941" y1="1563.56" y2="1578.55" gradientUnits="userSpaceOnUse"><stop stop-color="#F1B09E"/><stop offset="1" stop-color="#FAE6CE"/></linearGradient><linearGradient id="O" x1="35.934" x2="38.888" y1="809.253" y2="828.298" gradientUnits="userSpaceOnUse"><stop stop-color="#F1BCA9"/><stop offset="1" stop-color="#F1BCA9" stop-opacity="0"/></linearGradient><linearGradient id="M" x1="37.291" x2="37.291" y1="796.934" y2="828.871" gradientUnits="userSpaceOnUse"><stop stop-color="#F0BFAF"/><stop offset="1" stop-color="#F0BFAF" stop-opacity="0"/></linearGradient><linearGradient id="N" x1="19.283" x2="19.283" y1="799.133" y2="828.684" gradientUnits="userSpaceOnUse"><stop stop-color="#F4B59C"/><stop offset="1" stop-color="#F1C4B2" stop-opacity="0"/></linearGradient><linearGradient id="aa" x1="157.239" x2="159.982" y1="1588.97" y2="1606.65" gradientUnits="userSpaceOnUse"><stop stop-color="#F1BCA9"/><stop offset="1" stop-color="#F1BCA9" stop-opacity="0"/></linearGradient><radialGradient id="L" cx="0" cy="0" r="1" gradientTransform="matrix(18.50252 -23.56545 30.6746 24.0843 32.248 825.142)" gradientUnits="userSpaceOnUse"><stop stop-color="#FCE5D0"/><stop offset="1" stop-color="#EFB7A4"/></radialGradient><radialGradient id="H" cx="0" cy="0" r="1" gradientTransform="rotate(89.731 -381.764 409.387) scale(39.0965 29.1765)" gradientUnits="userSpaceOnUse"><stop stop-color="#FADFCC"/><stop offset="1" stop-color="#F1BEAB"/></radialGradient><radialGradient id="z" cx="0" cy="0" r="1" gradientTransform="matrix(8.67373 -11.04716 14.37977 11.29035 213.004 777.027)" gradientUnits="userSpaceOnUse"><stop stop-color="#FCE5D0"/><stop offset="1" stop-color="#EFB7A4"/></radialGradient><radialGradient id="y" cx="0" cy="0" r="1" gradientTransform="rotate(-139.07 251.12 348.779) scale(14.0239 19.2864)" gradientUnits="userSpaceOnUse"><stop stop-color="#FCE5D0"/><stop offset="1" stop-color="#EFB7A4"/></radialGradient><radialGradient id="T" cx="0" cy="0" r="1" gradientTransform="matrix(.17041 36.2968 -27.0872 .12717 151.183 1570.37)" gradientUnits="userSpaceOnUse"><stop stop-color="#FADFCC"/><stop offset="1" stop-color="#F1BEAB"/></radialGradient><radialGradient id="K" cx="0" cy="0" r="1" gradientTransform="matrix(-22.60148 -19.59874 26.95323 -31.08276 30.838 824.656)" gradientUnits="userSpaceOnUse"><stop stop-color="#FCE5D0"/><stop offset="1" stop-color="#EFB7A4"/></radialGradient><radialGradient id="n" cx="0" cy="0" r="1" gradientTransform="matrix(23.02113 -29.3205 38.16576 29.96603 1165.03 1798.53)" gradientUnits="userSpaceOnUse"><stop stop-color="#FCE5D0"/><stop offset="1" stop-color="#EFB7A4"/></radialGradient><radialGradient id="W" cx="0" cy="0" r="1" gradientTransform="matrix(-20.98325 -18.1955 25.0234 -28.85725 152.514 1603.27)" gradientUnits="userSpaceOnUse"><stop stop-color="#FCE5D0"/><stop offset="1" stop-color="#EFB7A4"/></radialGradient><radialGradient id="X" cx="0" cy="0" r="1" gradientTransform="matrix(17.17775 -21.87818 28.47836 22.35992 153.814 1603.72)" gradientUnits="userSpaceOnUse"><stop stop-color="#FCE5D0"/><stop offset="1" stop-color="#EFB7A4"/></radialGradient><radialGradient id="m" cx="0" cy="0" r="1" gradientTransform="matrix(-28.121 -24.38497 33.53559 -38.6736 1163.29 1797.93)" gradientUnits="userSpaceOnUse"><stop stop-color="#FCE5D0"/><stop offset="1" stop-color="#EFB7A4"/></radialGradient><radialGradient id="j" cx="0" cy="0" r="1" gradientTransform="rotate(89.731 -300.292 1460.408) scale(48.6444 36.3018)" gradientUnits="userSpaceOnUse"><stop stop-color="#FADFCC"/><stop offset="1" stop-color="#F1BEAB"/></radialGradient><radialGradient id="v" cx="0" cy="0" r="1" gradientTransform="matrix(.08605 18.3276 -13.67735 .06421 211.673 760.19)" gradientUnits="userSpaceOnUse"><stop stop-color="#FADFCC"/><stop offset="1" stop-color="#F1BEAB"/></radialGradient><clipPath id="a"><path fill="#fff" d="M0 0h1440v1897H0z"/></clipPath><filter id="d" width="4174.04" height="2818.47" x="-2347" y="90" color-interpolation-filters="sRGB" filterUnits="userSpaceOnUse"><feFlood flood-opacity="0" result="BackgroundImageFix"/><feBlend in="SourceGraphic" in2="BackgroundImageFix" result="shape"/><feColorMatrix in="SourceAlpha" result="hardAlpha" values="0 0 0 0 0 0 0 0 0 0 0 0 0 0 0 0 0 0 127 0"/><feOffset dy="5"/><feGaussianBlur stdDeviation="2.5"/><feComposite in2="hardAlpha" k2="-1" k3="1" operator="arithmetic"/><feColorMatrix values="0 0 0 0 0.349642 0 0 0 0 0.699094 0 0 0 0 0.632698 0 0 0 1 0"/><feBlend in2="shape" result="effect1_innerShadow_72_2796"/></filter></defs></svg>