<svg width="1440" height="1312" viewBox="0 0 1440 1312" fill="none" xmlns="http://www.w3.org/2000/svg">
<g clip-path="url(#clip0_127_919)">
<path d="M245.5 71.6605C141 36.1602 3.5 51.9746 3.5 51.9746V300.66L1442.5 286.16V83.6605C1442.5 83.6605 1282 -8.83909 1158 2.16061C815.767 32.5191 728.868 235.869 245.5 71.6605Z" fill="#9AC8A3"/>
<path d="M782.5 79.8892C1022.77 -13.6571 1442.5 97.6076 1442.5 97.6076V337.16L1 337.161V56.9668C1 56.9668 489 194.16 782.5 79.8892Z" fill="#84B462"/>
<path d="M872.552 98.1499C1164.57 -20.3295 1441 1.60079 1441 1.60079V314H-5V49.3212C-5 49.3212 157.869 96.8702 223.184 111.603C436.289 159.673 607.175 191.125 872.552 98.1499Z" fill="#336C18"/>
<path d="M1144.86 82.9206C1205.94 79.0744 1442 75 1442 75V939.5H-5V143.065C-5 143.065 251.514 241.36 528.952 200.843C841.503 155.198 811.011 103.942 1144.86 82.9206Z" fill="#244B11"/>
<path d="M1626.6 109.373L1629.08 103.27L1622.49 103.177C1468.12 100.982 1263.03 105.664 1151.69 119.468C1123.9 122.913 1101.62 126.963 1087.39 131.726C1080.42 134.059 1074.66 136.787 1071.31 140.222C1069.55 142.026 1068.15 144.336 1067.99 147.13C1067.82 149.948 1068.95 152.439 1070.61 154.489C1073.73 158.36 1079.62 161.795 1087.53 165.072C1095.63 168.432 1106.56 171.903 1120.52 175.505C1148.45 182.714 1188.97 190.564 1244.26 199.102C1330.67 212.444 1378.33 225.012 1401.04 236.222C1406.67 239.002 1410.55 241.594 1413.06 243.933C1415.57 246.274 1416.46 248.12 1416.69 249.426C1417.09 251.728 1415.65 255.093 1409.22 259.469C1403.13 263.617 1394.06 267.584 1383.37 271.246C1372.75 274.885 1360.81 278.129 1349.17 280.924C1331.27 285.221 1314.33 288.4 1304.01 290.334C1300.88 290.922 1298.36 291.395 1296.61 291.75C1191.02 313.145 1067.98 325.954 937.883 337.157C901.856 340.259 865.284 343.239 828.4 346.244C732.185 354.082 633.841 362.093 537.465 372.915C528.205 373.955 518.969 374.982 509.756 376.005C260.935 403.657 30.1321 429.307 -149.063 659.493C-194.686 718.099 -294.79 853.847 -384.301 989.889C-429.053 1057.91 -471.207 1126.07 -502.587 1184.75C-518.276 1214.08 -531.309 1241.11 -540.63 1264.61C-549.917 1288.02 -555.66 1308.27 -556.494 1323.92L-556.746 1328.66H-552H1500.94H1504.47L1505.31 1325.23L1583.37 1005.23L1583.59 1004.32L1583.44 1003.4C1574.57 951.701 1542.54 907.606 1497.03 870.065C1451.52 832.528 1392.2 801.274 1328.04 775.25C1199.71 723.202 1051.08 691.724 952.293 672.997C930.042 668.779 908.932 661.563 892.153 652.137C875.277 642.656 863.319 631.247 858.457 618.914C853.752 606.978 855.355 593.293 867.574 578.002C879.96 562.505 903.1 545.634 940.833 528.3C978.375 511.055 1046.49 491.648 1129.3 471.829C1211.97 452.041 1308.89 431.929 1403.78 413.215C1474.33 399.302 1543.73 386.167 1605.3 374.514C1626.54 370.494 1646.85 366.65 1665.95 363.011C1740.27 348.855 1796.62 337.756 1818.25 331.482L1821.22 330.622L1821.48 327.546C1823.36 305.746 1815.37 286.839 1800.39 270.613C1785.5 254.495 1763.65 240.938 1737.43 229.406C1684.98 206.338 1613.71 190.82 1541.54 179.663C1474.6 169.314 1406.56 162.671 1351.53 157.3C1347.17 156.875 1342.9 156.458 1338.72 156.047C1310.14 153.245 1285.77 150.764 1267.67 148.217C1258.62 146.942 1251.25 145.666 1245.77 144.35C1243.08 143.704 1240.93 143.069 1239.3 142.452C1239.84 142.246 1240.44 142.033 1241.12 141.814C1247.27 139.838 1257.61 137.944 1271.34 136.223C1298.65 132.801 1338.21 130.201 1381.54 128.682C1468.3 125.64 1569.29 126.96 1616.4 134.463L1621.61 135.293V130.019V121.629L1626.6 109.373Z" fill="url(#paint0_linear_127_919)" stroke="url(#paint1_linear_127_919)" stroke-width="9"/>
<path d="M1033.04 476.333L1038 475.657C810.499 554.161 840.499 600.161 848 622.659C820.499 630.159 687.999 632.659 892.5 703.04C954.499 724.378 1237.27 776 1119.5 856.66C1105.55 884.502 502.992 998.594 681.218 1074.16C933.5 1181.16 1494.06 1126.75 1538 1623.66C1164.98 1648.18 -676.771 1947.17 -25.5004 1128.16C156.999 898.66 398.976 841.19 514.999 836.66C636.182 831.93 869.822 816 948.999 786.16C1044.5 750.158 661 718.658 562 647.656C436.524 557.665 812.311 506.428 1033.04 476.333Z" fill="url(#paint2_linear_127_919)" fill-opacity="0.1"/>
<path d="M73.2501 443.847C68.3273 429.198 83.6846 419.716 89.9751 408.552C98.1237 393.276 102.073 382.704 103.03 379.328C88.302 385.489 33.5 403.16 73.2501 443.847Z" fill="#97C65F" stroke="#97C65F" stroke-width="0.159179"/>
<path d="M313.616 256.433C304.031 270.321 240.834 255.536 210.433 246.408C99 224.16 68.584 172.07 23 190.16C40.1157 146.392 86.9546 126.598 118.496 121.463C164.058 114.045 187.294 164.621 235 172.66C282.706 180.7 317.528 234.182 325.108 244.207C332.303 253.723 316.945 251.44 313.616 256.433Z" fill="#9EBD78"/>
<path d="M55.6997 176.725C130.275 133.445 231.747 257.412 294.098 239.807C291.088 247.411 267.219 252.738 196.119 215.097C125.02 177.456 97.74 181.512 85.3831 185.631L55.6997 176.725Z" fill="#83A658"/>
<path d="M80.1533 259.368C56.4846 356.977 69.5451 441.44 79.4071 468.336L52.5235 480.406C44.1124 438.546 56.0282 315.606 63.0375 259.368C60.6971 218.245 -106.551 235.693 38.0974 177.457C100.052 152.515 120.938 224.915 169.155 231.739C193.802 235.846 208.277 243.068 212.434 246.165C170.948 239.481 86.4127 232.765 80.1533 259.368Z" fill="#698C3D"/>
<path fill-rule="evenodd" clip-rule="evenodd" d="M10.0892 190.629C12.7739 203.331 26.7354 219.104 68.2738 226.978C109.859 234.86 107.25 235.032 96.4439 235.744C88.3552 236.277 75.6737 237.112 73.5001 241.711C61.7832 266.5 50.0638 423.37 61.8565 474.368L52.3711 480.663C43.9599 438.803 55.8758 315.863 62.8851 259.626C60.9679 225.937 -79.8408 238.053 10.0892 190.629Z" fill="#4D7B37"/>
<path d="M46.9431 390.705C45.2707 388.752 29.3335 412.212 27.5234 419.379C27.4623 419.423 27.4539 419.453 27.5031 419.461C27.5097 419.434 27.5165 419.406 27.5234 419.379C51.4457 402.142 54.9126 471.948 52.8459 483.603C64.8456 457.114 71.5889 411.82 46.9431 390.705Z" fill="#4D7B37"/>
<path d="M34.556 394.512C36.7637 391.762 45.1604 390.797 47.4219 391.215C35.8875 409.644 30.3381 428.499 25.3331 446.616C10.7543 416.282 24.7077 396.226 27.5349 393.402L34.556 394.512Z" fill="#678D3A"/>
<path d="M1178.78 318.16L1118.79 331.54C1091.11 341.091 1044.34 347.183 1070.88 376.593C1097.42 406.003 1254.35 412.589 1308.78 407.687L1391 383.602C1189 386.16 1062.93 349.044 1178.78 318.16Z" fill="#269092"/>
<path d="M1137.93 418.669H1250C1210.27 432.926 1014.54 480.363 1004.7 445.16C991 396.16 953 397.66 959.001 365.66C962.955 344.564 1038.96 336.442 1057.5 329.66C963.118 401.579 1027.96 418.669 1137.93 418.669Z" fill="#1B8589"/>
<path d="M1276.49 381.5C1150.5 381.5 1211.86 354.16 1256 354.16C1317 354.16 1322 377.16 1292.41 378.682L1264.5 370.16L1276.49 381.5Z" fill="#326A16"/>
<path d="M1164.14 346.16C1221.08 346.16 1193.35 359.16 1173.4 359.16C1145.83 359.16 1143.57 348.224 1156.94 347.5L1169.56 351.552L1164.14 346.16Z" fill="#326A16"/>
<path d="M1335.18 712.464C1328.86 709.918 1338.57 685.847 1353.76 688.314C1385 697 1380 726 1335.18 712.464Z" fill="#A5663D" stroke="#A5663D" stroke-width="0.323747"/>
<path d="M1362.32 715.011C1358.44 713.579 1348.66 713.91 1344.26 714.255C1342.52 717.783 1340.09 725.507 1344.26 728.18C1349.47 731.523 1357.7 730.528 1361.48 728.18C1366.21 725.245 1362.5 719.211 1362.32 715.011Z" fill="#D1BC9F" stroke="#D1BC9F" stroke-width="0.323747"/>
<path d="M1337.25 704.79C1335.46 703.45 1336.4 699.148 1339.36 695.181C1342.32 691.215 1346.17 689.086 1347.97 690.427C1349.77 691.767 1348.82 696.069 1345.86 700.035C1342.9 704.002 1339.05 706.131 1337.25 704.79Z" fill="#BC856D"/>
<path fill-rule="evenodd" clip-rule="evenodd" d="M1343.69 715.633C1348.97 715.756 1359.62 716.223 1359.91 717.108C1360.28 718.21 1361.01 726.997 1359.2 729.25C1360.06 728.943 1360.84 728.581 1361.48 728.18C1365.26 725.833 1363.55 720.223 1363 719.03C1362.55 718.075 1362.36 715.953 1362.32 715.011C1358.44 713.579 1348.66 713.91 1344.26 714.255C1344.07 714.643 1343.87 715.081 1343.67 715.557C1343.68 715.582 1343.68 715.608 1343.69 715.633Z" fill="#BFA27A"/>
<path fill-rule="evenodd" clip-rule="evenodd" d="M1366.64 714.873C1382.07 712.498 1368.45 693.227 1360 690C1363.32 695.129 1366.04 697.344 1364.65 704.37C1363.91 708.081 1364.39 712.386 1366.64 714.873Z" fill="#905A37"/>
<path d="M1430.84 725.785C1429.21 740.318 1380.45 734.039 1370.16 729.823C1359.97 725.654 1375.6 686.252 1400.05 690.29C1424.5 694.328 1432.25 713.28 1430.84 725.785Z" fill="#C1A884"/>
<path d="M1413.68 733.507C1407.5 731.226 1391.93 731.754 1384.92 732.303C1382.16 737.92 1378.28 750.219 1384.92 754.48C1393.22 759.8 1406.34 758.21 1412.35 754.48C1419.86 749.813 1413.99 740.19 1413.68 733.507Z" fill="#E8D9C6" stroke="#E8D9C6" stroke-width="0.479631"/>
<path d="M1372.18 715.898C1369.32 713.763 1370.83 706.913 1375.54 700.597C1380.25 694.282 1386.39 690.892 1389.25 693.026C1392.11 695.16 1390.61 702.011 1385.9 708.326C1381.18 714.642 1375.05 718.032 1372.18 715.898Z" fill="#E8D9C6"/>
<path fill-rule="evenodd" clip-rule="evenodd" d="M1395.23 690.248C1414.82 695.322 1430.43 725.83 1406.35 728.596C1396.94 729.677 1393.61 730.788 1394.05 731.788C1403.15 731.658 1429.58 738.2 1431.09 724.969C1433.3 705.787 1413.97 688.524 1395.23 690.248Z" fill="#A98C65"/>
<path fill-rule="evenodd" clip-rule="evenodd" d="M1384.2 734.089C1392.7 734.288 1409.83 735.046 1410.3 736.482C1410.89 738.27 1412.07 752.53 1409.15 756.18C1420.44 752.199 1414.52 741.975 1414.17 733.082C1407.92 730.758 1392.19 731.296 1385.11 731.855C1384.8 732.48 1384.48 733.187 1384.17 733.955C1384.18 734 1384.19 734.044 1384.2 734.089Z" fill="#D0B898"/>
<path d="M1140.68 306.894C1132.5 298.386 1121.68 306.623 1112.28 307.613C1099.72 308.606 1091.53 308.026 1089 307.613C1098.84 297.165 1130 271.16 1140.68 306.894Z" fill="#5D8133" stroke="#678D3A" stroke-width="0.186695"/>
<path d="M1131.15 262.16C1126.28 287.259 1138.05 303.951 1144.55 309.16L1149 301.942C1148 295.675 1145.89 290.294 1144.94 288.408C1141.19 279.134 1134.67 271.76 1131.15 262.16Z" fill="#80A157" stroke="#80A157" stroke-width="0.112712"/>
<path fill-rule="evenodd" clip-rule="evenodd" d="M1420.98 326.756L1158.45 282.505L1158.44 282.51C1150.3 281.332 1142.03 290.483 1139.9 303.105C1137.77 315.726 1142.59 327.083 1150.67 328.64L1150.66 328.706L1413.72 373.045L1413.73 372.97C1421.81 373.978 1429.97 364.871 1432.08 352.349C1434.19 339.827 1429.47 328.549 1421.5 326.852V326.844L1421.19 326.79C1421.15 326.784 1421.12 326.778 1421.08 326.772C1421.05 326.767 1421.02 326.761 1420.98 326.756Z" fill="#5B4739"/>
<path fill-rule="evenodd" clip-rule="evenodd" d="M1139.81 303.659L1431.98 352.904C1432.01 352.721 1432.05 352.537 1432.08 352.353C1434.19 339.83 1429.47 328.553 1421.5 326.856V326.848L1421.18 326.794C1421.15 326.788 1421.11 326.782 1421.08 326.776C1421.05 326.77 1421.01 326.765 1420.98 326.76L1158.44 282.509V282.514C1150.29 281.336 1142.02 290.487 1139.9 303.109C1139.87 303.292 1139.84 303.476 1139.81 303.659Z" fill="#695546"/>
<path d="M1411.47 370.323C1404.16 369.091 1399.8 358.839 1401.72 347.424C1403.65 336.009 1411.13 327.753 1418.44 328.985C1425.75 330.216 1430.11 340.469 1428.19 351.884C1426.26 363.299 1418.78 371.554 1411.47 370.323Z" fill="#876A55"/>
<path d="M1182.94 278.169C1183.52 282.781 1185.38 286.104 1186.24 287.189L1171.08 284.633C1175.71 285.414 1175.22 279.689 1174.39 276.729C1177 275.287 1182.35 273.556 1182.94 278.169Z" fill="#695546"/>
<path d="M1247.61 268.433C1242.65 271.869 1249.91 286.924 1254.16 294.022L1262 276.16C1259.1 273.911 1250.15 266.615 1247.61 268.433Z" fill="#EBDF6F"/>
<path d="M1330.4 295.166C1334.3 291.014 1320.61 275.205 1314.67 268.769L1309.57 288.42C1312.96 290.229 1328.41 297.351 1330.4 295.166Z" fill="#EBDF6F" stroke="#EBDF6F" stroke-width="0.420245" stroke-linecap="round"/>
<path d="M1285.44 247.523C1265.46 248.479 1263.98 266.152 1259.16 275.378L1253.4 286.768V295.874C1252.09 299.013 1248.85 306.13 1251.14 308.642C1261.14 317.223 1281.97 315.968 1292.36 315.968C1301.89 315.968 1305.42 314.412 1312.99 312.654C1317.19 310.682 1325.91 297.886 1323.09 286.768C1321.4 280.129 1319.94 277.313 1312.99 264.581C1311.11 261.124 1303.5 246.66 1285.44 247.523Z" fill="#EBDF6F" stroke="#EBDF6F" stroke-width="0.420245"/>
<path d="M1288.88 275.865C1286.33 278.337 1283.11 278.558 1279.96 276.043C1278.92 275.213 1279.69 273.804 1281.08 273.792L1287.63 273.737C1288.94 273.727 1289.77 274.999 1288.88 275.865Z" fill="#D39724"/>
<path d="M1246 271.16C1244.86 276.812 1251.37 290.156 1253.5 293.16L1255.71 287.197C1252.93 282.829 1245.95 271.431 1246 271.16Z" fill="#F3ECA8"/>
<path d="M1289.3 272.446C1286.24 269.74 1282.6 269.72 1279.35 272.92C1278.41 273.838 1279.3 275.186 1280.68 275.105L1288.21 274.666C1289.52 274.589 1290.23 273.273 1289.3 272.446Z" fill="#E3AE47" stroke="#E3AE47" stroke-width="0.420245" stroke-linecap="round"/>
<path d="M1279.25 269.098C1278.29 268.538 1275.91 267.788 1274.06 269.273" stroke="#5B4739" stroke-width="1.45973" stroke-linecap="round"/>
<path d="M1295.41 268.53C1294.46 267.97 1292.07 267.221 1290.22 268.707" stroke="#5B4739" stroke-width="1.45973" stroke-linecap="round"/>
<path d="M1302.65 277.813C1300.05 277.902 1297.88 276.108 1297.8 273.806C1297.72 271.505 1299.76 269.568 1302.36 269.48C1304.96 269.392 1307.13 271.186 1307.21 273.487C1307.29 275.788 1305.25 277.725 1302.65 277.813Z" fill="#EDA58D"/>
<path fill-rule="evenodd" clip-rule="evenodd" d="M1307.51 314.9C1304.28 300.83 1301.26 283.109 1282.88 284.182C1267.1 285.104 1264.9 302.886 1264.95 314.262C1278.24 317.45 1293.94 316.649 1307.51 314.9Z" fill="#F1EFB5"/>
<path fill-rule="evenodd" clip-rule="evenodd" d="M1287 247.16C1305.57 249.798 1314.66 267.207 1312.44 286.047C1311.83 291.234 1315.27 284.007 1321.83 276.802C1319.6 274.13 1318.5 273.16 1316.5 269.66C1313.33 257.2 1300.38 246.298 1287 247.16Z" fill="#D9BA3F"/>
<path fill-rule="evenodd" clip-rule="evenodd" d="M1250.92 308.052C1251.03 308.393 1251.2 308.695 1251.41 308.95C1265.88 322.295 1332.27 325.761 1323.5 294.66C1321.68 294.561 1316.85 290.873 1316.92 292.564C1317.1 297.816 1317.97 322.421 1250.92 308.052Z" fill="#D9BA3F"/>
<path d="M1251.25 300.483C1246.87 300.444 1253.9 310.597 1257.95 315.678C1265.19 322.223 1269.08 304.162 1269.25 302.02C1269.74 295.802 1261.72 300.937 1260.61 299.767C1258.88 297.938 1258.35 297.476 1256.69 297.733C1255.04 297.99 1256.71 300.532 1251.25 300.483Z" fill="#E3AE47"/>
<path fill-rule="evenodd" clip-rule="evenodd" d="M1256.59 313.925C1252.55 308.575 1247.33 300.448 1251.25 300.483C1257 302.268 1254.32 293.16 1260.61 299.767C1262.15 301.388 1268.14 295.636 1269.22 301.381C1268.41 300.831 1267.39 300.486 1266.61 300.261C1265.01 299.803 1263.66 303.383 1261.93 301.552C1257.96 297.354 1257.05 302.308 1252.56 302.268C1249.06 302.237 1252.86 308.726 1256.59 313.925Z" fill="#D39724"/>
<path d="M1313.02 302.316C1317.4 302.277 1310.37 312.429 1306.32 317.51C1299.08 324.055 1295.19 305.994 1295.02 303.852C1294.53 297.634 1302.55 302.769 1303.66 301.6C1305.39 299.771 1305.92 299.308 1307.58 299.565C1309.23 299.822 1307.56 302.365 1313.02 302.316Z" fill="#E3AE47"/>
<path fill-rule="evenodd" clip-rule="evenodd" d="M1307.68 315.757C1311.72 310.407 1316.94 302.28 1313.02 302.315C1307.27 304.1 1309.95 294.992 1303.66 301.599C1302.12 303.22 1296.14 297.468 1295.05 303.213C1295.86 302.663 1296.88 302.318 1297.66 302.093C1299.26 301.635 1300.62 305.216 1302.34 303.384C1306.31 299.186 1307.22 304.14 1311.71 304.1C1315.21 304.069 1311.41 310.558 1307.68 315.757Z" fill="#D39724"/>
<path fill-rule="evenodd" clip-rule="evenodd" d="M1259.5 274.16L1262.99 277.778C1262.67 271.631 1264.06 259.434 1272 252.66C1262.62 257.982 1259.5 267.468 1259.5 274.16Z" fill="#F3ECA8"/>
<path d="M1265.99 278.653C1263.39 278.741 1261.22 276.947 1261.14 274.646C1261.06 272.345 1263.11 270.408 1265.7 270.32C1268.3 270.232 1270.47 272.026 1270.55 274.327C1270.63 276.628 1268.59 278.565 1265.99 278.653Z" fill="#EDA58D"/>
<path fill-rule="evenodd" clip-rule="evenodd" d="M1319.44 273.969C1320.78 275.546 1339 297.16 1328.53 295.381C1324.09 280.974 1316.05 279.05 1312.53 279.923L1319.44 273.969Z" fill="#D9BA3F"/>
<path d="M1404.75 347.446C1403.99 351.993 1404.5 356.289 1405.92 359.554C1407.34 362.825 1409.64 365.004 1412.43 365.472C1415.22 365.94 1418.11 364.629 1420.51 362C1422.92 359.375 1424.8 355.479 1425.56 350.932C1426.33 346.385 1425.82 342.088 1424.4 338.823C1422.98 335.553 1420.68 333.374 1417.89 332.906C1415.09 332.438 1412.21 333.749 1409.8 336.378C1407.4 339.003 1405.52 342.898 1404.75 347.446Z" stroke="#5B4739" stroke-opacity="0.5" stroke-width="0.924261"/>
<path d="M1409.12 348.6C1408.64 351.502 1408.96 354.244 1409.87 356.328C1410.77 358.415 1412.24 359.806 1414.02 360.105C1415.8 360.404 1417.64 359.567 1419.18 357.889C1420.72 356.214 1421.92 353.728 1422.4 350.826C1422.89 347.923 1422.56 345.181 1421.66 343.098C1420.75 341.01 1419.29 339.619 1417.5 339.321C1415.72 339.022 1413.88 339.859 1412.34 341.537C1410.81 343.212 1409.61 345.698 1409.12 348.6Z" stroke="#5B4739" stroke-opacity="0.5" stroke-width="0.589863"/>
<path d="M284 455.926C282.852 463.417 283.765 467.683 285.153 474.748C291.306 473.124 308.086 465.761 305.756 453.281C303.951 443.618 304.338 445.06 299.802 437.973C295.866 444.737 284.876 450.213 284 455.926Z" fill="url(#paint3_linear_127_919)"/>
<path d="M292.086 456.492C293.234 463.982 292.321 468.248 290.933 475.313C284.78 473.69 268 466.326 270.33 453.847C272.135 444.183 271.748 445.626 276.284 438.539C280.22 445.303 291.21 450.778 292.086 456.492Z" fill="url(#paint4_linear_127_919)"/>
<path d="M261.805 457.432C261.805 465.26 273.617 475.717 281.445 475.717C289.274 475.717 289.445 477.45 289.445 469.622C289.445 461.793 283.808 459.841 275.98 459.841C261.805 456.102 263.302 448.36 261.805 457.432Z" fill="url(#paint5_linear_127_919)"/>
<path d="M261.805 457.432C261.805 465.26 273.617 475.717 281.445 475.717C289.274 475.717 289.445 477.45 289.445 469.622C289.445 461.793 283.808 459.841 275.98 459.841C261.805 456.102 263.302 448.36 261.805 457.432Z" fill="url(#paint6_linear_127_919)"/>
<path d="M302.403 458.94C302.403 466.769 294.324 462.767 288.229 475.383C281.709 459.366 274.055 466.769 274.055 458.94C274.055 451.112 282.276 442.215 288.229 437.395C294.608 441.081 302.403 451.112 302.403 458.94Z" fill="url(#paint7_radial_127_919)"/>
<path d="M302.561 457.664C303.411 466.877 293.474 466.127 290.355 471.696C294.026 463.05 301.128 467.051 301.128 459.223C301.128 451.395 296.324 446.324 292.497 440.371C298.167 446.182 300.718 449.584 302.561 457.664Z" fill="#EEC1A9"/>
<path d="M314.312 457.51C314.312 465.338 302.5 475.795 294.672 475.795C286.843 475.795 286.672 477.528 286.672 469.7C286.672 461.871 292.309 459.919 300.138 459.919C314.312 456.18 312.815 448.438 314.312 457.51Z" fill="url(#paint8_linear_127_919)"/>
<path d="M314.312 457.51C314.312 465.338 302.5 475.795 294.672 475.795C286.843 475.795 286.672 477.528 286.672 469.7C286.672 461.871 292.309 459.919 300.138 459.919C314.312 456.18 312.815 448.438 314.312 457.51Z" fill="url(#paint9_linear_127_919)"/>
<path d="M304.391 456.84C306.114 463.383 296.81 472.342 291.359 473.778C285.908 475.214 286.17 476.694 284.447 470.151C282.724 463.609 288.558 456.613 294.008 455.177C307.853 453.962 301.352 449.533 304.391 456.84Z" fill="url(#paint10_radial_127_919)"/>
<path d="M263.426 453.27C270.866 462.367 283.621 462.899 287.239 475.382C289.953 459.166 272.728 460.991 263.426 453.27Z" fill="#EAB29F"/>
<path d="M272.337 454.28C269.412 459.875 276.862 470.397 281.944 473.053C287.026 475.709 286.49 477.007 289.414 471.411C292.339 465.815 287.928 457.951 282.846 455.294C269.479 450.784 276.698 448.303 272.337 454.28Z" fill="url(#paint11_radial_127_919)"/>
<path d="M274.243 451.32C274.239 451.333 274.235 451.348 274.232 451.362C274.076 451.938 273.693 452.931 272.595 454.44C271.917 455.752 271.83 457.374 272.186 459.14C272.545 460.913 273.345 462.805 274.4 464.616C276.515 468.249 279.611 471.492 282.084 472.785C283.009 473.268 283.756 473.711 284.362 474.07C284.592 474.206 284.802 474.331 284.995 474.441C285.348 474.644 285.635 474.796 285.882 474.895C286.129 474.994 286.317 475.032 286.473 475.024C286.76 475.01 287.052 474.834 287.48 474.227C287.906 473.624 288.411 472.677 289.146 471.271C290.55 468.584 290.206 465.323 288.857 462.376C287.512 459.438 285.191 456.87 282.726 455.574C276.915 453.611 274.955 452.02 274.243 451.32Z" stroke="#C88181" stroke-opacity="0.02" stroke-width="0.605883"/>
<path d="M274.199 451.145C282.5 457.16 292.11 461.503 287.523 473.398C287.164 474.329 286.673 475.809 286.673 475.809C290.668 470.907 291.519 464.811 287.523 459.508C284.109 454.977 278.924 453.865 274.199 451.145Z" fill="url(#paint12_linear_127_919)"/>
<path d="M303.398 452.844C303.169 455.526 304.324 457.806 303.681 460.498C301.749 468.579 293 471.16 287.664 475.664C293.5 472.66 303.094 468.934 304.532 460.639C305.01 457.87 303.949 455.516 303.398 452.844Z" fill="url(#paint13_linear_127_919)"/>
<path d="M288.476 476.518C283.038 472.144 277.61 466.469 275.91 459.508C276.417 466.914 282.267 473.104 288.476 476.518Z" fill="url(#paint14_linear_127_919)"/>
<path d="M237.368 522.479C196.001 527.572 56 518.161 100.5 486.66C145 455.16 390.5 472.16 272.174 515.538L225 505.16L237.368 522.479Z" fill="#2A5C12"/>
<path d="M86.4283 493.397C88.2277 505.13 86.7966 511.813 84.6235 522.88C74.9845 520.337 48.7009 508.802 52.3511 489.255C55.1779 474.117 54.5713 476.377 61.6762 465.276C67.8414 475.871 85.0559 484.448 86.4283 493.397Z" fill="url(#paint15_linear_127_919)"/>
<path d="M73.7551 494.288C71.9557 506.021 73.3868 512.704 75.5599 523.77C85.1989 521.227 111.483 509.692 107.832 490.145C105.006 475.008 105.612 477.268 98.5072 466.167C92.342 476.762 75.1275 485.339 73.7551 494.288Z" fill="url(#paint16_linear_127_919)"/>
<path d="M121.19 495.763C121.19 508.025 102.688 524.404 90.4254 524.404C78.1633 524.404 77.8945 527.119 77.8945 514.857C77.8945 502.595 86.7248 499.537 98.987 499.537C121.19 493.68 118.845 481.553 121.19 495.763Z" fill="url(#paint17_linear_127_919)"/>
<path d="M121.19 495.763C121.19 508.025 102.688 524.404 90.4254 524.404C78.1633 524.404 77.8945 527.119 77.8945 514.857C77.8945 502.595 86.7248 499.537 98.987 499.537C121.19 493.68 118.845 481.553 121.19 495.763Z" fill="url(#paint18_linear_127_919)"/>
<path d="M57.5911 498.119C57.5911 510.381 70.2465 504.114 79.7936 523.874C90.0068 498.785 101.996 510.381 101.996 498.119C101.996 485.857 89.1187 471.92 79.7936 464.371C69.8025 470.144 57.5911 485.857 57.5911 498.119Z" fill="url(#paint19_radial_127_919)"/>
<path d="M66.5 514.66C56.256 490.526 53.774 499.122 73.1185 469.031C48.0367 494.74 54.545 493.311 66.5 514.66Z" fill="#EEC1A9"/>
<path d="M38.9434 495.876C38.9434 508.139 57.4453 524.518 69.7075 524.518C81.9696 524.518 82.2384 527.233 82.2384 514.971C82.2384 502.708 73.4081 499.651 61.1459 499.651C38.9434 493.793 41.2882 481.667 38.9434 495.876Z" fill="url(#paint20_linear_127_919)"/>
<path d="M38.9434 495.876C38.9434 508.139 57.4453 524.518 69.7075 524.518C81.9696 524.518 82.2384 527.233 82.2384 514.971C82.2384 502.708 73.4081 499.651 61.1459 499.651C38.9434 493.793 41.2882 481.667 38.9434 495.876Z" fill="url(#paint21_linear_127_919)"/>
<path d="M54.4855 494.827C51.786 505.076 66.361 519.11 74.8988 521.359C83.4366 523.608 83.026 525.927 85.7255 515.678C88.425 505.43 79.2866 494.471 70.7488 492.223C49.0621 490.319 59.2464 483.381 54.4855 494.827Z" fill="url(#paint22_radial_127_919)"/>
<path d="M118.652 489.234C107.906 502.377 86.4344 506.327 81.352 523.87C77.59 501.401 105.183 500.417 118.652 489.234Z" fill="#EAB29F"/>
<path d="M104.695 490.821C109.276 499.586 97.607 516.066 89.6467 520.227C81.6863 524.388 82.5261 526.42 77.9449 517.655C73.3636 508.89 80.2732 496.571 88.2336 492.41C109.171 485.345 97.8634 481.459 104.695 490.821Z" fill="url(#paint23_radial_127_919)"/>
<path d="M101.841 485.713C101.867 485.838 101.901 485.997 101.953 486.189C102.189 487.061 102.776 488.596 104.49 490.948C105.594 493.07 105.727 495.677 105.16 498.481C104.593 501.29 103.327 504.277 101.666 507.13C98.3404 512.843 93.462 517.962 89.5357 520.014C88.0922 520.769 86.9325 521.456 85.9841 522.018C85.6215 522.233 85.2898 522.43 84.9849 522.605C84.4304 522.923 83.9684 523.168 83.5649 523.33C83.1617 523.491 82.8323 523.563 82.5407 523.548C81.9781 523.52 81.4631 523.164 80.7828 522.201C80.1043 521.24 79.3061 519.74 78.1578 517.544C75.9134 513.249 76.4731 508.061 78.6045 503.406C80.7327 498.757 84.4087 494.686 88.3284 492.631C98.4028 489.23 101.05 486.554 101.841 485.713Z" stroke="#C88181" stroke-opacity="0.02" stroke-width="0.480003"/>
<path d="M101.777 485.91C94.1247 493.281 80.5789 496.954 78.2426 508.779C77.1648 514.232 80.5666 519.508 82.2391 524.542C77.441 518.657 74.9383 511.583 77.7986 504.338C81.9074 493.932 92.8926 491.025 101.777 485.91Z" fill="url(#paint24_linear_127_919)"/>
<path d="M56.0386 488.57C56.3956 492.771 54.5873 496.344 55.5946 500.56C58.7907 513.935 74.0057 513.957 80.6835 524.316C80.6835 524.316 79.0817 523.2 78.0192 522.54C68.5774 516.681 56.5546 514.006 54.2624 500.782C53.5114 496.447 55.1717 492.755 56.0386 488.57Z" fill="url(#paint25_linear_127_919)"/>
<path d="M79.407 525.652C88.0587 518.693 96.3904 510.085 99.0899 499.008C98.2815 510.831 89.4019 520.158 79.407 525.652Z" fill="url(#paint26_linear_127_919)"/>
<path d="M58.1313 653.995C95.5626 658.604 137.395 658.927 175.504 654.901C213.614 650.874 245.281 642.786 264.356 632.207C283.431 621.628 288.552 609.312 278.726 597.652C268.9 585.992 244.827 575.82 211.183 569.11C177.538 562.401 136.723 559.633 96.6627 561.345C56.6026 563.056 20.1569 569.125 -5.5971 578.372C-31.3511 587.62 -44.5753 599.385 -42.7017 611.385C-40.8281 623.385 -23.9904 634.762 4.54162 643.308L96.6627 621.16L58.1313 653.995Z" fill="#244B11"/>
<path d="M258.847 452.446C253.018 429.938 214.484 476.711 233.964 480.884C237.518 481.646 263.756 471.405 258.847 452.446Z" fill="#9CCA77"/>
<path d="M251.098 478.746C249.01 476.181 243.296 477.247 235.57 477.247C189.324 477.247 250 492.16 251.098 478.746Z" fill="#9CCA77"/>
<path fill-rule="evenodd" clip-rule="evenodd" d="M251.892 446.555C263.564 455.054 251.319 469.21 236.758 477.16C254.5 483.16 270.5 446.555 251.892 446.555Z" fill="#88B465"/>
<path fill-rule="evenodd" clip-rule="evenodd" d="M226 479.16C239.367 481.521 246.127 479.506 248.601 477.355C250.746 477.858 252.434 479.614 250.995 481.8C242.94 494.049 206.389 483.131 226 479.16Z" fill="#88B465"/>
<path d="M133.598 452.446C139.427 429.938 177.963 476.711 158.482 480.884C154.927 481.646 128.689 471.405 133.598 452.446Z" fill="#9CCA77"/>
<path d="M141.452 481.803C137.175 475.296 154.889 477.247 156.872 477.247C188.758 477.247 151.002 496.323 141.452 481.803Z" fill="#9CCA77"/>
<path fill-rule="evenodd" clip-rule="evenodd" d="M140.557 446.555C129 454.16 141.13 469.21 155.691 477.16C136 482.161 121.522 445.232 140.557 446.555Z" fill="#88B465"/>
<path fill-rule="evenodd" clip-rule="evenodd" d="M165.94 478.122C152.7 480.44 146.311 479.497 143.849 477.355C141.703 477.857 140.014 479.614 141.452 481.801C148.5 494.16 192 482.66 165.94 478.122Z" fill="#88B465"/>
<path d="M227.647 404.032C231.964 393.674 217.114 383.745 208.519 390.405C206.629 392.014 203.187 395.822 200.901 394.976C196.568 393.825 192.438 394.496 190.914 394.976C188.629 395.822 185.187 392.014 183.297 390.405C175.892 382.456 160.258 393.982 164.422 403.694C113 517.66 281.5 515.16 227.647 404.032Z" fill="#9CCA77"/>
<path fill-rule="evenodd" clip-rule="evenodd" d="M224.567 404.88C226.542 399.52 226.649 388.799 211.618 388.799C211.612 388.791 211.607 388.783 211.602 388.775C220.186 385.702 231.425 394.966 227.647 404.033C241.793 436.314 259.5 485.16 206.072 487.797C205.663 484.016 205.889 480.361 206.37 477.584C244.843 470.707 236.855 438.65 224.567 404.88Z" fill="#88B465"/>
<path fill-rule="evenodd" clip-rule="evenodd" d="M167.46 404.879C165.485 399.519 165.378 388.798 180.41 388.798C180.415 388.79 180.42 388.783 180.425 388.776C171.842 385.699 160.597 394.964 164.376 404.032C150.23 436.315 131.5 482.66 185.955 487.796C186.364 484.015 186.139 480.36 185.657 477.583C147.184 470.706 155.172 438.649 167.46 404.879Z" fill="#88B465"/>
<path d="M177.044 405.809C179.127 405.809 180.815 403.763 180.815 401.238C180.815 398.714 179.127 396.668 177.044 396.668C174.962 396.668 173.273 398.714 173.273 401.238C173.273 403.763 174.962 405.809 177.044 405.809Z" fill="#5F4B3D"/>
<path d="M213.759 405.809C215.841 405.809 217.53 403.763 217.53 401.238C217.53 398.714 215.841 396.668 213.759 396.668C211.676 396.668 209.988 398.714 209.988 401.238C209.988 403.763 211.676 405.809 213.759 405.809Z" fill="#5F4B3D"/>
<path d="M200.845 409.789C196.551 412.419 193.247 410.838 191.689 409.789C190.259 408.835 191.024 407.666 191.689 408.133C193.247 409.182 196.297 411.113 200.845 408.133C201.51 407.666 202.306 408.894 200.845 409.789Z" fill="#5F4B3D"/>
<path d="M227.106 421.045C231.593 421.045 235.231 417.824 235.231 413.851C235.231 409.877 231.593 406.656 227.106 406.656C222.619 406.656 218.981 409.877 218.981 413.851C218.981 417.824 222.619 421.045 227.106 421.045Z" fill="#DBB396"/>
<path d="M165.66 421.045C170.147 421.045 173.785 417.824 173.785 413.851C173.785 409.877 170.147 406.656 165.66 406.656C161.172 406.656 157.535 409.877 157.535 413.851C157.535 417.824 161.172 421.045 165.66 421.045Z" fill="#DBB396"/>
<path fill-rule="evenodd" clip-rule="evenodd" d="M220.409 484.551C205.846 490.368 186.137 490.209 171.658 484.251C123.157 408.662 271.188 406.835 220.409 484.551Z" fill="#CFE8A4"/>
<path fill-rule="evenodd" clip-rule="evenodd" d="M220.415 484.547C222.462 481.414 224.394 477.774 225.994 473.844C200.273 484.452 181.448 479.677 166.352 473.884C167.87 477.674 169.704 481.193 171.664 484.247C186.141 490.206 205.853 490.363 220.415 484.547Z" fill="#B7CF8C" fill-opacity="0.5"/>
<path d="M182 489.66L168.441 462.941L191.905 473.041L194.5 490.66L182 489.66Z" fill="#CFE8A4"/>
<path d="M210.5 489.66L224.059 462.941L200.595 473.041L198 490.66L210.5 489.66Z" fill="#CFE8A4"/>
<path fill-rule="evenodd" clip-rule="evenodd" d="M187.77 491.726C188.169 490.807 188.979 490.407 189.569 491.521C191.024 494.525 195.792 493.497 194.5 490.16C191.146 491.546 190.829 487.397 188.654 486.812C186.455 486.22 189.267 489.266 185.945 489.266C182.915 489.266 173.52 471.408 169.965 464.637C170.802 469.359 181 499.16 187.77 491.726Z" fill="#9CCA77"/>
<path fill-rule="evenodd" clip-rule="evenodd" d="M210.684 491.521C209.372 492.681 205.718 493.731 204.887 491.488C204.52 490.507 203.664 490.608 203.181 491.521C201.725 494.528 197 492.66 198.542 489.822C200.599 490.674 201.405 489.572 202.221 488.456C202.737 487.75 203.257 487.039 204.1 486.812C206.299 486.22 203.487 489.266 206.808 489.266C209.839 489.266 219.234 471.408 222.789 464.637C221.403 472.431 216.879 486.044 210.684 491.521Z" fill="#9CCA77"/>
</g>
<defs>
<linearGradient id="paint0_linear_127_919" x1="632.627" y1="107.16" x2="632.627" y2="1324.16" gradientUnits="userSpaceOnUse">
<stop stop-color="#15929A"/>
<stop offset="1" stop-color="#034444"/>
</linearGradient>
<linearGradient id="paint1_linear_127_919" x1="1371.5" y1="770.16" x2="103.5" y2="767.66" gradientUnits="userSpaceOnUse">
<stop stop-color="#6A5445"/>
<stop offset="0.520833" stop-color="#B59B79"/>
<stop offset="1" stop-color="#6A5445"/>
</linearGradient>
<linearGradient id="paint2_linear_127_919" x1="882.097" y1="639.046" x2="882.097" y2="1253.5" gradientUnits="userSpaceOnUse">
<stop stop-color="#78D2C1"/>
<stop offset="1" stop-color="#78D2C1" stop-opacity="0"/>
</linearGradient>
<linearGradient id="paint3_linear_127_919" x1="299.714" y1="439.522" x2="297.729" y2="451.995" gradientUnits="userSpaceOnUse">
<stop stop-color="#E09277"/>
<stop offset="1" stop-color="#FAE6CE"/>
</linearGradient>
<linearGradient id="paint4_linear_127_919" x1="276.372" y1="440.087" x2="278.357" y2="452.56" gradientUnits="userSpaceOnUse">
<stop stop-color="#E09277"/>
<stop offset="1" stop-color="#FAE6CE"/>
</linearGradient>
<linearGradient id="paint5_linear_127_919" x1="270.248" y1="463.047" x2="288.249" y2="474.387" gradientUnits="userSpaceOnUse">
<stop offset="0.04" stop-color="#E09277"/>
<stop offset="0.942708" stop-color="#F7E7D8"/>
</linearGradient>
<linearGradient id="paint6_linear_127_919" x1="270.248" y1="463.047" x2="288.249" y2="474.387" gradientUnits="userSpaceOnUse">
<stop offset="0.04" stop-color="#E09277"/>
<stop offset="0.942708" stop-color="#F7E7D8"/>
</linearGradient>
<radialGradient id="paint7_radial_127_919" cx="0" cy="0" r="1" gradientUnits="userSpaceOnUse" gradientTransform="translate(288.371 445.191) rotate(90.269) scale(30.1917 22.5311)">
<stop stop-color="#E09277"/>
<stop offset="0.4" stop-color="#F1BEAB"/>
</radialGradient>
<linearGradient id="paint8_linear_127_919" x1="305.869" y1="463.126" x2="287.868" y2="474.465" gradientUnits="userSpaceOnUse">
<stop offset="0.04" stop-color="#E09277"/>
<stop offset="0.942708" stop-color="#F7E7D8"/>
</linearGradient>
<linearGradient id="paint9_linear_127_919" x1="305.869" y1="463.126" x2="287.868" y2="474.465" gradientUnits="userSpaceOnUse">
<stop offset="0.04" stop-color="#E09277"/>
<stop offset="0.942708" stop-color="#F7E7D8"/>
</linearGradient>
<radialGradient id="paint10_radial_127_919" cx="0" cy="0" r="1" gradientUnits="userSpaceOnUse" gradientTransform="translate(287.275 472.554) rotate(-40.9302) scale(23.1018 31.7709)">
<stop stop-color="#FCE5D0"/>
<stop offset="1" stop-color="#EFB7A4"/>
</radialGradient>
<radialGradient id="paint11_radial_127_919" cx="0" cy="0" r="1" gradientUnits="userSpaceOnUse" gradientTransform="translate(286.185 472.928) rotate(-128.137) scale(23.1371 30.117)">
<stop stop-color="#FCE5D0"/>
<stop offset="1" stop-color="#EFB7A4"/>
</radialGradient>
<linearGradient id="paint12_linear_127_919" x1="282.291" y1="451.145" x2="282.291" y2="475.809" gradientUnits="userSpaceOnUse">
<stop stop-color="#E09277"/>
<stop offset="1" stop-color="#F0BFAF" stop-opacity="0"/>
</linearGradient>
<linearGradient id="paint13_linear_127_919" x1="296.158" y1="452.844" x2="296.158" y2="475.664" gradientUnits="userSpaceOnUse">
<stop stop-color="#E09277"/>
<stop offset="1" stop-color="#F2D1BF"/>
</linearGradient>
<linearGradient id="paint14_linear_127_919" x1="283.334" y1="460.659" x2="281.052" y2="475.366" gradientUnits="userSpaceOnUse">
<stop stop-color="#E09277"/>
<stop offset="1" stop-color="#F1BCA9" stop-opacity="0"/>
</linearGradient>
<linearGradient id="paint15_linear_127_919" x1="61.815" y1="467.701" x2="64.9233" y2="487.24" gradientUnits="userSpaceOnUse">
<stop stop-color="#F1B09E"/>
<stop offset="1" stop-color="#FAE6CE"/>
</linearGradient>
<linearGradient id="paint16_linear_127_919" x1="98.3684" y1="468.592" x2="95.26" y2="488.13" gradientUnits="userSpaceOnUse">
<stop stop-color="#F1B09E"/>
<stop offset="1" stop-color="#FAE6CE"/>
</linearGradient>
<linearGradient id="paint17_linear_127_919" x1="107.965" y1="504.559" x2="79.7682" y2="522.322" gradientUnits="userSpaceOnUse">
<stop stop-color="#EFB7A4"/>
<stop offset="0.942708" stop-color="#F7E7D8"/>
</linearGradient>
<linearGradient id="paint18_linear_127_919" x1="107.965" y1="504.559" x2="79.7682" y2="522.322" gradientUnits="userSpaceOnUse">
<stop stop-color="#EFB7A4"/>
<stop offset="0.942708" stop-color="#F7E7D8"/>
</linearGradient>
<radialGradient id="paint19_radial_127_919" cx="0" cy="0" r="1" gradientUnits="userSpaceOnUse" gradientTransform="translate(79.5716 476.582) rotate(89.731) scale(47.292 35.2925)">
<stop stop-color="#FADFCC"/>
<stop offset="1" stop-color="#F1BEAB"/>
</radialGradient>
<linearGradient id="paint20_linear_127_919" x1="52.1675" y1="504.673" x2="80.3646" y2="522.435" gradientUnits="userSpaceOnUse">
<stop stop-color="#EFB7A4"/>
<stop offset="0.942708" stop-color="#F7E7D8"/>
</linearGradient>
<linearGradient id="paint21_linear_127_919" x1="52.1675" y1="504.673" x2="80.3646" y2="522.435" gradientUnits="userSpaceOnUse">
<stop stop-color="#EFB7A4"/>
<stop offset="0.942708" stop-color="#F7E7D8"/>
</linearGradient>
<radialGradient id="paint22_radial_127_919" cx="0" cy="0" r="1" gradientUnits="userSpaceOnUse" gradientTransform="translate(81.2964 519.442) rotate(-139.07) scale(36.1864 49.7655)">
<stop stop-color="#FCE5D0"/>
<stop offset="1" stop-color="#EFB7A4"/>
</radialGradient>
<radialGradient id="paint23_radial_127_919" cx="0" cy="0" r="1" gradientUnits="userSpaceOnUse" gradientTransform="translate(83.0032 520.031) rotate(-51.8626) scale(36.2418 47.175)">
<stop stop-color="#FCE5D0"/>
<stop offset="1" stop-color="#EFB7A4"/>
</radialGradient>
<linearGradient id="paint24_linear_127_919" x1="89.1025" y1="485.91" x2="89.1025" y2="524.542" gradientUnits="userSpaceOnUse">
<stop stop-color="#F0BFAF"/>
<stop offset="1" stop-color="#F0BFAF" stop-opacity="0"/>
</linearGradient>
<linearGradient id="paint25_linear_127_919" x1="67.3229" y1="488.57" x2="67.3229" y2="524.316" gradientUnits="userSpaceOnUse">
<stop stop-color="#F4B59C"/>
<stop offset="1" stop-color="#F1C4B2" stop-opacity="0"/>
</linearGradient>
<linearGradient id="paint26_linear_127_919" x1="87.4617" y1="500.811" x2="91.0353" y2="523.849" gradientUnits="userSpaceOnUse">
<stop stop-color="#F1BCA9"/>
<stop offset="1" stop-color="#F1BCA9" stop-opacity="0"/>
</linearGradient>
<clipPath id="clip0_127_919">
<rect width="1440" height="1312" fill="white"/>
</clipPath>
</defs>
</svg>
