<svg width="1440" height="117" viewBox="0 0 1440 115" fill="none" xmlns="http://www.w3.org/2000/svg">
<path d="M0 0L106.5 51.5L362 99.5L1024 78.5L1440 51.5V116H0V0Z" fill="#69C1B1"/>
<path d="M1204.41 79.4494C1177.37 81.1737 1149.73 82.9364 1121.5 84.7088C1049.82 89.209 985.427 93.8988 925.684 98.2497L925.68 98.2499C709.812 113.971 554.704 125.267 336.501 107.209C163.936 92.9281 68.1739 69.8969 0 41.2948V0C51.1239 19.9565 115.691 40.0758 223.501 62.2085C408.701 100.229 831.981 73.8477 1172 49.2085C1267.31 42.3023 1357.07 36.0475 1440 31.545V65.2783C1367.68 69.0371 1289 74.0551 1204.41 79.4494Z" fill="url(#paint0_linear_622_220)"/>
<defs>
<linearGradient id="paint0_linear_622_220" x1="1212.68" y1="43.6123" x2="416.678" y2="159.112" gradientUnits="userSpaceOnUse">
<stop stop-color="#8D7454"/>
<stop offset="0.429398" stop-color="#BCA07D"/>
<stop offset="1" stop-color="#8D7454"/>
</linearGradient>
</defs>
</svg>
