<svg width="1440" height="661" viewBox="0 0 1440 661" fill="none" xmlns="http://www.w3.org/2000/svg">
<path d="M-1150.58 392.996C-1660.66 628.759 -2128.66 663.708 -2340.66 563.375C-2531.16 353.542 -2757.48 -201.905 -2321.08 76.4952C-2170.74 226.995 -1771.3 495.936 -1507.08 447.992C-1000.08 355.997 -936.646 11.1464 -594.152 100.875C-302.153 177.375 -374.216 443.269 36.8477 469.875C600.847 506.38 899.348 -108.125 1508.35 232.375C1760.75 299.175 1742.25 556.83 1718.92 632.497C1288.92 315.997 714.421 248.495 452.922 429.995C-40.3169 772.339 -318.078 666.497 -395.578 536.496C-482.852 390.102 -747.077 206.496 -1150.58 392.996Z" fill="white" fill-opacity="0.15"/>
</svg>
