<svg width="1440" height="1620" viewBox="0 0 1440 1620" fill="none" xmlns="http://www.w3.org/2000/svg">
<rect x="-3" width="1440" height="1771" fill="url(#paint0_linear_1257_5823)"/>
<path d="M2681.12 1055.35C3191.2 825.785 3659.2 791.754 3871.2 889.45C4061.7 1093.77 4288.02 1634.61 3851.62 1363.53C3701.29 1216.99 3301.84 955.117 3037.62 1001.8C2530.62 1091.38 2467.19 1427.16 2124.7 1339.79C1832.7 1265.3 1904.76 1006.4 1493.7 980.492C929.696 944.948 631.195 1543.3 22.1953 1211.75C-230.205 1146.71 -211.71 895.823 -188.377 822.145C241.623 1130.33 816.122 1196.05 1077.62 1019.32C1570.86 685.979 1848.62 789.039 1926.12 915.622C2013.39 1058.17 2277.62 1236.95 2681.12 1055.35Z" fill="white" fill-opacity="0.06"/>
<path d="M-1064.58 459.665C-1574.66 689.23 -2042.66 723.261 -2254.66 625.565C-2445.16 421.248 -2671.48 -119.598 -2235.08 151.484C-2084.74 298.028 -1685.3 559.899 -1421.08 513.216C-914.078 423.639 -850.646 87.8527 -508.152 175.223C-216.153 249.712 -288.216 508.617 122.848 534.523C686.847 570.068 985.348 -28.2835 1594.35 303.266C1846.75 368.31 1828.25 619.193 1804.92 692.87C1374.92 384.69 800.421 318.963 538.922 495.692C45.6831 829.037 -232.078 725.977 -309.578 599.393C-396.852 456.847 -661.077 278.067 -1064.58 459.665Z" fill="white" fill-opacity="0.06"/>

<defs>
<linearGradient id="paint0_linear_1257_5823" x1="717" y1="0" x2="717" y2="1671" gradientUnits="userSpaceOnUse">
<stop offset="0.348958" stop-color="#57C0AC"/>
<stop offset="1" stop-color="#18836F"/>
</linearGradient>
</defs>

</svg>
