<svg width="245" height="202" viewBox="0 0 245 202" fill="none" xmlns="http://www.w3.org/2000/svg">
<g opacity="0.5">
<ellipse cx="61.1759" cy="24" rx="61.1759" ry="24" transform="matrix(-1 0 0 1 153.141 129)" fill="white"/>
<ellipse cx="61" cy="13" rx="61" ry="13" transform="matrix(-1 0 0 1 122 171)" fill="white"/>
<ellipse cx="101" cy="9.5" rx="101" ry="9.5" transform="matrix(-1 0 0 1 245 179)" fill="white"/>
<ellipse cx="28.7648" cy="31" rx="28.7648" ry="31" transform="matrix(-1 0 0 1 181.246 105)" fill="white"/>
<ellipse cx="11" cy="12" rx="11" ry="12" transform="matrix(-1 0 0 1 192 136)" fill="white"/>
<ellipse cx="44" cy="31" rx="44" ry="31" transform="matrix(-1 0 0 1 157 140)" fill="white"/>
<ellipse cx="28.7648" cy="31" rx="28.7648" ry="31" transform="matrix(-1 0 0 1 151 117)" fill="white"/>
<ellipse cx="28.7648" cy="31" rx="28.7648" ry="31" transform="matrix(-1 0 0 1 195 136)" fill="white"/>
<ellipse cx="21.8056" cy="23.5" rx="21.8056" ry="23.5" transform="matrix(-1 0 0 1 222 142)" fill="white"/>
<g filter="url(#filter0_f_2459_1961)">
<ellipse cx="131.5" cy="165.5" rx="65.5" ry="10.5" fill="#C7D2D6"/>
</g>
</g>
<path d="M160.183 145.09C150.361 140.806 142.081 150.015 139.169 155.155L140.595 159.172C144.254 156.064 147.962 156.238 151.1 157.36C154.239 158.481 158.18 161.339 163.67 162.637C173.805 164.745 180.544 165.075 182.646 164.976C179.251 160.132 170.005 149.374 160.183 145.09Z" fill="#678D3A" stroke="#678D3A" stroke-width="0.170624"/>
<path d="M162.509 112.084C164.229 134.432 151.683 147.583 145.195 151.365L141.918 144.59C143.51 139.263 146.019 134.832 147.09 133.302C148.182 131.413 151.038 127.184 153.598 125.219C156.158 123.253 160.605 115.643 162.509 112.084Z" fill="#5A7639" stroke="#5A7639" stroke-width="0.1092"/>
<path d="M64.86 59.4326C52.1342 66.6045 52.6743 70.4087 52.9021 71.9618C53.9445 79.0605 67.672 82.8433 74.1288 84.6225L74.326 84.6768C107.238 93.7497 171.603 81.0347 184.768 78.6585C197.932 76.2823 206.816 72.447 212.743 69.3696C216.575 67.3795 219.008 64.3907 219.301 63.2746C219.703 60.7183 218.623 56.5596 212.743 54.1402C204.493 51.4615 198.481 46.1834 196.506 43.8792L171.603 19.9009C167.837 16.6606 158.724 9.44552 152.405 6.50761C130.2 -4.37982 111.412 1.97118 104.793 6.50761C100.77 9.06385 93.6897 15.629 86.8104 27.6041C82.0931 37.325 74.2947 49.4957 64.86 59.4326Z" fill="#BC643A" stroke="#C96F44" stroke-width="0.69898"/>
<path d="M198.538 61.2069C134.207 38.6041 88.0648 58.9161 73.0352 71.8975C85.4977 81.4971 111.359 82.0062 122.732 81.0608C124.487 88.3914 119.879 99.9692 117.356 104.842C102.875 132.877 101.67 157.746 106.386 162.767C111.883 168.62 129.748 168.824 137.867 164.242C153.927 155.777 149.792 104.224 147.086 76.8064C178.155 73.3156 194.332 64.9522 198.538 61.2069Z" fill="#E8D9C6" stroke="#E8D9C6" stroke-width="0.69898"/>
<path d="M122.92 81.5414C121.358 96.6603 121.358 95.0404 115.443 107.676C155.364 118.425 139.822 157.408 140.587 161.485C140.965 163.504 156.305 142.174 150.148 104.412C150.148 98.042 148.362 84.0972 147.693 77.8696C166.529 76.8329 187.15 67.9704 194.812 64.1546C202.941 60.3748 193.399 58.2195 190.097 60.3748C179.295 64.6081 174.711 62.9307 174.079 61.2388C173.856 60.8068 173.645 58.299 175.144 57.459C181.147 54.0963 175.219 54.9032 174.698 54.5433C174.065 54.1473 172.533 53.7009 171.462 55.0832C168.873 58.7981 162.274 61.5268 159.298 62.4267C156.471 62.9307 150.684 63.7658 150.148 63.0746C149.612 62.3835 150.222 61.5627 150.594 61.2388C152.677 58.395 157.473 51.4497 154.17 50.3266C150.867 49.2035 148.987 49.502 147.693 54.5433C147.395 57.2791 144.725 63.4202 136.422 66.0984C126.044 69.4462 117.898 65.1265 116.336 64.1546C112.676 61.9947 110.905 56.8111 110.199 55.0832C110.757 52.7906 105.846 53.5281 105.4 55.0832C104.775 58.1934 107.297 62.1747 108.413 62.7507C109.641 63.7226 111.716 65.7529 110.199 66.0984C98.7048 69.2302 89.7776 61.4548 88.9965 61.1308C83.9973 59.2301 84.2353 61.9227 84.9792 63.5066L92.679 69.7702C90.8563 70.4541 86.7647 72.3715 84.9792 71.7668C80.7788 71.7668 75.4275 68.5956 74.4897 69.5542C73.5928 70.471 71.5655 71.698 73.2394 73.5339C89.9333 83.1236 113.249 83.0533 122.92 81.5414Z" fill="#C5A687" stroke="#C5A687" stroke-width="0.69898"/>
<path d="M137.964 47.6026C99.5492 48.1423 78.2547 63.1096 72.3828 71.9963C88.5978 56.7989 122.153 52.5676 137.964 51.7041C153.776 50.8407 184.197 56.7053 198.983 61.3106C175.382 46.545 150.168 47.6025 137.964 47.6026Z" fill="#A46C53" stroke="#A46C53" stroke-width="0.69898"/>
<path d="M125.557 107.977C119.679 126.934 109.438 163.215 118.358 166.578" stroke="#C5A687" stroke-opacity="0.5" stroke-width="2.79592" stroke-linecap="round"/>
<path d="M141.277 106.996C141.277 123.414 139.903 163.027 132.174 166.025" stroke="#C5A687" stroke-opacity="0.5" stroke-width="2.79592" stroke-linecap="round"/>
<path fill-rule="evenodd" clip-rule="evenodd" d="M146.663 3.53733C127.008 -3.77869 110.834 1.87191 104.794 6.01151C100.771 8.56776 93.6909 15.1329 86.8116 27.108C83.7812 33.3527 79.4794 40.6082 74.2891 47.6332C82.4287 51.3695 106.254 43.4672 122.051 31.4575C136.609 20.3897 146.826 10.4393 146.663 3.53733Z" fill="#DC7747" fill-opacity="0.7"/>
<path d="M155.682 10.8406C154.51 12.8703 150.929 12.9968 147.684 11.1231C144.438 9.24937 141.705 6.76146 142.877 4.73179C144.049 2.70211 148.682 1.89925 151.927 3.77295C155.173 5.64665 156.854 8.81097 155.682 10.8406Z" fill="#E6D2BA"/>
<path d="M151.83 8.67721C150.84 10.3918 148.244 10.746 146.03 9.46822C143.817 8.19046 142.017 6.38272 143.007 4.6681C143.997 2.95348 147.402 1.98125 149.615 3.25902C151.828 4.53678 152.82 6.96259 151.83 8.67721Z" fill="#F6ECE0"/>
<path d="M137.02 30.991C137.088 26.0292 132.011 21.9365 125.68 21.8498C119.35 21.7631 113.769 28.2862 113.701 33.248C113.633 38.2098 119.103 39.7315 125.434 39.8182C131.765 39.9049 136.952 35.9529 137.02 30.991Z" fill="#E6D2BA"/>
<path d="M131.093 29.1018C131.14 25.6933 127.596 22.8811 123.177 22.8206C118.759 22.76 114.865 27.2402 114.818 30.6487C114.771 34.0572 118.59 35.1033 123.008 35.1638C127.427 35.2243 131.047 32.5103 131.093 29.1018Z" fill="#F6ECE0"/>
<path d="M185.105 43.0711C186.919 40.3664 185.592 36.2978 182.141 33.9836C178.69 31.6694 173.285 33.2592 171.471 35.9639C169.658 38.6686 172.122 41.464 175.572 43.7782C179.023 46.0924 183.291 45.7758 185.105 43.0711Z" fill="#E6D2BA"/>
<path d="M181.147 40.6519C182.415 38.7608 181.487 35.916 179.075 34.298C176.662 32.6799 172.883 33.7915 171.614 35.6826C170.346 37.5737 172.069 39.5283 174.482 41.1463C176.895 42.7644 179.879 42.5431 181.147 40.6519Z" fill="#F6ECE0"/>
<path d="M98.3929 14.6125C97.1618 12.9657 94.092 13.1794 91.5364 15.0899C88.9807 17.0005 88.4015 20.8473 89.6326 22.4942C90.8638 24.141 93.439 22.9642 95.9947 21.0537C98.5503 19.1432 99.624 16.2594 98.3929 14.6125Z" fill="#E6D2BA"/>
<path d="M95.9779 14.597C95.1358 13.4705 93.0388 13.6146 91.2941 14.9189C89.5494 16.2231 89.1562 18.8523 89.9983 19.9787C90.8405 21.1052 92.599 20.3025 94.3437 18.9982C96.0884 17.694 96.82 15.7234 95.9779 14.597Z" fill="#F6ECE0"/>
<path d="M77.2224 46.5405C76.1131 45.0566 73.3471 45.2492 71.0444 46.9706C68.7417 48.6921 68.2198 52.1583 69.3291 53.6422C70.4383 55.126 72.7588 54.0657 75.0615 52.3442C77.3642 50.6228 78.3317 48.0244 77.2224 46.5405Z" fill="#E6D2BA"/>
<path d="M75.6789 46.0809C74.9325 45.0826 73.0715 45.2122 71.5222 46.3704C69.9729 47.5286 69.6218 49.8607 70.3681 50.859C71.1145 51.8574 72.6757 51.144 74.225 49.9858C75.7743 48.8276 76.4252 47.0793 75.6789 46.0809Z" fill="#F6ECE0"/>
<path d="M194.461 43.3569C195.57 41.873 198.336 42.0656 200.639 43.7871C202.942 45.5085 203.464 48.9747 202.355 50.4586C201.245 51.9424 198.925 50.8821 196.622 49.1606C194.319 47.4392 193.352 44.8408 194.461 43.3569Z" fill="#E6D2BA"/>
<path d="M194.515 43.33C195.344 42.2209 197.411 42.3648 199.132 43.6515C200.854 44.9381 201.244 47.5288 200.415 48.6379C199.585 49.747 197.851 48.9545 196.13 47.6678C194.409 46.3812 193.686 44.439 194.515 43.33Z" fill="#F6ECE0"/>
<path d="M95.1534 103.31C95.1534 107.619 98.6465 111.112 102.956 111.112C107.073 110.137 110.758 107.619 110.758 103.31C110.758 99.001 107.265 95.5078 102.956 95.5078C98.6465 95.5078 96.0203 99.0838 95.1534 103.31Z" fill="#8D705A"/>
<path d="M95.1534 103.31C95.1534 107.619 98.6465 111.112 102.956 111.112C107.073 110.137 110.758 107.619 110.758 103.31C110.758 99.001 107.265 95.5078 102.956 95.5078C98.6465 95.5078 96.0203 99.0838 95.1534 103.31Z" stroke="#5F4B3D"/>
<path d="M104.377 107.643C110.711 102.958 106.799 97.8106 103.726 95.6055C114.79 98.642 110.017 109.487 105.027 110.029C102.388 111.331 98.0418 112.328 104.377 107.643Z" fill="#81634C"/>
<ellipse cx="4.24246" cy="4.48628" rx="4.24246" ry="4.48628" transform="matrix(-1 0 0 1 106.863 98.7266)" fill="#BC9183"/>
<path d="M105.806 100.002C109.243 103.059 106.183 107.419 103.882 108.09L102.081 105.311C105.983 103.586 103.005 97.5102 105.806 100.002Z" fill="#B59084"/>
<path d="M74.7723 103.111C74.7723 107.42 71.2573 110.913 66.9213 110.913C62.7777 109.938 59.0703 107.42 59.0703 103.111C59.0703 98.8018 62.5853 95.3086 66.9213 95.3086C71.2573 95.3086 73.9 98.8846 74.7723 103.111Z" fill="#8D705A"/>
<path d="M74.7723 103.111C74.7723 107.42 71.2573 110.913 66.9213 110.913C62.7777 109.938 59.0703 107.42 59.0703 103.111C59.0703 98.8018 62.5853 95.3086 66.9213 95.3086C71.2573 95.3086 73.9 98.8846 74.7723 103.111Z" stroke="#5F4B3D"/>
<path d="M67.7931 107.543C74.1032 102.855 70.22 97.8122 67.1586 95.6055C77.5314 96.9078 73.4117 109.388 68.4414 109.931C65.8122 111.233 61.483 112.232 67.7931 107.543Z" fill="#81634C"/>
<path d="M63.8948 127.889C64.6971 127.354 65.9378 127.666 66.4578 127.889L69.801 134.679C67.6465 140.246 63.0033 151.601 61.666 152.491C59.9945 153.604 57.8771 154.272 54.6454 153.159C51.4138 152.046 50.8566 146.257 55.7598 139.021C60.6631 131.785 62.8918 128.557 63.8948 127.889Z" fill="#8D705A"/>
<rect width="38.621" height="19.3105" transform="matrix(-1 0 0 1 104.223 126.129)" fill="#8D705A"/>
<path d="M108.564 155.088C106.693 145.63 105.276 142.35 105.42 141.734H64.2459C64.3904 142.35 62.478 145.545 61.1022 155.088C59.3492 167.247 64.2273 172.349 65.9617 174.846C66.2951 175.326 73.1163 177.343 81.5717 175.389C82.092 174.521 82.9448 169.273 83.0893 168.333C84.2167 168.506 86.4137 168.405 86.6666 168.333C86.8111 169.273 88.3143 174.521 88.8347 175.389C97.7237 177.452 102.941 175.253 103.361 174.846C106.504 171.807 110.84 166.596 108.564 155.088Z" fill="#8D705A"/>
<path d="M69.5093 149.976C69.5093 162.961 76.4084 166.702 84.9187 166.702C93.4291 166.702 100.328 163.401 100.328 149.976C100.328 140.738 93.4291 133.25 84.9187 133.25C76.4084 133.25 69.5093 140.738 69.5093 149.976Z" fill="#B4907A"/>
<path d="M108.896 157.242C107.573 149.219 105.351 142.039 105.098 139.324C104.953 137.478 104.294 137.152 103.687 137.152C102.927 137.152 103.252 139.867 105.098 150.727C106.943 161.586 102.818 168.971 100.539 170.925C97.88 173.206 91.8344 174.476 88.0357 172.848L88.926 175.161C97.3916 177.224 102.493 175.161 103.035 174.835C103.578 174.509 110.741 168.428 108.896 157.242Z" fill="#81634C"/>
<path d="M64.6097 137.988C64.3494 139.203 64.2481 141.855 64.1758 142.976L61.9957 152.168C59.6091 154.012 52.4598 155.01 52.2429 149.373C53.6531 151.433 55.6058 151.758 56.7991 151.433C58.3178 151.433 60.162 146.662 60.5959 144.385C61.0198 142.161 64.9352 136.47 64.6097 137.988Z" fill="#81634C"/>
<path d="M81.1612 175.295C81.9485 175.145 82.5018 171.44 82.5742 170.431L82.3568 170.215C81.7409 172.233 79.4874 175.468 64.5316 172.269C64.8794 172.874 65.8721 174.467 66.2706 174.863C73.6616 176.917 78.3353 175.836 81.1612 175.295Z" fill="#81634C"/>
<path d="M94.4827 165.581C92.0078 167.175 88.5872 168.048 86.7522 168.328C86.8404 169.243 87.5386 171.485 88.3817 173.866C90.6344 174.511 91.883 174.965 92.761 174.983C92.6151 174.228 92.3284 172.316 92.3491 170.713C92.3749 168.709 97.5765 163.589 94.4827 165.581Z" fill="#81634C"/>
<path d="M74.2154 166.376C76.8075 167.697 81.1277 168.228 82.9637 168.328C82.9637 169.228 82.456 171.48 81.8512 173.881C79.6912 174.722 77.6715 175.282 76.8075 175.382C76.8795 174.632 76.9803 172.741 76.8075 171.18C76.5915 169.228 70.9753 164.725 74.2154 166.376Z" fill="#81634C"/>
<ellipse cx="4.77886" cy="4.68133" rx="4.77886" ry="4.68133" transform="matrix(-1 0 0 1 71.75 98.5273)" fill="#BC9183"/>
<path d="M70.2895 99.8331C73.9813 103.027 70.6947 107.584 68.2231 108.285L66.2887 105.381C70.4798 103.578 67.2805 97.2295 70.2895 99.8331Z" fill="#B59084"/>
<path d="M59.539 117.652C58.7455 125.57 63.7432 130.786 84.9186 131.981C103.725 131.546 110.787 125.57 109.427 117.652C106.773 102.207 98.5142 96.7734 84.9186 96.7734C71.323 96.7734 64.6124 100.033 59.539 117.652Z" fill="#8D705A"/>
<path d="M59.539 117.652C58.7455 125.57 63.7432 130.786 84.9186 131.981C103.725 131.546 110.787 125.57 109.427 117.652C106.773 102.207 98.5142 96.7734 84.9186 96.7734C71.323 96.7734 64.6124 100.033 59.539 117.652Z" stroke="#7D6655"/>
<path d="M94.4948 98.1406C94.5194 98.1472 94.5444 98.154 94.5696 98.161C95.6156 98.4685 97.8251 100.019 100.028 104.004C102.848 109.108 104.259 118.297 104.259 120.619C104.259 122.79 103.716 124.962 100.57 127.351C97.5155 129.671 82.5613 133.106 65.312 128.003C76.2691 132.998 91.6742 131.695 99.3767 129.849C107.079 128.003 109.032 123.225 109.357 120.401C109.683 117.578 107.839 110.52 104.801 105.308C102.396 101.18 97.0282 98.84 94.5696 98.161C94.544 98.1535 94.519 98.1467 94.4948 98.1406Z" fill="#81634C"/>
<ellipse cx="5.55909" cy="4.87639" rx="5.55909" ry="4.87639" transform="matrix(-1 0 0 1 90.375 117.84)" fill="#B4907A"/>
<path d="M81.6961 120.657C81.6961 121.32 83.1589 121.486 84.9633 121.486C86.7677 121.486 88.2305 121.32 88.2305 120.657C88.2305 119.994 86.7677 119.828 84.9633 119.828C83.1589 119.828 81.6961 119.994 81.6961 120.657Z" fill="#5F4B3D"/>
<path d="M76.332 115.503C75.3987 114.914 73.0583 114.09 71.1631 115.503" stroke="#5F4B3D" stroke-width="1.62072" stroke-linecap="round"/>
<path d="M98.082 115.503C97.1487 114.914 94.8083 114.09 92.9131 115.503" stroke="#5F4B3D" stroke-width="1.62072" stroke-linecap="round"/>
<path d="M82.4798 124.28C83.4338 124.28 84.918 124.28 84.918 120.477" stroke="#5F4B3D" stroke-width="1.62072" stroke-linecap="round"/>
<path d="M87.3521 124.28C86.3599 124.28 84.8164 124.28 84.8164 120.477" stroke="#5F4B3D" stroke-width="1.62072" stroke-linecap="round"/>
<ellipse cx="4.68133" cy="4.14493" rx="4.68133" ry="4.14493" transform="matrix(-1 0 0 1 71.2617 116.574)" fill="#CF938B"/>
<ellipse cx="92.375" cy="112.267" rx="1.21731" ry="1.63894" transform="rotate(65.5568 92.375 112.267)" fill="#B4907A"/>
<ellipse cx="1.21731" cy="1.63894" rx="1.21731" ry="1.63894" transform="matrix(-0.413791 0.910372 0.910372 0.413791 76.1914 110.48)" fill="#B4907A"/>
<ellipse cx="4.68133" cy="4.14493" rx="4.68133" ry="4.14493" transform="matrix(-1 0 0 1 106.664 116.574)" fill="#CF938B"/>
<path d="M103.81 116.863C104.029 118.633 104.291 122.672 103.153 124.666C108.735 122.823 106.656 117.622 103.81 116.863Z" fill="#C58D85"/>
<path d="M63.1438 108.673C65.6578 102.475 70.8376 99.3982 73.1133 98.6344L72.4631 97.6523C67.9551 98.0888 63.8301 104.854 62.3852 108.127L63.1438 108.673Z" fill="#927763" fill-opacity="0.3"/>
<path d="M65.461 127.913C81.3823 134.676 98.3762 129.581 104.883 126.188C106.115 127.074 108.204 129.187 105.364 129.745C102.524 130.303 101.621 130.993 100.562 131.581C91.8791 134.021 73.5846 131.714 65.461 127.913Z" fill="#81634C"/>
<path d="M106.67 142.947C105.872 143.481 104.638 143.17 104.121 142.947L100.797 136.156C102.939 130.59 107.557 119.235 108.887 118.345C110.549 117.232 112.655 116.564 115.868 117.677C119.082 118.79 119.636 124.579 114.76 131.815C109.884 139.051 107.668 142.279 106.67 142.947Z" fill="#8D705A"/>
<path d="M114.475 127.559C113.083 130.682 106.954 140.343 104.43 139.89C102.938 139.623 103.653 144.551 105.343 144.551C106.135 144.551 107.115 142.91 115.05 131.197C122.276 120.531 116.695 117.303 113.963 116.989C111.137 116.664 108.745 118.182 108.093 118.941C106.934 120.966 105.97 122.691 108.496 120.943C114.366 116.881 116.214 123.654 114.475 127.559Z" fill="#81634C"/>
<defs>
<filter id="filter0_f_2459_1961" x="56" y="145" width="151" height="41" filterUnits="userSpaceOnUse" color-interpolation-filters="sRGB">
<feFlood flood-opacity="0" result="BackgroundImageFix"/>
<feBlend mode="normal" in="SourceGraphic" in2="BackgroundImageFix" result="shape"/>
<feGaussianBlur stdDeviation="5" result="effect1_foregroundBlur_2459_1961"/>
</filter>
</defs>
</svg>