<svg width="245" height="211" viewBox="0 0 245 211" fill="none" xmlns="http://www.w3.org/2000/svg">
<g opacity="0.5">
<ellipse cx="153.035" cy="153" rx="61.1759" ry="24" fill="white"/>
<ellipse cx="184" cy="184" rx="61" ry="13" fill="white"/>
<ellipse cx="101" cy="188.5" rx="101" ry="9.5" fill="white"/>
<ellipse cx="92.5187" cy="136" rx="28.7648" ry="31" fill="white"/>
<ellipse cx="64" cy="148" rx="11" ry="12" fill="white"/>
<ellipse cx="132" cy="171" rx="44" ry="31" fill="white"/>
<ellipse cx="122.765" cy="148" rx="28.7648" ry="31" fill="white"/>
<ellipse cx="78.7648" cy="167" rx="28.7648" ry="31" fill="white"/>
<ellipse cx="44.8056" cy="165.5" rx="21.8056" ry="23.5" fill="white"/>
<g filter="url(#filter0_f_2459_2063)">
<ellipse cx="115.5" cy="163.5" rx="65.5" ry="10.5" fill="#C7D2D6"/>
</g>
</g>
<path d="M84.8172 145.09C94.6392 140.806 102.919 150.015 105.831 155.155L104.405 159.172C100.746 156.064 97.0384 156.238 93.8999 157.36C90.7613 158.481 86.82 161.339 81.3305 162.637C71.1951 164.745 64.4563 165.075 62.3538 164.976C65.7491 160.132 74.9952 149.374 84.8172 145.09Z" fill="#678D3A" stroke="#678D3A" stroke-width="0.170624"/>
<path d="M82.4913 112.084C80.7711 134.432 93.3173 147.583 99.8055 151.365L103.082 144.59C101.49 139.263 98.9808 134.832 97.9096 133.302C96.8176 131.413 93.9624 127.184 91.4022 125.219C88.842 123.253 84.3948 115.643 82.4913 112.084Z" fill="#5A7639" stroke="#5A7639" stroke-width="0.1092"/>
<path d="M180.14 59.4326C192.866 66.6045 192.326 70.4087 192.098 71.9618C191.056 79.0605 177.328 82.8433 170.871 84.6225L170.674 84.6768C137.762 93.7497 73.3969 81.0347 60.2323 78.6585C47.0677 76.2823 38.184 72.447 32.2575 69.3696C28.4248 67.3795 25.9919 64.3907 25.6993 63.2746C25.2971 60.7183 26.3773 56.5596 32.2575 54.1402C40.5073 51.4615 46.5191 46.1834 48.4938 43.8792L73.3969 19.9009C77.1634 16.6606 86.2763 9.44552 92.5953 6.50761C114.8 -4.37982 133.588 1.97118 140.207 6.50761C144.23 9.06385 151.31 15.629 158.19 27.6041C162.907 37.325 170.705 49.4957 180.14 59.4326Z" fill="#BC643A" stroke="#C96F44" stroke-width="0.69898"/>
<path d="M46.4622 61.2069C110.793 38.6041 156.935 58.9161 171.965 71.8975C159.502 81.4971 133.641 82.0062 122.268 81.0608C120.513 88.3914 125.121 99.9692 127.644 104.842C142.125 132.877 143.33 157.746 138.614 162.767C133.117 168.62 115.252 168.824 107.133 164.242C91.0726 155.777 95.2078 104.224 97.9139 76.8064C66.8454 73.3156 50.6676 64.9522 46.4622 61.2069Z" fill="#E8D9C6" stroke="#E8D9C6" stroke-width="0.69898"/>
<path d="M122.08 81.5414C123.642 96.6603 123.642 95.0404 129.557 107.676C89.6356 118.425 105.178 157.408 104.413 161.485C104.035 163.504 88.6945 142.174 94.8521 104.412C94.8521 98.042 96.6375 84.0972 97.307 77.8696C78.4706 76.8329 57.8502 67.9704 50.1877 64.1546C42.0593 60.3748 51.6014 58.2195 54.9027 60.3748C65.7047 64.6081 70.2887 62.9307 70.9211 61.2388C71.1443 60.8068 71.3553 58.299 69.8558 57.459C63.8529 54.0963 69.7814 54.9032 70.3022 54.5433C70.9346 54.1473 72.4671 53.7009 73.5383 55.0832C76.1272 58.7981 82.7259 61.5268 85.7017 62.4267C88.5286 62.9307 94.3164 63.7658 94.8521 63.0746C95.3877 62.3835 94.7777 61.5627 94.4057 61.2388C92.3227 58.395 87.5268 51.4497 90.8298 50.3266C94.1329 49.2035 96.0132 49.502 97.307 54.5433C97.6046 57.2791 100.275 63.4202 108.578 66.0984C118.956 69.4462 127.102 65.1265 128.664 64.1546C132.324 61.9947 134.095 56.8111 134.801 55.0832C134.243 52.7906 139.154 53.5281 139.6 55.0832C140.225 58.1934 137.703 62.1747 136.587 62.7507C135.359 63.7226 133.284 65.7529 134.801 66.0984C146.295 69.2302 155.222 61.4548 156.004 61.1308C161.003 59.2301 160.765 61.9227 160.021 63.5066L152.321 69.7702C154.144 70.4541 158.235 72.3715 160.021 71.7668C164.221 71.7668 169.572 68.5956 170.51 69.5542C171.407 70.471 173.434 71.698 171.761 73.5339C155.067 83.1236 131.751 83.0533 122.08 81.5414Z" fill="#C5A687" stroke="#C5A687" stroke-width="0.69898"/>
<path d="M107.036 47.6026C145.451 48.1423 166.745 63.1096 172.617 71.9963C156.402 56.7989 122.847 52.5676 107.036 51.7041C91.2241 50.8407 60.8034 56.7053 46.0175 61.3106C69.6183 46.545 94.8321 47.6025 107.036 47.6026Z" fill="#A46C53" stroke="#A46C53" stroke-width="0.69898"/>
<path d="M119.443 107.977C125.321 126.934 135.562 163.215 126.642 166.578" stroke="#C5A687" stroke-opacity="0.5" stroke-width="2.79592" stroke-linecap="round"/>
<path d="M103.723 106.996C103.723 123.414 105.097 163.027 112.826 166.025" stroke="#C5A687" stroke-opacity="0.5" stroke-width="2.79592" stroke-linecap="round"/>
<path fill-rule="evenodd" clip-rule="evenodd" d="M98.3368 3.53733C117.992 -3.77869 134.166 1.87191 140.206 6.01151C144.229 8.56776 151.309 15.1329 158.188 27.108C161.219 33.3527 165.521 40.6082 170.711 47.6332C162.571 51.3695 138.746 43.4672 122.949 31.4575C108.391 20.3897 98.1741 10.4393 98.3368 3.53733Z" fill="#DC7747" fill-opacity="0.7"/>
<path d="M89.3183 10.8406C90.4902 12.8703 94.071 12.9968 97.3163 11.1231C100.562 9.24937 103.295 6.76146 102.123 4.73179C100.951 2.70211 96.3181 1.89925 93.0727 3.77295C89.8274 5.64665 88.1465 8.81097 89.3183 10.8406Z" fill="#E6D2BA"/>
<path d="M93.1699 8.67721C94.1598 10.3918 96.7565 10.746 98.9696 9.46822C101.183 8.19046 102.983 6.38272 101.993 4.6681C101.003 2.95348 97.5979 1.98125 95.3847 3.25902C93.1716 4.53678 92.18 6.96259 93.1699 8.67721Z" fill="#F6ECE0"/>
<path d="M107.98 30.991C107.912 26.0292 112.989 21.9365 119.32 21.8498C125.65 21.7631 131.231 28.2862 131.299 33.248C131.367 38.2098 125.897 39.7315 119.566 39.8182C113.235 39.9049 108.048 35.9529 107.98 30.991Z" fill="#E6D2BA"/>
<path d="M113.907 29.1018C113.86 25.6933 117.404 22.8811 121.823 22.8206C126.241 22.76 130.135 27.2402 130.182 30.6487C130.229 34.0572 126.41 35.1033 121.992 35.1638C117.573 35.2243 113.953 32.5103 113.907 29.1018Z" fill="#F6ECE0"/>
<path d="M59.8951 43.0711C58.0812 40.3664 59.4083 36.2978 62.8591 33.9836C66.3099 31.6694 71.7147 33.2592 73.5285 35.9639C75.3423 38.6686 72.8784 41.464 69.4275 43.7782C65.9767 46.0924 61.7089 45.7758 59.8951 43.0711Z" fill="#E6D2BA"/>
<path d="M63.853 40.6519C62.5848 38.7608 63.5127 35.916 65.9255 34.298C68.3383 32.6799 72.1173 33.7915 73.3855 35.6826C74.6537 37.5737 72.9309 39.5283 70.5181 41.1463C68.1053 42.7644 65.1212 42.5431 63.853 40.6519Z" fill="#F6ECE0"/>
<path d="M146.607 14.6125C147.838 12.9657 150.908 13.1794 153.464 15.0899C156.019 17.0005 156.598 20.8473 155.367 22.4942C154.136 24.141 151.561 22.9642 149.005 21.0537C146.45 19.1432 145.376 16.2594 146.607 14.6125Z" fill="#E6D2BA"/>
<path d="M149.022 14.597C149.864 13.4705 151.961 13.6146 153.706 14.9189C155.451 16.2231 155.844 18.8523 155.002 19.9787C154.16 21.1052 152.401 20.3025 150.656 18.9982C148.912 17.694 148.18 15.7234 149.022 14.597Z" fill="#F6ECE0"/>
<path d="M167.778 46.5405C168.887 45.0566 171.653 45.2492 173.956 46.9706C176.258 48.6921 176.78 52.1583 175.671 53.6422C174.562 55.126 172.241 54.0657 169.939 52.3442C167.636 50.6228 166.668 48.0244 167.778 46.5405Z" fill="#E6D2BA"/>
<path d="M169.321 46.0809C170.067 45.0826 171.928 45.2122 173.478 46.3704C175.027 47.5286 175.378 49.8607 174.632 50.859C173.886 51.8574 172.324 51.144 170.775 49.9858C169.226 48.8276 168.575 47.0793 169.321 46.0809Z" fill="#F6ECE0"/>
<path d="M50.5388 43.3569C49.4295 41.873 46.6635 42.0656 44.3608 43.7871C42.0581 45.5085 41.5362 48.9747 42.6455 50.4586C43.7548 51.9424 46.0752 50.8821 48.3779 49.1606C50.6806 47.4392 51.6481 44.8408 50.5388 43.3569Z" fill="#E6D2BA"/>
<path d="M50.4851 43.33C49.656 42.2209 47.5887 42.3648 45.8675 43.6515C44.1464 44.9381 43.7563 47.5288 44.5854 48.6379C45.4146 49.747 47.1489 48.9545 48.87 47.6678C50.5911 46.3812 51.3143 44.439 50.4851 43.33Z" fill="#F6ECE0"/>
<path d="M190.869 136.513C194.98 139.362 188.963 151.845 185.44 157.731L181.014 140.224C183.421 138.359 188.761 135.006 190.869 136.513Z" fill="url(#paint0_linear_2459_2063)" stroke="url(#paint1_linear_2459_2063)" stroke-width="0.442336" stroke-linecap="round"/>
<path d="M122.223 158.676C118.987 155.233 130.34 142.125 135.264 136.789L139.495 153.083C136.687 154.583 123.871 160.487 122.223 158.676Z" fill="url(#paint2_linear_2459_2063)" stroke="url(#paint3_linear_2459_2063)" stroke-width="0.442336" stroke-linecap="round"/>
<path d="M159.498 119.178C177.298 122.119 177.298 134.624 181.292 142.274L186.064 151.718L186.064 159.269C187.154 161.872 189.837 167.772 187.944 169.855C179.647 176.971 162.379 175.929 153.768 175.929C145.866 175.929 142.933 174.639 136.656 173.182C133.173 171.547 125.946 160.937 128.286 151.718C129.683 146.214 130.898 143.878 136.656 133.321C138.219 130.456 143.191 119.457 159.498 119.178Z" fill="url(#paint4_linear_2459_2063)" stroke="url(#paint5_linear_2459_2063)" stroke-width="0.442336"/>
<path d="M172.604 137.18C170.746 135.942 169.054 135.629 166.326 137.044" stroke="#5F4B3D" stroke-width="1.28663" stroke-linecap="round"/>
<path d="M155.629 136.417C154.589 135.064 152.124 134.456 149.479 136.167" stroke="#5F4B3D" stroke-width="1.28663" stroke-linecap="round"/>
<path d="M157.12 143.086C158.989 144.605 161.237 144.74 163.473 143.239C164.644 142.453 163.841 140.958 162.379 140.946L158.342 140.912C156.961 140.901 156.095 142.253 157.12 143.086Z" fill="#DCB059"/>
<path d="M192.099 137.515C193.04 142.202 187.218 154.331 185.447 156.822L184.158 152.073C186.46 148.45 192.14 137.74 192.099 137.515Z" fill="#F3ECA8" stroke="#FDFCE1" stroke-width="0.0783789" stroke-linecap="round"/>
<path d="M156.787 139.445C159.053 137.729 161.65 137.737 164.042 139.766C165.101 140.664 164.166 142.089 162.711 142.004L157.856 141.72C156.481 141.64 155.732 140.245 156.787 139.445Z" fill="#EBC376" stroke="#EBC376" stroke-width="0.442336" stroke-linecap="round"/>
<path fill-rule="evenodd" clip-rule="evenodd" d="M141.252 175.057C141.465 174.116 141.672 173.16 141.88 172.197C144.322 160.923 146.964 148.723 161.67 149.582C174.755 150.346 176.584 165.092 176.537 174.525C168.527 176.449 159.251 176.228 153.995 175.601C150.993 176.017 146.103 175.682 141.252 175.057Z" fill="#FDFCE1"/>
<path d="M141.252 175.057L141.231 175.264L140.973 175.231L141.024 175.004L141.252 175.057ZM141.88 172.197L142.108 172.248L141.88 172.197ZM161.67 149.582L161.673 149.372L161.67 149.582ZM176.537 174.525L176.769 174.537L176.768 174.689L176.608 174.728L176.537 174.525ZM153.995 175.601L153.947 175.394L153.98 175.389L154.012 175.393L153.995 175.601ZM141.024 175.004C141.237 174.064 141.444 173.109 141.652 172.146L142.108 172.248C141.899 173.211 141.692 174.168 141.479 175.109L141.024 175.004ZM141.652 172.146C142.871 166.519 144.148 160.613 146.974 156.227C148.39 154.029 150.2 152.203 152.595 150.983C154.992 149.763 157.959 149.155 161.673 149.372L161.668 149.791C158.029 149.579 155.151 150.174 152.839 151.352C150.526 152.53 148.766 154.298 147.378 156.453C144.596 160.77 143.331 166.602 142.108 172.248L141.652 172.146ZM161.673 149.372C164.996 149.566 167.616 150.65 169.67 152.322C171.719 153.991 173.192 156.235 174.244 158.737C176.347 163.737 176.792 169.814 176.769 174.537L176.305 174.512C176.328 169.802 175.882 163.79 173.812 158.868C172.777 156.408 171.342 154.233 169.37 152.628C167.402 151.025 164.887 149.979 161.668 149.791L161.673 149.372ZM176.608 174.728C168.561 176.661 159.252 176.438 153.977 175.809L154.012 175.393C159.25 176.017 168.494 176.237 176.466 174.322L176.608 174.728ZM154.042 175.809C151.004 176.229 146.083 175.89 141.231 175.264L141.272 174.849C146.122 175.474 150.983 175.804 153.947 175.394L154.042 175.809Z" fill="#FDFCE1"/>
<path fill-rule="evenodd" clip-rule="evenodd" d="M156.515 119.747C141.131 121.942 135.258 135.495 137.101 151.11C137.418 153.799 136.422 152.465 134.304 149.631C133.033 147.928 131.357 145.685 129.318 143.446C130.814 141.656 132.056 140.497 132.748 139.852C133.007 139.611 133.189 139.441 133.278 139.337C133.553 139.017 133.939 138.203 134.472 137.08C136.977 131.803 142.726 119.691 155.397 119.691C155.775 119.704 156.148 119.723 156.515 119.747Z" fill="#D7BD62"/>
<path fill-rule="evenodd" clip-rule="evenodd" d="M188.116 169.363C188.018 169.649 187.883 169.903 187.702 170.117C180.796 176.487 167.204 176.32 158.688 176.215C157.692 176.203 156.766 176.191 155.927 176.191C148.581 176.191 143.03 175.046 137.194 173.588C134.645 172.301 127.575 164.384 128.98 157.347C130.617 157.258 132.22 156.969 133.232 155.8C133.418 155.585 133.408 155.878 133.385 156.522C133.231 160.877 132.51 181.28 188.116 169.363Z" fill="url(#paint6_linear_2459_2063)" fill-opacity="0.8"/>
<path d="M187.849 163.094C191.476 163.061 185.653 171.48 182.288 175.693C176.289 181.12 173.061 166.145 172.919 164.368C172.777 162.592 174.881 161.808 176.205 161.429C177.529 161.05 178.646 164.016 180.083 162.5C181.519 160.984 181.962 160.599 183.334 160.813C184.705 161.026 183.316 163.135 187.849 163.094Z" fill="#EBC376"/>
<path fill-rule="evenodd" clip-rule="evenodd" d="M183.509 174.118C186.851 169.681 191.066 163.065 187.849 163.094C184.882 163.121 184.452 162.226 184.125 161.546C183.952 161.186 183.807 160.886 183.334 160.813C181.962 160.599 181.519 160.984 180.083 162.5C179.258 163.371 178.538 162.763 177.823 162.16C177.294 161.713 176.768 161.268 176.205 161.429C175.019 161.769 173.207 162.433 172.944 163.844C173.615 163.388 174.46 163.101 175.115 162.914C175.678 162.753 176.204 163.197 176.734 163.644C177.448 164.247 178.168 164.856 178.993 163.984C180.429 162.468 180.872 162.084 182.244 162.297C182.718 162.371 182.862 162.671 183.035 163.03C183.362 163.711 183.792 164.605 186.76 164.578C189.632 164.553 186.576 169.829 183.509 174.118Z" fill="#DCB059"/>
<path d="M136.463 164.492C132.836 164.46 138.659 172.878 142.024 177.092C148.024 182.518 151.252 167.543 151.394 165.767C151.536 163.991 149.432 163.207 148.108 162.828C146.784 162.449 145.666 165.415 144.23 163.899C142.794 162.382 142.35 161.998 140.979 162.211C139.608 162.424 140.997 164.533 136.463 164.492Z" fill="#EBC376"/>
<path fill-rule="evenodd" clip-rule="evenodd" d="M140.803 175.52C137.461 171.083 133.247 164.467 136.463 164.496C139.43 164.523 139.86 163.629 140.188 162.948C140.361 162.589 140.505 162.289 140.979 162.215C142.35 162.002 142.794 162.386 144.23 163.902C145.055 164.774 145.775 164.165 146.489 163.562C147.018 163.115 147.544 162.671 148.108 162.832C149.293 163.171 151.105 163.835 151.368 165.247C150.698 164.79 149.852 164.503 149.197 164.316C148.634 164.155 148.108 164.599 147.579 165.046C146.865 165.65 146.145 166.258 145.32 165.387C143.883 163.87 143.44 163.486 142.069 163.699C141.595 163.773 141.451 164.073 141.278 164.432C140.95 165.113 140.52 166.007 137.553 165.981C134.68 165.955 137.736 171.231 140.803 175.52Z" fill="#DCB059"/>
<path fill-rule="evenodd" clip-rule="evenodd" d="M180.105 141.31L178.053 144.26C178.315 139.166 176.843 129.786 170.27 124.168C178.04 128.582 180.107 135.765 180.105 141.31Z" fill="#F3ECA8"/>
<path fill-rule="evenodd" clip-rule="evenodd" d="M131.288 141.151C126.033 147.323 119.675 155.894 122.201 158.581C122.463 158.869 123.008 158.962 123.752 158.908C127.434 146.958 134.094 145.363 137.013 146.086L131.288 141.151Z" fill="#D7BD62"/>
<defs>
<filter id="filter0_f_2459_2063" x="40" y="143" width="151" height="41" filterUnits="userSpaceOnUse" color-interpolation-filters="sRGB">
<feFlood flood-opacity="0" result="BackgroundImageFix"/>
<feBlend mode="normal" in="SourceGraphic" in2="BackgroundImageFix" result="shape"/>
<feGaussianBlur stdDeviation="5" result="effect1_foregroundBlur_2459_2063"/>
</filter>
<linearGradient id="paint0_linear_2459_2063" x1="192.008" y1="136" x2="182.59" y2="135.678" gradientUnits="userSpaceOnUse">
<stop offset="0.41" stop-color="#ECE392"/>
<stop offset="1" stop-color="#F1E04E"/>
</linearGradient>
<linearGradient id="paint1_linear_2459_2063" x1="193.427" y1="155.127" x2="187.375" y2="136.56" gradientUnits="userSpaceOnUse">
<stop offset="0.41" stop-color="#ECE392"/>
<stop offset="1" stop-color="#F1E04E"/>
</linearGradient>
<linearGradient id="paint2_linear_2459_2063" x1="125.546" y1="138.422" x2="128.867" y2="158.182" gradientUnits="userSpaceOnUse">
<stop offset="0.41" stop-color="#ECE392"/>
<stop offset="1" stop-color="#F1E04E"/>
</linearGradient>
<linearGradient id="paint3_linear_2459_2063" x1="125.546" y1="138.422" x2="128.867" y2="158.182" gradientUnits="userSpaceOnUse">
<stop offset="0.41" stop-color="#ECE392"/>
<stop offset="1" stop-color="#F1E04E"/>
</linearGradient>
<linearGradient id="paint4_linear_2459_2063" x1="171.508" y1="120" x2="139.231" y2="162.055" gradientUnits="userSpaceOnUse">
<stop offset="0.41" stop-color="#ECE392"/>
<stop offset="1" stop-color="#F1E04E"/>
</linearGradient>
<linearGradient id="paint5_linear_2459_2063" x1="161.403" y1="119.289" x2="158.073" y2="176.288" gradientUnits="userSpaceOnUse">
<stop offset="0.41" stop-color="#ECE392"/>
<stop offset="1" stop-color="#F1E04E"/>
</linearGradient>
<linearGradient id="paint6_linear_2459_2063" x1="140.017" y1="172.283" x2="179.739" y2="171.514" gradientUnits="userSpaceOnUse">
<stop stop-color="#E3CB79"/>
<stop offset="1" stop-color="#E8D283" stop-opacity="0"/>
</linearGradient>
</defs>
</svg>
