<svg width="245" height="97" viewBox="0 0 245 97" fill="none" xmlns="http://www.w3.org/2000/svg">
<g opacity="0.6">
<ellipse cx="61.1759" cy="24" rx="61.1759" ry="24" transform="matrix(-1 0 0 1 153.141 24)" fill="white"/>
<ellipse cx="61" cy="13" rx="61" ry="13" transform="matrix(-1 0 0 1 122 66)" fill="white"/>
<ellipse cx="101" cy="9.5" rx="101" ry="9.5" transform="matrix(-1 0 0 1 245 74)" fill="white"/>
<ellipse cx="28.7648" cy="31" rx="28.7648" ry="31" transform="matrix(-1 0 0 1 181.246 0)" fill="white"/>
<ellipse cx="11" cy="12" rx="11" ry="12" transform="matrix(-1 0 0 1 192 31)" fill="white"/>
<ellipse cx="44" cy="31" rx="44" ry="31" transform="matrix(-1 0 0 1 157 35)" fill="white"/>
<ellipse cx="28.7648" cy="31" rx="28.7648" ry="31" transform="matrix(-1 0 0 1 151 12)" fill="white"/>
<ellipse cx="28.7648" cy="31" rx="28.7648" ry="31" transform="matrix(-1 0 0 1 195 31)" fill="white"/>
<ellipse cx="21.8056" cy="23.5" rx="21.8056" ry="23.5" transform="matrix(-1 0 0 1 222 37)" fill="white"/>
</g>
</svg>
