<svg width="316" height="151" viewBox="0 0 316 151" fill="none" xmlns="http://www.w3.org/2000/svg">
<path d="M101.419 128.851C135.588 134.874 173.722 135.737 208.414 131.271C243.107 126.806 271.883 117.33 289.154 104.685C306.425 92.0405 310.959 77.1285 301.874 62.8452C292.79 48.5618 270.736 35.9266 239.995 27.393C209.255 18.8594 172.021 15.0366 135.525 16.6669C99.0283 18.2971 65.8744 25.2641 42.5008 36.215C19.1273 47.1658 7.20228 61.3189 9.04161 75.9259C10.8809 90.5328 26.3533 104.551 52.4541 115.259L157.655 75.1949L101.419 128.851Z" fill="#4D7B37"/>
<path d="M119.451 96.7233L52.5842 114.758L159.596 74.146L101.752 128.689L119.451 96.7233Z" fill="#4D7B37"/>
</svg>
