<svg width="316" height="146" viewBox="0 0 316 146" fill="none" xmlns="http://www.w3.org/2000/svg">
<path d="M213.89 125.338C179.721 131.214 141.587 132.055 106.894 127.699C72.2013 123.343 43.4253 114.1 26.1543 101.765C8.88325 89.43 4.34976 74.8836 13.4341 60.9505C22.5185 47.0174 44.5724 34.692 75.3133 26.3676C106.054 18.0433 143.288 14.3142 179.784 15.9045C216.28 17.4948 249.434 24.291 272.808 34.9733C296.181 45.6556 308.106 59.4617 306.267 73.7105C304.428 87.9593 288.955 101.634 262.854 112.079L157.654 72.9974L213.89 125.338Z" fill="#4D7B37"/>
<path d="M195.858 94.0012L262.724 111.593L155.713 71.9774L213.557 125.183L195.858 94.0012Z" fill="#4D7B37"/>
</svg>
