<svg width="1365" height="918" viewBox="0 0 1365 918" fill="none" xmlns="http://www.w3.org/2000/svg">
<path d="M431.455 254.434C431.455 113.739 545.195 0 685.89 0C826.585 0 940.324 113.739 940.324 254.434C940.324 395.13 826.585 508.869 685.89 508.869C545.195 508.869 431.455 394.472 431.455 254.434Z" fill="#FFD300"/>
<path fill-rule="evenodd" clip-rule="evenodd" d="M481.422 103.22C485.366 105.193 489.311 107.165 493.913 109.795C512.98 122.944 525.471 134.121 554.399 158.446C562.946 166.993 572.808 180.8 580.04 189.347C595.819 209.07 606.995 222.877 608.968 239.313C613.57 272.186 618.172 290.595 630.664 324.125C631.979 327.412 637.238 332.014 640.526 335.959C648.415 345.821 651.702 361.6 666.166 370.147C674.056 374.749 675.371 375.406 678 377.378C681.945 380.666 675.371 392.5 654.99 389.87C665.509 395.13 664.194 406.964 649.072 407.621C619.487 408.936 601.078 391.842 597.134 387.24C595.161 385.268 589.244 393.157 578.725 397.102C568.206 402.362 553.742 397.102 542.565 399.074C532.046 401.047 518.239 407.621 507.062 408.279C487.339 408.936 484.709 395.13 484.709 383.296V378.036C482.737 385.268 475.505 397.76 475.505 397.76C472.875 403.677 468.93 410.909 461.698 413.538L440.66 416.168C424.223 423.4 407.787 428.66 390.693 434.577C380.831 436.549 369.655 434.577 362.423 428.66C356.506 424.058 353.218 418.141 349.931 412.224C346.644 410.909 342.042 412.224 338.097 410.909C334.81 410.251 332.837 407.621 330.865 405.649L316.401 381.323C315.086 378.036 315.086 373.434 316.401 370.147C319.031 364.887 324.948 362.257 330.865 362.257C341.384 361.6 353.218 358.312 363.738 362.257C368.34 356.997 375.572 357.655 382.146 356.34C379.517 352.395 375.572 350.423 372.285 347.136C353.218 351.738 332.18 348.451 313.771 345.163C296.677 341.219 282.213 351.08 265.12 348.451L259.86 359.627C251.971 368.174 251.313 382.638 239.479 388.555C230.932 390.528 224.357 396.445 217.125 400.389C203.976 407.621 186.225 404.334 171.761 401.704C165.844 401.047 161.899 401.704 156.64 403.677C152.038 406.964 146.778 412.224 141.518 416.168C132.971 419.456 125.739 426.688 116.535 427.345C111.275 427.345 106.016 424.058 100.756 425.373C94.1817 432.605 90.8944 444.439 80.3752 447.726C69.8559 451.013 56.7068 448.384 46.1876 445.754C42.9003 447.069 40.928 449.698 36.9833 449.041C29.7513 447.069 22.5192 445.096 15.9447 441.152C13.3149 438.522 12.6575 435.234 12 432.605C12 428.002 15.9447 424.058 17.9171 420.113C18.5745 415.511 18.5746 408.936 20.5469 404.334C23.8342 397.102 31.0662 392.5 38.2981 389.213C38.9556 383.953 42.2429 379.351 46.8451 376.721C55.392 372.119 64.5963 361.6 75.773 367.517L87.6072 377.378C98.1264 372.776 95.4966 362.257 100.756 353.71C103.386 347.793 106.673 341.219 113.248 341.219C117.85 340.561 123.11 341.876 127.712 341.219C134.286 339.246 141.518 336.616 146.121 331.357L145.463 327.412C138.889 314.92 136.916 299.799 136.259 284.678C124.425 285.992 111.933 287.965 99.4413 285.335C81.0326 282.705 63.2814 268.241 56.0494 249.833C48.1599 232.081 51.4472 207.098 63.9388 191.977C73.8006 180.142 84.9773 169.623 96.8115 160.419C92.8668 159.104 88.2646 159.761 84.3199 158.446C67.2261 155.817 50.1323 140.695 46.1876 123.601C43.5577 112.425 46.1876 101.905 51.4472 92.7011C53.4196 90.7287 55.3919 88.7564 58.6792 90.0713C67.2261 93.3585 69.8559 97.9607 77.7453 101.905L82.3475 104.535C104.043 111.767 132.971 111.767 141.518 138.723C146.778 159.761 133.629 175.54 118.507 187.374C106.673 195.921 94.8391 206.441 88.922 218.932C86.2922 228.137 87.6071 237.341 95.4966 243.915C103.386 251.805 117.193 251.805 127.054 247.86C145.463 239.971 162.557 228.137 178.993 215.645C194.772 203.811 213.838 199.209 234.219 198.551C243.424 196.579 251.313 192.634 258.545 186.717C271.037 174.883 284.186 165.021 299.965 161.076C307.197 159.761 314.429 159.104 321.661 158.446C327.578 155.817 331.522 148.585 336.125 145.297C357.821 126.231 386.748 126.889 409.759 111.767C422.908 101.905 437.372 95.3309 454.466 95.9884C462.356 96.6458 469.588 97.9607 476.162 100.591L481.422 103.22ZM503.118 326.755C488.654 327.412 479.449 330.699 469.588 332.014C470.245 341.219 475.505 349.108 482.737 358.97C486.681 343.848 499.173 337.931 503.118 326.755ZM873.264 330.042C879.839 339.904 883.783 349.765 889.7 360.285C895.617 349.108 900.877 338.589 906.137 332.014C905.479 331.357 888.386 333.329 873.264 330.042ZM887.071 378.693C886.413 380.666 885.098 381.323 882.468 381.323C884.441 390.528 877.866 407.621 861.43 408.279C850.253 408.936 831.845 397.76 821.325 397.102C810.149 396.445 789.767 404.992 777.933 387.24C762.154 406.306 743.746 411.566 727.967 410.909C718.762 410.909 708.901 405.649 722.707 393.815C692.464 403.677 692.464 383.296 697.724 379.351C701.011 376.721 704.956 374.749 716.133 363.572C758.21 319.523 742.431 243.258 788.453 192.634C806.204 172.91 820.668 161.734 856.828 136.093C869.319 127.546 881.811 115.054 893.645 106.508L894.303 107.823V107.165C901.535 101.905 908.109 96.6458 915.999 94.6735C932.435 92.7011 947.556 97.9607 960.048 106.508C966.622 111.11 971.882 116.369 977.142 122.944C981.086 126.889 987.004 126.889 992.263 128.861C1007.38 131.491 1020.53 137.408 1033.03 145.297C1041.57 150.557 1048.8 159.761 1059.32 161.076C1071.82 163.049 1082.99 166.993 1094.17 173.568C1107.32 182.115 1119.15 192.634 1134.93 195.264C1166.49 198.551 1192.79 216.302 1217.77 234.054C1232.23 242.601 1249.33 252.462 1267.08 246.545C1272.34 244.573 1276.28 239.971 1277.6 235.369C1278.91 223.534 1271.68 214.33 1264.45 205.783C1249.33 188.032 1223.03 172.91 1226.32 147.27C1230.92 128.204 1251.96 117.027 1268.39 111.767C1277.6 108.48 1288.77 109.795 1296.66 101.905C1300.61 99.2756 1302.58 90.0713 1309.16 93.3585C1314.42 96.6458 1315.07 103.22 1315.73 109.137C1318.36 127.546 1314.42 145.955 1297.32 156.474C1289.43 161.734 1280.89 163.706 1271.68 165.678C1285.49 176.855 1299.29 190.662 1307.18 206.441C1311.79 215.645 1314.42 223.534 1315.07 234.054C1314.42 253.777 1302.58 270.871 1285.49 280.733C1275.63 285.992 1264.45 287.965 1252.61 287.965C1248.01 287.965 1244.07 286.65 1240.12 286.65C1242.1 295.854 1242.1 308.346 1240.12 318.865C1239.47 324.125 1236.18 330.042 1236.18 336.616C1238.81 339.904 1242.75 339.904 1246.04 339.904C1254.59 339.904 1265.11 339.246 1269.71 348.451C1273.65 356.997 1275.63 366.859 1278.91 375.406C1280.23 376.721 1280.89 380.008 1282.86 379.351C1288.77 374.091 1294.69 366.859 1303.24 368.832C1311.13 374.091 1319.02 380.008 1326.91 385.925C1328.88 387.898 1329.54 390.528 1330.19 393.815C1336.77 396.445 1345.32 401.047 1347.29 408.936C1348.6 414.196 1347.95 419.456 1349.26 424.058C1351.23 429.317 1356.49 435.892 1352.55 442.466L1349.92 444.439L1324.93 452.328C1322.96 452.328 1320.99 451.013 1319.02 449.041C1305.87 448.384 1290.09 452.328 1279.57 443.124C1274.97 439.179 1271.68 434.577 1268.39 429.317C1260.5 433.262 1249.33 435.892 1241.44 430.632C1225 418.141 1208.57 405.649 1186.21 406.306C1176.35 408.279 1164.52 410.909 1154.65 406.964C1145.45 400.389 1134.93 397.102 1127.7 387.24C1117.18 376.064 1117.18 362.915 1113.23 349.108C1098.77 352.395 1082.99 350.423 1068.53 349.765C1056.69 349.108 1045.52 351.08 1034.34 353.71C1020.53 356.34 1005.41 357.655 990.948 356.997L983.716 362.257C987.004 362.915 990.291 362.915 992.921 365.544L995.55 368.174C1007.38 369.489 1021.19 367.517 1032.37 370.147C1035 370.804 1037.63 373.434 1038.94 376.064C1040.26 379.351 1040.26 383.296 1038.28 385.925C1032.37 393.815 1029.08 403.019 1021.19 409.594C1019.22 412.224 1013.3 408.936 1012.64 413.538C1010.01 425.373 998.838 435.234 987.661 437.864C983.059 438.522 977.799 437.864 973.854 436.549C960.048 431.947 946.241 428.002 932.435 424.058C927.833 422.743 923.888 418.141 919.943 415.511C914.026 415.511 905.479 417.483 901.535 412.224C899.562 410.909 897.59 406.306 896.932 404.334C892.33 398.417 889.043 387.898 887.071 378.693Z" fill="#FFD300"/>
<path fill-rule="evenodd" clip-rule="evenodd" d="M474.847 186.059C478.792 195.921 478.792 209.07 476.162 219.589C475.505 220.247 474.847 220.247 474.19 219.589C472.218 210.385 470.245 201.181 466.958 191.976C464.985 186.717 458.411 182.115 461.041 176.197C462.356 174.883 464.985 174.882 466.958 175.54C470.245 178.827 472.217 182.115 474.847 186.059ZM580.04 278.103C587.272 286.65 592.531 295.854 589.902 307.031C588.587 309.003 589.244 312.948 585.957 313.605C584.642 314.263 583.327 312.948 583.327 311.633C582.67 305.716 582.67 299.141 579.382 294.539C575.438 290.594 570.836 282.705 564.261 282.705C559.659 284.02 556.371 289.279 553.742 292.567C553.742 293.224 553.084 293.224 552.427 292.567C549.797 285.992 555.057 280.732 557.029 275.473C560.974 271.528 560.316 260.351 568.863 263.639C574.78 267.583 576.095 274.158 580.04 278.103ZM566.233 356.34C566.891 360.284 566.891 366.201 562.946 368.831C559.001 370.146 553.742 370.804 549.14 370.146C547.825 369.489 546.51 368.831 547.167 367.516C549.14 361.599 555.057 355.025 561.631 353.71C562.946 353.71 565.576 353.71 566.233 356.34ZM86.2923 116.369C102.071 120.314 119.165 120.314 130.999 132.805C137.574 140.695 138.231 154.501 132.971 162.391C123.767 178.17 105.358 186.059 94.1817 199.866C83.005 209.07 79.0602 223.534 82.3475 237.998C86.2922 250.49 98.7839 259.037 111.275 259.694C130.999 260.351 145.463 250.49 161.242 241.285C177.021 230.109 191.485 215.645 209.236 211.042C221.07 207.098 234.219 209.07 246.053 204.468C258.545 201.838 268.407 191.319 278.269 182.114C289.445 172.91 302.594 167.65 317.058 168.308C330.208 170.28 337.439 158.446 346.644 150.557C361.765 136.75 381.489 135.435 399.24 127.546C411.732 123.601 421.594 114.397 433.428 108.48C444.604 103.878 459.726 102.563 470.903 107.165C478.135 110.452 486.024 113.739 492.599 118.999L545.852 163.706C546.51 165.678 548.482 166.993 549.797 167.651C564.918 186.059 580.697 203.81 593.189 224.192C597.134 231.424 599.106 238.655 601.078 246.545C603.708 276.788 611.598 303.086 621.459 329.384C624.089 333.329 629.349 336.616 631.979 340.561C640.526 352.395 645.785 367.516 659.592 375.406L667.481 379.351C668.139 380.008 668.139 381.323 667.481 381.98L666.166 383.295C649.73 385.925 637.238 376.063 628.691 364.229C623.432 353.71 616.2 342.533 604.366 337.931C603.708 337.931 603.051 338.588 603.051 338.588C604.366 342.533 608.31 345.163 609.625 348.45C614.227 355.682 618.172 363.572 620.145 371.461C622.774 380.008 631.979 385.925 639.211 390.527L649.73 395.787C651.045 396.444 651.702 398.417 650.387 399.732L649.072 400.389C631.321 401.046 615.542 395.129 603.051 381.98C600.421 378.693 596.476 376.063 591.874 376.063C583.985 383.295 576.095 389.87 565.576 390.527C554.399 388.555 542.565 388.555 532.703 392.5C523.499 395.787 514.294 399.732 504.433 399.732C499.83 399.732 494.571 397.759 492.599 393.157C492.599 387.24 488.654 380.665 491.941 374.748L498.516 364.887C498.516 363.572 497.858 362.257 496.543 362.257C493.913 361.599 489.311 366.201 487.996 361.599C488.654 351.737 498.516 345.163 505.09 338.588C506.405 330.699 509.692 323.467 515.609 316.892C515.609 316.235 514.952 314.92 513.637 314.92C505.09 316.235 496.543 318.207 487.339 318.207C480.107 322.152 470.903 324.782 462.356 322.152C460.383 320.837 461.041 318.865 461.698 317.55C470.903 305.058 474.19 289.279 471.56 274.158C470.903 273.5 470.903 272.186 469.588 272.186C468.273 272.186 468.273 273.5 467.615 274.158C465.643 288.622 461.041 299.799 453.151 312.29C447.234 318.207 438.03 318.207 430.14 320.18C428.168 320.837 426.196 322.809 426.196 324.782C426.196 330.041 429.483 333.329 431.455 337.931L448.549 369.489C449.207 378.036 445.262 386.583 443.29 394.472C443.947 395.787 445.262 395.129 446.577 394.472C452.494 389.212 456.439 381.98 459.068 374.091C459.726 370.804 458.411 366.859 457.096 364.229L439.345 328.727C440.66 326.754 443.289 326.754 445.262 326.097C449.207 326.097 453.151 328.069 457.096 329.384C461.041 339.903 465.643 351.08 472.875 360.284C474.19 366.201 476.162 374.091 472.217 378.693C468.273 386.583 464.328 393.157 459.068 400.389C454.466 404.991 447.892 404.334 441.317 404.991H439.345C423.566 413.538 407.13 418.798 390.036 424.057C382.804 427.345 374.257 424.715 368.34 420.113C362.423 415.51 359.793 408.936 355.848 403.019C351.246 397.102 344.014 402.361 338.754 399.074C334.152 391.842 329.55 384.61 325.605 376.721C325.605 374.748 325.605 372.776 327.578 371.461C333.495 369.489 340.069 369.489 346.644 368.831C352.561 368.174 359.135 369.489 363.08 373.433C370.97 382.638 374.257 395.129 386.091 401.046C395.295 401.704 403.185 399.074 411.074 395.129C415.676 392.5 420.936 388.555 420.936 382.638C420.279 370.804 412.389 361.599 402.527 355.025C392.666 349.765 382.146 342.533 374.914 333.329C370.97 328.069 370.312 322.152 368.34 316.892C367.682 315.578 365.053 315.578 364.395 316.235C360.45 319.522 363.738 325.439 363.738 329.384C364.395 332.014 365.71 335.301 364.395 337.274C358.478 341.876 350.589 339.246 343.357 339.903C328.893 339.246 315.086 333.329 299.965 334.644C285.501 335.301 265.777 345.163 255.258 330.699C249.998 316.892 251.313 300.456 253.943 286.65C253.943 285.335 252.628 284.02 251.313 284.02C249.998 283.362 248.683 284.02 248.026 285.335C244.081 299.141 243.424 314.263 240.136 328.727C234.877 341.218 225.672 354.367 213.181 360.942C202.004 366.859 188.855 368.831 175.048 370.146C150.065 370.804 127.054 375.406 111.275 397.102C109.961 399.074 107.988 401.046 108.646 403.676C109.303 404.334 111.275 404.991 111.933 404.334C129.027 385.268 150.723 377.378 175.706 378.693C199.374 378.693 223.043 374.748 238.164 354.367C242.109 349.765 244.739 345.163 248.026 339.903C250.656 339.903 252.628 343.191 254.6 344.505C255.258 351.737 249.341 356.34 246.711 362.257C243.424 368.831 240.136 376.721 233.562 380.665C225.672 382.638 219.098 387.897 211.866 391.842C204.634 395.129 195.43 396.444 186.883 394.472C176.363 392.5 161.899 389.87 151.38 394.472C146.12 397.759 141.518 403.676 136.259 406.964C129.027 410.251 122.452 416.168 113.905 415.51C107.988 414.196 100.756 410.251 95.4966 415.51C88.922 421.428 87.6071 431.947 79.0602 435.892C69.1984 441.151 58.6792 435.892 48.8174 435.234C50.1323 425.372 51.4472 416.168 58.0217 408.936C61.9665 408.278 65.2537 407.621 68.541 404.991C72.4857 401.704 75.1155 397.102 77.7454 392.5C86.2922 387.24 96.154 383.295 101.414 374.091C105.358 365.544 105.358 357.655 111.933 349.765L115.22 348.45L132.971 347.135C140.203 343.848 146.778 340.561 153.353 335.301C155.325 333.329 155.982 330.041 155.325 326.754C152.038 318.207 149.408 312.29 147.435 303.086C145.463 293.882 146.778 284.677 145.463 274.158C144.806 273.5 144.148 271.528 142.833 271.528C130.999 274.158 119.822 277.445 106.673 275.473C88.9221 273.5 70.5134 261.666 63.9388 243.915C58.0218 228.794 59.3367 207.098 70.5134 194.606C81.0326 181.457 94.1817 171.595 107.331 160.419C109.303 159.104 109.303 156.474 109.961 154.501C109.961 151.872 107.331 149.899 105.358 148.584C97.4689 146.612 88.2646 149.242 80.3752 145.955C66.5687 141.352 56.0494 128.203 54.077 113.739C53.4196 107.165 54.7345 101.905 58.0217 96.6455C68.541 105.85 76.4305 113.739 86.2923 116.369ZM46.8451 410.251V412.223C43.5578 420.113 41.5854 429.317 38.9556 438.521C33.0385 437.864 27.7789 435.892 23.1767 433.919C21.8618 432.604 23.1767 431.289 23.1767 429.974C29.0938 424.715 27.1214 418.14 28.4363 410.908C29.0938 406.964 33.0385 403.676 36.9833 401.704C41.5854 402.361 44.2152 406.964 46.8451 410.251ZM75.773 382.638C72.4857 389.212 67.8836 397.102 60.6516 401.046C58.0218 401.704 54.7345 401.704 52.1047 400.389C50.7897 399.074 48.1599 397.759 48.1599 395.129C48.8174 392.5 47.5025 389.212 50.1323 387.897C55.392 384.61 60.6515 381.323 65.9112 376.721C67.2261 376.063 69.8559 375.406 70.5134 376.721C73.1432 378.693 75.1155 380.008 75.773 382.638ZM405.157 380.008C405.815 382.638 409.759 385.925 407.13 388.555C401.87 392.5 395.953 395.129 388.721 394.472C383.461 390.527 384.119 383.295 379.516 378.036C378.202 374.091 372.285 374.091 373.599 370.146L375.572 368.831C382.804 368.831 390.036 368.831 397.268 367.516C404.5 366.859 402.527 375.406 405.157 380.008ZM820.668 272.843C824.613 278.103 827.9 283.362 830.53 289.937C831.187 291.252 830.53 292.567 829.872 293.882C829.215 295.196 827.9 296.511 825.928 295.196C821.325 293.882 821.983 286.65 816.066 287.307C812.121 287.307 809.491 290.594 806.204 292.567C800.287 297.826 792.397 303.086 791.082 310.975C789.768 313.605 790.425 318.207 787.795 319.522C786.48 320.18 784.508 318.865 784.508 317.55C783.85 307.031 787.138 297.169 794.37 289.937C801.602 284.02 806.861 275.473 812.778 268.241C816.723 267.583 819.353 270.213 820.668 272.843ZM823.298 360.284C824.613 362.914 827.242 366.201 825.27 369.489C822.64 371.461 818.038 370.146 814.751 370.146C810.806 368.174 809.491 362.914 809.491 358.312C809.491 356.997 809.491 356.34 810.806 355.025C815.408 355.025 820.01 356.34 823.298 360.284ZM921.916 159.104C923.888 161.733 921.916 164.363 920.601 166.336C911.396 174.883 900.22 184.087 893.645 194.606C891.015 197.893 889.043 201.838 887.728 205.783C887.728 206.44 887.071 206.44 886.413 206.44C884.441 201.181 887.071 195.264 888.386 190.004C892.988 177.512 903.507 165.678 914.684 157.131C915.999 156.474 920.601 155.816 921.916 159.104ZM959.391 117.027C966.623 121.629 969.252 131.491 977.799 133.463C992.263 136.75 1006.73 140.037 1019.88 146.612C1029.08 151.214 1037.63 157.789 1046.17 165.021C1054.06 168.965 1063.93 168.965 1072.47 171.595C1084.96 174.882 1094.83 184.087 1106 191.319C1120.47 202.496 1140.85 201.181 1157.28 208.413C1183.58 216.959 1204.62 237.341 1228.95 249.175C1241.44 255.749 1260.5 258.379 1273 251.147C1281.54 245.23 1286.8 237.341 1284.83 226.164C1280.23 199.208 1250.64 185.402 1236.84 163.048C1234.21 157.789 1232.23 150.557 1233.55 144.64C1238.81 131.491 1252.61 124.259 1264.45 119.656C1273.65 115.054 1285.49 116.369 1294.03 111.11C1297.32 109.137 1299.95 106.507 1301.92 104.535C1303.9 104.535 1303.9 106.507 1304.55 107.822C1307.18 123.601 1304.55 140.037 1290.75 149.242C1285.49 153.187 1278.91 154.501 1273 155.816C1267.74 157.789 1257.22 153.844 1257.87 163.048C1259.19 167.651 1263.13 170.28 1266.42 173.568C1284.83 188.689 1301.92 208.413 1303.9 232.081C1304.55 250.49 1292.06 266.269 1276.28 274.158C1264.45 278.76 1249.98 280.732 1237.49 277.445C1234.21 276.788 1228.95 273.501 1226.32 278.103C1225.66 283.362 1228.95 287.307 1228.95 291.909C1230.26 300.456 1230.26 311.633 1227.63 320.18C1226.32 326.754 1219.74 334.644 1225.66 341.218C1231.58 350.423 1243.41 347.793 1253.27 349.108C1258.53 349.765 1260.5 355.682 1261.82 359.627C1263.79 364.887 1263.79 370.804 1265.76 374.748C1265.76 384.61 1276.94 388.555 1282.2 395.129C1288.77 402.361 1294.69 414.853 1305.87 414.196C1309.81 422.085 1311.79 429.317 1313.1 438.521L1311.79 439.836C1302.58 439.836 1290.09 442.466 1283.52 435.892C1275.63 430.632 1273 416.168 1261.16 420.113C1255.9 424.057 1248.67 425.372 1242.75 422.742C1236.84 420.77 1232.89 415.51 1227.63 412.223C1211.85 400.389 1190.81 394.472 1170.43 399.074C1158.6 402.361 1149.39 393.815 1140.19 388.555C1127.7 383.295 1124.41 370.146 1121.78 358.97L1119.81 345.163C1119.81 343.848 1121.12 342.533 1122.44 341.876H1124.41C1131.64 358.312 1145.45 376.721 1163.2 382.638C1179.64 389.212 1194.76 380.665 1212.51 383.953C1228.95 385.925 1242.1 396.444 1254.59 406.306C1255.9 406.306 1256.56 405.649 1257.22 404.334V403.019C1242.1 383.953 1221.06 374.091 1196.73 376.063C1176.35 380.008 1156.63 373.433 1144.79 356.34C1138.22 346.478 1133.62 335.959 1131.64 324.782C1129.67 311.633 1127.04 297.169 1122.44 285.335C1121.12 284.677 1119.81 283.362 1118.49 284.02L1117.18 285.992C1119.15 298.484 1123.1 313.605 1118.49 326.754C1115.21 337.273 1104.69 341.218 1094.83 341.876C1084.96 342.533 1075.76 340.561 1065.24 340.561C1041.57 339.903 1020.53 349.108 996.208 347.135C998.18 341.218 1002.13 335.301 1000.15 328.727C999.495 327.412 997.523 327.412 996.208 327.412C991.606 330.042 992.263 335.959 989.633 339.903C984.374 348.45 974.512 356.34 964.65 358.312C957.418 363.572 950.844 370.804 944.926 377.378C942.954 379.35 942.954 383.295 943.612 385.925C948.214 397.759 962.02 399.074 972.54 402.361C977.799 403.019 982.401 401.047 985.031 396.444C989.633 389.212 990.291 377.378 1000.81 376.063H1023.82C1025.79 376.721 1027.11 378.036 1028.42 380.008L1027.77 383.295C1022.51 389.212 1020.53 397.759 1013.96 401.704C1010.01 403.019 1005.41 401.704 1002.78 404.991C1001.47 412.881 999.495 421.428 991.606 425.372C985.689 430.632 977.142 428.002 970.567 426.03C958.076 421.428 945.584 418.798 933.092 414.853C927.833 413.538 925.86 406.964 919.943 405.649C914.684 404.334 908.767 408.278 904.164 403.676C901.535 397.759 900.22 393.814 898.905 387.24C896.932 383.295 895.618 378.693 894.96 374.091C894.303 370.146 894.96 367.516 896.275 364.229L913.369 333.329C914.684 331.356 915.999 329.384 917.971 328.727C921.916 329.384 926.518 331.356 930.463 333.329L929.805 335.301L912.054 362.257C908.109 370.804 912.054 380.665 915.999 387.897C916.656 388.555 917.313 389.87 917.971 389.212C917.313 383.953 916.656 378.693 917.971 372.776C919.286 367.516 922.573 362.914 925.203 358.312L939.009 337.931C940.324 334.644 940.324 329.384 937.695 326.097C931.777 320.18 923.231 318.207 917.971 310.318C906.794 295.196 905.479 277.445 904.164 258.379C904.164 257.064 902.849 255.092 900.877 254.434C899.562 253.777 898.247 255.749 897.59 256.407C894.303 268.898 896.275 284.02 899.562 295.196C901.535 303.743 905.479 312.29 909.424 320.18C910.081 321.495 908.767 323.467 907.452 324.124C898.247 324.782 889.043 324.124 880.496 322.81C868.662 320.837 860.115 311.633 850.253 304.401C848.938 303.743 848.281 305.058 847.623 305.716C850.253 318.865 864.717 326.754 869.319 338.588C871.949 348.45 881.811 355.682 883.783 366.201C883.783 367.516 882.468 369.489 881.154 370.146C877.866 370.804 874.579 368.831 871.292 370.804C870.634 376.721 874.579 382.638 871.949 387.897C868.662 393.157 864.06 399.074 858.143 399.074C846.309 395.129 834.474 389.87 822.64 386.583C814.093 385.925 805.546 387.24 797.657 387.897C789.768 386.583 784.508 379.351 778.591 375.406C776.619 374.748 774.646 374.748 773.331 376.063C760.182 389.212 745.718 403.676 725.995 403.019C724.68 403.019 724.022 401.704 724.022 400.389V399.074C732.569 391.185 743.088 383.295 747.033 372.119C749.663 362.914 757.552 356.34 760.84 347.793C761.497 346.478 760.182 345.82 758.867 345.163L756.895 346.478C747.033 356.34 739.801 367.516 732.569 378.036C725.337 385.268 714.818 389.87 703.641 387.24C702.326 386.582 702.326 384.61 702.984 383.295C743.746 358.312 748.348 313.605 759.525 272.843C767.414 245.887 773.331 218.274 794.37 196.578C825.927 161.733 865.375 141.352 900.22 111.11C905.479 106.507 910.739 101.905 917.313 101.905C934.407 100.59 947.556 107.165 959.391 117.027ZM1334.8 407.621C1338.08 412.223 1336.77 419.455 1338.08 424.715C1338.74 428.66 1344 431.947 1341.37 435.892L1326.91 440.494C1324.28 440.494 1325.59 437.206 1324.28 435.892C1322.96 427.345 1320.99 421.428 1318.36 413.538C1317.7 408.936 1322.3 405.649 1325.59 403.019C1328.88 401.704 1331.51 405.649 1334.8 407.621ZM1301.27 378.036C1306.53 382.638 1313.76 385.925 1317.7 391.842C1318.36 394.472 1316.39 397.102 1315.07 399.074C1313.1 401.046 1310.47 402.361 1307.18 402.361C1303.9 402.361 1301.27 400.389 1299.29 397.759C1296.01 392.5 1291.4 387.897 1290.09 382.638C1292.06 379.351 1296.66 374.091 1301.27 378.036ZM984.374 372.776C983.716 379.351 981.744 385.268 979.114 391.185C977.142 395.129 971.225 393.815 967.28 393.157C963.335 391.842 956.761 391.185 956.103 385.268C955.446 380.008 958.076 374.748 960.705 370.804C966.623 370.146 973.854 371.461 979.772 370.146C982.401 370.146 984.374 370.804 984.374 372.776Z" fill="#E21B4D"/>
<path d="M1042.71 723.868H981.013V844.865C981.013 884.304 1023.17 918 1075.28 918C1127.4 918 1173 883.922 1173 844.865V723.868H1111.3V832.995C1111.3 850.992 1095.98 865.542 1077.2 865.542C1058.04 865.542 1042.71 850.992 1042.71 832.612V723.868ZM63.9958 657.242V908.427H0V605.55H115.346C165.546 605.55 206.549 646.138 206.549 695.533C206.549 737.652 177.042 772.879 137.188 782.069L226.093 908.427H149.834L85.8386 809.255V736.886H100.784C124.543 736.886 143.703 719.273 143.703 697.447C143.703 675.622 125.692 657.242 101.933 657.242H63.9958ZM652.987 908.427V591H592.44V740.715C576.345 725.016 556.035 716.21 532.659 716.21C482.842 716.21 442.222 760.244 442.222 814.999C442.222 869.371 482.842 913.788 532.659 913.788C556.418 913.788 578.644 904.598 592.44 887.751V908.427H652.987ZM549.904 862.096C525.378 862.096 505.451 840.27 505.451 813.467C505.451 786.664 525.378 764.838 549.904 764.838C574.429 764.838 594.356 786.664 594.356 813.467C593.973 840.27 574.046 862.096 549.904 862.096ZM907.437 743.779C923.915 728.463 934.261 707.786 934.261 685.194C934.261 664.518 926.214 645.755 912.418 630.822C897.857 615.123 872.565 605.55 838.076 605.55H734.993V908.427H868.35C919.316 907.662 960.703 868.988 960.703 821.508C960.319 787.047 948.057 762.541 907.437 743.779ZM856.087 855.97H798.222V659.923H838.842C856.47 659.923 871.415 673.324 871.415 691.321C871.415 709.317 856.47 723.868 838.842 723.868H817.383V778.623H856.853C878.313 778.623 894.408 796.237 894.408 817.679C893.641 839.122 879.463 854.821 856.087 855.97Z" fill="#E21B4D"/>
<path d="M280.203 792.83C280.203 772.494 296.674 755.994 316.976 755.994C337.278 755.994 353.749 772.494 353.749 792.83H280.203ZM413.505 827.364C413.888 823.143 414.271 818.922 414.271 814.701C415.037 749.087 372.135 713.403 316.976 713.403C261.817 713.403 217 758.68 217 814.701C217 870.723 261.817 916 316.976 916C359.111 916 392.054 896.815 408.908 866.885L359.878 844.247C353.749 857.677 339.193 867.269 321.956 867.269C299.356 867.269 280.586 850.002 280.586 827.364H413.505ZM1201.44 591H1261.96V909.093H1201.44V591ZM1304.48 591H1365V909.093H1304.48V591Z" fill="#E21B4D"/>
</svg>
