<svg width="338" height="137" viewBox="0 0 338 137" fill="none" xmlns="http://www.w3.org/2000/svg">
<path fill-rule="evenodd" clip-rule="evenodd" d="M72.8916 24.7239C73.5363 24.8506 74.1327 24.3578 74.1327 23.7008V3.24408C74.1327 2.18418 74.8571 1.26074 75.8979 1.06021C91.527 -1.95108 121.27 -0.199235 130.927 28.6451C131.247 29.6002 132.134 30.2787 133.141 30.2787H245.834C245.987 30.2787 246.134 30.2566 246.284 30.2224C246.68 30.1318 247.061 29.9567 247.376 29.7006C249.03 28.3583 252.276 27.3056 257.292 27.8807C257.881 27.9482 258.48 27.8087 258.954 27.4537C259.281 27.2094 259.626 26.9473 259.986 26.6746C263.214 24.2253 267.574 20.917 269.597 21.9288C272.277 23.2685 273.477 29.0414 272.68 33.5099C272.497 34.5292 272.864 35.6003 273.669 36.2525C276.397 38.4653 279.478 42.1283 278.706 44.7012C277.904 47.3755 271.153 48.2833 266.962 48.2024C266.029 48.1844 265.145 48.6626 264.685 49.4738C263.313 51.8926 261.27 54.9118 258.978 56.5041C258.206 57.0406 257.628 57.8758 257.63 58.8159C257.634 60.2847 257.612 61.8239 257.564 63.4365C257.519 64.9123 258.856 66.0605 260.332 66.033C264.624 65.953 269.899 67.5349 270.038 74.4966C270.058 75.5071 270.61 76.4498 271.547 76.8301C293.667 85.8149 335.671 109.191 337.153 126.682C339.051 149.075 214.939 130.098 169.396 116.055C168.722 115.847 166.451 114.289 164.79 112.816C163.627 111.785 161.34 110.362 159.786 110.362H141.686C140.768 110.362 139.941 110.912 139.586 111.758L130.889 132.497C130.534 133.343 129.706 133.893 128.789 133.893H110.245C109.298 133.893 108.449 133.307 108.115 132.42L93.8662 94.6645C93.6266 94.0295 93.1343 93.541 92.4926 93.32C57.2331 81.1773 -6.26697 56.6042 0.500418 31.0378C5.66698 11.5191 62.2555 22.6347 72.8916 24.7239Z" fill="#7FA751"/>
<g filter="url(#filter0_d_655_37737)">
<path fill-rule="evenodd" clip-rule="evenodd" d="M194.879 107.416L171.939 107.17C248.898 127.015 316.443 133.444 325.094 125.085C329.861 119.732 302.354 100.198 250.948 80.6735L250.906 84.5509C251.469 84.8141 252.029 85.0774 252.585 85.3408L256.459 85.3823C256.843 85.3865 257.151 85.701 257.147 86.085L257.131 87.5389C273.503 95.6229 285.485 103.48 285.063 108.384C284.45 115.511 250.725 118.692 194.879 107.416ZM235.683 77.8166L235.712 75.1405C220.366 69.8118 203.276 64.5852 184.616 59.7551C197.527 63.1231 217.176 70.0375 235.683 77.8166Z" fill="#F4F4F4"/>
<path fill-rule="evenodd" clip-rule="evenodd" d="M97.7955 84.0266L94.2918 78.7422C85.6967 79.4814 83.663 78.7792 82.7343 77.5213C82.2874 76.9159 85.3638 75.1918 88.1871 73.6095L88.1872 73.6094C88.3621 73.5114 88.536 73.414 88.7081 73.3173C74.215 67.7327 51.0936 51.0775 52.1563 43.5603C53.3153 35.362 82.3741 37.3056 112.094 42.2612C112.086 42.0536 112.077 41.835 112.067 41.6059C112.043 41.0507 112.017 40.4336 112.005 39.7604C49.5406 25.5053 9.52014 27.1043 10.8173 34.7971C12.3009 49.7373 74.9453 75.4384 97.7955 84.0266ZM139.029 46.5747L139.019 47.505C148.963 49.7213 157.895 52.0432 164.532 54.1347C155.765 51.3539 147.253 48.8396 139.029 46.5747Z" fill="#F4F4F4"/>
<rect x="85.7422" y="8.46387" width="2.08561" height="20.8561" transform="rotate(0.614895 85.7422 8.46387)" fill="white"/>
<path d="M132.011 75.9761L115.915 120.7L126.064 120.809L144.18 69.8602L132.011 75.9761Z" fill="white"/>
<path d="M93.5625 57.2144L115.915 120.7M115.915 120.7L132.011 75.9761L144.18 69.8602L126.064 120.809L115.915 120.7Z" stroke="white" stroke-width="2.3423"/>
<path d="M126.037 38.9166L151.881 39.194L151.858 41.2913L138.528 41.1483L138.429 50.3552L144.97 50.4254L144.947 52.5583L138.406 52.4881L138.306 61.8017L151.637 61.9448L151.614 64.0777L125.77 63.8003L126.037 38.9166ZM171.303 48.326C174.115 49.1147 176.213 50.1445 177.598 51.4155C178.983 52.6629 179.665 54.2819 179.643 56.2726C179.626 57.8604 179.113 59.277 178.104 60.5223C177.096 61.7677 175.616 62.7354 173.665 63.4255C171.737 64.1159 169.399 64.4463 166.65 64.4168C163.404 64.382 160.54 63.9365 158.061 63.0803C155.605 62.2007 153.685 61.1491 152.3 59.9254L153.49 58.3384C154.712 59.3232 156.255 60.1693 158.12 60.8767C159.985 61.5841 161.996 61.9493 164.152 61.9725C165.551 61.9875 166.607 61.7973 167.323 61.4021C168.062 61.0071 168.435 60.4423 168.443 59.7076C168.457 58.4279 167.199 57.4189 164.671 56.6807L160.065 55.2803C157.561 54.495 155.629 53.4196 154.269 52.054C152.932 50.6886 152.274 49.0817 152.294 47.2332C152.31 45.6928 152.811 44.2998 153.796 43.0542C154.781 41.8086 156.202 40.8402 158.058 40.1491C159.938 39.4345 162.182 39.0912 164.789 39.1192C167.277 39.1459 169.561 39.4548 171.64 40.046C173.743 40.6374 175.454 41.3431 176.773 42.1631L175.582 43.7857C174.475 43.1339 173.142 42.5745 171.583 42.1074C170.047 41.6406 168.426 41.398 166.72 41.3797C165.227 41.3637 164.075 41.5884 163.264 42.0537C162.477 42.4956 162.079 43.1194 162.071 43.9251C162.064 44.5413 162.354 45.0896 162.942 45.5699C163.529 46.0265 164.65 46.4889 166.304 46.957L171.303 48.326ZM181.616 39.5131L193.205 39.6375L192.938 64.5212L181.349 64.3968L181.616 39.5131ZM195.091 52.0655C195.136 47.8708 196.2 44.7655 198.284 42.7495C199.625 41.4366 201.116 40.5757 202.756 40.1666C204.396 39.7576 206.543 39.5673 209.197 39.5958C211.662 39.6223 213.638 39.8212 215.128 40.1928C216.641 40.5408 217.877 41.277 218.837 42.4012C219.633 43.3341 220.249 44.4666 220.685 45.7985C221.145 47.1071 221.404 48.3897 221.461 49.6465L219.435 49.6248C219.352 48.5573 219.103 47.4644 218.688 46.3459C218.297 45.2041 217.668 44.2256 216.8 43.4104C215.932 42.5715 214.822 42.1448 213.471 42.1304C212.215 42.1169 211.167 42.6626 210.325 43.7675C209.604 44.7316 209.081 46.0177 208.755 47.6259C208.456 49.0448 208.297 50.5718 208.279 52.207C208.251 54.885 208.558 57.1281 209.203 58.9363C210.055 61.2445 211.405 62.4085 213.254 62.4283L213.359 52.5815L224.237 52.6982L224.107 64.8557C220.694 64.8191 216.831 64.825 212.516 64.8735L208.926 64.8705C206.319 64.8426 204.2 64.571 202.57 64.0557C200.965 63.5171 199.587 62.6609 198.438 61.4872C196.164 59.1637 195.049 56.0232 195.091 52.0655ZM226.363 39.9934L236.815 40.1055L247.061 52.6588L247.195 40.2169L249.328 40.2398L249.06 65.1235L240.707 65.0339L228.443 48.3349L228.265 64.9003L226.096 64.8771L226.363 39.9934Z" fill="white"/>
<path d="M147.908 74.608L173.752 74.8854L173.729 76.9827L160.399 76.8397L160.3 86.0466L166.841 86.1168L166.818 88.2497L160.277 88.1795L160.177 97.4931L173.508 97.6362L173.485 99.7691L147.641 99.4917L147.908 74.608ZM175.784 74.9072L199.566 75.1624C200.727 75.1749 201.791 75.4826 202.756 76.0855C203.745 76.6649 204.519 77.4554 205.077 78.4568C205.659 79.4349 205.944 80.5045 205.931 81.6657C205.915 83.2061 205.426 84.5993 204.464 85.8451C203.503 87.091 202.297 87.8839 200.848 88.2239C202.124 88.5931 203.159 89.2797 203.955 90.2837C204.773 91.2879 205.176 92.4181 205.162 93.6741L205.093 100.108L193.185 99.9805L193.268 92.2666C193.276 91.5082 193.14 90.9142 192.86 90.4846C192.534 89.9834 192.158 89.612 191.734 89.3704C191.263 89.1046 190.732 88.9093 190.141 88.7844C189.526 88.6593 188.946 88.582 188.401 88.5525L187.442 88.5066L187.319 99.9176L175.517 99.7909L175.784 74.9072ZM188.708 86.4582C189.561 86.4673 190.346 86.2743 191.061 85.879C191.8 85.4603 192.375 84.8977 192.785 84.191C193.22 83.461 193.442 82.6812 193.45 81.8517C193.46 80.9986 193.255 80.2142 192.836 79.4987C192.441 78.7597 191.878 78.173 191.148 77.7385C190.442 77.3043 189.662 77.0826 188.809 77.0735L187.565 77.0601L187.464 86.4804L188.708 86.4582ZM226.708 84.3774C229.52 85.166 231.619 86.1958 233.003 87.4669C234.388 88.7142 235.07 90.3332 235.049 92.3239C235.032 93.9117 234.519 95.3283 233.51 96.5737C232.501 97.819 231.021 98.7867 229.07 99.4768C227.143 100.167 224.805 100.498 222.056 100.468C218.809 100.433 215.946 99.9878 213.467 99.1316C211.011 98.252 209.091 97.2004 207.706 95.9767L208.896 94.3897C210.118 95.3745 211.661 96.2207 213.526 96.928C215.391 97.6354 217.401 98.0006 219.558 98.0238C220.956 98.0388 222.013 97.8487 222.728 97.4534C223.467 97.0584 223.841 96.4936 223.849 95.7589C223.862 94.4792 222.605 93.4702 220.077 92.7321L215.47 91.3316C212.966 90.5463 211.034 89.4709 209.674 88.1053C208.338 86.74 207.68 85.133 207.7 83.2845C207.716 81.7441 208.217 80.3511 209.202 79.1055C210.187 77.8599 211.608 76.8915 213.464 76.2004C215.344 75.4858 217.588 75.1425 220.194 75.1705C222.683 75.1972 224.967 75.5062 227.046 76.0973C229.149 76.6887 230.86 77.3944 232.178 78.2144L230.988 79.837C229.881 79.1852 228.548 78.6258 226.988 78.1587C225.453 77.6919 223.832 77.4494 222.125 77.431C220.632 77.415 219.481 77.6397 218.67 78.105C217.883 78.5469 217.485 79.1707 217.476 79.9765C217.47 80.5926 217.76 81.1409 218.348 81.6212C218.935 82.0778 220.056 82.5402 221.71 83.0083L226.708 84.3774ZM237.022 75.5644L262.865 75.8418L262.843 77.9391L249.512 77.7961L249.413 87.003L255.954 87.0732L255.931 89.2061L249.39 89.1359L249.29 98.4495L262.621 98.5926L262.598 100.725L236.755 100.448L237.022 75.5644Z" fill="white"/>
<path d="M125.192 43.649C124.986 62.8454 109.257 78.2401 90.061 78.0341C70.8645 77.8281 114.455 72.3864 114.765 43.5371C115.075 14.6878 71.6106 8.31178 90.807 8.5178C110.003 8.72383 125.398 24.4526 125.192 43.649Z" fill="white"/>
</g>
<path d="M262.383 33.3151L255.551 32.9355L259.683 39.3212L258.967 46.2195L264.28 41.665H272.251L267.317 35.9719L267.696 29.1401L262.383 33.3151Z" fill="#FAFCF7"/>
<defs>
<filter id="filter0_d_655_37737" x="7.74883" y="8.46387" width="320.912" height="126.269" filterUnits="userSpaceOnUse" color-interpolation-filters="sRGB">
<feFlood flood-opacity="0" result="BackgroundImageFix"/>
<feColorMatrix in="SourceAlpha" type="matrix" values="0 0 0 0 0 0 0 0 0 0 0 0 0 0 0 0 0 0 127 0" result="hardAlpha"/>
<feOffset dy="3.03632"/>
<feGaussianBlur stdDeviation="1.51816"/>
<feComposite in2="hardAlpha" operator="out"/>
<feColorMatrix type="matrix" values="0 0 0 0 0 0 0 0 0 0 0 0 0 0 0 0 0 0 0.05 0"/>
<feBlend mode="normal" in2="BackgroundImageFix" result="effect1_dropShadow_655_37737"/>
<feBlend mode="normal" in="SourceGraphic" in2="effect1_dropShadow_655_37737" result="shape"/>
</filter>
</defs>
</svg>
