<svg width="49" height="177" viewBox="0 0 49 177" fill="none" xmlns="http://www.w3.org/2000/svg">
<g clip-path="url(#clip0_1539_644)">
<rect x="24" width="25" height="177" fill="#5B4739"/>
<ellipse cx="23.7593" cy="88.5251" rx="23.7593" ry="88.2946" fill="#5B4739"/>
<path fill-rule="evenodd" clip-rule="evenodd" d="M49 90.4137H0.00747681C0.00302124 89.7094 0.000762939 89.003 0.000762939 88.2946C0.000762939 39.9767 10.4445 0.723615 23.4008 0.00989002V0H23.7601H49V90.4137Z" fill="#695546"/>
<ellipse cx="27.2874" cy="89.2292" rx="21.1194" ry="79.112" fill="#876A55"/>
<path d="M42.5933 89.966C42.5933 107.363 40.7098 123.081 37.6824 134.421C36.1669 140.098 34.3783 144.626 32.4298 147.714C30.4526 150.846 28.4725 152.252 26.6384 152.252C24.8043 152.252 22.8242 150.846 20.847 147.714C18.8985 144.626 17.1099 140.098 15.5944 134.421C12.5669 123.081 10.6835 107.363 10.6835 89.966C10.6835 72.5688 12.5669 56.8511 15.5944 45.5106C17.1099 39.8336 18.8985 35.3056 20.847 32.2185C22.8242 29.0858 24.8043 27.6796 26.6384 27.6796C28.4725 27.6796 30.4526 29.0858 32.4298 32.2185C34.3783 35.3056 36.1669 39.8336 37.6824 45.5106C40.7098 56.8511 42.5933 72.5688 42.5933 89.966Z" fill="#876A55" stroke="#5B4739" stroke-width="1.83575"/>
<path d="M35.179 90.962C35.179 102.073 33.9763 112.115 32.0406 119.366C31.0719 122.995 29.9263 125.899 28.6731 127.884C27.4055 129.893 26.1088 130.84 24.8698 130.84C23.6307 130.84 22.334 129.893 21.0664 127.884C19.8132 125.899 18.6676 122.995 17.6989 119.366C15.7632 112.115 14.5605 102.073 14.5605 90.962C14.5605 79.8513 15.7632 69.8088 17.6989 62.5578C18.6676 58.929 19.8132 56.0254 21.0664 54.0398C22.334 52.0315 23.6307 51.0839 24.8698 51.0839C26.1088 51.0839 27.4055 52.0315 28.6731 54.0398C29.9263 56.0254 31.0719 58.929 32.0406 62.5578C33.9763 69.8088 35.179 79.8513 35.179 90.962Z" fill="#876A55" stroke="#5B4739" stroke-width="0.917875"/>
</g>
<defs>
<clipPath id="clip0_1539_644">
<rect width="49" height="177" fill="white"/>
</clipPath>
</defs>
</svg>
