<svg width="49" height="82" viewBox="0 0 49 82" fill="none" xmlns="http://www.w3.org/2000/svg">
<rect x="24" width="25" height="82" fill="#5B4739"/>
<ellipse cx="23.7593" cy="41.0142" rx="23.7593" ry="40.9049" fill="#5B4739"/>
<path fill-rule="evenodd" clip-rule="evenodd" d="M49 41.8866H0.00747681C0.00302124 41.5603 0.000762939 41.233 0.000762939 40.9049C0.000762939 18.5203 10.4445 0.335234 23.4008 0.00458182V0H23.7601H49V41.8866Z" fill="#695546"/>
<ellipse cx="27.2874" cy="41.3383" rx="21.1194" ry="36.6508" fill="#876A55"/>
<path d="M42.5933 41.6795C42.5933 49.6339 40.7335 56.7901 37.774 61.9261C34.8003 67.0867 30.83 70.0428 26.6384 70.0428C22.4468 70.0428 18.4765 67.0867 15.5028 61.9261C12.5433 56.7901 10.6835 49.6339 10.6835 41.6795C10.6835 33.7252 12.5433 26.5689 15.5028 21.4329C18.4765 16.2724 22.4468 13.3163 26.6384 13.3163C30.83 13.3163 34.8003 16.2724 37.774 21.4329C40.7335 26.5689 42.5933 33.7252 42.5933 41.6795Z" fill="#876A55" stroke="#5B4739" stroke-width="1.83575"/>
<path d="M35.179 42.1403C35.179 47.2349 33.9881 51.8247 32.0864 55.125C30.1776 58.4376 27.6095 60.3686 24.8698 60.3686C22.13 60.3686 19.562 58.4376 17.6531 55.125C15.7514 51.8247 14.5605 47.2349 14.5605 42.1403C14.5605 37.0457 15.7514 32.4559 17.6531 29.1556C19.562 25.8431 22.13 23.9121 24.8698 23.9121C27.6095 23.9121 30.1776 25.8431 32.0864 29.1556C33.9881 32.4559 35.179 37.0457 35.179 42.1403Z" fill="#876A55" stroke="#5B4739" stroke-width="0.917875"/>
</svg>
