<svg width="1014" height="345" fill="none" xmlns="http://www.w3.org/2000/svg"><path d="M311.604 298.487c9.626 1.053 20.368.991 30.138-.175 9.771-1.166 17.873-3.352 22.734-6.135 4.861-2.782 6.133-5.962 3.57-8.921-2.564-2.96-8.78-5.488-17.441-7.094-8.662-1.606-19.151-2.175-29.43-1.597-10.279.579-19.616 2.263-26.196 4.727-6.58 2.464-9.935 5.53-9.412 8.605.523 3.074 4.885 5.937 12.24 8.032l29.62-9.139-15.823 11.697Z" fill="#51833A" fill-opacity=".5"/><path d="M912.493 287.79c16.059 1.977 34.006 2.116 50.356.389 16.35-1.728 29.936-5.198 38.121-9.737 8.18-4.538 10.38-9.822 6.16-14.824-4.21-5.003-14.539-9.367-28.974-12.246-14.434-2.878-31.945-4.066-49.132-3.331-17.187.734-32.823 3.337-43.872 7.305-11.049 3.967-16.723 9.015-15.919 14.163.804 5.149 8.028 10.03 20.269 13.696l49.691-14.6-26.7 19.185Z" fill="#55833F"/><path d="m925.785 273.529-31.553 6.657 50.546-14.802-27.46 19.505 8.467-11.36Z" fill="#55833F" stroke="#55833F" stroke-width=".142"/><path d="M949.09 240.049c1.671 10.896.342 17.102-1.676 27.379-8.952-2.361-33.36-13.073-29.97-31.226 2.625-14.057 2.061-11.958 8.659-22.268 5.726 9.839 21.712 17.805 22.987 26.115Z" fill="url(#a)"/><path d="M937.324 240.874c-1.671 10.896-.342 17.102 1.676 27.379 8.952-2.362 33.36-13.074 29.97-31.226-2.625-14.058-2.061-11.959-8.659-22.269-5.726 9.84-21.712 17.805-22.987 26.116Z" fill="url(#b)"/><path d="M981.374 242.246c0 11.388-17.182 26.598-28.569 26.598s-11.637 2.522-11.637-8.866c0-11.387 8.2-14.226 19.588-14.226 20.618-5.44 18.441-16.702 20.618-3.506Z" fill="url(#c)"/><path d="M981.374 242.246c0 11.388-17.182 26.598-28.569 26.598s-11.637 2.522-11.637-8.866c0-11.387 8.2-14.226 19.588-14.226 20.618-5.44 18.441-16.702 20.618-3.506Z" fill="url(#d)"/><path d="M922.317 244.434c0 11.387 11.753 5.567 20.619 23.918 9.485-23.299 20.619-12.531 20.619-23.918 0-11.387-11.959-24.33-20.619-31.34-9.278 5.361-20.619 19.953-20.619 31.34Z" fill="url(#e)"/><path d="M922.09 242.577c-1.237 13.402 13.218 12.311 17.754 20.412-5.339-12.577-15.67-6.757-15.67-18.144 0-11.388 6.988-18.763 12.555-27.423-8.248 8.454-11.959 13.402-14.639 25.155Z" fill="#EEC1A9"/><path d="M904.997 242.352c0 11.387 17.182 26.598 28.569 26.598 11.388 0 11.637 2.521 11.637-8.866s-8.2-14.227-19.588-14.227c-20.618-5.439-18.441-16.701-20.618-3.505Z" fill="url(#f)"/><path d="M904.997 242.352c0 11.387 17.182 26.598 28.569 26.598 11.388 0 11.637 2.521 11.637-8.866s-8.2-14.227-19.588-14.227c-20.618-5.439-18.441-16.701-20.618-3.505Z" fill="url(#g)"/><path d="M919.432 241.377c-2.507 9.517 11.028 22.55 18.957 24.639 7.929 2.088 7.547 4.241 10.054-5.276 2.507-9.517-5.979-19.694-13.908-21.782-20.14-1.768-10.682-8.211-15.103 2.419Z" fill="url(#h)"/><path d="M969.535 242.782c4.015-2.059 9.485-6.598 9.485-6.598s-1.921 2.347-3.299 3.711c-2.737 2.706-2.879 4.011-6.186 5.979-2.755 1.64-4.889 3.066-7.835 4.33-2.858 1.227-4.821 1.388-7.423 3.093-3.535 2.317-5.271 3.67-7.216 7.423-1.067 2.058-2.681 7.629-2.681 7.629s-1.196-7.146-.412-10.103c1.094-4.126 2.96-6.328 6.392-8.866 3.727-2.757 6.977-1.941 11.34-3.506 3.096-1.11 4.908-1.592 7.835-3.092Z" fill="#EAB29F" fill-opacity=".84"/><path d="M966.056 237.657c4.254 8.14-6.582 23.445-13.974 27.309-7.393 3.864-6.613 5.751-10.867-2.389-4.255-8.14 2.162-19.58 9.554-23.444 19.444-6.561 8.943-10.169 15.287-1.476Z" fill="url(#i)"/><path d="M966.022 237.678c1.056 2.024 1.177 4.495.646 7.129-.532 2.634-1.717 5.427-3.266 8.088-3.099 5.323-7.652 10.108-11.339 12.035a66.423 66.423 0 0 0-3.286 1.854c-.338.2-.647.384-.934.548-.516.297-.954.53-1.342.685-.387.155-.72.231-1.028.216-.611-.031-1.133-.424-1.772-1.329-.639-.904-1.387-2.31-2.451-4.346-2.119-4.055-1.582-8.936.411-13.29 1.993-4.352 5.438-8.17 9.124-10.098 9.521-3.213 11.869-5.72 12.529-6.425l.04-.043c.038-.04.068-.071.093-.095a.277.277 0 0 1 .055-.043l.006-.002c.002.002.007.01.013.026.014.039.027.105.047.203l.008.043c.025.12.058.277.111.474.213.787.748 2.195 2.335 4.37Zm-2.512-5.117h-.001.001Z" stroke="#C88181" stroke-opacity=".02" stroke-width=".08"/><path d="m956.547 237.007 6.805-3.917s-3.787 3.647-6.805 4.948c-1.169.504-1.932.507-3.092 1.031-2.056.93-3.081 1.774-4.743 3.299-2.551 2.342-3.532 4.157-5.154 7.217-.946 1.784-1.671 2.761-2.062 4.742-.517 2.618-.111 4.238.618 6.804.503 1.77 1.194 2.614 1.856 4.33.523 1.354 1.237 3.505 1.237 3.505s-3.059-3.752-4.124-6.598c-.974-2.603-1.406-4.235-1.237-7.01.126-2.066.477-3.229 1.237-5.155.822-2.081 1.541-3.161 2.887-4.948 1.988-2.639 3.351-4.075 6.186-5.773 2.296-1.376 6.391-2.475 6.391-2.475Z" fill="url(#j)"/><path d="M920.467 237.834c.14-.956.412-2.268.412-2.268s.134 1.583 0 2.887c-.144 1.399-.558 2.331-.825 3.711-.337 1.747-.001 2.806.413 4.536.719 3.013 1.911 4.49 3.711 7.011 2.415 3.383 4.275 4.967 7.629 7.423 3.661 2.68 7.327 1.94 10.309 5.36.72.826 1.65 2.268 1.65 2.268s-1.488-1.037-2.475-1.649c-3.765-2.337-6.666-2.219-10.309-4.742-3.744-2.594-5.722-4.457-8.247-8.248-1.737-2.607-2.97-4.129-3.506-7.216-.33-1.904-.411-3.061 0-4.949.354-1.622.996-2.481 1.238-4.124Z" fill="url(#k)"/><path d="M950.126 264.866c-2.616 2.424-7.549 5.136-7.549 5.136s4.333-3.486 6.78-6.06c2.396-2.52 3.608-4.072 5.603-6.92 2.1-2.997 3.515-4.622 4.803-8.048.532-1.416 1.092-3.716 1.092-3.716s-.18 2.634-.59 4.264c-.939 3.733-2.546 5.475-4.708 8.66-1.889 2.783-2.963 4.398-5.431 6.684Z" fill="url(#l)"/><path d="M204.891 214.426h650.788v47.576H204.891v-47.576Z" fill="#5B4739"/><path d="M204.875 261.828c-16 .915-21.143-30.095-21.715-45.715h34.286c2.477 14.858 3.429 44.801-12.571 45.715Z" fill="#5B4739"/><ellipse cx="856.39" cy="215.26" rx="22.979" ry="46.58" fill="#5B4739"/><path d="M183.172 216.109c-1.715-22.286 9.714-45.715 20.804-47.429h652.868c20.572 6.857 21.949 37.715 21.949 47.429H183.172Z" fill="#695546"/><ellipse cx="208.662" cy="215.471" rx="20.568" ry="42.026" transform="rotate(.505 208.662 215.471)" fill="#876A55"/><path d="M222.728 215.21c-.081 9.209-1.982 17.503-4.966 23.466-3.001 5.998-7.004 9.477-11.228 9.44-4.223-.038-8.164-3.586-11.059-9.636-2.878-6.015-4.633-14.342-4.552-23.55.082-9.209 1.983-17.503 4.966-23.466 3.001-5.998 7.005-9.477 11.228-9.439 4.223.037 8.165 3.586 11.06 9.635 2.878 6.015 4.632 14.342 4.551 23.55Z" fill="#876A55" stroke="#5B4739" stroke-width="1.056"/><path d="M214.487 215.648c-.052 5.877-1.266 11.171-3.17 14.976-1.915 3.828-4.471 6.048-7.166 6.025-2.696-.024-5.211-2.289-7.059-6.15-1.837-3.839-2.957-9.153-2.905-15.03.052-5.877 1.265-11.17 3.17-14.976 1.915-3.828 4.47-6.048 7.166-6.024 2.695.023 5.211 2.288 7.059 6.149 1.837 3.839 2.956 9.153 2.905 15.03Z" fill="#876A55" stroke="#5B4739" stroke-width=".674"/><path d="M804.491 152.345c-2.962 9.014-8.228 15.024-10.491 16.902h33.943c-10.368 0-7.2-11.268-4.32-16.902-5.143-3.756-16.169-9.015-19.132 0Z" fill="#695546"/><path d="M426.133 113.016c8.997 6.236-4.174 33.562-11.884 46.445l-9.69-38.321c5.268-4.082 16.959-11.423 21.574-8.124ZM275.862 161.539c-7.085-7.536 17.767-36.23 28.546-47.911l9.262 35.667c-6.146 3.284-34.2 16.209-37.808 12.244Z" fill="#ECE285" stroke="#ECE285" stroke-width=".704" stroke-linecap="round"/><path d="M357.459 75.062c38.962 6.437 38.962 33.811 47.706 50.557l10.446 20.673v16.527c2.385 5.699 8.259 18.615 4.116 23.174-18.162 15.576-55.963 13.297-74.812 13.297-17.297 0-23.717-2.824-37.458-6.015-7.623-3.578-23.444-26.804-18.322-46.983 3.058-12.049 5.717-17.161 18.322-40.27 3.422-6.274 14.306-30.35 50.002-30.96Z" fill="#ECE285" stroke="#ECE285" stroke-width=".704"/><path d="M350.954 126.23c4.748 4.837 10.863 5.275 16.8.319 1.704-1.423.417-3.782-1.909-3.802l-12.769-.106c-2.198-.018-3.575 2.108-2.122 3.589Z" fill="#D6A443"/><path d="M428.817 115.206c2.059 10.26-10.684 36.81-14.562 42.262l-2.821-10.395c5.039-7.93 17.473-31.374 17.383-31.867Z" fill="#F3ECA8" stroke="#FDFCE1" stroke-width=".125" stroke-linecap="round"/><path d="M350.181 120.567c5.703-5.26 12.571-5.316 18.657.908 1.529 1.564.038 3.819-2.277 3.683l-14.532-.849c-2.187-.128-3.38-2.329-1.848-3.742Z" fill="#F2C162" stroke="#F2C162" stroke-width=".704" stroke-linecap="round"/><path d="M368.702 114.22c1.739-1.016 6.06-2.375 9.431.32M339.37 113.193c1.739-1.016 6.06-2.375 9.431.32" stroke="#5B4739" stroke-width="2.444" stroke-linecap="round"/><ellipse cx="326.492" cy="122.47" rx="8.546" ry="7.567" transform="rotate(1.943 326.492 122.47)" fill="#EAAF9C"/><path fill-rule="evenodd" clip-rule="evenodd" d="M317.432 197.355c.465-2.055.917-4.143 1.373-6.246 5.344-24.679 11.128-51.385 43.32-49.505 28.64 1.673 32.644 33.943 32.543 54.592-17.529 4.207-37.826 3.724-49.328 2.353-6.573.909-17.285.176-27.908-1.194Z" fill="#F1EFB5"/><path fill-rule="evenodd" clip-rule="evenodd" d="M350.975 76.328c-33.696 4.793-46.56 34.467-42.527 68.658.695 5.887-1.486 2.967-6.121-3.238-2.783-3.726-6.451-8.637-10.913-13.537 3.275-3.923 5.997-6.46 7.512-7.873.568-.529.966-.9 1.161-1.127.601-.701 1.446-2.483 2.614-4.943 5.482-11.549 18.068-38.064 45.804-38.063.836.03 1.659.07 2.47.123Z" fill="#E8D072"/><path fill-rule="evenodd" clip-rule="evenodd" d="M420.14 184.922a5.029 5.029 0 0 1-.897 1.625c-15.117 13.945-44.869 13.578-63.51 13.349a505.996 505.996 0 0 0-6.044-.052c-16.081 0-28.233-2.507-41.008-5.699-5.576-2.815-21.04-20.131-17.984-35.528 3.587-.194 7.099-.826 9.316-3.386.408-.471.385.17.335 1.581-.336 9.531-1.914 54.19 119.792 28.11Z" fill="#CCAD3D" fill-opacity=".4"/><path d="M419.532 171.183c7.939-.071-4.807 18.355-12.173 27.578-13.132 11.878-20.198-20.9-20.509-24.789-.31-3.888 4.296-5.603 7.194-6.433 2.898-.829 5.344 5.663 8.488 2.344 3.143-3.319 4.114-4.16 7.115-3.694 3.002.467-.039 5.083 9.885 4.994Z" fill="#F2C162"/><path fill-rule="evenodd" clip-rule="evenodd" d="M409.851 195.552c7.343-9.711 16.779-24.433 9.681-24.369-6.495.058-7.436-1.899-8.153-3.389-.379-.787-.694-1.443-1.732-1.605-3.001-.466-3.972.375-7.115 3.694-1.807 1.907-3.382.575-4.946-.746-1.158-.978-2.309-1.951-3.542-1.598-2.592.742-6.549 2.192-7.135 5.271 1.467-.998 3.317-1.625 4.749-2.035 1.234-.353 2.385.62 3.543 1.599 1.563 1.32 3.139 2.652 4.945.745 3.144-3.319 4.114-4.16 7.116-3.693 1.037.161 1.353.817 1.731 1.604.717 1.49 1.659 3.447 8.154 3.389 6.345-.057-.522 11.701-7.296 21.133Z" fill="#D6A443"/><path d="M307.054 174.233c-7.939-.071 4.807 18.356 12.173 27.579 13.132 11.878 20.198-20.901 20.509-24.789.31-3.888-4.296-5.604-7.194-6.433-2.898-.829-5.344 5.663-8.488 2.344-3.143-3.319-4.114-4.161-7.116-3.694-3.001.467.04 5.082-9.884 4.993Z" fill="#F2C162"/><path fill-rule="evenodd" clip-rule="evenodd" d="M316.577 198.401c-7.319-9.712-16.57-24.223-9.523-24.16 6.495.058 7.436-1.899 8.153-3.389.379-.786.694-1.443 1.731-1.604 3.002-.467 3.973.374 7.116 3.693 1.806 1.907 3.382.576 4.946-.745 1.158-.978 2.309-1.951 3.542-1.598 2.594.742 6.555 2.194 7.136 5.277-1.468-1.002-3.323-1.63-4.758-2.041-1.234-.353-2.385.62-3.543 1.598-1.563 1.321-3.139 2.652-4.945.746-3.144-3.32-4.114-4.161-7.116-3.694-1.037.161-1.353.818-1.731 1.604-.717 1.491-1.659 3.448-8.154 3.389-6.298-.056.422 11.528 7.146 20.924Z" fill="#D6A443"/><path fill-rule="evenodd" clip-rule="evenodd" d="m402.684 123.518-4.497 6.463c.575-11.162-2.653-31.723-17.078-44.016 17.048 9.66 21.58 25.403 21.575 37.553Z" fill="#F3ECA8"/><ellipse cx="393.043" cy="124.001" rx="8.546" ry="7.567" transform="rotate(1.943 393.043 124.001)" fill="#EAAF9C"/><path fill-rule="evenodd" clip-rule="evenodd" d="M295.754 123.088c-11.502 13.51-25.414 32.268-19.886 38.148.574.631 1.767.834 3.392.717 8.061-26.154 22.638-29.645 29.027-28.062l-12.533-10.803Z" fill="#E8D072"/><g opacity=".7" fill="#55833F"><path d="M58.11 272.233c15.176 1.868 32.134 1.999 47.584.367 15.45-1.632 28.287-4.911 36.02-9.2 7.733-4.289 9.81-9.281 5.826-14.008-3.983-4.727-13.742-8.851-27.382-11.571-13.639-2.72-30.186-3.842-46.426-3.149-16.24.694-31.016 3.155-41.457 6.903-10.44 3.749-15.801 8.519-15.042 13.384.76 4.865 7.586 9.477 19.153 12.941l46.955-13.796-25.23 18.129Z"/><path d="m70.668 258.759-29.816 6.29 47.763-13.986-25.948 18.431 8-10.735Z" stroke="#55833F" stroke-width=".134"/></g><path d="M90.242 224.018c1.861 12.133.381 19.044-1.866 30.489-9.968-2.63-37.15-14.559-33.375-34.773 2.924-15.655 2.297-13.318 9.644-24.798 6.376 10.957 24.178 19.827 25.597 29.082Z" fill="url(#m)"/><path d="M77.136 224.936c-1.86 12.133-.38 19.044 1.867 30.489 9.968-2.63 37.149-14.559 33.374-34.773-2.923-15.655-2.296-13.318-9.643-24.798-6.376 10.957-24.178 19.827-25.597 29.082Z" fill="url(#n)"/><path d="M126.192 226.459c0 12.681-19.134 29.619-31.815 29.619-12.681 0-12.959 2.808-12.959-9.873s9.132-15.843 21.813-15.843c22.961-6.057 20.536-18.598 22.961-3.903Z" fill="url(#o)"/><path d="M126.192 226.459c0 12.681-19.134 29.619-31.815 29.619-12.681 0-12.959 2.808-12.959-9.873s9.132-15.843 21.813-15.843c22.961-6.057 20.536-18.598 22.961-3.903Z" fill="url(#p)"/><path d="M60.426 228.9c0 12.681 13.088 6.2 22.96 26.635 10.563-25.946 22.962-13.954 22.962-26.635 0-12.68-13.318-27.093-22.961-34.9-10.332 5.97-22.96 22.22-22.96 34.9Z" fill="url(#q)"/><path d="M60.167 226.832c-1.378 14.925 14.72 13.711 19.77 22.732-5.945-14.006-17.45-7.525-17.45-20.206s7.782-20.894 13.982-30.538c-9.185 9.414-13.317 14.925-16.302 28.012Z" fill="#EEC1A9"/><path d="M41.137 226.584c0 12.681 19.133 29.619 31.814 29.619 12.681 0 12.96 2.808 12.96-9.873s-9.133-15.843-21.814-15.843c-22.96-6.057-20.535-18.598-22.96-3.903Z" fill="url(#r)"/><path d="M41.137 226.584c0 12.681 19.133 29.619 31.814 29.619 12.681 0 12.96 2.808 12.96-9.873s-9.133-15.843-21.814-15.843c-22.96-6.057-20.535-18.598-22.96-3.903Z" fill="url(#s)"/><path d="M57.212 225.5c-2.792 10.599 12.28 25.112 21.11 27.438 8.83 2.326 8.405 4.723 11.196-5.875 2.792-10.598-6.659-21.931-15.488-24.257-22.427-1.968-11.895-9.143-16.819 2.694Z" fill="url(#t)"/><path d="M113.004 227.062c4.472-2.292 10.562-7.347 10.562-7.347s-2.138 2.614-3.673 4.133c-3.048 3.014-3.205 4.466-6.889 6.658-3.067 1.826-5.444 3.414-8.725 4.822-3.182 1.366-5.369 1.546-8.266 3.444-3.937 2.581-5.87 4.087-8.036 8.266-1.188 2.292-2.985 8.496-2.985 8.496s-1.332-7.957-.459-11.251c1.218-4.595 3.296-7.047 7.118-9.873 4.15-3.07 7.77-2.161 12.628-3.904 3.449-1.236 5.465-1.773 8.725-3.444Z" fill="#EAB29F" fill-opacity=".84"/><path d="M109.133 221.355c4.737 9.065-7.33 26.108-15.562 30.411-8.232 4.303-7.364 6.404-12.101-2.66-4.738-9.065 2.407-21.804 10.64-26.107 21.652-7.306 9.958-11.325 17.023-1.644Z" fill="url(#u)"/><path d="M109.095 221.379c1.176 2.253 1.311 5.006.719 7.938-.593 2.934-1.912 6.044-3.637 9.007-3.451 5.927-8.52 11.256-12.627 13.402a74.72 74.72 0 0 0-3.659 2.065 90.96 90.96 0 0 1-1.04.61c-.575.331-1.063.59-1.494.763-.431.172-.803.257-1.145.24-.68-.034-1.262-.471-1.974-1.479-.711-1.008-1.544-2.573-2.729-4.84-2.36-4.516-1.762-9.951.458-14.8 2.219-4.847 6.055-9.098 10.16-11.245 10.603-3.578 13.217-6.37 13.953-7.155l.044-.047c.042-.045.076-.08.104-.106a.263.263 0 0 1 .061-.048l.006-.003c.002.003.008.011.014.029.017.044.031.117.053.226l.01.048c.026.134.063.309.122.528.237.876.833 2.445 2.601 4.867Zm-2.798-5.699Z" stroke="#C88181" stroke-opacity=".02" stroke-width=".089"/><path d="m98.54 220.632 7.577-4.362s-4.217 4.062-7.577 5.51c-1.302.561-2.152.564-3.444 1.148-2.29 1.035-3.43 1.975-5.281 3.674-2.841 2.608-3.934 4.629-5.74 8.036-1.053 1.987-1.86 3.075-2.296 5.281-.576 2.915-.124 4.719.689 7.577.56 1.971 1.329 2.911 2.066 4.822.582 1.508 1.378 3.903 1.378 3.903s-3.407-4.178-4.593-7.347c-1.084-2.9-1.566-4.717-1.377-7.807.14-2.301.53-3.596 1.378-5.74.915-2.317 1.715-3.521 3.214-5.511 2.214-2.938 3.732-4.537 6.888-6.429 2.557-1.532 7.118-2.755 7.118-2.755Z" fill="url(#v)"/><path d="M58.359 221.553c.157-1.065.46-2.526.46-2.526s.149 1.763 0 3.215c-.161 1.558-.622 2.595-.92 4.133-.375 1.945 0 3.125.46 5.051.802 3.355 2.128 4.999 4.133 7.807 2.69 3.767 4.76 5.531 8.495 8.266 4.078 2.985 8.16 2.161 11.48 5.97.802.919 1.838 2.525 1.838 2.525s-1.657-1.155-2.756-1.837c-4.193-2.602-7.423-2.471-11.48-5.281-4.17-2.888-6.372-4.963-9.184-9.184-1.935-2.904-3.308-4.598-3.904-8.036-.367-2.121-.458-3.408 0-5.511.394-1.806 1.11-2.763 1.378-4.592Z" fill="url(#w)"/><path d="M91.392 251.652c-2.913 2.699-8.407 5.719-8.407 5.719s4.825-3.882 7.55-6.748c2.668-2.806 4.018-4.534 6.24-7.706 2.339-3.338 3.914-5.147 5.348-8.962.593-1.577 1.217-4.139 1.217-4.139s-.201 2.934-.658 4.749c-1.045 4.157-2.835 6.097-5.242 9.643-2.104 3.099-3.3 4.899-6.048 7.444Z" fill="url(#x)"/><path d="M217.902 325.569c-20.844 2.567-44.138 2.747-65.359.505-21.222-2.242-38.856-6.746-49.478-12.637-10.622-5.892-13.474-12.749-8.002-19.242 5.472-6.493 18.877-12.158 37.612-15.894 18.735-3.736 41.463-5.278 63.771-4.324 22.307.953 42.602 4.332 56.944 9.481 14.341 5.15 21.705 11.702 20.661 18.384-1.043 6.682-10.419 13.018-26.307 17.776l-64.497-18.95 34.655 24.901Z" fill="#55833F"/><path d="m200.654 307.067 40.954 8.64-65.606-19.211 35.642 25.317-10.99-14.746Z" fill="#55833F" stroke="#55833F" stroke-width=".184"/><path d="M175.42 261.251c-2.371 15.461-.485 24.268 2.379 38.851 12.702-3.351 47.338-18.551 42.528-44.31-3.725-19.948-2.926-16.97-12.289-31.599-8.124 13.962-30.809 25.265-32.618 37.058Z" fill="url(#y)"/><path d="M192.127 262.415c2.371 15.461.485 24.268-2.379 38.851-12.702-3.351-47.338-18.551-42.528-44.31 3.725-19.948 2.926-16.97 12.289-31.599 8.124 13.962 30.809 25.265 32.618 37.058Z" fill="url(#z)"/><path d="M129.622 264.358c0 16.159 24.382 37.744 40.541 37.744 16.159 0 16.513 3.577 16.513-12.581 0-16.159-11.637-20.189-27.796-20.189-29.258-7.718-26.168-23.699-29.258-4.974Z" fill="url(#A)"/><path d="M129.622 264.358c0 16.159 24.382 37.744 40.541 37.744 16.159 0 16.513 3.577 16.513-12.581 0-16.159-11.637-20.189-27.796-20.189-29.258-7.718-26.168-23.699-29.258-4.974Z" fill="url(#B)"/><path d="M213.419 267.473c0 16.159-16.677 7.899-29.258 33.939-13.459-33.062-29.259-17.78-29.259-33.939s16.97-34.525 29.259-44.473c13.166 7.607 29.258 28.314 29.258 44.473Z" fill="url(#C)"/><path d="M213.752 264.84c1.756 19.018-18.757 17.47-25.193 28.965 7.575-17.847 22.236-9.588 22.236-25.747s-9.916-26.625-17.816-38.913c11.703 11.995 16.97 19.017 20.773 35.695Z" fill="#EEC1A9"/><path d="M238.003 264.519c0 16.159-24.382 37.743-40.541 37.743-16.159 0-16.513 3.578-16.513-12.581s11.637-20.189 27.796-20.189c29.258-7.718 26.168-23.699 29.258-4.973Z" fill="url(#D)"/><path d="M238.003 264.519c0 16.159-24.382 37.743-40.541 37.743-16.159 0-16.513 3.578-16.513-12.581s11.637-20.189 27.796-20.189c29.258-7.718 26.168-23.699 29.258-4.973Z" fill="url(#E)"/><path d="M217.524 263.136c3.558 13.505-15.649 32-26.9 34.963-11.251 2.964-10.71 6.019-14.267-7.486-3.558-13.505 8.485-27.946 19.736-30.91 28.578-2.508 15.157-11.65 21.431 3.433Z" fill="url(#F)"/><path d="M146.42 265.128c-5.698-2.92-13.459-9.362-13.459-9.362s2.725 3.331 4.681 5.266c3.884 3.841 4.084 5.692 8.778 8.485 3.909 2.327 6.938 4.35 11.118 6.144 4.056 1.741 6.842 1.97 10.533 4.389 5.017 3.288 7.48 5.207 10.24 10.533 1.514 2.921 3.804 10.826 3.804 10.826s1.698-10.14.585-14.337c-1.552-5.855-4.2-8.98-9.07-12.581-5.289-3.911-9.9-2.753-16.092-4.974-4.394-1.576-6.964-2.26-11.118-4.389Z" fill="#EAB29F" fill-opacity=".84"/><path d="M151.361 257.858c-6.037 11.55 9.34 33.268 19.83 38.751 10.49 5.483 9.383 8.161 15.421-3.39 6.037-11.55-3.069-27.784-13.559-33.267-27.591-9.31-12.69-14.431-21.692-2.094Z" fill="url(#G)"/><path d="M151.41 257.888c-1.5 2.871-1.671 6.378-.917 10.115.755 3.738 2.436 7.701 4.635 11.477 4.397 7.553 10.857 14.344 16.089 17.079 1.896.99 3.414 1.89 4.663 2.63.479.284.919.545 1.325.778.733.421 1.355.752 1.904.972.55.22 1.023.327 1.459.306.867-.043 1.609-.601 2.516-1.885.906-1.284 1.967-3.278 3.477-6.167 3.008-5.754 2.246-12.681-.583-18.859-2.828-6.176-7.717-11.594-12.947-14.33-13.511-4.559-16.842-8.116-17.779-9.117l-.057-.061a2.89 2.89 0 0 0-.132-.134.369.369 0 0 0-.086-.065.13.13 0 0 0-.018.037c-.021.056-.039.149-.067.288l-.012.061c-.035.171-.081.394-.157.673-.302 1.117-1.061 3.115-3.313 6.202Zm3.564-7.262h.001-.001Z" stroke="#C88181" stroke-opacity=".02" stroke-width=".114"/><path d="m164.858 256.942-9.655-5.559s5.374 5.176 9.655 7.022c1.659.715 2.743.718 4.389 1.463 2.917 1.319 4.371 2.516 6.73 4.681 3.62 3.324 5.012 5.898 7.314 10.24 1.342 2.532 2.37 3.919 2.926 6.73.734 3.714.157 6.013-.878 9.655-.713 2.511-1.693 3.709-2.633 6.144-.742 1.922-1.756 4.974-1.756 4.974s4.341-5.324 5.852-9.362c1.382-3.695 1.996-6.011 1.756-9.948-.179-2.932-.677-4.582-1.756-7.315-1.166-2.953-2.186-4.486-4.096-7.022-2.822-3.745-4.756-5.782-8.778-8.192-3.258-1.952-9.07-3.511-9.07-3.511Z" fill="url(#H)"/><path d="M216.058 258.113c-.199-1.357-.585-3.218-.585-3.218s-.191 2.245 0 4.096c.204 1.985.791 3.307 1.17 5.266.479 2.478.002 3.982-.585 6.437-1.022 4.275-2.712 6.37-5.266 9.948-3.428 4.8-6.067 7.048-10.826 10.533-5.195 3.804-10.397 2.754-14.629 7.607-1.022 1.171-2.341 3.218-2.341 3.218s2.111-1.471 3.511-2.34c5.343-3.317 9.46-3.149 14.629-6.73 5.314-3.68 8.12-6.324 11.704-11.703 2.465-3.7 4.214-5.86 4.973-10.24.469-2.702.584-4.343 0-7.022-.501-2.302-1.412-3.522-1.755-5.852Z" fill="url(#I)"/><path d="M173.967 296.462c3.712 3.438 10.713 7.287 10.713 7.287s-6.149-4.947-9.621-8.598c-3.4-3.576-5.12-5.779-7.951-9.82-2.981-4.254-4.988-6.559-6.815-11.42-.755-2.01-1.551-5.274-1.551-5.274s.256 3.738.838 6.051c1.333 5.297 3.613 7.769 6.68 12.288 2.681 3.949 4.206 6.242 7.707 9.486Z" fill="url(#J)"/><path d="M824.647 261.743c-1.224 7.981-.25 12.526 1.228 20.054 6.556-1.73 24.434-9.576 21.951-22.871-1.923-10.297-1.51-8.759-6.343-16.31-4.193 7.206-15.902 13.04-16.836 19.127Z" fill="url(#K)"/><path d="M833.263 262.349c1.224 7.98.25 12.526-1.228 20.053-6.556-1.73-24.434-9.575-21.951-22.871 1.923-10.296 1.51-8.759 6.343-16.31 4.193 7.207 15.902 13.041 16.836 19.128Z" fill="url(#L)"/><path d="M801.001 263.35c0 8.34 12.584 19.481 20.925 19.481 8.34 0 8.523 1.847 8.523-6.494 0-8.34-6.006-10.42-14.347-10.42-15.101-3.984-13.507-12.232-15.101-2.567Z" fill="url(#M)"/><path d="M801.001 263.35c0 8.34 12.584 19.481 20.925 19.481 8.34 0 8.523 1.847 8.523-6.494 0-8.34-6.006-10.42-14.347-10.42-15.101-3.984-13.507-12.232-15.101-2.567Z" fill="url(#N)"/><path d="M844.255 264.955c0 8.34-8.609 4.077-15.102 17.518-6.947-17.065-15.102-9.178-15.102-17.518 0-8.341 8.759-17.82 15.102-22.955 6.795 3.926 15.102 14.614 15.102 22.955Z" fill="url(#O)"/><path d="M844.426 263.596c.906 9.816-9.682 9.018-13.004 14.951 3.91-9.212 11.477-4.949 11.477-13.29 0-8.34-5.118-13.742-9.196-20.085 6.041 6.192 8.759 9.816 10.723 18.424Z" fill="#EEC1A9"/><path d="M856.941 263.432c0 8.341-12.585 19.481-20.925 19.481-8.341 0-8.524 1.847-8.524-6.493 0-8.341 6.006-10.421 14.347-10.421 15.102-3.984 13.507-12.232 15.102-2.567Z" fill="url(#P)"/><path d="M856.941 263.432c0 8.341-12.585 19.481-20.925 19.481-8.341 0-8.524 1.847-8.524-6.493 0-8.341 6.006-10.421 14.347-10.421 15.102-3.984 13.507-12.232 15.102-2.567Z" fill="url(#Q)"/><path d="M846.377 262.72c1.836 6.97-8.077 16.516-13.885 18.046-5.807 1.53-5.528 3.107-7.364-3.864-1.836-6.971 4.38-14.425 10.187-15.954 14.751-1.295 7.824-6.014 11.062 1.772Z" fill="url(#R)"/><path d="M809.677 263.747c-2.941-1.508-6.947-4.833-6.947-4.833s1.407 1.72 2.417 2.718c2.004 1.983 2.108 2.938 4.53 4.38 2.018 1.201 3.581 2.245 5.739 3.171 2.093.899 3.531 1.017 5.437 2.266 2.589 1.697 3.861 2.687 5.285 5.436.782 1.508 1.964 5.588 1.964 5.588s.876-5.234.302-7.4c-.801-3.022-2.168-4.635-4.682-6.494-2.73-2.018-5.11-1.421-8.306-2.567-2.268-.813-3.595-1.166-5.739-2.265Z" fill="#EAB29F" fill-opacity=".84"/><path d="M812.226 259.991c-3.116 5.961 4.821 17.171 10.236 20.001 5.414 2.83 4.843 4.212 7.959-1.749 3.116-5.962-1.583-14.341-6.998-17.172-14.241-4.805-6.55-7.448-11.197-1.08Z" fill="url(#S)"/><path d="M814.257 256.837a1.402 1.402 0 0 0-.012.045c-.166.613-.573 1.671-1.743 3.279-.723 1.399-.816 3.127-.436 5.008.382 1.889 1.234 3.904 2.358 5.834 2.254 3.871 5.553 7.326 8.187 8.703.986.516 1.781.987 2.427 1.37.246.145.47.278.674.395.376.216.683.378.946.484.263.105.463.145.629.137.306-.015.617-.203 1.074-.849.454-.643.991-1.652 1.774-3.15 1.496-2.862 1.13-6.336-.307-9.476-1.434-3.13-3.906-5.867-6.532-7.248-6.192-2.092-8.28-3.786-9.039-4.532Z" stroke="#C88181" stroke-opacity=".02" stroke-width=".646"/><path d="m819.191 259.522-4.984-2.87s2.774 2.672 4.984 3.625c.856.369 1.415.371 2.265.755 1.506.681 2.256 1.299 3.473 2.416 1.869 1.716 2.588 3.045 3.776 5.286.693 1.307 1.223 2.022 1.51 3.473.379 1.917.081 3.104-.453 4.984-.368 1.296-.874 1.914-1.359 3.171-.383.992-.906 2.568-.906 2.568s2.24-2.749 3.02-4.833c.714-1.907 1.03-3.102.906-5.135-.092-1.513-.349-2.365-.906-3.775-.602-1.524-1.128-2.316-2.114-3.625-1.457-1.933-2.455-2.984-4.531-4.228-1.681-1.008-4.681-1.812-4.681-1.812Z" fill="url(#T)"/><path d="M845.616 260.122c-.103-.7-.302-1.661-.302-1.661s-.099 1.159 0 2.114c.105 1.025.408 1.707.604 2.719.247 1.279.001 2.055-.302 3.322-.527 2.207-1.4 3.288-2.718 5.135-1.77 2.477-3.132 3.637-5.588 5.436-2.682 1.964-5.367 1.422-7.551 3.927-.527.604-1.208 1.661-1.208 1.661s1.089-.76 1.812-1.208c2.758-1.712 4.883-1.625 7.551-3.474 2.742-1.899 4.191-3.264 6.041-6.04 1.272-1.91 2.175-3.025 2.567-5.286.242-1.395.301-2.242 0-3.624-.259-1.188-.729-1.818-.906-3.021Z" fill="url(#U)"/><path d="M823.89 279.921c1.916 1.774 5.529 3.761 5.529 3.761s-3.173-2.553-4.966-4.438c-1.755-1.846-2.642-2.983-4.104-5.069-1.538-2.195-2.575-3.385-3.517-5.894-.39-1.037-.801-2.722-.801-2.722s.132 1.929.433 3.123c.687 2.734 1.864 4.01 3.448 6.342 1.383 2.039 2.17 3.222 3.978 4.897Z" fill="url(#V)"/><path d="M757.335 332.107c-25.902 3.19-54.849 3.413-81.22.627-26.371-2.786-48.284-8.383-61.484-15.704-13.199-7.32-16.744-15.842-9.944-23.911 6.799-8.068 23.457-15.108 46.739-19.75 23.281-4.643 51.525-6.558 79.246-5.374 27.72 1.184 52.94 5.384 70.762 11.783 17.821 6.399 26.972 14.541 25.675 22.844-1.296 8.304-12.948 16.177-32.691 22.09l-80.148-23.549 43.065 30.944Z" fill="#51833A"/><path d="m743.419 313.689 50.892 10.738-81.526-23.874 44.291 31.46-13.657-18.324Z" fill="#51833A"/><path d="M780.218 267.488c-2.71-10.463-13.256-5.53-16.773-1.803-14.519 12.805-19.323 30.049-9.739 32.103 3.787.811 31.742-10.1 26.512-30.3Z" fill="#ADD68C"/><path d="M738.106 298.968c0 2.789 7.752 5.05 17.314 5.05 8.583 0 13.601-.945 16.429-5.247.654-.994.868-2.334.116-3.257-2.225-2.732-8.313-1.596-16.545-1.596-9.562 0-17.314 2.261-17.314 5.05Z" fill="#ADD68C"/><path fill-rule="evenodd" clip-rule="evenodd" d="M772.811 261.212c12.438 9.055-.608 24.138-16.123 32.609 1.479.038 5.523-.002 9.098-.299 8.482-4.86 17.624-13.721 14.436-26.034-1.265-4.887-4.241-6.415-7.411-6.276ZM745.563 294.804c14.249 2.517 21.11 1.513 23.745-.781 1.155.271 2.054.73 2.664 1.478.752.923.538 2.263-.116 3.257-2.829 4.302-7.846 5.246-16.429 5.246-9.562 0-17.314-2.26-17.314-5.049 0-1.72 2.948-3.239 7.45-4.151Z" fill="#9FC581"/><path d="M646.771 267.488c2.709-10.463 13.256-5.53 16.773-1.803 14.518 12.805 19.322 30.049 9.739 32.103-3.788.811-31.743-10.1-26.512-30.3Z" fill="#ADD68C"/><path d="M688.878 298.968c0 2.789-7.752 5.05-17.314 5.05-8.583 0-13.6-.945-16.429-5.247-.654-.994-.867-2.334-.116-3.257 2.225-2.732 8.313-1.596 16.545-1.596 9.562 0 17.314 2.261 17.314 5.05Z" fill="#ADD68C"/><path fill-rule="evenodd" clip-rule="evenodd" d="M654.189 261.212c-12.438 9.055.609 24.138 16.123 32.609-1.479.038-5.528-.002-9.104-.3-8.482-4.859-17.623-13.72-14.435-26.033 1.266-4.889 4.244-6.417 7.416-6.276ZM681.229 294.848c-14.112 2.472-20.92 1.466-23.542-.817-1.156.271-2.057.729-2.668 1.479-.751.923-.538 2.263.116 3.257 2.829 4.302 7.846 5.246 16.429 5.246 9.562 0 16.213-2.261 16.213-5.05 0-1.697-2.463-3.199-6.548-4.115Z" fill="#9FC581"/><path d="M714.029 305.637c26.139 0 65.233-9.198 41.798-69.076-1.588-4.058-5.331-12.624-8.848-20.65.451-1.082.594-2.329.631-3.517 0-7.371-5.975-13.346-13.346-13.346-3.246-.361-6.463 1.412-7.665 2.344-2.014 1.714-5.681 5.772-8.116 4.87-4.617-1.227-9.018-.511-10.641 0-2.434.902-6.102-3.156-8.116-4.87-.811-.871-3.444-2.561-7.484-2.344-7.371 0-13.346 5.975-13.346 13.346.036 1.159.18 1.894.721 3.156-2.886 8.116-6.042 17.404-8.657 22.995-23.266 58.615 16.929 67.092 43.069 67.092Z" fill="#ADD68C"/><path fill-rule="evenodd" clip-rule="evenodd" d="M740.448 291.392c10.039-.241 24.744-15.493 3.246-74.577 2.104-5.711 2.218-17.133-13.797-17.133l-.018-.026c1.314-.471 2.845-.779 4.383-.608 7.371 0 13.346 5.975 13.346 13.346-.037 1.188-.18 2.435-.631 3.517 3.517 8.026 7.26 16.592 8.848 20.65 20.589 52.606-7.085 66.094-31.837 68.595-.435-4.028-.195-7.921.318-10.879l16.142-2.885ZM686.095 291.392c-10.039-.241-24.744-15.493-3.246-74.577-2.104-5.711-2.218-17.133 13.797-17.133l.018-.026c-1.314-.471-2.845-.779-4.383-.608-7.371 0-13.346 5.975-13.346 13.346.037 1.188.18 2.435.631 3.517-3.517 8.026-7.26 16.592-8.848 20.65-20.589 52.606 7.085 66.094 31.837 68.595.435-4.028.195-7.921-.318-10.879l-16.142-2.885Z" fill="#9FC581"/><ellipse cx="693.068" cy="212.94" rx="4.017" ry="4.87" fill="#5F4B3D"/><ellipse cx="732.185" cy="212.94" rx="4.017" ry="4.87" fill="#5F4B3D"/><path d="M718.419 222.046c-4.575 2.802-8.095 1.117-9.755-.001-1.524-1.015-.709-2.261 0-1.763 1.66 1.117 4.909 3.174 9.755 0 .709-.498 1.557.81 0 1.764Z" fill="#5F4B3D"/><ellipse cx="746.395" cy="226.372" rx="8.657" ry="7.665" fill="#DBB396"/><ellipse cx="680.93" cy="226.372" rx="8.657" ry="7.665" fill="#DBB396"/><path fill-rule="evenodd" clip-rule="evenodd" d="M739.271 301.696c-8.086 3.23-17.251 4.168-25.163 4.168-8.353 0-18.22-.964-26.785-4.49-10.151-15.823-17.158-43.37 2.473-58.846 13.526-10.662 34.296-10.696 47.766.037 19.565 15.587 12.003 43.373 1.709 59.131Z" fill="#DAEDB8"/><path fill-rule="evenodd" clip-rule="evenodd" d="M714.114 305.859c7.912 0 17.077-.939 25.163-4.169 2.18-3.337 4.238-7.215 5.941-11.401-27.405 11.302-47.462 6.214-63.546.042 1.617 4.037 3.57 7.785 5.657 11.037 8.565 3.527 18.432 4.491 26.785 4.491Z" fill="#B7CF8C" fill-opacity=".5"/><path d="M728.658 308.701c6.313-9.469 9.812-18.036 14.772-30.029l-24.999 10.761c-.835 5.658-2.551 17.457-2.546 19.093.007 2.33 3.871 2.991 5.032.596.412-.779.881-.899 1.254-.786.405.123.493.617.669 1.003.755 1.647 4.492 1.35 5.818-.638Z" fill="#DAEDB8"/><path fill-rule="evenodd" clip-rule="evenodd" d="M741.668 281.268c-4.41 13.156-8.861 24.415-12.755 27.858-1.79 1.583-5.359 1.863-6.078.219-.035-.081-.067-.167-.1-.253-.12-.326-.243-.654-.563-.751-.373-.113-.842.006-1.254.785-1.16 2.396-5.025 1.735-5.032-.596-.001-.226.032-.645.09-1.215 2.191.907 3.049-.267 3.919-1.457.549-.751 1.103-1.509 2.002-1.751 1.049-.283 1.029.211 1.003.843-.031.781-.071 1.772 1.882 1.772 3.23 0 13.239-19.027 17.027-26.242l-.141.788Z" fill="#ADD68C"/><path d="M698.666 308.701c-6.312-9.469-9.812-18.036-14.771-30.029l24.998 10.761c.836 5.658 2.551 17.457 2.546 19.093-.007 2.33-3.871 2.991-5.032.596-.412-.779-.881-.899-1.253-.786-.406.123-.493.617-.67 1.003-.755 1.647-4.492 1.35-5.818-.638Z" fill="#DAEDB8"/><path fill-rule="evenodd" clip-rule="evenodd" d="M685.661 281.299c4.407 13.142 8.854 24.387 12.746 27.827 1.789 1.583 5.359 1.863 6.077.219a4.44 4.44 0 0 0 .1-.253c.121-.326.243-.654.564-.751.372-.113.841.006 1.253.785 1.161 2.396 5.025 1.735 5.032-.596.001-.226-.031-.644-.089-1.214-2.188.904-3.046-.269-3.914-1.458-.55-.751-1.104-1.509-2.002-1.751-1.05-.283-1.03.211-1.004.843.031.781.071 1.772-1.882 1.772-3.229 0-13.239-19.027-17.026-26.242l.145.819Z" fill="#ADD68C"/><defs><linearGradient id="y" x1="207.855" y1="227.389" x2="203.759" y2="253.136" gradientUnits="userSpaceOnUse"><stop stop-color="#F1B09E"/><stop offset="1" stop-color="#FAE6CE"/></linearGradient><linearGradient id="a" x1="926.232" y1="216.187" x2="929.119" y2="234.331" gradientUnits="userSpaceOnUse"><stop stop-color="#F1B09E"/><stop offset="1" stop-color="#FAE6CE"/></linearGradient><linearGradient id="c" x1="969.094" y1="250.415" x2="942.908" y2="266.91" gradientUnits="userSpaceOnUse"><stop stop-color="#EFB7A4"/><stop offset=".943" stop-color="#F7E7D8"/></linearGradient><linearGradient id="d" x1="969.094" y1="250.415" x2="942.908" y2="266.91" gradientUnits="userSpaceOnUse"><stop stop-color="#EFB7A4"/><stop offset=".943" stop-color="#F7E7D8"/></linearGradient><linearGradient id="U" x1="837.639" y1="258.461" x2="837.639" y2="282.775" gradientUnits="userSpaceOnUse"><stop stop-color="#F4B59C"/><stop offset="1" stop-color="#F1C4B2" stop-opacity="0"/></linearGradient><linearGradient id="f" x1="917.277" y1="250.521" x2="943.463" y2="267.016" gradientUnits="userSpaceOnUse"><stop stop-color="#EFB7A4"/><stop offset=".943" stop-color="#F7E7D8"/></linearGradient><linearGradient id="g" x1="917.277" y1="250.521" x2="943.463" y2="267.016" gradientUnits="userSpaceOnUse"><stop stop-color="#EFB7A4"/><stop offset=".943" stop-color="#F7E7D8"/></linearGradient><linearGradient id="T" x1="822.828" y1="256.652" x2="822.828" y2="282.93" gradientUnits="userSpaceOnUse"><stop stop-color="#F0BFAF"/><stop offset="1" stop-color="#F0BFAF" stop-opacity="0"/></linearGradient><linearGradient id="Q" x1="847.946" y1="269.415" x2="828.767" y2="281.497" gradientUnits="userSpaceOnUse"><stop stop-color="#EFB7A4"/><stop offset=".943" stop-color="#F7E7D8"/></linearGradient><linearGradient id="j" x1="951.581" y1="233.09" x2="951.581" y2="268.966" gradientUnits="userSpaceOnUse"><stop stop-color="#F0BFAF"/><stop offset="1" stop-color="#F0BFAF" stop-opacity="0"/></linearGradient><linearGradient id="k" x1="931.358" y1="235.566" x2="931.358" y2="268.762" gradientUnits="userSpaceOnUse"><stop stop-color="#F4B59C"/><stop offset="1" stop-color="#F1C4B2" stop-opacity="0"/></linearGradient><linearGradient id="l" x1="950.057" y1="246.933" x2="953.375" y2="268.327" gradientUnits="userSpaceOnUse"><stop stop-color="#F1BCA9"/><stop offset="1" stop-color="#F1BCA9" stop-opacity="0"/></linearGradient><linearGradient id="m" x1="64.788" y1="197.444" x2="68.003" y2="217.65" gradientUnits="userSpaceOnUse"><stop stop-color="#F1B09E"/><stop offset="1" stop-color="#FAE6CE"/></linearGradient><linearGradient id="n" x1="102.59" y1="198.362" x2="99.376" y2="218.568" gradientUnits="userSpaceOnUse"><stop stop-color="#F1B09E"/><stop offset="1" stop-color="#FAE6CE"/></linearGradient><linearGradient id="o" x1="112.516" y1="235.556" x2="83.356" y2="253.924" gradientUnits="userSpaceOnUse"><stop stop-color="#EFB7A4"/><stop offset=".943" stop-color="#F7E7D8"/></linearGradient><linearGradient id="p" x1="112.516" y1="235.556" x2="83.356" y2="253.924" gradientUnits="userSpaceOnUse"><stop stop-color="#EFB7A4"/><stop offset=".943" stop-color="#F7E7D8"/></linearGradient><linearGradient id="P" x1="847.946" y1="269.415" x2="828.767" y2="281.497" gradientUnits="userSpaceOnUse"><stop stop-color="#EFB7A4"/><stop offset=".943" stop-color="#F7E7D8"/></linearGradient><linearGradient id="r" x1="54.812" y1="235.681" x2="83.972" y2="254.049" gradientUnits="userSpaceOnUse"><stop stop-color="#EFB7A4"/><stop offset=".943" stop-color="#F7E7D8"/></linearGradient><linearGradient id="s" x1="54.812" y1="235.681" x2="83.972" y2="254.049" gradientUnits="userSpaceOnUse"><stop stop-color="#EFB7A4"/><stop offset=".943" stop-color="#F7E7D8"/></linearGradient><linearGradient id="N" x1="809.995" y1="269.333" x2="829.175" y2="281.415" gradientUnits="userSpaceOnUse"><stop stop-color="#EFB7A4"/><stop offset=".943" stop-color="#F7E7D8"/></linearGradient><linearGradient id="M" x1="809.995" y1="269.333" x2="829.175" y2="281.415" gradientUnits="userSpaceOnUse"><stop stop-color="#EFB7A4"/><stop offset=".943" stop-color="#F7E7D8"/></linearGradient><linearGradient id="v" x1="93.01" y1="216.27" x2="93.01" y2="256.221" gradientUnits="userSpaceOnUse"><stop stop-color="#F0BFAF"/><stop offset="1" stop-color="#F0BFAF" stop-opacity="0"/></linearGradient><linearGradient id="w" x1="70.488" y1="219.027" x2="70.488" y2="255.994" gradientUnits="userSpaceOnUse"><stop stop-color="#F4B59C"/><stop offset="1" stop-color="#F1C4B2" stop-opacity="0"/></linearGradient><linearGradient id="x" x1="91.314" y1="231.682" x2="95.01" y2="255.506" gradientUnits="userSpaceOnUse"><stop stop-color="#F1BCA9"/><stop offset="1" stop-color="#F1BCA9" stop-opacity="0"/></linearGradient><linearGradient id="b" x1="960.182" y1="217.011" x2="957.295" y2="235.155" gradientUnits="userSpaceOnUse"><stop stop-color="#F1B09E"/><stop offset="1" stop-color="#FAE6CE"/></linearGradient><linearGradient id="z" x1="159.691" y1="228.553" x2="163.788" y2="254.3" gradientUnits="userSpaceOnUse"><stop stop-color="#F1B09E"/><stop offset="1" stop-color="#FAE6CE"/></linearGradient><linearGradient id="A" x1="147.049" y1="275.95" x2="184.207" y2="299.357" gradientUnits="userSpaceOnUse"><stop stop-color="#EFB7A4"/><stop offset=".943" stop-color="#F7E7D8"/></linearGradient><linearGradient id="B" x1="147.049" y1="275.95" x2="184.207" y2="299.357" gradientUnits="userSpaceOnUse"><stop stop-color="#EFB7A4"/><stop offset=".943" stop-color="#F7E7D8"/></linearGradient><linearGradient id="L" x1="816.521" y1="244.871" x2="818.636" y2="258.16" gradientUnits="userSpaceOnUse"><stop stop-color="#F1B09E"/><stop offset="1" stop-color="#FAE6CE"/></linearGradient><linearGradient id="D" x1="220.576" y1="276.11" x2="183.418" y2="299.517" gradientUnits="userSpaceOnUse"><stop stop-color="#EFB7A4"/><stop offset=".943" stop-color="#F7E7D8"/></linearGradient><linearGradient id="E" x1="220.576" y1="276.11" x2="183.418" y2="299.517" gradientUnits="userSpaceOnUse"><stop stop-color="#EFB7A4"/><stop offset=".943" stop-color="#F7E7D8"/></linearGradient><linearGradient id="K" x1="841.389" y1="244.265" x2="839.275" y2="257.555" gradientUnits="userSpaceOnUse"><stop stop-color="#F1B09E"/><stop offset="1" stop-color="#FAE6CE"/></linearGradient><linearGradient id="J" x1="174.066" y1="271.014" x2="169.357" y2="301.372" gradientUnits="userSpaceOnUse"><stop stop-color="#F1BCA9"/><stop offset="1" stop-color="#F1BCA9" stop-opacity="0"/></linearGradient><linearGradient id="H" x1="171.906" y1="251.383" x2="171.906" y2="302.292" gradientUnits="userSpaceOnUse"><stop stop-color="#F0BFAF"/><stop offset="1" stop-color="#F0BFAF" stop-opacity="0"/></linearGradient><linearGradient id="I" x1="200.603" y1="254.895" x2="200.603" y2="302" gradientUnits="userSpaceOnUse"><stop stop-color="#F4B59C"/><stop offset="1" stop-color="#F1C4B2" stop-opacity="0"/></linearGradient><linearGradient id="V" x1="823.941" y1="266.786" x2="821.51" y2="282.455" gradientUnits="userSpaceOnUse"><stop stop-color="#F1BCA9"/><stop offset="1" stop-color="#F1BCA9" stop-opacity="0"/></linearGradient><radialGradient id="G" cx="0" cy="0" r="1" gradientUnits="userSpaceOnUse" gradientTransform="matrix(-29.49328 -37.5642 48.89645 -38.39073 179.946 296.351)"><stop stop-color="#FCE5D0"/><stop offset="1" stop-color="#EFB7A4"/></radialGradient><radialGradient id="C" cx="0" cy="0" r="1" gradientUnits="userSpaceOnUse" gradientTransform="rotate(90.269 -26.76 211.34) scale(62.3209 46.5082)"><stop stop-color="#FADFCC"/><stop offset="1" stop-color="#F1BEAB"/></radialGradient><radialGradient id="u" cx="0" cy="0" r="1" gradientUnits="userSpaceOnUse" gradientTransform="matrix(23.14538 -29.47875 38.37183 30.12783 86.7 251.564)"><stop stop-color="#FCE5D0"/><stop offset="1" stop-color="#EFB7A4"/></radialGradient><radialGradient id="t" cx="0" cy="0" r="1" gradientUnits="userSpaceOnUse" gradientTransform="rotate(-139.07 89.296 109.63) scale(37.4222 51.4651)"><stop stop-color="#FCE5D0"/><stop offset="1" stop-color="#EFB7A4"/></radialGradient><radialGradient id="O" cx="0" cy="0" r="1" gradientUnits="userSpaceOnUse" gradientTransform="rotate(90.269 290.085 537.863) scale(32.1673 24.0055)"><stop stop-color="#FADFCC"/><stop offset="1" stop-color="#F1BEAB"/></radialGradient><radialGradient id="F" cx="0" cy="0" r="1" gradientUnits="userSpaceOnUse" gradientTransform="rotate(-40.93 487.105 -96.315) scale(47.6861 65.5806)"><stop stop-color="#FCE5D0"/><stop offset="1" stop-color="#EFB7A4"/></radialGradient><radialGradient id="i" cx="0" cy="0" r="1" gradientUnits="userSpaceOnUse" gradientTransform="matrix(20.78443 -26.47176 34.45766 27.0546 945.912 264.784)"><stop stop-color="#FCE5D0"/><stop offset="1" stop-color="#EFB7A4"/></radialGradient><radialGradient id="R" cx="0" cy="0" r="1" gradientUnits="userSpaceOnUse" gradientTransform="rotate(-40.93 788.493 -969.81) scale(24.6135 33.8498)"><stop stop-color="#FCE5D0"/><stop offset="1" stop-color="#EFB7A4"/></radialGradient><radialGradient id="S" cx="0" cy="0" r="1" gradientUnits="userSpaceOnUse" gradientTransform="rotate(-128.137 481.532 -61.132) scale(24.6511 32.0878)"><stop stop-color="#FCE5D0"/><stop offset="1" stop-color="#EFB7A4"/></radialGradient><radialGradient id="h" cx="0" cy="0" r="1" gradientUnits="userSpaceOnUse" gradientTransform="matrix(-25.38886 -22.0158 30.27733 -34.91615 944.33 264.235)"><stop stop-color="#FCE5D0"/><stop offset="1" stop-color="#EFB7A4"/></radialGradient><radialGradient id="e" cx="0" cy="0" r="1" gradientUnits="userSpaceOnUse" gradientTransform="rotate(89.731 358.62 585.8) scale(43.9182 32.7748)"><stop stop-color="#FADFCC"/><stop offset="1" stop-color="#F1BEAB"/></radialGradient><radialGradient id="q" cx="0" cy="0" r="1" gradientUnits="userSpaceOnUse" gradientTransform="rotate(89.731 -62.222 145.088) scale(48.907 36.4978)"><stop stop-color="#FADFCC"/><stop offset="1" stop-color="#F1BEAB"/></radialGradient></defs></svg>