<svg width="1014" height="345" viewBox="0 0 1014 345" fill="none" xmlns="http://www.w3.org/2000/svg">
<path d="M311.604 298.487C321.23 299.54 331.972 299.478 341.742 298.312C351.513 297.146 359.615 294.96 364.476 292.177C369.337 289.395 370.609 286.215 368.046 283.256C365.482 280.296 359.266 277.768 350.605 276.162C341.943 274.556 331.454 273.987 321.175 274.565C310.896 275.144 301.559 276.828 294.979 279.292C288.399 281.756 285.044 284.822 285.567 287.897C286.09 290.971 290.452 293.834 297.807 295.929L327.427 286.79L311.604 298.487Z" fill="#51833A" fill-opacity="0.5"/>
<path d="M912.493 287.79C928.552 289.767 946.499 289.906 962.849 288.179C979.199 286.451 992.785 282.981 1000.97 278.442C1009.15 273.904 1011.35 268.62 1007.13 263.618C1002.92 258.615 992.591 254.251 978.156 251.372C963.722 248.494 946.211 247.306 929.024 248.041C911.837 248.775 896.201 251.378 885.152 255.346C874.103 259.313 868.429 264.361 869.233 269.509C870.037 274.658 877.261 279.539 889.502 283.205L939.193 268.605L912.493 287.79Z" fill="#55833F"/>
<path d="M925.785 273.529L894.232 280.186L944.778 265.384L917.318 284.889L925.785 273.529Z" fill="#55833F" stroke="#55833F" stroke-width="0.141925"/>
<path d="M949.09 240.049C950.761 250.945 949.432 257.151 947.414 267.428C938.462 265.067 914.054 254.355 917.444 236.202C920.069 222.145 919.505 224.244 926.103 213.934C931.829 223.773 947.815 231.739 949.09 240.049Z" fill="url(#paint0_linear_2115_637)"/>
<path d="M937.324 240.874C935.653 251.77 936.982 257.976 939 268.253C947.952 265.891 972.36 255.179 968.97 237.027C966.345 222.969 966.909 225.068 960.311 214.758C954.585 224.598 938.599 232.563 937.324 240.874Z" fill="url(#paint1_linear_2115_637)"/>
<path d="M981.374 242.246C981.374 253.634 964.192 268.844 952.805 268.844C941.418 268.844 941.168 271.366 941.168 259.978C941.168 248.591 949.368 245.752 960.756 245.752C981.374 240.312 979.197 229.05 981.374 242.246Z" fill="url(#paint2_linear_2115_637)"/>
<path d="M981.374 242.246C981.374 253.634 964.192 268.844 952.805 268.844C941.418 268.844 941.168 271.366 941.168 259.978C941.168 248.591 949.368 245.752 960.756 245.752C981.374 240.312 979.197 229.05 981.374 242.246Z" fill="url(#paint3_linear_2115_637)"/>
<path d="M922.317 244.434C922.317 255.821 934.07 250.001 942.936 268.352C952.421 245.053 963.555 255.821 963.555 244.434C963.555 233.047 951.596 220.104 942.936 213.094C933.658 218.455 922.317 233.047 922.317 244.434Z" fill="url(#paint4_radial_2115_637)"/>
<path d="M922.09 242.577C920.853 255.979 935.308 254.888 939.844 262.989C934.505 250.412 924.174 256.232 924.174 244.845C924.174 233.457 931.162 226.082 936.729 217.422C928.481 225.876 924.77 230.824 922.09 242.577Z" fill="#EEC1A9"/>
<path d="M904.997 242.352C904.997 253.739 922.179 268.95 933.566 268.95C944.954 268.95 945.203 271.471 945.203 260.084C945.203 248.697 937.003 245.857 925.615 245.857C904.997 240.418 907.174 229.156 904.997 242.352Z" fill="url(#paint5_linear_2115_637)"/>
<path d="M904.997 242.352C904.997 253.739 922.179 268.95 933.566 268.95C944.954 268.95 945.203 271.471 945.203 260.084C945.203 248.697 937.003 245.857 925.615 245.857C904.997 240.418 907.174 229.156 904.997 242.352Z" fill="url(#paint6_linear_2115_637)"/>
<path d="M919.432 241.377C916.925 250.894 930.46 263.927 938.389 266.016C946.318 268.104 945.936 270.257 948.443 260.74C950.95 251.223 942.464 241.046 934.535 238.958C914.395 237.19 923.853 230.747 919.432 241.377Z" fill="url(#paint7_radial_2115_637)"/>
<path d="M969.535 242.782C973.55 240.723 979.02 236.184 979.02 236.184C979.02 236.184 977.099 238.531 975.721 239.895C972.984 242.601 972.842 243.906 969.535 245.874C966.78 247.514 964.646 248.94 961.7 250.204C958.842 251.431 956.879 251.592 954.277 253.297C950.742 255.614 949.006 256.967 947.061 260.72C945.994 262.778 944.38 268.349 944.38 268.349C944.38 268.349 943.184 261.203 943.968 258.246C945.062 254.12 946.928 251.918 950.36 249.38C954.087 246.623 957.337 247.439 961.7 245.874C964.796 244.764 966.608 244.282 969.535 242.782Z" fill="#EAB29F" fill-opacity="0.84"/>
<path d="M966.056 237.657C970.31 245.797 959.474 261.102 952.082 264.966C944.689 268.83 945.469 270.717 941.215 262.577C936.96 254.437 943.377 242.997 950.769 239.133C970.213 232.572 959.712 228.964 966.056 237.657Z" fill="url(#paint8_radial_2115_637)"/>
<path d="M966.022 237.678C967.078 239.702 967.199 242.173 966.668 244.807C966.136 247.441 964.951 250.234 963.402 252.895C960.303 258.218 955.75 263.003 952.063 264.93C950.727 265.628 949.657 266.262 948.777 266.784C948.439 266.984 948.13 267.168 947.843 267.332C947.327 267.629 946.889 267.862 946.501 268.017C946.114 268.172 945.781 268.248 945.473 268.233C944.862 268.202 944.34 267.809 943.701 266.904C943.062 266 942.314 264.594 941.25 262.558C939.131 258.503 939.668 253.622 941.661 249.268C943.654 244.916 947.099 241.098 950.785 239.17C960.306 235.957 962.654 233.45 963.314 232.745C963.328 232.73 963.342 232.716 963.354 232.702C963.392 232.662 963.422 232.631 963.447 232.607C963.473 232.583 963.49 232.57 963.502 232.564C963.505 232.563 963.506 232.562 963.508 232.562C963.51 232.564 963.515 232.572 963.521 232.588C963.535 232.627 963.548 232.693 963.568 232.791C963.571 232.804 963.573 232.819 963.576 232.834C963.601 232.954 963.634 233.111 963.687 233.308C963.9 234.095 964.435 235.503 966.022 237.678ZM963.51 232.561C963.51 232.561 963.51 232.561 963.509 232.561L963.51 232.561Z" stroke="#C88181" stroke-opacity="0.02" stroke-width="0.0802877"/>
<path d="M956.547 237.007L963.352 233.09C963.352 233.09 959.565 236.737 956.547 238.038C955.378 238.542 954.615 238.545 953.455 239.069C951.399 239.999 950.374 240.843 948.712 242.368C946.161 244.71 945.18 246.525 943.558 249.585C942.612 251.369 941.887 252.346 941.496 254.327C940.979 256.945 941.385 258.565 942.114 261.131C942.617 262.901 943.308 263.745 943.97 265.461C944.493 266.815 945.207 268.966 945.207 268.966C945.207 268.966 942.148 265.214 941.083 262.368C940.109 259.765 939.677 258.133 939.846 255.358C939.972 253.292 940.323 252.129 941.083 250.203C941.905 248.122 942.624 247.042 943.97 245.255C945.958 242.616 947.321 241.18 950.156 239.482C952.452 238.106 956.547 237.007 956.547 237.007Z" fill="url(#paint9_linear_2115_637)"/>
<path d="M920.467 237.834C920.607 236.878 920.879 235.566 920.879 235.566C920.879 235.566 921.013 237.149 920.879 238.453C920.735 239.852 920.321 240.784 920.054 242.164C919.717 243.911 920.053 244.97 920.467 246.7C921.186 249.713 922.378 251.19 924.178 253.711C926.593 257.094 928.453 258.678 931.807 261.134C935.468 263.814 939.134 263.074 942.116 266.494C942.836 267.32 943.766 268.762 943.766 268.762C943.766 268.762 942.278 267.725 941.291 267.113C937.526 264.776 934.625 264.894 930.982 262.371C927.238 259.777 925.26 257.914 922.735 254.123C920.998 251.516 919.765 249.994 919.229 246.907C918.899 245.003 918.818 243.846 919.229 241.958C919.583 240.336 920.225 239.477 920.467 237.834Z" fill="url(#paint10_linear_2115_637)"/>
<path d="M950.126 264.866C947.51 267.29 942.577 270.002 942.577 270.002C942.577 270.002 946.91 266.516 949.357 263.942C951.753 261.422 952.965 259.87 954.96 257.022C957.06 254.025 958.475 252.4 959.763 248.974C960.295 247.558 960.855 245.258 960.855 245.258C960.855 245.258 960.675 247.892 960.265 249.522C959.326 253.255 957.719 254.997 955.557 258.182C953.668 260.965 952.594 262.58 950.126 264.866Z" fill="url(#paint11_linear_2115_637)"/>
<path d="M204.891 214.426H855.679V262.002H204.891V214.426Z" fill="#5B4739"/>
<path d="M204.875 261.828C188.875 262.743 183.732 231.733 183.16 216.113H217.446C219.923 230.971 220.875 260.914 204.875 261.828Z" fill="#5B4739"/>
<ellipse cx="856.39" cy="215.26" rx="22.9794" ry="46.5799" fill="#5B4739"/>
<path d="M183.172 216.109C181.457 193.823 192.886 170.394 203.976 168.68H856.844C877.416 175.537 878.793 206.395 878.793 216.109H183.172Z" fill="#695546"/>
<ellipse cx="208.662" cy="215.471" rx="20.5682" ry="42.026" transform="rotate(0.505257 208.662 215.471)" fill="#876A55"/>
<path d="M222.728 215.21C222.647 224.419 220.746 232.713 217.762 238.676C214.761 244.674 210.758 248.153 206.534 248.116C202.311 248.078 198.37 244.53 195.475 238.48C192.597 232.465 190.842 224.138 190.923 214.93C191.005 205.721 192.906 197.427 195.889 191.464C198.89 185.466 202.894 181.987 207.117 182.025C211.34 182.062 215.282 185.611 218.177 191.66C221.055 197.675 222.809 206.002 222.728 215.21Z" fill="#876A55" stroke="#5B4739" stroke-width="1.05631"/>
<path d="M214.487 215.648C214.435 221.525 213.221 226.819 211.317 230.624C209.402 234.452 206.846 236.672 204.151 236.649C201.455 236.625 198.94 234.36 197.092 230.499C195.255 226.66 194.135 221.346 194.187 215.469C194.239 209.592 195.452 204.299 197.357 200.493C199.272 196.665 201.827 194.445 204.523 194.469C207.218 194.492 209.734 196.757 211.582 200.618C213.419 204.457 214.538 209.771 214.487 215.648Z" fill="#876A55" stroke="#5B4739" stroke-width="0.67414"/>
<path d="M804.491 152.345C801.529 161.359 796.263 167.369 794 169.247H827.943C817.575 169.247 820.743 157.979 823.623 152.345C818.48 148.589 807.454 143.33 804.491 152.345Z" fill="#695546"/>
<path d="M426.133 113.016C435.13 119.252 421.959 146.578 414.249 159.461L404.559 121.14C409.827 117.058 421.518 109.717 426.133 113.016Z" fill="#ECE285" stroke="#ECE285" stroke-width="0.703608" stroke-linecap="round"/>
<path d="M275.862 161.539C268.777 154.003 293.629 125.309 304.408 113.628L313.67 149.295C307.524 152.579 279.47 165.504 275.862 161.539Z" fill="#ECE285" stroke="#ECE285" stroke-width="0.703608" stroke-linecap="round"/>
<path d="M357.459 75.0618C396.421 81.4994 396.421 108.873 405.165 125.619L415.611 146.292L415.611 162.819C417.996 168.518 423.87 181.434 419.727 185.993C401.565 201.569 363.764 199.29 344.915 199.29C327.618 199.29 321.198 196.466 307.457 193.275C299.834 189.697 284.013 166.471 289.135 146.292C292.193 134.243 294.852 129.131 307.457 106.022C310.879 99.7484 321.763 75.6727 357.459 75.0618Z" fill="#ECE285" stroke="#ECE285" stroke-width="0.703608"/>
<path d="M350.954 126.23C355.702 131.067 361.817 131.505 367.754 126.549C369.458 125.126 368.171 122.767 365.845 122.747L353.076 122.641C350.878 122.623 349.501 124.749 350.954 126.23Z" fill="#D6A443"/>
<path d="M428.817 115.206C430.876 125.466 418.133 152.016 414.255 157.468L411.434 147.073C416.473 139.143 428.907 115.699 428.817 115.206Z" fill="#F3ECA8" stroke="#FDFCE1" stroke-width="0.124675" stroke-linecap="round"/>
<path d="M350.181 120.567C355.884 115.307 362.752 115.251 368.838 121.475C370.367 123.039 368.876 125.294 366.561 125.158L352.029 124.309C349.842 124.181 348.649 121.98 350.181 120.567Z" fill="#F2C162" stroke="#F2C162" stroke-width="0.703608" stroke-linecap="round"/>
<path d="M368.702 114.22C370.441 113.204 374.762 111.845 378.133 114.54" stroke="#5B4739" stroke-width="2.444" stroke-linecap="round"/>
<path d="M339.37 113.193C341.109 112.177 345.43 110.818 348.801 113.513" stroke="#5B4739" stroke-width="2.444" stroke-linecap="round"/>
<ellipse cx="326.492" cy="122.47" rx="8.54629" ry="7.56703" transform="rotate(1.94322 326.492 122.47)" fill="#EAAF9C"/>
<path fill-rule="evenodd" clip-rule="evenodd" d="M317.432 197.355C317.897 195.3 318.349 193.212 318.805 191.109C324.149 166.43 329.933 139.724 362.125 141.604C390.765 143.277 394.769 175.547 394.668 196.196C377.139 200.403 356.842 199.92 345.34 198.549C338.767 199.458 328.055 198.725 317.432 197.355Z" fill="#F1EFB5"/>
<path fill-rule="evenodd" clip-rule="evenodd" d="M350.975 76.3282C317.279 81.1205 304.415 110.795 308.448 144.986C309.143 150.873 306.962 147.953 302.327 141.748C299.544 138.022 295.876 133.111 291.414 128.211C294.689 124.288 297.411 121.751 298.926 120.338C299.494 119.809 299.892 119.438 300.087 119.211C300.688 118.51 301.533 116.728 302.701 114.268C308.183 102.719 320.769 76.2045 348.505 76.2047C349.341 76.2341 350.164 76.2754 350.975 76.3282Z" fill="#E8D072"/>
<path fill-rule="evenodd" clip-rule="evenodd" d="M420.14 184.922C419.928 185.538 419.633 186.085 419.243 186.547C404.126 200.492 374.374 200.125 355.733 199.896C353.552 199.869 351.524 199.844 349.689 199.844C333.608 199.844 321.456 197.337 308.681 194.145C303.105 191.33 287.641 174.014 290.697 158.617C294.284 158.423 297.796 157.791 300.013 155.231C300.421 154.76 300.398 155.401 300.348 156.812C300.012 166.343 298.434 211.002 420.14 184.922Z" fill="#CCAD3D" fill-opacity="0.4"/>
<path d="M419.532 171.183C427.471 171.112 414.725 189.538 407.359 198.761C394.227 210.639 387.161 177.861 386.85 173.972C386.54 170.084 391.146 168.369 394.044 167.539C396.942 166.71 399.388 173.202 402.532 169.883C405.675 166.564 406.646 165.723 409.647 166.189C412.649 166.656 409.608 171.272 419.532 171.183Z" fill="#F2C162"/>
<path fill-rule="evenodd" clip-rule="evenodd" d="M409.851 195.552C417.194 185.841 426.63 171.119 419.532 171.183C413.037 171.241 412.096 169.284 411.379 167.794C411 167.007 410.685 166.351 409.647 166.189C406.646 165.723 405.675 166.564 402.532 169.883C400.725 171.79 399.15 170.458 397.586 169.137C396.428 168.159 395.277 167.186 394.044 167.539C391.452 168.281 387.495 169.731 386.909 172.81C388.376 171.812 390.226 171.185 391.658 170.775C392.892 170.422 394.043 171.395 395.201 172.374C396.764 173.694 398.34 175.026 400.146 173.119C403.29 169.8 404.26 168.959 407.262 169.426C408.299 169.587 408.615 170.243 408.993 171.03C409.71 172.52 410.652 174.477 417.147 174.419C423.492 174.362 416.625 186.12 409.851 195.552Z" fill="#D6A443"/>
<path d="M307.054 174.233C299.115 174.162 311.861 192.589 319.227 201.812C332.359 213.69 339.425 180.911 339.736 177.023C340.046 173.135 335.44 171.419 332.542 170.59C329.644 169.761 327.198 176.253 324.054 172.934C320.911 169.615 319.94 168.773 316.938 169.24C313.937 169.707 316.978 174.322 307.054 174.233Z" fill="#F2C162"/>
<path fill-rule="evenodd" clip-rule="evenodd" d="M316.577 198.401C309.258 188.689 300.007 174.178 307.054 174.241C313.549 174.299 314.49 172.342 315.207 170.852C315.586 170.066 315.901 169.409 316.938 169.248C319.94 168.781 320.911 169.622 324.054 172.941C325.86 174.848 327.436 173.517 329 172.196C330.158 171.218 331.309 170.245 332.542 170.598C335.136 171.34 339.097 172.792 339.678 175.875C338.21 174.873 336.355 174.245 334.92 173.834C333.686 173.481 332.535 174.454 331.377 175.432C329.814 176.753 328.238 178.084 326.432 176.178C323.288 172.858 322.318 172.017 319.316 172.484C318.279 172.645 317.963 173.302 317.585 174.088C316.868 175.579 315.926 177.536 309.431 177.477C303.133 177.421 309.853 189.005 316.577 198.401Z" fill="#D6A443"/>
<path fill-rule="evenodd" clip-rule="evenodd" d="M402.684 123.518L398.187 129.981C398.762 118.819 395.534 98.2584 381.109 85.9648C398.157 95.6252 402.689 111.368 402.684 123.518Z" fill="#F3ECA8"/>
<ellipse cx="393.043" cy="124.001" rx="8.54629" ry="7.56703" transform="rotate(1.94322 393.043 124.001)" fill="#EAAF9C"/>
<path fill-rule="evenodd" clip-rule="evenodd" d="M295.754 123.088C284.252 136.598 270.34 155.356 275.868 161.236C276.442 161.867 277.635 162.07 279.26 161.953C287.321 135.799 301.898 132.308 308.287 133.891L295.754 123.088Z" fill="#E8D072"/>
<g opacity="0.7">
<path d="M58.1109 272.233C73.2856 274.101 90.2444 274.232 105.694 272.6C121.144 270.968 133.981 267.689 141.714 263.4C149.447 259.111 151.524 254.119 147.54 249.392C143.557 244.665 133.798 240.541 120.158 237.821C106.519 235.101 89.972 233.979 73.7316 234.672C57.4912 235.366 42.7161 237.827 32.2754 241.575C21.8347 245.324 16.4736 250.094 17.2331 254.959C17.9927 259.824 24.8187 264.436 36.3856 267.9L83.3405 254.104L58.1109 272.233Z" fill="#55833F"/>
<path d="M70.6677 258.759L40.8525 265.049L88.615 251.063L62.6668 269.494L70.6677 258.759Z" fill="#55833F" stroke="#55833F" stroke-width="0.13411"/>
</g>
<path d="M90.2424 224.018C92.1032 236.151 90.6232 243.062 88.3759 254.507C78.4078 251.877 51.2266 239.948 55.0015 219.734C57.9248 204.079 57.2975 206.416 64.645 194.936C71.0208 205.893 88.8232 214.763 90.2424 224.018Z" fill="url(#paint12_linear_2115_637)"/>
<path d="M77.1365 224.936C75.2757 237.069 76.7557 243.98 79.003 255.425C88.9711 252.795 116.152 240.866 112.377 220.652C109.454 204.997 110.081 207.334 102.734 195.854C96.3582 206.811 78.5557 215.681 77.1365 224.936Z" fill="url(#paint13_linear_2115_637)"/>
<path d="M126.192 226.459C126.192 239.14 107.058 256.078 94.3768 256.078C81.6959 256.078 81.418 258.886 81.418 246.205C81.418 233.524 90.5498 230.362 103.231 230.362C126.192 224.305 123.767 211.764 126.192 226.459Z" fill="url(#paint14_linear_2115_637)"/>
<path d="M126.192 226.459C126.192 239.14 107.058 256.078 94.3768 256.078C81.6959 256.078 81.418 258.886 81.418 246.205C81.418 233.524 90.5498 230.362 103.231 230.362C126.192 224.305 123.767 211.764 126.192 226.459Z" fill="url(#paint15_linear_2115_637)"/>
<path d="M60.4261 228.9C60.4261 241.581 73.5137 235.1 83.3869 255.535C93.9488 229.589 106.348 241.581 106.348 228.9C106.348 216.22 93.0304 201.807 83.3869 194C73.0545 199.97 60.4261 216.22 60.4261 228.9Z" fill="url(#paint16_radial_2115_637)"/>
<path d="M60.1666 226.832C58.789 241.757 74.8861 240.543 79.9375 249.564C73.9923 235.558 62.4873 242.039 62.4873 229.358C62.4873 216.677 70.2693 208.464 76.4687 198.82C67.2844 208.234 63.1515 213.745 60.1666 226.832Z" fill="#EEC1A9"/>
<path d="M41.1366 226.584C41.1366 239.265 60.2704 256.203 72.9513 256.203C85.6322 256.203 85.9102 259.011 85.9102 246.33C85.9102 233.649 76.7783 230.487 64.0974 230.487C41.1366 224.43 43.5615 211.889 41.1366 226.584Z" fill="url(#paint17_linear_2115_637)"/>
<path d="M41.1366 226.584C41.1366 239.265 60.2704 256.203 72.9513 256.203C85.6322 256.203 85.9102 259.011 85.9102 246.33C85.9102 233.649 76.7783 230.487 64.0974 230.487C41.1366 224.43 43.5615 211.889 41.1366 226.584Z" fill="url(#paint18_linear_2115_637)"/>
<path d="M57.2115 225.5C54.4198 236.099 69.4925 250.612 78.3218 252.938C87.1512 255.264 86.7266 257.661 89.5183 247.063C92.31 236.465 82.8595 225.132 74.0301 222.806C51.6028 220.838 62.135 213.663 57.2115 225.5Z" fill="url(#paint19_radial_2115_637)"/>
<path d="M113.004 227.062C117.476 224.77 123.566 219.715 123.566 219.715C123.566 219.715 121.428 222.329 119.893 223.848C116.845 226.862 116.688 228.314 113.004 230.506C109.937 232.332 107.56 233.92 104.279 235.328C101.097 236.694 98.9103 236.874 96.0135 238.772C92.0763 241.353 90.1431 242.859 87.9772 247.038C86.7893 249.33 84.9923 255.534 84.9923 255.534C84.9923 255.534 83.66 247.577 84.5331 244.283C85.751 239.688 87.8292 237.236 91.6509 234.41C95.8012 231.34 99.4204 232.249 104.279 230.506C107.728 229.27 109.744 228.733 113.004 227.062Z" fill="#EAB29F" fill-opacity="0.84"/>
<path d="M109.133 221.355C113.87 230.42 101.803 247.463 93.571 251.766C85.3388 256.069 86.2073 258.17 81.4696 249.106C76.7319 240.041 83.8775 227.302 92.1097 222.999C113.762 215.693 102.068 211.674 109.133 221.355Z" fill="url(#paint20_radial_2115_637)"/>
<path d="M109.095 221.379C110.271 223.632 110.406 226.385 109.814 229.317C109.221 232.251 107.902 235.361 106.177 238.324C102.726 244.251 97.6564 249.58 93.5503 251.726C92.0627 252.504 90.8713 253.21 89.8915 253.791C89.5151 254.014 89.1699 254.218 88.8512 254.401C88.2763 254.732 87.7882 254.991 87.357 255.164C86.9257 255.336 86.5542 255.421 86.2121 255.404C85.5317 255.37 84.9497 254.933 84.238 253.925C83.5267 252.917 82.6942 251.352 81.5092 249.085C79.149 244.569 79.7468 239.134 81.9666 234.285C84.1857 229.438 88.0225 225.187 92.1273 223.04C102.73 219.462 105.344 216.67 106.08 215.885C106.095 215.868 106.11 215.852 106.124 215.838C106.166 215.793 106.2 215.758 106.228 215.732C106.256 215.705 106.276 215.69 106.289 215.684C106.292 215.682 106.293 215.681 106.295 215.681C106.297 215.684 106.303 215.692 106.309 215.71C106.326 215.754 106.34 215.827 106.362 215.936C106.365 215.951 106.368 215.967 106.372 215.984C106.398 216.118 106.435 216.293 106.494 216.512C106.731 217.388 107.327 218.957 109.095 221.379ZM106.297 215.68C106.297 215.68 106.297 215.68 106.297 215.68L106.297 215.68Z" stroke="#C88181" stroke-opacity="0.02" stroke-width="0.0894079"/>
<path d="M98.5401 220.632L106.117 216.27C106.117 216.27 101.9 220.332 98.5401 221.78C97.2382 222.341 96.3878 222.344 95.096 222.928C92.8069 223.963 91.6658 224.903 89.815 226.602C86.9739 229.21 85.8811 231.231 84.0748 234.638C83.0216 236.625 82.2147 237.713 81.7787 239.919C81.2027 242.834 81.6554 244.638 82.4676 247.496C83.0276 249.467 83.7966 250.407 84.534 252.318C85.1159 253.826 85.9117 256.221 85.9117 256.221C85.9117 256.221 82.5052 252.043 81.3195 248.874C80.2347 245.974 79.7535 244.157 79.9419 241.067C80.0821 238.766 80.4728 237.471 81.3195 235.327C82.2346 233.01 83.0348 231.806 84.534 229.816C86.7482 226.878 88.266 225.279 91.4223 223.387C93.979 221.855 98.5401 220.632 98.5401 220.632Z" fill="url(#paint21_linear_2115_637)"/>
<path d="M58.359 221.553C58.5155 220.488 58.8182 219.027 58.8182 219.027C58.8182 219.027 58.9679 220.79 58.8182 222.242C58.6577 223.8 58.1969 224.837 57.8998 226.375C57.5239 228.32 57.8987 229.5 58.359 231.426C59.1606 234.781 60.4875 236.425 62.4919 239.233C65.1816 243 67.2527 244.764 70.9874 247.499C75.0645 250.484 79.1467 249.66 82.4678 253.469C83.2694 254.388 84.3047 255.994 84.3047 255.994C84.3047 255.994 82.6481 254.839 81.5494 254.157C77.3564 251.555 74.1257 251.686 70.069 248.876C65.8993 245.988 63.697 243.913 60.8847 239.692C58.9503 236.788 57.5772 235.094 56.9813 231.656C56.6138 229.535 56.5231 228.248 56.9813 226.145C57.375 224.339 58.0901 223.382 58.359 221.553Z" fill="url(#paint22_linear_2115_637)"/>
<path d="M91.3918 251.652C88.4788 254.351 82.9847 257.371 82.9847 257.371C82.9847 257.371 87.8101 253.489 90.5351 250.623C93.2034 247.817 94.553 246.089 96.775 242.917C99.1137 239.579 100.689 237.77 102.123 233.955C102.716 232.378 103.34 229.816 103.34 229.816C103.34 229.816 103.139 232.75 102.682 234.565C101.637 238.722 99.8473 240.662 97.44 244.208C95.3363 247.307 94.1396 249.107 91.3918 251.652Z" fill="url(#paint23_linear_2115_637)"/>
<path d="M217.902 325.569C197.058 328.136 173.764 328.316 152.543 326.074C131.321 323.832 113.687 319.328 103.065 313.437C92.4433 307.545 89.5913 300.688 95.063 294.195C100.535 287.702 113.94 282.037 132.675 278.301C151.41 274.565 174.138 273.023 196.446 273.977C218.753 274.93 239.048 278.309 253.39 283.458C267.731 288.608 275.095 295.16 274.051 301.842C273.008 308.524 263.632 314.86 247.744 319.618L183.247 300.668L217.902 325.569Z" fill="#55833F"/>
<path d="M200.654 307.067L241.608 315.707L176.002 296.496L211.644 321.813L200.654 307.067Z" fill="#55833F" stroke="#55833F" stroke-width="0.184212"/>
<path d="M175.42 261.251C173.049 276.712 174.935 285.519 177.799 300.102C190.501 296.751 225.137 281.551 220.327 255.792C216.602 235.844 217.401 238.822 208.038 224.193C199.914 238.155 177.229 249.458 175.42 261.251Z" fill="url(#paint24_linear_2115_637)"/>
<path d="M192.127 262.415C194.498 277.876 192.612 286.683 189.748 301.266C177.046 297.915 142.41 282.715 147.22 256.956C150.945 237.008 150.146 239.986 159.509 225.357C167.633 239.319 190.318 250.622 192.127 262.415Z" fill="url(#paint25_linear_2115_637)"/>
<path d="M129.622 264.358C129.622 280.517 154.004 302.102 170.163 302.102C186.322 302.102 186.676 305.679 186.676 289.521C186.676 273.362 175.039 269.332 158.88 269.332C129.622 261.614 132.712 245.633 129.622 264.358Z" fill="url(#paint26_linear_2115_637)"/>
<path d="M129.622 264.358C129.622 280.517 154.004 302.102 170.163 302.102C186.322 302.102 186.676 305.679 186.676 289.521C186.676 273.362 175.039 269.332 158.88 269.332C129.622 261.614 132.712 245.633 129.622 264.358Z" fill="url(#paint27_linear_2115_637)"/>
<path d="M213.419 267.473C213.419 283.632 196.742 275.372 184.161 301.412C170.702 268.35 154.902 283.632 154.902 267.473C154.902 251.314 171.872 232.948 184.161 223C197.327 230.607 213.419 251.314 213.419 267.473Z" fill="url(#paint28_radial_2115_637)"/>
<path d="M213.752 264.84C215.508 283.858 194.995 282.31 188.559 293.805C196.134 275.958 210.795 284.217 210.795 268.058C210.795 251.899 200.879 241.433 192.979 229.145C204.682 241.14 209.949 248.162 213.752 264.84Z" fill="#EEC1A9"/>
<path d="M238.003 264.519C238.003 280.678 213.621 302.262 197.462 302.262C181.303 302.262 180.949 305.84 180.949 289.681C180.949 273.522 192.586 269.492 208.745 269.492C238.003 261.774 234.913 245.793 238.003 264.519Z" fill="url(#paint29_linear_2115_637)"/>
<path d="M238.003 264.519C238.003 280.678 213.621 302.262 197.462 302.262C181.303 302.262 180.949 305.84 180.949 289.681C180.949 273.522 192.586 269.492 208.745 269.492C238.003 261.774 234.913 245.793 238.003 264.519Z" fill="url(#paint30_linear_2115_637)"/>
<path d="M217.524 263.136C221.082 276.641 201.875 295.136 190.624 298.099C179.373 301.063 179.914 304.118 176.357 290.613C172.799 277.108 184.842 262.667 196.093 259.703C224.671 257.195 211.25 248.053 217.524 263.136Z" fill="url(#paint31_radial_2115_637)"/>
<path d="M146.42 265.128C140.722 262.208 132.961 255.766 132.961 255.766C132.961 255.766 135.686 259.097 137.642 261.032C141.526 264.873 141.726 266.724 146.42 269.517C150.329 271.844 153.358 273.867 157.538 275.661C161.594 277.402 164.38 277.631 168.071 280.05C173.088 283.338 175.551 285.257 178.311 290.583C179.825 293.504 182.115 301.409 182.115 301.409C182.115 301.409 183.813 291.269 182.7 287.072C181.148 281.217 178.5 278.092 173.63 274.491C168.341 270.58 163.73 271.738 157.538 269.517C153.144 267.941 150.574 267.257 146.42 265.128Z" fill="#EAB29F" fill-opacity="0.84"/>
<path d="M151.361 257.858C145.324 269.408 160.701 291.126 171.191 296.609C181.681 302.092 180.574 304.77 186.612 293.219C192.649 281.669 183.543 265.435 173.053 259.952C145.462 250.642 160.363 245.521 151.361 257.858Z" fill="url(#paint32_radial_2115_637)"/>
<path d="M151.41 257.888C149.91 260.759 149.739 264.266 150.493 268.003C151.248 271.741 152.929 275.704 155.128 279.48C159.525 287.033 165.985 293.824 171.217 296.559C173.113 297.549 174.631 298.449 175.88 299.189C176.359 299.473 176.799 299.734 177.205 299.967C177.938 300.388 178.56 300.719 179.109 300.939C179.659 301.159 180.132 301.266 180.568 301.245C181.435 301.202 182.177 300.644 183.084 299.36C183.99 298.076 185.051 296.082 186.561 293.193C189.569 287.439 188.807 280.512 185.978 274.334C183.15 268.158 178.261 262.74 173.031 260.004C159.52 255.445 156.189 251.888 155.252 250.887C155.232 250.866 155.213 250.845 155.195 250.826C155.142 250.77 155.099 250.725 155.063 250.692C155.027 250.657 155.002 250.639 154.985 250.63C154.982 250.628 154.979 250.627 154.977 250.627C154.974 250.631 154.967 250.641 154.959 250.664C154.938 250.72 154.92 250.813 154.892 250.952C154.888 250.971 154.884 250.992 154.88 251.013C154.845 251.184 154.799 251.407 154.723 251.686C154.421 252.803 153.662 254.801 151.41 257.888ZM154.974 250.626C154.974 250.626 154.974 250.626 154.975 250.626L154.974 250.626Z" stroke="#C88181" stroke-opacity="0.02" stroke-width="0.11393"/>
<path d="M164.858 256.942L155.203 251.383C155.203 251.383 160.577 256.559 164.858 258.405C166.517 259.12 167.601 259.123 169.247 259.868C172.164 261.187 173.618 262.384 175.977 264.549C179.597 267.873 180.989 270.447 183.291 274.789C184.633 277.321 185.661 278.708 186.217 281.519C186.951 285.233 186.374 287.532 185.339 291.174C184.626 293.685 183.646 294.883 182.706 297.318C181.964 299.24 180.95 302.292 180.95 302.292C180.95 302.292 185.291 296.968 186.802 292.93C188.184 289.235 188.798 286.919 188.558 282.982C188.379 280.05 187.881 278.4 186.802 275.667C185.636 272.714 184.616 271.181 182.706 268.645C179.884 264.9 177.95 262.863 173.928 260.453C170.67 258.501 164.858 256.942 164.858 256.942Z" fill="url(#paint33_linear_2115_637)"/>
<path d="M216.058 258.113C215.859 256.756 215.473 254.895 215.473 254.895C215.473 254.895 215.282 257.14 215.473 258.991C215.677 260.976 216.264 262.298 216.643 264.257C217.122 266.735 216.645 268.239 216.058 270.694C215.036 274.969 213.346 277.064 210.792 280.642C207.364 285.442 204.725 287.69 199.966 291.175C194.771 294.979 189.569 293.929 185.337 298.782C184.315 299.953 182.996 302 182.996 302C182.996 302 185.107 300.529 186.507 299.66C191.85 296.343 195.967 296.511 201.136 292.93C206.45 289.25 209.256 286.606 212.84 281.227C215.305 277.527 217.054 275.367 217.813 270.987C218.282 268.285 218.397 266.644 217.813 263.965C217.312 261.663 216.401 260.443 216.058 258.113Z" fill="url(#paint34_linear_2115_637)"/>
<path d="M173.967 296.462C177.679 299.9 184.68 303.749 184.68 303.749C184.68 303.749 178.531 298.802 175.059 295.151C171.659 291.575 169.939 289.372 167.108 285.331C164.127 281.077 162.12 278.772 160.293 273.911C159.538 271.901 158.742 268.637 158.742 268.637C158.742 268.637 158.998 272.375 159.58 274.688C160.913 279.985 163.193 282.457 166.26 286.976C168.941 290.925 170.466 293.218 173.967 296.462Z" fill="url(#paint35_linear_2115_637)"/>
<path d="M824.647 261.743C823.423 269.724 824.397 274.269 825.875 281.797C832.431 280.067 850.309 272.221 847.826 258.926C845.903 248.629 846.316 250.167 841.483 242.616C837.29 249.822 825.581 255.656 824.647 261.743Z" fill="url(#paint36_linear_2115_637)"/>
<path d="M833.263 262.349C834.487 270.329 833.513 274.875 832.035 282.402C825.479 280.672 807.601 272.827 810.084 259.531C812.007 249.235 811.594 250.772 816.427 243.221C820.62 250.428 832.329 256.262 833.263 262.349Z" fill="url(#paint37_linear_2115_637)"/>
<path d="M801.001 263.35C801.001 271.69 813.585 282.831 821.926 282.831C830.266 282.831 830.449 284.678 830.449 276.337C830.449 267.997 824.443 265.917 816.102 265.917C801.001 261.933 802.595 253.685 801.001 263.35Z" fill="url(#paint38_linear_2115_637)"/>
<path d="M801.001 263.35C801.001 271.69 813.585 282.831 821.926 282.831C830.266 282.831 830.449 284.678 830.449 276.337C830.449 267.997 824.443 265.917 816.102 265.917C801.001 261.933 802.595 253.685 801.001 263.35Z" fill="url(#paint39_linear_2115_637)"/>
<path d="M844.255 264.955C844.255 273.295 835.646 269.032 829.153 282.473C822.206 265.408 814.051 273.295 814.051 264.955C814.051 256.614 822.81 247.135 829.153 242C835.948 245.926 844.255 256.614 844.255 264.955Z" fill="url(#paint40_radial_2115_637)"/>
<path d="M844.426 263.596C845.332 273.412 834.744 272.614 831.422 278.547C835.332 269.335 842.899 273.598 842.899 265.257C842.899 256.917 837.781 251.515 833.703 245.172C839.744 251.364 842.462 254.988 844.426 263.596Z" fill="#EEC1A9"/>
<path d="M856.941 263.432C856.941 271.773 844.356 282.913 836.016 282.913C827.675 282.913 827.492 284.76 827.492 276.42C827.492 268.079 833.498 265.999 841.839 265.999C856.941 262.015 855.346 253.767 856.941 263.432Z" fill="url(#paint41_linear_2115_637)"/>
<path d="M856.941 263.432C856.941 271.773 844.356 282.913 836.016 282.913C827.675 282.913 827.492 284.76 827.492 276.42C827.492 268.079 833.498 265.999 841.839 265.999C856.941 262.015 855.346 253.767 856.941 263.432Z" fill="url(#paint42_linear_2115_637)"/>
<path d="M846.377 262.72C848.213 269.69 838.3 279.236 832.492 280.766C826.685 282.296 826.964 283.873 825.128 276.902C823.292 269.931 829.508 262.477 835.315 260.948C850.066 259.653 843.139 254.934 846.377 262.72Z" fill="url(#paint43_radial_2115_637)"/>
<path d="M809.677 263.747C806.736 262.239 802.73 258.914 802.73 258.914C802.73 258.914 804.137 260.634 805.147 261.632C807.151 263.615 807.255 264.57 809.677 266.012C811.695 267.213 813.258 268.257 815.416 269.183C817.509 270.082 818.947 270.2 820.853 271.449C823.442 273.146 824.714 274.136 826.138 276.885C826.92 278.393 828.102 282.473 828.102 282.473C828.102 282.473 828.978 277.239 828.404 275.073C827.603 272.051 826.236 270.438 823.722 268.579C820.992 266.561 818.612 267.158 815.416 266.012C813.148 265.199 811.821 264.846 809.677 263.747Z" fill="#EAB29F" fill-opacity="0.84"/>
<path d="M812.226 259.991C809.11 265.952 817.047 277.162 822.462 279.992C827.876 282.822 827.305 284.204 830.421 278.243C833.537 272.281 828.838 263.902 823.423 261.071C809.182 256.266 816.873 253.623 812.226 259.991Z" fill="url(#paint44_radial_2115_637)"/>
<path d="M814.257 256.837C814.253 256.851 814.249 256.866 814.245 256.882C814.079 257.495 813.672 258.553 812.502 260.161C811.779 261.56 811.686 263.288 812.066 265.169C812.448 267.058 813.3 269.073 814.424 271.003C816.678 274.874 819.977 278.329 822.611 279.706C823.597 280.222 824.392 280.693 825.038 281.076C825.284 281.221 825.508 281.354 825.712 281.471C826.088 281.687 826.395 281.849 826.658 281.955C826.921 282.06 827.121 282.1 827.287 282.092C827.593 282.077 827.904 281.889 828.361 281.243C828.815 280.6 829.352 279.591 830.135 278.093C831.631 275.231 831.265 271.757 829.828 268.617C828.394 265.487 825.922 262.75 823.296 261.369C817.104 259.277 815.016 257.583 814.257 256.837Z" stroke="#C88181" stroke-opacity="0.02" stroke-width="0.64553"/>
<path d="M819.191 259.522L814.207 256.652C814.207 256.652 816.981 259.324 819.191 260.277C820.047 260.646 820.606 260.648 821.456 261.032C822.962 261.713 823.712 262.331 824.929 263.448C826.798 265.164 827.517 266.493 828.705 268.734C829.398 270.041 829.928 270.756 830.215 272.207C830.594 274.124 830.296 275.311 829.762 277.191C829.394 278.487 828.888 279.105 828.403 280.362C828.02 281.354 827.497 282.93 827.497 282.93C827.497 282.93 829.737 280.181 830.517 278.097C831.231 276.19 831.547 274.995 831.423 272.962C831.331 271.449 831.074 270.597 830.517 269.187C829.915 267.663 829.389 266.871 828.403 265.562C826.946 263.629 825.948 262.578 823.872 261.334C822.191 260.326 819.191 259.522 819.191 259.522Z" fill="url(#paint45_linear_2115_637)"/>
<path d="M845.616 260.122C845.513 259.422 845.314 258.461 845.314 258.461C845.314 258.461 845.215 259.62 845.314 260.575C845.419 261.6 845.722 262.282 845.918 263.294C846.165 264.573 845.919 265.349 845.616 266.616C845.089 268.823 844.216 269.904 842.898 271.751C841.128 274.228 839.766 275.388 837.31 277.187C834.628 279.151 831.943 278.609 829.759 281.114C829.232 281.718 828.551 282.775 828.551 282.775C828.551 282.775 829.64 282.015 830.363 281.567C833.121 279.855 835.246 279.942 837.914 278.093C840.656 276.194 842.105 274.829 843.955 272.053C845.227 270.143 846.13 269.028 846.522 266.767C846.764 265.372 846.823 264.525 846.522 263.143C846.263 261.955 845.793 261.325 845.616 260.122Z" fill="url(#paint46_linear_2115_637)"/>
<path d="M823.89 279.921C825.806 281.695 829.419 283.682 829.419 283.682C829.419 283.682 826.246 281.129 824.453 279.244C822.698 277.398 821.811 276.261 820.349 274.175C818.811 271.98 817.774 270.79 816.832 268.281C816.442 267.244 816.031 265.559 816.031 265.559C816.031 265.559 816.163 267.488 816.464 268.682C817.151 271.416 818.328 272.692 819.912 275.024C821.295 277.063 822.082 278.246 823.89 279.921Z" fill="url(#paint47_linear_2115_637)"/>
<path d="M757.335 332.107C731.433 335.297 702.486 335.52 676.115 332.734C649.744 329.948 627.831 324.351 614.631 317.03C601.432 309.71 597.887 301.188 604.687 293.119C611.486 285.051 628.144 278.011 651.426 273.369C674.707 268.726 702.951 266.811 730.672 267.995C758.392 269.179 783.612 273.379 801.434 279.778C819.255 286.177 828.406 294.319 827.109 302.622C825.813 310.926 814.161 318.799 794.418 324.712L714.27 301.163L757.335 332.107Z" fill="#51833A"/>
<path d="M743.419 313.689L794.311 324.427L712.785 300.553L757.076 332.013L743.419 313.689Z" fill="#51833A"/>
<path d="M780.218 267.488C777.508 257.025 766.962 261.958 763.445 265.685C748.926 278.49 744.122 295.734 753.706 297.788C757.493 298.599 785.448 287.688 780.218 267.488Z" fill="#ADD68C"/>
<path d="M738.106 298.968C738.106 301.757 745.858 304.018 755.42 304.018C764.003 304.018 769.021 303.073 771.849 298.771C772.503 297.777 772.717 296.437 771.965 295.514C769.74 292.782 763.652 293.918 755.42 293.918C745.858 293.918 738.106 296.179 738.106 298.968Z" fill="#ADD68C"/>
<path fill-rule="evenodd" clip-rule="evenodd" d="M772.811 261.212C785.249 270.267 772.203 285.35 756.688 293.821C758.167 293.859 762.211 293.819 765.786 293.522C774.268 288.662 783.41 279.801 780.222 267.488C778.957 262.601 775.981 261.073 772.811 261.212Z" fill="#9FC581"/>
<path fill-rule="evenodd" clip-rule="evenodd" d="M745.563 294.804C759.812 297.321 766.673 296.317 769.308 294.023C770.463 294.294 771.362 294.753 771.972 295.501C772.724 296.424 772.51 297.764 771.856 298.758C769.027 303.06 764.01 304.004 755.427 304.004C745.865 304.004 738.113 301.744 738.113 298.955C738.113 297.235 741.061 295.716 745.563 294.804Z" fill="#9FC581"/>
<path d="M646.771 267.488C649.48 257.025 660.027 261.958 663.544 265.685C678.062 278.49 682.866 295.734 673.283 297.788C669.495 298.599 641.54 287.688 646.771 267.488Z" fill="#ADD68C"/>
<path d="M688.878 298.968C688.878 301.757 681.126 304.018 671.564 304.018C662.981 304.018 657.964 303.073 655.135 298.771C654.481 297.777 654.268 296.437 655.019 295.514C657.244 292.782 663.332 293.918 671.564 293.918C681.126 293.918 688.878 296.179 688.878 298.968Z" fill="#ADD68C"/>
<path fill-rule="evenodd" clip-rule="evenodd" d="M654.189 261.212C641.751 270.267 654.798 285.35 670.312 293.821C668.833 293.859 664.784 293.819 661.208 293.521C652.726 288.662 643.585 279.801 646.773 267.488C648.039 262.599 651.017 261.071 654.189 261.212Z" fill="#9FC581"/>
<path fill-rule="evenodd" clip-rule="evenodd" d="M681.229 294.848C667.117 297.32 660.309 296.314 657.687 294.031C656.531 294.302 655.63 294.76 655.019 295.51C654.268 296.433 654.481 297.773 655.135 298.767C657.964 303.069 662.981 304.013 671.564 304.013C681.126 304.013 687.777 301.752 687.777 298.963C687.777 297.266 685.314 295.764 681.229 294.848Z" fill="#9FC581"/>
<path d="M714.029 305.637C740.168 305.637 779.262 296.439 755.827 236.561C754.239 232.503 750.496 223.937 746.979 215.911C747.43 214.829 747.573 213.582 747.61 212.394C747.61 205.023 741.635 199.048 734.264 199.048C731.018 198.687 727.801 200.46 726.599 201.392C724.585 203.106 720.918 207.164 718.483 206.262C713.866 205.035 709.465 205.751 707.842 206.262C705.408 207.164 701.74 203.106 699.726 201.392C698.915 200.521 696.282 198.831 692.242 199.048C684.871 199.048 678.896 205.023 678.896 212.394C678.932 213.553 679.076 214.288 679.617 215.55C676.731 223.666 673.575 232.954 670.96 238.545C647.694 297.16 687.889 305.637 714.029 305.637Z" fill="#ADD68C"/>
<path fill-rule="evenodd" clip-rule="evenodd" d="M740.448 291.392C750.487 291.151 765.192 275.899 743.694 216.815C745.798 211.104 745.912 199.682 729.897 199.682C729.891 199.673 729.885 199.664 729.879 199.656C731.193 199.185 732.724 198.877 734.262 199.048C741.633 199.048 747.608 205.023 747.608 212.394C747.571 213.582 747.428 214.829 746.977 215.911C750.494 223.937 754.237 232.503 755.825 236.561C776.414 289.167 748.74 302.655 723.988 305.156C723.553 301.128 723.793 297.235 724.306 294.277L740.448 291.392Z" fill="#9FC581"/>
<path fill-rule="evenodd" clip-rule="evenodd" d="M686.095 291.392C676.056 291.151 661.351 275.899 682.849 216.815C680.745 211.104 680.631 199.682 696.646 199.682C696.652 199.673 696.658 199.664 696.664 199.656C695.35 199.185 693.819 198.877 692.281 199.048C684.91 199.048 678.935 205.023 678.935 212.394C678.972 213.582 679.115 214.829 679.566 215.911C676.049 223.937 672.306 232.503 670.718 236.561C650.129 289.167 677.803 302.655 702.555 305.156C702.99 301.128 702.75 297.235 702.237 294.277L686.095 291.392Z" fill="#9FC581"/>
<ellipse cx="693.068" cy="212.94" rx="4.01738" ry="4.86955" fill="#5F4B3D"/>
<ellipse cx="732.185" cy="212.94" rx="4.01738" ry="4.86955" fill="#5F4B3D"/>
<path d="M718.419 222.046C713.844 224.848 710.324 223.163 708.664 222.045C707.14 221.03 707.955 219.784 708.664 220.282C710.324 221.399 713.573 223.456 718.419 220.282C719.128 219.784 719.976 221.092 718.419 222.046Z" fill="#5F4B3D"/>
<ellipse cx="746.395" cy="226.372" rx="8.65698" ry="7.66503" fill="#DBB396"/>
<ellipse cx="680.93" cy="226.372" rx="8.65698" ry="7.66503" fill="#DBB396"/>
<path fill-rule="evenodd" clip-rule="evenodd" d="M739.271 301.696C731.185 304.926 722.02 305.864 714.108 305.864C705.755 305.864 695.888 304.9 687.323 301.374C677.172 285.551 670.165 258.004 689.796 242.528C703.322 231.866 724.092 231.832 737.562 242.565C757.127 258.152 749.565 285.938 739.271 301.696Z" fill="#DAEDB8"/>
<path fill-rule="evenodd" clip-rule="evenodd" d="M714.114 305.859C722.026 305.859 731.191 304.92 739.277 301.69C741.457 298.353 743.515 294.475 745.218 290.289C717.813 301.591 697.756 296.503 681.672 290.331C683.289 294.368 685.242 298.116 687.329 301.368C695.894 304.895 705.761 305.859 714.114 305.859Z" fill="#B7CF8C" fill-opacity="0.5"/>
<path d="M728.658 308.701C734.971 299.232 738.47 290.665 743.43 278.672L718.431 289.433C717.596 295.091 715.88 306.89 715.885 308.526C715.892 310.856 719.756 311.517 720.917 309.122C721.329 308.343 721.798 308.223 722.171 308.336C722.576 308.459 722.664 308.953 722.84 309.339C723.595 310.986 727.332 310.689 728.658 308.701Z" fill="#DAEDB8"/>
<path fill-rule="evenodd" clip-rule="evenodd" d="M741.668 281.268C737.258 294.424 732.807 305.683 728.913 309.126C727.123 310.709 723.554 310.989 722.835 309.345C722.8 309.264 722.768 309.178 722.735 309.092C722.615 308.766 722.492 308.438 722.172 308.341C721.799 308.228 721.33 308.347 720.918 309.126C719.758 311.522 715.893 310.861 715.886 308.53C715.885 308.304 715.918 307.885 715.976 307.315C718.167 308.222 719.025 307.048 719.895 305.858C720.444 305.107 720.998 304.349 721.897 304.107C722.946 303.824 722.926 304.318 722.9 304.95C722.869 305.731 722.829 306.722 724.782 306.722C728.012 306.722 738.021 287.695 741.809 280.48L741.668 281.268Z" fill="#ADD68C"/>
<path d="M698.666 308.701C692.354 299.232 688.854 290.665 683.895 278.672L708.893 289.433C709.729 295.091 711.444 306.89 711.439 308.526C711.432 310.856 707.568 311.517 706.407 309.122C705.995 308.343 705.526 308.223 705.154 308.336C704.748 308.459 704.661 308.953 704.484 309.339C703.729 310.986 699.992 310.689 698.666 308.701Z" fill="#DAEDB8"/>
<path fill-rule="evenodd" clip-rule="evenodd" d="M685.661 281.299C690.068 294.441 694.515 305.686 698.407 309.126C700.196 310.709 703.766 310.989 704.484 309.345C704.52 309.264 704.552 309.178 704.584 309.092C704.705 308.766 704.827 308.438 705.148 308.341C705.52 308.228 705.989 308.347 706.401 309.126C707.562 311.522 711.426 310.861 711.433 308.53C711.434 308.304 711.402 307.886 711.344 307.316C709.156 308.22 708.298 307.047 707.43 305.858C706.88 305.107 706.326 304.349 705.428 304.107C704.378 303.824 704.398 304.318 704.424 304.95C704.455 305.731 704.495 306.722 702.542 306.722C699.313 306.722 689.303 287.695 685.516 280.48L685.661 281.299Z" fill="#ADD68C"/>
<defs>
<linearGradient id="paint0_linear_2115_637" x1="926.232" y1="216.187" x2="929.119" y2="234.331" gradientUnits="userSpaceOnUse">
<stop stop-color="#F1B09E"/>
<stop offset="1" stop-color="#FAE6CE"/>
</linearGradient>
<linearGradient id="paint1_linear_2115_637" x1="960.182" y1="217.011" x2="957.295" y2="235.155" gradientUnits="userSpaceOnUse">
<stop stop-color="#F1B09E"/>
<stop offset="1" stop-color="#FAE6CE"/>
</linearGradient>
<linearGradient id="paint2_linear_2115_637" x1="969.094" y1="250.415" x2="942.908" y2="266.91" gradientUnits="userSpaceOnUse">
<stop stop-color="#EFB7A4"/>
<stop offset="0.942708" stop-color="#F7E7D8"/>
</linearGradient>
<linearGradient id="paint3_linear_2115_637" x1="969.094" y1="250.415" x2="942.908" y2="266.91" gradientUnits="userSpaceOnUse">
<stop stop-color="#EFB7A4"/>
<stop offset="0.942708" stop-color="#F7E7D8"/>
</linearGradient>
<radialGradient id="paint4_radial_2115_637" cx="0" cy="0" r="1" gradientUnits="userSpaceOnUse" gradientTransform="translate(942.73 224.434) rotate(89.731) scale(43.9182 32.7748)">
<stop stop-color="#FADFCC"/>
<stop offset="1" stop-color="#F1BEAB"/>
</radialGradient>
<linearGradient id="paint5_linear_2115_637" x1="917.277" y1="250.521" x2="943.463" y2="267.016" gradientUnits="userSpaceOnUse">
<stop stop-color="#EFB7A4"/>
<stop offset="0.942708" stop-color="#F7E7D8"/>
</linearGradient>
<linearGradient id="paint6_linear_2115_637" x1="917.277" y1="250.521" x2="943.463" y2="267.016" gradientUnits="userSpaceOnUse">
<stop stop-color="#EFB7A4"/>
<stop offset="0.942708" stop-color="#F7E7D8"/>
</linearGradient>
<radialGradient id="paint7_radial_2115_637" cx="0" cy="0" r="1" gradientUnits="userSpaceOnUse" gradientTransform="translate(944.33 264.235) rotate(-139.07) scale(33.6049 46.2153)">
<stop stop-color="#FCE5D0"/>
<stop offset="1" stop-color="#EFB7A4"/>
</radialGradient>
<radialGradient id="paint8_radial_2115_637" cx="0" cy="0" r="1" gradientUnits="userSpaceOnUse" gradientTransform="translate(945.912 264.784) rotate(-51.8626) scale(33.6563 43.8096)">
<stop stop-color="#FCE5D0"/>
<stop offset="1" stop-color="#EFB7A4"/>
</radialGradient>
<linearGradient id="paint9_linear_2115_637" x1="951.581" y1="233.09" x2="951.581" y2="268.966" gradientUnits="userSpaceOnUse">
<stop stop-color="#F0BFAF"/>
<stop offset="1" stop-color="#F0BFAF" stop-opacity="0"/>
</linearGradient>
<linearGradient id="paint10_linear_2115_637" x1="931.358" y1="235.566" x2="931.358" y2="268.762" gradientUnits="userSpaceOnUse">
<stop stop-color="#F4B59C"/>
<stop offset="1" stop-color="#F1C4B2" stop-opacity="0"/>
</linearGradient>
<linearGradient id="paint11_linear_2115_637" x1="950.057" y1="246.933" x2="953.375" y2="268.327" gradientUnits="userSpaceOnUse">
<stop stop-color="#F1BCA9"/>
<stop offset="1" stop-color="#F1BCA9" stop-opacity="0"/>
</linearGradient>
<linearGradient id="paint12_linear_2115_637" x1="64.7885" y1="197.444" x2="68.003" y2="217.65" gradientUnits="userSpaceOnUse">
<stop stop-color="#F1B09E"/>
<stop offset="1" stop-color="#FAE6CE"/>
</linearGradient>
<linearGradient id="paint13_linear_2115_637" x1="102.59" y1="198.362" x2="99.3759" y2="218.568" gradientUnits="userSpaceOnUse">
<stop stop-color="#F1B09E"/>
<stop offset="1" stop-color="#FAE6CE"/>
</linearGradient>
<linearGradient id="paint14_linear_2115_637" x1="112.516" y1="235.556" x2="83.3556" y2="253.924" gradientUnits="userSpaceOnUse">
<stop stop-color="#EFB7A4"/>
<stop offset="0.942708" stop-color="#F7E7D8"/>
</linearGradient>
<linearGradient id="paint15_linear_2115_637" x1="112.516" y1="235.556" x2="83.3556" y2="253.924" gradientUnits="userSpaceOnUse">
<stop stop-color="#EFB7A4"/>
<stop offset="0.942708" stop-color="#F7E7D8"/>
</linearGradient>
<radialGradient id="paint16_radial_2115_637" cx="0" cy="0" r="1" gradientUnits="userSpaceOnUse" gradientTransform="translate(83.1573 206.628) rotate(89.731) scale(48.907 36.4978)">
<stop stop-color="#FADFCC"/>
<stop offset="1" stop-color="#F1BEAB"/>
</radialGradient>
<linearGradient id="paint17_linear_2115_637" x1="54.8123" y1="235.681" x2="83.9725" y2="254.049" gradientUnits="userSpaceOnUse">
<stop stop-color="#EFB7A4"/>
<stop offset="0.942708" stop-color="#F7E7D8"/>
</linearGradient>
<linearGradient id="paint18_linear_2115_637" x1="54.8123" y1="235.681" x2="83.9725" y2="254.049" gradientUnits="userSpaceOnUse">
<stop stop-color="#EFB7A4"/>
<stop offset="0.942708" stop-color="#F7E7D8"/>
</linearGradient>
<radialGradient id="paint19_radial_2115_637" cx="0" cy="0" r="1" gradientUnits="userSpaceOnUse" gradientTransform="translate(84.9379 250.956) rotate(-139.07) scale(37.4222 51.4651)">
<stop stop-color="#FCE5D0"/>
<stop offset="1" stop-color="#EFB7A4"/>
</radialGradient>
<radialGradient id="paint20_radial_2115_637" cx="0" cy="0" r="1" gradientUnits="userSpaceOnUse" gradientTransform="translate(86.7007 251.564) rotate(-51.8626) scale(37.4794 48.7861)">
<stop stop-color="#FCE5D0"/>
<stop offset="1" stop-color="#EFB7A4"/>
</radialGradient>
<linearGradient id="paint21_linear_2115_637" x1="93.0096" y1="216.27" x2="93.0096" y2="256.221" gradientUnits="userSpaceOnUse">
<stop stop-color="#F0BFAF"/>
<stop offset="1" stop-color="#F0BFAF" stop-opacity="0"/>
</linearGradient>
<linearGradient id="paint22_linear_2115_637" x1="70.4877" y1="219.027" x2="70.4877" y2="255.994" gradientUnits="userSpaceOnUse">
<stop stop-color="#F4B59C"/>
<stop offset="1" stop-color="#F1C4B2" stop-opacity="0"/>
</linearGradient>
<linearGradient id="paint23_linear_2115_637" x1="91.3144" y1="231.682" x2="95.0101" y2="255.506" gradientUnits="userSpaceOnUse">
<stop stop-color="#F1BCA9"/>
<stop offset="1" stop-color="#F1BCA9" stop-opacity="0"/>
</linearGradient>
<linearGradient id="paint24_linear_2115_637" x1="207.855" y1="227.389" x2="203.759" y2="253.136" gradientUnits="userSpaceOnUse">
<stop stop-color="#F1B09E"/>
<stop offset="1" stop-color="#FAE6CE"/>
</linearGradient>
<linearGradient id="paint25_linear_2115_637" x1="159.691" y1="228.553" x2="163.788" y2="254.3" gradientUnits="userSpaceOnUse">
<stop stop-color="#F1B09E"/>
<stop offset="1" stop-color="#FAE6CE"/>
</linearGradient>
<linearGradient id="paint26_linear_2115_637" x1="147.049" y1="275.95" x2="184.207" y2="299.357" gradientUnits="userSpaceOnUse">
<stop stop-color="#EFB7A4"/>
<stop offset="0.942708" stop-color="#F7E7D8"/>
</linearGradient>
<linearGradient id="paint27_linear_2115_637" x1="147.049" y1="275.95" x2="184.207" y2="299.357" gradientUnits="userSpaceOnUse">
<stop stop-color="#EFB7A4"/>
<stop offset="0.942708" stop-color="#F7E7D8"/>
</linearGradient>
<radialGradient id="paint28_radial_2115_637" cx="0" cy="0" r="1" gradientUnits="userSpaceOnUse" gradientTransform="translate(184.453 239.092) rotate(90.269) scale(62.3209 46.5082)">
<stop stop-color="#FADFCC"/>
<stop offset="1" stop-color="#F1BEAB"/>
</radialGradient>
<linearGradient id="paint29_linear_2115_637" x1="220.576" y1="276.11" x2="183.418" y2="299.517" gradientUnits="userSpaceOnUse">
<stop stop-color="#EFB7A4"/>
<stop offset="0.942708" stop-color="#F7E7D8"/>
</linearGradient>
<linearGradient id="paint30_linear_2115_637" x1="220.576" y1="276.11" x2="183.418" y2="299.517" gradientUnits="userSpaceOnUse">
<stop stop-color="#EFB7A4"/>
<stop offset="0.942708" stop-color="#F7E7D8"/>
</linearGradient>
<radialGradient id="paint31_radial_2115_637" cx="0" cy="0" r="1" gradientUnits="userSpaceOnUse" gradientTransform="translate(182.193 295.573) rotate(-40.9302) scale(47.6861 65.5806)">
<stop stop-color="#FCE5D0"/>
<stop offset="1" stop-color="#EFB7A4"/>
</radialGradient>
<radialGradient id="paint32_radial_2115_637" cx="0" cy="0" r="1" gradientUnits="userSpaceOnUse" gradientTransform="translate(179.946 296.351) rotate(-128.137) scale(47.759 62.1668)">
<stop stop-color="#FCE5D0"/>
<stop offset="1" stop-color="#EFB7A4"/>
</radialGradient>
<linearGradient id="paint33_linear_2115_637" x1="171.906" y1="251.383" x2="171.906" y2="302.292" gradientUnits="userSpaceOnUse">
<stop stop-color="#F0BFAF"/>
<stop offset="1" stop-color="#F0BFAF" stop-opacity="0"/>
</linearGradient>
<linearGradient id="paint34_linear_2115_637" x1="200.603" y1="254.895" x2="200.603" y2="302" gradientUnits="userSpaceOnUse">
<stop stop-color="#F4B59C"/>
<stop offset="1" stop-color="#F1C4B2" stop-opacity="0"/>
</linearGradient>
<linearGradient id="paint35_linear_2115_637" x1="174.066" y1="271.014" x2="169.357" y2="301.372" gradientUnits="userSpaceOnUse">
<stop stop-color="#F1BCA9"/>
<stop offset="1" stop-color="#F1BCA9" stop-opacity="0"/>
</linearGradient>
<linearGradient id="paint36_linear_2115_637" x1="841.389" y1="244.265" x2="839.275" y2="257.555" gradientUnits="userSpaceOnUse">
<stop stop-color="#F1B09E"/>
<stop offset="1" stop-color="#FAE6CE"/>
</linearGradient>
<linearGradient id="paint37_linear_2115_637" x1="816.521" y1="244.871" x2="818.636" y2="258.16" gradientUnits="userSpaceOnUse">
<stop stop-color="#F1B09E"/>
<stop offset="1" stop-color="#FAE6CE"/>
</linearGradient>
<linearGradient id="paint38_linear_2115_637" x1="809.995" y1="269.333" x2="829.175" y2="281.415" gradientUnits="userSpaceOnUse">
<stop stop-color="#EFB7A4"/>
<stop offset="0.942708" stop-color="#F7E7D8"/>
</linearGradient>
<linearGradient id="paint39_linear_2115_637" x1="809.995" y1="269.333" x2="829.175" y2="281.415" gradientUnits="userSpaceOnUse">
<stop stop-color="#EFB7A4"/>
<stop offset="0.942708" stop-color="#F7E7D8"/>
</linearGradient>
<radialGradient id="paint40_radial_2115_637" cx="0" cy="0" r="1" gradientUnits="userSpaceOnUse" gradientTransform="translate(829.304 250.306) rotate(90.269) scale(32.1673 24.0055)">
<stop stop-color="#FADFCC"/>
<stop offset="1" stop-color="#F1BEAB"/>
</radialGradient>
<linearGradient id="paint41_linear_2115_637" x1="847.946" y1="269.415" x2="828.767" y2="281.497" gradientUnits="userSpaceOnUse">
<stop stop-color="#EFB7A4"/>
<stop offset="0.942708" stop-color="#F7E7D8"/>
</linearGradient>
<linearGradient id="paint42_linear_2115_637" x1="847.946" y1="269.415" x2="828.767" y2="281.497" gradientUnits="userSpaceOnUse">
<stop stop-color="#EFB7A4"/>
<stop offset="0.942708" stop-color="#F7E7D8"/>
</linearGradient>
<radialGradient id="paint43_radial_2115_637" cx="0" cy="0" r="1" gradientUnits="userSpaceOnUse" gradientTransform="translate(828.141 279.462) rotate(-40.9302) scale(24.6135 33.8498)">
<stop stop-color="#FCE5D0"/>
<stop offset="1" stop-color="#EFB7A4"/>
</radialGradient>
<radialGradient id="paint44_radial_2115_637" cx="0" cy="0" r="1" gradientUnits="userSpaceOnUse" gradientTransform="translate(826.981 279.859) rotate(-128.137) scale(24.6511 32.0878)">
<stop stop-color="#FCE5D0"/>
<stop offset="1" stop-color="#EFB7A4"/>
</radialGradient>
<linearGradient id="paint45_linear_2115_637" x1="822.828" y1="256.652" x2="822.828" y2="282.93" gradientUnits="userSpaceOnUse">
<stop stop-color="#F0BFAF"/>
<stop offset="1" stop-color="#F0BFAF" stop-opacity="0"/>
</linearGradient>
<linearGradient id="paint46_linear_2115_637" x1="837.639" y1="258.461" x2="837.639" y2="282.775" gradientUnits="userSpaceOnUse">
<stop stop-color="#F4B59C"/>
<stop offset="1" stop-color="#F1C4B2" stop-opacity="0"/>
</linearGradient>
<linearGradient id="paint47_linear_2115_637" x1="823.941" y1="266.786" x2="821.51" y2="282.455" gradientUnits="userSpaceOnUse">
<stop stop-color="#F1BCA9"/>
<stop offset="1" stop-color="#F1BCA9" stop-opacity="0"/>
</linearGradient>
</defs>
</svg>
