<svg width="1440" height="498" viewBox="0 0 1440 498" fill="none" xmlns="http://www.w3.org/2000/svg">
<path d="M-744.613 296.364C-1217.36 474.157 -1651.1 500.514 -1847.59 424.85C-2024.14 266.611 -2233.9 -152.262 -1829.44 57.685C-1690.11 171.18 -1319.9 373.993 -1075.02 337.838C-605.128 268.463 -629.926 38.3339 -312.5 106C-41.8718 163.69 -25.0729 334.276 355.904 354.34C878.625 381.869 1050.06 -58.0488 1599 218C1832.93 268.375 1652.13 393.938 1630.5 451C1231.97 212.321 983.886 187.394 741.525 324.266C284.387 582.434 -22.1724 502.617 -94 404.581C-174.886 294.182 -370.645 155.721 -744.613 296.364Z" fill="white" fill-opacity="0.15"/>
</svg>
