<svg width="402" height="346" viewBox="0 0 402 346" fill="none" xmlns="http://www.w3.org/2000/svg">
<g filter="url(#filter0_f_1295_565)">
<ellipse cx="193.163" cy="309.262" rx="106.21" ry="17.5435" fill="#6E8850" fill-opacity="0.6"/>
</g>
<path d="M287.26 193.751C241.086 258.212 224.945 257.689 218.77 290.77C234.772 253.111 255.761 235.47 282.78 216.328C307.104 199.094 325.927 151.845 365.756 175.551C345.842 160.673 320.751 146.998 287.26 193.751Z" fill="#75A142" fill-opacity="0.6"/>
<path d="M294.361 175.524C284.182 240.503 258.674 267.701 242.982 290.125C255.485 259.004 264.378 242.657 267.178 215.267C270.441 183.342 294.535 101.214 340.9 75.105C319.098 93.221 301.744 128.394 294.361 175.524Z" fill="#75A142"/>
<path d="M107.615 185.004C117.794 249.984 143.303 277.182 158.994 299.605C146.492 268.485 137.599 252.137 134.799 224.747C131.536 192.823 107.442 110.694 61.0769 84.5855C82.8789 102.701 100.233 137.874 107.615 185.004Z" fill="#75A142"/>
<path d="M125.269 204.873C149.842 265.882 180.828 286.626 201.173 304.932C181.973 277.434 169.622 263.513 160.716 237.46C150.336 207.095 108.339 132.517 57.2797 117.539C82.606 130.271 107.446 160.623 125.269 204.873Z" fill="#75A142"/>
<path d="M251.671 215.085C198.885 248.949 182.259 282.311 167.178 304.995C190.495 281.889 202.145 267.651 224.779 254.723C251.16 239.655 314.986 186.714 325.317 134.932C315.48 161.498 289.956 190.524 251.671 215.085Z" fill="#75A142"/>
<circle cx="187.722" cy="196.561" r="118.537" transform="rotate(8.27382 187.722 196.561)" fill="white" fill-opacity="0.8"/>
<rect x="160.691" y="66.1367" width="91.9851" height="20.8626" transform="rotate(8.27382 160.691 66.1367)" fill="#D7EEE9"/>
<path d="M262.279 85.5106C215.71 92.9423 180.424 84.2476 148.978 69.4223C148.206 69.0583 147.527 68.4977 147.236 67.695C144.577 60.3493 147.214 35.6304 152.707 35.086C169.656 33.4064 268.297 48.9202 269.067 52.0064C271.791 62.9301 267.097 84.7417 262.279 85.5106Z" fill="#D7EEE9"/>
<path d="M169.07 67.8366C165.096 62.8346 161.979 37.5587 161.017 23.3969C160.859 21.0705 162.448 19.0053 164.76 18.7041C191.901 15.1683 248.081 24.2446 261.887 35.8191C264.004 37.5942 242.666 77.4817 236.901 79.1379C221.4 83.5917 175.955 76.504 169.07 67.8366Z" fill="url(#paint0_linear_1295_565)"/>
<ellipse cx="211.818" cy="27.5767" rx="50.734" ry="10.4313" transform="rotate(8.27382 211.818 27.5767)" fill="#8C6E59"/>
<path d="M161.066 76.7344C173.308 82.1302 207.901 92.2226 248.34 89.4255" stroke="#A4D2C8" stroke-opacity="0.5" stroke-width="4.7415"/>
<path d="M161.285 42.2695C174.899 47.8648 213.289 58.5094 257.943 56.3253" stroke="#BDE0D8" stroke-width="4.7415"/>
<path d="M160.074 44.0078C173.962 49.643 213.112 60.398 258.609 58.3366" stroke="#D7EEE9" stroke-width="4.7415"/>
<path d="M251.366 32.3707C251.317 32.7074 251.081 33.0714 250.537 33.4426C249.995 33.8132 249.198 34.1534 248.147 34.449C246.05 35.0391 243.054 35.4211 239.362 35.575C231.984 35.8825 221.922 35.2761 210.928 33.6774C199.935 32.0788 190.116 29.7942 183.132 27.3982C179.636 26.199 176.873 24.9795 175.031 23.8165C174.108 23.2341 173.441 22.6809 173.027 22.1712C172.611 21.6606 172.489 21.2445 172.538 20.9077C172.587 20.5709 172.823 20.207 173.366 19.8358C173.909 19.4652 174.706 19.125 175.756 18.8294C177.853 18.2393 180.849 17.8573 184.542 17.7033C191.919 17.3959 201.982 18.0023 212.975 19.601C223.969 21.1996 233.787 23.4842 240.772 25.8802C244.268 27.0794 247.03 28.2989 248.873 29.4619C249.795 30.0443 250.462 30.5975 250.877 31.1072C251.292 31.6178 251.415 32.0339 251.366 32.3707Z" stroke="#695546" stroke-width="0.9483"/>
<path d="M240.105 30.731C240.137 30.5158 240.067 30.2346 239.784 29.8709C239.501 29.5067 239.038 29.1048 238.384 28.6771C237.08 27.8233 235.114 26.9269 232.613 26.0459C227.618 24.2868 220.586 22.622 212.703 21.4757C204.82 20.3294 197.605 19.9223 192.316 20.1861C189.668 20.3182 187.528 20.6174 186.034 21.0645C185.287 21.2885 184.728 21.5417 184.353 21.8102C183.978 22.0784 183.831 22.328 183.8 22.5431C183.768 22.7583 183.839 23.0395 184.121 23.4032C184.404 23.7674 184.868 24.1693 185.521 24.597C186.825 25.4508 188.791 26.3473 191.292 27.2282C196.287 28.9873 203.319 30.6521 211.202 31.7984C219.085 32.9447 226.3 33.3518 231.589 33.088C234.237 32.9559 236.378 32.6567 237.871 32.2096C238.619 31.9856 239.177 31.7324 239.552 31.4639C239.927 31.1957 240.074 30.9461 240.105 30.731Z" stroke="#695546" stroke-width="0.9483"/>
<ellipse cx="187.001" cy="202.575" rx="105.735" ry="23.7075" fill="#E4A38D" fill-opacity="0.7"/>
<path d="M152.92 185.315C149.59 214.293 174.486 232.107 183.702 234.875L181.331 220.864C180.179 214.058 176.06 208.358 174.267 206.773C172.341 204.747 167.517 200.334 163.739 198.652C159.961 196.97 156.358 189.179 152.92 185.315Z" fill="#5A7639"/>
<path d="M235.08 161.34C244.214 166.488 243.826 169.218 243.663 170.333C242.915 175.428 233.062 178.143 228.428 179.42L228.286 179.459C204.664 185.971 158.466 176.845 149.017 175.14C139.568 173.434 133.192 170.681 128.938 168.473C126.187 167.044 124.441 164.899 124.231 164.098C123.942 162.263 124.718 159.278 128.938 157.542C134.859 155.619 139.174 151.831 140.592 150.177L158.466 132.967C161.169 130.641 167.71 125.462 172.245 123.354C188.182 115.539 201.668 120.098 206.419 123.354C209.306 125.189 214.388 129.901 219.325 138.496C222.711 145.473 228.308 154.208 235.08 161.34Z" fill="#BC643A" stroke="#C96F44" stroke-width="0.650989"/>
<path d="M139.132 162.619C185.305 146.396 218.424 160.975 229.211 170.292C220.266 177.183 201.704 177.548 193.542 176.869C192.282 182.131 195.589 190.441 197.4 193.938C207.794 214.06 208.658 231.91 205.274 235.514C201.328 239.715 188.505 239.861 182.679 236.572C171.151 230.497 174.119 193.494 176.061 173.816C153.762 171.31 142.15 165.308 139.132 162.619Z" fill="#E8D9C6" stroke="#E8D9C6" stroke-width="0.650989"/>
<path d="M193.405 177.208C194.526 188.06 194.526 186.897 198.771 195.966C170.118 203.681 181.273 231.661 180.725 234.587C180.453 236.036 169.443 220.727 173.862 193.623C173.862 189.051 175.144 179.042 175.624 174.573C162.104 173.829 147.304 167.467 141.805 164.729C135.97 162.016 142.819 160.469 145.189 162.016C152.942 165.054 156.232 163.85 156.686 162.636C156.846 162.326 156.997 160.526 155.921 159.923C151.613 157.509 155.868 158.089 156.242 157.83C156.695 157.546 157.795 157.226 158.564 158.218C160.422 160.884 165.159 162.843 167.294 163.489C169.323 163.85 173.478 164.45 173.862 163.954C174.247 163.458 173.809 162.868 173.542 162.636C172.047 160.595 168.604 155.61 170.975 154.804C173.346 153.998 174.695 154.212 175.624 157.83C175.838 159.794 177.755 164.202 183.714 166.124C191.162 168.527 197.009 165.426 198.13 164.729C200.757 163.179 202.028 159.458 202.536 158.218C202.135 156.572 205.66 157.102 205.98 158.218C206.428 160.45 204.618 163.308 203.817 163.721C202.936 164.419 201.446 165.876 202.536 166.124C210.785 168.372 217.193 162.791 217.753 162.558C221.341 161.194 221.171 163.127 220.637 164.264L215.11 168.759C216.418 169.25 219.355 170.626 220.637 170.192C223.651 170.192 227.492 167.916 228.165 168.604C228.809 169.262 230.264 170.143 229.063 171.461C217.081 178.344 200.346 178.293 193.405 177.208Z" fill="#C5A687" stroke="#C5A687" stroke-width="0.650989"/>
<path d="M182.613 152.852C210.185 153.239 225.469 163.982 229.684 170.36C218.045 159.452 193.962 156.415 182.613 155.796C171.264 155.176 149.43 159.385 138.817 162.691C155.757 152.093 173.854 152.852 182.613 152.852Z" fill="#A46C53" stroke="#A46C53" stroke-width="0.650989"/>
<path d="M191.515 196.184C195.733 209.79 203.084 235.831 196.681 238.245" stroke="#C5A687" stroke-opacity="0.5" stroke-width="2.60396" stroke-linecap="round"/>
<path d="M180.23 195.48C180.231 207.264 181.217 235.697 186.764 237.848" stroke="#C5A687" stroke-opacity="0.5" stroke-width="2.60396" stroke-linecap="round"/>
<path fill-rule="evenodd" clip-rule="evenodd" d="M176.366 121.22C190.476 115.967 202.086 120.023 206.421 122.994C209.308 124.829 214.39 129.541 219.328 138.136C221.503 142.619 224.591 147.826 228.316 152.869C222.478 155.555 205.373 149.883 194.032 141.261C183.582 133.316 176.248 126.174 176.366 121.22Z" fill="#DC7747" fill-opacity="0.7"/>
<path d="M169.888 126.46C170.729 127.916 173.299 128.007 175.628 126.662C177.958 125.317 179.919 123.532 179.078 122.075C178.237 120.618 174.912 120.042 172.582 121.387C170.253 122.732 169.047 125.003 169.888 126.46Z" fill="#E6D2BA"/>
<path d="M172.651 124.905C173.361 126.135 175.225 126.389 176.813 125.472C178.402 124.555 179.694 123.258 178.983 122.027C178.272 120.796 175.829 120.099 174.24 121.016C172.652 121.933 171.94 123.674 172.651 124.905Z" fill="#F6ECE0"/>
<path d="M183.282 140.925C183.233 137.364 186.877 134.426 191.421 134.364C195.965 134.302 199.97 138.984 200.019 142.545C200.068 146.106 196.141 147.199 191.598 147.261C187.054 147.323 183.331 144.486 183.282 140.925Z" fill="#E6D2BA"/>
<path d="M187.533 139.57C187.5 137.124 190.043 135.105 193.215 135.062C196.386 135.018 199.181 138.234 199.215 140.68C199.248 143.127 196.507 143.878 193.336 143.921C190.165 143.964 187.567 142.016 187.533 139.57Z" fill="#F6ECE0"/>
<path d="M148.772 149.59C147.47 147.649 148.422 144.729 150.899 143.068C153.376 141.407 157.255 142.548 158.557 144.489C159.859 146.43 158.09 148.437 155.613 150.098C153.137 151.759 150.073 151.531 148.772 149.59Z" fill="#E6D2BA"/>
<path d="M151.607 147.861C150.697 146.503 151.363 144.461 153.095 143.3C154.827 142.139 157.539 142.937 158.449 144.294C159.36 145.651 158.123 147.054 156.391 148.215C154.66 149.377 152.518 149.218 151.607 147.861Z" fill="#F6ECE0"/>
<path d="M211.006 129.168C211.89 127.986 214.093 128.139 215.927 129.511C217.761 130.882 218.177 133.643 217.294 134.825C216.41 136.007 214.562 135.162 212.727 133.791C210.893 132.42 210.122 130.35 211.006 129.168Z" fill="#E6D2BA"/>
<path d="M212.739 129.152C213.343 128.343 214.848 128.447 216.101 129.383C217.353 130.319 217.635 132.206 217.031 133.014C216.426 133.823 215.164 133.247 213.912 132.311C212.66 131.374 212.134 129.96 212.739 129.152Z" fill="#F6ECE0"/>
<path d="M226.199 152.082C226.995 151.017 228.98 151.155 230.633 152.391C232.286 153.626 232.66 156.114 231.864 157.179C231.068 158.244 229.403 157.483 227.75 156.248C226.097 155.012 225.403 153.147 226.199 152.082Z" fill="#E6D2BA"/>
<path d="M227.306 151.754C227.842 151.038 229.177 151.131 230.289 151.962C231.401 152.793 231.653 154.467 231.118 155.184C230.582 155.9 229.461 155.388 228.349 154.557C227.237 153.726 226.77 152.471 227.306 151.754Z" fill="#F6ECE0"/>
<path d="M142.051 149.793C141.255 148.728 139.27 148.866 137.617 150.102C135.964 151.337 135.59 153.825 136.386 154.89C137.182 155.955 138.847 155.194 140.5 153.959C142.153 152.723 142.847 150.858 142.051 149.793Z" fill="#E6D2BA"/>
<path d="M142.017 149.779C141.422 148.983 139.938 149.087 138.702 150.01C137.467 150.934 137.187 152.793 137.782 153.589C138.377 154.385 139.622 153.816 140.857 152.893C142.093 151.969 142.612 150.575 142.017 149.779Z" fill="#F6ECE0"/>
<path d="M162.152 216.284C176.166 212.151 181.18 226.895 184.266 234.289L186.296 246.168C181.859 241.382 176.839 233.301 172.403 234.289C167.966 235.277 162.152 238.467 154.503 239.303C140.428 240.458 131.248 239.784 128.418 239.303C133.824 233.352 148.138 220.417 162.152 216.284Z" fill="#75A142"/>
<path d="M200.317 240.964L200.634 244.569L202.606 244.684L201.742 240.442C200.295 230.429 210.502 221.421 215.787 218.168L249.228 194.202C240.497 193.937 221.688 194.118 216.3 196.965C210.911 199.813 205.725 206.624 203.805 209.673C197.448 219.485 198.831 234.622 200.317 240.964Z" fill="#81B148"/>
<path fill-rule="evenodd" clip-rule="evenodd" d="M292.312 204.086C288.837 216.475 242.92 226.282 186.788 226.282C130.644 226.282 84.7204 216.471 81.2617 204.078C84.7269 259.344 130.648 303.095 186.787 303.095C242.924 303.095 288.843 259.348 292.312 204.086Z" fill="#EECDB6" fill-opacity="0.7"/>
<path fill-rule="evenodd" clip-rule="evenodd" d="M286.906 233.195C274.527 229.458 240.076 225.319 232.059 235.626C225.958 243.47 212.737 244.016 196.649 244.68C186.481 245.1 175.167 245.567 163.782 247.954C144.625 251.971 123.015 266.433 115.402 275.246C134.266 292.738 159.523 303.431 187.278 303.431C233.22 303.431 272.319 274.13 286.906 233.195Z" fill="url(#paint1_linear_1295_565)"/>
<path d="M202.647 239.086C291.313 239.086 280.311 155.162 256.698 118.652C331.614 222.965 222.559 306.123 222.559 275.596C222.559 255.207 176.535 239.086 202.647 239.086Z" fill="url(#paint2_linear_1295_565)"/>
<circle cx="4.26735" cy="4.26735" r="4.26735" transform="matrix(-1 0 0 1 241.527 254.73)" fill="#C2DDB5"/>
<circle cx="16.1211" cy="16.1211" r="16.1211" transform="matrix(-1 0 0 1 229.199 249.043)" fill="#C2DDB5"/>
<circle cx="10.4313" cy="10.4313" r="10.4313" transform="matrix(-1 0 0 1 149.543 115.332)" fill="#E8D8C6"/>
<circle cx="4.26735" cy="4.26735" r="4.26735" transform="matrix(-1 0 0 1 165.664 106.797)" fill="#E8D8C6"/>
<circle cx="8.5347" cy="8.5347" r="8.5347" transform="matrix(-1 0 0 1 148.594 248.094)" fill="#B1D39F"/>
<path d="M254.332 294.56C255.361 289.05 255.679 285.946 255.709 284.301C254.731 283.425 255.767 281.099 255.709 284.301C256.194 284.735 257.175 284.812 259.032 283.68C265.085 270.109 265.187 272.892 270.783 272.163C275.037 267.133 280.432 260.182 287.262 250.647C320.752 203.894 342.05 207.771 368.602 206.367C326.403 208.6 311.586 246.981 287.262 264.215C278.735 270.256 273.904 271.756 270.783 272.163C265.017 278.979 261.345 282.268 259.032 283.68C257.762 286.526 256.231 290.092 254.332 294.56Z" fill="#75A142" fill-opacity="0.6"/>
<path d="M298.847 212.543C264.644 260.429 248 290.852 243.426 315.426C255.28 287.451 275.064 274.882 290.367 255.683C308.202 233.306 344.768 165.362 333.42 118.18C335.14 144.064 323.655 177.812 298.847 212.543Z" fill="url(#paint3_linear_1295_565)"/>
<defs>
<filter id="filter0_f_1295_565" x="67.9871" y="272.753" width="250.35" height="73.0179" filterUnits="userSpaceOnUse" color-interpolation-filters="sRGB">
<feFlood flood-opacity="0" result="BackgroundImageFix"/>
<feBlend mode="normal" in="SourceGraphic" in2="BackgroundImageFix" result="shape"/>
<feGaussianBlur stdDeviation="9.483" result="effect1_foregroundBlur_1295_565"/>
</filter>
<linearGradient id="paint0_linear_1295_565" x1="212.488" y1="20.663" x2="204.942" y2="72.5559" gradientUnits="userSpaceOnUse">
<stop offset="0.5499" stop-color="#695546"/>
<stop offset="0.708063" stop-color="#B69E7D"/>
</linearGradient>
<linearGradient id="paint1_linear_1295_565" x1="201.154" y1="229.125" x2="201.154" y2="303.431" gradientUnits="userSpaceOnUse">
<stop stop-color="#81B148" stop-opacity="0.56"/>
<stop offset="1" stop-color="#81B148"/>
</linearGradient>
<linearGradient id="paint2_linear_1295_565" x1="238.804" y1="118.652" x2="238.804" y2="281.988" gradientUnits="userSpaceOnUse">
<stop stop-color="white"/>
<stop offset="1" stop-color="white" stop-opacity="0"/>
</linearGradient>
<linearGradient id="paint3_linear_1295_565" x1="289.892" y1="172.707" x2="289.494" y2="315.426" gradientUnits="userSpaceOnUse">
<stop stop-color="#75A142"/>
<stop offset="1" stop-color="#5A7639"/>
</linearGradient>
</defs>
</svg>
