<svg width="199" height="178" viewBox="0 0 199 178" fill="none" xmlns="http://www.w3.org/2000/svg">
<g filter="url(#filter0_f_2041_9824)">
<ellipse cx="96.9674" cy="158.686" rx="54.4791" ry="8.99877" fill="#6E8850" fill-opacity="0.6"/>
</g>
<path d="M148.038 99.4335C124.353 132.498 116.074 132.23 112.906 149.198C121.115 129.882 131.881 120.833 145.74 111.014C158.216 102.174 167.872 77.9382 188.301 90.0979C178.087 82.4662 165.217 75.4519 148.038 99.4335Z" fill="#5F8A2D" fill-opacity="0.7"/>
<path d="M150.798 81.6878C154.424 115.23 145.418 132.103 140.637 145.302C142.678 128.221 144.902 118.938 142.635 104.998C139.993 88.751 140.971 44.8594 160.453 25.7435C152.071 37.6243 148.168 57.36 150.798 81.6878Z" fill="#51833A"/>
<path d="M55.8963 94.9489C61.1175 128.28 74.2018 142.23 82.2506 153.732C75.8375 137.769 71.276 129.384 69.8399 115.335C68.166 98.9593 55.8074 56.8323 32.0249 43.4402C43.208 52.7326 52.1094 70.7742 55.8963 94.9489Z" fill="#5F8A2D"/>
<path d="M64.9543 105.139C77.5589 136.433 93.4527 147.073 103.888 156.463C94.04 142.358 87.7047 135.217 83.1366 121.854C77.8124 106.278 56.2702 68.0242 30.08 60.3415C43.0708 66.872 55.8122 82.441 64.9543 105.139Z" fill="#5F8A2D"/>
<path d="M129.785 110.379C102.709 127.749 94.1809 144.862 86.4452 156.497C98.4056 144.645 104.381 137.342 115.991 130.711C129.523 122.982 162.262 95.8265 167.561 69.2654C162.515 82.8923 149.423 97.7807 129.785 110.379Z" fill="#75A142"/>
<circle cx="96.9903" cy="100.88" r="60.8025" transform="rotate(8.27382 96.9903 100.88)" fill="white" fill-opacity="0.8"/>
<rect x="83.125" y="33.9844" width="47.1828" height="10.7012" transform="rotate(8.27382 83.125 33.9844)" fill="#D7EEE9"/>
<path d="M135.233 43.9215C111.346 47.7335 93.2468 43.2736 77.1168 35.6692C76.7207 35.4824 76.3721 35.1949 76.2231 34.7831C74.8591 31.0152 76.2116 18.3359 79.0294 18.0567C87.7233 17.1952 138.32 25.1528 138.715 26.7359C140.112 32.339 137.705 43.5271 135.233 43.9215Z" fill="#D7EEE9"/>
<path d="M87.4197 34.8548C85.3816 32.2891 83.7825 19.3241 83.289 12.0599C83.208 10.8666 84.0232 9.8073 85.2092 9.65279C99.1305 7.83916 127.948 12.4948 135.029 18.4317C136.115 19.3423 125.17 39.8021 122.213 40.6517C114.262 42.9362 90.9512 39.3006 87.4197 34.8548Z" fill="url(#paint0_linear_2041_9824)"/>
<ellipse cx="109.35" cy="14.2039" rx="26.0235" ry="5.35062" transform="rotate(8.27382 109.35 14.2039)" fill="#8C6E59"/>
<path d="M131.152 151.144C131.68 148.318 131.843 146.725 131.859 145.881C131.357 145.432 131.888 144.239 131.859 145.881C132.108 146.104 132.611 146.144 133.563 145.563C136.668 138.602 136.721 140.029 139.591 139.655C141.773 137.075 144.54 133.51 148.043 128.619C165.222 104.638 176.146 106.626 189.766 105.906C168.12 107.051 160.52 126.739 148.043 135.579C143.67 138.677 141.192 139.447 139.591 139.655C136.633 143.152 134.75 144.839 133.563 145.563C132.912 147.023 132.126 148.852 131.152 151.144Z" fill="#5F8A2D" fill-opacity="0.7"/>
<ellipse cx="96.7046" cy="106.286" rx="54.2359" ry="12.1605" fill="#7DC7BA"/>
<circle cx="5.35062" cy="5.35062" r="5.35062" transform="matrix(-1 0 0 1 77.4961 61.5352)" fill="#C7F0E5"/>
<circle cx="2.18865" cy="2.18865" r="2.18865" transform="matrix(-1 0 0 1 85.7656 57.1562)" fill="#C7F0E5"/>
<circle cx="97.5912" cy="99.0248" r="29.0951" fill="#63B4EF"/>
<path fill-rule="evenodd" clip-rule="evenodd" d="M126.684 98.6259C125.139 111.327 114.319 121.166 101.201 121.166C87.0225 121.166 75.5288 109.673 75.5288 95.4944C75.5288 82.1698 85.6801 71.2162 98.6709 69.9454C98.3126 69.9324 97.9527 69.9258 97.5912 69.9258C81.5224 69.9258 68.4961 82.9521 68.4961 99.0209C68.4961 115.09 81.5224 128.116 97.5912 128.116C113.66 128.116 126.686 115.09 126.686 99.0209C126.686 98.8891 126.686 98.7574 126.684 98.6259Z" fill="#4FA4E1" fill-opacity="0.7"/>
<path d="M77.8077 82.4544C79.1008 80.838 77.8077 79.0869 76.9995 78.4134C78.4816 76.9317 82.1543 73.1602 85.0638 73.1602C87.9733 73.1602 94.377 79.0869 97.2057 81.6462C97.4751 82.7238 97.8523 84.879 97.2057 84.879C93.6497 84.879 90.8748 89.4588 89.9319 91.7487H82.6582V97.002L89.9319 98.2143V101.447H87.9115C85.2175 101.043 79.4251 99.5882 77.8077 97.002C74.1708 88.1118 76.1913 84.4749 77.8077 82.4544Z" fill="url(#paint1_linear_2041_9824)"/>
<path d="M95.1668 106.294V111.951L100.016 114.78L92.7422 127.711L94.7627 128.115H96.7832C101.498 124.209 111.492 115.184 113.755 111.951C116.018 106.455 112.274 104.812 110.118 104.677L105.269 99.8281H99.2078C97.5914 100.798 97.4567 103.465 97.5914 104.677L95.1668 106.294Z" fill="url(#paint2_linear_2041_9824)"/>
<path d="M118.443 94.2383C115.218 89.2563 117.287 82.1637 118.725 79.2402C124.833 83.719 126.694 94.5351 126.861 99.3833C125.399 99.7441 121.668 99.2203 118.443 94.2383Z" fill="url(#paint3_linear_2041_9824)"/>
<path d="M92.6697 96.5785L91.1289 93.4969C92.1561 92.9833 98.8329 94.0105 97.2921 95.5513C96.0595 96.7839 93.6969 96.7497 92.6697 96.5785Z" fill="url(#paint4_linear_2041_9824)"/>
<path d="M94.8835 73.8643L97.6653 72.2123C97.3628 71.3357 92.7576 69.0005 92.7459 70.9087C92.7365 72.4353 94.167 73.5152 94.8835 73.8643Z" fill="url(#paint5_linear_2041_9824)"/>
<path fill-rule="evenodd" clip-rule="evenodd" d="M150.725 107.103C148.94 113.457 125.389 118.487 96.5984 118.487C67.7944 118.487 44.2348 113.452 42.4688 107.094C44.2425 135.445 67.7987 157.891 96.5974 157.891C125.393 157.891 148.947 135.45 150.725 107.103Z" fill="#B6EEE1" fill-opacity="0.7"/>
<path fill-rule="evenodd" clip-rule="evenodd" d="M147.467 124.321C139.572 122.909 127.21 122.294 123.858 126.604C120.728 130.628 113.947 130.908 105.695 131.248C100.479 131.464 94.6754 131.703 88.8356 132.928C79.2144 134.945 68.3865 142.099 64.2734 146.64C73.4226 153.68 84.8813 157.866 97.3177 157.866C119.944 157.866 139.334 144.011 147.467 124.321Z" fill="url(#paint6_linear_2041_9824)"/>
<path d="M106.371 124.561C151.851 124.561 146.207 81.5123 134.096 62.7852C172.523 116.291 116.584 158.946 116.584 143.288C116.584 132.83 92.9767 124.561 106.371 124.561Z" fill="url(#paint7_linear_2041_9824)"/>
<circle cx="4.37778" cy="4.37778" r="4.37778" transform="matrix(-1 0 0 1 86.3945 140.859)" fill="#B1D39F"/>
<circle cx="8.26915" cy="8.26915" r="8.26915" transform="matrix(-1 0 0 1 121.605 134.527)" fill="#C2DDB5"/>
<circle cx="2.18865" cy="2.18865" r="2.18865" transform="matrix(-1 0 0 1 103.113 136.637)" fill="#C2DDB5"/>
<path d="M156.705 111.188C139.161 135.75 130.624 151.356 128.277 163.961C134.358 149.611 144.506 143.164 152.355 133.316C161.504 121.838 180.26 86.9866 174.439 62.7852C175.321 76.0623 169.43 93.3731 156.705 111.188Z" fill="url(#paint8_linear_2041_9824)"/>
<defs>
<filter id="filter0_f_2041_9824" x="32.7599" y="139.959" width="128.414" height="37.4529" filterUnits="userSpaceOnUse" color-interpolation-filters="sRGB">
<feFlood flood-opacity="0" result="BackgroundImageFix"/>
<feBlend mode="normal" in="SourceGraphic" in2="BackgroundImageFix" result="shape"/>
<feGaussianBlur stdDeviation="4.8642" result="effect1_foregroundBlur_2041_9824"/>
</filter>
<linearGradient id="paint0_linear_2041_9824" x1="109.691" y1="10.6576" x2="105.82" y2="37.2755" gradientUnits="userSpaceOnUse">
<stop offset="0.5499" stop-color="#695546"/>
<stop offset="0.708063" stop-color="#B69E7D"/>
</linearGradient>
<linearGradient id="paint1_linear_2041_9824" x1="86.6661" y1="73.1602" x2="86.6661" y2="101.447" gradientUnits="userSpaceOnUse">
<stop stop-color="#A8D684"/>
<stop offset="1" stop-color="#8DB86B"/>
</linearGradient>
<linearGradient id="paint2_linear_2041_9824" x1="103.249" y1="114.376" x2="103.6" y2="128.115" gradientUnits="userSpaceOnUse">
<stop stop-color="#A8D684"/>
<stop offset="1" stop-color="#8DB86B"/>
</linearGradient>
<linearGradient id="paint3_linear_2041_9824" x1="120.886" y1="79.1059" x2="122.167" y2="99.7224" gradientUnits="userSpaceOnUse">
<stop stop-color="#A8D684"/>
<stop offset="1" stop-color="#8DB86B"/>
</linearGradient>
<linearGradient id="paint4_linear_2041_9824" x1="94.3254" y1="93.3633" x2="94.3254" y2="96.6653" gradientUnits="userSpaceOnUse">
<stop stop-color="#A8D684"/>
<stop offset="1" stop-color="#8DB86B"/>
</linearGradient>
<linearGradient id="paint5_linear_2041_9824" x1="95.8386" y1="70.6127" x2="93.843" y2="73.156" gradientUnits="userSpaceOnUse">
<stop stop-color="#A8D684"/>
<stop offset="1" stop-color="#8DB86B"/>
</linearGradient>
<linearGradient id="paint6_linear_2041_9824" x1="104.44" y1="119.753" x2="104.44" y2="157.865" gradientUnits="userSpaceOnUse">
<stop stop-color="#81B148" stop-opacity="0.56"/>
<stop offset="1" stop-color="#81B148"/>
</linearGradient>
<linearGradient id="paint7_linear_2041_9824" x1="124.917" y1="62.7852" x2="124.917" y2="146.567" gradientUnits="userSpaceOnUse">
<stop stop-color="white"/>
<stop offset="1" stop-color="white" stop-opacity="0"/>
</linearGradient>
<linearGradient id="paint8_linear_2041_9824" x1="152.112" y1="90.7543" x2="151.908" y2="163.961" gradientUnits="userSpaceOnUse">
<stop stop-color="#63942B"/>
<stop offset="0.66" stop-color="#4A7B34"/>
</linearGradient>
</defs>
</svg>
