<svg width="235" height="236" viewBox="0 0 235 236" fill="none" xmlns="http://www.w3.org/2000/svg">
<g filter="url(#filter0_f_2455_6691)">
<circle cx="117.5" cy="118.453" r="67.5" fill="#99DDE1"/>
</g>
<g filter="url(#filter1_f_2455_6691)">
<ellipse cx="117.299" cy="173.462" rx="39.9706" ry="6.60228" fill="#95E7EC"/>
</g>
<circle cx="117.304" cy="131.05" r="44.61" transform="rotate(8.27382 117.304 131.05)" fill="white" fill-opacity="0.8"/>
<rect x="107.133" y="81.9727" width="34.6174" height="7.85136" transform="rotate(8.27382 107.133 81.9727)" fill="#D7EEE9"/>
<path d="M145.365 89.2602C127.839 92.057 114.56 88.7849 102.726 83.2056C102.435 83.0686 102.179 82.8576 102.07 82.5555C101.069 79.7911 102.062 70.4884 104.129 70.2836C110.508 69.6515 147.63 75.4899 147.919 76.6513C148.944 80.7623 147.178 88.9708 145.365 89.2602Z" fill="#D7EEE9"/>
<path d="M110.284 82.6083C108.789 80.7259 107.616 71.2137 107.253 65.884C107.194 65.0086 107.792 64.2313 108.662 64.118C118.876 62.7873 140.019 66.2031 145.215 70.559C146.011 71.227 137.981 86.2381 135.812 86.8614C129.978 88.5376 112.875 85.8702 110.284 82.6083Z" fill="url(#paint0_linear_2455_6691)"/>
<ellipse cx="126.372" cy="67.4566" rx="19.0931" ry="3.92568" transform="rotate(8.27382 126.372 67.4566)" fill="#8C6E59"/>
<path d="M107.273 85.9609C111.88 87.9916 124.899 91.7897 140.118 90.7371" stroke="#A4D2C8" stroke-opacity="0.5" stroke-width="1.7844"/>
<path d="M107.355 72.9844C112.479 75.0901 126.926 79.096 143.732 78.2741" stroke="#BDE0D8" stroke-width="1.7844"/>
<path d="M106.898 73.6406C112.125 75.7614 126.858 79.8089 143.981 79.0331" stroke="#D7EEE9" stroke-width="1.7844"/>
<path d="M141.252 69.2587C141.234 69.3854 141.145 69.5224 140.94 69.6621C140.736 69.8015 140.436 69.9296 140.041 70.0408C139.252 70.2629 138.124 70.4067 136.734 70.4646C133.958 70.5803 130.171 70.3521 126.034 69.7505C121.897 69.1488 118.202 68.2891 115.573 67.3874C114.257 66.936 113.218 66.4771 112.524 66.0395C112.177 65.8203 111.926 65.6121 111.77 65.4202C111.614 65.2281 111.568 65.0715 111.586 64.9448C111.604 64.818 111.693 64.681 111.898 64.5414C112.102 64.4019 112.402 64.2738 112.797 64.1626C113.586 63.9405 114.714 63.7968 116.104 63.7388C118.88 63.6231 122.667 63.8514 126.804 64.453C130.941 65.0546 134.636 65.9144 137.265 66.8161C138.581 67.2674 139.62 67.7263 140.314 68.164C140.661 68.3832 140.912 68.5914 141.068 68.7832C141.224 68.9753 141.27 69.132 141.252 69.2587Z" stroke="#695546" stroke-width="0.35688"/>
<path d="M137.011 68.6404C137.022 68.5594 136.996 68.4536 136.89 68.3167C136.783 68.1797 136.609 68.0284 136.363 67.8675C135.872 67.5462 135.132 67.2088 134.191 66.8773C132.311 66.2152 129.665 65.5887 126.698 65.1573C123.731 64.7259 121.016 64.5727 119.026 64.672C118.029 64.7217 117.224 64.8343 116.662 65.0026C116.38 65.0869 116.17 65.1822 116.029 65.2832C115.888 65.3841 115.832 65.4781 115.821 65.559C115.809 65.64 115.835 65.7458 115.942 65.8827C116.048 66.0198 116.223 66.171 116.468 66.332C116.959 66.6533 117.699 66.9907 118.64 67.3222C120.52 67.9842 123.167 68.6107 126.133 69.0421C129.1 69.4735 131.815 69.6267 133.805 69.5275C134.802 69.4777 135.608 69.3651 136.17 69.1969C136.451 69.1126 136.661 69.0173 136.802 68.9162C136.943 68.8153 136.999 68.7214 137.011 68.6404Z" stroke="#695546" stroke-width="0.35688"/>
<ellipse cx="117.105" cy="135.02" rx="39.7921" ry="8.922" fill="#7DC7BA"/>
<circle cx="3.92568" cy="3.92568" r="3.92568" transform="matrix(-1 0 0 1 103.008 102.188)" fill="#C7F0E5"/>
<circle cx="1.60578" cy="1.60578" r="1.60578" transform="matrix(-1 0 0 1 109.074 98.9727)" fill="#C7F0E5"/>
<circle cx="117.753" cy="129.69" r="21.3467" fill="#63B4EF"/>
<path fill-rule="evenodd" clip-rule="evenodd" d="M139.098 129.401C137.963 138.718 130.025 145.936 120.402 145.936C109.999 145.936 101.566 137.503 101.566 127.101C101.566 117.321 109.021 109.281 118.558 108.355C118.291 108.345 118.022 108.34 117.753 108.34C105.963 108.34 96.4062 117.897 96.4062 129.687C96.4062 141.476 105.963 151.033 117.753 151.033C129.542 151.033 139.1 141.476 139.1 129.687C139.1 129.591 139.099 129.496 139.098 129.401Z" fill="#4FA4E1" fill-opacity="0.7"/>
<path d="M103.241 117.534C104.19 116.348 103.241 115.063 102.649 114.569C103.736 113.482 106.431 110.715 108.565 110.715C110.7 110.715 111.5 114 117.474 116.941C118.305 117.35 117.696 118.414 117.474 119.313C116.966 121.368 113.5 121.5 113.5 123C113.5 124.5 113 125 109 125.5C105.8 125.9 106.2 127.472 106.8 128.207C106.8 128.207 109.363 129.903 110.5 130C111.423 130.079 112.922 130.978 112.137 131.469C111.646 131.775 110.654 131.469 110.654 131.469C108.678 131.172 104.428 130.105 103.241 128.207C100.573 121.685 102.056 119.016 103.241 117.534Z" fill="url(#paint1_linear_2455_6691)"/>
<path d="M115.978 135.024C114.983 136.304 115.168 137.771 115.978 139.175C116.782 140.568 119.211 139.675 119.536 141.25C120 143.498 114.199 150.738 114.199 150.738L115.682 151.034H117.164C120.5 149.498 126 142.998 129.616 139.175C131.277 135.143 128.529 133.937 126.948 133.838C125.367 133.739 125.224 130.986 123.39 130.28C121.769 129.657 122.204 129.936 118.943 130.28C115.682 130.624 117.065 132.949 117.164 133.838C117.263 134.728 116.491 134.365 115.978 135.024Z" fill="url(#paint2_linear_2455_6691)"/>
<path d="M133.055 126.181C130.689 122.526 132.207 117.322 133.262 115.177C137.744 118.463 139.109 126.399 139.231 129.956C138.158 130.22 135.421 129.836 133.055 126.181Z" fill="url(#paint3_linear_2455_6691)"/>
<path d="M114.14 127.898C114.14 127.898 112.256 126.014 113.01 125.637C113.764 125.26 118.662 126.014 117.532 127.144C116.627 128.049 114.894 128.024 114.14 127.898Z" fill="url(#paint4_linear_2455_6691)"/>
<path d="M115.771 111.23C116.297 111.486 118.034 110.661 117.812 110.018C117.59 109.375 114.211 107.661 114.203 109.061C114.196 110.181 115.245 110.974 115.771 111.23Z" fill="url(#paint5_linear_2455_6691)"/>
<path fill-rule="evenodd" clip-rule="evenodd" d="M156.738 135.619C155.43 140.281 138.15 143.972 117.026 143.972C95.8982 143.972 78.6165 140.281 77.3125 135.617C78.618 156.414 95.899 172.878 117.025 172.878C138.151 172.878 155.432 156.415 156.738 135.619Z" fill="#B6EEE1" fill-opacity="0.7"/>
<path fill-rule="evenodd" clip-rule="evenodd" d="M154.353 148.249C148.56 147.212 139.489 146.761 137.03 149.923C134.734 152.875 129.758 153.081 123.704 153.33C119.877 153.488 115.619 153.664 111.334 154.563C104.275 156.043 96.3294 161.293 93.3125 164.625C100.025 169.79 108.433 172.862 117.558 172.862C134.159 172.862 148.386 162.695 154.353 148.249Z" fill="url(#paint6_linear_2455_6691)"/>
<path d="M124.197 148.425C157.565 148.425 153.425 116.841 144.539 103.102C172.732 142.358 131.691 173.653 131.691 162.165C131.691 154.492 114.37 148.425 124.197 148.425Z" fill="url(#paint7_linear_2455_6691)"/>
<circle cx="3.21192" cy="3.21192" r="3.21192" transform="matrix(-1 0 0 1 109.543 160.387)" fill="#B1D39F"/>
<circle cx="6.06696" cy="6.06696" r="6.06696" transform="matrix(-1 0 0 1 135.375 155.738)" fill="#C2DDB5"/>
<circle cx="1.60578" cy="1.60578" r="1.60578" transform="matrix(-1 0 0 1 121.809 157.285)" fill="#C2DDB5"/>
<defs>
<filter id="filter0_f_2455_6691" x="0" y="0.953125" width="235" height="235" filterUnits="userSpaceOnUse" color-interpolation-filters="sRGB">
<feFlood flood-opacity="0" result="BackgroundImageFix"/>
<feBlend mode="normal" in="SourceGraphic" in2="BackgroundImageFix" result="shape"/>
<feGaussianBlur stdDeviation="25" result="effect1_foregroundBlur_2455_6691"/>
</filter>
<filter id="filter1_f_2455_6691" x="70.1905" y="159.722" width="94.2166" height="27.4783" filterUnits="userSpaceOnUse" color-interpolation-filters="sRGB">
<feFlood flood-opacity="0" result="BackgroundImageFix"/>
<feBlend mode="normal" in="SourceGraphic" in2="BackgroundImageFix" result="shape"/>
<feGaussianBlur stdDeviation="3.5688" result="effect1_foregroundBlur_2455_6691"/>
</filter>
<linearGradient id="paint0_linear_2455_6691" x1="126.624" y1="64.8552" x2="123.784" y2="84.3844" gradientUnits="userSpaceOnUse">
<stop offset="0.5499" stop-color="#695546"/>
<stop offset="0.708063" stop-color="#B69E7D"/>
</linearGradient>
<linearGradient id="paint1_linear_2455_6691" x1="109.741" y1="110.715" x2="109.741" y2="131.469" gradientUnits="userSpaceOnUse">
<stop stop-color="#A8D684"/>
<stop offset="1" stop-color="#8DB86B"/>
</linearGradient>
<linearGradient id="paint2_linear_2455_6691" x1="121.908" y1="140.955" x2="122.165" y2="151.035" gradientUnits="userSpaceOnUse">
<stop stop-color="#A8D684"/>
<stop offset="1" stop-color="#8DB86B"/>
</linearGradient>
<linearGradient id="paint3_linear_2455_6691" x1="134.847" y1="115.078" x2="135.788" y2="130.204" gradientUnits="userSpaceOnUse">
<stop stop-color="#A8D684"/>
<stop offset="1" stop-color="#8DB86B"/>
</linearGradient>
<linearGradient id="paint4_linear_2455_6691" x1="115.357" y1="125.539" x2="115.357" y2="127.962" gradientUnits="userSpaceOnUse">
<stop stop-color="#A8D684"/>
<stop offset="1" stop-color="#8DB86B"/>
</linearGradient>
<linearGradient id="paint5_linear_2455_6691" x1="116.472" y1="108.843" x2="115.007" y2="110.709" gradientUnits="userSpaceOnUse">
<stop stop-color="#A8D684"/>
<stop offset="1" stop-color="#8DB86B"/>
</linearGradient>
<linearGradient id="paint6_linear_2455_6691" x1="122.783" y1="144.896" x2="122.783" y2="172.861" gradientUnits="userSpaceOnUse">
<stop stop-color="#81B148" stop-opacity="0.56"/>
<stop offset="1" stop-color="#81B148"/>
</linearGradient>
<linearGradient id="paint7_linear_2455_6691" x1="137.804" y1="103.102" x2="137.804" y2="164.571" gradientUnits="userSpaceOnUse">
<stop stop-color="white"/>
<stop offset="1" stop-color="white" stop-opacity="0"/>
</linearGradient>
</defs>
</svg>
