<svg width="206" height="194" viewBox="0 0 206 194" fill="none" xmlns="http://www.w3.org/2000/svg">
<g filter="url(#filter0_f_2041_574)">
<ellipse cx="120.014" cy="170.257" rx="54.4791" ry="8.99877" fill="#6E8850" fill-opacity="0.6"/>
</g>
<path d="M103.84 121.829C112.843 122.616 122.936 122.726 132.158 122.138C141.38 121.55 149.073 120.307 153.743 118.649C158.413 116.991 159.728 115.037 157.431 113.167C155.134 111.296 149.39 109.643 141.314 108.527C133.237 107.412 123.406 106.914 113.728 107.13C104.05 107.347 95.2168 108.262 88.9432 109.698C82.6696 111.135 79.4035 112.99 79.7793 114.903C80.155 116.816 84.1457 118.652 90.9764 120.052L119.143 114.796L103.84 121.829Z" fill="#51833A"/>
<path d="M67.2333 128.665C95.1763 158.218 94.1077 154.944 99.5434 171.327C88.7955 153.3 74.0007 141.525 58.9401 133.673C45.3815 126.603 35.4367 108.165 16.8413 122.978C25.9289 114.034 46.9662 107.229 67.2333 128.665Z" fill="#5F8A2D"/>
<path d="M57.9889 108.279C67.6743 140.596 82.5268 152.647 92.0586 162.953C83.5436 148.005 77.8888 140.315 74.5639 126.589C70.6885 110.591 52.7405 70.5251 27.3639 60.476C39.7021 68.1689 50.964 84.8393 57.9889 108.279Z" fill="#51833A"/>
<path d="M153.555 100.127C152.894 133.857 141.819 149.451 135.402 161.937C139.595 145.252 142.979 136.327 142.5 122.212C141.941 105.761 148.483 62.3488 170.234 45.8603C160.411 56.5812 154.034 75.6618 153.555 100.127Z" fill="#5F8A2D"/>
<path d="M145.956 111.455C137.704 144.168 123.397 156.862 114.329 167.578C122.177 152.27 127.487 144.337 130.204 130.478C133.37 114.325 149.535 73.5072 174.444 62.3496C162.457 70.5787 151.941 87.7292 145.956 111.455Z" fill="#5F8A2D"/>
<path d="M96.3275 170.864C95.422 168.135 95.0446 166.58 94.9152 165.746C95.3515 165.233 94.6634 164.122 94.9152 165.746C94.6988 166 94.2055 166.108 93.1832 165.661C89.1644 159.184 89.3058 160.606 86.4116 160.624C83.9 158.363 80.6756 155.205 76.5426 150.834C56.2755 129.398 45.7209 132.847 32.1291 133.978C53.7306 132.182 63.9262 150.66 77.4848 157.729C82.2378 160.207 84.797 160.634 86.4116 160.624C89.8149 163.688 91.9096 165.104 93.1832 165.661C94.0261 167.019 95.0521 168.725 96.3275 170.864Z" fill="#5F8A2D"/>
<ellipse cx="119.801" cy="111.168" rx="60.8025" ry="60.8025" transform="rotate(-28.5247 119.801 111.168)" fill="white" fill-opacity="0.8"/>
<rect x="68.6328" y="65.9062" width="47.1828" height="10.7012" transform="rotate(-28.5247 68.6328 65.9062)" fill="#D7EEE9"/>
<path d="M116.31 42.648C99.4575 60.0176 82.2846 67.2865 64.8046 70.8573C64.3923 70.9415 63.9601 70.9217 63.6069 70.6929C60.2647 68.5282 53.718 57.5191 55.8118 55.6033C62.2574 49.7058 107.539 25.7701 108.804 26.8012C113.279 30.4511 118.053 40.852 116.31 42.648Z" fill="#D7EEE9"/>
<path d="M72.5884 64.0286C69.4075 63.1917 60.3043 53.6995 55.5728 48.1873C54.8244 47.3154 54.8421 46.0327 55.6637 45.2294C65.6827 35.4338 91.6296 21.8463 100.874 22.3596C102.289 22.4382 105.78 45.3777 103.921 47.829C98.9232 54.4211 78.0794 65.4732 72.5884 64.0286Z" fill="url(#paint0_linear_2041_574)"/>
<ellipse cx="77.7829" cy="34.3599" rx="26.0235" ry="5.35062" transform="rotate(-28.5247 77.7829 34.3599)" fill="#8C6E59"/>
<ellipse cx="119.767" cy="115.532" rx="54.2359" ry="12.1605" fill="#629E32" fill-opacity="0.7"/>
<path fill-rule="evenodd" clip-rule="evenodd" d="M173.779 116.304C171.993 122.658 148.443 127.688 119.652 127.688C90.8517 127.688 67.2943 122.654 65.5234 116.297C67.3003 144.645 90.8551 167.088 119.652 167.088C148.446 167.088 171.999 144.649 173.779 116.304Z" fill="#9DC57C" fill-opacity="0.7"/>
<path fill-rule="evenodd" clip-rule="evenodd" d="M68.4507 130.759C74.7855 128.866 92.3671 126.8 96.5795 132.001C119.055 159.747 126.741 153.595 134.059 147.738C137.536 144.956 140.929 142.24 145.786 143.258C154.253 145.033 156.667 148.356 157.437 151.357C147.662 160.901 134.294 166.782 119.553 166.782C95.9883 166.782 75.9338 151.754 68.4507 130.759Z" fill="url(#paint1_linear_2041_574)"/>
<path d="M149.193 86.1041C150.901 100.968 134.997 108.302 130.27 109.722L131.486 102.535C132.077 99.0443 134.19 96.1204 135.109 95.3074C136.097 94.2683 138.572 92.0046 140.51 91.1419C142.448 90.2792 147.429 88.0861 149.193 86.1041Z" fill="#5A7639"/>
<path d="M137.874 100.912C131.151 104.224 134.383 111.528 135.789 115.39L139.151 120.577C139.162 117.229 138.247 112.437 140.264 111.267C142.281 110.098 145.584 109.281 148.76 106.938C154.471 102.482 157.7 99.0382 158.601 97.873C154.493 97.5066 144.597 97.6013 137.874 100.912Z" fill="#75A142"/>
<path d="M105.694 116.247L105.531 118.096L104.52 118.155L104.962 115.979C105.705 110.843 93.0097 109.206 90.0912 105.071L83.0381 91.9379C89.1183 93.6785 94.7313 92.218 97.4953 93.6785C100.259 95.1389 102.92 98.6325 103.904 100.197C107.165 105.23 106.456 112.994 105.694 116.247Z" fill="#81B148"/>
<path d="M103.832 121.833C112.836 122.619 122.928 122.729 132.15 122.142C141.372 121.554 149.065 120.311 153.735 118.653C158.406 116.995 159.72 115.041 157.423 113.171C155.126 111.3 149.382 109.647 141.306 108.531C133.23 107.416 123.398 106.918 113.72 107.134C104.042 107.35 95.209 108.266 88.9354 109.702C82.6618 111.138 79.3957 112.993 79.7715 114.907C80.1472 116.82 84.1379 118.655 90.9686 120.056L119.135 114.8L103.832 121.833Z" fill="#51833A"/>
<path d="M115.03 96.2047C114.061 103.52 115.035 107.655 116.527 114.506C122.486 112.802 138.675 105.298 136.157 93.1956C134.207 83.8232 134.613 85.2201 130.055 78.4109C126.359 85.0747 115.768 90.6251 115.03 96.2047Z" fill="url(#paint2_linear_2041_574)"/>
<path d="M122.917 96.5957C124.185 103.865 123.381 108.037 122.171 114.943C116.148 113.485 99.6649 106.651 101.685 94.4552C103.249 85.0108 102.9 86.4232 107.175 79.4328C111.142 85.9395 121.95 91.0511 122.917 96.5957Z" fill="url(#paint3_linear_2041_574)"/>
<path d="M93.4528 98.1176C93.6091 105.739 105.317 115.683 112.939 115.527C120.56 115.371 120.762 117.055 120.605 109.433C120.449 101.812 114.922 100.024 107.3 100.181C93.4262 96.823 94.7291 89.256 93.4528 98.1176Z" fill="url(#paint4_linear_2041_574)"/>
<path d="M93.4528 98.1176C93.6091 105.739 105.317 115.683 112.939 115.527C120.56 115.371 120.762 117.055 120.605 109.433C120.449 101.812 114.922 100.024 107.3 100.181C93.4262 96.823 94.7291 89.256 93.4528 98.1176Z" fill="url(#paint5_linear_2041_574)"/>
<path d="M133.014 98.7727C133.17 106.394 125.224 102.66 119.542 115.063C112.875 99.5999 105.571 106.96 105.414 99.3387C105.258 91.7174 113.084 82.891 118.784 78.0803C125.067 81.5409 132.857 91.1514 133.014 98.7727Z" fill="url(#paint6_radial_2041_574)"/>
<path d="M133.138 97.5254C134.15 106.478 124.46 105.947 121.536 111.431C124.936 102.94 131.93 106.693 131.774 99.072C131.618 91.4507 126.84 86.6103 122.995 80.8908C128.631 86.4355 131.183 89.6965 133.138 97.5254Z" fill="#EEC1A9"/>
<path d="M144.576 97.1429C144.732 104.764 133.441 115.18 125.82 115.336C118.199 115.493 118.066 117.184 117.91 109.562C117.754 101.941 123.203 99.9281 130.824 99.7718C144.549 95.8484 142.937 88.3411 144.576 97.1429Z" fill="url(#paint7_linear_2041_574)"/>
<path d="M144.576 97.1429C144.732 104.764 133.441 115.18 125.82 115.336C118.199 115.493 118.066 117.184 117.91 109.562C117.754 101.941 123.203 99.9281 130.824 99.7718C144.549 95.8484 142.937 88.3411 144.576 97.1429Z" fill="url(#paint8_linear_2041_574)"/>
<path d="M134.902 96.6865C136.71 103.022 127.83 111.93 122.552 113.437C117.274 114.944 117.559 116.379 115.751 110.044C113.942 103.709 119.482 96.7814 124.76 95.2748C138.215 93.8153 131.797 89.6332 134.902 96.6865Z" fill="url(#paint9_radial_2041_574)"/>
<path d="M101.391 98.3209C98.6759 96.9986 94.9531 94.0352 94.9531 94.0352C94.9531 94.0352 96.2705 95.5801 97.212 96.4738C99.0808 98.2476 99.1933 99.1186 101.434 100.391C103.3 101.45 104.748 102.375 106.737 103.181C108.667 103.963 109.983 104.044 111.748 105.149C114.146 106.651 115.326 107.533 116.679 110.018C117.421 111.381 118.578 115.087 118.578 115.087C118.578 115.087 119.281 110.288 118.715 108.32C117.927 105.573 116.647 104.125 114.316 102.474C111.783 100.68 109.619 101.271 106.678 100.283C104.59 99.5826 103.371 99.2849 101.391 98.3209Z" fill="#EAB29F" fill-opacity="0.84"/>
<path d="M103.646 94.8324C100.911 100.338 108.373 110.433 113.374 112.918C118.375 115.402 117.878 116.676 120.614 111.17C123.35 105.663 118.898 98.0949 113.898 95.6103C100.794 91.486 107.773 88.9269 103.646 94.8324Z" fill="url(#paint10_radial_2041_574)"/>
<path d="M110.002 94.2707L105.395 91.7422C105.395 91.7422 107.979 94.1315 110.016 94.9607C110.806 95.282 111.317 95.2731 112.1 95.6082C113.489 96.2022 114.186 96.7528 115.32 97.7511C117.059 99.2836 117.741 100.484 118.869 102.51C119.526 103.691 120.024 104.335 120.314 105.656C120.696 107.401 120.446 108.49 119.993 110.218C119.681 111.409 119.23 111.984 118.81 113.142C118.479 114.055 118.031 115.504 118.031 115.504C118.031 115.504 120.026 112.951 120.7 111.032C121.316 109.276 121.583 108.178 121.432 106.323C121.319 104.942 121.068 104.168 120.533 102.89C119.954 101.509 119.459 100.795 118.533 99.618C117.166 97.879 116.234 96.9368 114.314 95.839C112.758 94.9497 110.002 94.2707 110.002 94.2707Z" fill="url(#paint11_linear_2041_574)"/>
<path d="M134.168 94.331C134.06 93.6931 133.861 92.8187 133.861 92.8187C133.861 92.8187 133.792 93.8799 133.9 94.7507C134.016 95.6849 134.306 96.3029 134.503 97.2233C134.753 98.3875 134.542 99.1013 134.289 100.265C133.849 102.291 133.072 103.296 131.902 105.008C130.332 107.305 129.108 108.391 126.898 110.08C124.484 111.925 122.02 111.48 120.071 113.81C119.601 114.372 118.999 115.35 118.999 115.35C118.999 115.35 119.98 114.636 120.632 114.212C123.12 112.596 125.063 112.636 127.467 110.897C129.937 109.11 131.235 107.836 132.873 105.264C134 103.495 134.804 102.459 135.12 100.386C135.315 99.107 135.354 98.332 135.052 97.074C134.793 95.9933 134.352 95.4269 134.168 94.331Z" fill="url(#paint12_linear_2041_574)"/>
<path d="M114.68 112.828C116.464 114.414 119.804 116.161 119.804 116.161C119.804 116.161 116.856 113.888 115.183 112.199C113.544 110.545 112.712 109.523 111.337 107.644C109.891 105.667 108.921 104.599 108.013 102.324C107.637 101.383 107.23 99.8516 107.23 99.8516C107.23 99.8516 107.387 101.612 107.684 102.698C108.364 105.183 109.463 106.327 110.954 108.428C112.256 110.265 112.998 111.332 114.68 112.828Z" fill="url(#paint13_linear_2041_574)"/>
<path d="M128.281 134.256C173.761 134.256 168.117 91.2076 156.006 72.4805C194.433 125.987 138.495 168.641 138.495 152.983C138.495 142.525 114.887 134.256 128.281 134.256Z" fill="url(#paint14_linear_2041_574)"/>
<circle cx="97.884" cy="145.931" r="2.18865" fill="#F9DCC9" fill-opacity="0.8"/>
<circle cx="110.285" cy="149.093" r="8.26915" fill="#F9DCC9" fill-opacity="0.8"/>
<circle cx="143.358" cy="77.5928" r="5.35062" fill="#BDE0D8"/>
<circle cx="131.931" cy="70.0558" r="2.18865" fill="#BDE0D8"/>
<circle cx="147.737" cy="144.714" r="4.37778" fill="#F9DCC9" fill-opacity="0.8"/>
<path d="M63.0438 127.547C79.5225 152.836 90.9432 166.474 101.826 173.253C90.6795 162.361 88.3745 150.561 82.0645 139.663C74.71 126.96 49.0915 96.7922 24.4332 93.3924C37.1187 97.4099 51.0918 109.205 63.0438 127.547Z" fill="url(#paint15_linear_2041_574)"/>
<path d="M156.363 156.911C133.159 190.315 143.495 173.671 139.8 179.678C147.117 171.8 144.058 174.066 156.464 163.87C168.276 154.161 176.125 135.055 197.752 133.596C184.144 134.513 173.192 132.683 156.363 156.911Z" fill="#51833A"/>
<defs>
<filter id="filter0_f_2041_574" x="55.8068" y="151.529" width="128.414" height="37.4529" filterUnits="userSpaceOnUse" color-interpolation-filters="sRGB">
<feFlood flood-opacity="0" result="BackgroundImageFix"/>
<feBlend mode="normal" in="SourceGraphic" in2="BackgroundImageFix" result="shape"/>
<feGaussianBlur stdDeviation="4.8642" result="effect1_foregroundBlur_2041_574"/>
</filter>
<linearGradient id="paint0_linear_2041_574" x1="75.9277" y1="31.3123" x2="88.7724" y2="54.9451" gradientUnits="userSpaceOnUse">
<stop offset="0.5499" stop-color="#695546"/>
<stop offset="0.708063" stop-color="#B69E7D"/>
</linearGradient>
<linearGradient id="paint1_linear_2041_574" x1="112.944" y1="128.711" x2="112.944" y2="166.782" gradientUnits="userSpaceOnUse">
<stop stop-color="#81B148" stop-opacity="0.56"/>
<stop offset="1" stop-color="#81B148"/>
</linearGradient>
<linearGradient id="paint2_linear_2041_574" x1="130" y1="79.9201" x2="128.317" y2="92.1034" gradientUnits="userSpaceOnUse">
<stop stop-color="#F1B09E"/>
<stop offset="1" stop-color="#FAE6CE"/>
</linearGradient>
<linearGradient id="paint3_linear_2041_574" x1="107.292" y1="80.9385" x2="109.473" y2="93.0425" gradientUnits="userSpaceOnUse">
<stop stop-color="#F1B09E"/>
<stop offset="1" stop-color="#FAE6CE"/>
</linearGradient>
<linearGradient id="paint4_linear_2041_574" x1="101.784" y1="103.416" x2="119.536" y2="114.097" gradientUnits="userSpaceOnUse">
<stop stop-color="#EFB7A4"/>
<stop offset="0.942708" stop-color="#F7E7D8"/>
</linearGradient>
<linearGradient id="paint5_linear_2041_574" x1="101.784" y1="103.416" x2="119.536" y2="114.097" gradientUnits="userSpaceOnUse">
<stop stop-color="#EFB7A4"/>
<stop offset="0.942708" stop-color="#F7E7D8"/>
</linearGradient>
<radialGradient id="paint6_radial_2041_574" cx="0" cy="0" r="1" gradientUnits="userSpaceOnUse" gradientTransform="translate(119.078 85.6673) rotate(89.0943) scale(29.3996 21.94)">
<stop stop-color="#FADFCC"/>
<stop offset="1" stop-color="#F1BEAB"/>
</radialGradient>
<linearGradient id="paint7_linear_2041_574" x1="136.469" y1="102.779" x2="119.17" y2="114.178" gradientUnits="userSpaceOnUse">
<stop stop-color="#EFB7A4"/>
<stop offset="0.942708" stop-color="#F7E7D8"/>
</linearGradient>
<linearGradient id="paint8_linear_2041_574" x1="136.469" y1="102.779" x2="119.17" y2="114.178" gradientUnits="userSpaceOnUse">
<stop stop-color="#EFB7A4"/>
<stop offset="0.942708" stop-color="#F7E7D8"/>
</linearGradient>
<radialGradient id="paint9_radial_2041_574" cx="0" cy="0" r="1" gradientUnits="userSpaceOnUse" gradientTransform="translate(118.552 112.327) rotate(-42.1049) scale(22.4957 30.9374)">
<stop stop-color="#FCE5D0"/>
<stop offset="1" stop-color="#EFB7A4"/>
</radialGradient>
<radialGradient id="paint10_radial_2041_574" cx="0" cy="0" r="1" gradientUnits="userSpaceOnUse" gradientTransform="translate(117.5 112.711) rotate(-129.312) scale(22.5301 29.3269)">
<stop stop-color="#FCE5D0"/>
<stop offset="1" stop-color="#EFB7A4"/>
</radialGradient>
<linearGradient id="paint11_linear_2041_574" x1="113.272" y1="91.5807" x2="113.765" y2="115.592" gradientUnits="userSpaceOnUse">
<stop stop-color="#F0BFAF"/>
<stop offset="1" stop-color="#F0BFAF" stop-opacity="0"/>
</linearGradient>
<linearGradient id="paint12_linear_2041_574" x1="126.847" y1="92.9625" x2="127.303" y2="115.18" gradientUnits="userSpaceOnUse">
<stop stop-color="#F4B59C"/>
<stop offset="1" stop-color="#F1C4B2" stop-opacity="0"/>
</linearGradient>
<linearGradient id="paint13_linear_2041_574" x1="114.481" y1="100.825" x2="112.553" y2="115.188" gradientUnits="userSpaceOnUse">
<stop stop-color="#F1BCA9"/>
<stop offset="1" stop-color="#F1BCA9" stop-opacity="0"/>
</linearGradient>
<linearGradient id="paint14_linear_2041_574" x1="146.827" y1="72.4805" x2="146.827" y2="156.262" gradientUnits="userSpaceOnUse">
<stop stop-color="white"/>
<stop offset="1" stop-color="white" stop-opacity="0"/>
</linearGradient>
<linearGradient id="paint15_linear_2041_574" x1="42.3415" y1="124.377" x2="110.438" y2="151.248" gradientUnits="userSpaceOnUse">
<stop stop-color="#63942B"/>
<stop offset="1" stop-color="#4A7B34"/>
</linearGradient>
</defs>
</svg>
