<svg width="207" height="195" viewBox="0 0 207 195" fill="none" xmlns="http://www.w3.org/2000/svg">
<path d="M69.7574 141.792C48.7027 113.769 30.3487 108.367 17.6142 102.324C31.123 113.474 39.2633 118.638 47.4688 130.894C57.0326 145.179 65.8091 167.543 93.2524 166.213C78.8666 164.048 85.0283 162.117 69.7574 141.792Z" fill="url(#paint0_linear_2041_757)"/>
<g filter="url(#filter0_f_2041_757)">
<ellipse cx="107.967" cy="168.714" rx="54.4791" ry="8.99877" fill="#6E8850" fill-opacity="0.6"/>
</g>
<path d="M165.954 124.055C142.269 157.119 123.289 149.798 120.121 166.766C128.329 147.449 149.554 150.805 163.412 140.986C175.889 132.146 185.788 102.559 206.217 114.719C196.003 107.087 183.133 100.073 165.954 124.055Z" fill="#5F8A2D"/>
<path d="M56.3075 114.783C62.872 147.875 76.5096 161.286 85.0169 172.453C77.9637 156.762 73.0668 148.568 71.0638 134.588C68.7293 118.294 54.6774 76.7011 30.373 64.2815C41.9226 73.1141 51.5462 90.7811 56.3075 114.783Z" fill="#5F8A2D"/>
<path d="M84.1909 172.778C83.2214 170.071 82.8074 168.525 82.6584 167.694C83.0825 167.171 82.3684 166.077 82.6584 167.694C82.448 167.953 81.9574 168.072 80.9249 167.65C76.7546 161.27 76.9294 162.688 74.0364 162.774C71.4722 160.573 68.1743 157.492 63.9394 153.219C43.1727 132.268 32.7023 135.964 19.1409 137.415C40.694 135.111 51.3224 153.343 65.0438 160.09C69.8539 162.456 72.4225 162.822 74.0364 162.774C77.511 165.757 79.6385 167.123 80.9249 167.65C81.7996 168.988 82.8655 170.669 84.1909 172.778Z" fill="#51833A"/>
<circle cx="104.063" cy="111.196" r="60.8025" transform="rotate(31.1217 104.063 111.196)" fill="white" fill-opacity="0.8"/>
<rect x="117.258" y="44.1602" width="47.1828" height="10.7012" transform="rotate(31.1217 117.258 44.1602)" fill="#D7EEE9"/>
<path d="M161.421 73.552C137.928 67.7898 122.98 56.6522 111.069 43.3814C110.776 43.0555 110.567 42.6552 110.589 42.2178C110.795 38.216 116.965 27.0567 119.67 27.8934C128.016 30.4752 171.553 57.4546 171.302 59.0667C170.414 64.7727 163.852 74.1481 161.421 73.552Z" fill="#D7EEE9"/>
<path d="M120.884 46.6323C120.002 43.4765 123.562 30.9079 125.928 24.022C126.317 22.8909 127.479 22.2312 128.632 22.5493C142.165 26.2835 166.914 41.7632 171.135 49.9839C171.782 51.2447 153.751 65.8493 150.696 65.4841C142.482 64.5021 122.412 52.1006 120.884 46.6323Z" fill="url(#paint1_linear_2041_757)"/>
<ellipse cx="149.11" cy="36.1169" rx="26.0235" ry="5.35062" transform="rotate(31.1217 149.11 36.1169)" fill="#8C6E59"/>
<ellipse cx="104.806" cy="113.993" rx="54.2359" ry="12.1605" fill="#DEBB08" fill-opacity="0.7"/>
<path d="M115.214 135.853C160.695 135.853 155.051 92.8053 142.939 74.0781C181.366 127.584 125.428 170.239 125.428 154.581C125.428 144.123 101.82 135.853 115.214 135.853Z" fill="url(#paint2_linear_2041_757)"/>
<path d="M95.2813 115.844C96.3015 115.163 96.8399 115.135 96.9816 115.206L97.8328 116.906H101.871L106.334 119.031L105.909 127.32L103.996 129.445L106.334 130.295H113.135L110.585 128.383C110.797 125.832 111.222 120.391 111.222 119.031C111.222 117.671 107.963 113.647 106.334 111.806L108.247 110.318L109.734 112.868C110.585 113.222 112.752 113.761 114.623 113.08C116.493 112.4 115.118 109.821 114.198 108.617H116.535L117.598 110.318H119.936L123.336 109.892H125.462L125.674 108.617C127.544 110.147 128.862 109.396 129.287 108.83L128.224 105.854C128.579 105.004 129.287 103.092 129.287 102.241C129.457 99.691 126.808 99.4785 125.462 99.691C125.178 99.1951 124.782 97.8208 125.462 96.2906C126.652 93.7402 124.257 93.386 122.911 93.5277L120.361 91.8274H117.598L116.96 89.7022L115.685 89.2771C116.535 88.9938 118.321 88.002 118.661 86.3017C119.001 84.6014 115.827 83.7513 114.198 83.5388L113.56 82.0511H111.647L111.222 80.7759L109.522 79.9257L111.222 79.0757C111.435 79.0757 112.2 78.6082 113.56 76.7384C114.92 74.8685 112.568 73.5503 111.222 73.1249C113.262 72.4448 112.072 69.7244 111.222 68.4492L109.522 69.5119L107.822 68.4492L105.271 69.5119H103.571L101.871 71.6377L100.596 70.3625H98.2578C96.5576 68.3222 94.574 70.3625 93.7947 71.6377C91.0743 71.6377 91.3861 74.4714 91.882 75.8882L88.6929 76.7384C89.1888 78.7218 89.8831 82.3912 88.6929 81.2009C87.5028 80.0107 85.0807 79.8549 84.0184 79.9257V82.6888C83.7346 82.5471 82.9123 82.3487 81.8931 82.6888C80.8738 83.0288 82.8852 86.656 84.0184 88.4271L83.1672 91.1899L84.8685 92.8902C85.0102 93.882 84.8683 95.8656 83.1672 95.8656C81.0408 95.8656 80.8301 99.2661 80.8301 100.116C80.8301 100.966 82.3181 103.304 80.8301 103.304C77.9394 102.964 77.7837 105.43 78.0671 106.705C77.2169 107.215 77.7128 110.318 78.0671 111.806H80.8301C80.5467 112.231 79.81 113.251 79.1299 113.931C78.4498 114.611 79.98 116.198 80.8301 116.906C81.8219 116.198 83.6778 114.994 83.1672 115.844C82.147 118.054 84.8674 119.457 86.3551 119.882C86.4968 119.032 87.1627 117.246 88.6929 116.906C90.2231 116.566 90.3223 118.748 90.1806 119.882C90.6057 119.882 91.7959 120.179 93.156 121.369C94.5162 122.56 96.2731 120.874 96.9816 119.882L94.0062 118.181C94.0062 117.686 94.2612 116.524 95.2813 115.844Z" fill="url(#paint3_linear_2041_757)"/>
<path d="M102.516 85.6626C102.417 85.6138 102.044 85.6333 101.336 86.1022C100.628 86.5712 97.3652 85.9558 98.8391 89.1796C98.8391 89.1796 102.837 90.9963 98.8391 90.3711C94.8412 89.746 99.7829 95.1291 98.8391 94.3085C97.8953 93.4879 97.0695 93.2827 96.7746 93.2827C96.8729 92.5012 96.8041 90.9967 95.7423 91.2312C94.6806 91.4656 87.7896 94.8558 87.6913 95.442C86.8914 95.2149 87.8802 93.2866 88.6952 91.7209C88.6269 91.7582 88.5366 91.7788 88.42 91.7788C88.0877 91.7399 87.7875 91.4817 87.5188 91.0819C86.9198 90.5466 86.0839 89.6054 86.5124 89.1796C86.5775 89.1149 86.6106 89.0401 86.6243 88.9592C86.5051 88.5537 86.3983 88.132 86.3037 87.7142H85.7749C85.533 86.7046 85.1959 84.6162 85.7477 84.2153C85.7442 84.1141 85.7533 84.1005 85.7749 84.1973C85.7656 84.2028 85.7566 84.2088 85.7477 84.2153C85.7608 84.5846 85.9431 86.1212 86.3037 87.7142H87.6414C87.2054 86.7045 86.8968 85.6814 87.7168 85.6814C88.8971 85.6814 87.1117 83.5518 87.0134 82.868C86.9151 82.1841 88.2067 81.8604 89.1234 81.5208C90.6261 80.9643 94.013 82.742 93.2267 81.5208C92.4405 80.2997 91.0449 77.7987 91.7521 77.5643C92.4593 77.3298 93.0299 77.4666 93.2267 77.5643V75.6592C93.9638 75.6103 95.6444 75.7177 96.4702 76.5384C97.296 77.3591 96.8143 74.8291 96.4702 73.4615L98.683 72.8753C98.3389 71.8984 98.1226 69.9445 100.01 69.9445C100.551 69.0653 101.927 67.6585 103.107 69.0653H104.729L105.614 69.9445L106.794 68.4788H107.973L109.743 67.7461L110.923 68.4788L112.102 67.7461C112.692 68.6253 113.518 70.501 112.102 70.97C113.036 71.2633 114.668 72.1722 113.724 73.4615C112.781 74.7507 112.25 75.0731 112.102 75.0731L110.923 75.6592L112.102 76.2454L112.397 77.1246H113.724L114.167 78.1504C115.297 78.2969 117.5 78.883 117.264 80.0554C117.028 81.2277 115.789 81.9116 115.199 82.1069L116.084 82.4L116.526 83.8654H118.443L120.213 85.0377C121.147 84.94 122.808 85.1842 121.982 86.9427C121.511 87.9978 121.786 88.9454 121.982 89.2873C122.916 89.1408 124.755 89.2873 124.637 91.0458C124.637 91.6322 124.145 92.9509 123.899 93.537L124.637 95.5885C123.586 103.968 123.428 96.4969 122.13 95.442L121.982 96.3212H120.508L119.17 92.2181H117.548L116.811 91.0458H115.189C115.828 91.8761 116.782 93.654 115.484 94.1231C114.186 94.5923 113.245 91.2511 112.655 91.0068L111.623 89.2483L110.295 90.2744C110.677 90.7031 110.877 90.8234 110.975 90.8307C111.015 90.5416 111.137 90.8429 110.975 90.8307C110.967 90.8821 110.963 90.9521 110.963 91.0458C110.963 91.9837 109.59 89.7982 109.443 91.5567C109.443 91.5567 108.722 91.5917 108.292 91.7397C106.326 92.4163 106.156 89.6841 104.244 90.4984C103.239 90.9266 103.89 87.5919 103.106 86.835C102.736 86.4779 102.516 85.6626 102.516 85.6626Z" fill="url(#paint4_linear_2041_757)"/>
<path d="M105.133 95.5103C105.034 95.4614 104.661 95.481 103.953 95.9499C103.245 96.4188 99.9824 95.8034 101.456 99.0273C101.456 99.0273 105.454 100.844 101.456 100.219C97.4584 99.5936 102.4 104.977 101.456 104.156C100.513 103.336 99.6867 103.13 99.3918 103.13C99.4901 102.349 99.4213 100.844 98.3595 101.079C97.2978 101.313 90.4068 104.703 90.3084 105.29C89.5086 105.063 90.4974 103.134 91.3124 101.569C91.244 101.606 91.1538 101.626 91.0372 101.626C90.7049 101.588 90.4047 101.329 90.136 100.93C89.537 100.394 88.7011 99.453 89.1295 99.0273C89.1947 98.9625 89.2278 98.8877 89.2415 98.8069C89.1223 98.4014 89.0154 97.9797 88.9209 97.5619H88.3921C88.1502 96.5523 87.813 94.4638 88.3649 94.0629C88.3613 93.9617 88.3705 93.9481 88.3921 94.0449C88.3828 94.0505 88.3738 94.0565 88.3649 94.0629C88.378 94.4323 88.5603 95.9688 88.9209 97.5619H90.2586C89.8226 96.5522 89.514 95.529 90.3339 95.529C91.5143 95.529 89.7289 93.3995 89.6306 92.7156C89.5323 92.0318 90.8238 91.708 91.7406 91.3685C93.2433 90.8119 96.6302 92.5896 95.8439 91.3685C95.0577 90.1473 93.6621 87.6464 94.3693 87.4119C95.0765 87.1775 95.6471 87.3142 95.8439 87.4119V85.5068C96.581 85.4579 98.2616 85.5654 99.0874 86.3861C99.9132 87.2068 99.4315 84.6767 99.0874 83.3091L101.3 82.723C100.956 81.746 100.74 79.7922 102.627 79.7922C103.168 78.9129 104.544 77.5062 105.724 78.9129H107.346L108.231 79.7922L109.411 78.3264H110.59L112.36 77.5938L113.54 78.3264L114.719 77.5938C115.309 78.473 116.135 80.3487 114.719 80.8176C115.653 81.1109 117.285 82.0199 116.342 83.3091C115.398 84.5984 114.867 84.9207 114.719 84.9207L113.54 85.5068L114.719 86.093L115.014 86.9723H116.342L116.784 87.998C117.915 88.1446 120.117 88.7307 119.881 89.903C119.645 91.0754 118.406 91.7592 117.816 91.9546L118.701 92.2477L119.143 93.7131H121.06L122.83 94.8854C123.764 94.7877 125.425 95.0319 124.6 96.7904C124.128 97.8455 124.403 98.7931 124.6 99.135C125.534 98.9885 127.372 99.135 127.254 100.893C127.254 101.48 126.762 102.799 126.517 103.385L127.254 105.436C126.203 113.816 126.045 106.345 124.747 105.29L124.6 106.169H123.125L121.788 102.066H120.166L119.428 100.893H117.806C118.445 101.724 119.399 103.502 118.101 103.971C116.803 104.44 115.862 101.099 115.272 100.854L114.24 99.096L112.913 100.122C113.294 100.551 113.494 100.671 113.592 100.678C113.632 100.389 113.754 100.691 113.592 100.678C113.585 100.73 113.58 100.8 113.58 100.893C113.58 101.831 112.208 99.6459 112.06 101.404C112.06 101.404 111.339 101.439 110.909 101.587C108.943 102.264 108.773 99.5317 106.862 100.346C105.856 100.774 106.507 97.4396 105.723 96.6827C105.354 96.3256 105.133 95.5103 105.133 95.5103Z" fill="url(#paint5_linear_2041_757)"/>
<path d="M105.519 129.527C106.134 129.527 106.801 127.937 107.057 127.142L108.827 126.988C108.801 127.142 108.796 127.573 108.98 128.065C109.165 128.558 110.288 129.347 110.827 129.681C118.827 128.835 119.289 131.681 119.75 131.527C120.212 131.373 122.904 131.527 124.905 132.373C126.905 133.219 127.059 132.912 128.751 132.835C129.724 132.791 130.623 132.876 131.213 132.966C131.392 132.983 131.573 133.015 131.751 133.066C131.628 133.037 131.444 133.001 131.213 132.966C130.311 132.881 129.444 133.181 129.059 133.373C128.597 133.604 127.059 134.22 125.058 133.219C124.043 132.712 121.725 132.348 120.597 132.373C122.52 134.835 128.674 137.604 129.751 136.989C131.982 135.527 134.444 133.835 137.675 134.681C140.25 135.355 141.461 133.592 141.749 132.615C141.21 134.456 140.36 135.834 136.982 135.22C134.274 134.727 131.956 136.45 131.136 137.374C131.7 137.271 133.459 137.174 135.982 137.604C138.505 138.035 141.547 141.374 142.752 142.989C138.675 138.604 135.213 137.681 132.059 138.066C129.536 138.374 126.956 137.63 125.982 137.22C127.059 138.297 127.059 140.066 127.059 140.605C127.059 141.143 126.905 142.528 128.136 144.297C129.506 146.082 129.373 147.605 129.136 148.144C128.889 146.236 128.161 145.092 127.828 144.759C127.264 144.4 126.197 143.159 126.443 141.066C126.751 138.451 124.366 136.45 123.828 136.143C123.289 135.835 122.289 135.835 120.597 133.835C118.904 131.835 117.673 131.758 116.289 131.142C115.181 130.65 112.904 130.937 111.904 131.142L114.058 134.45C114.596 134.45 115.673 134.912 116.058 135.143C116.442 135.373 117.366 136.143 117.673 137.22C118.289 139.743 119.981 141.092 120.75 141.451C120.109 141.502 118.596 141.051 117.673 138.835C116.75 136.62 115.289 135.912 114.673 135.835C114.904 136.322 115.381 137.712 115.442 139.374C115.519 141.451 116.058 143.528 117.673 144.605C119.289 145.682 121.52 146.836 122.058 148.144C122.612 151.098 124.238 154.247 124.981 155.452C122.751 153.836 122.366 151.144 121.674 148.99C121.443 148.451 121.058 147.605 120.212 147.067C119.653 146.711 117.186 145.118 116.058 144.297C115.75 145.143 117.289 147.759 117.673 148.99C118.412 151.944 117.366 153.452 116.75 153.836C118.058 152.605 117.212 149.605 116.904 148.99C116.596 148.374 115.135 146.22 115.135 144.759C115.319 136.635 110.75 131.065 108.442 129.296C107.211 129.758 108.608 136.962 108.827 137.835C109.211 139.374 108.98 141.656 108.827 143.143C109.679 144.251 110.361 145.913 110.596 146.605C110.622 148.067 110.657 151.113 110.596 151.605C110.534 152.282 112.109 154.452 112.904 155.452C112.263 154.734 110.842 153.098 110.288 152.298C109.596 151.298 109.519 147.759 109.442 146.836C109.38 146.097 108.596 144.733 108.211 144.143C107.57 145.477 106.119 148.559 105.442 150.221C104.765 151.882 106.031 156.452 106.749 158.529C105.288 157.298 104.749 151.759 104.519 151.913C104.288 152.067 103.98 153.067 103.749 154.067C103.072 157.513 101.108 158.375 100.211 158.375C102.903 157.144 102.826 154.99 103.211 153.452C103.949 151.051 105.826 146.861 106.673 145.066C107.314 144.015 108.38 141.189 107.519 138.297C106.657 135.404 106.596 131.707 106.673 130.219C103.365 131.758 101.518 140.451 101.211 142.22C100.921 143.887 100.672 146.836 99.2874 148.913C98.1797 150.574 98.8259 153.041 99.2874 154.067C98.0566 152.144 98.2105 151.451 98.1335 151.221C98.0566 150.99 98.1335 149.451 98.8259 148.605C99.3798 147.928 99.9798 145.348 100.211 144.143C99.7234 144.707 98.4259 145.943 97.1335 146.374C94.8256 146.913 94.2871 149.99 93.4409 152.221C92.7639 154.005 91.6203 155.016 91.1331 155.298C91.6972 154.503 92.8409 152.805 92.9024 152.375C92.9793 151.836 94.1333 146.836 96.1334 146.143C98.1335 145.451 99.6721 143.066 100.211 141.374C101.032 138.793 101.493 136.733 101.749 136.066C101.211 136.348 99.7182 136.897 99.2874 137.758C97.9432 140.671 96.497 141.298 95.7839 141.252C95.7213 141.25 95.6583 141.24 95.5949 141.22C95.6502 141.236 95.7135 141.247 95.7839 141.252C96.9384 141.282 97.9691 138.354 98.749 136.989C99.6721 135.373 101.408 135.145 101.98 134.45C103.057 133.143 103.211 132.604 104.288 131.065C99.6721 129.988 96.3642 133.373 95.9795 133.758C95.5949 134.143 94.0563 135.681 91.9023 136.374C90.1791 136.927 89.6971 140.605 89.6714 142.374C89.6714 142.707 89.6055 143.759 89.2099 144.066C87.8251 145.143 87.0559 146.374 87.2097 147.99C86.3635 146.528 87.2867 145.143 87.979 144.374C88.3124 144.092 88.9791 143.328 88.9791 142.528C88.9791 140.128 89.7996 137.835 90.2099 136.989C89.2611 137.553 86.8173 138.397 84.5172 138.22C81.517 137.989 80.9016 138.22 80.0554 138.374C78.9784 138.569 75.6192 140.938 73.8242 142.143C75.1064 141.04 77.963 138.666 79.1323 137.989C80.5939 137.143 81.9786 137.297 83.0556 137.451C83.9172 137.574 84.7993 137.399 85.1327 137.297C83.5172 135.989 82.4402 135.373 81.0555 135.143C80.1903 134.998 79.1323 135.527 77.6706 135.527C75.7696 135.412 75.0234 133.76 74.8516 132.792C74.8338 132.726 74.8243 132.663 74.8243 132.604C74.8308 132.663 74.8399 132.726 74.8516 132.792C75.0669 133.589 76.4987 134.841 77.2091 134.912C77.9783 134.989 78.9468 134.751 80.9016 134.45C82.9017 134.143 85.2865 136.835 86.5174 136.835C89.2868 137.143 93.6717 134.014 95.441 132.373L92.6716 132.604C91.5177 133.194 89.6714 133.989 88.2867 133.604C87.3605 133.347 85.466 132.989 84.5172 133.066C84.9275 132.784 85.9789 132.373 87.1328 132.604C88.2602 132.83 88.8252 133.143 90.2099 132.912L92.287 131.835L96.3642 131.219C97.4668 130.809 99.7644 129.896 100.134 129.527C100.595 129.065 104.749 129.527 105.519 129.527Z" fill="#9E5938"/>
<path d="M106.167 118.963L101.918 116.838L106.403 112.117C108.48 113.25 110.337 117.074 111.124 118.963L110.652 128.405L113.012 130.293H106.167L104.042 129.349L105.931 127.225L106.167 118.963Z" fill="#816A59"/>
<path fill-rule="evenodd" clip-rule="evenodd" d="M158.869 114.179C157.083 120.533 133.532 125.563 104.742 125.563C75.9416 125.563 52.3841 120.529 50.6133 114.172C52.3901 142.52 75.945 164.963 104.742 164.963C133.536 164.963 157.089 142.524 158.869 114.179Z" fill="#E7DC7C" fill-opacity="0.7"/>
<path fill-rule="evenodd" clip-rule="evenodd" d="M53.4288 129.458C62.5028 128.705 92.9785 130.111 91.3774 136.952C88.9155 147.471 101.263 158.395 114.638 163.868C111.292 164.513 107.837 164.851 104.302 164.851C80.9739 164.851 61.0857 150.123 53.4288 129.458ZM128.41 159.212C132.844 154.613 137.747 148.112 142.208 142.196C148.42 133.96 153.777 126.856 155.828 127.592C151.271 141.43 141.295 152.808 128.41 159.212Z" fill="url(#paint6_linear_2041_757)"/>
<circle cx="70.9016" cy="136.875" r="2.18865" transform="rotate(13.2617 70.9016 136.875)" fill="#C2DDB5"/>
<circle cx="81.1322" cy="147.531" r="8.26915" transform="rotate(13.2617 81.1322 147.531)" fill="#C2DDB5"/>
<circle cx="134.461" cy="86.6424" r="5.35062" transform="rotate(13.2617 134.461 86.6424)" fill="#E3E29E"/>
<circle cx="125.07" cy="76.6753" r="2.18865" transform="rotate(13.2617 125.07 76.6753)" fill="#E3E29E"/>
<circle cx="118.593" cy="151.859" r="4.37778" transform="rotate(13.2617 118.593 151.859)" fill="#B1D39F"/>
<path d="M132.412 161.434C121.554 173.061 122.011 172.148 112.161 180.993C123.837 172.604 125.663 171.691 131.308 168.305C144.42 160.439 155.658 143.326 177.211 145.63C163.649 144.179 152.546 139.874 132.412 161.434Z" fill="#57882E"/>
<defs>
<filter id="filter0_f_2041_757" x="43.7599" y="149.986" width="128.414" height="37.4529" filterUnits="userSpaceOnUse" color-interpolation-filters="sRGB">
<feFlood flood-opacity="0" result="BackgroundImageFix"/>
<feBlend mode="normal" in="SourceGraphic" in2="BackgroundImageFix" result="shape"/>
<feGaussianBlur stdDeviation="4.8642" result="effect1_foregroundBlur_2041_757"/>
</filter>
<linearGradient id="paint0_linear_2041_757" x1="121.55" y1="152.505" x2="11.8759" y2="127.123" gradientUnits="userSpaceOnUse">
<stop stop-color="#61922B"/>
<stop offset="1" stop-color="#528330"/>
</linearGradient>
<linearGradient id="paint1_linear_2041_757" x1="150.803" y1="32.9811" x2="136.9" y2="56.0077" gradientUnits="userSpaceOnUse">
<stop offset="0.5499" stop-color="#695546"/>
<stop offset="0.708063" stop-color="#B69E7D"/>
</linearGradient>
<linearGradient id="paint2_linear_2041_757" x1="133.761" y1="74.0781" x2="133.761" y2="157.86" gradientUnits="userSpaceOnUse">
<stop stop-color="white"/>
<stop offset="1" stop-color="white" stop-opacity="0"/>
</linearGradient>
<linearGradient id="paint3_linear_2041_757" x1="103.446" y1="68.4492" x2="103.446" y2="130.295" gradientUnits="userSpaceOnUse">
<stop stop-color="#9AD58B"/>
<stop offset="1" stop-color="#527C22"/>
</linearGradient>
<linearGradient id="paint4_linear_2041_757" x1="106.706" y1="67.7461" x2="106.706" y2="110.389" gradientUnits="userSpaceOnUse">
<stop stop-color="#C8ECAB"/>
<stop offset="1" stop-color="#97C276"/>
</linearGradient>
<linearGradient id="paint5_linear_2041_757" x1="109.323" y1="77.5937" x2="109.323" y2="120.237" gradientUnits="userSpaceOnUse">
<stop stop-color="#82BA75"/>
<stop offset="1" stop-color="#97C276"/>
</linearGradient>
<linearGradient id="paint6_linear_2041_757" x1="104.628" y1="127.539" x2="104.628" y2="164.851" gradientUnits="userSpaceOnUse">
<stop stop-color="#81B148" stop-opacity="0.56"/>
<stop offset="1" stop-color="#81B148"/>
</linearGradient>
</defs>
</svg>
