<svg width="235" height="236" viewBox="0 0 235 236" fill="none" xmlns="http://www.w3.org/2000/svg">
<g filter="url(#filter0_f_2466_9432)">
<circle cx="117.5" cy="118.453" r="67.5" fill="#B1D36F"/>
</g>
<g filter="url(#filter1_f_2466_9432)">
<ellipse cx="119.049" cy="164.712" rx="39.9706" ry="6.60228" fill="#C3E49D"/>
</g>
<circle cx="116.179" cy="122.512" r="44.61" transform="rotate(31.1217 116.179 122.512)" fill="white" fill-opacity="0.8"/>
<rect x="125.863" y="73.3281" width="34.6174" height="7.85136" transform="rotate(31.1217 125.863 73.3281)" fill="#EFF6E2"/>
<path d="M158.266 94.8946C141.029 90.667 130.062 82.4955 121.323 72.7588C121.108 72.5197 120.955 72.226 120.971 71.9052C121.122 68.969 125.649 60.7816 127.633 61.3955C133.757 63.2898 165.7 83.0841 165.516 84.2669C164.864 88.4534 160.049 95.332 158.266 94.8946Z" fill="#E7FCF7"/>
<path d="M128.522 75.1407C127.875 72.8254 130.487 63.604 132.223 58.5519C132.508 57.722 133.361 57.238 134.207 57.4714C144.136 60.2111 162.294 71.5683 165.391 77.5998C165.866 78.5248 152.637 89.24 150.395 88.9721C144.369 88.2516 129.643 79.1527 128.522 75.1407Z" fill="url(#paint0_linear_2466_9432)"/>
<ellipse cx="149.23" cy="67.4283" rx="19.0931" ry="3.92568" transform="rotate(31.1217 149.23 67.4283)" fill="#8C6E59"/>
<path d="M162.551 75.0541C162.485 75.1637 162.35 75.2554 162.107 75.3048C161.865 75.354 161.539 75.3555 161.131 75.3046C160.318 75.2028 159.223 74.8975 157.92 74.4113C155.316 73.4399 151.915 71.7592 148.336 69.5983C144.757 67.4374 141.686 65.2104 139.614 63.3589C138.577 62.4321 137.797 61.6054 137.328 60.9329C137.093 60.5961 136.942 60.3068 136.873 60.0694C136.804 59.8317 136.822 59.6694 136.888 59.5598C136.954 59.4502 137.089 59.3584 137.332 59.3091C137.574 59.2599 137.9 59.2583 138.308 59.3093C139.121 59.4111 140.216 59.7164 141.519 60.2026C144.123 61.174 147.524 62.8547 151.103 65.0156C154.682 67.1764 157.753 69.4035 159.826 71.255C160.863 72.1818 161.643 73.0085 162.112 73.681C162.347 74.0178 162.497 74.3071 162.566 74.5445C162.636 74.7822 162.617 74.9445 162.551 75.0541Z" stroke="#695546" stroke-width="0.35688"/>
<path d="M158.883 72.8421C158.926 72.7721 158.942 72.6643 158.897 72.4968C158.853 72.3292 158.751 72.1221 158.587 71.8783C158.259 71.3917 157.708 70.7934 156.969 70.1225C155.494 68.7825 153.299 67.1776 150.732 65.6281C148.166 64.0787 145.723 62.8832 143.851 62.2018C142.913 61.8606 142.127 61.6517 141.544 61.5885C141.251 61.5569 141.021 61.5631 140.851 61.6014C140.682 61.6397 140.595 61.7047 140.552 61.7748C140.51 61.8448 140.493 61.9526 140.538 62.1201C140.583 62.2877 140.685 62.4948 140.849 62.7386C141.177 63.2252 141.728 63.8235 142.466 64.4944C143.941 65.8344 146.137 67.4393 148.703 68.9888C151.27 70.5382 153.713 71.7337 155.585 72.4151C156.523 72.7563 157.309 72.9652 157.892 73.0284C158.184 73.06 158.415 73.0538 158.584 73.0154C158.753 72.9772 158.841 72.9122 158.883 72.8421Z" stroke="#695546" stroke-width="0.35688"/>
<path d="M124.445 77.0625C127.902 80.7227 138.425 89.2778 152.858 94.2169" stroke="#A4D2C8" stroke-opacity="0.5" stroke-width="1.7844"/>
<path d="M129.555 65.1445C133.458 69.0743 145.217 78.3758 161.023 84.1435" stroke="#BDE0D8" stroke-width="1.7844"/>
<path d="M128.879 65.5625C132.872 69.5462 144.878 78.997 160.958 84.9304" stroke="#D7EEE9" stroke-width="1.7844"/>
<ellipse cx="116.73" cy="124.567" rx="39.7921" ry="8.922" fill="#DEBB08" fill-opacity="0.7"/>
<path d="M115.423 134.745C115.956 134.745 117.192 134.156 117.782 131.207L119.758 133.099C119.736 133.232 121.161 132.671 121.32 133.097C121.48 133.524 122.034 135.047 122.5 135.335C127.808 135.335 128.812 137.16 129.211 137.027C129.611 136.894 131.941 137.027 133.671 137.759C135.402 138.492 135.535 138.225 137 138.159C136.601 138.358 135.535 139.357 133.805 138.492C132.926 138.052 130.92 137.737 129.943 137.759C130.875 138.691 134.295 141.86 134.295 144.77C134.295 145.437 133.115 141.953 132.107 140.955C131.726 140.577 131.408 140.755 129.943 139.024C128.479 137.293 127.414 137.227 126.215 136.694C125.257 136.268 123.286 136.517 122.421 136.694L124.285 139.557C124.751 139.557 125.683 139.956 126.016 140.156C126.349 140.356 127.147 141.021 127.414 141.953C127.946 144.137 129.411 145.304 130.077 145.615C129.522 145.659 128.213 145.269 127.414 143.351C126.615 141.434 125.35 140.822 124.817 140.755C125.017 141.177 125.43 142.379 125.483 143.817C125.55 145.615 128.213 149.542 129.611 150.474C129.127 150.167 126.628 148.744 126.038 147.129C125.483 148.744 127.081 151.074 127.414 152.139C127.147 151.606 125.217 149.742 125.217 148.477C125.377 141.447 121.888 138.292 119.891 136.761C118.826 137.16 119.569 141.73 119.758 142.486C120.091 143.817 119.891 145.792 119.758 147.079C120.496 148.038 121.086 149.476 121.289 150.075C121.311 151.34 121.023 151.614 121.023 155.001C121.023 156.054 120.357 151.074 120.291 150.275C120.237 149.636 119.558 148.455 119.225 147.945C118.962 149.676 116.603 151.257 114.898 156C115.423 151.806 117.162 150.297 117.894 148.744C118.449 147.834 119.372 145.388 118.626 142.885C117.881 140.382 117.894 138.958 117.19 137.959C114.328 139.29 113.2 144.727 113.167 146.28C113.062 151.257 110.768 152.436 110.505 154.069C110.471 154.277 110.505 152.538 111.104 151.806C111.583 151.22 112.102 148.988 112.302 147.945C111.88 148.433 109.892 149.303 108.774 149.676C110.505 149.076 111.836 147.013 112.302 145.548C113.012 143.315 113.411 141.532 113.633 140.955C113.167 141.199 111.876 141.674 111.503 142.419C110.34 144.94 109.088 145.482 108.471 145.443C108.417 145.441 108.362 145.432 108.308 145.415C108.356 145.429 108.41 145.439 108.471 145.443C109.47 145.469 110.362 142.935 111.037 141.754C111.836 140.356 113.338 140.158 113.833 139.557C114.765 138.425 114.898 137.959 115.83 136.628C111.836 135.696 108.973 138.625 108.641 138.958C108.308 139.29 106.976 140.622 105.112 141.221C103.621 141.7 102.605 145.016 102.583 146.547C102.583 144.47 103.293 142.486 103.648 141.754C102.827 142.242 101.49 142.572 99.5 142.419C101.63 142.419 106.643 139.18 108.175 137.759L105.778 137.959C104.779 138.469 102.583 138.958 100.985 137.959C100.141 137.432 102.449 138.159 103.648 137.959L105.445 137.293L108.973 136.761C109.928 136.406 111.916 135.616 112.235 135.296C112.635 134.897 114.757 134.745 115.423 134.745Z" fill="#816A59"/>
<path d="M116.727 136.527L113 136C115 136 116 125.5 113 125.5L127.5 121.5C123.5 125 121 125.5 120.364 128.214C121.5 135 119.6 135.8 124 137L116.727 136.527Z" fill="#816A59"/>
<path fill-rule="evenodd" clip-rule="evenodd" d="M156.394 124.701C155.087 129.364 137.807 133.054 116.682 133.054C95.5545 133.054 78.2727 129.363 76.9688 124.699C78.2742 145.496 95.5553 161.96 116.682 161.96C137.807 161.96 155.088 145.497 156.394 124.701Z" fill="#E7DC7C" fill-opacity="0.7"/>
<path fill-rule="evenodd" clip-rule="evenodd" d="M79.0378 135.908C85.692 135.355 108.058 136.386 106.883 141.406C105.076 149.124 114.137 157.14 123.951 161.155C121.495 161.629 118.958 161.877 116.363 161.877C99.2472 161.877 84.6551 151.071 79.0378 135.908ZM134.052 157.739C137.306 154.365 140.903 149.595 144.177 145.254C148.733 139.213 152.662 134.002 154.168 134.538C150.825 144.692 143.505 153.04 134.052 157.739Z" fill="url(#paint1_linear_2466_9432)"/>
<circle cx="94" cy="102" r="4" fill="#B3D28B"/>
<circle cx="139.5" cy="143.5" r="3.5" fill="#AFD67E"/>
<circle cx="101.5" cy="93.5" r="1.5" fill="#99C265" fill-opacity="0.7"/>
<path d="M124.365 140.605C157.733 140.605 153.593 109.021 144.707 95.2812C172.9 134.538 131.859 165.833 131.859 154.345C131.859 146.672 114.538 140.605 124.365 140.605Z" fill="url(#paint2_linear_2466_9432)"/>
<ellipse cx="112.197" cy="122.226" rx="9.11842" ry="4.77632" fill="#65943E"/>
<ellipse cx="106.552" cy="115.713" rx="6.07895" ry="4.34211" fill="#65943E"/>
<ellipse cx="104.816" cy="111.804" rx="7.81579" ry="4.77632" fill="#65943E"/>
<circle cx="107.854" cy="107.464" r="4.77632" fill="#65943E"/>
<ellipse cx="123.054" cy="119.62" rx="7.81579" ry="4.77632" fill="#65943E"/>
<ellipse cx="126.527" cy="113.542" rx="7.81579" ry="4.77632" fill="#65943E"/>
<ellipse cx="116.103" cy="102.687" rx="9.55263" ry="7.81579" fill="#65943E"/>
<circle cx="122.62" cy="107.464" r="7.38158" fill="#65943E"/>
<ellipse cx="117.406" cy="115.714" rx="8.25" ry="7.81579" fill="#65943E"/>
<ellipse cx="117.843" cy="100.513" rx="7.81579" ry="6.51316" fill="#99C265"/>
<ellipse cx="119.146" cy="99.6447" rx="6.51316" ry="5.64474" fill="#AFD67E"/>
<ellipse cx="111.765" cy="111.367" rx="7.81579" ry="5.21053" fill="#99C265"/>
<ellipse cx="116.105" cy="116.578" rx="7.81579" ry="5.21053" fill="#65943E"/>
<ellipse cx="124.356" cy="117.449" rx="3.03947" ry="2.60526" fill="#99C265"/>
<ellipse cx="126.527" cy="111.367" rx="7.81579" ry="5.21053" fill="#99C265"/>
<ellipse cx="122.183" cy="105.289" rx="7.81579" ry="5.21053" fill="#99C265"/>
<circle cx="112.63" cy="107.024" r="3.47368" fill="#99C265"/>
<defs>
<filter id="filter0_f_2466_9432" x="0" y="0.953125" width="235" height="235" filterUnits="userSpaceOnUse" color-interpolation-filters="sRGB">
<feFlood flood-opacity="0" result="BackgroundImageFix"/>
<feBlend mode="normal" in="SourceGraphic" in2="BackgroundImageFix" result="shape"/>
<feGaussianBlur stdDeviation="25" result="effect1_foregroundBlur_2466_9432"/>
</filter>
<filter id="filter1_f_2466_9432" x="71.9405" y="150.972" width="94.2166" height="27.4783" filterUnits="userSpaceOnUse" color-interpolation-filters="sRGB">
<feFlood flood-opacity="0" result="BackgroundImageFix"/>
<feBlend mode="normal" in="SourceGraphic" in2="BackgroundImageFix" result="shape"/>
<feGaussianBlur stdDeviation="3.5688" result="effect1_foregroundBlur_2466_9432"/>
</filter>
<linearGradient id="paint0_linear_2466_9432" x1="150.473" y1="65.1251" x2="140.273" y2="82.0193" gradientUnits="userSpaceOnUse">
<stop offset="0.5499" stop-color="#695546"/>
<stop offset="0.708063" stop-color="#B69E7D"/>
</linearGradient>
<linearGradient id="paint1_linear_2466_9432" x1="116.603" y1="134.5" x2="116.603" y2="161.877" gradientUnits="userSpaceOnUse">
<stop stop-color="#81B148" stop-opacity="0.15"/>
<stop offset="1" stop-color="#81B148"/>
</linearGradient>
<linearGradient id="paint2_linear_2466_9432" x1="137.972" y1="95.2812" x2="137.972" y2="156.751" gradientUnits="userSpaceOnUse">
<stop stop-color="white"/>
<stop offset="1" stop-color="white" stop-opacity="0"/>
</linearGradient>
</defs>
</svg>
