<svg width="101" height="121" viewBox="0 0 101 121" fill="none" xmlns="http://www.w3.org/2000/svg">
<path d="M90.848 38.7651C99.1743 72.4058 60.7429 110.077 27.8882 100.48C-8.67324 89.7998 -7.65991 11.3561 29.1648 1.65173C56.2719 -5.49179 84.0274 11.208 90.848 38.7651Z" fill="url(#paint0_radial_2057_629)" fill-opacity="0.8"/>
<ellipse cx="50.5" cy="97.5" rx="50.5" ry="19.5" fill="url(#paint1_radial_2057_629)" fill-opacity="0.4"/>
<path d="M36.5023 73.6822C37.6197 72.9372 38.2095 72.9062 38.3647 72.9838L39.297 74.8462H43.72L48.6086 77.1737L48.1431 86.2525L46.0479 88.5804L48.6086 89.5116H56.0579L53.2645 87.4165C53.4972 84.623 53.9628 78.6635 53.9628 77.1737C53.9628 75.6838 50.3934 71.2766 48.6086 69.2592L50.7038 67.6293L52.3333 70.4228C53.2645 70.8109 55.6389 71.4008 57.6875 70.6555C59.736 69.9103 58.2307 67.0859 57.2219 65.7669H59.7826L60.9465 67.6293H63.5072L67.2319 67.1637H69.5598L69.7926 65.7669C71.8411 67.4427 73.2844 66.6204 73.75 65.9997L72.5861 62.7407C72.9741 61.8097 73.75 59.7147 73.75 58.7832C73.9363 55.9897 71.0341 55.757 69.5598 55.9897C69.2494 55.4466 68.8149 53.9412 69.5598 52.2651C70.8634 49.4716 68.2406 49.0836 66.7663 49.2388L63.9728 47.3765H60.9465L60.2482 45.0486L58.8514 44.583C59.7826 44.2726 61.738 43.1863 62.1105 41.3239C62.483 39.4615 59.0066 38.5304 57.2219 38.2977L56.5235 36.6681H54.4284L53.9628 35.2714L52.1005 34.3402L53.9628 33.4091C54.1956 33.4091 55.0337 32.897 56.5235 30.8489C58.0134 28.8008 55.4372 27.3569 53.9628 26.8909C56.1976 26.146 54.894 23.1663 53.9628 21.7695L52.1005 22.9335L50.2382 21.7695L47.4447 22.9335H45.5824L43.72 25.2619L42.3233 23.8652H39.7626C37.9003 21.6304 35.7276 23.8652 34.874 25.2619C31.8943 25.2619 32.2357 28.3658 32.7789 29.9177L29.2858 30.8489C29.829 33.0215 30.5895 37.0406 29.2858 35.7369C27.9822 34.4332 25.3292 34.2625 24.1656 34.3402V37.3666C23.8548 37.2114 22.9542 36.9941 21.8377 37.3666C20.7213 37.739 22.9245 41.712 24.1656 43.6519L23.2333 46.6782L25.0968 48.5405C25.252 49.6269 25.0966 51.7996 23.2333 51.7996C20.9042 51.7996 20.6734 55.5243 20.6734 56.4554C20.6734 57.3866 22.3033 59.9476 20.6734 59.9476C17.5072 59.5752 17.3366 62.2755 17.647 63.6723C16.7157 64.231 17.259 67.6297 17.647 69.2592H20.6734C20.363 69.7248 19.556 70.8422 18.8111 71.5871C18.0662 72.3321 19.7423 74.0702 20.6734 74.8462C21.7598 74.0702 23.7926 72.7511 23.2333 73.6822C22.1159 76.1031 25.0956 77.6396 26.7251 78.1053C26.8803 77.1741 27.6097 75.2187 29.2858 74.8462C30.9619 74.4737 31.0706 76.8637 30.9154 78.1053C31.3809 78.1053 32.6846 78.4312 34.1744 79.7348C35.6643 81.0384 37.5887 79.1916 38.3647 78.1053L35.1056 76.243C35.1056 75.6997 35.3849 74.4271 36.5023 73.6822Z" fill="url(#paint2_linear_2057_629)"/>
<path d="M44.4277 40.6246C44.32 40.5711 43.9108 40.5925 43.1355 41.1061C42.3602 41.6197 38.7863 40.9457 40.4008 44.4769C40.4008 44.4769 44.7798 46.4668 40.4008 45.782C36.0218 45.0972 41.4345 50.9935 40.4008 50.0947C39.367 49.1958 38.4625 48.9711 38.1394 48.9711C38.2471 48.1151 38.1717 46.4672 37.0088 46.724C35.8458 46.9808 28.2978 50.6942 28.1902 51.3362C27.3141 51.0875 28.3971 48.9754 29.2899 47.2604C29.215 47.3013 29.1161 47.3238 28.9884 47.3238C28.6244 47.2813 28.2956 46.9984 28.0012 46.5605C27.3451 45.9742 26.4296 44.9432 26.8989 44.4769C26.9702 44.4059 27.0065 44.324 27.0215 44.2355C26.8909 43.7913 26.7739 43.3294 26.6703 42.8718H26.0912C25.8262 41.7659 25.4569 39.4784 26.0613 39.0392C26.0574 38.9284 26.0674 38.9135 26.0912 39.0196C26.081 39.0256 26.071 39.0322 26.0613 39.0392C26.0756 39.4438 26.2754 41.1268 26.6703 42.8718H28.1356C27.658 41.7658 27.32 40.6451 28.2181 40.6451C29.5109 40.6451 27.5554 38.3125 27.4477 37.5635C27.34 36.8145 28.7547 36.4598 29.7589 36.0879C31.4048 35.4783 35.1145 37.4255 34.2534 36.0879C33.3922 34.7503 31.8635 32.011 32.6381 31.7542C33.4128 31.4974 34.0377 31.6472 34.2534 31.7542V29.6675C35.0607 29.6139 36.9015 29.7316 37.8061 30.6305C38.7106 31.5294 38.183 28.7582 37.8061 27.2602L40.2298 26.6182C39.8529 25.5481 39.616 23.408 41.6835 23.408C42.2757 22.445 43.7833 20.9041 45.0755 22.445H46.8522L47.8214 23.408L49.1135 21.8025H50.4057L52.344 21L53.6362 21.8025L54.9284 21C55.5745 21.9631 56.479 24.0176 54.9284 24.5312C55.9514 24.8525 57.7389 25.8481 56.7051 27.2602C55.6714 28.6724 55.0899 29.0255 54.9284 29.0255L53.6362 29.6675L54.9284 30.3095L55.2514 31.2726H56.7051L57.1897 32.3962C58.428 32.5566 60.8401 33.1987 60.5817 34.4828C60.3233 35.7669 58.9665 36.5159 58.3204 36.7299L59.2895 37.0509L59.7741 38.656H61.8739L63.8122 39.9401C64.8351 39.8331 66.655 40.1006 65.7504 42.0267C65.2336 43.1824 65.5351 44.2203 65.7504 44.5949C66.7734 44.4343 68.7871 44.5949 68.6579 46.521C68.6579 47.1632 68.1195 48.6077 67.8503 49.2496L68.6579 51.4968C67.5071 60.6754 67.3334 52.4917 65.912 51.3362L65.7504 52.2993H64.1352L62.6704 47.805H60.8936L60.086 46.521H58.3092C59.0092 47.4304 60.0537 49.3778 58.6323 49.8917C57.2109 50.4055 56.1796 46.7458 55.5335 46.4782L54.4029 44.5521L52.9492 45.676C53.3673 46.1456 53.5864 46.2773 53.6932 46.2853C53.7376 45.9687 53.8712 46.2987 53.6932 46.2853C53.6853 46.3416 53.6803 46.4183 53.6803 46.521C53.6803 47.5482 52.1769 45.1544 52.0154 47.0805C52.0154 47.0805 51.2257 47.1189 50.7545 47.281C48.6014 48.0221 48.4155 45.0294 46.3214 45.9214C45.2202 46.3904 45.9332 42.7378 45.0746 41.9087C44.6696 41.5176 44.4277 40.6246 44.4277 40.6246Z" fill="url(#paint3_linear_2057_629)"/>
<path d="M47.2949 51.4097C47.1872 51.3562 46.778 51.3776 46.0027 51.8913C45.2274 52.4049 41.6535 51.7308 43.2679 55.262C43.2679 55.262 47.6469 57.2519 43.2679 56.5671C38.8889 55.8823 44.3017 61.7787 43.2679 60.8798C42.2342 59.981 41.3297 59.7563 41.0066 59.7563C41.1143 58.9002 41.0389 57.2523 39.8759 57.5092C38.713 57.766 31.165 61.4794 31.0573 62.1214C30.1813 61.8726 31.2643 59.7606 32.157 58.0456C32.0821 58.0864 31.9833 58.109 31.8556 58.109C31.4916 58.0664 31.1628 57.7836 30.8684 57.3456C30.2123 56.7593 29.2967 55.7284 29.7661 55.262C29.8374 55.1911 29.8737 55.1092 29.8887 55.0206C29.7581 54.5764 29.6411 54.1145 29.5375 53.6569H28.9583C28.6934 52.5511 28.324 50.2635 28.9285 49.8244C28.9246 49.7135 28.9346 49.6987 28.9583 49.8047C28.9482 49.8108 28.9382 49.8173 28.9285 49.8244C28.9428 50.229 29.1426 51.912 29.5375 53.6569H31.0028C30.5252 52.5509 30.1872 51.4302 31.0853 51.4302C32.3781 51.4302 30.4226 49.0977 30.3149 48.3487C30.2072 47.5996 31.6219 47.245 32.6261 46.8731C34.272 46.2635 37.9817 48.2107 37.1205 46.8731C36.2594 45.5355 34.7307 42.7961 35.5053 42.5393C36.28 42.2825 36.9049 42.4323 37.1205 42.5393V40.4526C37.9279 40.3991 39.7687 40.5167 40.6733 41.4157C41.5778 42.3146 41.0501 39.5434 40.6733 38.0454L43.0969 37.4034C42.7201 36.3333 42.4832 34.1932 44.5507 34.1932C45.1429 33.2301 46.6505 31.6892 47.9427 33.2301H49.7194L50.6885 34.1932L51.9807 32.5877H53.2729L55.2112 31.7852L56.5034 32.5877L57.7956 31.7852C58.4417 32.7482 59.3462 34.8027 57.7956 35.3164C58.8185 35.6376 60.6061 36.6332 59.5723 38.0454C58.5386 39.4576 57.9571 39.8106 57.7956 39.8106L56.5034 40.4526L57.7956 41.0947L58.1186 42.0577H59.5723L60.0569 43.1813C61.2952 43.3418 63.7073 43.9838 63.4489 45.2679C63.1904 46.552 61.8336 47.3011 61.1876 47.5151L62.1567 47.8361L62.6413 49.4412H64.7411L66.6793 50.7252C67.7023 50.6182 69.5222 50.8858 68.6176 52.8119C68.1008 53.9675 68.4023 55.0055 68.6176 55.38C69.6406 55.2195 71.6543 55.38 71.525 57.3061C71.525 57.9484 70.9866 59.3928 70.7174 60.0348L71.525 62.2819C70.3743 71.4605 70.2006 63.2768 68.7792 62.1214L68.6176 63.0845H67.0024L65.5376 58.5902H63.7608L62.9532 57.3061H61.1764C61.8764 58.2156 62.9209 60.163 61.4995 60.6768C60.0781 61.1907 59.0468 57.531 58.4007 57.2634L57.2701 55.3373L55.8164 56.4611C56.2344 56.9307 56.4536 57.0625 56.5604 57.0705C56.6048 56.7538 56.7384 57.0838 56.5604 57.0705C56.5525 57.1268 56.5474 57.2034 56.5474 57.3061C56.5474 58.3334 55.0441 55.9396 54.8826 57.8657C54.8826 57.8657 54.0929 57.9041 53.6217 58.0662C51.4686 58.8073 51.2827 55.8145 49.1886 56.7065C48.0874 57.1756 48.8004 53.5229 47.9418 52.6939C47.5368 52.3028 47.2949 51.4097 47.2949 51.4097Z" fill="url(#paint4_linear_2057_629)"/>
<path d="M47.716 88.6713C48.39 88.6713 49.1203 86.9299 49.4012 86.0591L51.3392 85.8906C51.3111 86.0591 51.3055 86.531 51.5077 87.0703C51.71 87.6096 52.9402 88.4747 53.53 88.8398C62.2933 87.9129 62.7989 91.0306 63.3044 90.8621C63.81 90.6936 66.7592 90.8621 68.95 91.789C71.1408 92.7158 71.3093 92.3788 73.1631 92.2945C74.2288 92.2461 75.2133 92.3398 75.8601 92.4381C76.0563 92.4565 76.2539 92.4915 76.4493 92.5473C76.3149 92.5157 76.1134 92.4765 75.8601 92.4381C74.8718 92.3452 73.922 92.6734 73.5001 92.8844C72.9946 93.1372 71.3093 93.8113 69.1185 92.7158C68.0068 92.16 65.4672 91.7609 64.2313 91.789C66.3379 94.4854 73.0788 97.5188 74.2585 96.8447C76.7021 95.2437 79.3985 93.3899 82.9375 94.3168C85.7579 95.0555 87.0843 93.1238 87.3998 92.0539C86.8098 94.0701 85.8792 95.5794 82.1791 94.9067C79.2131 94.3674 76.674 96.2549 75.7752 97.266C76.3931 97.1536 78.3199 97.0469 81.0837 97.5188C83.8475 97.9907 87.1787 101.648 88.4988 103.417C84.0329 98.6142 80.2411 97.603 76.7864 98.0244C74.0226 98.3614 71.197 97.5469 70.1297 97.0975C71.3093 98.2771 71.3093 100.215 71.3093 100.805C71.3093 101.395 71.1408 102.912 72.489 104.85C73.9896 106.804 73.8445 108.473 73.5844 109.063C73.3148 106.973 72.5171 105.72 72.1519 105.355C71.534 104.962 70.3656 103.603 70.6352 101.311C70.9723 98.4457 68.3601 96.2549 67.7703 95.9178C67.1805 95.5808 66.0851 95.5808 64.2313 93.3899C62.3775 91.1991 61.0294 91.1149 59.5126 90.4408C58.2993 89.9015 55.8051 90.2161 54.7097 90.4408L57.069 94.064C57.6589 94.064 58.8385 94.5696 59.2598 94.8224C59.6812 95.0752 60.6923 95.9178 61.0294 97.0975C61.7034 99.8613 63.5572 101.339 64.3998 101.732C63.6977 101.788 62.0405 101.294 61.0294 98.867C60.0182 96.4402 58.4172 95.665 57.7431 95.5808C57.9959 96.1144 58.5183 97.6368 58.5858 99.4568C58.67 101.732 59.2598 104.007 61.0294 105.187C62.7989 106.366 65.2425 107.63 65.8323 109.063C66.439 112.298 68.2197 115.747 69.0342 117.068C66.5906 115.298 66.1693 112.349 65.411 109.99C65.1582 109.4 64.7369 108.473 63.81 107.883C63.1975 107.493 60.4957 105.748 59.2598 104.85C58.9228 105.776 60.608 108.641 61.0294 109.99C61.8383 113.225 60.6923 114.877 60.0182 115.298C61.4507 113.95 60.5238 110.664 60.1867 109.99C59.8497 109.315 58.2487 106.956 58.2487 105.355C58.4509 96.4571 53.4458 90.3565 50.9179 88.4185C49.5697 88.9241 51.1 96.8148 51.3392 97.7716C51.7605 99.4568 51.5077 101.957 51.3392 103.586C52.2728 104.799 53.0202 106.619 53.2772 107.377C53.3053 108.978 53.3447 112.315 53.2772 112.854C53.2098 113.596 54.9344 115.972 55.8051 117.068C55.1029 116.281 53.5469 114.489 52.9402 113.613C52.1818 112.517 52.0976 108.641 52.0133 107.63C51.9459 106.821 51.0864 105.327 50.6651 104.681C49.9629 106.142 48.3732 109.518 47.6317 111.338C46.8902 113.158 48.2777 118.163 49.0641 120.438C47.4632 119.09 46.8733 113.023 46.6205 113.192C46.3678 113.36 46.0307 114.455 45.7779 115.551C45.0359 119.326 42.8847 120.27 41.9019 120.27C44.851 118.921 44.7668 116.562 45.1881 114.877C45.997 112.248 48.053 107.658 48.9799 105.692C49.6821 104.541 50.8505 101.445 49.9068 98.2771C48.963 95.1089 48.8956 91.0587 48.9799 89.4296C45.3566 91.1149 43.3343 100.636 42.9973 102.575C42.6797 104.401 42.4074 107.63 40.8907 109.905C39.6774 111.725 40.3852 114.427 40.8907 115.551C39.5425 113.444 39.7111 112.686 39.6268 112.433C39.5425 112.18 39.6268 110.495 40.3852 109.568C40.9918 108.827 41.6491 106.001 41.9019 104.681C41.3682 105.299 39.947 106.653 38.5314 107.125C36.0035 107.714 35.4137 111.085 34.4868 113.529C33.7453 115.483 32.4926 116.59 31.959 116.899C32.5769 116.028 33.8296 114.169 33.897 113.697C33.9812 113.107 35.2452 107.63 37.436 106.872C39.6268 106.114 41.312 103.501 41.9019 101.648C42.8012 98.8212 43.3062 96.5638 43.5871 95.8335C42.9973 96.1425 41.3626 96.7436 40.8907 97.6873C39.4183 100.877 37.8343 101.564 37.0532 101.514C36.9846 101.512 36.9156 101.501 36.8462 101.479C36.9067 101.497 36.9761 101.509 37.0532 101.514C38.3177 101.547 39.4467 98.3395 40.3009 96.8447C41.312 95.0752 43.2129 94.8254 43.8399 94.064C45.0196 92.6316 45.1881 92.0418 46.3678 90.3565C41.312 89.1768 37.6888 92.8844 37.2675 93.3057C36.8462 93.727 35.1609 95.4122 32.8016 96.1706C30.9141 96.7773 30.3861 100.805 30.358 102.743C30.358 103.108 30.2858 104.26 29.8524 104.597C28.3357 105.776 27.4931 107.125 27.6616 108.894C26.7347 107.293 27.7459 105.776 28.5042 104.934C28.8693 104.625 29.5996 103.788 29.5996 102.912C29.5996 100.283 30.4984 97.7716 30.9478 96.8447C29.9086 97.4626 27.2317 98.3867 24.7124 98.1929C21.4262 97.9401 20.7521 98.1929 19.8252 98.3614C18.6456 98.5759 14.9661 101.17 13 102.49C14.4044 101.282 17.5333 98.6816 18.8141 97.9401C20.4151 97.0132 21.9318 97.1817 23.1114 97.3503C24.0552 97.4851 25.0214 97.2941 25.3865 97.1817C23.617 95.7493 22.4373 95.0752 20.9206 94.8224C19.973 94.6645 18.8141 95.2437 17.2131 95.2437C15.1309 95.1175 14.3135 93.308 14.1254 92.2478C14.1058 92.1754 14.0954 92.1063 14.0954 92.0418C14.1026 92.1064 14.1125 92.1754 14.1254 92.2478C14.3612 93.1209 15.9295 94.4918 16.7075 94.5696C17.5501 94.6539 18.6109 94.3935 20.7521 94.064C22.9429 93.727 25.555 96.6762 26.9032 96.6762C29.9367 97.0132 34.7396 93.5866 36.6776 91.789L33.6442 92.0418C32.3803 92.6878 30.358 93.5585 28.8413 93.1372C27.8267 92.8553 25.7517 92.4631 24.7124 92.5473C25.1618 92.2384 26.3134 91.789 27.5773 92.0418C28.8122 92.2887 29.4311 92.6316 30.9478 92.3788L33.2229 91.1991L37.6888 90.525C38.8965 90.0756 41.4132 89.0757 41.8176 88.6713C42.3232 88.1657 46.8733 88.6713 47.716 88.6713Z" fill="#9E5938"/>
<path d="M48.4275 77.0997L43.7734 74.7727L48.686 69.6016C50.9613 70.8426 52.9953 75.0313 53.8572 77.0997L53.3401 87.442L55.9256 89.5105H48.4275L46.1005 88.4763L48.1689 86.1492L48.4275 77.0997Z" fill="#816A59"/>
<defs>
<radialGradient id="paint0_radial_2057_629" cx="0" cy="0" r="1" gradientUnits="userSpaceOnUse" gradientTransform="translate(47.0496 52.2024) rotate(90) scale(46.1773 35.7337)">
<stop offset="0.625" stop-color="white"/>
<stop offset="1" stop-color="#FFF876" stop-opacity="0"/>
</radialGradient>
<radialGradient id="paint1_radial_2057_629" cx="0" cy="0" r="1" gradientUnits="userSpaceOnUse" gradientTransform="translate(50.5 97.5) rotate(90) scale(19.5 50.5)">
<stop offset="0.625" stop-color="white"/>
<stop offset="1" stop-color="#FFF876" stop-opacity="0"/>
</radialGradient>
<linearGradient id="paint2_linear_2057_629" x1="45.4457" y1="21.7695" x2="45.4457" y2="89.5116" gradientUnits="userSpaceOnUse">
<stop stop-color="#9AD58B"/>
<stop offset="1" stop-color="#527C22"/>
</linearGradient>
<linearGradient id="paint3_linear_2057_629" x1="49.0178" y1="21" x2="49.0178" y2="67.7082" gradientUnits="userSpaceOnUse">
<stop stop-color="#C8ECAB"/>
<stop offset="1" stop-color="#97C276"/>
</linearGradient>
<linearGradient id="paint4_linear_2057_629" x1="51.885" y1="31.7852" x2="51.885" y2="78.4934" gradientUnits="userSpaceOnUse">
<stop stop-color="#82BA75"/>
<stop offset="1" stop-color="#97C276"/>
</linearGradient>
</defs>
</svg>
