<svg width="115" height="76" viewBox="0 0 115 76" fill="none" xmlns="http://www.w3.org/2000/svg">
<ellipse cx="56.5" cy="35.5" rx="40.5" ry="35.5" fill="url(#paint0_radial_2057_628)" fill-opacity="0.8"/>
<ellipse cx="57.5" cy="56.5" rx="57.5" ry="19.5" fill="url(#paint1_radial_2057_628)" fill-opacity="0.8"/>
<path d="M40.0745 64.8362C49.9361 65.6976 60.9908 65.8182 71.0918 65.1744C81.1928 64.5307 89.6193 63.1687 94.7349 61.3528C99.8505 59.537 101.29 57.3969 98.7742 55.3481C96.2583 53.2994 89.9664 51.4882 81.1203 50.2663C72.2743 49.0444 61.5054 48.499 50.905 48.736C40.3045 48.973 30.629 49.9755 23.7573 51.5488C16.8856 53.1221 13.3082 55.154 13.7198 57.2498C14.1313 59.3455 18.5025 61.3557 25.9844 62.8899L56.8357 57.1323L40.0745 64.8362Z" fill="#51833A"/>
<path d="M52.3441 36.7674C51.2829 44.7802 52.3505 49.3097 53.9844 56.8133C60.5109 54.9475 78.2434 46.7279 75.4855 33.4715C73.3498 23.2056 73.7943 24.7357 68.8024 17.2773C64.7531 24.5764 53.1535 30.6559 52.3441 36.7674Z" fill="url(#paint2_linear_2057_628)"/>
<path d="M60.9819 37.1993C62.3707 45.1619 61.4897 49.7313 60.1648 57.2956C53.5672 55.6989 35.5127 48.2131 37.7249 34.8548C39.438 24.51 39.0566 26.057 43.7385 18.4003C48.0836 25.5272 59.9227 31.1262 60.9819 37.1993Z" fill="url(#paint3_linear_2057_628)"/>
<path d="M28.708 38.8646C28.8792 47.2124 41.7037 58.1048 50.0516 57.9336C58.3994 57.7625 58.6203 59.607 58.4491 51.2591C58.2779 42.9113 52.2237 40.953 43.8759 41.1241C28.6789 37.4466 30.106 29.1581 28.708 38.8646Z" fill="url(#paint4_linear_2057_628)"/>
<path d="M28.708 38.8646C28.8792 47.2124 41.7037 58.1048 50.0516 57.9336C58.3994 57.7625 58.6203 59.607 58.4491 51.2591C58.2779 42.9113 52.2237 40.953 43.8759 41.1241C28.6789 37.4466 30.106 29.1581 28.708 38.8646Z" fill="url(#paint5_linear_2057_628)"/>
<path d="M72.0413 39.5817C72.2125 47.9296 63.5093 43.8395 57.2857 57.4253C49.9824 40.4877 41.9821 48.5495 41.811 40.2016C41.6398 31.8537 50.212 22.186 56.455 16.9166C63.3374 20.7071 71.8701 31.2338 72.0413 39.5817Z" fill="url(#paint6_radial_2057_628)"/>
<path d="M72.1786 38.2166C73.2869 48.0228 62.6737 47.4407 59.4701 53.4475C63.1948 44.147 70.8561 48.2584 70.6849 39.9106C70.5137 31.5627 65.2799 26.2608 61.0687 19.9961C67.2418 26.0694 70.0369 29.6412 72.1786 38.2166Z" fill="#EEC1A9"/>
<path d="M84.7079 37.7964C84.8791 46.1443 72.5119 57.5532 64.164 57.7244C55.8161 57.8956 55.6711 59.7476 55.4999 51.3998C55.3287 43.0519 61.2976 40.8471 69.6454 40.6759C84.6788 36.3784 82.9132 28.1554 84.7079 37.7964Z" fill="url(#paint7_linear_2057_628)"/>
<path d="M84.7079 37.7964C84.8791 46.1443 72.5119 57.5532 64.164 57.7244C55.8161 57.8956 55.6711 59.7476 55.4999 51.3998C55.3287 43.0519 61.2976 40.8471 69.6454 40.6759C84.6788 36.3784 82.9132 28.1554 84.7079 37.7964Z" fill="url(#paint8_linear_2057_628)"/>
<path d="M74.1085 37.2969C76.0894 44.2361 66.3629 53.9941 60.5819 55.6443C54.8009 57.2945 55.1128 58.8671 53.1319 51.9279C51.1511 44.9887 57.2194 37.4008 63.0004 35.7505C77.7378 34.1519 70.7076 29.5711 74.1085 37.2969Z" fill="url(#paint9_radial_2057_628)"/>
<path d="M37.4037 39.0849C34.4292 37.6365 30.3516 34.3906 30.3516 34.3906C30.3516 34.3906 31.7945 36.0829 32.8258 37.0618C34.8728 39.0047 34.9959 39.9587 37.4502 41.3522C39.4943 42.5127 41.0806 43.5258 43.2591 44.4086C45.3727 45.2651 46.8144 45.3536 48.747 46.5643C51.3737 48.2097 52.6667 49.1751 54.1489 51.8973C54.9618 53.3902 56.2285 57.4496 56.2285 57.4496C56.2285 57.4496 56.9982 52.1934 56.379 50.0369C55.5152 47.0288 54.114 45.4425 51.56 43.6335C48.7864 41.669 46.4161 42.3159 43.194 41.2344C40.9073 40.4669 39.5723 40.1408 37.4037 39.0849Z" fill="#EAB29F" fill-opacity="0.84"/>
<path d="M39.8808 35.268C36.8844 41.299 45.0583 52.3558 50.5357 55.0773C56.0131 57.7987 55.4697 59.1937 58.4662 53.1626C61.4627 47.1316 56.5868 38.8415 51.1094 36.1201C36.7569 31.6026 44.4007 28.7995 39.8808 35.268Z" fill="url(#paint10_radial_2057_628)"/>
<path d="M41.761 31.7803C41.7459 31.8614 41.7256 31.9612 41.6961 32.0798C41.5472 32.6789 41.1686 33.7328 40.0341 35.3587C39.3148 36.8152 39.2604 38.5874 39.6846 40.4861C40.1097 42.3889 41.0122 44.4032 42.1822 46.3212C44.5255 50.1626 47.9163 53.5775 50.6147 54.9182C51.6083 55.4119 52.408 55.8639 53.0615 56.2334C53.3113 56.3746 53.5397 56.5037 53.7495 56.6185C54.1314 56.8275 54.4486 56.9875 54.7245 57.0914C55.0003 57.1953 55.2234 57.2387 55.4188 57.225C55.7946 57.1985 56.1369 56.954 56.586 56.2894C57.0339 55.6267 57.5559 54.5956 58.3071 53.0836C59.7725 50.1342 59.3205 46.6147 57.8056 43.4775C56.2932 40.3455 53.7363 37.628 51.0427 36.2853C44.2126 34.134 42.3358 32.364 41.761 31.7803Z" stroke="#C88181" stroke-opacity="0.02" stroke-width="0.3552"/>
<path d="M46.836 34.6524L41.7891 31.8828C41.7891 31.8828 44.6201 34.4999 46.8515 35.4082C47.7161 35.7601 48.2759 35.7503 49.1342 36.1174C50.6551 36.768 51.419 37.3711 52.6603 38.4646C54.5659 40.1432 55.3125 41.4585 56.5476 43.6774C57.2678 44.9712 57.8136 45.6764 58.1304 47.1229C58.5489 49.034 58.2753 50.2278 57.7792 52.1202C57.4371 53.425 56.9436 54.0541 56.4839 55.3223C56.1212 56.3229 55.6297 57.9104 55.6297 57.9104C55.6297 57.9104 57.8158 55.1139 58.5536 53.0116C59.2285 51.0882 59.5208 49.8855 59.3551 47.8539C59.2317 46.3409 58.957 45.4938 58.3707 44.0937C57.737 42.5805 57.194 41.7991 56.1802 40.5094C54.6829 38.6046 53.6622 37.5727 51.5588 36.3701C49.855 35.3961 46.836 34.6524 46.836 34.6524Z" fill="url(#paint11_linear_2057_628)"/>
<path d="M73.3056 34.7148C73.1882 34.0161 72.9692 33.0583 72.9692 33.0583C72.9692 33.0583 72.8945 34.2206 73.0126 35.1744C73.1393 36.1977 73.4566 36.8746 73.673 37.8828C73.9467 39.158 73.7159 39.9398 73.4389 41.2143C72.9565 43.4338 72.1052 44.534 70.8236 46.4092C69.1038 48.9256 67.7642 50.1146 65.3425 51.9654C62.6989 53.9858 60.0004 53.4982 57.8655 56.0503C57.3503 56.6662 56.6904 57.7378 56.6904 57.7378C56.6904 57.7378 57.7653 56.9551 58.4794 56.4913C61.2045 54.7215 63.3331 54.7646 65.9657 52.8599C68.6717 50.9022 70.0935 49.5067 71.8878 46.6898C73.122 44.7523 74.0031 43.618 74.3489 41.3468C74.5622 39.946 74.6046 39.0972 74.2745 37.7192C73.991 36.5355 73.5073 35.9151 73.3056 34.7148Z" fill="url(#paint12_linear_2057_628)"/>
<path d="M51.961 54.9751C53.915 56.7122 57.5726 58.6263 57.5726 58.6263C57.5726 58.6263 54.3436 56.136 52.5111 54.2862C50.7166 52.4749 49.8049 51.3551 48.2993 49.2974C46.7147 47.1316 45.6529 45.9621 44.6577 43.4699C44.2463 42.4397 43.8008 40.7617 43.8008 40.7617C43.8008 40.7617 43.9724 42.69 44.2977 43.8792C45.0422 46.6014 46.2464 47.8541 47.879 50.1562C49.3057 52.168 50.1177 53.3364 51.961 54.9751Z" fill="url(#paint13_linear_2057_628)"/>
<defs>
<radialGradient id="paint0_radial_2057_628" cx="0" cy="0" r="1" gradientUnits="userSpaceOnUse" gradientTransform="translate(56.5 35.5) rotate(90) scale(35.5 40.5)">
<stop offset="0.625" stop-color="white"/>
<stop offset="1" stop-color="#FFF876" stop-opacity="0"/>
</radialGradient>
<radialGradient id="paint1_radial_2057_628" cx="0" cy="0" r="1" gradientUnits="userSpaceOnUse" gradientTransform="translate(57.5 56.5) rotate(90) scale(19.5 57.5)">
<stop offset="0.625" stop-color="white"/>
<stop offset="1" stop-color="#FFF876" stop-opacity="0"/>
</radialGradient>
<linearGradient id="paint2_linear_2057_628" x1="68.7418" y1="18.9304" x2="66.8984" y2="32.2751" gradientUnits="userSpaceOnUse">
<stop stop-color="#F1B09E"/>
<stop offset="1" stop-color="#FAE6CE"/>
</linearGradient>
<linearGradient id="paint3_linear_2057_628" x1="43.8668" y1="20.0495" x2="46.2557" y2="33.3074" gradientUnits="userSpaceOnUse">
<stop stop-color="#F1B09E"/>
<stop offset="1" stop-color="#FAE6CE"/>
</linearGradient>
<linearGradient id="paint4_linear_2057_628" x1="37.8335" y1="44.6684" x2="57.2778" y2="56.3669" gradientUnits="userSpaceOnUse">
<stop stop-color="#EFB7A4"/>
<stop offset="0.942708" stop-color="#F7E7D8"/>
</linearGradient>
<linearGradient id="paint5_linear_2057_628" x1="37.8335" y1="44.6684" x2="57.2778" y2="56.3669" gradientUnits="userSpaceOnUse">
<stop stop-color="#EFB7A4"/>
<stop offset="0.942708" stop-color="#F7E7D8"/>
</linearGradient>
<radialGradient id="paint6_radial_2057_628" cx="0" cy="0" r="1" gradientUnits="userSpaceOnUse" gradientTransform="translate(56.7766 25.2269) rotate(89.0943) scale(32.2024 24.0317)">
<stop stop-color="#FADFCC"/>
<stop offset="1" stop-color="#F1BEAB"/>
</radialGradient>
<linearGradient id="paint7_linear_2057_628" x1="75.828" y1="43.9694" x2="56.8797" y2="56.4552" gradientUnits="userSpaceOnUse">
<stop stop-color="#EFB7A4"/>
<stop offset="0.942708" stop-color="#F7E7D8"/>
</linearGradient>
<linearGradient id="paint8_linear_2057_628" x1="75.828" y1="43.9694" x2="56.8797" y2="56.4552" gradientUnits="userSpaceOnUse">
<stop stop-color="#EFB7A4"/>
<stop offset="0.942708" stop-color="#F7E7D8"/>
</linearGradient>
<radialGradient id="paint9_radial_2057_628" cx="0" cy="0" r="1" gradientUnits="userSpaceOnUse" gradientTransform="translate(56.1997 54.4284) rotate(-42.1049) scale(24.6403 33.8867)">
<stop stop-color="#FCE5D0"/>
<stop offset="1" stop-color="#EFB7A4"/>
</radialGradient>
<radialGradient id="paint10_radial_2057_628" cx="0" cy="0" r="1" gradientUnits="userSpaceOnUse" gradientTransform="translate(55.0557 54.8513) rotate(-129.312) scale(24.678 32.1228)">
<stop stop-color="#FCE5D0"/>
<stop offset="1" stop-color="#EFB7A4"/>
</radialGradient>
<linearGradient id="paint11_linear_2057_628" x1="50.4178" y1="31.7059" x2="50.9571" y2="58.0063" gradientUnits="userSpaceOnUse">
<stop stop-color="#F0BFAF"/>
<stop offset="1" stop-color="#F0BFAF" stop-opacity="0"/>
</linearGradient>
<linearGradient id="paint12_linear_2057_628" x1="65.2872" y1="33.2158" x2="65.7862" y2="57.5512" gradientUnits="userSpaceOnUse">
<stop stop-color="#F4B59C"/>
<stop offset="1" stop-color="#F1C4B2" stop-opacity="0"/>
</linearGradient>
<linearGradient id="paint13_linear_2057_628" x1="51.7423" y1="41.8274" x2="49.631" y2="57.5606" gradientUnits="userSpaceOnUse">
<stop stop-color="#F1BCA9"/>
<stop offset="1" stop-color="#F1BCA9" stop-opacity="0"/>
</linearGradient>
</defs>
</svg>
