<svg width="206" height="178" viewBox="0 0 206 178" fill="none" xmlns="http://www.w3.org/2000/svg">
<g filter="url(#filter0_f_2041_690)">
<ellipse cx="54.4791" cy="8.99877" rx="54.4791" ry="8.99877" transform="matrix(-1 0 0 1 161.672 149.691)" fill="#6E8850" fill-opacity="0.6"/>
</g>
<path d="M58.9269 99.4374C82.6117 132.502 90.8909 132.234 94.0586 149.202C85.8503 129.885 75.0841 120.837 61.2252 111.018C48.7485 102.178 39.0931 77.9421 18.6635 90.1018C28.8783 82.4701 41.7483 75.4558 58.9269 99.4374Z" fill="#5F8A2D" fill-opacity="0.6"/>
<path d="M55.283 90.0934C60.5042 123.424 73.5885 137.375 81.6373 148.877C75.2243 132.914 70.6627 124.529 69.2266 110.479C67.5527 94.1038 55.1941 51.9768 31.4116 38.5847C42.5947 47.8771 51.4961 65.9187 55.283 90.0934Z" fill="#5F8A2D"/>
<path d="M151.072 94.9528C145.851 128.283 132.767 142.234 124.718 153.736C131.131 137.773 135.693 129.388 137.129 115.338C138.803 98.9632 151.161 56.8362 174.944 43.4441C163.761 52.7365 154.859 70.7781 151.072 94.9528Z" fill="#5F8A2D"/>
<path d="M142.014 105.142C129.41 136.437 113.516 147.077 103.08 156.467C112.929 142.362 119.264 135.221 123.832 121.858C129.156 106.282 150.699 68.0281 176.889 60.3454C163.898 66.8759 151.157 82.4449 142.014 105.142Z" fill="#75A142"/>
<path d="M77.1839 110.383C104.26 127.753 112.788 144.866 120.524 156.501C108.563 144.649 102.587 137.346 90.9776 130.715C77.446 122.986 44.7068 95.8304 39.408 69.2693C44.4534 82.8962 57.5459 97.7846 77.1839 110.383Z" fill="#5F8A2D"/>
<circle cx="60.8025" cy="60.8025" r="60.8025" transform="matrix(-0.989592 0.143904 0.143904 0.989592 161.402 31.9648)" fill="white" fill-opacity="0.8"/>
<rect width="47.1828" height="10.7012" transform="matrix(-0.989592 0.143904 0.143904 0.989592 123.848 33.9883)" fill="#D7EEE9"/>
<path d="M71.7393 43.9254C95.6266 47.7374 113.726 43.2775 129.856 35.6731C130.252 35.4863 130.601 35.1988 130.75 34.787C132.114 31.0191 130.761 18.3398 127.943 18.0606C119.249 17.1991 68.6524 25.1567 68.2577 26.7398C66.8606 32.343 69.2681 43.531 71.7393 43.9254Z" fill="#D7EEE9"/>
<path d="M119.553 34.8587C121.591 32.293 123.19 19.328 123.684 12.0638C123.765 10.8705 122.949 9.81121 121.763 9.6567C107.842 7.84307 79.0248 12.4987 71.9434 18.4356C70.8574 19.3462 81.8028 39.806 84.7595 40.6556C92.7106 42.9401 116.021 39.3045 119.553 34.8587Z" fill="url(#paint0_linear_2041_690)"/>
<ellipse cx="26.0235" cy="5.35062" rx="26.0235" ry="5.35062" transform="matrix(-0.989592 0.143904 0.143904 0.989592 122.605 5.16797)" fill="#8C6E59"/>
<ellipse cx="54.2359" cy="12.1605" rx="54.2359" ry="12.1605" transform="matrix(-1 0 0 1 164.598 91.8047)" fill="#EBAF56"/>
<path d="M75.8125 151.148C75.2849 148.322 75.1215 146.729 75.1062 145.885C75.6079 145.436 75.0765 144.243 75.1062 145.885C74.8573 146.108 74.354 146.148 73.4017 145.567C70.2967 138.606 70.2443 140.033 67.3743 139.659C65.1919 137.079 62.4248 133.514 58.9216 128.623C41.743 104.642 30.8186 106.63 17.1988 105.91C38.8446 107.055 46.4449 126.743 58.9216 135.583C63.2953 138.681 65.7732 139.451 67.3743 139.659C70.3315 143.156 72.2151 144.843 73.4017 145.567C74.0529 147.027 74.8385 148.856 75.8125 151.148Z" fill="#5F8A2D" fill-opacity="0.6"/>
<path d="M51.5448 111.899C69.0891 136.461 77.6262 152.067 79.9727 164.672C73.8924 150.322 63.744 143.875 55.8949 134.027C46.7464 122.549 27.9903 87.6975 33.8112 63.4961C32.9291 76.7733 38.8199 94.084 51.5448 111.899Z" fill="url(#paint1_linear_2041_690)"/>
<path fill-rule="evenodd" clip-rule="evenodd" d="M56.6307 104.3C58.4169 110.654 81.9676 115.684 110.758 115.684C139.558 115.684 163.116 110.65 164.887 104.293C163.11 132.642 139.555 155.084 110.758 155.084C81.9643 155.084 58.411 132.645 56.6307 104.3Z" fill="#EFCB85"/>
<g filter="url(#filter1_f_2041_690)">
<circle cx="109.031" cy="89.1642" r="38.3322" fill="url(#paint2_radial_2041_690)"/>
</g>
<g filter="url(#filter2_f_2041_690)">
<path d="M96.8089 104.944C98.3422 106.626 98.9172 107.428 102.175 113.544C102.175 123.102 107.542 124.44 111.95 123.866C118.85 122.91 118.275 114.882 118.658 113.736C119.042 112.59 120.192 110.104 124.216 104.944C136.483 90.0352 131.5 77.2272 126.708 72.067C118.275 62.3187 101.792 62.701 94.3173 72.067C81.8593 87.1674 94.8923 102.841 96.8089 104.944Z" fill="#FFCE84"/>
</g>
<path d="M97.1274 104.484C98.5853 106.087 99.132 106.852 102.23 112.683C102.23 121.795 107.333 123.071 111.524 122.524C118.084 121.613 117.538 113.959 117.902 112.866C118.267 111.774 119.36 109.403 123.187 104.484C134.85 90.2699 130.112 78.0588 125.556 73.1392C117.538 63.8452 101.866 64.2097 94.7583 73.1392C82.9131 87.5357 95.305 102.479 97.1274 104.484Z" fill="url(#paint3_radial_2041_690)"/>
<path d="M118.455 112.328C118.455 115.102 117.932 117.95 116.363 119.912C114.793 121.873 112.306 122.788 110.087 122.788C107.867 122.788 105.38 121.873 103.811 119.912C102.241 117.95 101.719 115.102 101.719 112.328L110.087 112.328H118.455Z" fill="#AFAFAF"/>
<rect x="102.344" y="116.242" width="15.4736" height="4.9234" rx="2.4617" fill="#AFAFAF"/>
<rect x="102.344" y="112.023" width="15.4736" height="4.22006" rx="2.11003" fill="#F0F0F0"/>
<rect x="103.754" y="112.023" width="14.0669" height="4.22006" rx="2.11003" fill="#BCBCBC"/>
<rect x="109.383" y="112.023" width="8.44012" height="4.22006" rx="2.11003" fill="#F8F4EA"/>
<rect width="15.4736" height="4.9234" rx="2.4617" transform="matrix(1 0 0 -1 102.344 125.387)" fill="#AFAFAF"/>
<rect width="10.5501" height="9.14346" rx="4.57173" transform="matrix(1 0 0 -1 105.16 128.199)" fill="#AFAFAF"/>
<rect x="103.051" y="116.945" width="14.0669" height="3.51672" rx="1.75836" fill="#F0F0F0"/>
<rect x="104.457" y="116.945" width="12.6602" height="3.51672" rx="1.75836" fill="#BCBCBC"/>
<rect x="109.383" y="116.945" width="7.73678" height="3.51672" rx="1.75836" fill="#F8F4EA"/>
<rect x="103.051" y="121.168" width="14.0669" height="3.51672" rx="1.75836" fill="#F0F0F0"/>
<rect x="104.457" y="121.168" width="12.6602" height="3.51672" rx="1.75836" fill="#BCBCBC"/>
<rect x="109.383" y="121.168" width="7.73678" height="3.51672" rx="1.75836" fill="#F8F4EA"/>
<path d="M108.19 126.525C107.606 125.356 108.456 123.98 109.763 123.98H111.106C112.413 123.98 113.264 125.356 112.679 126.525C112.381 127.121 111.772 127.497 111.106 127.497H109.763C109.097 127.497 108.488 127.121 108.19 126.525Z" fill="#D8D8D8"/>
<rect x="101.645" y="112.023" width="16.8802" height="1.40669" rx="0.703343" fill="#FFFBE5"/>
<rect x="102.344" y="116.242" width="15.4736" height="1.40669" rx="0.703343" fill="#FFFBE5"/>
<rect x="102.344" y="120.465" width="15.4736" height="1.40669" rx="0.703343" fill="#FFFBE5"/>
<rect x="104.457" y="124.684" width="11.2535" height="1.40669" rx="0.703343" fill="#FFFBE5"/>
<path d="M102.055 122.451C56.5749 122.451 62.2185 79.403 74.3302 60.6758C35.903 114.182 91.8414 156.837 91.8413 141.178C91.8413 130.72 115.449 122.451 102.055 122.451Z" fill="url(#paint4_linear_2041_690)"/>
<path fill-rule="evenodd" clip-rule="evenodd" d="M62.2508 124.405C70.1199 122.94 82.8652 122.225 86.277 126.612C89.4064 130.636 96.188 130.915 104.44 131.256C109.656 131.471 115.459 131.711 121.299 132.935C129.325 134.618 138.19 139.875 143.297 144.208C134.276 150.902 123.105 154.862 111.009 154.862C89.5854 154.862 71.0626 142.44 62.2508 124.405Z" fill="url(#paint5_linear_2041_690)"/>
<circle cx="2.18865" cy="2.18865" r="2.18865" transform="matrix(-0.988188 0.153245 0.153245 0.988188 139.691 128.465)" fill="#DAF1CF"/>
<circle cx="8.26915" cy="8.26915" r="8.26915" transform="matrix(-0.988188 0.153245 0.153245 0.988188 132.996 126.559)" fill="#DBF0D1" fill-opacity="0.8"/>
<circle cx="5.35062" cy="5.35062" r="5.35062" transform="matrix(-0.988188 0.153245 0.153245 0.988188 82.1094 65.0391)" fill="#F8E08D"/>
<circle cx="2.18865" cy="2.18865" r="2.18865" transform="matrix(-0.988188 0.153245 0.153245 0.988188 89.6094 59.4492)" fill="#F8E08D"/>
<circle cx="4.37778" cy="4.37778" r="4.37778" transform="matrix(-0.988188 0.153245 0.153245 0.988188 92.0664 132.41)" fill="#C2DDB5"/>
<defs>
<filter id="filter0_f_2041_690" x="42.9864" y="139.963" width="128.414" height="37.4529" filterUnits="userSpaceOnUse" color-interpolation-filters="sRGB">
<feFlood flood-opacity="0" result="BackgroundImageFix"/>
<feBlend mode="normal" in="SourceGraphic" in2="BackgroundImageFix" result="shape"/>
<feGaussianBlur stdDeviation="4.8642" result="effect1_foregroundBlur_2041_690"/>
</filter>
<filter id="filter1_f_2041_690" x="56.6324" y="36.7652" width="104.798" height="104.798" filterUnits="userSpaceOnUse" color-interpolation-filters="sRGB">
<feFlood flood-opacity="0" result="BackgroundImageFix"/>
<feBlend mode="normal" in="SourceGraphic" in2="BackgroundImageFix" result="shape"/>
<feGaussianBlur stdDeviation="7.03343" result="effect1_foregroundBlur_2041_690"/>
</filter>
<filter id="filter2_f_2041_690" x="86.1749" y="62.0851" width="48.5291" height="64.7088" filterUnits="userSpaceOnUse" color-interpolation-filters="sRGB">
<feFlood flood-opacity="0" result="BackgroundImageFix"/>
<feBlend mode="normal" in="SourceGraphic" in2="BackgroundImageFix" result="shape"/>
<feGaussianBlur stdDeviation="1.40669" result="effect1_foregroundBlur_2041_690"/>
</filter>
<linearGradient id="paint0_linear_2041_690" x1="97.2819" y1="10.6615" x2="101.153" y2="37.2794" gradientUnits="userSpaceOnUse">
<stop offset="0.5499" stop-color="#695546"/>
<stop offset="0.708063" stop-color="#B69E7D"/>
</linearGradient>
<linearGradient id="paint1_linear_2041_690" x1="56.1381" y1="91.4653" x2="56.3423" y2="164.671" gradientUnits="userSpaceOnUse">
<stop stop-color="#57872F"/>
<stop offset="1" stop-color="#5A7639"/>
</linearGradient>
<radialGradient id="paint2_radial_2041_690" cx="0" cy="0" r="1" gradientUnits="userSpaceOnUse" gradientTransform="translate(109.031 89.1642) rotate(90) scale(38.3322)">
<stop offset="0.625" stop-color="white"/>
<stop offset="1" stop-color="#FFF876" stop-opacity="0"/>
</radialGradient>
<radialGradient id="paint3_radial_2041_690" cx="0" cy="0" r="1" gradientUnits="userSpaceOnUse" gradientTransform="translate(110.088 94.4683) rotate(92.8654) scale(28.139 20.3791)">
<stop offset="0.38" stop-color="white"/>
<stop offset="0.61" stop-color="#FFF5C0"/>
<stop offset="0.895" stop-color="#FFF96C"/>
<stop offset="1" stop-color="#FFEC89"/>
</radialGradient>
<linearGradient id="paint4_linear_2041_690" x1="83.5087" y1="60.6758" x2="83.5087" y2="144.457" gradientUnits="userSpaceOnUse">
<stop stop-color="white"/>
<stop offset="1" stop-color="white" stop-opacity="0"/>
</linearGradient>
<linearGradient id="paint5_linear_2041_690" x1="103.895" y1="116.75" x2="103.895" y2="154.862" gradientUnits="userSpaceOnUse">
<stop stop-color="#81B148" stop-opacity="0.56"/>
<stop offset="1" stop-color="#81B148"/>
</linearGradient>
</defs>
</svg>
