<svg width="235" height="236" viewBox="0 0 235 236" fill="none" xmlns="http://www.w3.org/2000/svg">
<g filter="url(#filter0_f_2455_6637)">
<circle cx="117.5" cy="118.453" r="67.5" fill="#F2C9C0"/>
</g>
<g filter="url(#filter1_f_2455_6637)">
<ellipse cx="121.197" cy="169.497" rx="39.9706" ry="6.60228" fill="#F4C7BD"/>
</g>
<path d="M109.329 133.963C115.935 134.54 123.34 134.621 130.106 134.19C136.872 133.759 142.516 132.846 145.942 131.63C149.369 130.414 150.333 128.98 148.648 127.608C146.963 126.235 142.748 125.022 136.823 124.204C130.898 123.385 123.684 123.02 116.584 123.179C109.483 123.337 103.002 124.009 98.3995 125.063C93.7967 126.117 91.4004 127.478 91.6761 128.881C91.9518 130.285 94.8797 131.632 99.8913 132.659L120.556 128.803L109.329 133.963Z" fill="#51833A"/>
<ellipse cx="121.041" cy="126.138" rx="44.61" ry="44.61" transform="rotate(-28.5247 121.041 126.138)" fill="#F0FFFC" fill-opacity="0.8"/>
<rect x="83.5" y="92.9336" width="34.6174" height="7.85136" transform="rotate(-28.5247 83.5 92.9336)" fill="#F0F4EF"/>
<path d="M118.481 75.8676C106.116 88.6115 93.5168 93.9446 80.6919 96.5644C80.3895 96.6262 80.0723 96.6116 79.8133 96.4438C77.3611 94.8556 72.5579 86.7784 74.0941 85.3727C78.8231 81.0458 112.046 63.4845 112.974 64.2411C116.257 66.9189 119.759 74.5499 118.481 75.8676Z" fill="#D7EEE9"/>
<path d="M86.4044 91.5562C84.0706 90.9422 77.3917 83.9779 73.9202 79.9337C73.3711 79.294 73.3842 78.3528 73.987 77.7635C81.3377 70.5766 100.375 60.6076 107.157 60.9842C108.195 61.0419 110.757 77.8723 109.393 79.6708C105.726 84.5073 90.433 92.6161 86.4044 91.5562Z" fill="url(#paint0_linear_2455_6637)"/>
<ellipse cx="90.2126" cy="69.7885" rx="19.0931" ry="3.92568" transform="rotate(-28.5247 90.2126 69.7885)" fill="#8C6E59"/>
<path d="M103.217 62.3153C103.279 62.4302 103.29 62.5953 103.209 62.8307C103.129 63.0656 102.965 63.3486 102.715 63.6747C102.215 64.3259 101.398 65.1167 100.32 65.9957C98.1657 67.7518 94.9963 69.8376 91.3227 71.8342C87.6492 73.8309 84.175 75.3559 81.5296 76.2086C80.2055 76.6353 79.0974 76.8909 78.2793 76.9557C77.8697 76.9882 77.543 76.972 77.3022 76.9115C77.061 76.851 76.928 76.7524 76.8656 76.6375C76.8031 76.5226 76.7927 76.3575 76.8732 76.1221C76.9534 75.8872 77.1175 75.6042 77.3675 75.2781C77.8669 74.6269 78.6841 73.8361 79.7624 72.9571C81.9167 71.201 85.0861 69.1152 88.7597 67.1186C92.4332 65.1219 95.9074 63.5969 98.5528 62.7442C99.8769 62.3175 100.985 62.0619 101.803 61.9971C102.213 61.9646 102.539 61.9809 102.78 62.0413C103.021 62.1018 103.154 62.2004 103.217 62.3153Z" stroke="#695546" stroke-width="0.342872"/>
<path d="M99.45 64.3555C99.4097 64.2813 99.3231 64.2115 99.1549 64.1654C98.9864 64.1191 98.7554 64.1025 98.4618 64.1209C97.8756 64.1576 97.0802 64.3309 96.1277 64.6293C94.2255 65.2253 91.7306 66.3091 89.0964 67.7408C86.4622 69.1725 84.1958 70.6766 82.661 71.9487C81.8925 72.5856 81.3145 73.1587 80.9648 73.6307C80.7897 73.8671 80.678 74.07 80.6252 74.2365C80.5724 74.4028 80.5839 74.5134 80.6242 74.5876C80.6645 74.6617 80.7511 74.7315 80.9193 74.7777C81.0877 74.8239 81.3188 74.8405 81.6124 74.8222C82.1986 74.7855 82.9939 74.6121 83.9464 74.3137C85.8487 73.7178 88.3436 72.634 90.9778 71.2022C93.612 69.7705 95.8784 68.2664 97.4132 66.9943C98.1817 66.3574 98.7597 65.7843 99.1094 65.3123C99.2845 65.0759 99.3962 64.873 99.449 64.7065C99.5018 64.5402 99.4903 64.4296 99.45 64.3555Z" stroke="#695546" stroke-width="0.342872"/>
<path d="M85.9961 96.0391C90.9015 94.9055 103.601 90.1486 115.157 80.1897" stroke="#A4D2C8" stroke-opacity="0.5" stroke-width="1.71436"/>
<path d="M78.2969 85.6055C83.6606 84.2228 97.6291 78.7763 110.593 68.0518" stroke="#BDE0D8" stroke-width="1.71436"/>
<path d="M78.3203 86.4062C83.7757 84.9738 97.998 79.3894 111.244 68.5118" stroke="#D7EEE9" stroke-width="1.71436"/>
<ellipse cx="121.015" cy="129.344" rx="39.7921" ry="8.922" fill="#629E32" fill-opacity="0.7"/>
<path fill-rule="evenodd" clip-rule="evenodd" d="M160.644 129.912C159.337 134.574 142.057 138.265 120.932 138.265C99.8045 138.265 82.5227 134.574 81.2188 129.91C82.5242 150.707 99.8053 167.171 120.932 167.171C142.057 167.171 159.338 150.708 160.644 129.912Z" fill="#9DC57C" fill-opacity="0.7"/>
<path fill-rule="evenodd" clip-rule="evenodd" d="M83.3587 140.516C88.0019 139.126 100.91 137.609 104.002 141.425C120.492 161.782 126.131 157.269 131.5 152.972C134.051 150.93 136.54 148.937 140.104 149.685C146.315 150.987 148.087 153.425 148.652 155.626C141.48 162.631 131.67 166.948 120.852 166.948C103.563 166.948 88.8484 155.921 83.3587 140.516Z" fill="url(#paint1_linear_2455_6637)"/>
<path d="M109.333 133.967C115.939 134.544 123.343 134.625 130.109 134.194C136.875 133.762 142.52 132.85 145.946 131.634C149.373 130.417 150.337 128.984 148.652 127.612C146.967 126.239 142.752 125.026 136.827 124.208C130.902 123.389 123.688 123.024 116.588 123.183C109.487 123.341 103.006 124.013 98.4034 125.067C93.8006 126.121 91.4043 127.482 91.68 128.885C91.9557 130.289 94.8836 131.636 99.8952 132.663L120.56 128.807L109.333 133.967Z" fill="#51833A"/>
<path d="M117.537 115.156C116.826 120.523 117.541 123.557 118.636 128.583C123.008 127.334 134.885 121.828 133.038 112.948C131.607 106.072 131.905 107.097 128.561 102.101C125.849 106.99 118.079 111.062 117.537 115.156Z" fill="url(#paint2_linear_2455_6637)"/>
<path d="M123.322 115.445C124.252 120.779 123.662 123.84 122.775 128.907C118.355 127.837 106.262 122.823 107.744 113.875C108.891 106.946 108.636 107.982 111.772 102.853C114.682 107.627 122.613 111.377 123.322 115.445Z" fill="url(#paint3_linear_2455_6637)"/>
<path d="M101.702 116.563C101.817 122.154 110.407 129.45 115.999 129.336C121.59 129.221 121.738 130.457 121.623 124.865C121.509 119.273 117.454 117.962 111.862 118.076C101.683 115.613 102.638 110.061 101.702 116.563Z" fill="url(#paint4_linear_2455_6637)"/>
<path d="M101.702 116.563C101.817 122.154 110.407 129.45 115.999 129.336C121.59 129.221 121.738 130.457 121.623 124.865C121.509 119.273 117.454 117.962 111.862 118.076C101.683 115.613 102.638 110.061 101.702 116.563Z" fill="url(#paint5_linear_2455_6637)"/>
<path d="M130.729 117.041C130.843 122.632 125.014 119.893 120.845 128.993C115.953 117.647 110.594 123.047 110.48 117.456C110.365 111.864 116.107 105.388 120.289 101.859C124.899 104.398 130.614 111.449 130.729 117.041Z" fill="url(#paint6_radial_2455_6637)"/>
<path d="M130.823 116.126C131.565 122.695 124.456 122.305 122.31 126.328C124.805 120.099 129.937 122.853 129.822 117.261C129.708 111.669 126.202 108.118 123.381 103.922C127.516 107.99 129.388 110.382 130.823 116.126Z" fill="#EEC1A9"/>
<path d="M139.211 115.847C139.326 121.438 131.042 129.08 125.45 129.195C119.859 129.31 119.762 130.55 119.647 124.959C119.532 119.367 123.53 117.89 129.122 117.775C139.192 114.897 138.009 109.389 139.211 115.847Z" fill="url(#paint7_linear_2455_6637)"/>
<path d="M139.211 115.847C139.326 121.438 131.042 129.08 125.45 129.195C119.859 129.31 119.762 130.55 119.647 124.959C119.532 119.367 123.53 117.89 129.122 117.775C139.192 114.897 138.009 109.389 139.211 115.847Z" fill="url(#paint8_linear_2455_6637)"/>
<path d="M132.116 115.514C133.443 120.162 126.928 126.698 123.055 127.803C119.183 128.909 119.392 129.962 118.065 125.314C116.738 120.666 120.803 115.583 124.675 114.478C134.547 113.407 129.838 110.339 132.116 115.514Z" fill="url(#paint9_radial_2455_6637)"/>
<path d="M107.528 116.715C105.536 115.745 102.805 113.57 102.805 113.57C102.805 113.57 103.771 114.704 104.462 115.36C105.833 116.661 105.916 117.3 107.56 118.233C108.929 119.011 109.991 119.689 111.451 120.281C112.866 120.854 113.832 120.914 115.126 121.725C116.886 122.827 117.752 123.473 118.745 125.297C119.289 126.297 120.138 129.016 120.138 129.016C120.138 129.016 120.653 125.495 120.239 124.051C119.66 122.036 118.721 120.973 117.011 119.761C115.153 118.446 113.565 118.879 111.407 118.154C109.875 117.64 108.981 117.422 107.528 116.715Z" fill="#EAB29F" fill-opacity="0.84"/>
<path d="M109.185 114.151C107.178 118.191 112.653 125.597 116.322 127.42C119.991 129.243 119.627 130.177 121.634 126.137C123.641 122.097 120.375 116.544 116.706 114.722C107.092 111.696 112.212 109.818 109.185 114.151Z" fill="url(#paint10_radial_2455_6637)"/>
<path d="M110.444 111.815C110.434 111.869 110.42 111.936 110.401 112.015C110.301 112.417 110.047 113.123 109.287 114.212C108.806 115.187 108.769 116.374 109.053 117.646C109.338 118.921 109.943 120.27 110.726 121.555C112.296 124.128 114.567 126.415 116.375 127.313C117.04 127.644 117.576 127.947 118.014 128.194C118.181 128.289 118.334 128.375 118.474 128.452C118.73 128.592 118.943 128.699 119.127 128.769C119.312 128.838 119.462 128.867 119.593 128.858C119.844 128.841 120.074 128.677 120.374 128.232C120.674 127.788 121.024 127.097 121.527 126.084C122.509 124.109 122.206 121.751 121.191 119.65C120.178 117.552 118.466 115.732 116.661 114.832C112.086 113.391 110.829 112.206 110.444 111.815Z" stroke="#C88181" stroke-opacity="0.02" stroke-width="0.237923"/>
<path d="M113.845 113.738L110.465 111.883C110.465 111.883 112.361 113.636 113.856 114.244C114.435 114.48 114.81 114.473 115.385 114.719C116.404 115.155 116.915 115.559 117.747 116.291C119.023 117.416 119.523 118.297 120.351 119.783C120.833 120.65 121.199 121.122 121.411 122.091C121.691 123.371 121.508 124.171 121.176 125.438C120.946 126.312 120.616 126.734 120.308 127.583C120.065 128.254 119.736 129.317 119.736 129.317C119.736 129.317 121.2 127.444 121.694 126.035C122.146 124.747 122.342 123.942 122.231 122.581C122.148 121.567 121.964 121 121.572 120.062C121.147 119.048 120.783 118.525 120.104 117.661C119.102 116.385 118.418 115.694 117.009 114.889C115.868 114.236 113.845 113.738 113.845 113.738Z" fill="url(#paint11_linear_2455_6637)"/>
<path d="M131.577 113.785C131.498 113.317 131.352 112.676 131.352 112.676C131.352 112.676 131.302 113.454 131.381 114.093C131.466 114.779 131.678 115.232 131.823 115.907C132.006 116.762 131.852 117.285 131.666 118.139C131.343 119.626 130.773 120.363 129.914 121.619C128.762 123.304 127.865 124.101 126.243 125.34C124.472 126.694 122.665 126.367 121.235 128.077C120.89 128.489 120.448 129.207 120.448 129.207C120.448 129.207 121.168 128.683 121.646 128.372C123.471 127.186 124.897 127.215 126.66 125.939C128.473 124.628 129.425 123.693 130.627 121.807C131.454 120.509 132.044 119.749 132.276 118.228C132.419 117.289 132.447 116.721 132.226 115.798C132.036 115.005 131.712 114.589 131.577 113.785Z" fill="url(#paint12_linear_2455_6637)"/>
<path d="M117.278 127.353C118.587 128.516 121.037 129.798 121.037 129.798C121.037 129.798 118.874 128.13 117.647 126.891C116.445 125.678 115.834 124.928 114.826 123.549C113.764 122.099 113.053 121.315 112.386 119.646C112.111 118.956 111.812 117.832 111.812 117.832C111.812 117.832 111.927 119.124 112.145 119.92C112.644 121.744 113.451 122.583 114.544 124.125C115.5 125.472 116.044 126.255 117.278 127.353Z" fill="url(#paint13_linear_2455_6637)"/>
<path d="M127.264 143.082C160.632 143.082 156.491 111.498 147.605 97.7578C175.799 137.015 134.757 168.31 134.757 156.821C134.757 149.149 117.437 143.082 127.264 143.082Z" fill="url(#paint14_linear_2455_6637)"/>
<circle cx="104.961" cy="151.645" r="1.60578" fill="#F9DCC9" fill-opacity="0.8"/>
<circle cx="114.059" cy="153.965" r="6.06696" fill="#F9DCC9" fill-opacity="0.8"/>
<circle cx="138.328" cy="101.508" r="3.92568" fill="#BDE0D8"/>
<circle cx="129.938" cy="95.9769" r="1.60578" fill="#BDE0D8"/>
<circle cx="141.536" cy="150.755" r="3.21192" fill="#F9DCC9" fill-opacity="0.8"/>
<defs>
<filter id="filter0_f_2455_6637" x="0" y="0.953125" width="235" height="235" filterUnits="userSpaceOnUse" color-interpolation-filters="sRGB">
<feFlood flood-opacity="0" result="BackgroundImageFix"/>
<feBlend mode="normal" in="SourceGraphic" in2="BackgroundImageFix" result="shape"/>
<feGaussianBlur stdDeviation="25" result="effect1_foregroundBlur_2455_6637"/>
</filter>
<filter id="filter1_f_2455_6637" x="74.089" y="155.757" width="94.2166" height="27.4783" filterUnits="userSpaceOnUse" color-interpolation-filters="sRGB">
<feFlood flood-opacity="0" result="BackgroundImageFix"/>
<feBlend mode="normal" in="SourceGraphic" in2="BackgroundImageFix" result="shape"/>
<feGaussianBlur stdDeviation="3.5688" result="effect1_foregroundBlur_2455_6637"/>
</filter>
<linearGradient id="paint0_linear_2455_6637" x1="88.8543" y1="67.5527" x2="98.2784" y2="84.8918" gradientUnits="userSpaceOnUse">
<stop offset="0.5499" stop-color="#695546"/>
<stop offset="0.708063" stop-color="#B69E7D"/>
</linearGradient>
<linearGradient id="paint1_linear_2455_6637" x1="116.006" y1="139.012" x2="116.006" y2="166.948" gradientUnits="userSpaceOnUse">
<stop stop-color="#81B148" stop-opacity="0.56"/>
<stop offset="1" stop-color="#81B148"/>
</linearGradient>
<linearGradient id="paint2_linear_2455_6637" x1="128.521" y1="103.208" x2="127.286" y2="112.147" gradientUnits="userSpaceOnUse">
<stop stop-color="#F1B09E"/>
<stop offset="1" stop-color="#FAE6CE"/>
</linearGradient>
<linearGradient id="paint3_linear_2455_6637" x1="111.858" y1="103.958" x2="113.458" y2="112.839" gradientUnits="userSpaceOnUse">
<stop stop-color="#F1B09E"/>
<stop offset="1" stop-color="#FAE6CE"/>
</linearGradient>
<linearGradient id="paint4_linear_2455_6637" x1="107.815" y1="120.45" x2="120.839" y2="128.286" gradientUnits="userSpaceOnUse">
<stop stop-color="#EFB7A4"/>
<stop offset="0.942708" stop-color="#F7E7D8"/>
</linearGradient>
<linearGradient id="paint5_linear_2455_6637" x1="107.815" y1="120.45" x2="120.839" y2="128.286" gradientUnits="userSpaceOnUse">
<stop stop-color="#EFB7A4"/>
<stop offset="0.942708" stop-color="#F7E7D8"/>
</linearGradient>
<radialGradient id="paint6_radial_2455_6637" cx="0" cy="0" r="1" gradientUnits="userSpaceOnUse" gradientTransform="translate(120.504 107.425) rotate(89.0943) scale(21.5701 16.0971)">
<stop stop-color="#FADFCC"/>
<stop offset="1" stop-color="#F1BEAB"/>
</radialGradient>
<linearGradient id="paint7_linear_2455_6637" x1="133.263" y1="119.982" x2="120.571" y2="128.345" gradientUnits="userSpaceOnUse">
<stop stop-color="#EFB7A4"/>
<stop offset="0.942708" stop-color="#F7E7D8"/>
</linearGradient>
<linearGradient id="paint8_linear_2455_6637" x1="133.263" y1="119.982" x2="120.571" y2="128.345" gradientUnits="userSpaceOnUse">
<stop stop-color="#EFB7A4"/>
<stop offset="0.942708" stop-color="#F7E7D8"/>
</linearGradient>
<radialGradient id="paint9_radial_2455_6637" cx="0" cy="0" r="1" gradientUnits="userSpaceOnUse" gradientTransform="translate(120.12 126.989) rotate(-42.1049) scale(16.5048 22.6983)">
<stop stop-color="#FCE5D0"/>
<stop offset="1" stop-color="#EFB7A4"/>
</radialGradient>
<radialGradient id="paint10_radial_2455_6637" cx="0" cy="0" r="1" gradientUnits="userSpaceOnUse" gradientTransform="translate(119.349 127.268) rotate(-129.312) scale(16.5301 21.5168)">
<stop stop-color="#FCE5D0"/>
<stop offset="1" stop-color="#EFB7A4"/>
</radialGradient>
<linearGradient id="paint11_linear_2455_6637" x1="116.245" y1="111.764" x2="116.606" y2="129.381" gradientUnits="userSpaceOnUse">
<stop stop-color="#F0BFAF"/>
<stop offset="1" stop-color="#F0BFAF" stop-opacity="0"/>
</linearGradient>
<linearGradient id="paint12_linear_2455_6637" x1="126.206" y1="112.781" x2="126.54" y2="129.082" gradientUnits="userSpaceOnUse">
<stop stop-color="#F4B59C"/>
<stop offset="1" stop-color="#F1C4B2" stop-opacity="0"/>
</linearGradient>
<linearGradient id="paint13_linear_2455_6637" x1="117.132" y1="118.546" x2="115.718" y2="129.084" gradientUnits="userSpaceOnUse">
<stop stop-color="#F1BCA9"/>
<stop offset="1" stop-color="#F1BCA9" stop-opacity="0"/>
</linearGradient>
<linearGradient id="paint14_linear_2455_6637" x1="140.871" y1="97.7578" x2="140.871" y2="159.227" gradientUnits="userSpaceOnUse">
<stop stop-color="white"/>
<stop offset="1" stop-color="white" stop-opacity="0"/>
</linearGradient>
</defs>
</svg>
