<svg width="128" height="148" viewBox="0 0 128 148" fill="none" xmlns="http://www.w3.org/2000/svg">
<path d="M102.998 85.5C43.1069 104.5 210 141.5 70.9981 141.5C-117.999 168.5 146.5 97.5 27.4981 97.5C27.4981 67.9528 32.804 0 56 0C79.196 0 78 29.5 102.998 85.5Z" fill="url(#paint0_radial_2057_629)" fill-opacity="0.8"/>
<ellipse cx="73.5" cy="121.5" rx="50.5" ry="19.5" fill="url(#paint1_radial_2057_629)" fill-opacity="0.4"/>
<path d="M59.5023 97.6822C60.6197 96.9372 61.2095 96.9062 61.3647 96.9838L62.297 98.8462H66.72L71.6086 101.174L71.1431 110.253L69.0479 112.58L71.6086 113.512H79.0579L76.2645 111.416C76.4972 108.623 76.9628 102.664 76.9628 101.174C76.9628 99.6838 73.3934 95.2766 71.6086 93.2592L73.7038 91.6293L75.3333 94.4228C76.2645 94.8109 78.6389 95.4008 80.6875 94.6555C82.736 93.9103 81.2307 91.0859 80.2219 89.7669H82.7826L83.9465 91.6293H86.5072L90.2319 91.1637H92.5598L92.7926 89.7669C94.8411 91.4427 96.2844 90.6204 96.75 89.9997L95.5861 86.7407C95.9741 85.8097 96.75 83.7147 96.75 82.7832C96.9363 79.9897 94.0341 79.757 92.5598 79.9897C92.2494 79.4466 91.8149 77.9412 92.5598 76.2651C93.8634 73.4716 91.2406 73.0836 89.7663 73.2388L86.9728 71.3765H83.9465L83.2482 69.0486L81.8514 68.583C82.7826 68.2726 84.738 67.1863 85.1105 65.3239C85.483 63.4615 82.0066 62.5304 80.2219 62.2977L79.5235 60.6681H77.4284L76.9628 59.2714L75.1005 58.3402L76.9628 57.4091C77.1956 57.4091 78.0337 56.897 79.5235 54.8489C81.0134 52.8008 78.4372 51.3569 76.9628 50.8909C79.1976 50.146 77.894 47.1663 76.9628 45.7695L75.1005 46.9335L73.2382 45.7695L70.4447 46.9335H68.5824L66.72 49.2619L65.3233 47.8652H62.7626C60.9003 45.6304 58.7276 47.8652 57.874 49.2619C54.8943 49.2619 55.2357 52.3658 55.7789 53.9177L52.2858 54.8489C52.829 57.0215 53.5895 61.0406 52.2858 59.7369C50.9822 58.4332 48.3292 58.2625 47.1656 58.3402V61.3666C46.8548 61.2114 45.9542 60.9941 44.8377 61.3666C43.7213 61.739 45.9245 65.712 47.1656 67.6519L46.2333 70.6782L48.0968 72.5405C48.252 73.6269 48.0966 75.7996 46.2333 75.7996C43.9042 75.7996 43.6734 79.5243 43.6734 80.4554C43.6734 81.3866 45.3033 83.9476 43.6734 83.9476C40.5072 83.5752 40.3366 86.2755 40.647 87.6723C39.7157 88.231 40.259 91.6297 40.647 93.2592H43.6734C43.363 93.7248 42.556 94.8422 41.8111 95.5871C41.0662 96.3321 42.7423 98.0702 43.6734 98.8462C44.7598 98.0702 46.7926 96.7511 46.2333 97.6822C45.1159 100.103 48.0956 101.64 49.7251 102.105C49.8803 101.174 50.6097 99.2187 52.2858 98.8462C53.9619 98.4737 54.0706 100.864 53.9154 102.105C54.3809 102.105 55.6846 102.431 57.1744 103.735C58.6643 105.038 60.5887 103.192 61.3647 102.105L58.1056 100.243C58.1056 99.6997 58.3849 98.4271 59.5023 97.6822Z" fill="url(#paint2_linear_2057_629)"/>
<path d="M67.4277 64.6246C67.32 64.5711 66.9108 64.5925 66.1355 65.1061C65.3602 65.6197 61.7863 64.9457 63.4008 68.4769C63.4008 68.4769 67.7798 70.4668 63.4008 69.782C59.0218 69.0972 64.4345 74.9935 63.4008 74.0947C62.367 73.1958 61.4625 72.9711 61.1394 72.9711C61.2471 72.1151 61.1717 70.4672 60.0088 70.724C58.8458 70.9808 51.2978 74.6942 51.1902 75.3362C50.3141 75.0875 51.3971 72.9754 52.2899 71.2604C52.215 71.3013 52.1161 71.3238 51.9884 71.3238C51.6244 71.2813 51.2956 70.9984 51.0012 70.5605C50.3451 69.9742 49.4296 68.9432 49.8989 68.4769C49.9702 68.4059 50.0065 68.324 50.0215 68.2355C49.8909 67.7913 49.7739 67.3294 49.6703 66.8718H49.0912C48.8262 65.7659 48.4569 63.4784 49.0613 63.0392C49.0574 62.9284 49.0674 62.9135 49.0912 63.0196C49.081 63.0256 49.071 63.0322 49.0613 63.0392C49.0756 63.4438 49.2754 65.1268 49.6703 66.8718H51.1356C50.658 65.7658 50.32 64.6451 51.2181 64.6451C52.5109 64.6451 50.5554 62.3125 50.4477 61.5635C50.34 60.8145 51.7547 60.4598 52.7589 60.0879C54.4048 59.4783 58.1145 61.4255 57.2534 60.0879C56.3922 58.7503 54.8635 56.011 55.6381 55.7542C56.4128 55.4974 57.0377 55.6472 57.2534 55.7542V53.6675C58.0607 53.6139 59.9015 53.7316 60.8061 54.6305C61.7106 55.5294 61.183 52.7582 60.8061 51.2602L63.2298 50.6182C62.8529 49.5481 62.616 47.408 64.6835 47.408C65.2757 46.445 66.7833 44.9041 68.0755 46.445H69.8522L70.8214 47.408L72.1135 45.8025H73.4057L75.344 45L76.6362 45.8025L77.9284 45C78.5745 45.9631 79.479 48.0176 77.9284 48.5312C78.9514 48.8525 80.7389 49.8481 79.7051 51.2602C78.6714 52.6724 78.0899 53.0255 77.9284 53.0255L76.6362 53.6675L77.9284 54.3095L78.2514 55.2726H79.7051L80.1897 56.3962C81.428 56.5566 83.8401 57.1987 83.5817 58.4828C83.3233 59.7669 81.9665 60.5159 81.3204 60.7299L82.2895 61.0509L82.7741 62.656H84.8739L86.8122 63.9401C87.8351 63.8331 89.655 64.1006 88.7504 66.0267C88.2336 67.1824 88.5351 68.2203 88.7504 68.5949C89.7734 68.4343 91.7871 68.5949 91.6579 70.521C91.6579 71.1632 91.1195 72.6077 90.8503 73.2496L91.6579 75.4968C90.5071 84.6754 90.3334 76.4917 88.912 75.3362L88.7504 76.2993H87.1352L85.6704 71.805H83.8936L83.086 70.521H81.3092C82.0092 71.4304 83.0537 73.3778 81.6323 73.8917C80.2109 74.4055 79.1796 70.7458 78.5335 70.4782L77.4029 68.5521L75.9492 69.676C76.3673 70.1456 76.5864 70.2773 76.6932 70.2853C76.7376 69.9687 76.8712 70.2987 76.6932 70.2853C76.6853 70.3416 76.6803 70.4183 76.6803 70.521C76.6803 71.5482 75.1769 69.1544 75.0154 71.0805C75.0154 71.0805 74.2257 71.1189 73.7545 71.281C71.6014 72.0221 71.4155 69.0294 69.3214 69.9214C68.2202 70.3904 68.9332 66.7378 68.0746 65.9087C67.6696 65.5176 67.4277 64.6246 67.4277 64.6246Z" fill="url(#paint3_linear_2057_629)"/>
<path d="M70.2949 75.4097C70.1872 75.3562 69.778 75.3776 69.0027 75.8913C68.2274 76.4049 64.6535 75.7308 66.2679 79.262C66.2679 79.262 70.6469 81.2519 66.2679 80.5671C61.8889 79.8823 67.3017 85.7787 66.2679 84.8798C65.2342 83.981 64.3297 83.7563 64.0066 83.7563C64.1143 82.9002 64.0389 81.2523 62.8759 81.5092C61.713 81.766 54.165 85.4794 54.0573 86.1214C53.1813 85.8726 54.2643 83.7606 55.157 82.0456C55.0821 82.0864 54.9833 82.109 54.8556 82.109C54.4916 82.0664 54.1628 81.7836 53.8684 81.3456C53.2123 80.7593 52.2967 79.7284 52.7661 79.262C52.8374 79.1911 52.8737 79.1092 52.8887 79.0206C52.7581 78.5764 52.6411 78.1145 52.5375 77.6569H51.9583C51.6934 76.5511 51.324 74.2635 51.9285 73.8244C51.9246 73.7135 51.9346 73.6987 51.9583 73.8047C51.9482 73.8108 51.9382 73.8173 51.9285 73.8244C51.9428 74.229 52.1426 75.912 52.5375 77.6569H54.0028C53.5252 76.5509 53.1872 75.4302 54.0853 75.4302C55.3781 75.4302 53.4226 73.0977 53.3149 72.3487C53.2072 71.5996 54.6219 71.245 55.6261 70.8731C57.272 70.2635 60.9817 72.2107 60.1205 70.8731C59.2594 69.5355 57.7307 66.7961 58.5053 66.5393C59.28 66.2825 59.9049 66.4323 60.1205 66.5393V64.4526C60.9279 64.3991 62.7687 64.5167 63.6733 65.4157C64.5778 66.3146 64.0501 63.5434 63.6733 62.0454L66.0969 61.4034C65.7201 60.3333 65.4832 58.1932 67.5507 58.1932C68.1429 57.2301 69.6505 55.6892 70.9427 57.2301H72.7194L73.6885 58.1932L74.9807 56.5877H76.2729L78.2112 55.7852L79.5034 56.5877L80.7956 55.7852C81.4417 56.7482 82.3462 58.8027 80.7956 59.3164C81.8185 59.6376 83.6061 60.6332 82.5723 62.0454C81.5386 63.4576 80.9571 63.8106 80.7956 63.8106L79.5034 64.4526L80.7956 65.0947L81.1186 66.0577H82.5723L83.0569 67.1813C84.2952 67.3418 86.7073 67.9838 86.4489 69.2679C86.1904 70.552 84.8336 71.3011 84.1876 71.5151L85.1567 71.8361L85.6413 73.4412H87.7411L89.6793 74.7252C90.7023 74.6182 92.5222 74.8858 91.6176 76.8119C91.1008 77.9675 91.4023 79.0055 91.6176 79.38C92.6406 79.2195 94.6543 79.38 94.525 81.3061C94.525 81.9484 93.9866 83.3928 93.7174 84.0348L94.525 86.2819C93.3743 95.4605 93.2006 87.2768 91.7792 86.1214L91.6176 87.0845H90.0024L88.5376 82.5902H86.7608L85.9532 81.3061H84.1764C84.8764 82.2156 85.9209 84.163 84.4995 84.6768C83.0781 85.1907 82.0468 81.531 81.4007 81.2634L80.2701 79.3373L78.8164 80.4611C79.2344 80.9307 79.4536 81.0625 79.5604 81.0705C79.6048 80.7538 79.7384 81.0838 79.5604 81.0705C79.5525 81.1268 79.5474 81.2034 79.5474 81.3061C79.5474 82.3334 78.0441 79.9396 77.8826 81.8657C77.8826 81.8657 77.0929 81.9041 76.6217 82.0662C74.4686 82.8073 74.2827 79.8145 72.1886 80.7065C71.0874 81.1756 71.8004 77.5229 70.9418 76.6939C70.5368 76.3028 70.2949 75.4097 70.2949 75.4097Z" fill="url(#paint4_linear_2057_629)"/>
<path d="M70.716 112.671C71.39 112.671 72.1203 110.93 72.4012 110.059L74.3392 109.891C74.3111 110.059 74.3055 110.531 74.5077 111.07C74.71 111.61 75.9402 112.475 76.53 112.84C85.2933 111.913 85.7989 115.031 86.3044 114.862C86.81 114.694 89.7592 114.862 91.95 115.789C94.1408 116.716 94.3093 116.379 96.1631 116.295C97.2288 116.246 98.2133 116.34 98.8601 116.438C99.0563 116.456 99.2539 116.492 99.4493 116.547C99.3149 116.516 99.1134 116.477 98.8601 116.438C97.8718 116.345 96.922 116.673 96.5001 116.884C95.9946 117.137 94.3093 117.811 92.1185 116.716C91.0068 116.16 88.4672 115.761 87.2313 115.789C89.3379 118.485 96.0788 121.519 97.2585 120.845C99.7021 119.244 102.398 117.39 105.937 118.317C108.758 119.056 110.084 117.124 110.4 116.054C109.81 118.07 108.879 119.579 105.179 118.907C102.213 118.367 99.674 120.255 98.7752 121.266C99.3931 121.154 101.32 121.047 104.084 121.519C106.848 121.991 110.179 125.648 111.499 127.417C107.033 122.614 103.241 121.603 99.7864 122.024C97.0226 122.361 94.197 121.547 93.1297 121.097C94.3093 122.277 94.3093 124.215 94.3093 124.805C94.3093 125.395 94.1408 126.912 95.489 128.85C96.9896 130.804 96.8445 132.473 96.5844 133.063C96.3148 130.973 95.5171 129.72 95.1519 129.355C94.534 128.962 93.3656 127.603 93.6352 125.311C93.9723 122.446 91.3601 120.255 90.7703 119.918C90.1805 119.581 89.0851 119.581 87.2313 117.39C85.3775 115.199 84.0294 115.115 82.5126 114.441C81.2993 113.901 78.8051 114.216 77.7097 114.441L80.069 118.064C80.6589 118.064 81.8385 118.57 82.2598 118.822C82.6812 119.075 83.6923 119.918 84.0294 121.097C84.7034 123.861 86.5572 125.339 87.3998 125.732C86.6977 125.788 85.0405 125.294 84.0294 122.867C83.0182 120.44 81.4172 119.665 80.7431 119.581C80.9959 120.114 81.5183 121.637 81.5858 123.457C81.67 125.732 82.2598 128.007 84.0294 129.187C85.7989 130.366 88.2425 131.63 88.8323 133.063C89.439 136.298 91.2197 139.747 92.0342 141.068C89.5906 139.298 89.1693 136.349 88.411 133.99C88.1582 133.4 87.7369 132.473 86.81 131.883C86.1975 131.493 83.4957 129.748 82.2598 128.85C81.9228 129.776 83.608 132.641 84.0294 133.99C84.8383 137.225 83.6923 138.877 83.0182 139.298C84.4507 137.95 83.5238 134.664 83.1867 133.99C82.8497 133.315 81.2487 130.956 81.2487 129.355C81.4509 120.457 76.4458 114.357 73.9179 112.418C72.5697 112.924 74.1 120.815 74.3392 121.772C74.7605 123.457 74.5077 125.957 74.3392 127.586C75.2728 128.799 76.0202 130.619 76.2772 131.377C76.3053 132.978 76.3447 136.315 76.2772 136.854C76.2098 137.596 77.9344 139.972 78.8051 141.068C78.1029 140.281 76.5469 138.489 75.9402 137.613C75.1818 136.517 75.0976 132.641 75.0133 131.63C74.9459 130.821 74.0864 129.327 73.6651 128.681C72.9629 130.142 71.3732 133.518 70.6317 135.338C69.8902 137.158 71.2777 142.163 72.0641 144.438C70.4632 143.09 69.8733 137.023 69.6205 137.192C69.3678 137.36 69.0307 138.455 68.7779 139.551C68.0359 143.326 65.8847 144.27 64.9019 144.27C67.851 142.921 67.7668 140.562 68.1881 138.877C68.997 136.248 71.053 131.658 71.9799 129.692C72.6821 128.541 73.8505 125.445 72.9068 122.277C71.963 119.109 71.8956 115.059 71.9799 113.43C68.3566 115.115 66.3343 124.636 65.9973 126.575C65.6797 128.401 65.4074 131.63 63.8907 133.905C62.6774 135.725 63.3852 138.427 63.8907 139.551C62.5425 137.444 62.7111 136.686 62.6268 136.433C62.5425 136.18 62.6268 134.495 63.3852 133.568C63.9918 132.827 64.6491 130.001 64.9019 128.681C64.3682 129.299 62.947 130.653 61.5314 131.125C59.0035 131.714 58.4137 135.085 57.4868 137.529C56.7453 139.483 55.4926 140.59 54.959 140.899C55.5769 140.028 56.8296 138.169 56.897 137.697C56.9812 137.107 58.2452 131.63 60.436 130.872C62.6268 130.114 64.312 127.501 64.9019 125.648C65.8012 122.821 66.3062 120.564 66.5871 119.834C65.9973 120.143 64.3626 120.744 63.8907 121.687C62.4183 124.877 60.8343 125.564 60.0532 125.514C59.9846 125.512 59.9156 125.501 59.8462 125.479C59.9067 125.497 59.9761 125.509 60.0532 125.514C61.3177 125.547 62.4467 122.339 63.3009 120.845C64.312 119.075 66.2129 118.825 66.8399 118.064C68.0196 116.632 68.1881 116.042 69.3678 114.357C64.312 113.177 60.6888 116.884 60.2675 117.306C59.8462 117.727 58.1609 119.412 55.8016 120.171C53.9141 120.777 53.3861 124.805 53.358 126.743C53.358 127.108 53.2858 128.26 52.8524 128.597C51.3357 129.776 50.4931 131.125 50.6616 132.894C49.7347 131.293 50.7459 129.776 51.5042 128.934C51.8693 128.625 52.5996 127.788 52.5996 126.912C52.5996 124.283 53.4984 121.772 53.9478 120.845C52.9086 121.463 50.2317 122.387 47.7124 122.193C44.4262 121.94 43.7521 122.193 42.8252 122.361C41.6456 122.576 37.9661 125.17 36 126.49C37.4044 125.282 40.5333 122.682 41.8141 121.94C43.4151 121.013 44.9318 121.182 46.1114 121.35C47.0552 121.485 48.0214 121.294 48.3865 121.182C46.617 119.749 45.4373 119.075 43.9206 118.822C42.973 118.664 41.8141 119.244 40.2131 119.244C38.1309 119.118 37.3135 117.308 37.1254 116.248C37.1058 116.175 37.0954 116.106 37.0954 116.042C37.1026 116.106 37.1125 116.175 37.1254 116.248C37.3612 117.121 38.9295 118.492 39.7075 118.57C40.5501 118.654 41.6109 118.393 43.7521 118.064C45.9429 117.727 48.555 120.676 49.9032 120.676C52.9367 121.013 57.7396 117.587 59.6776 115.789L56.6442 116.042C55.3803 116.688 53.358 117.558 51.8413 117.137C50.8267 116.855 48.7517 116.463 47.7124 116.547C48.1618 116.238 49.3134 115.789 50.5773 116.042C51.8122 116.289 52.4311 116.632 53.9478 116.379L56.2229 115.199L60.6888 114.525C61.8965 114.076 64.4132 113.076 64.8176 112.671C65.3232 112.166 69.8733 112.671 70.716 112.671Z" fill="#9E5938"/>
<path d="M71.4275 101.1L66.7734 98.7727L71.686 93.6016C73.9613 94.8426 75.9953 99.0313 76.8572 101.1L76.3401 111.442L78.9256 113.51H71.4275L69.1005 112.476L71.1689 110.149L71.4275 101.1Z" fill="#816A59"/>
<defs>
<radialGradient id="paint0_radial_2057_629" cx="0" cy="0" r="1" gradientUnits="userSpaceOnUse" gradientTransform="translate(73 85.5) rotate(90) scale(53.5 42)">
<stop offset="0.625" stop-color="white"/>
<stop offset="1" stop-color="#FFF876" stop-opacity="0"/>
</radialGradient>
<radialGradient id="paint1_radial_2057_629" cx="0" cy="0" r="1" gradientUnits="userSpaceOnUse" gradientTransform="translate(73.5 121.5) rotate(90) scale(19.5 50.5)">
<stop offset="0.625" stop-color="white"/>
<stop offset="1" stop-color="#FFF876" stop-opacity="0"/>
</radialGradient>
<linearGradient id="paint2_linear_2057_629" x1="68.4457" y1="45.7695" x2="68.4457" y2="113.512" gradientUnits="userSpaceOnUse">
<stop stop-color="#9AD58B"/>
<stop offset="1" stop-color="#527C22"/>
</linearGradient>
<linearGradient id="paint3_linear_2057_629" x1="72.0178" y1="45" x2="72.0178" y2="91.7082" gradientUnits="userSpaceOnUse">
<stop stop-color="#C8ECAB"/>
<stop offset="1" stop-color="#97C276"/>
</linearGradient>
<linearGradient id="paint4_linear_2057_629" x1="74.885" y1="55.7852" x2="74.885" y2="102.493" gradientUnits="userSpaceOnUse">
<stop stop-color="#82BA75"/>
<stop offset="1" stop-color="#97C276"/>
</linearGradient>
</defs>
</svg>
