<svg width="399" height="377" viewBox="0 0 399 377" fill="none" xmlns="http://www.w3.org/2000/svg">
<g filter="url(#filter0_f_1295_562)">
<ellipse cx="232.049" cy="330.938" rx="106.21" ry="17.5435" fill="#6E8850" fill-opacity="0.6"/>
</g>
<path d="M200.52 236.522C218.073 238.055 237.748 238.27 255.727 237.124C273.705 235.979 288.703 233.554 297.808 230.322C306.913 227.09 309.476 223.281 304.998 219.635C300.52 215.988 289.321 212.765 273.576 210.59C257.832 208.415 238.664 207.444 219.797 207.866C200.93 208.288 183.708 210.072 171.478 212.873C159.247 215.673 152.88 219.289 153.612 223.019C154.345 226.75 162.125 230.328 175.442 233.058L230.353 222.81L200.52 236.522Z" fill="#51833A"/>
<path d="M129.157 249.856C183.633 307.472 181.55 301.09 192.147 333.029C171.194 297.884 142.35 274.928 112.989 259.619C86.5559 245.837 67.168 209.891 30.9154 238.77C48.6321 221.333 89.6453 208.067 129.157 249.856Z" fill="#75A142" fill-opacity="0.6"/>
<path d="M111.133 210.111C130.015 273.114 158.971 296.608 177.554 316.701C160.953 287.559 149.929 272.566 143.447 245.807C135.892 214.619 100.901 136.508 51.4282 116.917C75.482 131.914 97.4377 164.414 111.133 210.111Z" fill="#75A142"/>
<path d="M297.444 194.224C296.156 259.983 274.564 290.384 262.053 314.725C270.227 282.199 276.825 264.798 275.891 237.281C274.802 205.209 287.556 120.574 329.959 88.4291C310.811 109.33 298.378 146.528 297.444 194.224Z" fill="#75A142"/>
<path d="M282.638 216.299C266.551 280.073 238.659 304.82 220.979 325.712C236.28 295.868 246.632 280.403 251.929 253.385C258.102 221.894 289.617 142.317 338.178 120.564C314.809 136.607 294.306 170.043 282.638 216.299Z" fill="#75A142"/>
<path d="M185.873 332.12C184.108 326.799 183.372 323.767 183.12 322.141C183.971 321.141 182.629 318.976 183.12 322.141C182.698 322.637 181.736 322.846 179.743 321.975C171.909 309.349 172.184 312.12 166.542 312.155C161.645 307.747 155.359 301.591 147.302 293.069C107.79 251.28 87.2134 258.004 60.7155 260.208C102.829 256.707 122.705 292.73 149.139 306.512C158.405 311.343 163.394 312.175 166.542 312.155C173.177 318.128 177.26 320.89 179.743 321.975C181.387 324.623 183.387 327.949 185.873 332.12Z" fill="#75A142" fill-opacity="0.6"/>
<ellipse cx="231.653" cy="215.745" rx="118.537" ry="118.537" transform="rotate(-28.5247 231.653 215.745)" fill="white" fill-opacity="0.8"/>
<rect x="131.887" y="127.5" width="91.9851" height="20.8626" transform="rotate(-28.5247 131.887 127.5)" fill="#D7EEE9"/>
<path d="M224.844 82.1544C191.989 116.017 158.51 130.188 124.432 137.15C123.628 137.314 122.785 137.275 122.097 136.829C115.581 132.609 102.818 111.146 106.9 107.411C119.466 95.9138 207.745 49.25 210.21 51.2603C218.935 58.3759 228.242 78.6529 224.844 82.1544Z" fill="#D7EEE9"/>
<path d="M139.607 123.842C133.406 122.21 115.659 103.705 106.435 92.9586C104.976 91.2588 105.01 88.758 106.612 87.1919C126.144 68.095 176.729 41.6056 194.752 42.6063C197.51 42.7594 204.316 87.4811 200.693 92.2602C190.948 105.112 150.312 126.658 139.607 123.842Z" fill="url(#paint0_linear_1295_562)"/>
<ellipse cx="149.729" cy="66.0001" rx="50.734" ry="10.4313" transform="rotate(-28.5247 149.729 66.0001)" fill="#8C6E59"/>
<path d="M184.282 46.1409C184.448 46.4462 184.475 46.885 184.262 47.5104C184.048 48.1348 183.612 48.8866 182.948 49.7531C181.621 51.4834 179.45 53.5849 176.584 55.9205C170.86 60.5869 162.438 66.1293 152.677 71.4347C142.915 76.7401 133.684 80.7925 126.655 83.0581C123.136 84.1921 120.192 84.8711 118.018 85.0434C116.929 85.1298 116.061 85.0866 115.421 84.926C114.781 84.7651 114.427 84.5033 114.261 84.198C114.095 83.8926 114.068 83.4538 114.281 82.8284C114.495 82.2041 114.931 81.4523 115.595 80.5857C116.922 78.8554 119.093 76.7539 121.959 74.4183C127.683 69.752 136.105 64.2096 145.866 58.9042C155.628 53.5988 164.859 49.5464 171.889 47.2807C175.407 46.1468 178.351 45.4678 180.525 45.2954C181.614 45.2091 182.482 45.2523 183.122 45.4129C183.763 45.5737 184.116 45.8356 184.282 46.1409Z" stroke="#695546" stroke-width="0.911079"/>
<path d="M174.281 51.5712C174.174 51.3741 173.944 51.1888 173.497 51.0661C173.05 50.9432 172.436 50.899 171.655 50.9478C170.098 51.0453 167.984 51.5059 165.453 52.2989C160.399 53.8824 153.769 56.7623 146.77 60.5667C139.77 64.371 133.748 68.3677 129.67 71.7478C127.628 73.4404 126.092 74.9632 125.163 76.2173C124.697 76.8455 124.4 77.3847 124.26 77.8271C124.12 78.269 124.15 78.5628 124.257 78.7599C124.364 78.957 124.595 79.1423 125.042 79.265C125.489 79.3879 126.103 79.4321 126.883 79.3833C128.441 79.2858 130.554 78.8252 133.085 78.0322C138.14 76.4487 144.769 73.5688 151.769 69.7644C158.768 65.9601 164.791 61.9634 168.869 58.5833C170.911 56.8907 172.447 55.3679 173.376 54.1138C173.841 53.4856 174.138 52.9464 174.279 52.504C174.419 52.0621 174.388 51.7683 174.281 51.5712Z" stroke="#695546" stroke-width="0.911079"/>
<path d="M138.531 135.762C151.566 132.75 185.312 120.11 216.018 93.6468" stroke="#A4D2C8" stroke-opacity="0.5" stroke-width="4.55539"/>
<path d="M118.066 108.031C132.319 104.357 169.436 89.8849 203.885 61.3878" stroke="#BDE0D8" stroke-width="4.55539"/>
<path d="M118.137 110.152C132.633 106.346 170.424 91.5071 205.621 62.6032" stroke="#D7EEE9" stroke-width="4.55539"/>
<ellipse cx="231.571" cy="224.25" rx="105.735" ry="23.7075" fill="#629E32" fill-opacity="0.7"/>
<path fill-rule="evenodd" clip-rule="evenodd" d="M336.882 225.762C333.407 238.151 287.491 247.958 231.358 247.958C175.214 247.958 129.291 238.147 125.832 225.754C129.297 281.02 175.218 324.771 231.357 324.771C287.494 324.771 333.413 281.024 336.882 225.762Z" fill="#9DC57C" fill-opacity="0.7"/>
<path fill-rule="evenodd" clip-rule="evenodd" d="M131.53 253.934C143.877 250.244 178.159 246.216 186.373 256.355C230.19 310.448 245.175 298.454 259.44 287.036C266.218 281.611 272.834 276.316 282.303 278.301C298.8 281.76 303.51 288.233 305.016 294.08C285.957 312.689 259.895 324.156 231.154 324.156C185.216 324.156 146.121 294.861 131.53 253.934Z" fill="url(#paint1_linear_1295_562)"/>
<path d="M288.946 166.877C292.276 195.855 261.271 210.154 252.055 212.922L254.426 198.91C255.578 192.105 259.697 186.404 261.49 184.819C263.416 182.794 268.24 178.38 272.018 176.699C275.797 175.017 285.508 170.741 288.946 166.877Z" fill="#5A7639"/>
<path d="M266.886 195.751C253.778 202.206 260.08 216.447 262.82 223.976L269.375 234.088C269.396 227.562 267.613 218.218 271.545 215.939C275.478 213.659 281.915 212.067 288.108 207.499C299.242 198.812 305.538 192.097 307.293 189.826C299.285 189.111 279.993 189.296 266.886 195.751Z" fill="#75A142"/>
<path d="M204.144 225.647L203.827 229.252L201.855 229.368L202.719 225.126C204.166 215.113 179.416 211.92 173.726 203.86L159.976 178.256C171.83 181.649 182.772 178.802 188.161 181.649C193.55 184.496 198.736 191.307 200.656 194.357C207.013 204.169 205.63 219.305 204.144 225.647Z" fill="#81B148"/>
<path d="M200.516 236.518C218.069 238.052 237.744 238.266 255.723 237.12C273.701 235.975 288.699 233.55 297.804 230.318C306.91 227.086 309.472 223.277 304.994 219.631C300.516 215.984 289.317 212.761 273.572 210.586C257.828 208.411 238.66 207.44 219.793 207.862C200.926 208.284 183.705 210.068 171.474 212.869C159.243 215.669 152.876 219.285 153.608 223.016C154.341 226.746 162.121 230.324 175.438 233.054L230.349 222.807L200.516 236.518Z" fill="#51833A"/>
<path d="M222.354 186.563C220.465 200.825 222.365 208.887 225.273 222.242C236.89 218.921 268.451 204.291 263.542 180.697C259.741 162.425 260.532 165.148 251.647 151.873C244.44 164.865 223.794 175.685 222.354 186.563Z" fill="url(#paint2_linear_1295_562)"/>
<path d="M237.729 187.323C240.201 201.495 238.633 209.628 236.275 223.092C224.532 220.249 192.397 206.926 196.335 183.15C199.384 164.737 198.705 167.491 207.038 153.863C214.772 166.548 235.844 176.513 237.729 187.323Z" fill="url(#paint3_linear_1295_562)"/>
<path d="M180.282 190.292C180.587 205.15 203.413 224.537 218.271 224.232C233.129 223.928 233.522 227.211 233.218 212.353C232.913 197.495 222.137 194.009 207.279 194.314C180.231 187.768 182.771 173.016 180.282 190.292Z" fill="url(#paint4_linear_1295_562)"/>
<path d="M180.282 190.292C180.587 205.15 203.413 224.537 218.271 224.232C233.129 223.928 233.522 227.211 233.218 212.353C232.913 197.495 222.137 194.009 207.279 194.314C180.231 187.768 182.771 173.016 180.282 190.292Z" fill="url(#paint5_linear_1295_562)"/>
<path d="M257.406 191.567C257.711 206.425 242.22 199.145 231.143 223.326C218.144 193.179 203.905 207.528 203.6 192.67C203.296 177.812 218.553 160.604 229.665 151.226C241.914 157.972 257.102 176.708 257.406 191.567Z" fill="url(#paint6_radial_1295_562)"/>
<path d="M257.651 189.143C259.624 206.597 240.734 205.561 235.032 216.252C241.661 199.699 255.297 207.017 254.992 192.159C254.688 177.3 245.372 167.864 237.877 156.714C248.864 167.523 253.839 173.881 257.651 189.143Z" fill="#EEC1A9"/>
<path d="M279.95 188.391C280.255 203.249 258.243 223.555 243.385 223.86C228.527 224.164 228.268 227.461 227.964 212.603C227.659 197.745 238.283 193.82 253.141 193.516C279.898 185.867 276.756 171.231 279.95 188.391Z" fill="url(#paint7_linear_1295_562)"/>
<path d="M279.95 188.391C280.255 203.249 258.243 223.555 243.385 223.86C228.527 224.164 228.268 227.461 227.964 212.603C227.659 197.745 238.283 193.82 253.141 193.516C279.898 185.867 276.756 171.231 279.95 188.391Z" fill="url(#paint8_linear_1295_562)"/>
<path d="M261.089 187.505C264.614 199.856 247.303 217.224 237.013 220.161C226.724 223.098 227.279 225.897 223.753 213.547C220.228 201.196 231.028 187.69 241.318 184.753C267.548 181.908 255.036 173.754 261.089 187.505Z" fill="url(#paint9_radial_1295_562)"/>
<path d="M195.755 190.679C190.461 188.102 183.203 182.324 183.203 182.324C183.203 182.324 185.771 185.336 187.607 187.078C191.25 190.537 191.47 192.235 195.838 194.715C199.476 196.78 202.299 198.584 206.177 200.155C209.939 201.679 212.505 201.837 215.945 203.992C220.62 206.92 222.921 208.639 225.559 213.484C227.006 216.141 229.261 223.366 229.261 223.366C229.261 223.366 230.631 214.011 229.528 210.173C227.991 204.818 225.497 201.995 220.951 198.775C216.015 195.279 211.796 196.43 206.061 194.505C201.991 193.139 199.615 192.559 195.755 190.679Z" fill="#EAB29F" fill-opacity="0.84"/>
<path d="M200.156 183.897C194.823 194.631 209.371 214.311 219.12 219.155C228.869 223.998 227.902 226.481 233.236 215.747C238.569 205.013 229.89 190.257 220.141 185.413C194.596 177.373 208.201 172.384 200.156 183.897Z" fill="url(#paint10_radial_1295_562)"/>
<path d="M203.503 177.689C203.476 177.833 203.44 178.011 203.387 178.222C203.122 179.289 202.448 181.164 200.429 184.058C199.149 186.651 199.052 189.805 199.807 193.184C200.563 196.571 202.17 200.156 204.252 203.57C208.423 210.407 214.458 216.485 219.261 218.872C221.03 219.75 222.453 220.555 223.616 221.212C224.061 221.464 224.467 221.694 224.841 221.898C225.52 222.27 226.085 222.555 226.576 222.74C227.067 222.924 227.464 223.002 227.812 222.977C228.48 222.93 229.09 222.495 229.889 221.312C230.686 220.133 231.615 218.297 232.953 215.606C235.561 210.357 234.756 204.092 232.06 198.509C229.368 192.934 224.817 188.097 220.023 185.707C207.866 181.878 204.526 178.728 203.503 177.689Z" stroke="#C88181" stroke-opacity="0.02" stroke-width="0.632209"/>
<path d="M212.545 182.797L203.562 177.867C203.562 177.867 208.601 182.525 212.573 184.142C214.112 184.768 215.108 184.751 216.636 185.404C219.343 186.562 220.703 187.636 222.912 189.582C226.303 192.569 227.632 194.911 229.831 198.86C231.113 201.163 232.084 202.418 232.648 204.992C233.393 208.394 232.906 210.519 232.023 213.887C231.414 216.209 230.536 217.329 229.717 219.586C229.072 221.367 228.197 224.193 228.197 224.193C228.197 224.193 232.088 219.215 233.401 215.474C234.602 212.05 235.123 209.91 234.828 206.294C234.608 203.601 234.119 202.093 233.076 199.601C231.948 196.908 230.981 195.517 229.177 193.221C226.512 189.831 224.695 187.994 220.951 185.854C217.919 184.12 212.545 182.797 212.545 182.797Z" fill="url(#paint11_linear_1295_562)"/>
<path d="M259.652 182.91C259.443 181.667 259.054 179.962 259.054 179.962C259.054 179.962 258.921 182.031 259.131 183.728C259.356 185.55 259.921 186.754 260.306 188.549C260.794 190.818 260.383 192.21 259.89 194.478C259.031 198.429 257.516 200.387 255.235 203.725C252.174 208.204 249.789 210.32 245.479 213.614C240.774 217.21 235.971 216.342 232.171 220.885C231.254 221.981 230.08 223.888 230.08 223.888C230.08 223.888 231.993 222.495 233.264 221.67C238.114 218.519 241.903 218.596 246.588 215.206C251.405 211.722 253.935 209.238 257.129 204.224C259.326 200.776 260.894 198.757 261.509 194.714C261.889 192.221 261.964 190.71 261.377 188.258C260.872 186.151 260.011 185.047 259.652 182.91Z" fill="url(#paint12_linear_1295_562)"/>
<path d="M221.669 218.97C225.147 222.062 231.656 225.469 231.656 225.469C231.656 225.469 225.909 221.036 222.648 217.744C219.454 214.52 217.831 212.527 215.151 208.864C212.331 205.009 210.441 202.928 208.67 198.492C207.937 196.658 207.145 193.672 207.145 193.672C207.145 193.672 207.45 197.104 208.029 199.221C209.354 204.066 211.497 206.295 214.403 210.393C216.942 213.974 218.388 216.053 221.669 218.97Z" fill="url(#paint13_linear_1295_562)"/>
<path d="M248.17 260.758C336.836 260.758 325.834 176.834 302.222 140.324C377.137 244.637 268.083 327.794 268.083 297.268C268.083 276.879 222.058 260.758 248.17 260.758Z" fill="url(#paint14_linear_1295_562)"/>
<circle cx="188.9" cy="283.517" r="4.26735" fill="#C2DDB5"/>
<circle cx="213.082" cy="289.68" r="16.1211" fill="#C2DDB5"/>
<circle cx="277.564" cy="150.283" r="10.4313" fill="#BDE0D8"/>
<circle cx="255.279" cy="135.584" r="4.26735" fill="#BDE0D8"/>
<circle cx="286.101" cy="281.148" r="8.5347" fill="#B1D39F"/>
<path d="M120.986 247.672C153.112 296.975 175.377 323.562 196.594 336.778C174.863 315.544 170.37 292.539 158.068 271.292C143.73 246.528 93.7855 187.714 45.7129 181.086C70.4438 188.919 97.6852 211.913 120.986 247.672Z" fill="url(#paint15_linear_1295_562)"/>
<path d="M302.915 304.92C257.679 370.043 277.829 337.593 270.625 349.305C284.891 333.946 278.927 338.363 303.112 318.486C326.142 299.558 341.443 262.309 383.606 259.466C357.076 261.253 335.725 257.686 302.915 304.92Z" fill="#75A142" fill-opacity="0.6"/>
<defs>
<filter id="filter0_f_1295_562" x="106.874" y="294.429" width="250.35" height="73.0179" filterUnits="userSpaceOnUse" color-interpolation-filters="sRGB">
<feFlood flood-opacity="0" result="BackgroundImageFix"/>
<feBlend mode="normal" in="SourceGraphic" in2="BackgroundImageFix" result="shape"/>
<feGaussianBlur stdDeviation="9.483" result="effect1_foregroundBlur_1295_562"/>
</filter>
<linearGradient id="paint0_linear_1295_562" x1="146.117" y1="60.0601" x2="171.159" y2="106.133" gradientUnits="userSpaceOnUse">
<stop offset="0.5499" stop-color="#695546"/>
<stop offset="0.708063" stop-color="#B69E7D"/>
</linearGradient>
<linearGradient id="paint1_linear_1295_562" x1="218.273" y1="249.941" x2="218.273" y2="324.156" gradientUnits="userSpaceOnUse">
<stop stop-color="#81B148" stop-opacity="0.56"/>
<stop offset="1" stop-color="#81B148"/>
</linearGradient>
<linearGradient id="paint2_linear_1295_562" x1="251.539" y1="154.816" x2="248.258" y2="178.567" gradientUnits="userSpaceOnUse">
<stop stop-color="#F1B09E"/>
<stop offset="1" stop-color="#FAE6CE"/>
</linearGradient>
<linearGradient id="paint3_linear_1295_562" x1="207.267" y1="156.798" x2="211.519" y2="180.396" gradientUnits="userSpaceOnUse">
<stop stop-color="#F1B09E"/>
<stop offset="1" stop-color="#FAE6CE"/>
</linearGradient>
<linearGradient id="paint4_linear_1295_562" x1="196.525" y1="200.622" x2="231.133" y2="221.444" gradientUnits="userSpaceOnUse">
<stop stop-color="#EFB7A4"/>
<stop offset="0.942708" stop-color="#F7E7D8"/>
</linearGradient>
<linearGradient id="paint5_linear_1295_562" x1="196.525" y1="200.622" x2="231.133" y2="221.444" gradientUnits="userSpaceOnUse">
<stop stop-color="#EFB7A4"/>
<stop offset="0.942708" stop-color="#F7E7D8"/>
</linearGradient>
<radialGradient id="paint6_radial_1295_562" cx="0" cy="0" r="1" gradientUnits="userSpaceOnUse" gradientTransform="translate(230.237 166.017) rotate(89.0943) scale(57.316 42.7731)">
<stop stop-color="#FADFCC"/>
<stop offset="1" stop-color="#F1BEAB"/>
</radialGradient>
<linearGradient id="paint7_linear_1295_562" x1="264.145" y1="199.378" x2="230.419" y2="221.601" gradientUnits="userSpaceOnUse">
<stop stop-color="#EFB7A4"/>
<stop offset="0.942708" stop-color="#F7E7D8"/>
</linearGradient>
<linearGradient id="paint8_linear_1295_562" x1="264.145" y1="199.378" x2="230.419" y2="221.601" gradientUnits="userSpaceOnUse">
<stop stop-color="#EFB7A4"/>
<stop offset="0.942708" stop-color="#F7E7D8"/>
</linearGradient>
<radialGradient id="paint9_radial_1295_562" cx="0" cy="0" r="1" gradientUnits="userSpaceOnUse" gradientTransform="translate(229.214 217.997) rotate(-42.1049) scale(43.8565 60.3139)">
<stop stop-color="#FCE5D0"/>
<stop offset="1" stop-color="#EFB7A4"/>
</radialGradient>
<radialGradient id="paint10_radial_1295_562" cx="0" cy="0" r="1" gradientUnits="userSpaceOnUse" gradientTransform="translate(227.165 218.752) rotate(-129.312) scale(43.9236 57.1742)">
<stop stop-color="#FCE5D0"/>
<stop offset="1" stop-color="#EFB7A4"/>
</radialGradient>
<linearGradient id="paint11_linear_1295_562" x1="218.921" y1="177.552" x2="219.88" y2="224.363" gradientUnits="userSpaceOnUse">
<stop stop-color="#F0BFAF"/>
<stop offset="1" stop-color="#F0BFAF" stop-opacity="0"/>
</linearGradient>
<linearGradient id="paint12_linear_1295_562" x1="245.381" y1="180.242" x2="246.269" y2="223.556" gradientUnits="userSpaceOnUse">
<stop stop-color="#F4B59C"/>
<stop offset="1" stop-color="#F1C4B2" stop-opacity="0"/>
</linearGradient>
<linearGradient id="paint13_linear_1295_562" x1="221.279" y1="195.569" x2="217.522" y2="223.572" gradientUnits="userSpaceOnUse">
<stop stop-color="#F1BCA9"/>
<stop offset="1" stop-color="#F1BCA9" stop-opacity="0"/>
</linearGradient>
<linearGradient id="paint14_linear_1295_562" x1="284.328" y1="140.324" x2="284.328" y2="303.66" gradientUnits="userSpaceOnUse">
<stop stop-color="white"/>
<stop offset="1" stop-color="white" stop-opacity="0"/>
</linearGradient>
<linearGradient id="paint15_linear_1295_562" x1="80.626" y1="241.493" x2="213.384" y2="293.878" gradientUnits="userSpaceOnUse">
<stop stop-color="#75A53F"/>
<stop offset="1" stop-color="#668B3A"/>
</linearGradient>
</defs>
</svg>
