<svg width="398" height="380" viewBox="0 0 398 380" fill="none" xmlns="http://www.w3.org/2000/svg">
<g filter="url(#filter0_f_1295_564)">
<ellipse cx="173.174" cy="328.481" rx="106.21" ry="17.5435" fill="#6E8850" fill-opacity="0.6"/>
</g>
<path d="M286.236 241.419C240.062 305.88 203.058 291.607 196.883 324.687C212.885 287.028 254.263 293.57 281.281 274.427C305.605 257.193 324.903 199.513 364.732 223.219C344.818 208.341 319.727 194.666 286.236 241.419Z" fill="#75A142" fill-opacity="0.6"/>
<path d="M284.999 223.955C262.302 285.687 231.966 307.368 212.19 326.288C230.54 298.215 242.46 283.924 250.564 257.611C260.011 226.942 299.708 151.115 350.285 134.583C325.36 148.083 301.46 179.181 284.999 223.955Z" fill="#75A142"/>
<path d="M126.817 336.4C124.926 331.123 124.119 328.108 123.829 326.489C124.656 325.469 123.264 323.336 123.829 326.489C123.419 326.994 122.462 327.226 120.449 326.403C112.319 313.965 112.66 316.729 107.02 316.897C102.021 312.605 95.5913 306.599 87.3352 298.269C46.8495 257.423 26.437 264.63 -0.00164361 267.459C42.0172 262.966 62.7378 298.51 89.4883 311.665C98.8659 316.276 103.873 316.99 107.02 316.897C113.794 322.712 117.941 325.376 120.449 326.403C122.155 329.011 124.233 332.289 126.817 336.4Z" fill="#75A142" fill-opacity="0.6"/>
<path d="M199.141 336.4C201.031 331.123 201.838 328.108 202.128 326.489C201.301 325.469 202.694 323.336 202.128 326.489C202.538 326.994 203.495 327.226 205.508 326.403C213.638 313.965 213.297 316.729 218.937 316.897C223.936 312.605 230.366 306.599 238.622 298.269C279.108 257.423 299.52 264.63 325.959 267.459C283.94 262.966 263.219 298.51 236.469 311.665C227.091 316.276 222.084 316.99 218.937 316.897C212.163 322.712 208.016 325.376 205.508 326.403C203.802 329.011 201.725 332.289 199.141 336.4Z" fill="#75A142" fill-opacity="0.6"/>
<circle cx="165.553" cy="216.329" r="118.537" transform="rotate(31.1217 165.553 216.329)" fill="white" fill-opacity="0.8"/>
<rect x="191.281" y="85.6406" width="91.9851" height="20.8626" transform="rotate(31.1217 191.281 85.6406)" fill="#D7EEE9"/>
<path d="M277.38 142.941C231.578 131.708 202.437 109.994 179.215 84.1222C178.645 83.4869 178.236 82.7065 178.28 81.8539C178.682 74.052 190.71 52.2964 195.983 53.9277C212.255 58.9611 297.133 111.559 296.644 114.701C294.912 125.826 282.118 144.103 277.38 142.941Z" fill="#D7EEE9"/>
<path d="M198.342 90.4593C196.623 84.307 203.564 59.8038 208.177 46.3795C208.934 44.1743 211.201 42.8883 213.448 43.5085C239.832 50.7883 288.081 80.9667 296.309 96.9934C297.571 99.4514 262.419 127.924 256.464 127.212C240.449 125.297 201.322 101.12 198.342 90.4593Z" fill="url(#paint0_linear_1295_564)"/>
<ellipse cx="253.372" cy="69.9569" rx="50.734" ry="10.4313" transform="rotate(31.1217 253.372 69.9569)" fill="#8C6E59"/>
<path d="M288.767 90.2196C288.591 90.5109 288.232 90.7546 287.587 90.8856C286.943 91.0165 286.077 91.0205 284.994 90.8851C282.832 90.6147 279.923 89.8035 276.461 88.5115C269.542 85.9302 260.505 81.4643 250.995 75.7225C241.485 69.9806 233.324 64.063 227.817 59.143C225.061 56.6804 222.989 54.4838 221.743 52.6968C221.119 51.8019 220.719 51.033 220.535 50.4023C220.35 49.7707 220.399 49.3395 220.575 49.0482C220.751 48.7568 221.11 48.5131 221.754 48.3821C222.398 48.2512 223.265 48.2472 224.348 48.3826C226.509 48.653 229.418 49.4642 232.881 50.7562C239.799 53.3375 248.837 57.8034 258.347 63.5453C267.857 69.2871 276.018 75.2047 281.524 80.1247C284.28 82.5873 286.353 84.7839 287.599 86.5709C288.223 87.4658 288.623 88.2347 288.807 88.8654C288.991 89.4971 288.943 89.9282 288.767 90.2196Z" stroke="#695546" stroke-width="0.9483"/>
<path d="M279.028 84.337C279.14 84.1509 279.185 83.8645 279.066 83.4195C278.946 82.974 278.675 82.4238 278.24 81.776C277.369 80.4829 275.905 78.8932 273.943 77.1103C270.023 73.5499 264.189 69.2852 257.369 65.168C250.55 61.0508 244.059 57.8741 239.083 56.0637C236.591 55.1571 234.502 54.6018 232.953 54.434C232.177 54.35 231.564 54.3665 231.114 54.4683C230.665 54.57 230.432 54.7428 230.319 54.9289C230.207 55.115 230.163 55.4014 230.282 55.8464C230.401 56.2919 230.672 56.8421 231.108 57.4899C231.978 58.783 233.442 60.3727 235.405 62.1556C239.325 65.716 245.159 69.9807 251.978 74.0979C258.797 78.2151 265.288 81.3918 270.265 83.2022C272.756 84.1088 274.845 84.6641 276.395 84.8319C277.171 84.9159 277.784 84.8994 278.234 84.7976C278.683 84.6959 278.916 84.5231 279.028 84.337Z" stroke="#695546" stroke-width="0.9483"/>
<path d="M187.516 95.5547C196.702 105.28 224.662 128.013 263.014 141.137" stroke="#A4D2C8" stroke-opacity="0.5" stroke-width="4.7415"/>
<path d="M201.102 63.8789C211.474 74.3211 242.719 99.0369 284.718 114.363" stroke="#BDE0D8" stroke-width="4.7415"/>
<path d="M199.309 65.0117C209.919 75.5972 241.821 100.71 284.549 116.476" stroke="#D7EEE9" stroke-width="4.7415"/>
<path fill-rule="evenodd" clip-rule="evenodd" d="M272.324 223.305C268.848 235.694 222.932 245.501 166.8 245.501C110.656 245.501 64.7321 235.69 61.2734 223.297C64.7386 278.563 110.659 322.314 166.799 322.314C222.936 322.314 268.855 278.567 272.324 223.305Z" fill="#E7DC7C" fill-opacity="0.7"/>
<path fill-rule="evenodd" clip-rule="evenodd" d="M67.4158 253.644C85.0982 252.174 144.526 254.915 141.405 268.253C136.605 288.759 160.672 310.054 186.746 320.724C180.222 321.983 173.485 322.642 166.594 322.642C121.116 322.642 82.3441 293.93 67.4158 253.644ZM213.614 311.638C222.255 302.672 231.808 290.006 240.502 278.477C252.604 262.43 263.043 248.588 267.047 250.002C258.165 276.975 238.723 299.151 213.614 311.638Z" fill="url(#paint1_linear_1295_564)"/>
<ellipse cx="167.013" cy="221.793" rx="105.735" ry="23.7075" fill="#D1B72C" fill-opacity="0.7"/>
<path d="M137.852 234.061C155.405 235.595 175.08 235.809 193.059 234.663C211.037 233.518 226.035 231.093 235.14 227.861C244.246 224.629 246.808 220.82 242.33 217.174C237.852 213.527 226.653 210.304 210.908 208.129C195.164 205.954 175.996 204.983 157.129 205.405C138.262 205.827 121.04 207.611 108.81 210.412C96.5791 213.212 90.2118 216.828 90.9443 220.559C91.6769 224.289 99.4569 227.867 112.774 230.597L167.685 220.35L137.852 234.061Z" fill="#51833A"/>
<path d="M184.557 258.301C273.223 258.301 262.221 174.377 238.608 137.867C313.524 242.18 204.469 325.337 204.469 294.811C204.47 274.422 158.445 258.301 184.557 258.301Z" fill="url(#paint2_linear_1295_564)"/>
<circle cx="122.439" cy="278.217" r="4.26735" fill="#C2DDB5"/>
<circle cx="146.621" cy="293.863" r="16.1211" fill="#C2DDB5"/>
<circle cx="220.588" cy="154.463" r="10.4313" fill="#E3E29E"/>
<circle cx="198.303" cy="139.763" r="4.26735" fill="#E3E29E"/>
<circle cx="219.64" cy="285.328" r="8.5347" fill="#B1D39F"/>
<path d="M160.076 184.18C158.188 198.442 160.088 206.504 162.996 219.859C174.612 216.538 206.174 201.909 201.265 178.314C197.464 160.042 198.255 162.765 189.37 149.49C182.163 162.482 161.517 173.303 160.076 184.18Z" fill="url(#paint3_linear_1295_564)"/>
<path d="M175.452 184.94C177.924 199.112 176.356 207.245 173.998 220.709C162.255 217.867 130.12 204.543 134.057 180.767C137.107 162.355 136.428 165.108 144.761 151.48C152.495 164.165 173.567 174.131 175.452 184.94Z" fill="url(#paint4_linear_1295_564)"/>
<path d="M118.005 187.909C118.31 202.767 141.136 222.154 155.994 221.85C170.852 221.545 171.245 224.828 170.94 209.97C170.636 195.112 159.86 191.626 145.002 191.931C117.953 185.385 120.493 170.633 118.005 187.909Z" fill="url(#paint5_linear_1295_564)"/>
<path d="M118.005 187.909C118.31 202.767 141.136 222.154 155.994 221.85C170.852 221.545 171.245 224.828 170.94 209.97C170.636 195.112 159.86 191.626 145.002 191.931C117.953 185.385 120.493 170.633 118.005 187.909Z" fill="url(#paint6_linear_1295_564)"/>
<path d="M195.129 189.184C195.434 204.042 179.943 196.762 168.866 220.943C155.867 190.796 141.628 205.145 141.323 190.287C141.018 175.429 156.276 158.222 167.387 148.843C179.637 155.589 194.824 174.326 195.129 189.184Z" fill="url(#paint7_radial_1295_564)"/>
<path d="M195.374 186.761C197.346 204.215 178.456 203.178 172.754 213.87C179.384 197.316 193.02 204.634 192.715 189.776C192.41 174.918 183.095 165.481 175.599 154.331C186.587 165.14 191.562 171.498 195.374 186.761Z" fill="#EEC1A9"/>
<path d="M217.673 186.008C217.977 200.866 195.965 221.172 181.107 221.477C166.249 221.782 165.991 225.078 165.686 210.22C165.382 195.362 176.005 191.438 190.864 191.133C217.621 183.484 214.478 168.848 217.673 186.008Z" fill="url(#paint8_linear_1295_564)"/>
<path d="M217.673 186.008C217.977 200.866 195.965 221.172 181.107 221.477C166.249 221.782 165.991 225.078 165.686 210.22C165.382 195.362 176.005 191.438 190.864 191.133C217.621 183.484 214.478 168.848 217.673 186.008Z" fill="url(#paint9_linear_1295_564)"/>
<path d="M198.811 185.122C202.337 197.473 185.025 214.841 174.736 217.778C164.446 220.716 165.001 223.515 161.476 211.164C157.95 198.813 168.751 185.307 179.04 182.37C205.271 179.525 192.758 171.372 198.811 185.122Z" fill="url(#paint10_radial_1295_564)"/>
<path d="M133.478 188.297C128.183 185.719 120.926 179.941 120.926 179.941C120.926 179.941 123.494 182.953 125.33 184.696C128.973 188.154 129.192 189.852 133.56 192.332C137.199 194.398 140.022 196.201 143.899 197.772C147.661 199.296 150.227 199.454 153.667 201.609C158.342 204.537 160.644 206.256 163.282 211.101C164.729 213.758 166.983 220.983 166.983 220.983C166.983 220.983 168.353 211.628 167.251 207.79C165.714 202.436 163.22 199.612 158.674 196.393C153.737 192.896 149.519 194.047 143.784 192.122C139.714 190.756 137.337 190.176 133.478 188.297Z" fill="#EAB29F" fill-opacity="0.84"/>
<path d="M137.879 181.514C132.545 192.248 147.094 211.928 156.843 216.772C166.592 221.616 165.625 224.099 170.958 213.364C176.292 202.63 167.613 187.874 157.864 183.031C132.319 174.99 145.924 170.001 137.879 181.514Z" fill="url(#paint11_radial_1295_564)"/>
<path d="M141.225 175.306C141.198 175.451 141.162 175.628 141.11 175.839C140.845 176.906 140.171 178.782 138.152 181.675C136.871 184.268 136.775 187.422 137.53 190.801C138.286 194.188 139.892 197.773 141.975 201.187C146.146 208.024 152.181 214.102 156.984 216.489C158.752 217.367 160.175 218.172 161.339 218.83C161.783 219.081 162.19 219.311 162.563 219.515C163.243 219.887 163.807 220.172 164.299 220.357C164.789 220.542 165.186 220.619 165.534 220.594C166.203 220.547 166.812 220.112 167.612 218.929C168.409 217.75 169.338 215.915 170.675 213.223C173.283 207.974 172.479 201.71 169.782 196.126C167.091 190.551 162.54 185.714 157.745 183.325C145.589 179.496 142.248 176.345 141.225 175.306Z" stroke="#C88181" stroke-opacity="0.02" stroke-width="0.632209"/>
<path d="M150.268 180.414L141.285 175.484C141.285 175.484 146.324 180.142 150.296 181.759C151.834 182.385 152.831 182.368 154.359 183.021C157.066 184.179 158.425 185.253 160.635 187.199C164.026 190.187 165.355 192.528 167.553 196.477C168.835 198.78 169.807 200.035 170.371 202.61C171.115 206.011 170.628 208.136 169.745 211.504C169.137 213.827 168.258 214.946 167.44 217.203C166.795 218.985 165.92 221.81 165.92 221.81C165.92 221.81 169.811 216.833 171.124 213.091C172.325 209.667 172.845 207.527 172.55 203.911C172.331 201.218 171.842 199.71 170.798 197.218C169.67 194.525 168.704 193.134 166.899 190.839C164.234 187.448 162.418 185.612 158.674 183.471C155.642 181.737 150.268 180.414 150.268 180.414Z" fill="url(#paint12_linear_1295_564)"/>
<path d="M197.375 180.527C197.166 179.284 196.776 177.579 196.776 177.579C196.776 177.579 196.643 179.648 196.854 181.345C197.079 183.167 197.644 184.372 198.029 186.166C198.516 188.436 198.105 189.827 197.612 192.096C196.754 196.046 195.238 198.004 192.957 201.342C189.896 205.821 187.512 207.937 183.202 211.231C178.497 214.827 173.694 213.959 169.894 218.502C168.977 219.598 167.802 221.505 167.802 221.505C167.802 221.505 169.715 220.112 170.986 219.287C175.837 216.137 179.625 216.213 184.311 212.823C189.127 209.339 191.658 206.855 194.852 201.841C197.048 198.393 198.616 196.374 199.232 192.332C199.612 189.838 199.687 188.328 199.1 185.875C198.595 183.768 197.734 182.664 197.375 180.527Z" fill="url(#paint13_linear_1295_564)"/>
<path d="M159.391 216.587C162.869 219.679 169.379 223.086 169.379 223.086C169.379 223.086 163.632 218.653 160.37 215.361C157.176 212.137 155.554 210.144 152.874 206.481C150.053 202.627 148.164 200.545 146.392 196.109C145.66 194.276 144.867 191.289 144.867 191.289C144.867 191.289 145.173 194.721 145.752 196.838C147.077 201.683 149.22 203.913 152.126 208.01C154.665 211.591 156.111 213.67 159.391 216.587Z" fill="url(#paint14_linear_1295_564)"/>
<path d="M264.209 264.399C227.984 315.592 193.902 330.687 170.557 344.722C194.697 322.478 209.449 311.486 223.391 289.463C239.642 263.794 295.425 202.436 347.623 194.467C320.638 203.087 290.483 227.268 264.209 264.399Z" fill="#75A142"/>
<defs>
<filter id="filter0_f_1295_564" x="47.9989" y="291.972" width="250.35" height="73.0179" filterUnits="userSpaceOnUse" color-interpolation-filters="sRGB">
<feFlood flood-opacity="0" result="BackgroundImageFix"/>
<feBlend mode="normal" in="SourceGraphic" in2="BackgroundImageFix" result="shape"/>
<feGaussianBlur stdDeviation="9.483" result="effect1_foregroundBlur_1295_564"/>
</filter>
<linearGradient id="paint0_linear_1295_564" x1="256.671" y1="63.8457" x2="229.568" y2="108.737" gradientUnits="userSpaceOnUse">
<stop offset="0.5499" stop-color="#695546"/>
<stop offset="0.708063" stop-color="#B69E7D"/>
</linearGradient>
<linearGradient id="paint1_linear_1295_564" x1="167.231" y1="249.902" x2="167.231" y2="322.642" gradientUnits="userSpaceOnUse">
<stop stop-color="#81B148" stop-opacity="0.56"/>
<stop offset="1" stop-color="#81B148"/>
</linearGradient>
<linearGradient id="paint2_linear_1295_564" x1="220.714" y1="137.867" x2="220.714" y2="301.203" gradientUnits="userSpaceOnUse">
<stop stop-color="white"/>
<stop offset="1" stop-color="white" stop-opacity="0"/>
</linearGradient>
<linearGradient id="paint3_linear_1295_564" x1="189.262" y1="152.433" x2="185.981" y2="176.185" gradientUnits="userSpaceOnUse">
<stop stop-color="#F1B09E"/>
<stop offset="1" stop-color="#FAE6CE"/>
</linearGradient>
<linearGradient id="paint4_linear_1295_564" x1="144.989" y1="154.416" x2="149.241" y2="178.013" gradientUnits="userSpaceOnUse">
<stop stop-color="#F1B09E"/>
<stop offset="1" stop-color="#FAE6CE"/>
</linearGradient>
<linearGradient id="paint5_linear_1295_564" x1="134.247" y1="198.239" x2="168.855" y2="219.061" gradientUnits="userSpaceOnUse">
<stop stop-color="#EFB7A4"/>
<stop offset="0.942708" stop-color="#F7E7D8"/>
</linearGradient>
<linearGradient id="paint6_linear_1295_564" x1="134.247" y1="198.239" x2="168.855" y2="219.061" gradientUnits="userSpaceOnUse">
<stop stop-color="#EFB7A4"/>
<stop offset="0.942708" stop-color="#F7E7D8"/>
</linearGradient>
<radialGradient id="paint7_radial_1295_564" cx="0" cy="0" r="1" gradientUnits="userSpaceOnUse" gradientTransform="translate(167.96 163.634) rotate(89.0943) scale(57.316 42.7731)">
<stop stop-color="#FADFCC"/>
<stop offset="1" stop-color="#F1BEAB"/>
</radialGradient>
<linearGradient id="paint8_linear_1295_564" x1="201.868" y1="196.995" x2="168.142" y2="219.218" gradientUnits="userSpaceOnUse">
<stop stop-color="#EFB7A4"/>
<stop offset="0.942708" stop-color="#F7E7D8"/>
</linearGradient>
<linearGradient id="paint9_linear_1295_564" x1="201.868" y1="196.995" x2="168.142" y2="219.218" gradientUnits="userSpaceOnUse">
<stop stop-color="#EFB7A4"/>
<stop offset="0.942708" stop-color="#F7E7D8"/>
</linearGradient>
<radialGradient id="paint10_radial_1295_564" cx="0" cy="0" r="1" gradientUnits="userSpaceOnUse" gradientTransform="translate(166.936 215.614) rotate(-42.1049) scale(43.8565 60.3139)">
<stop stop-color="#FCE5D0"/>
<stop offset="1" stop-color="#EFB7A4"/>
</radialGradient>
<radialGradient id="paint11_radial_1295_564" cx="0" cy="0" r="1" gradientUnits="userSpaceOnUse" gradientTransform="translate(164.888 216.37) rotate(-129.312) scale(43.9236 57.1742)">
<stop stop-color="#FCE5D0"/>
<stop offset="1" stop-color="#EFB7A4"/>
</radialGradient>
<linearGradient id="paint12_linear_1295_564" x1="156.643" y1="175.169" x2="157.603" y2="221.981" gradientUnits="userSpaceOnUse">
<stop stop-color="#F0BFAF"/>
<stop offset="1" stop-color="#F0BFAF" stop-opacity="0"/>
</linearGradient>
<linearGradient id="paint13_linear_1295_564" x1="183.103" y1="177.859" x2="183.991" y2="221.173" gradientUnits="userSpaceOnUse">
<stop stop-color="#F4B59C"/>
<stop offset="1" stop-color="#F1C4B2" stop-opacity="0"/>
</linearGradient>
<linearGradient id="paint14_linear_1295_564" x1="159.002" y1="193.186" x2="155.244" y2="221.189" gradientUnits="userSpaceOnUse">
<stop stop-color="#F1BCA9"/>
<stop offset="1" stop-color="#F1BCA9" stop-opacity="0"/>
</linearGradient>
</defs>
</svg>
